<?xml version='1.0' encoding='UTF-8' standalone='no'?>
<svg width="60" height="30" xmlns:atv="http://webmi.atvise.com/2007/svgext" version="1.2" xmlns="http://www.w3.org/2000/svg" xmlns:xlink="http://www.w3.org/1999/xlink">
 <defs/>
 <title>Display Time</title>
 <desc>This control displays the current client time (hour and minutes).</desc>
 <metadata>
  <atv:parameter name="base" valuetype="address" behavior="optional"/>
  <atv:parameter name="fontColor" valuetype="global" group="Appearance" substitute="$FONTCOLOR$" defaultvalue="SYSTEM.GLOBALS.atvFontColor" desc="font color" behavior="optional"/>
  <atv:parameter name="fillColor" valuetype="global" group="Appearance" substitute="$FILLCOLOR$" defaultvalue="SYSTEM.GLOBALS.atvFillColor" desc="fill color" behavior="optional"/>
  <atv:parameter name="borderColor" valuetype="global" group="Appearance" substitute="$BORDERCOLOR$" defaultvalue="SYSTEM.GLOBALS.atvBorderColor" desc="border color" behavior="optional"/>
  <atv:gridconfig width="2" gridstyle="lines" height="2" enabled="true"/>
  <atv:snapconfig width="2" height="2" enabled="false"/>
 </metadata>
 <rect width="59.5" x="0.25" id="id_0" y="0.25" atv:refpy="15.25" atv:dynamic="true" height="29.5" fill="$FILLCOLOR$" stroke="$BORDERCOLOR$" atv:refpx="30" ry="3" rx="3" stroke-width="0.5"/>
 <rect width="53.512" x="3.244" id="id_7" y="4.322" atv:refpy="-143.103" height="21.203" fill="#ffffff" stroke="none" atv:refpx="37.31" ry="3" rx="3" stroke-width="3.426"/>
 <path id="id_10" atv:refpy="128.437" fill="#ffffff" d="M5.641,6.538C5.641,6.538 5,11.177 5,14.53C5,17.882 5.641,23.305 5.641,23.305C5.641,23.305 54.36,23.305 54.36,23.305C54.36,23.305 55,18.25 55,14.897C55,11.543 54.36,6.538 54.36,6.538C54.36,6.538 5.641,6.538 5.641,6.538" stroke="$FILLCOLOR$" atv:refpx="38.52" stroke-width="1.713"/>
 <path id="id_1" atv:refpy="15" fill="$FILLCOLOR$" d="M15.97,6.403L15.97,23.703L44.337,23.595L44.337,6.296L43.722,6.296L43.722,22.514L33.933,22.514L33.933,6.296L26.071,6.296L26.071,22.514L16.627,22.622L16.627,6.403Z" stroke="none" atv:refpx="28.176" stroke-width="2"/>
 <text x="43.974" id="m" text-anchor="middle" font-size="16" y="20.532" atv:refpy="16.532" font-family="Courier" fill="$FONTCOLOR$" font-weight="bold" atv:refpx="43.974">00</text>
 <text x="16.1" id="h" text-anchor="middle" font-size="16" y="20.532" atv:refpy="16.532" font-family="Courier" fill="$FONTCOLOR$" font-weight="bold" atv:refpx="16.1">00</text>
 <text x="29.762" id="id_20" text-anchor="middle" font-size="16" y="19.978" atv:refpy="13.978" font-family="Arial" fill="$FONTCOLOR$" atv:refpx="29.762">:</text>
 <script type="text/ecmascript"><![CDATA[var base = (webMI.query["base"] == undefined) ? "" : webMI.query["base"];

function setTime(time) {
	var displayedTime = (time == undefined) ? new Date() : new Date(time);

	var h = displayedTime.getHours();
	var m = displayedTime.getMinutes();

	webMI.gfx.setText("h", webMI.sprintf("%02d", h));
	webMI.gfx.setText("m", webMI.sprintf("%02d", m));
}

if (base != "") {
	webMI.data.subscribe(base, function(e) {
		setTime(e.value);
	});
}
else {
	setTime();
	var updateInterval = setInterval(function() { setTime(); }, 3000);
}]]></script>
</svg>
