<?xml version='1.0' encoding='UTF-8' standalone='no'?>
<svg width="20" xmlns:atv="http://webmi.atvise.com/2007/svgext" xmlns:xlink="http://www.w3.org/1999/xlink" version="1.2" xmlns="http://www.w3.org/2000/svg" height="20">
 <defs/>
 <metadata>
  <atv:parameter desc="symbol color" defaultvalue="#000000" name="symbolColor" substitute="$SYMBOLCOLOR$" valuetype="color" behavior="optional"/>
  <atv:gridconfig width="2" height="2" gridstyle="lines" enabled="true"/>
  <atv:snapconfig width="1" height="1" enabled="false"/>
 </metadata>
 <circle cx="10" stroke-width="2" atv:refpy="11" fill="none" stroke="$SYMBOLCOLOR$" cy="11" id="id_0" atv:refpx="10" r="8"/>
 <circle cx="10" stroke-width="2" atv:refpy="11" fill="$SYMBOLCOLOR$" stroke="none" cy="11" id="id_1" atv:refpx="10" r="2"/>
 <path stroke-width="2" atv:refpy="1.5" fill="$SYMBOLCOLOR$" stroke="none" id="id_2" d="M9,3L9,2C9,2 9,1 8,1C7,0.999 7,1 7,1C7,1 7,0 7,0C7,0 13,0 13,0C13,0 13,1 13,1C13,1 12,1 12,1C12,1 11,1 11,2C11,3 11,3 11,3C11,3 9,3 9,3" atv:refpx="10"/>
 <ellipse cx="15.356" stroke-width="2" rx="2" atv:refpy="3.866" fill="$SYMBOLCOLOR$" stroke="none" cy="-4.402" id="id_4" transform="matrix(0.866,0.5,-0.5,0.866,0,0)" ry="1" atv:refpx="15.5"/>
 <ellipse cx="1.964" stroke-width="2" rx="2" atv:refpy="3.866" fill="$SYMBOLCOLOR$" stroke="none" cy="-5.598" id="id_6" transform="matrix(0.866,-0.5,-0.5,-0.866,0,0)" ry="1" atv:refpx="4.5"/>
 <rect width="0.635" stroke-width="1" atv:refpy="7.69" height="6" y="4.69" fill="$SYMBOLCOLOR$" stroke="none" id="id_10" atv:refpx="10" x="9.683"/>
</svg>
