<?xml version='1.0' encoding='UTF-8' standalone='no'?>
<svg xmlns="http://www.w3.org/2000/svg" xmlns:inkscape="http://www.inkscape.org/namespaces/inkscape" xmlns:atv="http://webmi.atvise.com/2007/svgext" xmlns:svg="http://www.w3.org/2000/svg" height="108.78884" xmlns:cc="http://creativecommons.org/ns#" xmlns:rdf="http://www.w3.org/1999/02/22-rdf-syntax-ns#" xmlns:dc="http://purl.org/dc/elements/1.1/" inkscape:version="1.0beta1 (d07a077, 2019-11-03)" xmlns:sodipodi="http://sodipodi.sourceforge.net/DTD/sodipodi-0.dtd" xmlns:xlink="http://www.w3.org/1999/xlink" version="1.1" width="102.50714" sodipodi:docname="Tank_plain_red.svg" id="svg550">
 <defs id="defs544">
  <linearGradient gradientUnits="objectBoundingBox" x1="0" x2="1" y2="0.5" y1="0.5" id="Sk2x7595u12p">
   <stop stop-color="#bc4512" offset="0"/>
   <stop stop-color="#472000" offset="1"/>
  </linearGradient>
  <linearGradient gradientUnits="userSpaceOnUse" x1="2" x2="98" y2="54.6245" y1="54.6245" id="Sk2x7595u12s">
   <stop stop-color="#ff5600" offset="0"/>
   <stop stop-color="#1a0c00" offset="1"/>
  </linearGradient>
  <linearGradient class="linear" gradientUnits="userSpaceOnUse" x1="2" x2="98" y2="54.6245" id="SVGID_1_" y1="54.6245">
   <stop stop-color="#B3B3B3" offset="0"/>
   <stop stop-color="#808080" offset="1"/>
  </linearGradient>
 </defs>
 <sodipodi:namedview inkscape:zoom="0.35" id="base" inkscape:window-y="23" inkscape:cy="325.58521" inkscape:cx="902.28574" inkscape:pageshadow="2" inkscape:window-maximized="0" inkscape:pageopacity="0.0" showgrid="false" bordercolor="#666666" pagecolor="#ffffff" inkscape:window-height="951" inkscape:document-units="mm" inkscape:document-rotation="0" borderopacity="1.0" inkscape:current-layer="layer1" inkscape:window-width="1644" inkscape:window-x="182"/>
 <metadata id="metadata547">
  <rdf:RDF>
   <cc:Work rdf:about="">
    <dc:format>image/svg+xml</dc:format>
    <dc:type rdf:resource="http://purl.org/dc/dcmitype/StillImage"/>
    <dc:title/>
   </cc:Work>
  </rdf:RDF>
  <atv:gridconfig height="20" enabled="false" gridstyle="lines" width="20"/>
  <atv:snapconfig height="10" enabled="false" width="10"/>
 </metadata>
 <g inkscape:groupmode="layer" atv:refpy="54.394" atv:refpx="51.254" transform="translate(132.89643,-62.022246)" id="layer1" inkscape:label="Слой 1">
  <g atv:refpy="116.417" atv:refpx="-81.643" transform="matrix(1.0677827,0,0,1.7378687,-135.032,30.175802)" id="g635">
   <g atv:refpy="49.624" atv:refpx="50" id="shape">
    <path inkscape:connector-curvature="0" d="M2,28.325C2,22.802 23.49,18.325 50,18.325C76.51,18.325 98,22.802 98,28.325L98,70.923C98,76.446 76.51,80.923 50,80.923C23.49,80.923 2,76.446 2,70.923Z" atv:refpy="49.624" atv:refpx="50" fill="#993300" id="path618"/>
   </g>
   <g atv:refpy="54.624" atv:refpx="50" id="linear">
    <path inkscape:connector-curvature="0" d="M50,38.325C23.49,38.325 2,33.848 2,28.325L2,70.924C2,76.447 23.49,80.924 50,80.924C76.51,80.924 98,76.447 98,70.924L98,28.325C98,33.848 76.51,38.325 50,38.325" atv:refpy="54.624" class="linear" atv:refpx="50" fill="url(#Sk2x7595u12p)" id="path626"/>
   </g>
   <g atv:refpy="0" atv:refpx="0" id="dark"/>
   <g atv:refpy="28.325" atv:refpx="50" id="light">
    <ellipse rx="48" cx="50" atv:refpy="28.325" atv:refpx="50" ry="10" fill="#bc4512" cy="28.325001" id="ellipse630"/>
   </g>
   <g atv:refpy="0" atv:refpx="0" id="shadow"/>
   <g atv:refpy="0" atv:refpx="0" id="hlight"/>
  </g>
 </g>
</svg>
