<?xml version='1.0' encoding='UTF-8' standalone='no'?>
<svg width="60" version="1.2" xmlns="http://www.w3.org/2000/svg" height="30" xmlns:xlink="http://www.w3.org/1999/xlink" xmlns:atv="http://webmi.atvise.com/2007/svgext">
 <defs>
  <linearGradient id="linear_0" y1="0.970149" x1="0.119403" y2="-0.0159425" gradientUnits="objectBoundingBox" x2="0.119403">
   <stop offset="0" stop-color="#29394b"/>
   <stop offset="1" stop-color="#788ba3"/>
  </linearGradient>
  <linearGradient id="linear_10" y1="-0.0159425" x1="0.776844" y2="0.940299" gradientUnits="objectBoundingBox" x2="0.776844">
   <stop offset="0" stop-color="#1a242f"/>
   <stop offset="1" stop-color="#71849c"/>
  </linearGradient>
 </defs>
 <title>Display Time</title>
 <desc>This control displays the current client time (hour and minutes).</desc>
 <metadata>
  <atv:parameter valuetype="address" behavior="optional" name="base"/>
  <atv:gridconfig width="2" enabled="true" height="2" gridstyle="lines"/>
  <atv:snapconfig width="2" enabled="false" height="2"/>
 </metadata>
 <rect width="59.5" x="0.25" y="0.25" fill="url(#linear_0)" atv:dynamic="true" rx="3" height="29.5" ry="3" stroke="#646464" id="id_0" atv:refpx="30" stroke-width="0.5" atv:refpy="15.25"/>
 <rect width="53.512" x="3.244" y="4.322" fill="url(#linear_10)" rx="3" height="21.203" ry="3" stroke="none" id="id_7" atv:refpx="37.31" stroke-width="3.426" atv:refpy="-143.103"/>
 <path fill="#ffffff" stroke="#000000" id="id_10" atv:refpx="38.52" stroke-width="1.713" atv:refpy="128.437" d="M5.641,6.538C5.641,6.538 5,11.177 5,14.53C5,17.882 5.641,23.305 5.641,23.305C5.641,23.305 54.36,23.305 54.36,23.305C54.36,23.305 55,18.25 55,14.897C55,11.543 54.36,6.538 54.36,6.538C54.36,6.538 5.641,6.538 5.641,6.538"/>
 <path fill="#000000" stroke="none" id="id_1" atv:refpx="28.176" stroke-width="2" atv:refpy="15" d="M15.97,6.403L15.97,23.703L44.337,23.595L44.337,6.296L43.722,6.296L43.722,22.514L33.933,22.514L33.933,6.296L26.071,6.296L26.071,22.514L16.627,22.622L16.627,6.403Z"/>
 <text x="43.974" y="20.532" fill="#000000" font-family="Courier" text-anchor="middle" id="m" font-weight="bold" atv:refpx="43.974" atv:refpy="16.532" font-size="16">00</text>
 <text x="16.1" y="20.532" fill="#000000" font-family="Courier" text-anchor="middle" id="h" font-weight="bold" atv:refpx="16.1" atv:refpy="16.532" font-size="16">00</text>
 <text x="29.762" y="19.978" fill="#ffffff" font-family="Arial" text-anchor="middle" id="id_20" atv:refpx="29.762" atv:refpy="13.978" font-size="16">:</text>
 <script type="text/ecmascript"><![CDATA[var base = (webMI.query["base"] == undefined) ? "" : webMI.query["base"];

function setTime(time) {
	var displayedTime = (time == undefined) ? new Date() : new Date(time);

	var h = displayedTime.getHours();
	var m = displayedTime.getMinutes();

	webMI.gfx.setText("h", webMI.sprintf("%02d", h));
	webMI.gfx.setText("m", webMI.sprintf("%02d", m));
}

if (base != "") {
	webMI.data.subscribe(base, function(e) {
		setTime(e.value);
	});
}
else {
	setTime();
	var updateInterval = setInterval(function() { setTime(); }, 3000);
}]]></script>
</svg>
