<?xml version='1.0' encoding='UTF-8' standalone='no'?>
<svg xmlns:atv="http://webmi.atvise.com/2007/svgext" enable-background="new 0 0 20 20" xmlns:xlink="http://www.w3.org/1999/xlink" version="1.1" height="20" xmlns="http://www.w3.org/2000/svg" x="0px" y="0px" id="Ebene_1" xml:space="preserve" width="20">
 <defs/>
 <metadata>
  <atv:parameter desc="symbol color" behavior="optional" defaultvalue="#000000" name="symbolColor" substitute="$SYMBOLCOLOR$" valuetype="color"/>
  <atv:gridconfig gridstyle="lines" height="20" enabled="false" width="20"/>
  <atv:snapconfig height="10" enabled="false" width="10"/>
 </metadata>
 <polygon fill="$SYMBOLCOLOR$" atv:refpx="10" points="15.007,7.793 13.254,6.04 11.239,8.055 11.239,0 8.76,0 8.76,8.054 6.746,6.04 4.993,7.793 &#xd;&#xa;&#x9;8.246,11.048 8.246,11.048 8.686,11.486 9.919,12.72 9.919,12.72 10,12.801 " id="id_0" atv:refpy="6.401"/>
 <g atv:refpx="10" id="id_4" atv:refpy="18.438">
  <path fill="$SYMBOLCOLOR$" d="M14.986,16.875C15.142,17.371 15.25,17.89 15.25,18.438C15.25,18.985 15.143,19.504 14.986,20L20,20L20,16.875Z" atv:refpx="17.493" id="id_1" atv:refpy="18.438"/>
  <path fill="$SYMBOLCOLOR$" d="M4.75,18.438C4.75,17.89 4.857,17.372 5.013,16.875L0,16.875L0,20L5.013,20C4.857,19.504 4.75,18.985 4.75,18.438" atv:refpx="2.506" id="id_2" atv:refpy="18.438"/>
 </g>
 <path fill="$SYMBOLCOLOR$" d="M13.447,20C13.664,19.522 13.792,18.996 13.792,18.437C13.792,16.341 12.094,14.645 10,14.645C7.906,14.645 6.208,16.341 6.208,18.437C6.208,18.996 6.336,19.522 6.553,20Z" atv:refpx="10" id="id_3" atv:refpy="17.323"/>
</svg>
