<?xml version='1.0' encoding='UTF-8' standalone='no'?>
<svg xmlns:sodipodi="http://sodipodi.sourceforge.net/DTD/sodipodi-0.dtd" xmlns:inkscape="http://www.inkscape.org/namespaces/inkscape" xmlns:atv="http://webmi.atvise.com/2007/svgext" inkscape:version="1.0beta1 (d07a077, 2019-11-03)" width="83.489914" id="svg569" xmlns:svg="http://www.w3.org/2000/svg" xmlns:xlink="http://www.w3.org/1999/xlink" xmlns:dc="http://purl.org/dc/elements/1.1/" version="1.1" xmlns:rdf="http://www.w3.org/1999/02/22-rdf-syntax-ns#" xmlns="http://www.w3.org/2000/svg" height="146.12454" xmlns:cc="http://creativecommons.org/ns#" sodipodi:docname="Heatexchanger.svg">
 <defs id="defs563"/>
 <sodipodi:namedview pagecolor="#ffffff" inkscape:cy="374.71229" inkscape:window-x="130" inkscape:document-units="mm" inkscape:window-width="1644" bordercolor="#666666" inkscape:document-rotation="0" inkscape:pageopacity="0.0" inkscape:window-maximized="0" inkscape:current-layer="layer1" inkscape:cx="906.34765" inkscape:pageshadow="2" inkscape:zoom="0.35" inkscape:window-height="951" showgrid="false" inkscape:window-y="23" borderopacity="1.0" id="base"/>
 <metadata id="metadata566">
  <rdf:RDF>
   <cc:Work rdf:about="">
    <dc:format>image/svg+xml</dc:format>
    <dc:type rdf:resource="http://purl.org/dc/dcmitype/StillImage"/>
    <dc:title/>
   </cc:Work>
  </rdf:RDF>
  <atv:gridconfig width="20" enabled="false" height="20" gridstyle="lines"/>
  <atv:snapconfig width="10" enabled="false" height="10"/>
 </metadata>
 <g inkscape:groupmode="layer" id="layer1" transform="translate(133.97115,-49.024041)" atv:refpx="41.745" atv:refpy="73.062" inkscape:label="Слой 1">
  <g id="g2336" transform="matrix(1.7770995,0,0,1.4911276,-180.85281,46.035821)" atv:refpx="-92.226" atv:refpy="122.086">
   <g id="shape" atv:refpx="49.871" atv:refpy="50.004">
    <path d="M52.362,2.004L26.381,17.004L26.381,98.004L47.381,98.004L73.362,83.004L73.362,2.004ZM34.265,17.004L35.961,17.004L36.53,18.449L34.887,24.518L33.313,20.518ZM46.047,17.004L47.095,19.667L45.452,25.737L43.878,21.738L45.159,17.004ZM47.382,49.376L47.382,56.257L46.278,53.453ZM45.699,51.986L44.099,47.92L45.742,41.85L47.343,45.916ZM50.557,30.796L49.616,34.274L49.186,33.182L49.186,29.122L49.85,26.667L50.557,28.462ZM49.185,56.291L50.098,52.919L50.556,54.084L50.556,57.634L49.788,60.471L49.184,58.94L49.184,56.291ZM49.974,39.792L50.557,41.272L50.557,44.213L49.703,47.371L49.186,46.059L49.186,42.705ZM47.381,43.45L46.154,40.33L47.381,35.794ZM45.575,38.862L43.974,34.795L45.617,28.724L47.218,32.791ZM45.164,40.383L43.521,46.453L41.919,42.385L43.562,36.316ZM43.109,47.974L41.466,54.044L39.864,49.977L41.508,43.907ZM41.343,40.917L39.769,36.917L41.413,30.848L42.986,34.847ZM40.931,42.438L39.288,48.509L37.714,44.509L39.358,38.439ZM38.877,50.029L37.223,56.14L35.649,52.141L37.302,46.03ZM37.136,43.042L35.562,39.043L37.205,32.973L38.779,36.972ZM36.725,44.562L35.071,50.673L33.498,46.674L35.151,40.563ZM34.659,52.194L33.006,58.304L31.432,54.306L33.085,48.196ZM33.172,61.292L34.746,65.291L33.092,71.403L31.518,67.403ZM33.583,59.772L35.237,53.662L36.811,57.662L35.157,63.772ZM37.389,59.128L38.991,63.196L37.338,69.305L35.736,65.238ZM37.801,57.607L39.454,51.497L41.056,55.564L39.402,61.675ZM41.633,57.032L43.234,61.097L41.58,67.207L39.98,63.142ZM42.044,55.512L43.688,49.441L45.289,53.507L43.646,59.577ZM45.865,54.974L47.381,58.825L47.381,59.355L45.823,65.112L44.222,61.045ZM47.381,62.959L47.381,69.07L46.402,66.58ZM49.875,73.566L49.185,71.815L49.185,69.872L50.221,66.042L50.556,66.892L50.556,71.047ZM49.528,21.176L49.185,20.304L49.185,19.086L50.262,18.464ZM47.381,30.639L46.029,27.204L47.381,22.208ZM45.04,27.257L43.396,33.327L41.822,29.328L43.466,23.257ZM41.245,27.86L39.671,23.861L41.314,17.79L42.888,21.789ZM40.833,29.381L39.19,35.45L37.616,31.451L39.259,25.382ZM37.039,29.984L35.465,25.984L37.108,19.915L38.682,23.915ZM36.627,31.505L34.984,37.576L33.41,33.576L35.053,27.506ZM34.573,39.096L32.919,45.207L31.345,41.207L32.999,35.097ZM30.767,39.741L29.193,35.741L30.846,29.63L32.42,33.63ZM30.934,42.728L32.508,46.728L30.855,52.839L29.28,48.839ZM31.02,55.827L32.593,59.825L30.94,65.936L29.366,61.939ZM31.106,68.924L32.68,72.923L31.027,79.034L29.452,75.034ZM33.259,74.391L34.86,78.459L33.207,84.569L31.605,80.501ZM33.67,72.87L35.323,66.759L36.925,70.827L35.271,76.938ZM37.503,72.294L39.103,76.359L37.449,82.471L35.849,78.406ZM37.914,70.773L39.567,64.663L41.168,68.729L39.515,74.838ZM41.745,70.198L43.347,74.264L41.694,80.373L40.092,76.306ZM42.157,68.676L43.81,62.566L45.412,66.633L43.758,72.744ZM45.989,68.101L47.381,71.636L47.381,72.939L45.937,78.277L44.336,74.212ZM49.185,79.717L49.746,77.645L49.768,77.702L49.185,79.856ZM50.347,79.168L50.557,79.702L50.557,80.92L49.746,81.389ZM50.452,75.034L50.556,74.648L50.556,74.789L50.474,75.092ZM47.382,17.832L47.056,17.004L47.382,17.004ZM43.3,20.271L42.014,17.004L44.184,17.004ZM39.093,22.394L37.519,18.394L37.897,17.003L40.553,17.003ZM34.477,26.04L32.833,32.11L31.259,28.11L32.902,22.04ZM30.681,26.643L29.107,22.643L30.419,17.797L31.081,17.414L32.324,20.572ZM28.528,21.177L28.185,20.305L28.185,19.087L29.262,18.465ZM28.694,24.164L30.269,28.164L28.615,34.275L28.185,33.183L28.185,26.046ZM28.205,35.795L28.186,35.863L28.186,35.749ZM28.781,37.262L30.355,41.262L28.703,47.373L28.186,46.061L28.186,39.464ZM28.291,48.893L28.185,49.282L28.185,48.626ZM28.869,50.36L30.443,54.36L28.79,60.471L28.186,58.938L28.186,52.883ZM28.378,61.991L28.186,62.7L28.186,61.504ZM28.956,63.459L30.529,67.457L28.876,73.567L28.186,71.816L28.186,66.302ZM28.465,75.088L28.187,76.114L28.187,74.382ZM29.042,76.556L30.616,80.556L28.963,86.666L28.187,84.694L28.187,79.717ZM28.551,88.188L28.187,89.535L28.187,87.262ZM29.129,89.655L30.296,92.62L28.187,93.838L28.187,93.136ZM29.54,88.134L31.194,82.024L32.795,86.091L31.164,92.119L31.119,92.144ZM33.373,87.559L34.426,90.236L32.319,91.452ZM33.784,86.038L35.438,79.927L37.038,83.992L35.519,89.603L35.25,89.76ZM37.616,85.46L38.556,87.85L36.674,88.937ZM38.027,83.939L39.681,77.828L41.282,81.895L39.878,87.087L39.38,87.374ZM41.86,83.363L42.687,85.465L41.033,86.42ZM42.271,81.843L43.925,75.734L45.525,79.798L44.233,84.572L43.51,84.989ZM46.102,81.266L46.817,83.081L45.388,83.906ZM46.515,79.744L47.382,76.541L47.382,81.947ZM33.29,17.004L32.735,19.052L31.93,17.004Z" id="path1463" fill="#993300" inkscape:connector-curvature="0" atv:refpx="49.871" atv:refpy="50.004"/>
    <rect width="20.875" id="rect1465" fill="#993300" y="16.875" height="3" atv:refpx="37.438" x="27" atv:refpy="18.375"/>
   </g>
   <g id="dark" atv:refpx="48.97" atv:refpy="52.087">
    <polygon id="polygon1468" points="60.289,48.51 61.932,42.439 60.357,38.44 58.715,44.511 " fill="#583300" atv:refpx="60.324" atv:refpy="43.475"/>
    <polygon id="polygon1470" points="58.137,43.043 59.779,36.973 58.206,32.974 56.563,39.044 " fill="#583300" atv:refpx="58.171" atv:refpy="38.008"/>
    <polygon id="polygon1472" points="56.071,50.674 57.726,44.563 56.151,40.565 54.498,46.676 " fill="#583300" atv:refpx="56.112" atv:refpy="45.62"/>
    <polygon id="polygon1474" points="62.344,40.918 63.986,34.849 62.412,30.85 60.769,36.919 " fill="#583300" atv:refpx="62.377" atv:refpy="35.884"/>
    <polygon id="polygon1476" points="64.522,46.454 66.165,40.384 64.563,36.316 62.921,42.386 " fill="#583300" atv:refpx="64.543" atv:refpy="41.385"/>
    <polygon id="polygon1478" points="66.742,41.851 65.1,47.921 66.7,51.987 68.343,45.917 " fill="#583300" atv:refpx="66.721" atv:refpy="46.919"/>
    <polygon id="polygon1480" points="64.688,49.442 63.045,55.513 64.646,59.578 66.289,53.508 " fill="#583300" atv:refpx="64.667" atv:refpy="54.51"/>
    <polygon id="polygon1482" points="64.976,34.796 66.576,38.863 68.219,32.792 66.618,28.725 " fill="#583300" atv:refpx="66.597" atv:refpy="33.794"/>
    <polygon id="polygon1484" points="52.362,30.938 52.362,37.547 53.422,33.63 " fill="#583300" atv:refpx="52.892" atv:refpy="34.242"/>
    <polygon id="polygon1486" points="56.85,78.407 58.449,82.473 60.103,76.36 58.504,72.295 " fill="#583300" atv:refpx="58.477" atv:refpy="77.384"/>
    <polygon id="polygon1488" points="64.811,62.566 63.158,68.677 64.759,72.744 66.413,66.633 " fill="#583300" atv:refpx="64.785" atv:refpy="67.655"/>
    <polygon id="polygon1490" points="52.362,41.148 52.362,41.251 53.92,45.208 55.574,39.097 54,35.098 " fill="#583300" atv:refpx="53.968" atv:refpy="40.153"/>
    <polygon id="polygon1492" points="62.746,70.198 61.093,76.308 62.694,80.375 64.348,74.266 " fill="#583300" atv:refpx="62.721" atv:refpy="75.286"/>
    <polygon id="polygon1494" points="62.634,57.033 60.98,63.143 62.58,67.209 64.234,61.099 " fill="#583300" atv:refpx="62.607" atv:refpy="62.121"/>
    <polygon id="polygon1496" points="57.649,83.004 56.438,79.927 55.606,83.004 " fill="#583300" atv:refpx="56.627" atv:refpy="81.466"/>
    <polygon id="polygon1498" points="52.58,83.004 52.362,82.45 52.362,83.004 " fill="#583300" atv:refpx="52.471" atv:refpy="82.727"/>
    <polygon id="polygon1500" points="60.568,64.664 58.915,70.774 60.516,74.84 62.169,68.73 " fill="#583300" atv:refpx="60.542" atv:refpy="69.752"/>
    <polygon id="polygon1502" points="54.26,74.392 52.605,80.502 53.59,83.004 54.631,83.004 55.86,78.46 " fill="#583300" atv:refpx="54.233" atv:refpy="78.698"/>
    <polygon id="polygon1504" points="63.271,81.843 63.729,83.004 65.658,83.004 66.525,79.798 64.926,75.733 " fill="#583300" atv:refpx="64.898" atv:refpy="79.369"/>
    <polygon id="polygon1506" points="56.158,63.772 57.813,57.662 56.238,53.663 54.584,59.773 " fill="#583300" atv:refpx="56.199" atv:refpy="58.718"/>
    <polygon id="polygon1508" points="58.303,46.031 56.649,52.142 58.224,56.141 59.878,50.03 " fill="#583300" atv:refpx="58.264" atv:refpy="51.086"/>
    <polygon id="polygon1510" points="69.084,19.614 70.685,23.681 71.558,20.456 71.558,15.655 70.727,13.544 " fill="#583300" atv:refpx="70.321" atv:refpy="18.613"/>
    <polygon id="polygon1512" points="71.558,13.088 71.558,10.474 71.139,12.023 " fill="#583300" atv:refpx="71.349" atv:refpy="11.781"/>
    <polygon id="polygon1514" points="54.007,58.305 55.66,52.195 54.086,48.196 52.433,54.307 " fill="#583300" atv:refpx="54.046" atv:refpy="53.251"/>
    <polygon id="polygon1516" points="62.51,43.907 60.866,49.977 62.468,54.045 64.11,47.975 " fill="#583300" atv:refpx="62.488" atv:refpy="48.976"/>
    <polygon id="polygon1518" points="56.324,66.76 54.671,72.871 56.271,76.939 57.926,70.828 " fill="#583300" atv:refpx="56.299" atv:refpy="71.85"/>
    <polygon id="polygon1520" points="58.39,59.129 56.736,65.239 58.338,69.307 59.991,63.197 " fill="#583300" atv:refpx="58.364" atv:refpy="64.218"/>
    <polygon id="polygon1522" points="52.362,56.694 52.362,64.381 53.595,59.825 " fill="#583300" atv:refpx="52.978" atv:refpy="60.538"/>
    <polygon id="polygon1524" points="60.455,51.498 58.802,57.608 60.402,61.676 62.057,55.565 " fill="#583300" atv:refpx="60.43" atv:refpy="56.587"/>
    <polygon id="polygon1526" points="52.362,43.816 52.362,50.966 53.509,46.729 " fill="#583300" atv:refpx="52.936" atv:refpy="47.391"/>
    <polygon id="polygon1528" points="54.173,61.293 52.518,67.405 54.093,71.404 55.747,65.292 " fill="#583300" atv:refpx="54.133" atv:refpy="66.349"/>
    <polygon id="polygon1530" points="53.682,72.924 52.362,69.572 52.362,77.8 " fill="#583300" atv:refpx="53.022" atv:refpy="73.686"/>
    <polygon id="polygon1532" points="60.026,12.828 58.519,18.395 60.094,22.394 61.736,16.324 60.299,12.671 " fill="#583300" atv:refpx="60.127" atv:refpy="17.532"/>
    <polygon id="polygon1534" points="71.558,25.898 71.558,24.058 71.263,25.148 " fill="#583300" atv:refpx="71.411" atv:refpy="24.978"/>
    <polygon id="polygon1536" points="71.558,28.464 70.851,26.669 69.208,32.74 70.809,36.806 71.558,34.039 " fill="#583300" atv:refpx="70.383" atv:refpy="31.737"/>
    <polygon id="polygon1538" points="68.506,18.147 70.148,12.077 68.574,8.079 66.932,14.147 " fill="#583300" atv:refpx="68.54" atv:refpy="13.113"/>
    <polygon id="polygon1540" points="65.23,9.824 66.354,12.68 67.478,8.525 " fill="#583300" atv:refpx="66.354" atv:refpy="10.602"/>
    <polygon id="polygon1542" points="71.558,54.084 71.1,52.919 69.456,58.989 71.057,63.055 71.558,61.206 " fill="#583300" atv:refpx="70.507" atv:refpy="57.987"/>
    <polygon id="polygon1544" points="71.558,38.708 71.558,37.641 71.387,38.273 " fill="#583300" atv:refpx="71.472" atv:refpy="38.174"/>
    <polygon id="polygon1546" points="71.558,51.518 71.558,51.225 71.511,51.399 " fill="#583300" atv:refpx="71.535" atv:refpy="51.371"/>
    <polygon id="polygon1548" points="71.558,41.273 70.975,39.793 69.332,45.864 70.933,49.932 71.558,47.623 " fill="#583300" atv:refpx="70.445" atv:refpy="44.862"/>
    <polygon id="polygon1550" points="64.33,10.344 62.726,16.271 64.3,20.271 65.943,14.2 64.407,10.299 " fill="#583300" atv:refpx="64.334" atv:refpy="15.285"/>
    <polygon id="polygon1552" points="52.362,18.13 52.362,24.128 53.324,20.573 " fill="#583300" atv:refpx="52.843" atv:refpy="21.129"/>
    <polygon id="polygon1554" points="67.102,81.266 66.632,83.004 67.787,83.004 " fill="#583300" atv:refpx="67.21" atv:refpy="82.135"/>
    <polygon id="polygon1556" points="71.558,6.872 71.558,6.17 69.339,7.451 70.56,10.556 " fill="#583300" atv:refpx="70.448" atv:refpy="8.363"/>
    <polygon id="polygon1558" points="57.014,14.568 57.942,16.928 58.871,13.495 " fill="#583300" atv:refpx="57.943" atv:refpy="15.212"/>
    <polygon id="polygon1560" points="52.905,16.94 53.736,19.052 54.567,15.98 " fill="#583300" atv:refpx="53.736" atv:refpy="17.516"/>
    <polygon id="polygon1562" points="61.122,12.196 62.148,14.804 63.175,11.01 " fill="#583300" atv:refpx="62.148" atv:refpy="12.907"/>
    <polygon id="polygon1564" points="55.723,15.313 54.313,20.519 55.888,24.518 57.53,18.449 56.189,15.043 " fill="#583300" atv:refpx="55.922" atv:refpy="19.78"/>
    <polygon id="polygon1566" points="55.985,37.577 57.628,31.506 56.054,27.507 54.411,33.578 " fill="#583300" atv:refpx="56.02" atv:refpy="32.542"/>
    <polygon id="polygon1568" points="64.397,33.328 66.041,27.258 64.467,23.258 62.823,29.329 " fill="#583300" atv:refpx="64.432" atv:refpy="28.293"/>
    <polygon id="polygon1570" points="67.029,27.205 68.631,31.272 70.273,25.201 68.673,21.134 " fill="#583300" atv:refpx="68.651" atv:refpy="26.203"/>
    <polygon id="polygon1572" points="71.558,66.893 71.223,66.043 69.58,72.114 71.182,76.182 71.558,74.79 " fill="#583300" atv:refpx="70.569" atv:refpy="71.113"/>
    <polygon id="polygon1574" points="62.246,27.861 63.889,21.79 62.314,17.792 60.672,23.862 " fill="#583300" atv:refpx="62.281" atv:refpy="22.827"/>
    <polygon id="polygon1576" points="60.191,35.451 61.834,29.382 60.26,25.383 58.617,31.453 " fill="#583300" atv:refpx="60.225" atv:refpy="30.417"/>
    <polygon id="polygon1578" points="69.045,60.51 67.402,66.581 69.002,70.646 70.646,64.576 " fill="#583300" atv:refpx="69.024" atv:refpy="65.578"/>
    <polygon id="polygon1580" points="67.278,53.454 68.879,57.521 70.521,51.452 68.921,47.385 " fill="#583300" atv:refpx="68.9" atv:refpy="52.453"/>
    <polygon id="polygon1582" points="67.154,40.331 68.754,44.397 70.397,38.326 68.797,34.26 " fill="#583300" atv:refpx="68.775" atv:refpy="39.328"/>
    <polygon id="polygon1584" points="66.452,25.737 68.095,19.667 66.521,15.667 64.878,21.738 " fill="#583300" atv:refpx="66.487" atv:refpy="20.702"/>
    <polygon id="polygon1586" points="66.99,68.102 65.337,74.212 66.938,78.277 68.591,72.167 " fill="#583300" atv:refpx="66.964" atv:refpy="73.19"/>
    <polygon id="polygon1588" points="69.591,82.057 70.769,77.702 69.169,73.635 67.515,79.744 68.641,82.605 " fill="#583300" atv:refpx="69.142" atv:refpy="78.12"/>
    <polygon id="polygon1590" points="71.348,79.169 70.746,81.39 71.558,80.921 71.558,79.703 " fill="#583300" atv:refpx="71.152" atv:refpy="80.279"/>
    <polygon id="polygon1592" points="52.362,27.728 52.362,28.374 53.833,32.11 55.477,26.04 53.902,22.04 " fill="#583300" atv:refpx="53.919" atv:refpy="27.075"/>
    <polygon id="polygon1594" points="66.866,54.975 65.224,61.046 66.824,65.113 68.467,59.042 " fill="#583300" atv:refpx="66.846" atv:refpy="60.044"/>
    <polygon id="polygon1596" points="59.281,83.004 61.982,83.004 62.282,81.896 60.682,77.828 " fill="#583300" atv:refpx="60.781" atv:refpy="80.416"/>
    <polygon id="polygon1598" points="58.04,29.985 59.683,23.916 58.108,19.917 56.466,25.986 " fill="#583300" atv:refpx="58.075" atv:refpy="24.951"/>
    <polygon id="polygon1600" points="55.426,90.235 54.373,87.559 53.319,91.451 " fill="#583300" atv:refpx="54.373" atv:refpy="89.505"/>
    <polygon id="polygon1602" points="51.849,83.3 50.54,88.134 52.119,92.144 52.164,92.119 53.795,86.091 52.58,83.004 52.362,83.004 " fill="#583300" atv:refpx="52.168" atv:refpy="87.574"/>
    <polygon id="polygon1604" points="67.817,83.08 67.787,83.004 66.632,83.004 66.389,83.905 " fill="#583300" atv:refpx="67.103" atv:refpy="83.454"/>
    <polygon id="polygon1606" points="56.25,89.76 56.519,89.603 58.038,83.992 57.649,83.004 55.606,83.004 54.784,86.038 " fill="#583300" atv:refpx="56.411" atv:refpy="86.382"/>
    <polygon id="polygon1608" points="62.033,86.42 63.688,85.465 62.86,83.363 " fill="#583300" atv:refpx="62.861" atv:refpy="84.892"/>
    <polygon id="polygon1610" points="54.207,84.57 54.631,83.004 53.59,83.004 " fill="#583300" atv:refpx="54.111" atv:refpy="83.787"/>
    <polygon id="polygon1612" points="49.963,86.666 50.693,83.968 49.232,84.811 " fill="#583300" atv:refpx="49.962" atv:refpy="85.317"/>
    <polygon id="polygon1614" points="49.186,93.136 49.186,93.838 51.296,92.62 50.129,89.655 " fill="#583300" atv:refpx="50.241" atv:refpy="91.746"/>
    <polygon id="polygon1616" points="49.186,89.534 49.551,88.188 49.186,87.262 " fill="#583300" atv:refpx="49.368" atv:refpy="88.398"/>
    <polygon id="polygon1618" points="47.382,85.879 26.382,98.004 47.382,98.004 " fill="#583300" atv:refpx="36.882" atv:refpy="91.942"/>
    <polygon id="polygon1620" points="60.878,87.088 61.982,83.004 59.281,83.004 59.027,83.939 60.38,87.375 " fill="#583300" atv:refpx="60.505" atv:refpy="85.19"/>
    <polygon id="polygon1622" points="59.557,87.85 58.616,85.46 57.675,88.936 " fill="#583300" atv:refpx="58.616" atv:refpy="87.198"/>
    <polygon id="polygon1624" points="65.658,83.004 63.729,83.004 64.511,84.989 65.233,84.572 " fill="#583300" atv:refpx="64.694" atv:refpy="83.996"/>
   </g>
   <g id="light" atv:refpx="49.62" atv:refpy="54.65">
    <polygon id="polygon1627" points="58.397,55.499 59.319,52.094 57.124,53.348 58.049,55.698 " fill="#C78163" atv:refpx="58.222" atv:refpy="53.896"/>
    <path d="M65.167,44.071C64.594,43.562 63.906,43.202 63.164,43.003L64.522,46.454Z" id="path1629" fill="#C78163" inkscape:connector-curvature="0" atv:refpx="64.166" atv:refpy="44.728"/>
    <path d="M60.631,54.223C60.87,54.086 61.147,54.019 61.433,53.981L60.503,51.619C60.474,51.627 60.445,51.633 60.417,51.641L59.551,54.839Z" id="path1631" fill="#C78163" inkscape:connector-curvature="0" atv:refpx="60.492" atv:refpy="53.23"/>
    <polygon id="polygon1633" points="61.335,58.233 62.057,55.565 61.856,55.055 59.06,56.653 58.802,57.608 59.467,59.3 " fill="#C78163" atv:refpx="60.43" atv:refpy="57.177"/>
    <polygon id="polygon1635" points="59.725,67.782 61.415,66.816 60.568,64.664 " fill="#C78163" atv:refpx="60.57" atv:refpy="66.223"/>
    <polygon id="polygon1637" points="58.138,60.06 58.642,59.771 58.39,59.129 " fill="#C78163" atv:refpx="58.39" atv:refpy="59.594"/>
    <path d="M62.24,66.345L62.919,65.957L64.234,61.099L64.027,60.571C63.337,60.248 62.576,60.071 61.813,60.068L61.108,62.672C61.777,62.487 62.565,62.582 63.169,62.934L61.315,63.994Z" id="path1639" fill="#C78163" inkscape:connector-curvature="0" atv:refpx="62.671" atv:refpy="63.207"/>
    <path d="M60.81,60.169C60.503,60.229 60.206,60.324 59.916,60.443L60.402,61.677Z" id="path1641" fill="#C78163" inkscape:connector-curvature="0" atv:refpx="60.363" atv:refpy="60.923"/>
    <path d="M60.191,35.451L60.485,34.366C60.268,34.424 60.057,34.497 59.851,34.586Z" id="path1643" fill="#C78163" inkscape:connector-curvature="0" atv:refpx="60.168" atv:refpy="34.909"/>
    <path d="M61.451,51.464L62.463,54.034C62.465,54.035 62.468,54.035 62.47,54.035L63.123,51.623C62.577,51.48 62.013,51.427 61.451,51.464" id="path1645" fill="#C78163" inkscape:connector-curvature="0" atv:refpx="62.287" atv:refpy="52.744"/>
    <path d="M65.432,56.673L66.289,53.508L65.972,52.703L65.482,52.983C65.067,52.538 64.561,52.194 64.012,51.938L63.044,55.513L63.604,56.935L64.968,56.155Z" id="path1647" fill="#C78163" inkscape:connector-curvature="0" atv:refpx="64.667" atv:refpy="54.437"/>
    <polygon id="polygon1649" points="60.426,38.615 60.289,38.694 59.367,42.101 61.352,40.966 " fill="#C78163" atv:refpx="60.359" atv:refpy="40.358"/>
    <path d="M67.307,43.286C67.245,43.334 67.182,43.382 67.109,43.424L66.171,43.96L65.151,47.731L67.225,50.049L68.004,47.17L67.189,46.258L68.241,45.657Z" id="path1651" fill="#C78163" inkscape:connector-curvature="0" atv:refpx="66.696" atv:refpy="46.668"/>
    <path d="M66.866,54.975L66.179,57.509L67.401,58.875C67.676,59.184 67.799,59.532 67.746,59.858C67.693,60.184 67.467,60.476 67.108,60.681L65.482,61.61C65.464,61.591 65.442,61.577 65.424,61.558L66.823,65.111L67.239,63.572L67.187,63.514L67.267,63.468L68.465,59.041Z" id="path1653" fill="#C78163" inkscape:connector-curvature="0" atv:refpx="66.945" atv:refpy="60.043"/>
    <polygon id="polygon1655" points="66.06,40.117 64.563,36.316 63.663,39.645 64.97,38.898 " fill="#C78163" atv:refpx="64.862" atv:refpy="38.216"/>
    <polygon id="polygon1657" points="59.016,26.38 57.061,27.498 57.986,29.849 58.094,29.787 " fill="#C78163" atv:refpx="58.038" atv:refpy="28.114"/>
    <polygon id="polygon1659" points="58.572,68.441 59.494,65.034 57.177,66.359 58.103,68.709 " fill="#C78163" atv:refpx="58.335" atv:refpy="66.871"/>
    <path d="M69.266,39.951L67.724,38.227L67.155,40.33L68.755,44.396L69.77,40.648C69.628,40.404 69.461,40.169 69.266,39.951" id="path1661" fill="#C78163" inkscape:connector-curvature="0" atv:refpx="68.463" atv:refpy="41.312"/>
    <path d="M68.219,32.792L66.618,28.725L65.914,31.325L67.402,32.989C67.677,33.297 67.8,33.646 67.747,33.972C67.694,34.298 67.468,34.59 67.109,34.795L65.482,35.724C65.416,35.652 65.334,35.596 65.263,35.529L66.576,38.863Z" id="path1663" fill="#C78163" inkscape:connector-curvature="0" atv:refpx="66.742" atv:refpy="33.794"/>
    <path d="M63.741,25.94L63.08,28.381C63.108,28.396 63.141,28.402 63.169,28.418L63.052,28.485L62.824,29.329L63.519,31.098L64.97,30.269L65.166,30.488L66.041,27.257L65.887,26.864L65.483,27.094C65.001,26.579 64.394,26.2 63.741,25.94" id="path1665" fill="#C78163" inkscape:connector-curvature="0" atv:refpx="64.433" atv:refpy="28.519"/>
    <path d="M68.797,34.26L68.012,37.159L68.35,36.966C68.8,36.708 69.172,36.369 69.476,35.987Z" id="path1667" fill="#C78163" inkscape:connector-curvature="0" atv:refpx="68.745" atv:refpy="35.709"/>
    <path d="M63.088,19.755L62.315,17.791L61.872,19.429C62.297,19.443 62.721,19.559 63.088,19.755" id="path1669" fill="#C78163" inkscape:connector-curvature="0" atv:refpx="62.48" atv:refpy="18.773"/>
    <polygon id="polygon1671" points="68.167,30.094 68.631,31.272 68.768,30.766 " fill="#C78163" atv:refpx="68.468" atv:refpy="30.683"/>
    <path d="M64.923,17.968C64.37,17.545 63.726,17.256 63.047,17.09L64.298,20.271Z" id="path1673" fill="#C78163" inkscape:connector-curvature="0" atv:refpx="63.985" atv:refpy="18.681"/>
    <polygon id="polygon1675" points="59.822,21.703 60.094,22.394 60.365,21.393 " fill="#C78163" atv:refpx="60.094" atv:refpy="21.893"/>
    <polygon id="polygon1677" points="60.672,23.862 60.747,24.053 63.739,22.343 63.889,21.79 63.113,19.821 61.519,20.733 " fill="#C78163" atv:refpx="62.281" atv:refpy="21.937"/>
    <path d="M62.746,70.198L62.451,71.286C62.705,71.348 62.951,71.433 63.17,71.561L62.232,72.097L61.31,75.503L64.187,73.858Z" id="path1679" fill="#C78163" inkscape:connector-curvature="0" atv:refpx="62.748" atv:refpy="72.85"/>
    <polygon id="polygon1681" points="60.516,74.84 61.079,72.757 59.95,73.402 " fill="#C78163" atv:refpx="60.514" atv:refpy="73.799"/>
    <path d="M61.492,71.232L62.169,68.73L62.166,68.721C61.205,68.652 60.23,68.829 59.391,69.309L59.297,69.363L58.915,70.774L59.457,72.15L60.631,71.479C60.887,71.334 61.185,71.266 61.492,71.232" id="path1683" fill="#C78163" inkscape:connector-curvature="0" atv:refpx="60.542" atv:refpy="70.428"/>
    <polygon id="polygon1685" points="58.376,72.769 58.633,72.622 58.504,72.295 " fill="#C78163" atv:refpx="58.505" atv:refpy="72.532"/>
    <path d="M63.249,68.907L64.759,72.744L65.446,70.205C64.849,69.58 64.08,69.145 63.249,68.907" id="path1687" fill="#C78163" inkscape:connector-curvature="0" atv:refpx="64.347" atv:refpy="70.826"/>
    <path d="M69.983,67.024C69.815,66.602 69.587,66.196 69.266,65.837L67.99,64.411L67.403,66.581L69.003,70.647Z" id="path1689" fill="#C78163" inkscape:connector-curvature="0" atv:refpx="68.693" atv:refpy="67.529"/>
    <polygon id="polygon1691" points="64.97,64.784 66.247,66.212 64.811,62.566 64.073,65.297 " fill="#C78163" atv:refpx="65.16" atv:refpy="64.389"/>
    <path d="M69.045,60.51L68.426,62.797C68.874,62.526 69.254,62.187 69.55,61.791Z" id="path1693" fill="#C78163" inkscape:connector-curvature="0" atv:refpx="68.988" atv:refpy="61.653"/>
    <polygon id="polygon1695" points="68.355,56.191 68.879,57.521 69.034,56.95 " fill="#C78163" atv:refpx="68.695" atv:refpy="56.856"/>
    <polygon id="polygon1697" points="62.488,57.573 62.781,57.406 62.634,57.033 " fill="#C78163" atv:refpx="62.635" atv:refpy="57.303"/>
    <polygon id="polygon1699" points="49.869,50.36 49.426,51.999 50.314,51.491 " fill="#C78163" atv:refpx="49.87" atv:refpy="51.18"/>
    <polygon id="polygon1701" points="52.872,75.914 53.682,72.924 53.569,72.637 50.651,74.305 50.453,75.035 51.18,76.882 " fill="#C78163" atv:refpx="52.068" atv:refpy="74.76"/>
    <polygon id="polygon1703" points="52.689,63.175 53.595,59.825 53.579,59.786 50.469,61.564 50.367,61.939 51.191,64.031 " fill="#C78163" atv:refpx="51.981" atv:refpy="61.909"/>
    <polygon id="polygon1705" points="55.331,39.995 55.574,39.097 54.893,37.366 53.11,38.385 52.346,41.209 52.504,41.611 " fill="#C78163" atv:refpx="53.96" atv:refpy="39.489"/>
    <path d="M65.814,18.278L64.891,21.683L64.967,21.639L66.957,23.863L67.736,20.984L67.187,20.37L68.033,19.886L68.093,19.665L67.223,17.454C67.184,17.481 67.15,17.511 67.108,17.535Z" id="path1707" fill="#C78163" inkscape:connector-curvature="0" atv:refpx="66.493" atv:refpy="20.659"/>
    <polygon id="polygon1709" points="62.412,30.85 62.13,31.892 62.695,31.569 " fill="#C78163" atv:refpx="62.413" atv:refpy="31.371"/>
    <polygon id="polygon1711" points="51.589,26.409 51.682,26.643 51.773,26.304 " fill="#C78163" atv:refpx="51.681" atv:refpy="26.474"/>
    <polygon id="polygon1713" points="55.148,27.254 55.477,26.04 54.881,24.527 52.926,25.645 52.259,28.111 52.514,28.76 " fill="#C78163" atv:refpx="53.868" atv:refpy="26.644"/>
    <polygon id="polygon1715" points="53.491,46.796 50.347,48.593 50.28,48.84 51.139,51.02 52.569,50.203 " fill="#C78163" atv:refpx="51.886" atv:refpy="48.908"/>
    <polygon id="polygon1717" points="49.186,82.434 51.459,81.135 51.616,80.556 50.848,78.605 49.239,79.525 49.186,79.718 " fill="#C78163" atv:refpx="50.401" atv:refpy="80.519"/>
    <polygon id="polygon1719" points="49.315,62.224 49.186,62.297 49.186,62.7 " fill="#C78163" atv:refpx="49.251" atv:refpy="62.462"/>
    <polygon id="polygon1721" points="49.186,75.142 49.186,76.114 49.465,75.088 49.431,75.003 " fill="#C78163" atv:refpx="49.326" atv:refpy="75.559"/>
    <polygon id="polygon1723" points="49.186,88.185 49.186,89.534 49.551,88.188 49.483,88.015 " fill="#C78163" atv:refpx="49.368" atv:refpy="88.775"/>
    <polygon id="polygon1725" points="49.186,31.999 49.186,33.183 49.616,34.275 50.424,31.292 " fill="#C78163" atv:refpx="49.805" atv:refpy="32.784"/>
    <polygon id="polygon1727" points="53.795,86.091 53.621,85.65 50.771,87.279 50.54,88.134 51.233,89.894 53.046,88.857 " fill="#C78163" atv:refpx="52.168" atv:refpy="87.772"/>
    <polygon id="polygon1729" points="49.186,45.041 49.186,46.061 49.703,47.373 50.544,44.265 " fill="#C78163" atv:refpx="49.865" atv:refpy="45.819"/>
    <polygon id="polygon1731" points="50.728,57.005 49.186,57.886 49.186,58.939 49.773,60.429 49.806,60.41 " fill="#C78163" atv:refpx="49.957" atv:refpy="58.717"/>
    <polygon id="polygon1733" points="51.579,39.26 51.768,39.742 51.957,39.044 " fill="#C78163" atv:refpx="51.768" atv:refpy="39.393"/>
    <path d="M64.11,47.975L62.509,43.908L62.118,45.35C62.489,45.395 62.855,45.494 63.168,45.676L61.822,46.446L60.9,49.852L64.097,48.025Z" id="path1735" fill="#C78163" inkscape:connector-curvature="0" atv:refpx="62.505" atv:refpy="46.88"/>
    <path d="M68.753,48.007L67.279,53.455L67.723,54.583L68.351,54.224C69.363,53.647 70.042,52.702 70.216,51.632C70.265,51.321 70.261,51.009 70.226,50.699L69.542,48.963C69.452,48.835 69.374,48.701 69.267,48.581Z" id="path1737" fill="#C78163" inkscape:connector-curvature="0" atv:refpx="68.766" atv:refpy="51.295"/>
    <path d="M67.747,25.343C67.708,25.585 67.572,25.809 67.358,25.992L67.03,27.205L67.636,28.745L68.35,28.337C69.015,27.957 69.518,27.409 69.847,26.78L70.232,25.356C70.236,25.277 70.244,25.198 70.242,25.12L69.312,22.756C69.295,22.736 69.283,22.713 69.265,22.693L68.487,21.822L67.679,24.805C67.749,24.984 67.776,25.167 67.747,25.343" id="path1739" fill="#C78163" inkscape:connector-curvature="0" atv:refpx="68.636" atv:refpy="25.284"/>
    <polygon id="polygon1741" points="59.907,47.54 60.289,48.51 60.669,47.105 " fill="#C78163" atv:refpx="60.288" atv:refpy="47.807"/>
    <polygon id="polygon1743" points="58.108,19.917 57.714,21.376 58.505,20.923 " fill="#C78163" atv:refpx="58.109" atv:refpy="20.647"/>
    <path d="M70.286,17.122C70.424,16.512 70.4,15.895 70.251,15.303L69.255,18.985C69.758,18.467 70.124,17.839 70.286,17.122" id="path1745" fill="#C78163" inkscape:connector-curvature="0" atv:refpx="69.816" atv:refpy="17.144"/>
    <path d="M60.631,28.337C60.842,28.217 61.082,28.147 61.331,28.102L60.407,25.756C60.319,25.781 60.227,25.794 60.14,25.825L59.246,29.128Z" id="path1747" fill="#C78163" inkscape:connector-curvature="0" atv:refpx="60.288" atv:refpy="27.443"/>
    <path d="M62.839,25.669C62.348,25.57 61.848,25.543 61.35,25.585L62.246,27.861Z" id="path1749" fill="#C78163" inkscape:connector-curvature="0" atv:refpx="62.094" atv:refpy="26.713"/>
    <path d="M63.169,37.047L61.251,38.143L62.176,40.494L62.509,40.304L63.985,34.849L63.901,34.635C63.15,34.306 62.323,34.157 61.504,34.202L60.77,36.913C61.492,36.572 62.458,36.634 63.169,37.047" id="path1751" fill="#C78163" inkscape:connector-curvature="0" atv:refpx="62.378" atv:refpy="37.344"/>
    <polygon id="polygon1753" points="56.864,47.748 57.726,44.563 57.665,44.41 54.644,46.137 54.498,46.676 55.277,48.655 " fill="#C78163" atv:refpx="56.112" atv:refpy="46.532"/>
    <path d="M70.106,60.64C70.142,60.513 70.193,60.391 70.214,60.26C70.345,59.451 70.178,58.619 69.755,57.885L69.455,58.989Z" id="path1755" fill="#C78163" inkscape:connector-curvature="0" atv:refpx="69.857" atv:refpy="59.263"/>
    <polygon id="polygon1757" points="55.706,24.056 55.888,24.518 56.069,23.848 " fill="#C78163" atv:refpx="55.888" atv:refpy="24.183"/>
    <polygon id="polygon1759" points="53.721,49.544 54.452,49.126 54.086,48.196 " fill="#C78163" atv:refpx="54.087" atv:refpy="48.87"/>
    <path d="M70.061,34.908C70.12,34.732 70.185,34.557 70.214,34.373C70.367,33.43 70.096,32.464 69.502,31.651L69.207,32.74Z" id="path1761" fill="#C78163" inkscape:connector-curvature="0" atv:refpx="69.732" atv:refpy="33.279"/>
    <polygon id="polygon1763" points="59.444,24.798 59.683,23.916 58.997,22.174 57.223,23.189 56.466,25.986 56.631,26.406 " fill="#C78163" atv:refpx="58.075" atv:refpy="24.29"/>
    <polygon id="polygon1765" points="55.717,36.895 55.985,37.577 56.253,36.589 " fill="#C78163" atv:refpx="55.985" atv:refpy="37.083"/>
    <polygon id="polygon1767" points="59.626,37.54 59.779,36.973 59.008,35.013 57.406,35.93 56.563,39.044 56.642,39.246 " fill="#C78163" atv:refpx="58.171" atv:refpy="37.13"/>
    <polygon id="polygon1769" points="56.071,50.674 56.373,49.561 55.769,49.906 " fill="#C78163" atv:refpx="56.071" atv:refpy="50.117"/>
    <polygon id="polygon1771" points="49.695,24.164 49.186,26.046 49.186,26.25 50.272,25.629 " fill="#C78163" atv:refpx="49.729" atv:refpy="25.207"/>
    <path d="M67.184,14.789L67.596,15.383C67.833,15.723 67.92,16.116 67.856,16.496L68.506,18.145L69.643,13.945L67.731,11.193L66.932,14.146Z" id="path1773" fill="#C78163" inkscape:connector-curvature="0" atv:refpx="68.288" atv:refpy="14.67"/>
    <polygon id="polygon1775" points="52.214,69.196 52.001,69.318 51.079,72.725 53.139,71.547 " fill="#C78163" atv:refpx="52.109" atv:refpy="70.96"/>
    <polygon id="polygon1777" points="50.852,29.71 51.271,28.164 50.765,26.88 49.186,27.783 49.186,30.662 " fill="#C78163" atv:refpx="50.228" atv:refpy="28.771"/>
    <polygon id="polygon1779" points="51.035,42.451 51.356,41.262 50.754,39.732 49.186,40.628 49.186,43.508 " fill="#C78163" atv:refpx="50.271" atv:refpy="41.62"/>
    <polygon id="polygon1781" points="51.577,30.633 50.655,34.039 53.045,32.673 52.12,30.322 " fill="#C78163" atv:refpx="51.85" atv:refpy="32.181"/>
    <polygon id="polygon1783" points="49.242,39.26 50.325,38.641 49.782,37.262 " fill="#C78163" atv:refpx="49.784" atv:refpy="38.261"/>
    <polygon id="polygon1785" points="53.307,34.056 50.224,35.818 51.15,38.169 52.385,37.463 " fill="#C78163" atv:refpx="51.766" atv:refpy="36.112"/>
    <polygon id="polygon1787" points="53.186,21.084 50.172,22.807 51.097,25.158 52.264,24.491 " fill="#C78163" atv:refpx="51.679" atv:refpy="23.121"/>
    <polygon id="polygon1789" points="54.547,88 54.373,87.559 54.2,88.198 " fill="#C78163" atv:refpx="54.373" atv:refpy="87.879"/>
    <polygon id="polygon1791" points="58.038,83.992 57.76,83.284 55.121,84.792 54.784,86.038 55.371,87.528 57.394,86.372 " fill="#C78163" atv:refpx="56.411" atv:refpy="85.406"/>
    <polygon id="polygon1793" points="55.86,78.46 54.987,76.239 53.535,77.069 52.613,80.476 55.809,78.648 " fill="#C78163" atv:refpx="54.236" atv:refpy="78.358"/>
    <path d="M70.215,77.517C70.294,77.033 70.252,76.542 70.126,76.066L69.79,75.212C69.646,74.95 69.474,74.699 69.266,74.466L69.019,74.19L67.515,79.744L67.786,80.432L68.35,80.109C69.36,79.531 70.041,78.586 70.215,77.517" id="path1795" fill="#C78163" inkscape:connector-curvature="0" atv:refpx="68.885" atv:refpy="77.311"/>
    <polygon id="polygon1797" points="52.028,79.035 52.382,77.728 51.673,78.133 " fill="#C78163" atv:refpx="52.028" atv:refpy="78.381"/>
    <polygon id="polygon1799" points="58.685,85.634 58.616,85.46 58.548,85.713 " fill="#C78163" atv:refpx="58.617" atv:refpy="85.587"/>
    <polygon id="polygon1801" points="66.525,79.798 66.036,78.553 63.819,79.82 63.271,81.843 63.647,82.797 66.092,81.4 " fill="#C78163" atv:refpx="64.898" atv:refpy="80.675"/>
    <polygon id="polygon1803" points="62.282,81.896 61.898,80.919 59.469,82.307 59.027,83.939 59.509,85.163 61.744,83.885 " fill="#C78163" atv:refpx="60.654" atv:refpy="83.041"/>
    <path d="M66.354,12.68L67.026,10.195C66.775,9.847 66.469,9.554 66.136,9.3L65.23,9.824Z" id="path1805" fill="#C78163" inkscape:connector-curvature="0" atv:refpx="66.128" atv:refpy="10.99"/>
    <path d="M33.198,45.543L34.918,45.543C36.786,45.543 39.521,44.816 41.143,43.89L47.382,40.323L47.382,37.443L39.903,41.718C38.669,42.425 36.339,43.042 34.919,43.042L34.905,43.042L47.383,35.91L47.383,33.029L32.184,41.718C30.606,42.62 30.472,43.552 30.638,44.175C30.802,44.8 31.381,45.542 33.198,45.543" id="path1807" fill="#C78163" inkscape:connector-curvature="0" atv:refpx="38.983" atv:refpy="39.286"/>
    <path d="M33.198,36.914L34.918,36.914C36.786,36.914 39.521,36.188 41.143,35.26L47.382,31.693L47.382,28.814L39.903,33.09C38.669,33.796 36.339,34.414 34.919,34.414L34.904,34.414L47.382,27.281L47.382,24.401L32.182,33.09C30.604,33.992 30.47,34.924 30.636,35.548C30.801,36.171 31.38,36.914 33.198,36.914" id="path1809" fill="#C78163" inkscape:connector-curvature="0" atv:refpx="38.983" atv:refpy="30.658"/>
    <path d="M33.198,54.173L34.918,54.173C36.785,54.173 39.519,53.446 41.143,52.519L47.382,48.953L47.382,46.073L39.903,50.349C38.668,51.055 36.339,51.674 34.919,51.674L34.904,51.674L47.382,44.541L47.382,41.661L32.183,50.349C30.605,51.251 30.471,52.183 30.637,52.807C30.802,53.43 31.38,54.173 33.198,54.173" id="path1811" fill="#C78163" inkscape:connector-curvature="0" atv:refpx="38.983" atv:refpy="47.917"/>
    <polygon id="polygon1813" points="51.698,43.605 50.775,47.012 53.098,45.685 52.172,43.334 " fill="#C78163" atv:refpx="51.936" atv:refpy="45.173"/>
    <polygon id="polygon1815" points="50.408,90.365 50.129,89.655 49.85,90.684 " fill="#C78163" atv:refpx="50.129" atv:refpy="90.169"/>
    <path d="M33.198,71.429L34.918,71.429C36.787,71.429 39.521,70.702 41.143,69.775L47.382,66.209L47.382,63.33L39.902,67.606C38.669,68.311 36.339,68.929 34.918,68.929L34.905,68.929L47.382,61.797L47.382,58.919L32.183,67.607C30.605,68.508 30.471,69.44 30.637,70.064C30.802,70.686 31.381,71.428 33.198,71.429" id="path1817" fill="#C78163" inkscape:connector-curvature="0" atv:refpx="38.982" atv:refpy="65.174"/>
    <path d="M47.382,89.216L39.902,93.491C38.334,94.387 36.668,96.285 36.668,98.032L36.668,100L39.168,100L39.168,98.033C39.168,97.539 39.955,96.341 41.143,95.662L47.382,92.095Z" id="path1819" fill="#C78163" inkscape:connector-curvature="0" atv:refpx="42.025" atv:refpy="94.608"/>
    <path d="M47.382,83.466L47.382,80.586L39.902,84.862C38.669,85.567 36.339,86.186 34.918,86.186L34.903,86.186L47.382,79.053L47.382,76.174L32.182,84.862C30.604,85.764 30.471,86.697 30.637,87.32C30.803,87.943 31.381,88.686 33.199,88.686L34.919,88.686C36.788,88.686 39.522,87.959 41.144,87.032Z" id="path1821" fill="#C78163" inkscape:connector-curvature="0" atv:refpx="38.982" atv:refpy="82.431"/>
    <polygon id="polygon1823" points="51.443,54.36 50.807,52.743 49.186,53.669 49.186,56.548 51.156,55.422 " fill="#C78163" atv:refpx="50.314" atv:refpy="54.645"/>
    <polygon id="polygon1825" points="50.366,64.502 49.956,63.459 49.547,64.97 " fill="#C78163" atv:refpx="49.956" atv:refpy="64.215"/>
    <path d="M30.637,61.435C30.803,62.058 31.381,62.801 33.199,62.801L34.919,62.801C36.788,62.801 39.522,62.074 41.144,61.147L47.382,57.58L47.382,54.701L39.902,58.977C38.669,59.682 36.339,60.301 34.918,60.301L34.903,60.301L47.382,53.168L47.382,50.288L32.182,58.977C30.603,59.879 30.47,60.812 30.637,61.435" id="path1827" fill="#C78163" inkscape:connector-curvature="0" atv:refpx="38.983" atv:refpy="56.544"/>
    <polygon id="polygon1829" points="49.186,49.282 49.195,49.252 49.186,49.256 " fill="#C78163" atv:refpx="49.191" atv:refpy="49.267"/>
    <path d="M30.637,78.692C30.803,79.315 31.381,80.058 33.199,80.058L34.919,80.058C36.788,80.058 39.522,79.33 41.144,78.404L47.382,74.838L47.382,71.958L39.902,76.234C38.669,76.939 36.339,77.558 34.918,77.558L34.903,77.558L47.382,70.425L47.382,67.546L32.182,76.234C30.603,77.136 30.47,78.068 30.637,78.692" id="path1831" fill="#C78163" inkscape:connector-curvature="0" atv:refpx="38.983" atv:refpy="73.802"/>
    <polygon id="polygon1833" points="51.338,68.164 51.529,67.457 50.796,65.594 49.186,66.514 49.186,69.394 " fill="#C78163" atv:refpx="50.358" atv:refpy="67.494"/>
    <polygon id="polygon1835" points="50.847,69.977 49.186,70.927 49.186,71.816 49.826,73.441 49.926,73.384 " fill="#C78163" atv:refpx="50.017" atv:refpy="71.709"/>
    <polygon id="polygon1837" points="50.356,77.353 50.042,76.556 49.729,77.711 " fill="#C78163" atv:refpx="50.043" atv:refpy="77.133"/>
    <polygon id="polygon1839" points="53.538,36.804 54.463,36.275 54,35.098 " fill="#C78163" atv:refpx="54.001" atv:refpy="35.951"/>
    <polygon id="polygon1841" points="56.352,66.831 56.297,66.862 55.375,70.269 57.277,69.181 " fill="#C78163" atv:refpx="56.326" atv:refpy="68.55"/>
    <polygon id="polygon1843" points="55.635,65.708 55.747,65.292 54.935,63.229 53.414,64.098 52.518,67.405 52.546,67.473 " fill="#C78163" atv:refpx="54.133" atv:refpy="65.351"/>
    <polygon id="polygon1845" points="59.991,63.197 59.072,60.864 57.71,61.643 56.788,65.048 59.985,63.221 " fill="#C78163" atv:refpx="58.389" atv:refpy="62.956"/>
    <polygon id="polygon1847" points="56.158,63.772 56.556,62.302 55.759,62.758 " fill="#C78163" atv:refpx="56.157" atv:refpy="63.037"/>
    <polygon id="polygon1849" points="56.271,76.939 56.731,75.242 55.811,75.768 " fill="#C78163" atv:refpx="56.271" atv:refpy="76.09"/>
    <polygon id="polygon1851" points="57.222,73.428 57.926,70.828 57.707,70.272 54.947,71.849 54.671,72.871 55.318,74.516 " fill="#C78163" atv:refpx="56.299" atv:refpy="72.394"/>
    <polygon id="polygon1853" points="53.842,62.515 54.505,62.137 54.173,61.293 " fill="#C78163" atv:refpx="54.174" atv:refpy="61.904"/>
    <polygon id="polygon1855" points="54.026,75.255 54.494,74.987 54.26,74.392 " fill="#C78163" atv:refpx="54.26" atv:refpy="74.823"/>
    <polygon id="polygon1857" points="57.885,74.583 56.963,77.989 60.05,76.224 59.125,73.874 " fill="#C78163" atv:refpx="58.507" atv:refpy="75.931"/>
    <polygon id="polygon1859" points="59.135,39.353 57.134,40.497 58.06,42.848 58.213,42.76 " fill="#C78163" atv:refpx="58.135" atv:refpy="41.1"/>
    <polygon id="polygon1861" points="56.985,60.719 57.813,57.662 57.718,57.421 54.764,59.109 54.584,59.773 55.329,61.665 " fill="#C78163" atv:refpx="56.199" atv:refpy="59.543"/>
    <polygon id="polygon1863" points="58.017,47.089 58.59,46.761 58.303,46.031 " fill="#C78163" atv:refpx="58.303" atv:refpy="46.56"/>
    <polygon id="polygon1865" points="57.834,34.348 58.579,33.922 58.206,32.974 " fill="#C78163" atv:refpx="58.207" atv:refpy="33.661"/>
    <path d="M59.415,46.289L60.631,45.594C60.783,45.507 60.955,45.453 61.129,45.407L61.83,42.813C60.98,42.806 60.132,43.001 59.391,43.423L58.94,43.681L58.716,44.51Z" id="path1867" fill="#C78163" inkscape:connector-curvature="0" atv:refpx="60.273" atv:refpy="44.551"/>
    <polygon id="polygon1869" points="54.102,57.955 55.023,54.549 52.986,55.714 53.912,58.064 " fill="#C78163" atv:refpx="54.005" atv:refpy="56.306"/>
    <polygon id="polygon1871" points="59.748,50.511 59.878,50.03 59.083,48.012 57.526,48.902 56.649,52.142 56.694,52.256 " fill="#C78163" atv:refpx="58.264" atv:refpy="50.134"/>
    <polygon id="polygon1873" points="56.3,53.819 56.177,53.89 55.255,57.296 57.225,56.17 " fill="#C78163" atv:refpx="56.24" atv:refpy="55.558"/>
    <polygon id="polygon1875" points="54.222,70.928 55.144,67.521 53.038,68.725 53.963,71.076 " fill="#C78163" atv:refpx="54.091" atv:refpy="69.298"/>
    <polygon id="polygon1877" points="55.993,41.15 55.071,44.556 57.236,43.319 56.31,40.968 " fill="#C78163" atv:refpx="56.153" atv:refpy="42.762"/>
    <polygon id="polygon1879" points="51.855,52.84 52.078,52.016 51.632,52.271 " fill="#C78163" atv:refpx="51.855" atv:refpy="52.428"/>
    <polygon id="polygon1881" points="53.92,45.208 54.84,41.809 52.997,42.863 " fill="#C78163" atv:refpx="53.919" atv:refpy="43.508"/>
    <polygon id="polygon1883" points="58.617,31.453 59.404,33.451 60.976,32.552 61.834,29.382 61.769,29.218 58.756,30.941 " fill="#C78163" atv:refpx="60.225" atv:refpy="31.334"/>
    <polygon id="polygon1885" points="55.287,35.804 56.681,35.008 57.602,31.601 54.46,33.397 54.411,33.578 " fill="#C78163" atv:refpx="56.007" atv:refpy="33.703"/>
    <polygon id="polygon1887" points="51.941,65.936 52.26,64.757 51.621,65.123 " fill="#C78163" atv:refpx="51.941" atv:refpy="65.347"/>
    <polygon id="polygon1889" points="55.451,52.967 55.66,52.195 54.945,50.377 53.231,51.357 52.433,54.307 52.556,54.622 " fill="#C78163" atv:refpx="54.046" atv:refpy="52.499"/>
    <polygon id="polygon1891" points="52.162,56.185 51.881,56.345 50.959,59.751 53.087,58.535 " fill="#C78163" atv:refpx="52.023" atv:refpy="57.968"/>
    <path d="M59.329,20.452L60.631,19.708C60.695,19.671 60.773,19.658 60.842,19.629L61.57,16.939C60.808,16.971 60.055,17.159 59.391,17.538L58.635,17.97L58.519,18.395Z" id="path1893" fill="#C78163" inkscape:connector-curvature="0" atv:refpx="60.045" atv:refpy="18.696"/>
    <path d="M67.188,72.144L68.325,71.494L67.385,69.107C67.304,69.181 67.214,69.25 67.109,69.31L66.581,69.611L65.417,73.913L67.402,76.132C67.435,76.169 67.458,76.208 67.487,76.246L68.27,73.353Z" id="path1895" fill="#C78163" inkscape:connector-curvature="0" atv:refpx="66.871" atv:refpy="72.677"/>
    <path d="M69.808,44.106C69.999,43.759 70.152,43.394 70.215,43.001C70.241,42.844 70.232,42.685 70.235,42.527Z" id="path1897" fill="#C78163" inkscape:connector-curvature="0" atv:refpx="70.022" atv:refpy="43.317"/>
    <path d="M64.33,10.344L64.154,10.995C64.435,11.11 64.685,11.293 64.888,11.523L64.407,10.3Z" id="path1899" fill="#C78163" inkscape:connector-curvature="0" atv:refpx="64.522" atv:refpy="10.912"/>
    <polygon id="polygon1901" points="66.938,78.277 67.014,77.994 66.86,78.082 " fill="#C78163" atv:refpx="66.937" atv:refpy="78.136"/>
    <polygon id="polygon1903" points="55.872,28.177 54.951,31.584 57.161,30.32 56.236,27.969 " fill="#C78163" atv:refpx="56.056" atv:refpy="29.776"/>
    <polygon id="polygon1905" points="53.833,32.11 54.719,28.836 52.944,29.851 " fill="#C78163" atv:refpx="53.832" atv:refpy="30.473"/>
    <polygon id="polygon1907" points="53.417,23.831 54.389,23.276 53.902,22.04 " fill="#C78163" atv:refpx="53.903" atv:refpy="22.935"/>
    <polygon id="polygon1909" points="55.213,22.805 56.56,22.035 57.482,18.628 54.339,20.425 54.313,20.519 " fill="#C78163" atv:refpx="55.898" atv:refpy="20.716"/>
    <path d="M41.933,19.875L32.097,25.497C30.283,26.534 28.863,28.982 28.863,31.07L28.863,100L31.363,100L31.363,31.071C31.363,29.859 32.286,28.269 33.338,27.668L46.971,19.875L45.211,19.875Z" id="path1911" fill="#C78163" inkscape:connector-curvature="0" atv:refpx="37.917" atv:refpy="59.938"/>
   </g>
   <g id="hlight" atv:refpx="48.855" atv:refpy="59.118">
    <polygon id="polygon1914" points="60.289,48.51 60.544,47.566 60.033,47.859 " fill="#F1C08C" atv:refpx="60.288" atv:refpy="48.038"/>
    <polygon id="polygon1916" points="49.433,88.621 49.186,88.763 49.186,89.534 " fill="#F1C08C" atv:refpx="49.309" atv:refpy="89.078"/>
    <polygon id="polygon1918" points="61.81,65.252 63.348,64.372 63.717,63.011 61.44,64.312 " fill="#F1C08C" atv:refpx="62.578" atv:refpy="64.132"/>
    <polygon id="polygon1920" points="58.642,41.175 59.011,39.813 57.259,40.814 57.629,41.754 " fill="#F1C08C" atv:refpx="58.135" atv:refpy="40.784"/>
    <polygon id="polygon1922" points="67.205,27.652 67.885,27.264 67.389,26.396 67.223,26.491 67.029,27.205 " fill="#F1C08C" atv:refpx="67.457" atv:refpy="27.024"/>
    <polygon id="polygon1924" points="62.939,38.719 63.308,37.356 61.376,38.46 61.746,39.401 " fill="#F1C08C" atv:refpx="62.342" atv:refpy="38.379"/>
    <polygon id="polygon1926" points="65.678,45.783 67.5,44.742 67.004,43.874 66.047,44.421 " fill="#F1C08C" atv:refpx="66.589" atv:refpy="44.829"/>
    <polygon id="polygon1928" points="65.862,37.048 67.033,36.378 66.537,35.51 65.492,36.108 " fill="#F1C08C" atv:refpx="66.263" atv:refpy="36.279"/>
    <polygon id="polygon1930" points="56.477,67.149 56.172,67.324 55.803,68.685 56.847,68.089 " fill="#F1C08C" atv:refpx="56.325" atv:refpy="67.917"/>
    <polygon id="polygon1932" points="65.123,63.358 64.811,62.566 64.501,63.713 " fill="#F1C08C" atv:refpx="64.812" atv:refpy="63.139"/>
    <polygon id="polygon1934" points="57.401,49.363 57.033,50.725 59.578,49.27 59.208,48.33 " fill="#F1C08C" atv:refpx="58.306" atv:refpy="49.528"/>
    <polygon id="polygon1936" points="62.107,72.558 61.739,73.92 63.757,72.766 63.387,71.827 " fill="#F1C08C" atv:refpx="62.748" atv:refpy="72.874"/>
    <polygon id="polygon1938" points="66.457,70.072 66.089,71.433 67.595,70.572 67.099,69.705 " fill="#F1C08C" atv:refpx="66.842" atv:refpy="70.569"/>
    <polygon id="polygon1940" points="64.519,46.446 64.526,46.442 64.894,45.079 64.149,45.505 " fill="#F1C08C" atv:refpx="64.522" atv:refpy="45.763"/>
    <polygon id="polygon1942" points="65.578,61.947 65.948,62.886 67.407,62.052 66.911,61.185 " fill="#F1C08C" atv:refpx="66.493" atv:refpy="62.035"/>
    <polygon id="polygon1944" points="54.347,43.63 54.716,42.268 53.121,43.179 53.491,44.12 " fill="#F1C08C" atv:refpx="53.919" atv:refpy="43.194"/>
    <polygon id="polygon1946" points="56.071,50.674 56.248,50.022 55.894,50.224 " fill="#F1C08C" atv:refpx="56.071" atv:refpy="50.348"/>
    <polygon id="polygon1948" points="61.698,46.907 61.329,48.27 63.694,46.917 63.324,45.977 " fill="#F1C08C" atv:refpx="62.511" atv:refpy="47.123"/>
    <polygon id="polygon1950" points="55.006,24.845 52.802,26.105 52.433,27.467 55.376,25.785 " fill="#F1C08C" atv:refpx="53.904" atv:refpy="26.156"/>
    <polygon id="polygon1952" points="59.122,22.492 57.098,23.649 56.73,25.011 59.492,23.432 " fill="#F1C08C" atv:refpx="58.111" atv:refpy="23.752"/>
    <polygon id="polygon1954" points="64.582,72.295 64.935,72.093 65.304,70.731 64.212,71.355 " fill="#F1C08C" atv:refpx="64.758" atv:refpy="71.513"/>
    <polygon id="polygon1956" points="57.783,57.773 54.639,59.57 54.584,59.773 54.899,60.573 57.414,59.135 " fill="#F1C08C" atv:refpx="56.184" atv:refpy="59.173"/>
    <polygon id="polygon1958" points="63.238,20.139 61.394,21.193 61.025,22.555 63.609,21.079 " fill="#F1C08C" atv:refpx="62.317" atv:refpy="21.347"/>
    <polygon id="polygon1960" points="58.038,83.992 57.945,83.755 54.937,85.475 54.784,86.038 55.001,86.589 57.762,85.011 " fill="#F1C08C" atv:refpx="56.411" atv:refpy="85.172"/>
    <polygon id="polygon1962" points="50.42,44.724 49.186,45.429 49.186,46.061 49.353,46.485 50.051,46.086 " fill="#F1C08C" atv:refpx="49.803" atv:refpy="45.605"/>
    <polygon id="polygon1964" points="49.191,62.684 49.186,62.687 49.186,62.7 " fill="#F1C08C" atv:refpx="49.189" atv:refpy="62.692"/>
    <polygon id="polygon1966" points="57.672,67.617 59.001,66.858 59.369,65.496 57.302,66.677 " fill="#F1C08C" atv:refpx="58.335" atv:refpy="66.556"/>
    <polygon id="polygon1968" points="56.435,41.285 55.869,41.609 55.5,42.971 56.805,42.225 " fill="#F1C08C" atv:refpx="56.153" atv:refpy="42.128"/>
    <polygon id="polygon1970" points="60.551,38.932 60.164,39.153 59.796,40.516 60.921,39.872 " fill="#F1C08C" atv:refpx="60.358" atv:refpy="39.724"/>
    <polygon id="polygon1972" points="66.112,54.162 66.289,53.508 66.097,53.02 63.284,54.628 63.045,55.513 63.174,55.842 " fill="#F1C08C" atv:refpx="64.667" atv:refpy="54.431"/>
    <polygon id="polygon1974" points="64.667,36.579 64.46,36.697 64.092,38.06 65.037,37.519 " fill="#F1C08C" atv:refpx="64.565" atv:refpy="37.32"/>
    <polygon id="polygon1976" points="61.763,56.648 62.057,55.565 61.981,55.373 58.936,57.114 58.802,57.608 59.037,58.207 " fill="#F1C08C" atv:refpx="60.43" atv:refpy="56.79"/>
    <polygon id="polygon1978" points="67.292,53.488 68.572,52.756 68.076,51.889 67.633,52.142 67.278,53.454 " fill="#F1C08C" atv:refpx="67.925" atv:refpy="52.689"/>
    <polygon id="polygon1980" points="60.445,74.66 60.586,74.579 60.955,73.217 60.075,73.72 " fill="#F1C08C" atv:refpx="60.515" atv:refpy="73.939"/>
    <polygon id="polygon1982" points="61.773,29.606 58.631,31.402 58.617,31.453 58.974,32.358 61.405,30.968 " fill="#F1C08C" atv:refpx="60.195" atv:refpy="30.982"/>
    <polygon id="polygon1984" points="60.522,64.837 60.153,66.199 60.985,65.723 60.615,64.784 " fill="#F1C08C" atv:refpx="60.569" atv:refpy="65.492"/>
    <path d="M35.918,34.689L32.575,34.689L32.575,35.689L35.918,35.689C37.114,35.689 38.864,35.224 39.902,34.63L47.381,30.354L47.381,29.202L39.405,33.761C38.527,34.265 36.93,34.689 35.918,34.689" id="path1986" fill="#F1C08C" inkscape:connector-curvature="0" atv:refpx="39.978" atv:refpy="32.446"/>
    <path d="M32.575,44.318L35.918,44.318C37.114,44.318 38.864,43.852 39.902,43.259L47.381,38.984L47.381,37.832L39.405,42.391C38.526,42.893 36.928,43.318 35.917,43.318L32.574,43.318L32.574,44.318Z" id="path1988" fill="#F1C08C" inkscape:connector-curvature="0" atv:refpx="39.978" atv:refpy="41.075"/>
    <path d="M32.575,61.576L35.918,61.576C37.114,61.576 38.864,61.111 39.902,60.517L47.381,56.241L47.381,55.09L39.405,59.649C38.527,60.152 36.929,60.576 35.917,60.576L32.574,60.576L32.574,61.576Z" id="path1990" fill="#F1C08C" inkscape:connector-curvature="0" atv:refpx="39.978" atv:refpy="58.333"/>
    <polygon id="polygon1992" points="50.89,27.198 49.186,28.171 49.186,29.323 51.26,28.138 " fill="#F1C08C" atv:refpx="50.223" atv:refpy="28.261"/>
    <polygon id="polygon1994" points="52.028,79.035 52.257,78.189 51.798,78.451 " fill="#F1C08C" atv:refpx="52.028" atv:refpy="78.612"/>
    <polygon id="polygon1996" points="65.437,79.473 63.634,80.503 63.271,81.843 63.277,81.858 65.933,80.34 " fill="#F1C08C" atv:refpx="64.602" atv:refpy="80.666"/>
    <polygon id="polygon1998" points="53.41,77.53 53.041,78.892 55.482,77.497 55.112,76.557 " fill="#F1C08C" atv:refpx="54.261" atv:refpy="77.725"/>
    <polygon id="polygon2000" points="62.282,81.896 62.083,81.39 59.284,82.99 59.027,83.939 59.139,84.224 62.112,82.524 " fill="#F1C08C" atv:refpx="60.654" atv:refpy="82.807"/>
    <path d="M32.575,52.947L35.918,52.947C37.113,52.947 38.863,52.482 39.902,51.887L47.381,47.611L47.381,46.46L39.405,51.019C38.526,51.522 36.928,51.946 35.917,51.946L32.574,51.946L32.574,52.946Z" id="path2002" fill="#F1C08C" inkscape:connector-curvature="0" atv:refpx="39.978" atv:refpy="49.704"/>
    <path d="M42.969,19.875L31.126,26.645C30.011,27.282 29.138,28.788 29.138,30.072L29.138,100L30.138,100L30.138,30.071C30.138,29.144 30.818,27.972 31.622,27.512L44.796,19.982L44.735,19.875Z" id="path2004" fill="#F1C08C" inkscape:connector-curvature="0" atv:refpx="36.967" atv:refpy="59.938"/>
    <path d="M32.575,70.204L35.918,70.204C37.114,70.204 38.864,69.738 39.902,69.145L47.381,64.869L47.381,63.718L39.405,68.277C38.527,68.78 36.929,69.204 35.917,69.204L32.574,69.204L32.574,70.204Z" id="path2006" fill="#F1C08C" inkscape:connector-curvature="0" atv:refpx="39.978" atv:refpy="66.961"/>
    <path d="M47.382,82.128L47.382,80.977L39.406,85.536C38.528,86.039 36.93,86.463 35.918,86.463L32.575,86.463L32.575,87.463L35.918,87.463C37.114,87.463 38.864,86.998 39.902,86.404Z" id="path2008" fill="#F1C08C" inkscape:connector-curvature="0" atv:refpx="39.978" atv:refpy="84.22"/>
    <path d="M47.382,89.794L38.906,94.639C37.791,95.277 36.918,96.767 36.918,98.033L36.918,100L37.918,100L37.918,98.033C37.918,97.124 38.598,95.968 39.402,95.508L47.381,90.946L47.381,89.794Z" id="path2010" fill="#F1C08C" inkscape:connector-curvature="0" atv:refpx="42.15" atv:refpy="94.897"/>
    <polygon id="polygon2012" points="53.783,86.135 50.586,87.962 50.54,88.134 50.863,88.955 53.414,87.497 " fill="#F1C08C" atv:refpx="52.162" atv:refpy="87.545"/>
    <path d="M32.575,78.834L35.918,78.834C37.114,78.834 38.864,78.369 39.902,77.775L47.381,73.499L47.381,72.348L39.405,76.907C38.527,77.41 36.929,77.834 35.917,77.834L32.574,77.834L32.574,78.834Z" id="path2014" fill="#F1C08C" inkscape:connector-curvature="0" atv:refpx="39.978" atv:refpy="75.591"/>
    <polygon id="polygon2016" points="50.974,78.923 49.186,79.944 49.186,81.096 51.343,79.863 " fill="#F1C08C" atv:refpx="50.264" atv:refpy="80.01"/>
    <polygon id="polygon2018" points="50.723,70.438 49.186,71.317 49.186,71.816 49.396,72.348 50.354,71.8 " fill="#F1C08C" atv:refpx="49.954" atv:refpy="71.393"/>
    <polygon id="polygon2020" points="51.855,52.84 51.954,52.477 51.757,52.589 " fill="#F1C08C" atv:refpx="51.855" atv:refpy="52.659"/>
    <polygon id="polygon2022" points="55.019,67.983 53.163,69.043 53.533,69.983 54.65,69.344 " fill="#F1C08C" atv:refpx="54.091" atv:refpy="68.983"/>
    <polygon id="polygon2024" points="62.927,28.946 62.823,29.329 63.089,30.005 65.701,28.512 66.041,27.258 66.012,27.183 " fill="#F1C08C" atv:refpx="64.432" atv:refpy="28.594"/>
    <polygon id="polygon2026" points="57.76,75.043 57.391,76.405 59.62,75.131 59.25,74.192 " fill="#F1C08C" atv:refpx="58.505" atv:refpy="75.298"/>
    <polygon id="polygon2028" points="56.271,76.939 56.606,75.703 55.936,76.086 " fill="#F1C08C" atv:refpx="56.271" atv:refpy="76.321"/>
    <polygon id="polygon2030" points="53.106,51.818 52.737,53.181 55.44,51.636 55.07,50.695 " fill="#F1C08C" atv:refpx="54.088" atv:refpy="51.938"/>
    <polygon id="polygon2032" points="57.478,32.061 54.487,33.771 54.857,34.711 57.109,33.424 " fill="#F1C08C" atv:refpx="55.983" atv:refpy="33.386"/>
    <polygon id="polygon2034" points="53.967,35.22 54.033,35.182 54,35.098 " fill="#F1C08C" atv:refpx="54" atv:refpy="35.159"/>
    <polygon id="polygon2036" points="52.297,43.651 51.573,44.064 51.204,45.427 52.667,44.591 " fill="#F1C08C" atv:refpx="51.936" atv:refpy="44.539"/>
    <polygon id="polygon2038" points="53.182,34.517 50.349,36.136 50.719,37.076 52.813,35.879 " fill="#F1C08C" atv:refpx="51.766" atv:refpy="35.797"/>
    <polygon id="polygon2040" points="50.932,53.061 49.186,54.059 49.186,55.21 51.302,54.001 " fill="#F1C08C" atv:refpx="50.244" atv:refpy="54.136"/>
    <polygon id="polygon2042" points="49.67,37.676 49.894,37.548 49.782,37.262 " fill="#F1C08C" atv:refpx="49.782" atv:refpy="37.469"/>
    <polygon id="polygon2044" points="50.391,61.998 50.761,62.938 53.117,61.591 53.485,60.229 " fill="#F1C08C" atv:refpx="51.938" atv:refpy="61.584"/>
    <polygon id="polygon2046" points="52.339,69.514 51.876,69.779 51.507,71.141 52.709,70.454 " fill="#F1C08C" atv:refpx="52.108" atv:refpy="70.328"/>
    <polygon id="polygon2048" points="64.062,19.668 64.3,20.271 64.536,19.397 " fill="#F1C08C" atv:refpx="64.299" atv:refpy="19.834"/>
    <polygon id="polygon2050" points="55.831,24.373 55.888,24.518 55.945,24.308 " fill="#F1C08C" atv:refpx="55.888" atv:refpy="24.413"/>
    <polygon id="polygon2052" points="66.564,18.237 65.69,18.737 65.321,20.1 67.061,19.105 " fill="#F1C08C" atv:refpx="66.191" atv:refpy="19.169"/>
    <polygon id="polygon2054" points="59.946,22.02 60.094,22.394 60.24,21.852 " fill="#F1C08C" atv:refpx="60.093" atv:refpy="22.123"/>
   </g>
   <g id="shadow" atv:refpx="50.863" atv:refpy="54.699">
    <path d="M63.17,71.562C62.951,71.435 62.705,71.349 62.451,71.288L62.266,71.973C62.315,71.982 62.364,71.984 62.413,71.995Z" id="path2057" fill="#000000" inkscape:connector-curvature="0" atv:refpx="62.718" atv:refpy="71.642"/>
    <path d="M67.688,60.053C67.713,59.989 67.736,59.925 67.747,59.858C67.801,59.532 67.678,59.183 67.402,58.875L66.18,57.509L66.032,58.056L67.402,59.586C67.534,59.736 67.629,59.892 67.688,60.053" id="path2059" inkscape:connector-curvature="0" atv:refpx="66.896" atv:refpy="58.781"/>
    <polygon id="polygon2061" points="58.505,20.923 57.714,21.376 57.485,22.219 58.734,21.505 " atv:refpx="58.109" atv:refpy="21.571"/>
    <polygon id="polygon2063" points="67.61,46.73 68.217,46.383 68.343,45.917 68.24,45.657 67.188,46.258 " atv:refpx="67.766" atv:refpy="46.194"/>
    <polygon id="polygon2065" points="63.605,56.935 63.834,57.517 64.969,56.868 65.284,57.22 65.432,56.673 64.969,56.155 " atv:refpx="64.519" atv:refpy="56.836"/>
    <polygon id="polygon2067" points="62.919,65.956 62.24,66.345 62.469,66.927 62.691,66.8 " atv:refpx="62.579" atv:refpy="66.442"/>
    <polygon id="polygon2069" points="62.781,57.406 62.488,57.573 62.259,58.417 63.01,57.988 " atv:refpx="62.635" atv:refpy="57.912"/>
    <path d="M62.411,46.109L63.169,45.676C62.857,45.494 62.49,45.394 62.119,45.35L61.932,46.042C62.093,46.051 62.254,46.073 62.411,46.109" id="path2071" inkscape:connector-curvature="0" atv:refpx="62.55" atv:refpy="45.73"/>
    <polygon id="polygon2073" points="63.435,40.487 64.969,39.61 66.048,40.817 66.165,40.384 66.06,40.117 64.97,38.898 63.663,39.645 " atv:refpx="64.8" atv:refpy="39.858"/>
    <path d="M62.411,63.367L63.169,62.934C62.565,62.583 61.777,62.488 61.108,62.672L60.981,63.143L61.076,63.384C61.495,63.266 61.966,63.266 62.411,63.367" id="path2075" inkscape:connector-curvature="0" atv:refpx="62.075" atv:refpy="62.983"/>
    <polygon id="polygon2077" points="62.344,40.918 62.51,40.304 62.177,40.495 " atv:refpx="62.343" atv:refpy="40.611"/>
    <path d="M62.412,37.48L63.169,37.047C62.458,36.632 61.492,36.571 60.77,36.913L60.768,36.919L61.004,37.519C61.442,37.379 61.941,37.373 62.412,37.48" id="path2079" inkscape:connector-curvature="0" atv:refpx="61.969" atv:refpy="37.106"/>
    <path d="M67.688,25.538C67.713,25.475 67.736,25.41 67.747,25.344C67.776,25.168 67.749,24.985 67.679,24.806L67.544,25.304C67.592,25.382 67.658,25.457 67.688,25.538" id="path2081" inkscape:connector-curvature="0" atv:refpx="67.651" atv:refpy="25.172"/>
    <path d="M60.631,45.594L59.415,46.289L59.644,46.871L60.631,46.307C60.721,46.256 60.82,46.221 60.918,46.185L61.129,45.407C60.955,45.453 60.783,45.508 60.631,45.594" id="path2083" inkscape:connector-curvature="0" atv:refpx="60.272" atv:refpy="46.139"/>
    <polygon id="polygon2085" points="62.695,31.569 62.13,31.892 61.902,32.736 62.924,32.151 " atv:refpx="62.413" atv:refpy="32.152"/>
    <polygon id="polygon2087" points="64.97,30.269 63.52,31.098 63.749,31.68 64.97,30.982 65.018,31.036 65.166,30.489 " atv:refpx="64.343" atv:refpy="30.974"/>
    <path d="M67.689,34.166C67.714,34.102 67.737,34.038 67.747,33.971C67.801,33.645 67.678,33.297 67.402,32.989L65.914,31.324L65.766,31.871L67.402,33.7C67.534,33.849 67.629,34.006 67.689,34.166" id="path2089" inkscape:connector-curvature="0" atv:refpx="66.763" atv:refpy="32.745"/>
    <polygon id="polygon2091" points="61.415,66.816 59.725,67.782 59.496,68.626 61.644,67.398 " atv:refpx="60.57" atv:refpy="67.721"/>
    <path d="M69.55,61.792C69.255,62.186 68.875,62.527 68.426,62.797L68.194,63.654L68.349,63.565C68.935,63.231 69.392,62.764 69.721,62.23Z" id="path2093" inkscape:connector-curvature="0" atv:refpx="68.958" atv:refpy="62.723"/>
    <path d="M61.292,71.97L61.492,71.232C61.185,71.266 60.887,71.333 60.631,71.479L59.457,72.15L59.686,72.732L60.631,72.192C60.831,72.079 61.057,72.012 61.292,71.97" id="path2095" inkscape:connector-curvature="0" atv:refpx="60.475" atv:refpy="71.982"/>
    <path d="M67.188,72.144L67.61,72.616L68.349,72.193C68.42,72.152 68.477,72.097 68.545,72.051L68.325,71.493Z" id="path2097" inkscape:connector-curvature="0" atv:refpx="67.867" atv:refpy="72.055"/>
    <polygon id="polygon2099" points="58.376,72.769 58.147,73.612 58.862,73.204 58.633,72.622 " atv:refpx="58.505" atv:refpy="73.117"/>
    <path d="M69.477,35.987C69.173,36.369 68.801,36.708 68.35,36.966L68.013,37.159L67.785,38.001L68.35,37.678C68.896,37.367 69.335,36.941 69.66,36.453Z" id="path2101" inkscape:connector-curvature="0" atv:refpx="68.723" atv:refpy="36.995"/>
    <polygon id="polygon2103" points="63.511,23.187 63.739,22.343 60.747,24.053 60.976,24.636 " atv:refpx="62.243" atv:refpy="23.489"/>
    <path d="M70.215,51.631C70.041,52.7 69.361,53.646 68.35,54.223L67.722,54.582L67.951,55.164L68.35,54.936C69.362,54.359 70.041,53.414 70.215,52.344C70.266,52.033 70.26,51.719 70.225,51.408C70.217,51.482 70.227,51.557 70.215,51.631" id="path2105" inkscape:connector-curvature="0" atv:refpx="68.987" atv:refpy="53.286"/>
    <polygon id="polygon2107" points="58.344,69.285 58.572,68.441 58.103,68.709 58.332,69.292 " atv:refpx="58.338" atv:refpy="68.867"/>
    <polygon id="polygon2109" points="67.188,63.516 67.241,63.574 67.269,63.47 " atv:refpx="67.228" atv:refpy="63.522"/>
    <path d="M63.169,28.418C63.142,28.402 63.108,28.396 63.08,28.381L63.052,28.485Z" id="path2111" inkscape:connector-curvature="0" atv:refpx="63.111" atv:refpy="28.433"/>
    <polygon id="polygon2113" points="60.748,33.395 60.976,32.552 59.404,33.451 59.633,34.033 " atv:refpx="60.19" atv:refpy="33.293"/>
    <polygon id="polygon2115" points="66.314,66.999 66.413,66.633 66.247,66.212 64.97,64.784 64.073,65.297 63.844,66.14 64.97,65.497 " atv:refpx="65.129" atv:refpy="65.892"/>
    <polygon id="polygon2117" points="61.106,59.076 61.335,58.233 59.467,59.3 59.696,59.882 " atv:refpx="60.401" atv:refpy="59.057"/>
    <polygon id="polygon2119" points="58.017,47.089 57.788,47.932 58.819,47.343 58.59,46.761 " atv:refpx="58.303" atv:refpy="47.347"/>
    <polygon id="polygon2121" points="58.579,33.922 57.834,34.348 57.606,35.191 58.808,34.504 " atv:refpx="58.207" atv:refpy="34.556"/>
    <polygon id="polygon2123" points="62.468,54.045 62.471,54.034 62.463,54.033 " atv:refpx="62.467" atv:refpy="54.039"/>
    <polygon id="polygon2125" points="65.1,47.921 65.426,48.749 67.077,50.595 67.225,50.049 65.151,47.73 " atv:refpx="66.162" atv:refpy="49.162"/>
    <polygon id="polygon2127" points="51.079,72.725 50.85,73.569 53.369,72.129 53.139,71.547 " atv:refpx="52.109" atv:refpy="72.558"/>
    <polygon id="polygon2129" points="49.79,60.471 49.806,60.41 49.773,60.429 " atv:refpx="49.79" atv:refpy="60.441"/>
    <polygon id="polygon2131" points="49.186,57.261 50.928,56.266 51.156,55.422 49.186,56.548 " atv:refpx="50.171" atv:refpy="56.341"/>
    <polygon id="polygon2133" points="49.926,73.384 49.826,73.441 49.876,73.567 " atv:refpx="49.876" atv:refpy="73.475"/>
    <polygon id="polygon2135" points="52.905,16.94 52.987,17.148 54.483,16.294 54.567,15.98 " atv:refpx="53.736" atv:refpy="16.564"/>
    <path d="M63.024,11.568L63.175,11.011L61.122,12.197L61.219,12.443L62.357,11.793C62.564,11.674 62.791,11.601 63.024,11.568" id="path2137" inkscape:connector-curvature="0" atv:refpx="62.149" atv:refpy="11.727"/>
    <path d="M69.158,19.802C69.716,19.268 70.113,18.599 70.286,17.835C70.378,17.428 70.383,17.018 70.346,16.614C70.33,16.784 70.324,16.953 70.286,17.122C70.124,17.839 69.757,18.467 69.254,18.985L69.084,19.615Z" id="path2139" inkscape:connector-curvature="0" atv:refpx="69.726" atv:refpy="18.208"/>
    <polygon id="polygon2141" points="57.014,14.568 57.103,14.795 58.778,13.838 58.871,13.495 " atv:refpx="57.943" atv:refpy="14.145"/>
    <polygon id="polygon2143" points="49.186,74.382 49.186,74.52 49.231,74.495 " atv:refpx="49.209" atv:refpy="74.451"/>
    <path d="M34.918,34.414C35.358,34.414 35.888,34.349 36.444,34.246L47.382,27.994L47.382,27.281L34.904,34.414Z" id="path2145" inkscape:connector-curvature="0" atv:refpx="41.143" atv:refpy="30.848"/>
    <path d="M65.025,12.395L65.501,13.081L64.887,11.522C64.684,11.293 64.434,11.111 64.152,10.994L63.974,11.65C64.393,11.782 64.774,12.032 65.025,12.395" id="path2147" inkscape:connector-curvature="0" atv:refpx="64.738" atv:refpy="12.037"/>
    <polygon id="polygon2149" points="49.186,26.25 49.186,26.963 50.501,26.211 50.272,25.629 " atv:refpx="49.843" atv:refpy="26.296"/>
    <polygon id="polygon2151" points="63.877,83.379 65.864,82.243 66.092,81.4 63.647,82.797 " atv:refpx="64.87" atv:refpy="82.389"/>
    <polygon id="polygon2153" points="51.462,90.475 52.818,89.7 53.046,88.857 51.233,89.894 " atv:refpx="52.139" atv:refpy="89.666"/>
    <polygon id="polygon2155" points="55.809,78.648 52.613,80.476 52.605,80.502 52.827,81.066 55.581,79.491 " atv:refpx="54.207" atv:refpy="79.857"/>
    <polygon id="polygon2157" points="55.6,88.11 57.166,87.215 57.394,86.372 55.371,87.528 " atv:refpx="56.383" atv:refpy="87.241"/>
    <polygon id="polygon2159" points="59.738,85.745 61.516,84.728 61.744,83.885 59.509,85.163 " atv:refpx="60.627" atv:refpy="84.815"/>
    <polygon id="polygon2161" points="58.642,59.771 58.138,60.06 57.91,60.903 58.871,60.353 " atv:refpx="58.391" atv:refpy="60.337"/>
    <polygon id="polygon2163" points="55.547,75.098 56.994,74.272 57.222,73.428 55.318,74.516 " atv:refpx="56.27" atv:refpy="74.263"/>
    <polygon id="polygon2165" points="64.348,74.266 64.188,73.859 61.31,75.504 61.093,76.308 61.103,76.335 64.279,74.519 " atv:refpx="62.721" atv:refpy="75.097"/>
    <polygon id="polygon2167" points="58.06,42.848 58.137,43.043 58.213,42.76 " atv:refpx="58.136" atv:refpy="42.901"/>
    <path d="M65.418,73.913L65.337,74.212L65.565,74.792L67.343,76.779L67.487,76.244C67.458,76.207 67.435,76.167 67.402,76.13Z" id="path2169" inkscape:connector-curvature="0" atv:refpx="66.412" atv:refpy="75.346"/>
    <path d="M68.35,28.337L67.636,28.745L67.865,29.327L68.35,29.05C68.814,28.784 69.198,28.435 69.506,28.039L69.847,26.781C69.517,27.408 69.015,27.956 68.35,28.337" id="path2171" inkscape:connector-curvature="0" atv:refpx="68.742" atv:refpy="28.054"/>
    <path d="M70.215,43.714C70.266,43.403 70.26,43.089 70.224,42.779C70.217,42.852 70.227,42.928 70.215,43.001C70.152,43.393 69.999,43.759 69.808,44.105L69.477,45.327C69.855,44.852 70.119,44.306 70.215,43.714" id="path2173" inkscape:connector-curvature="0" atv:refpx="69.865" atv:refpy="44.053"/>
    <polygon id="polygon2175" points="59.367,42.101 59.139,42.943 61.58,41.547 61.352,40.966 " atv:refpx="60.359" atv:refpy="41.954"/>
    <polygon id="polygon2177" points="55.506,49.237 56.635,48.591 56.864,47.748 55.277,48.655 " atv:refpx="56.07" atv:refpy="48.492"/>
    <polygon id="polygon2179" points="64.097,48.025 60.9,49.852 60.866,49.977 61.061,50.473 63.868,48.869 " atv:refpx="62.481" atv:refpy="49.249"/>
    <polygon id="polygon2181" points="53.963,71.076 54.093,71.404 54.222,70.928 " atv:refpx="54.093" atv:refpy="71.166"/>
    <polygon id="polygon2183" points="55.375,70.269 55.147,71.113 57.507,69.764 57.277,69.181 " atv:refpx="56.327" atv:refpy="70.147"/>
    <polygon id="polygon2185" points="60.103,76.36 60.05,76.224 56.963,77.989 56.85,78.407 56.965,78.7 59.929,77.006 " atv:refpx="58.477" atv:refpy="77.462"/>
    <polygon id="polygon2187" points="67.61,20.843 67.807,20.731 68.035,19.888 67.188,20.372 " atv:refpx="67.612" atv:refpy="20.366"/>
    <polygon id="polygon2189" points="59.985,63.221 56.788,65.048 56.736,65.239 56.914,65.69 59.757,64.064 " atv:refpx="58.361" atv:refpy="64.456"/>
    <polygon id="polygon2191" points="64.878,21.738 65.238,22.653 66.811,24.412 66.959,23.865 64.969,21.64 64.893,21.684 " atv:refpx="65.918" atv:refpy="23.026"/>
    <polygon id="polygon2193" points="54.505,62.137 53.842,62.515 53.614,63.359 54.734,62.719 " atv:refpx="54.174" atv:refpy="62.748"/>
    <path d="M61.705,54.673L61.432,53.98C61.146,54.017 60.869,54.084 60.63,54.221L59.55,54.838L59.322,55.681L60.63,54.933C60.946,54.755 61.321,54.679 61.705,54.673" id="path2195" inkscape:connector-curvature="0" atv:refpx="60.514" atv:refpy="54.831"/>
    <path d="M34.918,43.043C35.358,43.043 35.888,42.978 36.444,42.875L47.382,36.623L47.382,35.91L34.904,43.043Z" id="path2197" inkscape:connector-curvature="0" atv:refpx="41.143" atv:refpy="39.477"/>
    <polygon id="polygon2199" points="50.655,34.039 50.427,34.883 53.274,33.255 53.045,32.673 " atv:refpx="51.85" atv:refpy="33.778"/>
    <polygon id="polygon2201" points="50.852,29.71 49.186,30.662 49.186,31.375 50.624,30.554 " atv:refpx="50.019" atv:refpy="30.543"/>
    <polygon id="polygon2203" points="50.264,18.465 49.186,19.087 49.186,19.321 50.187,18.749 " atv:refpx="49.725" atv:refpy="18.893"/>
    <polygon id="polygon2205" points="50.554,39.222 50.325,38.641 49.242,39.26 49.186,39.464 49.186,40.004 " atv:refpx="49.87" atv:refpy="39.322"/>
    <polygon id="polygon2207" points="51.035,42.451 49.186,43.508 49.186,44.22 50.807,43.294 " atv:refpx="50.111" atv:refpy="43.335"/>
    <path d="M34.918,51.673C35.357,51.673 35.887,51.608 36.441,51.506L47.382,45.252L47.382,44.54L34.903,51.673Z" id="path2209" inkscape:connector-curvature="0" atv:refpx="41.142" atv:refpy="48.106"/>
    <polygon id="polygon2211" points="52.872,75.914 51.18,76.882 51.409,77.464 52.644,76.758 " atv:refpx="52.026" atv:refpy="76.689"/>
    <path d="M67.597,15.383L67.184,14.789L67.856,16.496C67.92,16.116 67.833,15.724 67.597,15.383" id="path2213" inkscape:connector-curvature="0" atv:refpx="67.531" atv:refpy="15.642"/>
    <polygon id="polygon2215" points="55.635,65.708 52.546,67.473 52.775,68.056 55.406,66.551 " atv:refpx="54.09" atv:refpy="66.882"/>
    <polygon id="polygon2217" points="58.32,86.556 58.914,86.216 58.685,85.634 58.548,85.713 " atv:refpx="58.617" atv:refpy="86.095"/>
    <polygon id="polygon2219" points="53.972,89.041 54.775,88.581 54.547,88 54.2,88.198 " atv:refpx="54.373" atv:refpy="88.52"/>
    <polygon id="polygon2221" points="62.86,83.363 62.669,84.069 63.052,83.85 " atv:refpx="62.861" atv:refpy="83.716"/>
    <path d="M70.215,78.231C70.266,77.919 70.26,77.606 70.224,77.294C70.217,77.368 70.227,77.442 70.215,77.515C70.041,78.585 69.361,79.53 68.35,80.109L67.786,80.431L68.015,81.013L68.35,80.821C69.361,80.244 70.041,79.299 70.215,78.231" id="path2223" inkscape:connector-curvature="0" atv:refpx="69.019" atv:refpy="79.154"/>
    <polygon id="polygon2225" points="67.102,81.266 67.016,81.584 67.189,81.486 " atv:refpx="67.102" atv:refpy="81.425"/>
    <polygon id="polygon2227" points="50.408,90.365 49.85,90.684 49.622,91.527 50.637,90.947 " atv:refpx="50.13" atv:refpy="90.946"/>
    <path d="M36.446,68.761L47.382,62.51L47.382,61.797L34.905,68.929L34.918,68.929C35.359,68.929 35.89,68.864 36.446,68.761" id="path2229" inkscape:connector-curvature="0" atv:refpx="41.144" atv:refpy="65.363"/>
    <polygon id="polygon2231" points="51.459,81.135 49.186,82.434 49.186,83.147 51.231,81.978 " atv:refpx="50.323" atv:refpy="82.141"/>
    <path d="M47.382,92.096L41.143,95.663C39.956,96.342 39.168,97.54 39.168,98.034L39.168,98.404C39.21,98.074 39.943,97.062 41.143,96.375L47.382,92.809Z" id="path2233" inkscape:connector-curvature="0" atv:refpx="43.275" atv:refpy="95.25"/>
    <polygon id="polygon2235" points="50.366,64.502 49.547,64.97 49.319,65.814 50.595,65.084 " atv:refpx="49.957" atv:refpy="65.158"/>
    <polygon id="polygon2237" points="49.729,77.711 49.501,78.554 50.585,77.935 50.356,77.353 " atv:refpx="50.043" atv:refpy="77.953"/>
    <polygon id="polygon2239" points="50.959,59.751 50.731,60.595 53.316,59.117 53.087,58.535 " atv:refpx="52.023" atv:refpy="59.565"/>
    <polygon id="polygon2241" points="51.338,68.164 49.186,69.394 49.186,70.107 51.11,69.007 " atv:refpx="50.262" atv:refpy="69.136"/>
    <path d="M34.918,77.559C35.359,77.559 35.89,77.494 36.445,77.39L47.381,71.139L47.381,70.426L34.902,77.559Z" id="path2243" inkscape:connector-curvature="0" atv:refpx="41.142" atv:refpy="73.993"/>
    <path d="M36.443,86.019L47.382,79.766L47.382,79.053L34.903,86.186L34.918,86.186C35.358,86.187 35.888,86.122 36.443,86.019" id="path2245" inkscape:connector-curvature="0" atv:refpx="41.142" atv:refpy="82.62"/>
    <polygon id="polygon2247" points="52.46,64.018 52.689,63.175 51.191,64.031 51.42,64.613 " atv:refpx="51.94" atv:refpy="63.894"/>
    <polygon id="polygon2249" points="52.264,24.491 51.097,25.158 51.326,25.74 52.036,25.334 " atv:refpx="51.681" atv:refpy="25.115"/>
    <polygon id="polygon2251" points="53.721,49.544 53.493,50.387 54.681,49.708 54.452,49.126 " atv:refpx="54.087" atv:refpy="49.757"/>
    <polygon id="polygon2253" points="51.139,51.02 51.368,51.602 52.341,51.046 52.569,50.203 " atv:refpx="51.854" atv:refpy="50.903"/>
    <polygon id="polygon2255" points="57.236,43.319 55.071,44.556 54.844,45.398 57.464,43.9 " atv:refpx="56.154" atv:refpy="44.359"/>
    <polygon id="polygon2257" points="59.748,50.511 56.694,52.256 56.924,52.839 59.519,51.355 " atv:refpx="58.221" atv:refpy="51.675"/>
    <polygon id="polygon2259" points="58.224,56.141 58.397,55.499 58.049,55.698 " atv:refpx="58.223" atv:refpy="55.82"/>
    <polygon id="polygon2261" points="59.626,37.54 56.642,39.246 56.871,39.828 59.398,38.383 " atv:refpx="58.134" atv:refpy="38.684"/>
    <polygon id="polygon2263" points="54.494,74.987 54.026,75.255 53.798,76.098 54.723,75.569 " atv:refpx="54.261" atv:refpy="75.542"/>
    <polygon id="polygon2265" points="56.756,61.562 56.985,60.719 55.329,61.665 55.558,62.247 " atv:refpx="56.157" atv:refpy="61.483"/>
    <polygon id="polygon2267" points="54.389,23.276 53.417,23.831 53.189,24.675 54.618,23.858 " atv:refpx="53.904" atv:refpy="23.976"/>
    <polygon id="polygon2269" points="55.255,57.296 55.026,58.139 57.454,56.752 57.225,56.17 " atv:refpx="56.24" atv:refpy="57.154"/>
    <polygon id="polygon2271" points="56.332,22.878 56.56,22.035 55.213,22.805 55.442,23.387 " atv:refpx="55.886" atv:refpy="22.711"/>
    <path d="M70.215,60.26C70.194,60.391 70.142,60.513 70.106,60.64L70.219,60.926C70.262,60.63 70.258,60.332 70.225,60.036C70.217,60.111 70.227,60.186 70.215,60.26" id="path2273" inkscape:connector-curvature="0" atv:refpx="70.178" atv:refpy="60.481"/>
    <path d="M59.558,21.034L60.627,20.423L60.842,19.628C60.773,19.657 60.695,19.671 60.631,19.708L59.329,20.452Z" id="path2275" inkscape:connector-curvature="0" atv:refpx="60.086" atv:refpy="20.331"/>
    <polygon id="polygon2277" points="54.463,36.275 53.538,36.804 53.31,37.647 54.692,36.857 " atv:refpx="54.001" atv:refpy="36.961"/>
    <polygon id="polygon2279" points="58.04,29.985 58.094,29.787 57.986,29.849 " atv:refpx="58.04" atv:refpy="29.886"/>
    <polygon id="polygon2281" points="56.452,35.851 56.681,35.008 55.287,35.804 55.516,36.386 " atv:refpx="55.984" atv:refpy="35.697"/>
    <path d="M61.6,28.788L61.33,28.103C61.08,28.146 60.841,28.216 60.629,28.337L59.245,29.129L59.016,29.972L60.629,29.05C60.916,28.886 61.252,28.808 61.6,28.788" id="path2283" inkscape:connector-curvature="0" atv:refpx="60.308" atv:refpy="29.038"/>
    <polygon id="polygon2285" points="59.444,24.798 56.631,26.406 56.86,26.988 59.215,25.642 " atv:refpx="58.038" atv:refpy="25.893"/>
    <polygon id="polygon2287" points="53.098,45.685 50.775,47.012 50.547,47.854 53.326,46.266 " atv:refpx="51.936" atv:refpy="46.77"/>
    <path d="M70.215,34.373C70.185,34.558 70.121,34.732 70.062,34.907L70.179,35.207C70.187,35.165 70.208,35.126 70.214,35.084C70.265,34.773 70.259,34.46 70.225,34.149C70.217,34.223 70.226,34.298 70.215,34.373" id="path2289" inkscape:connector-curvature="0" atv:refpx="70.157" atv:refpy="34.679"/>
    <polygon id="polygon2291" points="49.426,51.999 49.197,52.843 50.543,52.073 50.314,51.491 " atv:refpx="49.87" atv:refpy="52.167"/>
    <polygon id="polygon2293" points="55.331,39.995 52.504,41.611 52.733,42.193 55.103,40.838 " atv:refpx="53.918" atv:refpy="41.094"/>
    <path d="M34.918,60.301C35.358,60.301 35.888,60.236 36.443,60.133L47.382,53.88L47.382,53.167L34.903,60.3L34.918,60.3Z" id="path2295" inkscape:connector-curvature="0" atv:refpx="41.142" atv:refpy="56.734"/>
    <polygon id="polygon2297" points="54.007,58.305 54.102,57.955 53.912,58.064 " atv:refpx="54.007" atv:refpy="58.13"/>
    <polygon id="polygon2299" points="52.157,38.306 52.385,37.463 51.15,38.169 51.379,38.751 " atv:refpx="51.767" atv:refpy="38.107"/>
    <polygon id="polygon2301" points="52.556,54.622 52.786,55.204 55.223,53.811 55.451,52.967 " atv:refpx="54.004" atv:refpy="54.085"/>
    <polygon id="polygon2303" points="49.186,48.632 49.188,48.631 49.186,48.626 " atv:refpx="49.187" atv:refpy="48.629"/>
    <polygon id="polygon2305" points="57.161,30.32 54.951,31.584 54.722,32.427 57.39,30.902 " atv:refpx="56.056" atv:refpy="31.373"/>
    <polygon id="polygon2307" points="59.931,13.179 60.394,12.914 60.299,12.671 60.026,12.828 " atv:refpx="60.162" atv:refpy="12.925"/>
    <path d="M61.871,19.429L61.674,20.157C61.92,20.15 62.169,20.166 62.411,20.221L63.113,19.82L63.086,19.755C62.721,19.558 62.297,19.442 61.871,19.429" id="path2309" inkscape:connector-curvature="0" atv:refpx="62.394" atv:refpy="19.825"/>
    <polygon id="polygon2311" points="55.636,15.634 56.278,15.267 56.189,15.043 55.723,15.313 " atv:refpx="55.957" atv:refpy="15.338"/>
    <polygon id="polygon2313" points="51.776,29.895 51.919,29.813 51.848,29.631 " atv:refpx="51.847" atv:refpy="29.763"/>
    <polygon id="polygon2315" points="52.514,28.76 52.743,29.342 54.919,28.098 55.148,27.254 " atv:refpx="53.831" atv:refpy="28.298"/>
    <polygon id="polygon2317" points="51.34,18.09 52.162,17.62 52.081,17.415 51.419,17.798 " atv:refpx="51.751" atv:refpy="17.752"/>
    <path d="M34.918,71.429L33.198,71.429C32.333,71.429 31.755,71.258 31.362,71.015L31.362,71.728C31.755,71.972 32.333,72.142 33.198,72.142L34.918,72.142C36.787,72.142 39.521,71.414 41.143,70.488L47.382,66.922L47.382,66.209L41.143,69.775C39.521,70.702 36.787,71.429 34.918,71.429" id="path2319" inkscape:connector-curvature="0" atv:refpx="39.372" atv:refpy="69.175"/>
    <path d="M34.918,88.687L33.198,88.687C32.333,88.687 31.755,88.515 31.362,88.271L31.362,88.984C31.755,89.228 32.333,89.399 33.198,89.399L34.918,89.399C36.787,89.399 39.521,88.672 41.143,87.746L47.382,84.179L47.382,83.466L41.143,87.032C39.521,87.96 36.787,88.687 34.918,88.687" id="path2321" inkscape:connector-curvature="0" atv:refpx="39.372" atv:refpy="86.433"/>
    <path d="M34.918,80.059L33.198,80.059C32.333,80.059 31.755,79.887 31.362,79.643L31.362,80.357C31.755,80.601 32.333,80.773 33.198,80.773L34.918,80.773C36.787,80.773 39.521,80.045 41.143,79.119L47.382,75.551L47.382,74.838L41.143,78.404C39.521,79.332 36.787,80.059 34.918,80.059" id="path2323" inkscape:connector-curvature="0" atv:refpx="39.372" atv:refpy="77.805"/>
    <path d="M34.918,62.801L33.198,62.801C32.333,62.801 31.755,62.63 31.362,62.386L31.362,63.099C31.755,63.343 32.333,63.514 33.198,63.514L34.918,63.514C36.787,63.514 39.521,62.787 41.143,61.86L47.382,58.294L47.382,57.58L41.143,61.147C39.521,62.074 36.787,62.801 34.918,62.801" id="path2325" inkscape:connector-curvature="0" atv:refpx="39.372" atv:refpy="60.547"/>
    <path d="M34.918,45.543L33.198,45.543C32.333,45.543 31.755,45.372 31.362,45.128L31.362,45.841C31.755,46.085 32.333,46.256 33.198,46.256L34.918,46.256C36.786,46.256 39.521,45.53 41.143,44.602L47.382,41.036L47.382,40.323L41.143,43.89C39.521,44.816 36.786,45.543 34.918,45.543" id="path2327" inkscape:connector-curvature="0" atv:refpx="39.372" atv:refpy="43.29"/>
    <path d="M34.918,54.173L33.198,54.173C32.333,54.173 31.755,54.002 31.362,53.758L31.362,54.47C31.755,54.714 32.333,54.885 33.198,54.885L34.918,54.885C36.787,54.885 39.521,54.158 41.143,53.231L47.382,49.664L47.382,48.952L41.143,52.518C39.519,53.446 36.785,54.173 34.918,54.173" id="path2329" inkscape:connector-curvature="0" atv:refpx="39.372" atv:refpy="51.919"/>
    <path d="M46.97,19.875L45.643,20.633L33.336,27.666C33.056,27.825 32.79,28.058 32.543,28.33L32.543,28.833L47.381,20.352L47.381,19.874L46.97,19.874Z" id="path2331" inkscape:connector-curvature="0" atv:refpx="39.962" atv:refpy="24.353"/>
    <path d="M34.918,36.914L33.198,36.914C32.333,36.914 31.755,36.743 31.362,36.499L31.362,37.212C31.755,37.456 32.333,37.627 33.198,37.627L34.918,37.627C36.786,37.627 39.521,36.9 41.143,35.973L47.382,32.406L47.382,31.693L41.143,35.26C39.521,36.187 36.786,36.913 34.918,36.914" id="path2333" inkscape:connector-curvature="0" atv:refpx="39.372" atv:refpy="34.66"/>
   </g>
  </g>
 </g>
</svg>
