<?xml version='1.0' encoding='UTF-8' standalone='no'?>
<svg sodipodi:docname="HeatingElement.svg" xmlns:atv="http://webmi.atvise.com/2007/svgext" xmlns:sodipodi="http://sodipodi.sourceforge.net/DTD/sodipodi-0.dtd" xmlns:xlink="http://www.w3.org/1999/xlink" xmlns:svg="http://www.w3.org/2000/svg" id="svg2829" height="191.53758" version="1.1" xmlns:dc="http://purl.org/dc/elements/1.1/" xmlns="http://www.w3.org/2000/svg" width="283.20248" xmlns:cc="http://creativecommons.org/ns#" xmlns:rdf="http://www.w3.org/1999/02/22-rdf-syntax-ns#" xmlns:inkscape="http://www.inkscape.org/namespaces/inkscape" inkscape:version="1.0beta1 (d07a077, 2019-11-03)">
 <defs id="defs2823"/>
 <sodipodi:namedview inkscape:window-maximized="1" id="base" showgrid="false" inkscape:pageshadow="2" inkscape:window-height="1003" inkscape:zoom="0.35" pagecolor="#ffffff" inkscape:current-layer="layer1" inkscape:window-x="0" inkscape:document-rotation="0" inkscape:cx="2035.1858" inkscape:pageopacity="0.0" borderopacity="1.0" inkscape:window-width="2560" inkscape:document-units="mm" inkscape:window-y="0" bordercolor="#666666" inkscape:cy="340.53221"/>
 <metadata id="metadata2826">
  <rdf:RDF>
   <cc:Work rdf:about="">
    <dc:format>image/svg+xml</dc:format>
    <dc:type rdf:resource="http://purl.org/dc/dcmitype/StillImage"/>
    <dc:title/>
   </cc:Work>
  </rdf:RDF>
  <atv:gridconfig gridstyle="lines" height="20" width="20" enabled="false"/>
  <atv:snapconfig height="10" width="10" enabled="false"/>
 </metadata>
 <g id="layer1" atv:refpx="141.601" inkscape:groupmode="layer" atv:refpy="95.769" transform="translate(432.6429,-58.067518)" inkscape:label="Слой 1">
  <g id="g2852" atv:refpx="-291.042" atv:refpy="153.836" transform="matrix(2.8622791,0,0,3.6488214,-434.15705,-3.9624454)">
   <g id="shape" atv:refpx="50.001" atv:refpy="43.246">
    <path id="path2849" atv:refpx="50.001" fill="#FF0000" inkscape:connector-curvature="0" atv:refpy="43.246" d="M94.793,69.493C92.214,69.493 90.115,67.28 90.115,64.562L90.115,63.845C90.115,62.421 88.957,61.263 87.533,61.263L87.122,61.263C85.698,61.263 84.54,62.421 84.54,63.845L84.54,64.562C84.54,67.28 82.441,69.493 79.862,69.493C77.283,69.493 75.184,67.28 75.184,64.562L75.184,63.845C75.184,62.421 74.026,61.263 72.601,61.263L72.191,61.263C70.766,61.263 69.608,62.421 69.608,63.845L69.608,64.562C69.608,67.28 67.509,69.493 64.93,69.493C62.351,69.493 60.252,67.28 60.252,64.562L60.252,63.845C60.252,62.421 59.094,61.263 57.67,61.263L57.26,61.263C55.836,61.263 54.678,62.421 54.678,63.845L54.678,64.562C54.678,67.28 52.579,69.493 50,69.493C47.421,69.493 45.322,67.28 45.322,64.562L45.322,63.845C45.322,62.421 44.164,61.263 42.74,61.263L42.329,61.263C40.905,61.263 39.747,62.421 39.747,63.845L39.747,64.562C39.747,67.28 37.648,69.493 35.069,69.493C32.49,69.493 30.391,67.28 30.391,64.562L30.391,63.845C30.391,62.421 29.233,61.263 27.809,61.263L27.398,61.263C25.974,61.263 24.816,62.421 24.816,63.845L24.816,64.562C24.816,67.28 22.717,69.493 20.138,69.493C17.558,69.493 15.46,67.28 15.46,64.562L15.46,63.845C15.46,62.421 14.302,61.263 12.878,61.263L12.467,61.263C11.043,61.263 9.885,62.421 9.885,63.845L9.885,64.562C9.885,67.28 7.786,69.493 5.207,69.493C2.628,69.493 0.529,67.28 0.529,64.562L0.529,35.941C0.529,33.223 2.628,31.011 5.207,31.011C7.786,31.011 9.885,33.222 9.885,35.941L9.885,36.657C9.885,38.081 11.043,39.239 12.467,39.239L12.878,39.239C14.302,39.239 15.46,38.081 15.46,36.657L15.46,35.941C15.46,33.223 17.559,31.011 20.138,31.011C22.717,31.011 24.816,33.222 24.816,35.941L24.816,36.657C24.816,38.081 25.974,39.239 27.398,39.239L27.809,39.239C29.233,39.239 30.391,38.081 30.391,36.657L30.391,35.941C30.391,33.223 32.49,31.011 35.069,31.011C37.649,31.011 39.747,33.222 39.747,35.941L39.747,36.657C39.747,38.081 40.905,39.239 42.329,39.239L42.74,39.239C44.164,39.239 45.322,38.081 45.322,36.657L45.322,17L47.67,17L47.67,36.657C47.67,39.375 45.459,41.586 42.74,41.586L42.329,41.586C39.611,41.586 37.399,39.376 37.399,36.657L37.399,35.94C37.399,34.516 36.354,33.358 35.068,33.358C33.782,33.358 32.738,34.516 32.738,35.94L32.738,36.657C32.738,39.375 30.527,41.586 27.808,41.586L27.397,41.586C24.679,41.586 22.467,39.376 22.467,36.657L22.467,35.94C22.467,34.516 21.422,33.358 20.137,33.358C18.852,33.358 17.806,34.516 17.806,35.94L17.806,36.657C17.806,39.375 15.595,41.586 12.876,41.586L12.465,41.586C9.747,41.586 7.535,39.376 7.535,36.657L7.535,35.94C7.535,34.516 6.49,33.358 5.205,33.358C3.92,33.358 2.875,34.516 2.875,35.94L2.875,64.563C2.875,65.988 3.92,67.145 5.205,67.145C6.49,67.145 7.535,65.987 7.535,64.563L7.535,63.846C7.535,61.128 9.746,58.916 12.465,58.916L12.876,58.916C15.594,58.916 17.806,61.129 17.806,63.846L17.806,64.563C17.806,65.988 18.851,67.145 20.137,67.145C21.423,67.145 22.467,65.987 22.467,64.563L22.467,63.846C22.467,61.128 24.678,58.916 27.397,58.916L27.808,58.916C30.526,58.916 32.738,61.129 32.738,63.846L32.738,64.563C32.738,65.988 33.783,67.145 35.068,67.145C36.353,67.145 37.399,65.987 37.399,64.563L37.399,63.846C37.399,61.128 39.61,58.916 42.329,58.916L42.74,58.916C45.458,58.916 47.67,61.129 47.67,63.846L47.67,64.563C47.67,65.988 48.715,67.145 50,67.145C51.285,67.145 52.33,65.987 52.33,64.563L52.33,63.846C52.33,61.128 54.542,58.916 57.26,58.916L57.671,58.916C60.389,58.916 62.601,61.129 62.601,63.846L62.601,64.563C62.601,65.988 63.646,67.145 64.931,67.145C66.216,67.145 67.261,65.987 67.261,64.563L67.261,63.846C67.261,61.128 69.473,58.916 72.192,58.916L72.602,58.916C75.321,58.916 77.533,61.129 77.533,63.846L77.533,64.563C77.533,65.988 78.578,67.145 79.863,67.145C81.148,67.145 82.193,65.987 82.193,64.563L82.193,63.846C82.193,61.128 84.405,58.916 87.123,58.916L87.534,58.916C90.252,58.916 92.464,61.129 92.464,63.846L92.464,64.563C92.464,65.988 93.509,67.145 94.794,67.145C96.079,67.145 97.124,65.987 97.124,64.563L97.124,35.941C97.124,34.517 96.079,33.359 94.794,33.359C93.509,33.359 92.464,34.517 92.464,35.941L92.464,36.657C92.464,39.375 90.252,41.587 87.534,41.587L87.12,41.587C84.402,41.587 82.19,39.376 82.19,36.657L82.19,35.941C82.19,34.517 81.145,33.359 79.86,33.359C78.575,33.359 77.53,34.517 77.53,35.941L77.53,36.657C77.53,39.375 75.318,41.587 72.599,41.587L72.19,41.587C69.471,41.587 67.259,39.376 67.259,36.657L67.259,35.941C67.259,34.517 66.214,33.359 64.929,33.359C63.644,33.359 62.599,34.517 62.599,35.941L62.599,36.657C62.599,39.375 60.387,41.587 57.669,41.587L57.259,41.587C54.541,41.587 52.329,39.376 52.329,36.657L52.329,17L54.677,17L54.677,36.657C54.677,38.08 55.835,39.239 57.259,39.239L57.669,39.239C59.093,39.239 60.251,38.08 60.251,36.657L60.251,35.94C60.251,33.223 62.35,31.01 64.929,31.01C67.508,31.01 69.607,33.221 69.607,35.94L69.607,36.657C69.607,38.08 70.765,39.239 72.19,39.239L72.6,39.239C74.024,39.239 75.183,38.08 75.183,36.657L75.183,35.94C75.183,33.223 77.282,31.01 79.86,31.01C82.439,31.01 84.538,33.221 84.538,35.94L84.538,36.657C84.538,38.08 85.696,39.239 87.12,39.239L87.533,39.239C88.957,39.239 90.115,38.08 90.115,36.657L90.115,35.94C90.115,33.223 92.214,31.01 94.793,31.01C97.372,31.01 99.471,33.221 99.471,35.94L99.471,64.563C99.47,67.28 97.371,69.493 94.793,69.493"/>
   </g>
  </g>
 </g>
</svg>
