<?xml version='1.0' encoding='UTF-8' standalone='no'?>
<svg xmlns:xlink="http://www.w3.org/1999/xlink" xmlns="http://www.w3.org/2000/svg" xmlns:cc="http://creativecommons.org/ns#" xmlns:dc="http://purl.org/dc/elements/1.1/" xmlns:inkscape="http://www.inkscape.org/namespaces/inkscape" xmlns:svg="http://www.w3.org/2000/svg" version="1.2" width="50" xmlns:atv="http://webmi.atvise.com/2007/svgext" xmlns:rdf="http://www.w3.org/1999/02/22-rdf-syntax-ns#" height="50" xmlns:sodipodi="http://sodipodi.sourceforge.net/DTD/sodipodi-0.dtd">
 <defs/>
 <metadata>
  <atv:gridconfig gridstyle="lines" enabled="false" width="20" height="20"/>
  <atv:snapconfig enabled="false" width="10" height="10"/>
 </metadata>
 <g atv:refpx="14.5" id="id_1" transform="matrix(0.625,0,0,0.625,0,0)" atv:refpy="14.5">
  <g inkscape:label="Слой 1" id="layer1" atv:refpx="23.2" inkscape:groupmode="layer" transform="translate(156.10417,-51.782738)" atv:refpy="23.2">
   <g id="g267" atv:refpx="-132.904" transform="matrix(0.8,0,0,0.8,-156.10417,51.782738)" atv:refpy="74.983">
    <g id="frame" atv:refpx="50" atv:refpy="50">
     <rect x="0" y="0" fill="none" id="rect252" atv:refpx="50" width="100" atv:refpy="50" height="100"/>
    </g>
    <g id="shape" atv:refpx="29" atv:refpy="29">
     <path inkscape:connector-curvature="0" fill="#999999" id="path255" atv:refpx="29" d="M34,58L0,58L0,42L34,42C38.411,42 42,38.411 42,34L42,0L58,0L58,34C58,47.234 47.234,58 34,58" atv:refpy="29"/>
    </g>
    <g id="dark" atv:refpx="28.5" atv:refpy="28.5">
     <path inkscape:connector-curvature="0" fill="#808080" id="path258" atv:refpx="28.5" d="M34,57L0,57L0,43L34,43C38.962,43 43,38.962 43,34L43,0L57,0L57,34C57,46.682 46.682,57 34,57" atv:refpy="28.5"/>
    </g>
    <g id="light" atv:refpx="27.5" atv:refpy="27.5">
     <path inkscape:connector-curvature="0" fill="#b2b2b2" id="path261" atv:refpx="27.5" d="M34,55L0,55L0,45L34,45C40.065,45 45,40.065 45,34L45,0L55,0L55,34C55,45.58 45.58,55 34,55" atv:refpy="27.5"/>
    </g>
    <g id="hlight" atv:refpx="26.75" atv:refpy="26.75">
     <path inkscape:connector-curvature="0" fill="#cccccc" id="path264" atv:refpx="26.75" d="M34,53.5L0,53.5L0,46.5L34,46.5C40.893,46.5 46.5,40.893 46.5,34L46.5,0L53.5,0L53.5,34C53.5,44.752 44.752,53.5 34,53.5" atv:refpy="26.75"/>
    </g>
   </g>
  </g>
 </g>
</svg>
