<?xml version="1.0" encoding="utf-8"?>
<!-- Generator: Adobe Illustrator 15.0.0, SVG Export Plug-In . SVG Version: 6.00 Build 0)  -->
<!DOCTYPE svg PUBLIC "-//W3C//DTD SVG 1.1//EN" "http://www.w3.org/Graphics/SVG/1.1/DTD/svg11.dtd">
<svg version="1.1" id="Ebene_1" xmlns="http://www.w3.org/2000/svg" xmlns:xlink="http://www.w3.org/1999/xlink" x="0px" y="0px"
	 width="16px" height="16px" viewBox="0 0 16 16" enable-background="new 0 0 16 16" xml:space="preserve">
<g>
	<g>
		<path fill="#005D9F" d="M7.994,2.161c3.195,0,5.795,2.6,5.795,5.794s-2.6,5.794-5.795,5.794C4.8,13.75,2.2,11.15,2.2,7.956
			S4.8,2.161,7.994,2.161 M7.994,0.161C3.69,0.161,0.2,3.651,0.2,7.956c0,4.304,3.49,7.794,7.794,7.794
			c4.305,0,7.795-3.49,7.795-7.794C15.789,3.651,12.299,0.161,7.994,0.161L7.994,0.161z"/>
	</g>
	<path fill="none" stroke="#005D9F" stroke-width="2" stroke-miterlimit="10" d="M11.325,12.711"/>
	<path fill="none" stroke="#005D9F" stroke-width="2" stroke-linecap="round" stroke-miterlimit="10" d="M13.272,12.078
		c0.094-0.092-4.128,0.475-5.599-4.568"/>
	<polyline fill="none" stroke="#005D9F" stroke-width="2" stroke-linecap="round" stroke-miterlimit="10" points="5.348,9.723 
		7,5.755 11.177,7 	"/>
</g>
</svg>
