<svg width="30" height="30" viewBox="0 0 30 30" fill="none" xmlns="http://www.w3.org/2000/svg">
<path fill-rule="evenodd" clip-rule="evenodd" d="M21.7108 6.3235C21.9216 6.5343 22.3431 6.9559 22.7647 7.3774L26.348 5.6912C26.9804 6.5343 27.6127 7.3774 28.0343 8.4313C28.4559 9.4853 28.8774 10.75 29.0882 11.8039L25.5049 13.4902C25.5049 14.1225 25.7157 14.5441 25.5049 15.1764L29.299 16.4412C29.0882 17.4951 28.8774 18.549 28.4559 19.6029C28.0343 20.8676 27.4019 21.9215 26.7696 22.9755L22.9755 21.5C22.7647 21.9215 22.3431 22.3431 21.9216 22.7647L23.6078 26.1372C22.7647 26.7696 21.9216 27.4019 20.8676 27.8235C19.6029 28.4559 18.549 28.8774 17.2843 29.0882L15.598 25.2941C15.1765 25.5049 14.5441 25.5049 14.1225 25.2941L12.647 29.0882C11.5931 29.0882 10.5392 28.6666 9.4853 28.4559C8.4314 28.0343 7.3774 27.4019 6.3235 26.7696L7.799 22.7647C7.3774 22.5539 6.9559 22.1323 6.7451 21.7108L2.951 23.397C2.3186 22.5539 1.6863 21.7108 1.2647 20.6568C0.8431 19.6029 0.4216 18.549 0.2108 17.2843L4.0049 15.3872C4.0049 14.9657 4.0049 14.5441 4.0049 14.1225L0 12.647C0.2108 11.5931 0.4216 10.5392 0.8431 9.4853C1.2647 8.2206 1.897 7.1666 2.5294 6.3235L6.5343 7.5882C6.7451 7.3774 7.1667 6.9559 7.3774 6.7451L5.6912 2.95103C6.5343 2.31863 7.3774 1.68623 8.4314 1.26471C9.4853 0.63236 10.75 0.21079 12.0147 0L13.701 3.7941C14.1225 3.7941 14.7549 3.7941 15.1765 3.7941L16.6519 0C17.7059 0.21079 18.7598 0.42157 19.8137 0.84314C20.8676 1.26471 21.9216 1.68623 22.9755 2.31863L21.7108 6.3235ZM16.4412 10.1176C18.7598 11.1715 20.0245 13.701 19.1814 16.2304C18.3382 18.549 15.598 19.8137 13.2794 18.9706C10.75 18.1274 9.4853 15.3872 10.3284 13.0686C11.1716 10.5392 13.9118 9.2745 16.4412 10.1176Z" fill="#4D6578"/>
</svg>
