<?xml version='1.0' encoding='UTF-8' standalone='no'?>
<svg xmlns:inkscape="http://www.inkscape.org/namespaces/inkscape" width="152.15" height="79.22000000000003" sodipodi:docname="Generator.svg" xmlns:xlink="http://www.w3.org/1999/xlink" version="1.1" id="svg2560" xmlns:dc="http://purl.org/dc/elements/1.1/" inkscape:version="1.0beta1 (d07a077, 2019-11-03)" xmlns:cc="http://creativecommons.org/ns#" xmlns="http://www.w3.org/2000/svg" xmlns:rdf="http://www.w3.org/1999/02/22-rdf-syntax-ns#" xmlns:sodipodi="http://sodipodi.sourceforge.net/DTD/sodipodi-0.dtd" xmlns:atv="http://webmi.atvise.com/2007/svgext" xmlns:svg="http://www.w3.org/2000/svg">
 <defs id="defs2554"/>
 <sodipodi:namedview inkscape:document-rotation="0" inkscape:current-layer="layer1" borderopacity="1.0" inkscape:window-x="0" pagecolor="#ffffff" inkscape:document-units="mm" id="base" inkscape:cx="315.71429" inkscape:cy="244.28571" inkscape:window-y="0" inkscape:pageshadow="2" inkscape:zoom="0.35" bordercolor="#666666" showgrid="false" inkscape:pageopacity="0.0" inkscape:window-maximized="0" inkscape:window-height="910" inkscape:window-width="1284"/>
 <metadata id="metadata2557">
  <rdf:RDF>
   <cc:Work rdf:about="">
    <dc:format>image/svg+xml</dc:format>
    <dc:type rdf:resource="http://purl.org/dc/dcmitype/StillImage"/>
    <dc:title/>
   </cc:Work>
  </rdf:RDF>
  <atv:gridconfig width="20" height="20" gridstyle="lines" enabled="false"/>
  <atv:snapconfig width="10" height="10" enabled="false"/>
 </metadata>
 <g inkscape:label="Слой 1" inkscape:groupmode="layer" id="layer1" atv:refpy="39.61" atv:refpx="76.075" transform="matrix(1,0,0,1,-38.4506,-131.4727)">
  <g id="g2805" atv:refpy="171.083" atv:refpx="114.526" transform="matrix(1.7,0,0,1.7,22.300595,83.532738)">
   <g id="frame" atv:refpy="50" atv:refpx="50">
    <rect width="100" x="0" height="100" y="0" fill="none" id="rect2691" atv:refpy="50" atv:refpx="50"/>
   </g>
   <g id="shape" atv:refpy="51.475" atv:refpx="50">
    <path fill="#666666" id="path2694" d="M90.3,69.9L90.3,68.4L91.1,68.4L91.1,69.4L94.899,69.4C95.6,69.4 96.1,68.9 96.1,68.2L96.1,38.8C96.1,38.099 95.6,37.599 94.899,37.599L91.1,37.599L91.1,38.599L67.7,38.599L67.7,33.699L60.1,33.699L60.1,31.599L61.2,31.599L61.2,30.699C61.2,30.199 60.9,29.799 60.6,29.799L60.5,29.799C58.7,27.599 56.1,27.599 54.3,29.799L54.199,29.799C53.9,29.799 53.599,30.199 53.599,30.699L53.599,31.599L54.699,31.599L54.699,33.699L42.5,33.699L42.5,39L41.3,39L41.3,37.8L39.9,37.8L39.9,39L38.4,39L38.4,35.3C38.4,32.699 36.4,30.599 33.8,30.299L33.8,29.5L32,29.5L32,30.3L31.3,30.3L31.3,29.5L30,29.5L30,30.3L11.3,30.3L11.3,28.3L1,28.3L1,62.5L11.2,62.5L11.2,69.9L9.5,69.9L9.5,74.8L99,74.8L99,69.9ZM33.8,69.9L16.4,69.9L16.4,58.6L31.7,58.6L31.7,59.8L33.1,59.8L33.1,58.6L33.8,58.6ZM35.6,39L33.2,39L33.2,37.8L31.8,37.8L31.8,39L11.3,39L11.3,33L30,33L30,33.6L31.2,33.6L31.2,33L31.9,33L31.9,33.6L33.699,33.6L33.699,33C34.8,33.2 35.499,34.1 35.499,35.2L35.499,39ZM42.5,69.9L39,69.9L39,58.6L39.9,58.6L39.9,59.8L41.3,59.8L41.3,58.6L42.5,58.6ZM67.7,68.4L85.2,68.4L85.2,69.9L67.7,69.9Z" atv:refpy="51.475" inkscape:connector-curvature="0" atv:refpx="50"/>
   </g>
   <g id="light" atv:refpy="45.3" atv:refpx="6.2">
    <rect width="9.8000002" height="33.599998" x="1.3" y="28.5" fill="#B3B3B3" id="rect2697" atv:refpy="45.3" atv:refpx="6.2"/>
   </g>
   <g id="dark" atv:refpy="47.65" atv:refpx="64.25">
    <rect width="4.3000002" height="2.0999999" x="62.099998" y="43.200001" fill="#D9E021" id="rect2700" atv:refpy="44.25" atv:refpx="64.25"/>
    <polygon fill="#D9E021" id="polygon2702" atv:refpy="50.2" points="64.3,48.3 66.3,52.1 62.1,52.1 " atv:refpx="64.2"/>
   </g>
   <g id="shadow" atv:refpy="50.1" atv:refpx="54.25">
    <polygon fill="#1A1A1A" id="polygon2705" atv:refpy="71.35" points="99,71.9 99,70.8 9.5,70.8 10.5,71.9 " atv:refpx="54.25"/>
    <g id="g2713" atv:refpy="66.4" atv:refpx="82">
     <rect width="3.3" height="5.5" x="86.099998" y="64.400002" fill="#1A1A1A" id="rect2707" atv:refpy="67.15" atv:refpx="87.75"/>
     <polygon fill="#1A1A1A" id="polygon2709" atv:refpy="65.8" points="67.8,68.4 67.8,63.2 69.2,66.3 85.2,66.3 85.2,68.4 " atv:refpx="76.5"/>
     <path fill="#1A1A1A" id="path2711" d="M96,68.2L96,62.9L90.4,62.9L90.4,68.4L91.2,68.4L91.2,69.4L95,69.4C95.7,69.4 96.2,68.9 96.2,68.2Z" atv:refpy="66.15" inkscape:connector-curvature="0" atv:refpx="93.3"/>
    </g>
    <polygon fill="#1A1A1A" id="polygon2715" atv:refpy="65.9" points="43.5,67 42.5,64.8 67.7,64.8 67.7,67 " atv:refpx="55.1"/>
    <path fill="#1A1A1A" id="path2717" d="M30.3,52.7L27.9,52.7C27.6,52.7 27.3,52.4 27.3,52.1L27.3,51.5L25.2,51.5L25.2,52C25.2,52.3 24.9,52.6 24.599,52.6L22.2,52.6C21.9,52.6 21.599,52.3 21.599,52L21.599,51.4L19.7,51.4L19.7,52C19.7,52.3 19.4,52.6 19.099,52.6L16.7,52.6C16.599,52.6 16.5,52.6 16.5,52.6L16.5,53.9L30.8,53.9L30.8,52.6C30.5,52.6 30.4,52.7 30.3,52.7" atv:refpy="52.65" inkscape:connector-curvature="0" atv:refpx="23.65"/>
    <path fill="#1A1A1A" id="path2719" d="M30.8,46.3L16.5,46.3C15.8,46.3 15.3,45.8 15.3,45.099L15.3,47.8L32,47.8L32,45.099C32,45.699 31.4,46.3 30.8,46.3" atv:refpy="46.45" inkscape:connector-curvature="0" atv:refpx="23.65"/>
    <rect width="0.5" height="5.1999998" x="33.200001" y="39" fill="#1A1A1A" id="rect2721" atv:refpy="41.6" atv:refpx="33.45"/>
    <rect width="0.5" height="5.1999998" x="41.299999" y="39" fill="#1A1A1A" id="rect2723" atv:refpy="41.6" atv:refpx="41.55"/>
    <g id="g2729" atv:refpy="42.15" atv:refpx="91.1">
     <line x1="91.099998" fill="#1A1A1A" id="line2725" atv:refpy="42.15" y2="45.700001" x2="91.099998" atv:refpx="91.6" y1="38.599998"/>
     <rect width="0.30000001" height="7.0999999" x="91" y="38.599998" fill="#1A1A1A" id="rect2727" atv:refpy="42.15" atv:refpx="91.15"/>
    </g>
    <g id="g2741" atv:refpy="43.4" atv:refpx="74.4">
     <path fill="#1A1A1A" id="path2731" d="M78.5,42L70.3,42C70.1,42 70,41.9 70,41.7C70,41.5 70.1,41.4 70.3,41.4L78.5,41.4C78.7,41.4 78.8,41.5 78.8,41.7C78.8,41.9 78.7,42 78.5,42" atv:refpy="41.7" inkscape:connector-curvature="0" atv:refpx="74.4"/>
     <path fill="#1A1A1A" id="path2733" d="M78.5,42.8L70.3,42.8C70.1,42.8 70,42.699 70,42.5C70,42.3 70.1,42.2 70.3,42.2L78.5,42.2C78.7,42.2 78.8,42.3 78.8,42.5C78.8,42.7 78.7,42.8 78.5,42.8" atv:refpy="42.5" inkscape:connector-curvature="0" atv:refpx="74.4"/>
     <path fill="#1A1A1A" id="path2735" d="M78.5,43.7L70.3,43.7C70.1,43.7 70,43.6 70,43.4C70,43.2 70.1,43.1 70.3,43.1L78.5,43.1C78.7,43.1 78.8,43.2 78.8,43.4C78.8,43.6 78.7,43.7 78.5,43.7" atv:refpy="43.4" inkscape:connector-curvature="0" atv:refpx="74.4"/>
     <path fill="#1A1A1A" id="path2737" d="M78.5,44.5L70.3,44.5C70.1,44.5 70,44.4 70,44.2C70,44 70.1,43.9 70.3,43.9L78.5,43.9C78.7,43.9 78.8,44 78.8,44.2C78.8,44.4 78.7,44.5 78.5,44.5" atv:refpy="44.2" inkscape:connector-curvature="0" atv:refpx="74.4"/>
     <path fill="#1A1A1A" id="path2739" d="M78.5,45.4L70.3,45.4C70.1,45.4 70,45.3 70,45.1C70,44.9 70.1,44.8 70.3,44.8L78.5,44.8C78.7,44.8 78.8,44.9 78.8,45.1C78.8,45.3 78.7,45.4 78.5,45.4" atv:refpy="45.1" inkscape:connector-curvature="0" atv:refpx="74.4"/>
    </g>
    <g id="g2753" atv:refpy="62.85" atv:refpx="74.4">
     <path fill="#1A1A1A" id="path2743" d="M78.5,61.5L70.3,61.5C70.1,61.5 70,61.4 70,61.2C70,61 70.1,60.9 70.3,60.9L78.5,60.9C78.7,60.9 78.8,61 78.8,61.2C78.8,61.4 78.7,61.5 78.5,61.5" atv:refpy="61.2" inkscape:connector-curvature="0" atv:refpx="74.4"/>
     <path fill="#1A1A1A" id="path2745" d="M78.5,62.3L70.3,62.3C70.1,62.3 70,62.2 70,62C70,61.8 70.1,61.7 70.3,61.7L78.5,61.7C78.7,61.7 78.8,61.8 78.8,62C78.8,62.2 78.7,62.3 78.5,62.3" atv:refpy="62" inkscape:connector-curvature="0" atv:refpx="74.4"/>
     <path fill="#1A1A1A" id="path2747" d="M78.5,63.1L70.3,63.1C70.1,63.1 70,63 70,62.8C70,62.599 70.1,62.5 70.3,62.5L78.5,62.5C78.7,62.5 78.8,62.6 78.8,62.8C78.8,63 78.7,63.099 78.5,63.1" atv:refpy="62.8" inkscape:connector-curvature="0" atv:refpx="74.4"/>
     <path fill="#1A1A1A" id="path2749" d="M78.5,64L70.3,64C70.1,64 70,63.9 70,63.7C70,63.5 70.1,63.4 70.3,63.4L78.5,63.4C78.7,63.4 78.8,63.5 78.8,63.7C78.8,63.9 78.7,64 78.5,64" atv:refpy="63.7" inkscape:connector-curvature="0" atv:refpx="74.4"/>
     <path fill="#1A1A1A" id="path2751" d="M78.5,64.8L70.3,64.8C70.1,64.8 70,64.7 70,64.5C70,64.3 70.1,64.2 70.3,64.2L78.5,64.2C78.7,64.2 78.8,64.3 78.8,64.5C78.8,64.7 78.7,64.8 78.5,64.8" atv:refpy="64.5" inkscape:connector-curvature="0" atv:refpx="74.4"/>
    </g>
    <rect width="5.5" height="0.60000002" x="54.599998" y="31.6" fill="#1A1A1A" id="rect2755" atv:refpy="31.9" atv:refpx="57.35"/>
    <path fill="#1A1A1A" id="path2757" d="M33.7,32.6C34.8,32.8 35.5,33.9 35.5,35.2C35.5,34.1 34.7,33.2 33.7,33Z" atv:refpy="33.9" inkscape:connector-curvature="0" atv:refpx="34.6"/>
    <rect width="18.6" height="0.40000001" x="11.3" y="32.599998" fill="#1A1A1A" id="rect2759" atv:refpy="32.8" atv:refpx="20.6"/>
    <rect width="1.8" height="0.80000001" x="31.9" y="32.799999" fill="#1A1A1A" id="rect2761" atv:refpy="33.2" atv:refpx="32.8"/>
    <rect width="1.2" height="0.80000001" x="30" y="32.799999" fill="#1A1A1A" id="rect2763" atv:refpy="33.2" atv:refpx="30.6"/>
    <rect width="0.69999999" height="0.40000001" x="31.200001" y="32.599998" fill="#1A1A1A" id="rect2765" atv:refpy="32.8" atv:refpx="31.55"/>
    <rect width="3.3" height="14.4" x="34.700001" y="55.5" fill="#1A1A1A" id="rect2767" atv:refpy="62.7" atv:refpx="36.35"/>
    <rect width="0.69999999" height="3.9000001" x="33.200001" y="54.700001" fill="#1A1A1A" id="rect2769" atv:refpy="56.65" atv:refpx="33.55"/>
    <rect width="0.89999998" height="3.9000001" x="39" y="54.700001" fill="#1A1A1A" id="rect2771" atv:refpy="56.65" atv:refpx="39.45"/>
    <rect width="1.2" height="3.9000001" x="41.299999" y="54.700001" fill="#1A1A1A" id="rect2773" atv:refpy="56.65" atv:refpx="41.9"/>
    <rect width="3.3" height="14.4" x="12.2" y="55.5" fill="#1A1A1A" id="rect2775" atv:refpy="62.7" atv:refpx="13.85"/>
    <polygon fill="#1A1A1A" id="polygon2777" atv:refpy="56.65" points="16.4,54.7 18,56 31.7,56 31.7,58.6 16.4,58.6 " atv:refpx="24.05"/>
    <rect width="0.30000001" height="34.099998" x="11.1" y="28.299999" fill="#1A1A1A" id="rect2779" atv:refpy="45.35" atv:refpx="11.25"/>
    <polygon fill="#1A1A1A" id="polygon2781" atv:refpy="54.3" points="67.8,67.3 67.8,41.3 68.2,42.5 68.2,67.3 " atv:refpx="68"/>
   </g>
   <g id="hlight" atv:refpy="51.1" atv:refpx="54.25">
    <path fill="#FFFFFF" id="path2784" d="M28.2,30.9L13.7,30.9C13.6,30.9 13.6,30.799 13.6,30.799C13.6,30.799 13.7,30.699 13.7,30.699L28.299,30.699C28.4,30.699 28.4,30.799 28.4,30.799C28.4,30.799 28.299,30.9 28.2,30.9" atv:refpy="30.8" inkscape:connector-curvature="0" atv:refpx="21"/>
    <rect width="24.799999" height="0.30000001" x="42.700001" y="34" fill="#FFFFFF" id="rect2786" atv:refpy="34.15" atv:refpx="55.1"/>
    <path fill="#FFFFFF" id="path2788" d="M37.7,34.3C37.6,34.3 37.6,34.3 37.6,34.199C37.3,32.4 35.8,31.099 34,30.899C33.9,30.899 33.9,30.799 33.9,30.799C33.9,30.699 34,30.699 34,30.699C35.9,30.899 37.5,32.299 37.8,34.199C37.8,34.199 37.8,34.199 37.7,34.3" atv:refpy="32.5" inkscape:connector-curvature="0" atv:refpx="35.85"/>
    <path fill="#FFFFFF" id="path2790" d="M60,29.9C60,29.9 59.9,29.9 60,29.9C59.2,29 58.3,28.5 57.4,28.5C56.5,28.5 55.6,29 54.9,29.9C54.9,30 54.8,30 54.699,29.9C54.599,29.9 54.599,29.799 54.699,29.7C55.499,28.8 56.4,28.2 57.4,28.2C58.4,28.2 59.4,28.7 60.1,29.7C60.1,29.8 60.1,29.8 60,29.9C60.1,29.9 60,29.9 60,29.9" atv:refpy="29.087" inkscape:connector-curvature="0" atv:refpx="57.362"/>
    <rect width="20" height="0.80000001" x="11.7" y="39.5" fill="#FFFFFF" id="rect2792" atv:refpy="39.9" atv:refpx="21.7"/>
    <rect width="6.0999999" height="0.80000001" x="33.700001" y="39.5" fill="#FFFFFF" id="rect2794" atv:refpy="39.9" atv:refpx="36.75"/>
    <rect width="25.200001" height="0.30000001" x="42.5" y="40.900002" fill="#FFFFFF" id="rect2796" atv:refpy="41.05" atv:refpx="55.1"/>
    <rect width="23" height="0.5" x="67.800003" y="39.099998" fill="#FFFFFF" id="rect2798" atv:refpy="39.35" atv:refpx="79.3"/>
    <rect width="89.5" height="0.30000001" x="9.5" y="73.699997" fill="#FFFFFF" id="rect2800" atv:refpy="73.85" atv:refpx="54.25"/>
    <path fill="#FFFFFF" id="path2802" d="M96.1,39.3C96.1,38.8 95.6,38.3 94.899,38.3L91.3,38.3L91.3,37.8L94.899,37.8C95.6,37.8 96.1,38.3 96.1,39Z" atv:refpy="38.55" inkscape:connector-curvature="0" atv:refpx="93.7"/>
   </g>
  </g>
 </g>
</svg>
