<?xml version='1.0' encoding='UTF-8' standalone='no'?>
<svg width="40" x="0px" version="1.1" y="0px" xmlns="http://www.w3.org/2000/svg" height="40" xmlns:xlink="http://www.w3.org/1999/xlink" id="Ebene_1" enable-background="new 0 0 50 50" xml:space="preserve" xmlns:atv="http://webmi.atvise.com/2007/svgext">
 <defs/>
 <metadata>
  <atv:parameter desc="symbol color" valuetype="color" substitute="$SYMBOLCOLOR$" behavior="optional" name="symbolColor" defaultvalue="#000000"/>
 </metadata>
 <polygon points="8.656,2.535 8.656,36.553 31.336,36.553 31.336,10.094 23.776,2.535" fill="none" stroke="$SYMBOLCOLOR$" id="id_2" atv:refpx="50.013" stroke-width="1.512" atv:refpy="21.438"/>
 <polyline points="23.398,3.202 23.398,10.762 30.958,10.762" fill="$SYMBOLCOLOR$" stroke="none" id="id_3" atv:refpx="77.282" stroke-width="1.512" atv:refpy="6.986"/>
 <rect width="10.282" x="11.278" y="9.306" fill="$SYMBOLCOLOR$" height="1.099" stroke="none" id="id_4" atv:refpx="42.278" stroke-width="1.516" atv:refpy="9.856"/>
 <rect width="10.282" x="11.278" y="5.828" fill="$SYMBOLCOLOR$" height="1.099" stroke="none" id="id_6" atv:refpx="42.28" stroke-width="1.516" atv:refpy="6.378"/>
 <rect width="17.442" x="11.278" y="12.782" fill="$SYMBOLCOLOR$" height="1.099" stroke="none" id="id_7" atv:refpx="19.998" stroke-width="1.516" atv:refpy="43.84"/>
 <rect width="17.442" x="11.278" y="32.658" fill="$SYMBOLCOLOR$" height="1.099" stroke="none" id="id_8" atv:refpx="20" stroke-width="1.516" atv:refpy="103.489"/>
 <rect width="17.442" x="11.278" y="29.56" fill="$SYMBOLCOLOR$" height="1.099" stroke="none" id="id_9" atv:refpx="20" stroke-width="1.516" atv:refpy="94.188"/>
 <path fill="$SYMBOLCOLOR$" fill-rule="evenodd" stroke="none" id="id_0" atv:refpx="20.001" stroke-width="2" atv:refpy="21.492" d="M15.234,15.506L17.628,15.506L17.628,20.295L22.371,20.295L22.371,15.506L24.765,15.506L24.765,27.475L22.371,27.475L22.371,22.689L17.628,22.689L17.628,27.475L15.234,27.475Z"/>
</svg>
