<?xml version='1.0' encoding='UTF-8' standalone='no'?>
<svg xmlns:svg="http://www.w3.org/2000/svg" version="1.2" xmlns:rdf="http://www.w3.org/1999/02/22-rdf-syntax-ns#" xmlns:xlink="http://www.w3.org/1999/xlink" xmlns:dc="http://purl.org/dc/elements/1.1/" xmlns:cc="http://creativecommons.org/ns#" width="100" xmlns="http://www.w3.org/2000/svg" height="49.97" xmlns:atv="http://webmi.atvise.com/2007/svgext">
 <defs/>
 <metadata>
  <atv:gridconfig enabled="false" gridstyle="lines" width="20" height="20"/>
  <atv:snapconfig enabled="false" width="10" height="10"/>
 </metadata>
 <g id="id_2" atv:insensitive="true" atv:refpx="0" atv:refpy="0">
  <rect id="id_3" y="0" fill="#0000ff" fill-opacity="0" atv:refpx="50" atv:refpy="24.985" x="0" width="100.00" height="49.97"/>
 </g>
 <g id="id_1" atv:refpx="50" atv:refpy="24.985" transform="matrix(1,0,0,1,0,-0.0304)">
  <g id="layer1" atv:refpx="50" atv:refpy="25.015" transform="translate(-97.461161,-60.05087)">
   <g id="shape" atv:refpx="147.461" atv:refpy="85.051" transform="matrix(1.4492754,0,0,1.3333069,74.997392,18.386022)">
    <path id="path47" fill="#52a6f9" atv:refpx="50" atv:refpy="50" d="M81.5,68.75C81.041,68.75 80.582,68.645 80.158,68.434L50,53.354L19.842,68.434C18.912,68.896 17.808,68.849 16.923,68.301C16.039,67.755 15.5,66.79 15.5,65.75L15.5,34.25C15.5,33.21 16.039,32.244 16.923,31.698C17.808,31.151 18.911,31.101 19.842,31.567L50,46.646L80.158,31.567C81.088,31.101 82.192,31.15 83.077,31.698C83.962,32.244 84.5,33.21 84.5,34.25L84.5,65.75C84.5,66.79 83.962,67.755 83.077,68.302C82.596,68.6 82.049,68.75 81.5,68.75"/>
   </g>
   <g id="dark" atv:refpx="147.46" atv:refpy="85.051" transform="matrix(1.4492754,0,0,1.3333069,74.997392,18.386022)">
    <path id="path50" fill="#3185d8" atv:refpx="49.999" atv:refpy="50" d="M81.5,67.75C81.194,67.75 80.888,67.68 80.605,67.539L50,52.236L19.395,67.539C18.775,67.848 18.038,67.815 17.448,67.451C16.859,67.087 16.5,66.443 16.5,65.75L16.5,34.25C16.5,33.557 16.859,32.913 17.449,32.549C18.038,32.183 18.775,32.15 19.395,32.461L50,47.764L80.605,32.461C81.224,32.152 81.961,32.184 82.551,32.549C83.14,32.913 83.499,33.557 83.499,34.25L83.499,65.75C83.499,66.443 83.14,67.087 82.551,67.451C82.23,67.648 81.865,67.75 81.5,67.75"/>
   </g>
   <g id="light" atv:refpx="147.461" atv:refpy="85.052" transform="matrix(1.4492754,0,0,1.3333069,74.997392,18.386022)">
    <path id="path53" fill="#6db6ff" atv:refpx="34.25" atv:refpy="50" d="M18.5,66.25C18.409,66.25 18.317,66.225 18.237,66.176C18.09,66.084 18,65.923 18,65.75L18,34.25C18,34.077 18.09,33.916 18.237,33.825C18.383,33.734 18.567,33.726 18.723,33.803L50.223,49.553C50.393,49.638 50.5,49.811 50.5,50C50.5,50.189 50.393,50.362 50.224,50.447L18.723,66.197C18.653,66.232 18.577,66.25 18.5,66.25"/>
    <path id="path55" fill="#6db6ff" atv:refpx="65.75" atv:refpy="50" d="M81.5,66.25C81.424,66.25 81.347,66.232 81.276,66.197L49.775,50.447C49.607,50.362 49.5,50.189 49.5,50C49.5,49.811 49.607,49.638 49.776,49.553L81.276,33.803C81.43,33.724 81.616,33.733 81.762,33.824C81.91,33.916 82,34.077 82,34.25L82,65.75C82,65.923 81.91,66.084 81.763,66.176C81.683,66.225 81.592,66.25 81.5,66.25"/>
   </g>
   <g id="hlight" atv:refpx="147.461" atv:refpy="85.051" transform="matrix(1.4492754,0,0,1.3333069,74.997392,18.386022)">
    <polygon id="polygon58" points="19,64.941 48.882,50 19,35.059 " fill="#a5d2ff" atv:refpx="33.941" atv:refpy="50"/>
    <polygon id="polygon60" points="81,64.941 81,35.059 51.118,50 " fill="#a5d2ff" atv:refpx="66.059" atv:refpy="50"/>
   </g>
  </g>
 </g>
</svg>
