<?xml version='1.0' encoding='UTF-8' standalone='no'?>
<svg width="20" x="0px" version="1.1" y="0px" xmlns="http://www.w3.org/2000/svg" height="20" xmlns:xlink="http://www.w3.org/1999/xlink" id="Ebene_1" enable-background="new 0 0 16 16" xml:space="preserve" xmlns:atv="http://webmi.atvise.com/2007/svgext">
 <defs>
  <linearGradient id="SVGID_1_" y1="0.136603" x1="-0.290145" y2="0.639639" gradientUnits="objectBoundingBox" x2="0.792871">
   <stop offset="0" style="stop-color:#9D9D9C"/>
   <stop offset="1" style="stop-color:#3C3C3B"/>
  </linearGradient>
  <linearGradient id="SVGID_2_" y1="0.0373166" x1="0.0373956" y2="1.06773" gradientUnits="objectBoundingBox" x2="0.933879">
   <stop offset="0" style="stop-color:#9D9D9C"/>
   <stop offset="1" style="stop-color:#3C3C3B"/>
  </linearGradient>
 </defs>
 <metadata>
  <atv:parameter desc="symbol color" valuetype="color" substitute="$SYMBOLCOLOR$" behavior="optional" name="symbolColor" defaultvalue="#000000"/>
  <atv:parameter desc="symbol color 2" valuetype="color" substitute="$SYMBOLCOLOR2$" behavior="optional" name="symbolColor2" defaultvalue="#FFFFFF"/>
 </metadata>
 <g id="id_5" atv:refpx="9.915" atv:refpy="10.062">
  <path fill="$SYMBOLCOLOR$" id="id_0" atv:refpx="32.708" atv:refpy="12.444" stroke-width="1.117" d="M15.532,8.854L15.52,16.032L15.576,16.032L18.845,8.977C18.876,8.909 18.826,8.856 18.735,8.856"/>
  <path fill="$SYMBOLCOLOR$" id="id_1" atv:refpx="7.936" atv:refpy="13.064" stroke-width="1.117" d="M14.719,5.679L7.284,5.679L7.284,4.181C7.284,4.085 7.206,4.008 7.109,4.008L2.019,4.008C1.923,4.008 1.845,4.085 1.845,4.181L1.845,5.679L1.149,5.679C1.053,5.679 0.976,5.757 0.976,5.853L0.976,15.942C0.976,16.04 1.053,16.117 1.149,16.117L14.719,16.117C14.817,16.117 14.895,16.04 14.895,15.942L14.895,5.853C14.895,5.757 14.817,5.679 14.719,5.679"/>
 </g>
 <g id="id_2">
  <circle fill="$SYMBOLCOLOR2$" cx="8.064" cy="8.668" r="1.96" id="id_3" atv:refpx="9.609" atv:refpy="7.583" stroke-width="0" transform="matrix(0.9985,0,0,1,0,0)"/>
  <path fill="$SYMBOLCOLOR2$" id="id_4" atv:refpx="9.295" atv:refpy="9.996" stroke-width="0" d="M11.188,15.288L11.188,11.863C11.188,11.233 10.678,10.721 10.048,10.721L9.458,10.721C9.058,10.997 8.573,11.16 8.051,11.16C7.528,11.16 7.043,10.997 6.644,10.721L6.054,10.721C5.425,10.721 4.914,11.233 4.914,11.863L4.914,15.288Z"/>
 </g>
</svg>
