<?xml version='1.0' encoding='UTF-8' standalone='no'?>
<svg width="20" xmlns:atv="http://webmi.atvise.com/2007/svgext" xmlns:xlink="http://www.w3.org/1999/xlink" version="1.1" xmlns="http://www.w3.org/2000/svg" enable-background="new 0 0 40 40" height="20" y="0px" id="Ebene_1" x="0px" xml:space="preserve">
 <defs/>
 <metadata>
  <atv:parameter desc="symbol color" defaultvalue="#000000" name="symbolColor" substitute="$SYMBOLCOLOR$" valuetype="color" behavior="optional"/>
  <atv:gridconfig width="20" height="20" gridstyle="lines" enabled="false"/>
  <atv:snapconfig width="10" height="10" enabled="false"/>
 </metadata>
 <g atv:refpy="10" id="id_8" transform="matrix(0.7123,0,0,0.7123,2.8775,2.8775)" atv:refpx="10">
  <path stroke-width="0.424" atv:refpy="19.252" fill="$SYMBOLCOLOR$" id="id_0" d="M14.119,15.28L14.119,11.15C14.119,8.677 12.275,6.673 10,6.673C7.725,6.673 5.881,8.677 5.881,11.15L5.881,15.28L4.531,15.28L4.531,18.482L15.468,18.482L15.468,15.28ZM7.652,12.653C7.652,14.616 6.425,15.648 6.425,15.648C6.425,15.648 6.425,13.922 6.425,11.959C6.425,9.996 7.325,8.404 7.822,8.404C8.32,8.405 7.652,10.69 7.652,12.653" atv:refpx="10"/>
  <rect width="0.679" stroke-width="0.424" atv:refpy="3.156" height="3.275" y="1.518" fill="$SYMBOLCOLOR$" id="id_1" atv:refpx="19.662" x="9.661"/>
  <rect width="3.013" stroke-width="0.424" atv:refpy="11.293" height="0.738" y="10.925" fill="$SYMBOLCOLOR$" id="id_2" atv:refpx="32.445" x="15.469"/>
  <rect width="3.013" stroke-width="0.424" atv:refpy="21.48" height="0.738" y="10.556" fill="$SYMBOLCOLOR$" id="id_3" atv:refpx="3.025" x="1.518"/>
  <polygon stroke-width="0.424" atv:refpy="4.038" fill="$SYMBOLCOLOR$" id="id_4" atv:refpx="11.455" points="5.203,2.804 5.792,2.435 7.298,5.271 6.71,5.64"/>
  <polygon stroke-width="0.424" atv:refpy="4.038" fill="$SYMBOLCOLOR$" id="id_5" atv:refpx="26.285" points="14.712,2.804 14.125,2.435 12.619,5.271 13.206,5.64"/>
  <polygon stroke-width="0.424" atv:refpy="13.103" fill="$SYMBOLCOLOR$" id="id_6" atv:refpx="4" points="5.474,7.62 5.135,8.259 2.525,6.621 2.865,5.982"/>
  <polygon stroke-width="0.424" atv:refpy="7.121" fill="$SYMBOLCOLOR$" id="id_7" atv:refpx="30.727" points="14.626,7.62 14.965,8.259 17.574,6.621 17.235,5.982"/>
 </g>
</svg>
