<?xml version='1.0' encoding='UTF-8' standalone='no'?>
<svg width="60" xmlns:xlink="http://www.w3.org/1999/xlink" xmlns:atv="http://webmi.atvise.com/2007/svgext" version="1.2" xmlns="http://www.w3.org/2000/svg" height="60">
 <defs/>
 <metadata>
  <atv:parameter desc="symbol color" defaultvalue="#000000" name="symbolColor" substitute="$SYMBOLCOLOR$" valuetype="color" behavior="optional"/>
  <atv:gridconfig width="1" height="1" gridstyle="lines" enabled="true"/>
  <atv:snapconfig width="1" height="1" enabled="true"/>
 </metadata>
 <g atv:refpy="30" id="id_2" transform="matrix(1,0,0,1,0,5.0859)" atv:refpx="29.956">
  <path stroke-width="2" atv:refpy="24.916" fill="$SYMBOLCOLOR$" stroke="none" id="id_0" atv:refpx="145.779" d="M46.471,14.889L46.471,37.445C46.471,37.445 57.462,36.191 57.462,24.914C57.462,13.636 46.471,12.382 46.471,12.382C46.471,12.382 46.471,14.889 46.471,14.889"/>
  <path stroke-width="2" atv:refpy="16.938" fill="$SYMBOLCOLOR$" stroke="none" id="id_1" atv:refpx="-9.858" d="M13.497,14.889L13.497,37.445C13.497,37.445 2.507,36.191 2.507,24.914C2.507,13.636 13.497,12.382 13.497,12.382C13.497,12.382 13.497,14.889 13.497,14.889"/>
  <polygon stroke-width="0.5" atv:refpy="41.84" fill="none" stroke="$SYMBOLCOLOR$" id="id_4" atv:refpx="28.37" points="16.246,10.824 13.497,10.824 13.497,39.003 16.246,39.003"/>
  <polygon stroke-width="0.5" atv:refpy="24.916" fill="none" stroke="$SYMBOLCOLOR$" id="id_5" atv:refpx="133.416" points="46.471,10.824 43.724,10.824 43.724,39.003 46.471,39.003"/>
  <rect width="2.838" stroke-width="0.5" rx="0" atv:refpy="70.913" y="19.949" height="9.933" fill="$SYMBOLCOLOR$" stroke="none" id="id_6" x="0.646" ry="0" atv:refpx="2.065"/>
  <rect width="2.838" stroke-width="0.5" rx="0" atv:refpy="-11.979" y="19.949" height="9.933" fill="$SYMBOLCOLOR$" stroke="none" id="id_7" x="56.429" ry="0" atv:refpx="143.192"/>
  <path stroke-width="2" atv:refpy="25.122" fill="#000000" stroke="none" id="id_17" atv:refpx="39.406" d="M29.954,37.654L16.285,37.654L16.285,12.591L29.954,12.591L29.954,17.942L25.184,17.942L25.184,20.78L29.954,20.78Z" fill-rule="evenodd"/>
  <path stroke-width="2" atv:refpy="25.122" fill="#000000" stroke="none" id="id_18" atv:refpx="59.673" d="M43.763,12.591L43.763,37.654L25.194,37.654L25.194,20.782L35.117,20.782L35.117,17.943L25.194,17.943L25.194,12.591Z" fill-rule="evenodd"/>
 </g>
</svg>
