<svg width="20" xmlns="http://www.w3.org/2000/svg" height="15" xmlns:atv="http://webmi.atvise.com/2007/svgext" xmlns:xlink="http://www.w3.org/1999/xlink">
 <defs/>
 <metadata>
  <atv:parameter defaultvalue="#000000" valuetype="color" name="symbolColor" desc="symbol color" substitute="$SYMBOLCOLOR$" behavior="optional"/>
  <atv:gridconfig width="20" enabled="false" height="20" gridstyle="lines"/>
  <atv:snapconfig width="10" enabled="false" height="10"/>
 </metadata>
 <path id="id_0" atv:refpy="7.5" fill="$SYMBOLCOLOR$" atv:refpx="10" d="M19.531,13.125C19.789,13.125 20,13.335 20,13.593L20,14.531C20,14.789 19.789,15 19.531,15L0.468,15C0.21,15 0,14.789 0,14.531L0,0.468C0,0.21 0.21,0 0.468,0L1.406,0C1.664,0 1.875,0.21 1.875,0.468L1.875,13.125ZM5.625,10.781L5.625,7.968C5.625,7.71 5.414,7.5 5.156,7.5L4.218,7.5C3.96,7.5 3.75,7.71 3.75,7.968L3.75,10.781C3.75,11.039 3.96,11.25 4.218,11.25L5.156,11.25C5.414,11.25 5.625,11.039 5.625,10.781M9.375,10.781L9.375,2.968C9.375,2.71 9.164,2.5 8.906,2.5L7.968,2.5C7.71,2.5 7.5,2.71 7.5,2.968L7.5,10.781C7.5,11.039 7.71,11.25 7.968,11.25L8.906,11.25C9.164,11.25 9.375,11.039 9.375,10.781M13.125,10.781L13.125,5.468C13.125,5.21 12.914,5 12.656,5L11.718,5C11.46,5 11.25,5.21 11.25,5.468L11.25,10.781C11.25,11.039 11.46,11.25 11.718,11.25L12.656,11.25C12.914,11.25 13.125,11.039 13.125,10.781M16.875,10.781L16.875,1.718C16.875,1.46 16.664,1.25 16.406,1.25L15.468,1.25C15.21,1.25 15,1.46 15,1.718L15,10.781C15,11.039 15.21,11.25 15.468,11.25L16.406,11.25C16.664,11.25 16.875,11.039 16.875,10.781"/>
</svg>
