<?xml version='1.0' encoding='UTF-8' standalone='no'?>
<svg xmlns:svg="http://www.w3.org/2000/svg" version="1.2" xmlns:rdf="http://www.w3.org/1999/02/22-rdf-syntax-ns#" xmlns:xlink="http://www.w3.org/1999/xlink" xmlns:dc="http://purl.org/dc/elements/1.1/" xmlns:cc="http://creativecommons.org/ns#" width="52" xmlns="http://www.w3.org/2000/svg" height="16" xmlns:atv="http://webmi.atvise.com/2007/svgext">
 <defs/>
 <metadata>
  <atv:gridconfig enabled="false" gridstyle="lines" width="20" height="20"/>
  <atv:snapconfig enabled="false" width="10" height="10"/>
 </metadata>
 <g id="id_2" atv:insensitive="true" atv:refpx="0" atv:refpy="0">
  <rect id="id_3" y="0" fill="#0000ff" fill-opacity="0" atv:refpx="26" atv:refpy="8" x="0" width="52.00" height="16.00"/>
 </g>
 <g id="id_1" atv:refpx="26" atv:refpy="8">
  <g id="layer1" atv:refpx="26" atv:refpy="8" transform="translate(-10.205357,-65.314286)">
   <g id="shape" atv:refpx="36.205" atv:refpy="73.314" transform="matrix(0.52,0,0,0.5,10.205357,48.314286)">
    <rect id="rect47" y="34" fill="#c78163" atv:refpx="4" atv:refpy="50" x="0" width="8" height="32"/>
    <polygon id="polygon49" points="0,61.314 0,38.687 100,46 100,54 " fill="#c78163" atv:refpx="50" atv:refpy="50.001"/>
    <rect id="rect51" y="40" fill="#c78163" atv:refpx="96" atv:refpy="50" x="92" width="8" height="20"/>
   </g>
   <g id="dark" atv:refpx="36.205" atv:refpy="73.315" transform="matrix(0.52,0,0,0.5,10.205357,48.314286)">
    <polygon id="polygon54" points="0,59.9 0,40.101 100,46.5 100,53.5 " fill="#947365" atv:refpx="50" atv:refpy="50.001"/>
   </g>
   <g id="light" atv:refpx="36.205" atv:refpy="73.314" transform="matrix(0.52,0,0,0.5,10.205357,48.314286)">
    <polygon id="polygon57" points="0,57.07 0,42.929 100,47.5 100,52.5 " fill="#de9c5f" atv:refpx="50" atv:refpy="49.999"/>
   </g>
   <g id="hlight" atv:refpx="36.205" atv:refpy="73.314" transform="matrix(0.52,0,0,0.5,10.205357,48.314286)">
    <polygon id="polygon60" points="100,51.75 100,48.25 0,45.05 0,54.949 " fill="#fbbc5a" atv:refpx="50" atv:refpy="49.999"/>
   </g>
  </g>
 </g>
</svg>
