<?xml version='1.0' encoding='UTF-8' standalone='no'?>
<svg xmlns="http://www.w3.org/2000/svg" xmlns:inkscape="http://www.inkscape.org/namespaces/inkscape" xmlns:atv="http://webmi.atvise.com/2007/svgext" xmlns:svg="http://www.w3.org/2000/svg" height="59.85" xmlns:cc="http://creativecommons.org/ns#" xmlns:rdf="http://www.w3.org/1999/02/22-rdf-syntax-ns#" xmlns:dc="http://purl.org/dc/elements/1.1/" inkscape:version="1.0beta1 (d07a077, 2019-11-03)" xmlns:sodipodi="http://sodipodi.sourceforge.net/DTD/sodipodi-0.dtd" xmlns:xlink="http://www.w3.org/1999/xlink" version="1.1" width="85" sodipodi:docname="Pump_stright_brown.svg" id="svg8">
 <defs id="defs2"/>
 <sodipodi:namedview inkscape:zoom="0.35" id="base" inkscape:window-y="23" inkscape:cy="560" inkscape:cx="400" inkscape:pageshadow="2" inkscape:window-maximized="0" inkscape:pageopacity="0.0" showgrid="false" bordercolor="#666666" pagecolor="#ffffff" inkscape:window-height="951" inkscape:document-units="mm" inkscape:document-rotation="0" borderopacity="1.0" inkscape:current-layer="layer1" inkscape:window-width="1644" inkscape:window-x="182"/>
 <metadata id="metadata5">
  <rdf:RDF>
   <cc:Work rdf:about="">
    <dc:format>image/svg+xml</dc:format>
    <dc:type rdf:resource="http://purl.org/dc/dcmitype/StillImage"/>
    <dc:title/>
   </cc:Work>
  </rdf:RDF>
  <atv:gridconfig height="20" enabled="false" gridstyle="lines" width="20"/>
  <atv:snapconfig height="10" enabled="false" width="10"/>
 </metadata>
 <g inkscape:groupmode="layer" atv:refpy="29.927" atv:refpx="42.5" transform="matrix(1,0,0,1,148.5446,-65.1119)" id="layer1" inkscape:label="Слой 1">
  <g atv:refpy="95.039" atv:refpx="-106.045" transform="matrix(0.85,0,0,0.85,-148.54464,52.538691)" id="g329">
   <g atv:refpy="50" atv:refpx="50" id="frame">
    <rect height="100" y="0" x="0" atv:refpy="50" atv:refpx="50" fill="none" width="100" id="rect261"/>
   </g>
   <g atv:refpy="50" atv:refpx="50" id="shape">
    <circle cx="50.042" atv:refpy="50" atv:refpx="50.042" fill="#c78163" cy="50" r="35.208" id="circle264"/>
    <path inkscape:connector-curvature="0" d="M50,57.667L0,57.667L0,41.667L50,41.667C54.418,41.667 58,45.249 58,49.667C58,54.085 54.418,57.667 50,57.667" atv:refpy="49.667" atv:refpx="29" fill="#c78163" id="path266"/>
    <path inkscape:connector-curvature="0" d="M8,60.667L0,60.667L0,38.667L8,38.667" atv:refpy="49.667" atv:refpx="4" fill="#c78163" id="path268"/>
    <rect height="22" y="39" x="92" atv:refpy="50" atv:refpx="96" fill="#c78163" width="8" id="rect270"/>
    <path inkscape:connector-curvature="0" d="M84.326,42C84.923,44.571 85.25,47.247 85.25,50C85.25,52.753 84.924,55.429 84.326,58L100,58L100,42Z" atv:refpy="50" atv:refpx="92.163" fill="#c78163" id="path272"/>
   </g>
   <g atv:refpy="50" atv:refpx="50" id="dark">
    <path inkscape:connector-curvature="0" d="M50.042,15.875C34.071,15.875 20.666,26.849 16.946,41.667L50,41.667C54.418,41.667 58,45.249 58,49.667C58,54.085 54.418,57.667 50,57.667L16.792,57.667C20.272,72.82 33.832,84.125 50.042,84.125C68.889,84.125 84.167,68.847 84.167,50C84.167,31.153 68.888,15.875 50.042,15.875" atv:refpy="50" atv:refpx="50.48" fill="#947365" id="path275"/>
    <path inkscape:connector-curvature="0" d="M50,56.667C53.866,56.667 57,53.533 57,49.667C57,45.801 53.866,42.667 50,42.667L0,42.667L0,56.667Z" atv:refpy="49.667" atv:refpx="28.5" fill="#947365" id="path277"/>
    <path inkscape:connector-curvature="0" d="M84.552,43C85.008,45.263 85.25,47.603 85.25,50C85.25,52.397 85.008,54.737 84.552,57L100,57L100,43Z" atv:refpy="50" atv:refpx="92.276" fill="#947365" id="path279"/>
   </g>
   <g atv:refpy="49.834" atv:refpx="50" id="light">
    <path inkscape:connector-curvature="0" d="M84.89,45C85.122,46.634 85.25,48.302 85.25,50C85.25,51.698 85.123,53.366 84.89,55L100,55L100,45Z" atv:refpy="50" atv:refpx="92.445" fill="#de9c5f" id="path282"/>
    <g atv:refpy="49.667" atv:refpx="27.5" id="g286">
     <path inkscape:connector-curvature="0" d="M50,44.667L0,44.667L0,54.667L50,54.667C52.761,54.667 55,52.428 55,49.667C55,46.905 52.761,44.667 50,44.667" atv:refpy="49.667" atv:refpx="27.5" fill="#de9c5f" id="path284"/>
    </g>
   </g>
   <g atv:refpy="49.834" atv:refpx="50" id="hlight">
    <path inkscape:connector-curvature="0" d="M50,53.167L0,53.167L0,46.167L50,46.167C51.933,46.167 53.5,47.734 53.5,49.667C53.5,51.6 51.933,53.167 50,53.167" atv:refpy="49.667" atv:refpx="26.75" fill="#fbbc5a" id="path289"/>
    <path inkscape:connector-curvature="0" d="M85.076,46.5C85.19,47.651 85.25,48.819 85.25,50C85.25,51.181 85.189,52.349 85.076,53.5L100,53.5L100,46.5Z" atv:refpy="50" atv:refpx="92.538" fill="#fbbc5a" id="path291"/>
   </g>
   <g atv:refpy="50.03" atv:refpx="52.007" id="shadow">
    <path inkscape:connector-curvature="0" d="M50.042,21.292C37.11,21.292 26.151,29.889 22.572,41.667L23.617,41.667C27.163,30.448 37.667,22.292 50.042,22.292C65.32,22.292 77.75,34.722 77.75,50C77.75,65.278 65.319,77.708 50.042,77.708C37.423,77.708 26.756,69.226 23.421,57.667L22.381,57.667C25.744,69.785 36.867,78.708 50.041,78.708C65.871,78.708 78.75,65.83 78.75,50C78.75,34.17 65.871,21.292 50.042,21.292" atv:refpy="50" atv:refpx="50.566" fill="#000000" id="path294"/>
    <path inkscape:connector-curvature="0" d="M50.042,35.792C45.322,35.792 41.144,38.115 38.559,41.667L39.806,41.667C42.23,38.695 45.916,36.792 50.042,36.792C57.325,36.792 63.25,42.717 63.25,50C63.25,57.283 57.324,63.208 50.042,63.208C45.619,63.208 41.706,61.015 39.308,57.667L38.099,57.667C40.629,61.595 45.032,64.208 50.041,64.208C57.875,64.208 64.25,57.833 64.25,50C64.25,42.166 57.876,35.792 50.042,35.792" atv:refpy="50" atv:refpx="51.174" fill="#000000" id="path296"/>
    <polygon atv:refpy="18.155" atv:refpx="50" points="49.037,16.488 50.963,16.488 51.926,18.155 50.963,19.823 49.037,19.823 48.074,18.155 " fill="#000000" id="polygon298"/>
    <polygon atv:refpy="39.156" atv:refpx="50" points="49.037,37.488 50.963,37.488 51.926,39.155 50.963,40.823 49.037,40.823 48.074,39.155 " fill="#000000" id="polygon300"/>
    <polygon atv:refpy="60.656" atv:refpx="50" points="49.037,58.988 50.963,58.988 51.926,60.655 50.963,62.323 49.037,62.323 48.074,60.655 " fill="#000000" id="polygon302"/>
    <polygon atv:refpy="55.281" atv:refpx="59.309" points="57.384,55.28 58.347,53.613 60.273,53.613 61.235,55.28 60.273,56.948 58.347,56.948 " fill="#000000" id="polygon304"/>
    <polygon atv:refpy="44.531" atv:refpx="59.309" points="58.347,46.198 57.384,44.53 58.347,42.863 60.273,42.863 61.235,44.53 60.273,46.198 " fill="#000000" id="polygon306"/>
    <polygon atv:refpy="81.905" atv:refpx="50" points="49.037,80.238 50.963,80.238 51.926,81.905 50.963,83.573 49.037,83.573 48.074,81.905 " fill="#000000" id="polygon308"/>
    <polygon atv:refpy="22.425" atv:refpx="34.063" points="32.395,21.463 34.063,20.5 35.73,21.463 35.73,23.389 34.063,24.351 32.395,23.389 " fill="#000000" id="polygon310"/>
    <polygon atv:refpy="77.635" atv:refpx="65.938" points="64.27,76.672 65.938,75.709 67.605,76.672 67.605,78.598 65.938,79.56 64.27,78.598 " fill="#000000" id="polygon312"/>
    <polygon atv:refpy="34.093" atv:refpx="22.395" points="20.47,34.093 21.433,32.425 23.358,32.425 24.321,34.093 23.358,35.76 21.433,35.76 " fill="#000000" id="polygon314"/>
    <polygon atv:refpy="65.968" atv:refpx="77.605" points="75.679,65.968 76.642,64.3 78.567,64.3 79.53,65.968 78.567,67.635 76.642,67.635 " fill="#000000" id="polygon316"/>
    <polygon atv:refpy="50.031" atv:refpx="81.875" points="80.207,50.993 80.207,49.067 81.875,48.105 83.543,49.067 83.543,50.993 81.875,51.956 " fill="#000000" id="polygon318"/>
    <polygon atv:refpy="65.968" atv:refpx="22.395" points="21.433,67.635 20.47,65.968 21.433,64.3 23.358,64.3 24.321,65.968 23.358,67.635 " fill="#000000" id="polygon320"/>
    <polygon atv:refpy="34.093" atv:refpx="77.605" points="76.642,35.76 75.679,34.093 76.642,32.425 78.567,32.425 79.53,34.093 78.567,35.76 " fill="#000000" id="polygon322"/>
    <polygon atv:refpy="77.635" atv:refpx="34.063" points="34.063,79.56 32.395,78.598 32.395,76.672 34.063,75.709 35.73,76.672 35.73,78.598 " fill="#000000" id="polygon324"/>
    <polygon atv:refpy="22.425" atv:refpx="65.938" points="65.938,24.351 64.27,23.389 64.27,21.463 65.938,20.5 67.605,21.463 67.605,23.389 " fill="#000000" id="polygon326"/>
   </g>
  </g>
 </g>
</svg>
