<?xml version='1.0' encoding='UTF-8' standalone='no'?>
<svg width="40" version="1.2" xmlns="http://www.w3.org/2000/svg" height="102" xmlns:xlink="http://www.w3.org/1999/xlink" xmlns:atv="http://webmi.atvise.com/2007/svgext">
 <title>Bar scale - 20</title>
 <defs/>
 <desc>Bar scale with 20 units.</desc>
 <metadata>
  <atv:parameter desc="scale color" valuetype="color" substitute="$SCALECOLOR$" behavior="optional" name="scaleColor" defaultvalue="#ffffff"/>
  <atv:gridconfig width="2" enabled="true" height="2" gridstyle="lines"/>
  <atv:snapconfig width="1" enabled="true" height="1"/>
 </metadata>
 <rect width="8.25" x="2.75" y="60" fill="$SCALECOLOR$" height="2" stroke="none" id="id_1" atv:refpx="6.875" stroke-width="1" atv:refpy="179.8"/>
 <rect width="8.25" x="2.75" y="30" fill="$SCALECOLOR$" height="2" stroke="none" id="id_4" atv:refpx="15.525" stroke-width="2" atv:refpy="-159"/>
 <rect width="8.25" x="2.75" y="80" fill="$SCALECOLOR$" height="2" stroke="none" id="id_5" atv:refpx="-24.887" stroke-width="1" atv:refpy="-10.6"/>
 <rect width="8.25" x="2.75" y="10" fill="$SCALECOLOR$" height="2" stroke="none" id="id_7" atv:refpx="-10.256" stroke-width="2" atv:refpy="-433"/>
 <rect width="8.25" x="2.75" y="70" fill="$SCALECOLOR$" height="2" stroke="none" id="id_8" atv:refpx="-50.462" stroke-width="1" atv:refpy="-318.4"/>
 <rect width="8.25" x="2.75" y="90" fill="$SCALECOLOR$" height="2" stroke="none" id="id_9" atv:refpx="-59.125" stroke-width="1" atv:refpy="-396.8"/>
 <rect width="8.25" x="2.75" y="20" fill="$SCALECOLOR$" height="2" stroke="none" id="id_10" atv:refpx="-16.65" stroke-width="2" atv:refpy="-453"/>
 <rect width="8.25" x="2.75" y="40" fill="$SCALECOLOR$" height="2" stroke="none" id="id_11" atv:refpx="-50.875" stroke-width="2" atv:refpy="-391.8"/>
 <rect width="11" x="0" y="100" fill="$SCALECOLOR$" height="2" stroke="none" id="id_2" atv:refpx="-5.775" stroke-width="2" atv:refpy="57"/>
 <rect width="11" x="0" y="0" fill="$SCALECOLOR$" height="2" stroke="none" id="id_3" atv:refpx="17.45" stroke-width="2" atv:refpy="-163"/>
 <rect width="11" x="0" y="50" fill="$SCALECOLOR$" height="2" stroke="none" id="id_6" atv:refpx="-47.85" stroke-width="2" atv:refpy="-266"/>
 <rect width="5" x="6" y="65" fill="$SCALECOLOR$" height="2" stroke="none" id="id_13" atv:refpx="8.5" stroke-width="1" atv:refpy="194.7"/>
 <rect width="5" x="6" y="5" fill="$SCALECOLOR$" height="2" stroke="none" id="id_14" atv:refpx="28.5" stroke-width="2" atv:refpy="-344"/>
 <rect width="5" x="6" y="35" fill="$SCALECOLOR$" height="2" stroke="none" id="id_15" atv:refpx="29.5" stroke-width="2" atv:refpy="-154"/>
 <rect width="5" x="6" y="85" fill="$SCALECOLOR$" height="2" stroke="none" id="id_16" atv:refpx="-10.75" stroke-width="1" atv:refpy="4.3"/>
 <rect width="5" x="6" y="55" fill="$SCALECOLOR$" height="2" stroke="none" id="id_28" atv:refpx="-15.75" stroke-width="1" atv:refpy="-201.1"/>
 <rect width="5" x="6" y="15" fill="$SCALECOLOR$" height="2" stroke="none" id="id_29" atv:refpx="13.875" stroke-width="2" atv:refpy="-428"/>
 <rect width="5" x="6" y="75" fill="$SCALECOLOR$" height="2" stroke="none" id="id_30" atv:refpx="-26.25" stroke-width="1" atv:refpy="-303.5"/>
 <rect width="5" x="6" y="95" fill="$SCALECOLOR$" height="2" stroke="none" id="id_31" atv:refpx="-31.5" stroke-width="1" atv:refpy="-381.9"/>
 <rect width="5" x="6" y="25" fill="$SCALECOLOR$" height="2" stroke="none" id="id_32" atv:refpx="10" stroke-width="2" atv:refpy="-448"/>
 <rect width="5" x="6" y="45" fill="$SCALECOLOR$" height="2" stroke="none" id="id_33" atv:refpx="-26.5" stroke-width="2" atv:refpy="-376.9"/>
 <rect width="8.25" x="29" y="60" fill="$SCALECOLOR$" height="2" stroke="none" id="id_21" atv:refpx="33.125" stroke-width="1" atv:refpy="179.8"/>
 <rect width="8.25" x="29" y="30" fill="$SCALECOLOR$" height="2" stroke="none" id="id_22" atv:refpx="41.775" stroke-width="2" atv:refpy="-159"/>
 <rect width="8.25" x="29" y="80" fill="$SCALECOLOR$" height="2" stroke="none" id="id_23" atv:refpx="1.363" stroke-width="1" atv:refpy="-10.6"/>
 <rect width="8.25" x="29" y="10" fill="$SCALECOLOR$" height="2" stroke="none" id="id_24" atv:refpx="15.994" stroke-width="2" atv:refpy="-433"/>
 <rect width="8.25" x="29" y="70" fill="$SCALECOLOR$" height="2" stroke="none" id="id_25" atv:refpx="-24.212" stroke-width="1" atv:refpy="-318.4"/>
 <rect width="8.25" x="29" y="90" fill="$SCALECOLOR$" height="2" stroke="none" id="id_26" atv:refpx="-32.875" stroke-width="1" atv:refpy="-396.8"/>
 <rect width="8.25" x="29" y="20" fill="$SCALECOLOR$" height="2" stroke="none" id="id_27" atv:refpx="9.6" stroke-width="2" atv:refpy="-453"/>
 <rect width="8.25" x="29" y="40" fill="$SCALECOLOR$" height="2" stroke="none" id="id_34" atv:refpx="-24.625" stroke-width="2" atv:refpy="-391.8"/>
 <rect width="11" x="29" y="100" fill="$SCALECOLOR$" height="2" stroke="none" id="id_35" atv:refpx="23.225" stroke-width="2" atv:refpy="57"/>
 <rect width="11" x="29" y="0" fill="$SCALECOLOR$" height="2" stroke="none" id="id_36" atv:refpx="46.45" stroke-width="2" atv:refpy="-163"/>
 <rect width="11" x="29" y="50" fill="$SCALECOLOR$" height="2" stroke="none" id="id_37" atv:refpx="-18.85" stroke-width="2" atv:refpy="-266"/>
 <rect width="5" x="29" y="65" fill="$SCALECOLOR$" height="2" stroke="none" id="id_38" atv:refpx="31.5" stroke-width="1" atv:refpy="194.7"/>
 <rect width="5" x="29" y="5" fill="$SCALECOLOR$" height="2" stroke="none" id="id_39" atv:refpx="51.5" stroke-width="2" atv:refpy="-344"/>
 <rect width="5" x="29" y="35" fill="$SCALECOLOR$" height="2" stroke="none" id="id_40" atv:refpx="52.5" stroke-width="2" atv:refpy="-154"/>
 <rect width="5" x="29" y="85" fill="$SCALECOLOR$" height="2" stroke="none" id="id_41" atv:refpx="12.25" stroke-width="1" atv:refpy="4.3"/>
 <rect width="5" x="29" y="55" fill="$SCALECOLOR$" height="2" stroke="none" id="id_42" atv:refpx="7.25" stroke-width="1" atv:refpy="-201.1"/>
 <rect width="5" x="29" y="15" fill="$SCALECOLOR$" height="2" stroke="none" id="id_43" atv:refpx="36.875" stroke-width="2" atv:refpy="-428"/>
 <rect width="5" x="29" y="75" fill="$SCALECOLOR$" height="2" stroke="none" id="id_44" atv:refpx="-3.25" stroke-width="1" atv:refpy="-303.5"/>
 <rect width="5" x="29" y="95" fill="$SCALECOLOR$" height="2" stroke="none" id="id_45" atv:refpx="-8.5" stroke-width="1" atv:refpy="-381.9"/>
 <rect width="5" x="29" y="25" fill="$SCALECOLOR$" height="2" stroke="none" id="id_46" atv:refpx="33" stroke-width="2" atv:refpy="-448"/>
 <rect width="5" x="29" y="45" fill="$SCALECOLOR$" height="2" stroke="none" id="id_47" atv:refpx="-3.5" stroke-width="2" atv:refpy="-376.9"/>
</svg>
