<?xml version='1.0' encoding='UTF-8' standalone='no'?>
<svg xmlns:svg="http://www.w3.org/2000/svg" inkscape:version="1.0beta1 (d07a077, 2019-11-03)" sodipodi:docname="Fan_topview_blue.svg" id="svg5337" xmlns="http://www.w3.org/2000/svg" xmlns:rdf="http://www.w3.org/1999/02/22-rdf-syntax-ns#" xmlns:inkscape="http://www.inkscape.org/namespaces/inkscape" height="132.23418" xmlns:atv="http://webmi.atvise.com/2007/svgext" width="132.23392" xmlns:sodipodi="http://sodipodi.sourceforge.net/DTD/sodipodi-0.dtd" version="1.1" xmlns:cc="http://creativecommons.org/ns#" xmlns:xlink="http://www.w3.org/1999/xlink" xmlns:dc="http://purl.org/dc/elements/1.1/">
 <defs id="defs5331"/>
 <sodipodi:namedview bordercolor="#666666" inkscape:window-x="234" inkscape:document-rotation="0" inkscape:pageopacity="0.0" borderopacity="1.0" inkscape:document-units="mm" inkscape:zoom="0.35" pagecolor="#ffffff" inkscape:cx="634.17657" inkscape:current-layer="layer1" inkscape:cy="314.17707" id="base" inkscape:pageshadow="2" showgrid="false" inkscape:window-height="951" inkscape:window-maximized="0" inkscape:window-width="1644" inkscape:window-y="23"/>
 <metadata id="metadata5334">
  <rdf:RDF>
   <cc:Work rdf:about="">
    <dc:format>image/svg+xml</dc:format>
    <dc:type rdf:resource="http://purl.org/dc/dcmitype/StillImage"/>
    <dc:title/>
   </cc:Work>
  </rdf:RDF>
  <atv:gridconfig height="20" enabled="false" width="20" gridstyle="lines"/>
  <atv:snapconfig height="10" enabled="false" width="10"/>
 </metadata>
 <g atv:refpx="66.117" inkscape:groupmode="layer" atv:refpy="66.117" id="layer1" transform="translate(61.959218,-65.040651)" inkscape:label="Слой 1">
  <g atv:refpx="4.158" atv:refpy="131.158" id="g5418" transform="matrix(1.5466678,0,0,1.5466528,-73.175653,53.813498)">
   <g atv:refpx="50.197" atv:refpy="51.181" id="shadow">
    <path atv:refpx="61.697" atv:refpy="32.68" id="path5402" d="M52.251,48.75C52.251,48.75 61.251,38.25 71.751,39.25C82.251,40.25 83.49,22.581 57.251,16.75C52.751,15.75 40.251,19.75 46.251,41.75" inkscape:connector-curvature="0" fill="#005287"/>
    <path atv:refpx="38.696" atv:refpy="69.681" id="path5404" d="M48.142,53.611C48.142,53.611 39.142,64.11 28.642,63.111C18.142,62.111 16.903,79.78 43.142,85.61C47.642,86.61 60.142,82.61 54.142,60.61" inkscape:connector-curvature="0" fill="#005287"/>
    <path atv:refpx="31.696" atv:refpy="39.68" id="path5406" d="M47.766,49.126C47.766,49.126 37.266,40.126 38.266,29.625C39.266,19.125 21.596,17.886 15.765,44.126C14.765,48.626 18.766,61.126 40.766,55.126" inkscape:connector-curvature="0" fill="#005287"/>
    <path atv:refpx="68.697" atv:refpy="62.681" id="path5408" d="M52.627,53.235C52.627,53.235 63.127,62.235 62.127,72.735C61.127,83.235 78.796,84.474 84.627,58.235C85.627,53.735 81.627,41.235 59.627,47.235" inkscape:connector-curvature="0" fill="#005287"/>
    <circle atv:refpx="50" atv:refpy="50.008" id="circle5410" r="8.2480001" cy="50.007999" cx="50" fill="#005287"/>
   </g>
   <g atv:refpx="50" atv:refpy="50.008" id="light">
    <path atv:refpx="50.001" atv:refpy="50.007" id="path5413" d="M91.248,48.508L87.71,48.508C87.207,35.723 80.318,24.557 70.148,18.11L71.923,15.036L69.325,13.536L67.553,16.605C62.306,13.835 56.335,12.259 50,12.259C43.665,12.259 37.694,13.835 32.445,16.604L30.674,13.535L28.076,15.035L29.851,18.109C19.681,24.556 12.792,35.721 12.289,48.507L8.752,48.507L8.752,51.507L12.29,51.507C12.793,64.292 19.682,75.458 29.852,81.904L28.077,84.978L30.675,86.478L32.447,83.408C37.694,86.179 43.665,87.755 50,87.755C56.335,87.755 62.306,86.179 67.554,83.41L69.326,86.479L71.924,84.979L70.149,81.905C80.319,75.459 87.208,64.294 87.711,51.509L91.249,51.509L91.249,48.508ZM86.71,48.508L79.377,48.508C78.887,38.8 73.664,30.324 65.979,25.331L69.648,18.977C79.518,25.249 86.208,36.092 86.71,48.508M50,53.007L54.525,60.846C53.132,61.43 51.602,61.754 50,61.754C48.396,61.754 46.868,61.429 45.474,60.846ZM42.884,59.333C40.451,57.472 38.767,54.69 38.359,51.507L47.402,51.507ZM52.598,51.507L61.641,51.507C61.233,54.69 59.548,57.473 57.116,59.333ZM52.598,48.507L57.116,40.681C59.549,42.542 61.233,45.324 61.641,48.507ZM50,47.008L45.474,39.169C46.868,38.585 48.397,38.26 50,38.26C51.604,38.26 53.132,38.585 54.525,39.169ZM47.402,48.508L38.358,48.508C38.766,45.325 40.451,42.543 42.883,40.682ZM37.348,48.508L29.994,48.508C30.46,42.249 33.79,36.778 38.694,33.425L42.381,39.811C39.653,41.854 37.767,44.955 37.348,48.508M37.348,51.508C37.766,55.06 39.653,58.161 42.381,60.205L38.694,66.591C33.791,63.236 30.46,57.766 29.994,51.507ZM44.971,61.718C46.514,62.384 48.214,62.756 50,62.756C51.786,62.756 53.485,62.384 55.029,61.718L58.7,68.078C56.063,69.353 53.119,70.089 49.999,70.089C46.879,70.089 43.935,69.353 41.298,68.078ZM57.619,60.204C60.347,58.16 62.233,55.06 62.652,51.507L70.006,51.507C69.54,57.765 66.21,63.236 61.306,66.59ZM62.652,48.508C62.233,44.956 60.347,41.855 57.619,39.811L61.306,33.425C66.21,36.779 69.539,42.249 70.006,48.508ZM55.029,38.297C53.485,37.631 51.785,37.259 50,37.259C48.215,37.259 46.515,37.631 44.971,38.297L41.299,31.936C43.936,30.662 46.88,29.926 50,29.926C53.12,29.926 56.064,30.662 58.701,31.936ZM50,28.926C46.698,28.926 43.583,29.711 40.798,31.07L37.117,24.694C40.987,22.715 45.364,21.593 50,21.593C54.636,21.593 59.013,22.716 62.882,24.694L59.202,31.07C56.417,29.711 53.302,28.926 50,28.926M38.191,32.554C32.99,36.084 29.464,41.88 28.994,48.508L21.625,48.508C22.113,39.169 27.135,31.016 34.521,26.197ZM28.994,51.508C29.464,58.136 32.99,63.931 38.191,67.461L34.521,73.818C27.135,69 22.113,60.846 21.625,51.508ZM40.798,68.945C43.583,70.304 46.698,71.089 50,71.089C53.302,71.089 56.417,70.305 59.202,68.946L62.882,75.322C59.013,77.3 54.636,78.423 50,78.423C45.364,78.423 40.987,77.3 37.117,75.322ZM61.809,67.461C67.009,63.931 70.536,58.135 71.006,51.507L78.375,51.507C77.887,60.846 72.865,68.999 65.479,73.817ZM71.006,48.508C70.536,41.88 67.01,36.084 61.809,32.554L65.479,26.197C72.866,31.015 77.887,39.169 78.375,48.508ZM50,13.259C56.153,13.259 61.953,14.787 67.053,17.471L63.382,23.827C59.365,21.765 54.818,20.593 50,20.593C45.182,20.593 40.635,21.765 36.617,23.827L32.947,17.47C38.047,14.786 43.847,13.258 50,13.259M30.352,18.976L34.021,25.33C26.336,30.323 21.113,38.799 20.623,48.507L13.29,48.507C13.792,36.092 20.481,25.249 30.352,18.976M13.29,51.508L20.622,51.508C21.112,61.216 26.336,69.692 34.021,74.685L30.353,81.039C20.481,74.766 13.792,63.924 13.29,51.508M50,86.756C43.847,86.756 38.047,85.228 32.947,82.544L36.616,76.188C40.634,78.25 45.181,79.422 50,79.422C54.819,79.422 59.366,78.25 63.384,76.188L67.053,82.544C61.952,85.228 56.153,86.756 50,86.756M69.648,81.039L65.98,74.685C73.665,69.692 78.888,61.216 79.378,51.508L86.711,51.508C86.208,63.924 79.519,74.766 69.648,81.039" inkscape:connector-curvature="0" fill="#2098e8"/>
    <path atv:refpx="50" atv:refpy="50.008" id="path5415" d="M50,92.756C26.429,92.756 7.252,73.579 7.252,50.008C7.252,26.436 26.429,7.259 50,7.259C73.571,7.259 92.747,26.436 92.747,50.008C92.747,73.579 73.571,92.756 50,92.756M50,10.259C28.083,10.259 10.252,28.09 10.252,50.008C10.252,71.925 28.083,89.756 50,89.756C71.917,89.756 89.747,71.925 89.747,50.008C89.748,28.09 71.917,10.259 50,10.259" inkscape:connector-curvature="0" fill="#2098e8"/>
   </g>
  </g>
 </g>
</svg>
