<?xml version='1.0' encoding='UTF-8' standalone='no'?>
<svg width="20" x="0px" version="1.1" y="0px" xmlns="http://www.w3.org/2000/svg" height="20" xmlns:xlink="http://www.w3.org/1999/xlink" id="Ebene_1" enable-background="new 0 0 50 50" xml:space="preserve" xmlns:atv="http://webmi.atvise.com/2007/svgext">
 <defs/>
 <metadata>
  <atv:parameter desc="symbol color" valuetype="color" substitute="$SYMBOLCOLOR$" behavior="optional" name="symbolColor" defaultvalue="#000000"/>
 </metadata>
 <path fill="$SYMBOLCOLOR$" id="id_1" atv:refpx="6.192" atv:refpy="8.384" stroke-width="0.328" d="M7.363,9.944C7.363,9.997 7.36,10.042 7.355,10.078C7.349,10.115 7.341,10.144 7.33,10.166C7.319,10.187 7.307,10.202 7.293,10.212C7.279,10.222 7.264,10.227 7.246,10.227L5.144,10.227C5.128,10.227 5.113,10.222 5.1,10.212C5.086,10.203 5.074,10.188 5.063,10.166C5.053,10.144 5.044,10.115 5.038,10.078C5.032,10.042 5.029,9.997 5.029,9.944C5.029,9.889 5.032,9.844 5.037,9.807C5.041,9.77 5.049,9.74 5.06,9.718C5.071,9.696 5.083,9.679 5.097,9.669C5.11,9.659 5.126,9.653 5.144,9.653L5.853,9.653L5.853,7.273L5.241,7.598C5.196,7.618 5.159,7.632 5.131,7.636C5.102,7.641 5.08,7.635 5.063,7.619C5.046,7.603 5.035,7.574 5.029,7.535C5.023,7.496 5.02,7.44 5.02,7.367C5.02,7.322 5.022,7.285 5.024,7.256C5.026,7.227 5.031,7.202 5.038,7.181C5.046,7.161 5.057,7.144 5.071,7.131C5.085,7.117 5.103,7.103 5.127,7.088L5.945,6.579C5.954,6.572 5.967,6.566 5.982,6.56C5.996,6.556 6.015,6.553 6.039,6.549C6.062,6.546 6.093,6.544 6.132,6.543C6.169,6.542 6.219,6.542 6.28,6.542C6.355,6.542 6.415,6.543 6.461,6.546C6.508,6.549 6.542,6.554 6.566,6.56C6.589,6.567 6.605,6.576 6.613,6.587C6.621,6.598 6.625,6.613 6.625,6.63L6.625,9.652L7.246,9.652C7.264,9.652 7.28,9.657 7.295,9.668C7.309,9.678 7.322,9.694 7.333,9.717C7.343,9.739 7.352,9.769 7.356,9.805C7.361,9.844 7.363,9.889 7.363,9.944"/>
 <path fill="$SYMBOLCOLOR$" id="id_2" atv:refpx="8.526" atv:refpy="8.912" stroke-width="0.328" d="M8.941,7.994C8.941,8.073 8.934,8.138 8.92,8.192C8.906,8.244 8.883,8.288 8.851,8.321C8.818,8.355 8.776,8.38 8.723,8.393C8.67,8.408 8.603,8.414 8.522,8.414C8.441,8.414 8.376,8.408 8.322,8.393C8.269,8.38 8.226,8.356 8.194,8.321C8.162,8.287 8.14,8.244 8.128,8.192C8.116,8.138 8.109,8.073 8.109,7.994C8.109,7.913 8.116,7.845 8.128,7.79C8.14,7.735 8.161,7.691 8.194,7.657C8.227,7.623 8.269,7.599 8.322,7.584C8.375,7.568 8.441,7.561 8.522,7.561C8.603,7.561 8.669,7.568 8.723,7.584C8.776,7.599 8.818,7.623 8.851,7.657C8.883,7.691 8.906,7.735 8.92,7.79C8.934,7.845 8.941,7.913 8.941,7.994M8.941,9.839C8.941,9.919 8.934,9.985 8.92,10.038C8.906,10.092 8.883,10.137 8.851,10.17C8.818,10.203 8.776,10.228 8.723,10.242C8.67,10.257 8.603,10.263 8.522,10.263C8.441,10.263 8.376,10.257 8.322,10.242C8.269,10.228 8.226,10.204 8.194,10.17C8.162,10.136 8.14,10.092 8.128,10.038C8.116,9.985 8.109,9.919 8.109,9.839C8.109,9.76 8.116,9.693 8.128,9.637C8.14,9.582 8.161,9.536 8.194,9.503C8.227,9.47 8.269,9.444 8.322,9.431C8.375,9.416 8.441,9.41 8.522,9.41C8.603,9.41 8.669,9.416 8.723,9.431C8.776,9.444 8.818,9.469 8.851,9.503C8.883,9.537 8.906,9.582 8.92,9.637C8.934,9.693 8.941,9.76 8.941,9.839"/>
 <path fill="$SYMBOLCOLOR$" id="id_3" atv:refpx="10.91" atv:refpy="8.384" stroke-width="0.328" d="M12.081,9.944C12.081,9.997 12.078,10.042 12.073,10.078C12.067,10.115 12.059,10.144 12.049,10.166C12.037,10.187 12.025,10.202 12.011,10.212C11.998,10.222 11.982,10.227 11.964,10.227L9.863,10.227C9.847,10.227 9.832,10.222 9.818,10.212C9.805,10.203 9.792,10.188 9.782,10.166C9.771,10.144 9.763,10.115 9.757,10.078C9.751,10.042 9.748,9.997 9.748,9.944C9.748,9.889 9.751,9.844 9.755,9.807C9.761,9.77 9.768,9.74 9.778,9.718C9.789,9.696 9.801,9.679 9.815,9.669C9.829,9.659 9.845,9.653 9.862,9.653L10.572,9.653L10.572,7.273L9.96,7.598C9.915,7.619 9.878,7.632 9.85,7.636C9.821,7.641 9.799,7.635 9.782,7.619C9.765,7.603 9.754,7.575 9.748,7.535C9.741,7.496 9.739,7.44 9.739,7.368C9.739,7.323 9.74,7.286 9.742,7.256C9.744,7.227 9.75,7.202 9.757,7.181C9.765,7.161 9.776,7.144 9.79,7.131C9.803,7.117 9.823,7.103 9.846,7.088L10.663,6.579C10.673,6.573 10.686,6.566 10.701,6.56C10.715,6.556 10.734,6.553 10.758,6.549C10.781,6.547 10.812,6.545 10.85,6.543C10.888,6.542 10.938,6.542 10.999,6.542C11.074,6.542 11.134,6.543 11.18,6.547C11.226,6.549 11.261,6.554 11.285,6.56C11.308,6.567 11.324,6.576 11.332,6.587C11.34,6.599 11.344,6.612 11.344,6.629L11.344,9.651L11.965,9.651C11.983,9.651 11.999,9.657 12.014,9.667C12.028,9.677 12.041,9.694 12.052,9.716C12.063,9.738 12.071,9.769 12.075,9.805C12.079,9.844 12.081,9.889 12.081,9.944"/>
 <circle fill="none" cx="8.529" cy="8.593" stroke="$SYMBOLCOLOR$" r="4.919" id="id_6" atv:refpx="12.438" stroke-width="1" atv:refpy="12.298"/>
 <rect width="2.725" x="-1.317" y="16.946" fill="$SYMBOLCOLOR$" height="5.532" stroke="none" id="id_7" atv:refpx="25.321" stroke-width="1" atv:refpy="26.85" transform="matrix(0.7071,-0.7071,0.7071,0.7071,0,0)"/>
</svg>
