<?xml version='1.0' encoding='UTF-8' standalone='no'?>
<svg height="680" version="1.2" width="1280" xmlns="http://www.w3.org/2000/svg" xmlns:atv="http://webmi.atvise.com/2007/svgext" xmlns:xlink="http://www.w3.org/1999/xlink">
 <defs>
  <linearGradient gradientUnits="objectBoundingBox" id="linear_21" x1="-0.0150911" x2="-0.0150911" y1="-7.18755e-05" y2="1.10539">
   <stop offset="0" stop-color="#75899f"/>
   <stop offset="0.7117903930131004" stop-color="#293646"/>
  </linearGradient>
 </defs>
 <title>Log View</title>
 <desc>Displays the current log.</desc>
 <metadata>
  <atv:parameter behavior="hidden" defaultvalue="loggerDialog" desc="table id" name="tableID" substitute="$TABLEID$" valuetype="string"/>
  <atv:parameter behavior="optional" config="Arial;Courier;Tahoma;Verdana" defaultvalue="Arial" desc="font family" group="Font" name="font_family" valuetype="enum"/>
  <atv:parameter behavior="optional" defaultvalue="#ffffff" desc="font color" group="Font" name="font_color" substitute="$FONTCOLOR$" valuetype="color"/>
  <atv:parameter behavior="optional" defaultvalue="12" desc="table header font size" group="Font" name="header_text_size" valuetype="number"/>
  <atv:parameter behavior="optional" defaultvalue="12" desc="table row font size" group="Font" name="row_text_size" valuetype="number"/>
  <atv:parameter behavior="optional" defaultvalue="12" desc="table detail font size" group="Font" name="detail_text_size" valuetype="number"/>
  <atv:parameter behavior="optional" defaultvalue="12" desc="table footer font size" group="Font" name="footer_text_size" valuetype="number"/>
  <atv:parameter behavior="optional" defaultvalue="SYSTEM.GLOBALS.atvFillColor" desc="fill color" group="Appearance" name="globalFillColor" substitute="$FILLCOLOR$" valuetype="global"/>
  <atv:parameter behavior="optional" defaultvalue="SYSTEM.GLOBALS.atvBorderColor" desc="border color" group="Appearance" name="globalBorderColor" valuetype="global"/>
  <atv:parameter behavior="optional" defaultvalue="SYSTEM.GLOBALS.atvSymbolColor" desc="symbol color" group="Appearance" name="globalSymbolColor" substitute="$SYMBOLCOLOR$" valuetype="global"/>
  <atv:parameter behavior="optional" defaultvalue="SYSTEM.GLOBALS.atvObjectDisplays.Tables.ColorConfig" desc="table colors" group="Appearance" name="globalColorConfig" valuetype="global"/>
  <atv:parameter behavior="optional" defaultvalue="atviseTheme" desc="custom theme" group="Appearance" name="theme_class" valuetype="string"/>
  <atv:parameter behavior="hidden" defaultvalue="SYSTEM.LIBRARY.ATVISE.OBJECTDISPLAYS.Steelblue.dialogs.message_dialog" desc="message dialog display" group="Appearance" name="displayMessageDialog" valuetype="address"/>
  <atv:parameter behavior="optional" config="continue;triggered" defaultvalue="continue" desc="data mode" group="Options" name="data_mode" valuetype="enum"/>
  <atv:parameter behavior="optional" defaultvalue="" desc="group" group="Indicator" name="errorGroup" valuetype="string"/>
  <atv:parameter behavior="optional" defaultvalue="" desc="subgroup" group="Indicator" name="errorSubgroup" valuetype="string"/>
  <atv:parameter behavior="optional" defaultvalue="" desc="label" group="Indicator" name="errorLabel" valuetype="string"/>
  <atv:parameter behavior="optional" defaultvalue="604800" desc="offset" group="Indicator" name="errorOffset" valuetype="number"/>
  <atv:parameter behavior="optional" defaultvalue="false" desc="small display" group="Indicator" name="errorSmall" valuetype="boolean"/>
  <atv:gridconfig enabled="true" gridstyle="lines" height="10" width="10"/>
  <atv:snapconfig enabled="true" height="1" width="5"/>
 </metadata>
 <rect atv:refpx="1002.02" atv:refpy="201.383" fill="url(#linear_21)" height="90" id="filters_bg" rx="0" ry="0" stroke="#000000" stroke-width="1" width="1280" x="0" y="-0.5"/>
 <text atv:refpx="124.917" atv:refpy="17" fill="#000000" font-family="Arial" font-size="22" id="title" text-anchor="start" x="54" y="24.5">T{Log display}</text>
 <svg atv:refpx="40.49" atv:refpy="29.6" height="20" id="logo" transform="matrix(2,0,0,2,0,0)" width="20" x="2.5" xlink:href="SYSTEM.LIBRARY.ATVISE.OBJECTDISPLAYS.Symbols.20x20.list" y="2.5">
  <atv:argument name="symbolColor" prefix="globalSymbolColor" value="#000000"/>
 </svg>
 <text atv:refpx="232.5" atv:refpy="25" fill="$FONTCOLOR$" font-family="Arial" font-size="14" id="lbl_from" text-anchor="end" x="269" y="30">T{From}:</text>
 <svg atv:refpx="370" atv:refpy="25" height="30" id="date_from" width="160" x="280" xlink:href="SYSTEM.LIBRARY.ATVISE.OBJECTDISPLAYS.Steelblue.picker_date" y="10">
  <atv:argument name="name" value="date_from"/>
 </svg>
 <text atv:refpx="466.172" atv:refpy="25" fill="$FONTCOLOR$" font-family="Arial" font-size="14" id="id_2" text-anchor="end" x="491" y="30">T{To}:</text>
 <svg atv:refpx="590" atv:refpy="25" height="30" id="date_to" width="160" x="500" xlink:href="SYSTEM.LIBRARY.ATVISE.OBJECTDISPLAYS.Steelblue.picker_date" y="10">
  <atv:argument name="name" value="date_to"/>
 </svg>
 <text atv:refpx="694.961" atv:refpy="25" fill="$FONTCOLOR$" font-family="Arial" font-size="14" id="lbl_group" text-anchor="end" x="736" y="30">T{Group}:</text>
 <svg atv:refpx="843.75" atv:refpy="25" height="30" id="cbb_group" transform="matrix(0.9375,0,0,1,0,0)" width="160" x="800" xlink:href="SYSTEM.LIBRARY.ATVISE.OBJECTDISPLAYS.Steelblue.combobox" y="10">
  <atv:overwrite id="id_3" transform="matrix(1.0667,0,0,1,0,0)" x="124.75"/>
  <atv:overwrite id="button_bg" transform="matrix(1.0667,0,0,1,0,0)" x="123.5"/>
  <atv:overwrite id="button_stroke" transform="matrix(1.0667,0,0,1,0,0)" x="123.5"/>
  <atv:overwrite id="id_5" transform="matrix(1.0667,0,0,1,0,0)" x="122.5"/>
  <atv:overwrite id="blinking_frame" transform="matrix(1.0667,0,0,1,0,0)" width="117"/>
  <atv:overwrite id="combobox_label" transform="matrix(1.0667,0,0,1,0,0)" x="115.5"/>
  <atv:overwrite id="combobox_bg" transform="matrix(1.0667,0,0,1,0,0)" width="116"/>
  <atv:overwrite id="id_2" transform="matrix(1.0667,0,0,1,0,0)" width="118"/>
  <atv:overwrite id="combobox_stroke" transform="matrix(1.0667,0,0,1,0,0)" width="149.5"/>
 </svg>
 <text atv:refpx="959.797" atv:refpy="25" fill="$FONTCOLOR$" font-family="Arial" font-size="14" id="lbl_type" text-anchor="end" x="995" y="30">T{Subgroup}:</text>
 <svg atv:refpx="1080" atv:refpy="25" height="30" id="cbb_subgroup" transform="matrix(0.875,0,0,1,0,0)" width="160" x="1154.286" xlink:href="SYSTEM.LIBRARY.ATVISE.OBJECTDISPLAYS.Steelblue.combobox" y="10">
  <atv:overwrite id="id_3" transform="matrix(1.1429,0,0,1,0,0)" x="114.75"/>
  <atv:overwrite id="button_bg" transform="matrix(1.1429,0,0,1,0,0)" x="113.5"/>
  <atv:overwrite id="button_stroke" transform="matrix(1.1429,0,0,1,0,0)" x="113.5"/>
  <atv:overwrite id="id_5" transform="matrix(1.1429,0,0,1,0,0)" x="112.5"/>
  <atv:overwrite id="blinking_frame" transform="matrix(1.1429,0,0,1,0,0)" width="107"/>
  <atv:overwrite id="combobox_label" transform="matrix(1.1429,0,0,1,0,0)" x="105.5"/>
  <atv:overwrite id="combobox_bg" transform="matrix(1.1429,0,0,1,0,0)" width="106"/>
  <atv:overwrite id="id_2" transform="matrix(1.1429,0,0,1,0,0)" width="108"/>
  <atv:overwrite id="combobox_stroke" transform="matrix(1.1429,0,0,1,0,0)" width="139.5"/>
 </svg>
 <svg atv:dynamic="true" atv:refpx="1171.742" atv:refpy="27" height="30" id="btn_filter" transform="matrix(1.125,0,0,1,0,0)" width="80" x="1048.889" xlink:href="SYSTEM.LIBRARY.ATVISE.OBJECTDISPLAYS.Steelblue.button" y="10">
  <atv:argument name="label" value="T{Apply filter}"/>
  <atv:argument name="tabIndex" value="14"/>
  <atv:argument name="borderVisible" value="true"/>
  <atv:argument name="extraBorderColor" value="#ffffff"/>
  <atv:overwrite id="id_6" transform="matrix(0.8889,0,0,1,0,0)" width="88"/>
  <atv:overwrite id="button_label_2" transform="matrix(0.8889,0,0,1,0,0)" x="45"/>
  <atv:overwrite id="button_label_1" transform="matrix(0.8889,0,0,1,0,0)" x="45"/>
  <atv:overwrite id="button_symbol_bottom" transform="matrix(0.5333,0,0,0.6,0,0)" x="64.833"/>
  <atv:overwrite id="button_symbol_top" transform="matrix(0.5333,0,0,0.6,0,0)" x="64.833"/>
  <atv:overwrite id="outer_frame" transform="matrix(0.8889,0,0,1,0,0)" width="90"/>
  <atv:overwrite id="button_stroke" transform="matrix(0.8889,0,0,1,0,0)" width="86"/>
  <atv:overwrite id="button_label" transform="matrix(0.8889,0,0,1,0,0)" x="45"/>
  <atv:overwrite id="button_symbol" transform="matrix(0.8889,0,0,1,0,0)" x="35"/>
  <atv:overwrite id="button_bg" transform="matrix(0.8889,0,0,1,0,0)" width="88"/>
  <atv:overwrite id="id_2" transform="matrix(0.8889,0,0,1,0,0)" width="84.5"/>
  <atv:overwrite id="id_0" transform="matrix(0.8889,0,0,1,0,0)" width="89.5"/>
 </svg>
 <svg atv:dynamic="true" atv:refpx="1171.742" atv:refpy="-3" height="30" id="btn_reset" transform="matrix(1.125,0,0,1,0,0)" width="80" x="1048.889" xlink:href="SYSTEM.LIBRARY.ATVISE.OBJECTDISPLAYS.Steelblue.button" y="50">
  <atv:argument name="label" value="T{Reset filter}"/>
  <atv:argument name="tabIndex" value="14"/>
  <atv:argument name="borderVisible" value="true"/>
  <atv:argument name="extraBorderColor" value="#ffffff"/>
  <atv:overwrite id="id_6" transform="matrix(0.8889,0,0,1,0,0)" width="88"/>
  <atv:overwrite id="button_label_2" transform="matrix(0.8889,0,0,1,0,0)" x="45"/>
  <atv:overwrite id="button_label_1" transform="matrix(0.8889,0,0,1,0,0)" x="45"/>
  <atv:overwrite id="button_symbol_bottom" transform="matrix(0.5333,0,0,0.6,0,0)" x="64.833"/>
  <atv:overwrite id="button_symbol_top" transform="matrix(0.5333,0,0,0.6,0,0)" x="64.833"/>
  <atv:overwrite id="outer_frame" transform="matrix(0.8889,0,0,1,0,0)" width="90"/>
  <atv:overwrite id="button_stroke" transform="matrix(0.8889,0,0,1,0,0)" width="82"/>
  <atv:overwrite id="button_label" transform="matrix(0.8889,0,0,1,0,0)" x="45"/>
  <atv:overwrite id="button_symbol" transform="matrix(0.8889,0,0,1,0,0)" x="35"/>
  <atv:overwrite id="button_bg" transform="matrix(0.8889,0,0,1,0,0)" width="82"/>
  <atv:overwrite id="id_2" transform="matrix(0.8889,0,0,1,0,0)" width="84.5"/>
  <atv:overwrite id="id_0" transform="matrix(0.8889,0,0,1,0,0)" width="89.5"/>
 </svg>
 <text atv:refpx="233.5" atv:refpy="66" fill="$FONTCOLOR$" font-family="Arial" font-size="14" id="lbl_label" text-anchor="end" x="270" y="71">T{Label}:</text>
 <svg atv:refpx="493.749" atv:refpy="106" height="30" id="txt_label" transform="matrix(2.375,0,0,1,0,0)" width="160" x="117.895" xlink:href="SYSTEM.LIBRARY.ATVISE.OBJECTDISPLAYS.Steelblue.in_out_value" y="51">
  <atv:argument name="validation" value="String"/>
  <atv:overwrite id="input_label" transform="matrix(0.4211,0,0,1,0,0)" x="371.5"/>
  <atv:overwrite id="blinking_frame" transform="matrix(0.4211,0,0,1,0,0)" width="373"/>
  <atv:overwrite id="focus_frame" transform="matrix(0.4211,0,0,1,0,0)" width="372"/>
  <atv:overwrite id="id_2" transform="matrix(0.4211,0,0,1,0,0)" width="374.5"/>
  <atv:overwrite id="id_0" transform="matrix(0.4211,0,0,1,0,0)" width="379.5"/>
 </svg>
 <text atv:refpx="233.5" atv:refpy="66" fill="$FONTCOLOR$" font-family="Arial" font-size="14" id="lbl_message" text-anchor="end" x="735" y="71">T{Message}:</text>
 <svg atv:refpx="521.791" atv:refpy="107" height="30" id="txt_message" transform="matrix(2.5,0,0,1,0,0)" width="160" x="300.4" xlink:href="SYSTEM.LIBRARY.ATVISE.OBJECTDISPLAYS.Steelblue.in_out_value" y="52">
  <atv:argument name="validation" value="String"/>
  <atv:overwrite id="input_label" transform="matrix(0.4,0,0,1,0,0)" x="391.5"/>
  <atv:overwrite id="blinking_frame" transform="matrix(0.4,0,0,1,0,0)" width="393"/>
  <atv:overwrite id="focus_frame" transform="matrix(0.4,0,0,1,0,0)" width="392"/>
  <atv:overwrite id="id_2" transform="matrix(0.4,0,0,1,0,0)" width="394.5"/>
  <atv:overwrite id="id_0" transform="matrix(0.4,0,0,1,0,0)" width="399.5"/>
 </svg>
 <svg atv:refpx="640" atv:refpy="357.369" height="640" id="$TABLEID$" transform="matrix(2,0,0,0.9219,0,0)" width="640" x="0" xlink:href="SYSTEM.LIBRARY.ATVISE.OBJECTDISPLAYS.Steelblue.slickgrid.table" y="97.627">
  <atv:argument name="tableID" prefix="tableID"/>
 </svg>
 <script atv:desc="" atv:href="SYSTEM.LIBRARY.ATVISE.DISPLAYSCRIPTS.logger.logger_dialog" atv:name="logviewer_dialog" atv:type="text/ecmascript"/>
 <script atv:desc="" atv:name="" type="text/ecmascript"/>
</svg>
