<?xml version='1.0' encoding='UTF-8' standalone='no'?>
<svg width="20" x="0px" version="1.1" y="0px" xmlns="http://www.w3.org/2000/svg" height="20" xmlns:xlink="http://www.w3.org/1999/xlink" id="Ebene_1" enable-background="new 0 0 72 72" xml:space="preserve" xmlns:atv="http://webmi.atvise.com/2007/svgext">
 <defs/>
 <metadata>
  <atv:parameter desc="symbol color" valuetype="color" substitute="$SYMBOLCOLOR$" behavior="optional" name="symbolColor" defaultvalue="#000000"/>
 </metadata>
 <g id="id_3">
  <path fill="$SYMBOLCOLOR$" id="id_0" atv:refpx="18.076" atv:refpy="31.828" stroke-width="0.42" d="M11.696,15.692L8.447,15.692C8.203,15.692 8.004,15.891 8.004,16.134C8.004,16.378 8.203,16.576 8.447,16.576L11.696,16.576C11.939,16.576 12.137,16.378 12.137,16.134C12.137,15.891 11.939,15.692 11.696,15.692"/>
  <path fill="$SYMBOLCOLOR$" id="id_1" atv:refpx="18.076" atv:refpy="34.155" stroke-width="0.42" d="M11.696,16.856L8.447,16.856C8.203,16.856 8.004,17.055 8.004,17.298C8.004,17.542 8.203,17.74 8.447,17.74L11.696,17.74C11.939,17.74 12.137,17.542 12.137,17.298C12.137,17.055 11.939,16.856 11.696,16.856"/>
  <path fill="$SYMBOLCOLOR$" id="id_2" atv:refpx="19.099" atv:refpy="36.482" stroke-width="0.42" d="M10.672,18.02L9.47,18.02C9.226,18.02 9.028,18.218 9.028,18.461C9.028,18.705 9.226,18.903 9.47,18.903L10.672,18.903C10.915,18.903 11.113,18.705 11.113,18.461C11.114,18.218 10.916,18.02 10.672,18.02"/>
  <path fill="$SYMBOLCOLOR$" id="id_4" atv:refpx="3.084" atv:refpy="19.983" stroke-width="0.42" d="M3.962,9.652L1.187,9.652C0.812,9.652 0.508,9.956 0.508,10.33C0.508,10.704 0.812,11.008 1.187,11.008L3.962,11.008C4.337,11.008 4.641,10.704 4.641,10.33C4.641,9.956 4.337,9.652 3.962,9.652M1.187,10.173L3.962,10.173C4.049,10.173 4.12,10.243 4.12,10.33C4.12,10.418 4.049,10.488 3.962,10.488L1.187,10.488C1.1,10.488 1.029,10.417 1.029,10.33C1.029,10.243 1.1,10.173 1.187,10.173"/>
  <path fill="$SYMBOLCOLOR$" id="id_5" atv:refpx="8.196" atv:refpy="8.672" stroke-width="0.42" d="M6.388,6.616C6.517,6.488 6.587,6.318 6.587,6.137C6.587,5.955 6.517,5.785 6.388,5.657L4.426,3.693C4.179,3.448 3.714,3.448 3.466,3.694C3.338,3.823 3.267,3.992 3.267,4.173C3.267,4.355 3.338,4.526 3.467,4.654L5.43,6.616C5.557,6.744 5.728,6.815 5.909,6.815C6.091,6.815 6.261,6.744 6.388,6.616M6.021,6.248C5.966,6.303 5.853,6.303 5.798,6.248L3.835,4.285C3.805,4.255 3.789,4.216 3.789,4.173C3.789,4.131 3.805,4.091 3.835,4.062C3.865,4.032 3.904,4.016 3.947,4.016C3.99,4.016 4.027,4.032 4.058,4.062L6.021,6.025C6.051,6.055 6.067,6.094 6.067,6.136C6.067,6.179 6.051,6.219 6.021,6.248"/>
  <path fill="$SYMBOLCOLOR$" id="id_6" atv:refpx="19.826" atv:refpy="4.254" stroke-width="0.42" d="M10.252,5.226C10.626,5.226 10.93,4.921 10.93,4.548L10.93,1.772C10.93,1.399 10.626,1.094 10.251,1.094C9.877,1.094 9.574,1.399 9.574,1.773L9.574,4.548C9.574,4.922 9.878,5.226 10.252,5.226M10.41,4.548C10.41,4.635 10.339,4.706 10.251,4.706C10.164,4.706 10.094,4.635 10.094,4.548L10.094,1.772C10.094,1.685 10.164,1.615 10.251,1.614C10.339,1.614 10.41,1.685 10.41,1.772Z"/>
  <path fill="$SYMBOLCOLOR$" id="id_7" atv:refpx="29.194" atv:refpy="9.39" stroke-width="0.42" d="M16.888,4.051C16.641,3.806 16.174,3.807 15.929,4.053L13.966,6.015C13.838,6.143 13.767,6.314 13.767,6.495C13.767,6.676 13.838,6.846 13.966,6.973C14.094,7.102 14.264,7.173 14.446,7.173C14.627,7.173 14.798,7.103 14.926,6.974L16.889,5.011C17.152,4.748 17.152,4.318 16.888,4.051M16.52,4.644L14.557,6.607C14.53,6.634 14.489,6.65 14.446,6.65C14.402,6.65 14.362,6.634 14.335,6.608C14.305,6.577 14.288,6.537 14.288,6.496C14.288,6.453 14.304,6.414 14.334,6.384L16.297,4.421C16.326,4.39 16.364,4.375 16.408,4.375C16.451,4.375 16.49,4.391 16.52,4.421C16.581,4.482 16.581,4.583 16.52,4.644"/>
  <circle fill="$SYMBOLCOLOR$" cx="10.089" cy="10.529" stroke="none" r="4.113" id="id_10" atv:refpx="5.248" stroke-width="1.099" atv:refpy="16.945"/>
  <path fill="$SYMBOLCOLOR$" id="id_8" atv:refpx="32.779" atv:refpy="20.998" stroke-width="0.42" d="M18.81,10.159L16.033,10.159C15.66,10.159 15.356,10.463 15.356,10.837C15.355,11.018 15.426,11.188 15.554,11.316C15.683,11.445 15.853,11.516 16.033,11.516L18.811,11.516C19.184,11.516 19.488,11.211 19.488,10.838C19.488,10.463 19.185,10.159 18.81,10.159M15.877,10.838C15.877,10.795 15.893,10.756 15.923,10.726C15.953,10.696 15.991,10.68 16.033,10.68L18.81,10.679C18.897,10.679 18.968,10.75 18.968,10.837C18.967,10.924 18.897,10.995 18.81,10.995L16.033,10.995C15.991,10.995 15.952,10.979 15.923,10.95C15.893,10.919 15.877,10.88 15.877,10.838"/>
  <rect width="4.692" x="7.742" y="13.644" fill="$SYMBOLCOLOR$" rx="1.036" height="1.743" ry="0.76" stroke="none" id="id_11" atv:refpx="17.831" stroke-width="1.099" atv:refpy="41.195"/>
 </g>
</svg>
