<?xml version='1.0' encoding='utf-8'?>
<!DOCTYPE svg PUBLIC '-//W3C//DTD SVG 1.1//EN' 'http://www.w3.org/Graphics/SVG/1.1/DTD/svg11.dtd'>
<!-- Svg Vector Icons : http://www.onlinewebfonts.com/icon -->
<svg xml:space="preserve" version="1.1" xmlns:atv="http://webmi.atvise.com/2007/svgext" width="16" height="16" x="0px" y="0px" enable-background="new 0 0 1000 1000" xmlns="http://www.w3.org/2000/svg" xmlns:xlink="http://www.w3.org/1999/xlink">
 <defs/>
 <metadata> Svg Vector Icons : http://www.onlinewebfonts.com/icon <atv:gridconfig width="20" enabled="false" height="20" gridstyle="lines"/>
  <atv:snapconfig width="10" enabled="false" height="10"/>
 </metadata>
 <g id="id_17" transform="matrix(0.0151,0,0,0.0151,0.4579,0.4564)" atv:refpy="8.001" atv:refpx="8.001">
  <g id="id_1" atv:refpy="500" atv:refpx="499.9">
   <path id="id_0" d="M932,177.8L505.5,11C504.8,10.7 504.1,10.8 503.3,10.6C502.2,10.299 501.1,10 499.9,10C498.7,10 497.6,10.3 496.4,10.6C495.7,10.799 495,10.7 494.4,11L493.8,11.2L68,177.8C60.9,180.6 57.4,188.1 59,195.3C58.6,196.7 58.3,198.1 58.3,199.6L58.3,747.4C58.3,753 61.4,758.1 66.3,760.8L492.8,988.3C493.5,988.699 494.2,988.9 495,989.099C495.4,989.199 495.7,989.399 496.1,989.499C497.4,989.799 498.6,989.999 499.9,989.999C501.2,989.999 502.5,989.799 503.7,989.499C504.1,989.399 504.5,989.199 504.8,989.099C505.5,988.8 506.3,988.599 507,988.3L933.5,760.8C938.4,758.199 941.5,753 941.5,747.4L941.5,199.6C941.5,198.1 941.2,196.7 940.8,195.299C942.6,188.1 939.1,180.6 932,177.8M500,380L103.2,196.6L500,41.4L896.8,196.6ZM88.7,223.3L484.9,406.4L484.9,949.5L88.7,738.3ZM911.3,738.3L515.1,949.6L515.1,406.4L911.3,223.299Z" fill="#575757" atv:refpy="500" atv:refpx="499.9"/>
  </g>
  <g id="id_2" fill="#575757" atv:refpy="0" atv:refpx="0"/>
  <g id="id_3" fill="#575757" atv:refpy="0" atv:refpx="0"/>
  <g id="id_4" fill="#575757" atv:refpy="0" atv:refpx="0"/>
  <g id="id_5" fill="#575757" atv:refpy="0" atv:refpx="0"/>
  <g id="id_6" fill="#575757" atv:refpy="0" atv:refpx="0"/>
  <g id="id_7" fill="#575757" atv:refpy="0" atv:refpx="0"/>
  <g id="id_8" fill="#575757" atv:refpy="0" atv:refpx="0"/>
  <g id="id_9" fill="#575757" atv:refpy="0" atv:refpx="0"/>
  <g id="id_10" fill="#575757" atv:refpy="0" atv:refpx="0"/>
  <g id="id_11" fill="#575757" atv:refpy="0" atv:refpx="0"/>
  <g id="id_12" fill="#575757" atv:refpy="0" atv:refpx="0"/>
  <g id="id_13" fill="#575757" atv:refpy="0" atv:refpx="0"/>
  <g id="id_14" fill="#575757" atv:refpy="0" atv:refpx="0"/>
  <g id="id_15" fill="#575757" atv:refpy="0" atv:refpx="0"/>
  <g id="id_16" fill="#575757" atv:refpy="0" atv:refpx="0"/>
 </g>
</svg>
