<?xml version='1.0' encoding='UTF-8' standalone='no'?>
<svg width="60" xmlns:xlink="http://www.w3.org/1999/xlink" xmlns:atv="http://webmi.atvise.com/2007/svgext" version="1.1" xmlns="http://www.w3.org/2000/svg" y="0px" height="60" enable-background="new 0 0 40 40" id="Ebene_1" x="0px" xml:space="preserve">
 <defs/>
 <metadata>
  <atv:parameter desc="symbol color" defaultvalue="#000000" name="symbolColor" substitute="$SYMBOLCOLOR$" valuetype="color" behavior="optional"/>
  <atv:parameter desc="number color" defaultvalue="#FFFFFF" name="numberColor" substitute="$NUMBERCOLOR$" valuetype="color" behavior="optional"/>
  <atv:gridconfig width="20" height="20" gridstyle="lines" enabled="false"/>
  <atv:snapconfig width="10" height="10" enabled="false"/>
 </metadata>
 <g atv:refpy="36" id="id_6" transform="matrix(1,0,0,1,-0.3198,-0.2401)" atv:refpx="30">
  <path stroke-width="1" atv:refpy="8.344" fill="$SYMBOLCOLOR$" id="id_0" atv:refpx="23.582" d="M17.221,8.345C17.221,4.679 15.599,1.708 13.602,1.708C11.6,1.708 9.981,4.679 9.981,8.345C9.981,12.01 11.6,14.979 13.602,14.979C14.066,14.979 14.511,14.819 14.917,14.527L14.401,13.376C14.148,13.512 13.877,13.585 13.602,13.585C12.022,13.585 10.741,11.237 10.741,8.343C10.741,5.448 12.02,3.1 13.602,3.1C15.18,3.1 16.46,5.448 16.46,8.343L17.221,8.343Z"/>
  <path stroke-width="1" atv:refpy="8.344" fill="$SYMBOLCOLOR$" id="id_1" atv:refpx="40.941" d="M25.9,8.345C25.9,4.679 24.279,1.708 22.28,1.708C20.281,1.708 18.66,4.679 18.66,8.345C18.66,12.008 20.281,14.98 22.28,14.98C22.746,14.98 23.189,14.819 23.597,14.527L23.081,13.377C22.827,13.512 22.557,13.585 22.28,13.585C20.702,13.585 19.421,11.237 19.421,8.343C19.421,5.448 20.702,3.102 22.28,3.102C23.858,3.102 25.139,5.448 25.139,8.343Z"/>
  <path stroke-width="1" atv:refpy="8.344" fill="$SYMBOLCOLOR$" id="id_2" atv:refpx="57.962" d="M34.409,8.345C34.409,4.679 32.79,1.708 30.791,1.708C28.792,1.708 27.171,4.679 27.171,8.345C27.171,12.008 28.792,14.98 30.791,14.98C31.255,14.98 31.7,14.819 32.107,14.527L31.592,13.377C31.338,13.513 31.068,13.587 30.791,13.587C29.213,13.587 27.932,11.239 27.932,8.347C27.932,5.45 29.213,3.105 30.791,3.105C32.369,3.105 33.65,5.45 33.65,8.347L34.409,8.347Z"/>
  <path stroke-width="1" atv:refpy="8.344" fill="$SYMBOLCOLOR$" id="id_3" atv:refpx="75.446" d="M43.153,8.345C43.153,4.679 41.532,1.708 39.533,1.708C37.534,1.708 35.912,4.679 35.912,8.345C35.912,12.008 37.534,14.98 39.533,14.98C39.998,14.98 40.442,14.819 40.85,14.527L40.334,13.377C40.079,13.512 39.812,13.585 39.533,13.585C37.955,13.585 36.674,11.237 36.674,8.343C36.674,5.448 37.957,3.102 39.533,3.102C41.112,3.102 42.393,5.448 42.393,8.343Z"/>
  <path stroke-width="1" atv:refpy="8.344" fill="$SYMBOLCOLOR$" id="id_4" atv:refpx="92.847" d="M51.853,8.343C51.853,4.679 50.231,1.707 48.233,1.707C46.234,1.707 44.612,4.677 44.612,8.343C44.612,12.007 46.233,14.979 48.233,14.979C48.698,14.979 49.144,14.818 49.549,14.525L49.034,13.377C48.781,13.512 48.51,13.585 48.233,13.585C46.654,13.585 45.374,11.237 45.374,8.345C45.374,5.45 46.654,3.103 48.233,3.103C49.812,3.103 51.09,5.45 51.09,8.345L51.853,8.345Z"/>
  <path atv:refpy="22.823" fill="$SYMBOLCOLOR$" id="id_5" atv:refpx="30.319" d="M58.931,19.061L58.931,16.014C58.931,12.065 55.729,8.861 51.778,8.861L46.078,8.861C46.144,10.477 46.433,11.653 47.004,12.293C47.24,12.204 47.49,12.149 47.756,12.149C48.944,12.149 49.904,13.11 49.904,14.295C49.904,15.481 48.944,16.441 47.756,16.441C46.574,16.441 45.612,15.479 45.612,14.295C45.612,14.155 45.627,14.022 45.652,13.889C44.756,12.798 44.141,10.976 44.018,8.861L37.398,8.861C37.467,10.499 37.761,11.68 38.349,12.317C38.604,12.212 38.883,12.151 39.177,12.151C40.361,12.151 41.323,13.111 41.323,14.297C41.323,15.483 40.361,16.443 39.177,16.443C37.991,16.443 37.031,15.481 37.031,14.297C37.031,14.187 37.048,14.083 37.06,13.978C36.12,12.9 35.468,11.04 35.34,8.861L28.7,8.861C28.768,10.533 29.075,11.733 29.688,12.357C29.965,12.229 30.268,12.149 30.594,12.149C31.781,12.149 32.74,13.11 32.74,14.295C32.74,15.481 31.781,16.441 30.594,16.441C29.41,16.441 28.448,15.479 28.448,14.295C28.448,14.223 28.462,14.155 28.47,14.086C27.472,13.03 26.772,11.12 26.639,8.861L20.22,8.861C20.287,10.501 20.583,11.686 21.174,12.32C21.431,12.212 21.712,12.151 22.009,12.151C23.195,12.151 24.156,13.111 24.156,14.297C24.156,15.483 23.195,16.443 22.009,16.443C20.824,16.443 19.863,15.481 19.863,14.297C19.863,14.192 19.879,14.09 19.895,13.989C18.948,12.913 18.291,11.048 18.161,8.861L11.523,8.861C11.589,10.536 11.898,11.736 12.516,12.362C12.793,12.231 13.1,12.151 13.427,12.151C14.612,12.151 15.573,13.111 15.573,14.297C15.573,15.483 14.612,16.443 13.427,16.443C12.242,16.443 11.28,15.483 11.28,14.297C11.28,14.228 11.295,14.162 11.301,14.095C10.298,13.041 9.596,11.126 9.463,8.861L8.861,8.861C4.911,8.861 1.707,12.065 1.707,16.014L1.707,19.06L58.931,19.06Z"/>
  <path stroke-width="2" atv:refpy="61.778" fill="$SYMBOLCOLOR$" stroke="none" id="id_9" atv:refpx="30.319" d="M1.707,21.541L1.707,51.779L2.267,54.563L3.802,56.836L6.075,58.37L8.861,58.932L51.778,58.932L54.562,58.37L56.835,56.836L58.37,54.563L58.931,51.779L58.931,21.541Z" fill-rule="evenodd"/>
  <text font-size="26" atv:refpy="50.04" y="38.269" fill="$NUMBERCOLOR$" id="id_10" font-weight="bold" transform="matrix(1.5642,0,0,1.5642,-1.2214,-5.5118)" x="7.665" atv:refpx="30.321" font-family="Arial">31</text>
 </g>
</svg>
