<?xml version='1.0' encoding='UTF-8' standalone='no'?>
<svg width="100" version="1.2" xmlns="http://www.w3.org/2000/svg" height="100" xmlns:xlink="http://www.w3.org/1999/xlink" xmlns:atv="http://webmi.atvise.com/2007/svgext">
 <desc>This control displays the current client time and date.</desc>
 <defs>
  <linearGradient id="linear_12" y1="0.0151344" x1="1.00116" y2="0.938184" gradientUnits="objectBoundingBox" x2="1.00116">
   <stop offset="0" stop-color="#d2d2d6"/>
   <stop offset="0.3318385650224215" stop-color="#ffffff"/>
   <stop offset="0.3856502242152466" stop-color="#2c2c3c"/>
   <stop offset="1" stop-color="#adadad"/>
  </linearGradient>
  <linearGradient id="linear_13" y1="0.0447761" x1="0.239739" y2="0.955818" gradientUnits="objectBoundingBox" x2="0.239739">
   <stop offset="0" stop-color="#000000"/>
   <stop offset="1" stop-color="#ffffff"/>
  </linearGradient>
  <linearGradient id="linear_1" y1="-0.0183441" x1="1" y2="1" gradientUnits="objectBoundingBox" x2="1">
   <stop offset="0" stop-color="#c4c4c4"/>
   <stop offset="1" stop-color="#000000"/>
  </linearGradient>
  <linearGradient id="linear_4" y1="1" x1="1.01755" y2="0" gradientUnits="objectBoundingBox" x2="1.01755">
   <stop offset="0.6026200873362445" stop-color="#ffffff" stop-opacity="0"/>
   <stop offset="1" stop-color="#ffffff" stop-opacity="0.7019607843137254"/>
  </linearGradient>
 </defs>
 <title>Clock Combined</title>
 <metadata>
  <atv:parameter valuetype="address" behavior="hidden" name="base"/>
  <atv:parameter desc="visibility date" config="visible=inherit;hidden=hidden" valuetype="enum" substitute="$VISIBILITYDATE$" behavior="optional" name="visibilityDate" defaultvalue="inherit"/>
  <atv:parameter desc="visibility digital time" config="visible=inherit;hidden=hidden" valuetype="enum" substitute="$VISIBILITYDIGITALTIME$" behavior="optional" name="visibilityDigitalTime" defaultvalue="hidden"/>
  <atv:gridconfig width="2" enabled="true" height="2" gridstyle="lines"/>
  <atv:snapconfig width="2" enabled="true" height="2"/>
 </metadata>
 <circle fill="url(#linear_12)" cx="50" cy="50" stroke="#646464" r="49.5" id="id_46" atv:refpx="50" stroke-width="0.5" atv:refpy="50"/>
 <circle fill="url(#linear_13)" cx="50" cy="50" stroke="none" r="47" id="id_49" atv:refpx="50" stroke-width="2" atv:refpy="50"/>
 <circle fill="#000000" cx="50" cy="50" stroke="none" r="45" id="id_50" atv:refpx="50" stroke-width="2" atv:refpy="50"/>
 <text x="50" y="79" visibility="$VISIBILITYDIGITALTIME$" fill="#ffffff" font-family="Arial" text-anchor="middle" id="time" atv:refpx="26.667" atv:refpy="9.761" font-size="10">12:20</text>
 <text x="50" y="67.5" visibility="$VISIBILITYDATE$" fill="#ffffff" font-family="Arial" text-anchor="middle" id="date" atv:refpx="50" atv:refpy="64" font-size="10">01.02.2011</text>
 <circle fill="url(#linear_4)" cx="50" cy="50" stroke="none" r="44.374" id="id_1" atv:refpx="50" stroke-width="2" atv:refpy="50"/>
 <path fill="#bf0000" stroke="#c4c4c4" id="hour" atv:refpx="50" stroke-width="0.5" atv:refpy="49.984" d="M49.2,50L49.2,40.048L47.999,38.146L49.999,28L52,38.145L50.798,40.048L50.799,49.999Z"/>
 <path fill="#bf0000" stroke="#c4c4c4" id="minute" atv:refpx="50.002" stroke-width="0.5" atv:refpy="50.001" d="M49.2,50L49.2,30.665L47.998,28.666L49.999,18L52.001,28.667L50.798,30.666L50.8,50Z"/>
 <g id="id_3" atv:refpx="50" atv:refpy="50" transform="matrix(1,0,0,1,-0.507,-0.507)">
  <circle fill="url(#linear_1)" cx="50.507" cy="50.507" stroke="none" r="6.507" id="id_65" atv:refpx="-126.833" stroke-width="1.66" atv:refpy="-56.833"/>
  <circle fill="url(#linear_12)" cx="50.507" cy="50.507" stroke="none" r="6.242" id="id_66" atv:refpx="50.507" stroke-width="1.66" atv:refpy="94.772"/>
 </g>
 <text x="43" y="17" fill="#ffffff" font-family="Arial" id="id_10" atv:refpx="166.5" atv:refpy="50.5" font-size="12">12</text>
 <text x="86" y="54.5" fill="#ffffff" font-family="Arial" id="id_35" atv:refpx="249" atv:refpy="125.5" font-size="12">3</text>
 <text x="8" y="54.5" fill="#ffffff" font-family="Arial" id="id_36" atv:refpx="93" atv:refpy="125.5" font-size="12">9</text>
 <g id="id_5" atv:refpx="50" atv:refpy="52.757" transform="matrix(1,0,0,1,0.4994,0)">
  <g id="id_19" atv:refpx="208.081" atv:refpy="128.162" transform="matrix(0.9584,0,0,0.9584,1.5806,2.0806)">
   <path fill="#ffffff" id="id_28" atv:refpx="-16.105" atv:refpy="14.714" stroke-width="1" d="M32.119,17.028L28.866,11.393L27.134,12.393L30.39,18.033C30.958,17.686 31.531,17.347 32.119,17.028"/>
   <path fill="#ffffff" id="id_2" atv:refpx="-73.891" atv:refpy="56.761" stroke-width="1" d="M18.034,30.39L12.394,27.134L11.394,28.866L17.03,32.119C17.349,31.533 17.686,30.958 18.034,30.39"/>
   <path fill="#ffffff" id="id_4" atv:refpx="167.252" atv:refpy="50.763" stroke-width="1" d="M82.972,32.119L88.606,28.867L87.606,27.135L81.966,30.391C82.314,30.958 82.652,31.533 82.972,32.119"/>
   <path fill="#ffffff" id="id_29" atv:refpx="106.136" atv:refpy="14.715" stroke-width="1" d="M69.609,18.034L72.866,12.393L71.134,11.393L67.881,17.03C68.469,17.347 69.044,17.686 69.609,18.034"/>
   <path fill="#ffffff" id="id_30" atv:refpx="161.875" atv:refpy="128.834" stroke-width="1" d="M81.966,69.608L87.606,72.866L88.606,71.135L82.97,67.881C82.652,68.468 82.313,69.043 81.966,69.608"/>
   <path fill="#ffffff" id="id_31" atv:refpx="-73.891" atv:refpy="138.255" stroke-width="1" d="M17.03,67.881L11.394,71.135L12.394,72.866L18.034,69.608C17.686,69.043 17.349,68.468 17.03,67.881"/>
   <path fill="#ffffff" id="id_32" atv:refpx="29.627" atv:refpy="243.216" stroke-width="1" d="M30.39,81.965L27.134,87.606L28.866,88.606L32.119,82.971C31.533,82.651 30.958,82.314 30.39,81.965"/>
   <path fill="#ffffff" id="id_33" atv:refpx="70.374" atv:refpy="243.216" stroke-width="1" d="M67.881,82.971L71.134,88.606L72.866,87.606L69.609,81.965C69.042,82.312 68.467,82.651 67.881,82.971"/>
  </g>
  <path fill="#ffffff" id="id_0" atv:refpx="49.999" atv:refpy="175.258" stroke-width="1" d="M49.001,86L49,92.513L50.999,92.513L50.999,86.005C50.332,86.024 49.664,86.017 49.001,86"/>
 </g>
 <script type="text/ecmascript"><![CDATA[var timeOn = webMI.query["visibilityDigitalTime"];
var dateOn = webMI.query["visibilityDate"];

// set the time and date depending on the display parameters "timeOn" and "dateOn"
(function setDateTime() {
	var today = new Date();
	var h = today.getHours();
	var m = today.getMinutes();
	var std="";
	var min="";
	var dat="";

	if (timeOn == "inherit") {
		std=h.toString();
		while(std.length < 2) std = "0" + std;
		min=m.toString();
		while(min.length < 2) min = "0" + min;

		webMI.gfx.setText("time",std+":"+min);
	}
	if (dateOn == "inherit") {
		dat="."+today.getFullYear().toString();
		var x=today.getMonth()+1;
		dat=x.toString()+dat;
		while(dat.length < 7) dat = "0" + dat;
		dat=today.getDate().toString()+"."+dat;
		while(dat.length < 10) dat = "0" + dat;

		webMI.gfx.setText("date",dat);
	}

	if (m < 10) {
		webMI.gfx.setText("m1", "0");
		webMI.gfx.setText("m2", m.toString().substring(0,1));
	} else {
		webMI.gfx.setText("m1", m.toString().substring(0,1));
		webMI.gfx.setText("m2", m.toString().substring(1,2));
	}
	if (h < 10) {
		webMI.gfx.setText("h1", "0");
		webMI.gfx.setText("h2", h.toString().substring(0,1));
	} else {
		webMI.gfx.setText("h1", h.toString().substring(0,1));
		webMI.gfx.setText("h2", h.toString().substring(1,2));
	}
	webMI.gfx.setText("time", std+":"+min);
	webMI.gfx.setRotation("hour", webMI.translate(h * 30 + m/2, 0, 359, 0, 359));
	webMI.gfx.setRotation("minute", webMI.translate(m, 0, 60, 0, 360));

	setTimeout(setDateTime,3000);
})();]]></script>
</svg>
