<?xml version='1.0' encoding='UTF-8' standalone='no'?>
<svg width="60" xmlns:xlink="http://www.w3.org/1999/xlink" xmlns:atv="http://webmi.atvise.com/2007/svgext" version="1.1" xmlns="http://www.w3.org/2000/svg" y="0px" height="60" enable-background="new 0 0 50 50" id="Ebene_1" x="0px" xml:space="preserve">
 <defs/>
 <metadata>
  <atv:parameter desc="symbol color" defaultvalue="#000000" name="symbolColor" substitute="$SYMBOLCOLOR$" valuetype="color" behavior="optional"/>
  <atv:gridconfig width="20" height="20" gridstyle="lines" enabled="false"/>
  <atv:snapconfig width="10" height="10" enabled="false"/>
 </metadata>
 <g atv:refpy="29.999" id="id_0" atv:refpx="29.999">
  <path stroke-width="1.42" atv:refpy="105.991" fill="$SYMBOLCOLOR$" id="id_25" atv:refpx="14.009" d="M35.955,21.965L35.955,20.04L27.45,20.04C27.45,24.061 24.216,27.321 20.228,27.321C16.241,27.321 13.01,24.061 13.01,20.04L4.502,20.04L4.502,21.965L9.282,22.886C9.556,23.962 9.981,24.974 10.534,25.901L7.99,29.683L10.645,32.36L14.387,29.8C15.323,30.37 16.344,30.807 17.43,31.086L18.34,35.875L22.094,35.875L23.003,31.092C24.101,30.812 25.134,30.373 26.078,29.797L29.823,32.36L32.481,29.683L29.928,25.893C30.479,24.966 30.901,23.959 31.172,22.889Z"/>
  <path stroke-width="1.42" atv:refpy="21.262" fill="$SYMBOLCOLOR$" id="id_26" atv:refpx="22.149" d="M35.955,18.412L35.955,20.34L27.45,20.34C27.45,16.318 24.216,13.053 20.228,13.053C16.241,13.053 13.01,16.315 13.01,20.34L4.502,20.34L4.502,18.412L9.282,17.49C9.556,16.415 9.981,15.403 10.534,14.476L7.99,10.694L10.645,8.013L14.387,10.577C15.323,10.007 16.344,9.57 17.43,9.291L18.34,4.502L22.094,4.502L23.003,9.285C24.101,9.564 25.134,10.004 26.078,10.58L29.823,8.013L32.481,10.694L29.931,14.484C30.479,15.411 30.901,16.418 31.175,17.487Z"/>
  <path stroke-width="1.021" atv:refpy="148.005" fill="$SYMBOLCOLOR$" id="id_28" atv:refpx="34.339" d="M55.497,35.989L54.773,34.206L46.889,37.398C48.398,41.125 46.624,45.364 42.928,46.858C39.234,48.353 35.013,46.544 33.505,42.817L25.619,46.008L26.34,47.794L31.12,46.855C31.779,47.748 32.549,48.527 33.411,49.18L32.469,53.64L35.935,55.126L38.444,51.347C39.525,51.527 40.635,51.547 41.747,51.399L44.388,55.497L47.865,54.088L46.915,49.311C47.825,48.643 48.618,47.845 49.277,46.955L53.712,47.925L55.172,44.448L51.381,41.89C51.544,40.826 51.558,39.734 51.407,38.638Z"/>
  <path stroke-width="1.021" atv:refpy="64.993" fill="$SYMBOLCOLOR$" id="id_29" atv:refpx="80.294" d="M54.162,32.698L54.884,34.483L47.001,37.674C45.492,33.947 41.268,32.136 37.572,33.636C33.875,35.13 32.104,39.363 33.616,43.093L25.73,46.288L25.006,44.502L29.093,41.85C28.944,40.755 28.956,39.657 29.118,38.59L25.342,36.04L26.799,32.558L31.229,33.528C31.882,32.649 32.662,31.859 33.567,31.192L32.612,26.412L36.092,25.006L38.73,29.095C39.853,28.944 40.974,28.964 42.067,29.147L44.576,25.362L48.047,26.848L47.103,31.32C47.962,31.97 48.729,32.749 49.382,33.636Z"/>
 </g>
</svg>
