<?xml version="1.0" encoding="UTF-8" standalone="no"?>
<!-- Created with Inkscape (http://www.inkscape.org/) -->

<svg
   width="10mm"
   height="8mm"
   viewBox="0 0 10 8"
   version="1.1"
   id="svg5"
   inkscape:version="1.1 (c68e22c387, 2021-05-23)"
   sodipodi:docname="bluepart.svg"
   xmlns:inkscape="http://www.inkscape.org/namespaces/inkscape"
   xmlns:sodipodi="http://sodipodi.sourceforge.net/DTD/sodipodi-0.dtd"
   xmlns="http://www.w3.org/2000/svg"
   xmlns:svg="http://www.w3.org/2000/svg">
  <sodipodi:namedview
     id="namedview7"
     pagecolor="#ffffff"
     bordercolor="#666666"
     borderopacity="1.0"
     inkscape:pageshadow="2"
     inkscape:pageopacity="0.0"
     inkscape:pagecheckerboard="0"
     inkscape:document-units="mm"
     showgrid="false"
     width="10mm"
     inkscape:zoom="11.859035"
     inkscape:cx="-11.763183"
     inkscape:cy="1.3913443"
     inkscape:window-width="1920"
     inkscape:window-height="1017"
     inkscape:window-x="-8"
     inkscape:window-y="-8"
     inkscape:window-maximized="1"
     inkscape:current-layer="layer1" />
  <defs
     id="defs2" />
  <g
     inkscape:label="Слой 1"
     inkscape:groupmode="layer"
     id="layer1">
    <path
       style="display:none;fill:#ff0000;fill-rule:evenodd;stroke-width:0.264583"
       id="path31"
       sodipodi:type="arc"
       sodipodi:cx="0"
       sodipodi:cy="0"
       sodipodi:rx="10"
       sodipodi:ry="10"
       sodipodi:start="0"
       sodipodi:end="0.78539816"
       sodipodi:arc-type="slice"
       d="M 10,0 A 10,10 0 0 1 7.0710678,7.0710678 L 0,0 Z" />
    <path
       style="display:none;fill:#ffff00;fill-rule:evenodd;stroke-width:0.264583"
       id="path31-6"
       sodipodi:type="arc"
       sodipodi:cx="0"
       sodipodi:cy="0"
       sodipodi:rx="9"
       sodipodi:ry="9"
       sodipodi:start="0"
       sodipodi:end="0.78539816"
       sodipodi:arc-type="slice"
       d="M 9,0 A 9,9 0 0 1 6.3639611,6.363961 L 0,0 Z" />
    <path
       style="fill:#ffff00;fill-rule:evenodd;stroke-width:0.264583"
       id="path31-6-9"
       sodipodi:type="arc"
       sodipodi:cx="0"
       sodipodi:cy="0"
       sodipodi:rx="8"
       sodipodi:ry="8"
       sodipodi:start="0"
       sodipodi:end="0.78539816"
       sodipodi:arc-type="slice"
       d="M 8,0 A 8,8 0 0 1 5.6568543,5.6568542 L 0,0 Z" />
    <path
       style="fill:#1b8eff;stroke-width:0.019876;fill-opacity:1"
       d="M 2.8263343,2.8229593 0,0.00119867 4,5.9931939e-4 8,0 7.9999832,0.2236025 C 7.9999434,0.79166725 7.8820179,1.5549219 7.692012,2.2169346 7.3904005,3.2678003 6.8535454,4.2830516 6.163204,5.1080748 5.9490183,5.3640468 5.6910297,5.6447205 5.669932,5.6447205 c -0.00948,0 -1.289113,-1.2697923 -2.8435977,-2.8217612 z"
       id="path260" />
  </g>
</svg>
