<?xml version='1.0' encoding='UTF-8' standalone='no'?>
<svg width="20" x="0px" version="1.1" y="0px" xmlns="http://www.w3.org/2000/svg" height="20" xmlns:xlink="http://www.w3.org/1999/xlink" id="Ebene_1" enable-background="new 0 0 32 32" xml:space="preserve" xmlns:atv="http://webmi.atvise.com/2007/svgext">
 <defs/>
 <metadata>
  <atv:parameter desc="symbol color" valuetype="color" substitute="$SYMBOLCOLOR$" behavior="optional" name="symbolColor" defaultvalue="#000000"/>
  <atv:snapconfig width="1" enabled="false" height="1"/>
 </metadata>
 <polygon points="12.091,12.14 16.534,16.175 14.835,9.625" fill="$SYMBOLCOLOR$" stroke="none" id="id_4" atv:refpx="24.395" stroke-width="1" atv:refpy="13.339"/>
 <path fill="$SYMBOLCOLOR$" fill-rule="evenodd" stroke="none" id="id_17" atv:refpx="6.074" stroke-width="1" atv:refpy="9.925" d="M10.348,13.307L10,13.327L8.524,13.245L7.136,13.008L5.858,12.632L4.714,12.13L3.725,11.517L2.916,10.808L2.31,10.016L1.929,9.155L1.797,8.242L1.929,7.327L2.31,6.467L2.916,5.674L3.725,4.965L4.714,4.351L5.858,3.85L7.136,3.474L8.524,3.238L10,3.156L10.348,3.176L10.348,4.003L8.772,4.003L9.179,9.937L10.348,9.937L10.348,10.784L9.179,10.784L9.179,12.479L10.348,12.479Z"/>
 <path fill="$SYMBOLCOLOR$" fill-rule="evenodd" stroke="none" id="id_18" atv:refpx="22.324" stroke-width="1" atv:refpy="8.243" d="M18.202,8.242L18.069,9.155L17.688,10.016L17.081,10.807L16.271,11.517L15.283,12.129L14.139,12.632L12.861,13.007L11.473,13.244L10.013,13.326L10.013,12.479L10.82,12.479L10.82,10.784L10.013,10.784L10.013,9.937L10.82,9.937L11.213,4.003L10.013,4.003L10.013,3.156L11.473,3.238L12.861,3.474L14.139,3.85L15.283,4.352L16.271,4.965L17.081,5.674L17.688,6.467L18.069,7.327Z"/>
</svg>
