<?xml version='1.0' encoding='UTF-8' standalone='no'?>
<svg xmlns:xlink="http://www.w3.org/1999/xlink" width="163" height="62.5" xmlns:atv="http://webmi.atvise.com/2007/svgext" xmlns="http://www.w3.org/2000/svg" version="1.2">
 <defs/>
 <desc>Shows info about the redundancy state.</desc>
 <title>Redundancy info</title>
 <metadata>
  <atv:parameter defaultvalue="SYSTEM.GLOBALS.atvFontColor" valuetype="global" behavior="optional" group="Font" name="globalFontColor" substitute="$FONTCOLOR$" desc="font color"/>
  <atv:gridconfig gridstyle="lines" width="20" height="20" enabled="false"/>
  <atv:snapconfig width="10" height="10" enabled="false"/>
 </metadata>
 <g id="redu_info" atv:refpy="31.25" visibility="hidden" atv:refpx="81.5">
  <g id="id_43" transform="matrix(1,0,0,1,-16.5,-1000.5)" atv:refpy="36.25" atv:refpx="93.5">
   <g id="id_11" transform="matrix(1,0,0,1,-403.5,990)" atv:refpy="43" atv:refpx="1750.5">
    <text id="redu_role" y="57.5" x="425" atv:refpy="51" font-weight="bold" font-family="Arial" font-size="44" fill="$FONTCOLOR$" atv:refpx="3032">S</text>
    <text id="id_31" y="38.5" x="457" atv:refpy="25" font-family="Arial" font-size="14" fill="$FONTCOLOR$" atv:refpx="3120">T{Status}:</text>
    <text id="redu_status" y="56.5" x="456" atv:refpy="43.5" font-weight="bold" font-family="Arial" font-size="18" fill="$FONTCOLOR$" atv:refpx="1801.5">Inaktiv</text>
   </g>
  </g>
  <svg id="id_0" y="0" transform="matrix(0.75,0,0,2,0,0)" x="137.333" atv:refpy="31.333" width="80" xlink:href="SYSTEM.LIBRARY.ATVISE.OBJECTDISPLAYS.Advanced.button_open_display" height="30" atv:refpx="123.634">
   <atv:argument name="display" value="SYSTEM.LIBRARY.ATVISE.OBJECTDISPLAYS.Advanced.redundancy.status"/>
   <atv:argument name="symbol" value="SYSTEM.LIBRARY.ATVISE.OBJECTDISPLAYS.Symbols.20x20.info"/>
   <atv:argument name="symbolPressed" value="SYSTEM.LIBRARY.ATVISE.OBJECTDISPLAYS.Symbols.20x20.info"/>
   <atv:argument name="visibilityLabel" value="hidden"/>
   <atv:argument name="visibilitySymbol" value="inherit"/>
   <atv:argument name="tabIndex" value="-999999"/>
   <atv:overwrite id="button_symbol_pressed" y="12.5" transform="matrix(1.7778,0,0,0.6667,0,0)" x="12.5"/>
   <atv:overwrite id="id_2" transform="matrix(1.7778,0,0,0.6667,0,0)" width="39.5" height="39.5"/>
   <atv:overwrite id="id_0" transform="matrix(1.7778,0,0,0.6667,0,0)" width="44.5" height="44.5"/>
   <atv:argument name="borderVisible" value="true"/>
   <atv:overwrite id="id_1" transform="matrix(1.9048,0,0,0.7143,0,0)" width="42" height="42"/>
   <atv:argument name="extraBorderColor" value="#ffffff"/>
   <atv:overwrite id="id_6" transform="matrix(1.3333,0,0,0.5,0,0)" width="58" height="58"/>
   <atv:overwrite id="button_label" y="34.5" transform="matrix(1.3333,0,0,0.5,0,0)" x="30"/>
   <atv:overwrite id="button_symbol" y="20" transform="matrix(1.3333,0,0,0.5,0,0)" x="20"/>
   <atv:overwrite id="button_stroke" transform="matrix(1.3333,0,0,0.5,0,0)" width="56" height="56"/>
   <atv:overwrite id="button_bg" transform="matrix(1.3333,0,0,0.5,0,0)" width="58" height="58"/>
   <atv:overwrite id="outer_frame" transform="matrix(1.3333,0,0,0.5,0,0)" width="60" height="60"/>
  </svg>
 </g>
 <script type="text/ecmascript"><![CDATA[var reduinfoInitialized = false;
webMI.addEvent(webMI.data, "serverstatechange", function() {
	if (reduinfoInitialized)
		return;

	reduinfoInitialized = true;
	webMI.callExtension("SYSTEM.LIBRARY.ATVISE.QUICKDYNAMICS.Redundancy PopUp", {"display":"SYSTEM.LIBRARY.ATVISE.OBJECTDISPLAYS.Advanced.redundancy.warning_dialog"});
	webMI.gfx.setVisible("redu_info", null);
	webMI.data.subscribe("AGENT.REDUNDANCY.role", function(e) {
		webMI.gfx.setText("redu_role", e.value.charAt(0));
	});

	webMI.data.subscribe("AGENT.REDUNDANCY.status", function(e) {
		e.value = getStatusTranslation(e.value);
		webMI.gfx.setText("redu_status", e.value);
	});
});


function getStatusTranslation(text) {
    var statustext;
    switch(text) {
        case "Active":
            statustext = "T{Active}";
            break;
        case "Passive":
            statustext = "T{Passive}";
            break;
        case "SOP":
            statustext = "T{SOP}";
            break;
        case "SNOP":
            statustext = "T{SNOP}";
            break;
        default:
            statustext = text;
    }

    return statustext;
}]]></script>
</svg>
