<?xml version='1.0' encoding='UTF-8' standalone='no'?>
<svg xmlns:atv="http://webmi.atvise.com/2007/svgext" xmlns="http://www.w3.org/2000/svg" version="1.2" xmlns:xlink="http://www.w3.org/1999/xlink" width="40" height="40">
 <defs/>
 <metadata>
  <atv:parameter valuetype="color" behavior="optional" substitute="$SYMBOLCOLOR$" defaultvalue="#000000" name="symbolColor" desc="symbol color"/>
  <atv:gridconfig gridstyle="lines" enabled="true" width="2" height="2"/>
  <atv:snapconfig enabled="true" width="1" height="1"/>
 </metadata>
 <g id="id_3" atv:refpy="20.02" atv:refpx="20">
  <circle stroke="$SYMBOLCOLOR$" stroke-width="2" id="id_0" cy="22.602" r="16.438" cx="20" atv:refpy="34.931" atv:refpx="20" fill="#ffffff"/>
  <circle stroke="none" stroke-width="2" id="id_1" cy="22.602" r="4.109" cx="20" atv:refpy="59.588" atv:refpx="20" fill="$SYMBOLCOLOR$"/>
  <path stroke="none" stroke-width="2" d="M17.944,6.164L17.944,4.109C17.944,4.109 17.944,2.054 15.89,2.054C13.835,2.052 13.835,2.054 13.835,2.054C13.835,2.054 13.835,0 13.835,0C13.835,0 26.164,0 26.164,0C26.164,0 26.164,2.054 26.164,2.054C26.164,2.054 24.109,2.054 24.109,2.054C24.109,2.054 22.054,2.054 22.054,4.109C22.054,6.164 22.054,6.164 22.054,6.164C22.054,6.164 17.944,6.164 17.944,6.164" id="id_2" atv:refpy="3.082" atv:refpx="48.214" fill="$SYMBOLCOLOR$"/>
  <ellipse stroke="none" stroke-width="2" id="id_4" cy="-8.77" transform="matrix(0.866,0.5,-0.5,0.866,0,0)" cx="31.078" atv:refpy="7.945" atv:refpx="89.381" ry="2.056" rx="4.109" fill="$SYMBOLCOLOR$"/>
  <ellipse stroke="none" stroke-width="2" id="id_6" cy="-11.227" transform="matrix(0.866,-0.5,-0.5,-0.866,0,0)" cx="3.561" atv:refpy="31.499" atv:refpx="8.698" ry="2.056" rx="4.109" fill="$SYMBOLCOLOR$"/>
  <rect stroke="none" stroke-width="1" id="id_10" x="19.349" y="9.637" atv:refpy="15.801" atv:refpx="59.24" width="1.304" height="12.329" fill="$SYMBOLCOLOR$"/>
 </g>
</svg>
