<?xml version='1.0' encoding='UTF-8' standalone='no'?>
<svg id="svg3345" xmlns:cc="http://creativecommons.org/ns#" height="146.82561" width="177.64755" xmlns:dc="http://purl.org/dc/elements/1.1/" xmlns:rdf="http://www.w3.org/1999/02/22-rdf-syntax-ns#" xmlns:svg="http://www.w3.org/2000/svg" xmlns:inkscape="http://www.inkscape.org/namespaces/inkscape" xmlns:atv="http://webmi.atvise.com/2007/svgext" xmlns="http://www.w3.org/2000/svg" xmlns:xlink="http://www.w3.org/1999/xlink" xmlns:sodipodi="http://sodipodi.sourceforge.net/DTD/sodipodi-0.dtd" sodipodi:docname="Trommel.svg" version="1.1" inkscape:version="1.0beta1 (d07a077, 2019-11-03)">
 <defs id="defs3339">
  <linearGradient id="SVGID_1_" class="linear" y2="0.00967421" x2="0.34896" x1="0.644885" gradientUnits="objectBoundingBox" y1="0.970224">
   <stop stop-color="#de9c5f" offset="0"/>
   <stop stop-color="#000000" offset="1"/>
  </linearGradient>
  <linearGradient id="SVGID_2_" class="linear" y2="0.942346" x2="0.565576" x1="0.474572" gradientUnits="objectBoundingBox" y1="0.0277654">
   <stop stop-color="#de9c5f" offset="0"/>
   <stop stop-color="#000000" offset="1"/>
  </linearGradient>
  <linearGradient id="SVGID_3_" class="linear" y2="0.993946" x2="0.47909" x1="0.520074" gradientUnits="objectBoundingBox" y1="0.00473737">
   <stop stop-color="#de9c5f" offset="0"/>
   <stop stop-color="#000000" offset="1"/>
  </linearGradient>
  <linearGradient id="SVGID_4_" class="linear" y2="0.983508" x2="0.585168" x1="0.468911" gradientUnits="objectBoundingBox" y1="0.0348358">
   <stop stop-color="#de9c5f" offset="0"/>
   <stop stop-color="#000000" offset="1"/>
  </linearGradient>
  <linearGradient id="SVGID_5_" class="linear" y2="0.959263" x2="0.566261" x1="0.470805" gradientUnits="objectBoundingBox" y1="0.0254643">
   <stop stop-color="#de9c5f" offset="0"/>
   <stop stop-color="#000000" offset="1"/>
  </linearGradient>
  <linearGradient id="SVGID_6_" fill="#fbbc5a" y2="166.763" x2="101.204" x1="129.4149" gradientUnits="userSpaceOnUse" y1="247.36571">
   <stop stop-color="#de9c5f" offset="0"/>
   <stop stop-color="#000000" offset="1"/>
  </linearGradient>
  <linearGradient id="SVGID_7_" fill="#fbbc5a" y2="166.763" x2="101.204" x1="129.4149" gradientUnits="userSpaceOnUse" y1="247.36571">
   <stop stop-color="#de9c5f" offset="0"/>
   <stop stop-color="#000000" offset="1"/>
  </linearGradient>
  <linearGradient id="SVGID_8_" fill="#fbbc5a" y2="166.763" x2="101.204" x1="129.4149" gradientUnits="userSpaceOnUse" y1="247.36571">
   <stop stop-color="#de9c5f" offset="0"/>
   <stop stop-color="#000000" offset="1"/>
  </linearGradient>
  <linearGradient id="SVGID_9_" fill="#fbbc5a" y2="166.763" x2="101.204" x1="129.4149" gradientUnits="userSpaceOnUse" y1="247.36571">
   <stop stop-color="#de9c5f" offset="0"/>
   <stop stop-color="#000000" offset="1"/>
  </linearGradient>
  <linearGradient id="SVGID_10_" fill="#fbbc5a" y2="166.763" x2="101.204" x1="129.4149" gradientUnits="userSpaceOnUse" y1="247.36571">
   <stop stop-color="#de9c5f" offset="0"/>
   <stop stop-color="#000000" offset="1"/>
  </linearGradient>
  <linearGradient id="SVGID_11_" fill="#fbbc5a" y2="166.763" x2="101.204" x1="129.4149" gradientUnits="userSpaceOnUse" y1="247.36571">
   <stop stop-color="#de9c5f" offset="0"/>
   <stop stop-color="#000000" offset="1"/>
  </linearGradient>
  <linearGradient id="SVGID_12_" fill="#fbbc5a" y2="166.763" x2="101.204" x1="129.4149" gradientUnits="userSpaceOnUse" y1="247.36571">
   <stop stop-color="#de9c5f" offset="0"/>
   <stop stop-color="#000000" offset="1"/>
  </linearGradient>
  <linearGradient id="SVGID_13_" fill="#fbbc5a" y2="166.763" x2="101.204" x1="129.4149" gradientUnits="userSpaceOnUse" y1="247.36571">
   <stop stop-color="#de9c5f" offset="0"/>
   <stop stop-color="#000000" offset="1"/>
  </linearGradient>
  <linearGradient id="SVGID_14_" fill="#fbbc5a" y2="166.763" x2="101.204" x1="129.4149" gradientUnits="userSpaceOnUse" y1="247.36571">
   <stop stop-color="#de9c5f" offset="0"/>
   <stop stop-color="#000000" offset="1"/>
  </linearGradient>
  <linearGradient id="SVGID_15_" fill="#fbbc5a" y2="166.763" x2="101.204" x1="129.4149" gradientUnits="userSpaceOnUse" y1="247.36571">
   <stop stop-color="#de9c5f" offset="0"/>
   <stop stop-color="#000000" offset="1"/>
  </linearGradient>
  <linearGradient id="SVGID_16_" fill="#fbbc5a" y2="166.763" x2="101.204" x1="129.4149" gradientUnits="userSpaceOnUse" y1="247.36571">
   <stop stop-color="#de9c5f" offset="0"/>
   <stop stop-color="#000000" offset="1"/>
  </linearGradient>
  <linearGradient id="SVGID_17_" fill="#fbbc5a" y2="166.763" x2="101.204" x1="129.4149" gradientUnits="userSpaceOnUse" y1="247.36571">
   <stop stop-color="#de9c5f" offset="0"/>
   <stop stop-color="#000000" offset="1"/>
  </linearGradient>
  <linearGradient id="SVGID_18_" fill="#fbbc5a" y2="166.763" x2="101.204" x1="129.4149" gradientUnits="userSpaceOnUse" y1="247.36571">
   <stop stop-color="#de9c5f" offset="0"/>
   <stop stop-color="#000000" offset="1"/>
  </linearGradient>
  <linearGradient id="SVGID_19_" fill="#fbbc5a" y2="166.763" x2="101.204" x1="129.4149" gradientUnits="userSpaceOnUse" y1="247.36571">
   <stop stop-color="#de9c5f" offset="0"/>
   <stop stop-color="#000000" offset="1"/>
  </linearGradient>
  <linearGradient id="SVGID_20_" fill="#fbbc5a" y2="166.763" x2="101.204" x1="129.4149" gradientUnits="userSpaceOnUse" y1="247.36571">
   <stop stop-color="#de9c5f" offset="0"/>
   <stop stop-color="#000000" offset="1"/>
  </linearGradient>
  <linearGradient id="SVGID_21_" fill="#fbbc5a" y2="166.763" x2="101.204" x1="129.4149" gradientUnits="userSpaceOnUse" y1="247.36571">
   <stop stop-color="#de9c5f" offset="0"/>
   <stop stop-color="#000000" offset="1"/>
  </linearGradient>
  <linearGradient id="SVGID_22_" fill="#fbbc5a" y2="166.763" x2="101.204" x1="129.4149" gradientUnits="userSpaceOnUse" y1="247.36571">
   <stop stop-color="#de9c5f" offset="0"/>
   <stop stop-color="#000000" offset="1"/>
  </linearGradient>
  <linearGradient id="SVGID_23_" fill="#fbbc5a" y2="166.763" x2="101.204" x1="129.4149" gradientUnits="userSpaceOnUse" y1="247.36571">
   <stop stop-color="#de9c5f" offset="0"/>
   <stop stop-color="#000000" offset="1"/>
  </linearGradient>
  <linearGradient id="SVGID_24_" fill="#fbbc5a" y2="166.763" x2="101.204" x1="129.4149" gradientUnits="userSpaceOnUse" y1="247.36571">
   <stop stop-color="#de9c5f" offset="0"/>
   <stop stop-color="#000000" offset="1"/>
  </linearGradient>
  <linearGradient id="SVGID_25_" fill="#fbbc5a" y2="166.763" x2="101.204" x1="129.4149" gradientUnits="userSpaceOnUse" y1="247.36571">
   <stop stop-color="#de9c5f" offset="0"/>
   <stop stop-color="#000000" offset="1"/>
  </linearGradient>
  <linearGradient id="SVGID_26_" fill="#fbbc5a" y2="166.763" x2="101.204" x1="129.4149" gradientUnits="userSpaceOnUse" y1="247.36571">
   <stop stop-color="#de9c5f" offset="0"/>
   <stop stop-color="#000000" offset="1"/>
  </linearGradient>
  <linearGradient id="SVGID_27_" fill="#fbbc5a" y2="166.763" x2="101.204" x1="129.4149" gradientUnits="userSpaceOnUse" y1="247.36571">
   <stop stop-color="#de9c5f" offset="0"/>
   <stop stop-color="#000000" offset="1"/>
  </linearGradient>
  <linearGradient id="SVGID_28_" fill="#fbbc5a" y2="166.763" x2="101.204" x1="129.4149" gradientUnits="userSpaceOnUse" y1="247.36571">
   <stop stop-color="#de9c5f" offset="0"/>
   <stop stop-color="#000000" offset="1"/>
  </linearGradient>
  <linearGradient id="SVGID_29_" fill="#fbbc5a" y2="166.763" x2="101.204" x1="129.4149" gradientUnits="userSpaceOnUse" y1="247.36571">
   <stop stop-color="#de9c5f" offset="0"/>
   <stop stop-color="#000000" offset="1"/>
  </linearGradient>
  <linearGradient id="SVGID_30_" fill="#fbbc5a" y2="166.763" x2="101.204" x1="129.4149" gradientUnits="userSpaceOnUse" y1="247.36571">
   <stop stop-color="#de9c5f" offset="0"/>
   <stop stop-color="#000000" offset="1"/>
  </linearGradient>
  <linearGradient id="SVGID_31_" fill="#fbbc5a" y2="166.763" x2="101.204" x1="129.4149" gradientUnits="userSpaceOnUse" y1="247.36571">
   <stop stop-color="#de9c5f" offset="0"/>
   <stop stop-color="#000000" offset="1"/>
  </linearGradient>
  <linearGradient id="SVGID_32_" fill="#fbbc5a" y2="166.763" x2="101.204" x1="129.4149" gradientUnits="userSpaceOnUse" y1="247.36571">
   <stop stop-color="#de9c5f" offset="0"/>
   <stop stop-color="#000000" offset="1"/>
  </linearGradient>
  <linearGradient id="SVGID_33_" fill="#fbbc5a" y2="166.763" x2="101.204" x1="129.4149" gradientUnits="userSpaceOnUse" y1="247.36571">
   <stop stop-color="#de9c5f" offset="0"/>
   <stop stop-color="#000000" offset="1"/>
  </linearGradient>
  <linearGradient id="SVGID_34_" fill="#fbbc5a" y2="166.763" x2="101.204" x1="129.4149" gradientUnits="userSpaceOnUse" y1="247.36571">
   <stop stop-color="#de9c5f" offset="0"/>
   <stop stop-color="#000000" offset="1"/>
  </linearGradient>
  <linearGradient id="SVGID_35_" fill="#fbbc5a" y2="166.763" x2="101.204" x1="129.4149" gradientUnits="userSpaceOnUse" y1="247.36571">
   <stop stop-color="#de9c5f" offset="0"/>
   <stop stop-color="#000000" offset="1"/>
  </linearGradient>
  <linearGradient id="SVGID_36_" fill="#fbbc5a" y2="166.763" x2="101.204" x1="129.4149" gradientUnits="userSpaceOnUse" y1="247.36571">
   <stop stop-color="#de9c5f" offset="0"/>
   <stop stop-color="#000000" offset="1"/>
  </linearGradient>
  <linearGradient id="SVGID_37_" fill="#fbbc5a" y2="166.763" x2="101.204" x1="129.4149" gradientUnits="userSpaceOnUse" y1="247.36571">
   <stop stop-color="#de9c5f" offset="0"/>
   <stop stop-color="#000000" offset="1"/>
  </linearGradient>
  <linearGradient id="SVGID_38_" fill="#fbbc5a" y2="166.763" x2="101.204" x1="129.4149" gradientUnits="userSpaceOnUse" y1="247.36571">
   <stop stop-color="#de9c5f" offset="0"/>
   <stop stop-color="#000000" offset="1"/>
  </linearGradient>
  <linearGradient id="SVGID_39_" fill="#fbbc5a" y2="166.763" x2="101.204" x1="129.4149" gradientUnits="userSpaceOnUse" y1="247.36571">
   <stop stop-color="#de9c5f" offset="0"/>
   <stop stop-color="#000000" offset="1"/>
  </linearGradient>
 </defs>
 <sodipodi:namedview borderopacity="1.0" inkscape:window-width="1366" bordercolor="#666666" inkscape:cy="411.75144" inkscape:zoom="0.35" inkscape:pageopacity="0.0" id="base" inkscape:pageshadow="2" inkscape:window-x="0" inkscape:window-height="691" inkscape:document-rotation="0" inkscape:current-layer="layer1" inkscape:cx="369.99762" showgrid="false" inkscape:document-units="mm" inkscape:window-maximized="1" inkscape:window-y="0" pagecolor="#ffffff"/>
 <metadata id="metadata3342">
  <rdf:RDF>
   <cc:Work rdf:about="">
    <dc:format>image/svg+xml</dc:format>
    <dc:type rdf:resource="http://purl.org/dc/dcmitype/StillImage"/>
    <dc:title/>
   </cc:Work>
  </rdf:RDF>
  <atv:gridconfig height="20" width="20" gridstyle="lines" enabled="false"/>
  <atv:snapconfig height="10" width="10" enabled="false"/>
 </metadata>
 <g id="layer1" transform="translate(-7.9381294,-39.224098)" atv:refpy="73.413" inkscape:groupmode="layer" inkscape:label="Layer 1" atv:refpx="88.823">
  <g id="g5328" transform="matrix(1.7765601,0,0,1.820625,7.9381294,4.8975138)" atv:refpy="112.637" atv:refpx="96.761">
   <g id="shape" atv:refpy="59.178" atv:refpx="49.988">
    <path id="path4857" d="M99.4,46.7C99,43.3 98.3,40.1 97.4,37L97.5,37.1C94.4,25.8 88.7,18.2 83.3,18.9L83.399,19C83.399,19 83.399,19 83.3,19L80.399,19.3C78.3,19.6 76.499,21.1 75.1,23.5L60.899,24.5C60.599,24.5 60.399,24.5 60.099,24.5L30.399,26.6C29.899,26.5 29.299,26.5 28.799,26.6L28.899,26.7C28.799,26.7 28.699,26.7 28.599,26.7L28.599,26.8L18.399,27.5C16.799,25.4 15.199,24.2 13.599,24.1C13.399,24.1 13.099,24.1 12.899,24.1L9.599,24.4C9.899,24.4 10.199,24.4 10.499,24.4L9.6,24.5C6.1,24.9 3.7,30.6 2.9,39L0,68.9L2.7,73L2.8,73L2.9,73.1L5.5,73.1L6.1,72.399L15.9,86.999L16.5,95.099L19.4,99.499L19.5,99.499L22.7,99.199L24.099,86.999L25.499,89.299C25.899,90.399 26.399,91.199 26.799,91.099C26.999,91.099 27.099,90.999 27.299,90.799L27.799,90.699C28.499,93.199 29.599,94.799 30.599,94.699C30.799,94.699 30.9,94.6 31.099,94.499C31.099,94.499 48.9,93.099 48.599,92.299L49.199,92.199C50.699,91.999 51.499,88.399 51.099,84.1C50.699,79.8 49.199,76.399 47.8,76.5L38.3,77.4C38.1,77.2 37.9,77.1 37.7,77L79.6,73.4L86.5,80.6L85.8,88.7L90,93.4L90,93.3L92.9,93.1L98.5,66.7C100.1,61.1 100.4,54.2 99.4,46.7" fill="#c78163" inkscape:connector-curvature="0" atv:refpy="59.178" atv:refpx="49.988"/>
   </g>
   <g id="dark" atv:refpy="59.277" atv:refpx="48.647">
    <path id="path4860" d="M90.2,93.4L95.8,67C97.1,61.6 97.4,54.5 96.4,47.1C94.3,31 87.1,18.5 80.4,19.4C76.2,19.9 73.2,25.299 71.9,33.2L66.2,67L69.6,70.7L74.3,67.8L86.9,80.8L86.2,88.899Z" fill="#947365" inkscape:connector-curvature="0" atv:refpy="56.377" atv:refpx="81.598"/>
    <path id="path4862" d="M0.3,68.8L3,39C3.8,30.7 6.3,24.9 9.7,24.5C15,23.9 21,36.4 22.9,52.3C23.6,58.7 23.6,64.8 23,69.7L19.5,99.2L16.6,94.8L16,86.7L6.2,72L5.5,72.9L3,72.9Z" fill="#947365" inkscape:connector-curvature="0" atv:refpy="61.84" atv:refpx="11.869"/>
    <path id="path4864" d="M90.2,93.4L95.8,67C97.1,61.6 97.4,54.5 96.4,47.1C94.3,31 87.1,18.5 80.4,19.4C76.2,19.9 73.2,25.299 71.9,33.2L66.2,67L69.6,70.7L74.3,67.8L86.9,80.8L86.2,88.899Z" fill="#947365" inkscape:connector-curvature="0" atv:refpy="56.377" atv:refpx="81.598"/>
    <path id="path4866" d="M0.3,68.8L3,39C3.8,30.7 6.3,24.9 9.7,24.5C15,23.9 21,36.4 22.9,52.3C23.6,58.7 23.6,64.8 23,69.7L19.5,99.2L16.6,94.8L16,86.7L6.2,72L5.5,72.9L3,72.9Z" fill="#947365" inkscape:connector-curvature="0" atv:refpy="61.84" atv:refpx="11.869"/>
   </g>
   <g id="linear" atv:refpy="58.629" atv:refpx="49.885">
    <path id="path4874" d="M21.1,52.5C22.6,65.6 20.2,76.7 15.9,77.2C11.5,77.7 6.6,67.5 5.1,54.3C3.6,41.2 6,30.1 10.3,29.6C14.7,29.2 19.6,39.4 21.1,52.5" fill="url(#SVGID_1_)" class="linear" inkscape:connector-curvature="0" atv:refpy="53.403" atv:refpx="13.1"/>
    <path id="path4881" d="M94.7,46.5C92.9,32.7 86.3,22.3 79.9,23.1L18.2,27.5C21.7,32.2 24.7,41.3 26.1,52.1C26.8,58.5 26.8,64.599 26.2,69.5L25.2,78L86.3,72.9C92.8,71.9 96.4,60.2 94.7,46.5" fill="url(#SVGID_2_)" class="linear" inkscape:connector-curvature="0" atv:refpy="50.528" atv:refpx="56.66"/>
    <path id="path4888" d="M11.2,57.7C11.2,57.7 10.6,47.2 18.6,40.5L17.5,37.7C17.5,37.7 9.9,41.5 9.3,56.6L6.4,62.1L7.7,65.5Z" fill="url(#SVGID_3_)" class="linear" inkscape:connector-curvature="0" atv:refpy="51.6" atv:refpx="12.5"/>
    <path id="path4895" d="M51.3,83.9C50.9,79.6 49.4,76.2 48,76.3L38.5,77.2C39.7,78.2 40.8,81.3 41.2,84.9C41.5,88.5 41,91.5 40.1,92.9L49.4,92C50.9,91.8 51.699,88.2 51.3,83.9" fill="url(#SVGID_4_)" class="linear" inkscape:connector-curvature="0" atv:refpy="84.599" atv:refpx="44.951"/>
    <path id="path4902" d="M41.2,84.9C40.7,80.3 39.1,76.7 37.6,76.8L29.2,77.6C28.8,77.6 28.5,77.9 28.2,78.3C28.5,77.9 28.8,77.7 29.1,77.7C30.6,77.6 32.2,81.2 32.7,85.8C33.1,89.9 32.4,93.4 31.2,94.2L39.2,93.4C40.7,93.4 41.6,89.6 41.2,84.9" fill="url(#SVGID_5_)" class="linear" inkscape:connector-curvature="0" atv:refpy="85.499" atv:refpx="34.748"/>
   </g>
   <g id="light" atv:refpy="59.177" atv:refpx="50.097">
    <path id="path4905" d="M99.4,46.7C97.3,30.6 90.1,18.1 83.4,19L80.5,19.3C87.2,18.4 94.5,30.9 96.5,47C97.5,54.5 97.2,61.5 95.9,66.9L90.3,93.2L93.2,93L98.8,66.6C100.1,61.099 100.399,54.199 99.4,46.7" fill="#de9c5f" inkscape:connector-curvature="0" atv:refpy="56.077" atv:refpx="90.248"/>
    <polygon id="polygon4907" points="16,86.9 6.2,72.1 6.1,72.2 15.9,86.9 16.5,94.9 19.4,99.4 19.5,99.3 16.6,94.9 " fill="#de9c5f" atv:refpy="85.75" atv:refpx="12.8"/>
    <path id="path4909" d="M26.1,52C24.2,36.1 18.3,23.6 12.9,24.2L9.6,24.5C6.1,24.9 3.7,30.6 2.9,39L0.2,68.8L2.9,72.9L3,72.9L0.3,68.8L2.9,39C3.7,30.7 6.199,24.9 9.6,24.5C14.899,23.9 20.9,36.4 22.799,52.3C23.499,58.699 23.499,64.8 22.9,69.699L19.4,99.199L22.599,98.899L26.099,69.399C26.799,64.499 26.799,58.499 26.1,52" fill="#de9c5f" inkscape:connector-curvature="0" atv:refpy="61.69" atv:refpx="13.412"/>
    <path id="path4911" d="M7.7,65.7L11.2,57.7C11.2,57.7 10.6,47.2 18.6,40.5L18.8,41.6C11.2,48.2 12.2,58.5 12.2,58.5L8.4,67.1Z" fill="#de9c5f" inkscape:connector-curvature="0" atv:refpy="53.8" atv:refpx="13.25"/>
    <path id="path4913" d="M32.7,85.9C32.3,81.3 30.7,77.7 29.1,77.8C27.5,77.9 26.7,81.8 27.1,86.4C27.5,91 29.1,94.6 30.7,94.5C32.3,94.4 33,90.5 32.7,85.9M30.6,93.1C29.3,93.2 28,90.2 27.6,86.4C27.2,82.5 28,79.4 29.2,79.2C30.5,79.1 31.8,82.1 32.2,85.9C32.6,89.8 31.8,93 30.6,93.1" fill="#de9c5f" inkscape:connector-curvature="0" atv:refpy="86.15" atv:refpx="29.883"/>
    <path id="path4915" d="M26.9,90.6C26.099,90.699 25.299,88.8 25.099,86.5C24.9,84.2 25.299,82.2 26.099,82.1L29.599,81.699C30.4,81.6 31.2,83.499 31.4,85.799C31.599,88.099 31.2,90.099 30.4,90.199Z" fill="#de9c5f" inkscape:connector-curvature="0" atv:refpy="86.15" atv:refpx="28.25"/>
    <polyline id="polyline4917" points="29.5,81.7 26.5,68 24,86.6 26.4,90.4   " fill="#de9c5f" atv:refpy="79.2" atv:refpx="26.75"/>
   </g>
   <g id="shadow" atv:refpy="59.45" atv:refpx="48.45">
    <path id="path4920" d="M66.7,74.5L66.7,74.2C72.8,73.4 76.6,61.7 75,48.1L75.3,48.1C76.9,62 73.2,73.7 66.7,74.5" fill="#000000" inkscape:connector-curvature="0" atv:refpy="61.3" atv:refpx="71.186"/>
    <path id="path4922" d="M35.3,77.2L35.3,76.9C36.9,76.7 38.4,75.7 39.699,74.1C43.3,69.5 44.699,60.2 43.499,50.4L43.699,50.4C45,60.3 43.5,69.6 39.9,74.3C38.7,76 37.1,77 35.3,77.2" fill="#000000" inkscape:connector-curvature="0" atv:refpy="63.8" atv:refpx="39.731"/>
    <path id="path4924" d="M15.7,79.2C10.9,79.2 5.9,68.4 4.3,54.6C2.7,40.3 5.2,28.7 10.1,28.1C15,27.6 20.2,38.5 21.8,52.7C23.4,67 20.9,78.6 16,79.2C15.9,79.1 15.8,79.2 15.7,79.2M10.6,28.5C10.5,28.5 10.4,28.5 10.299,28.5C5.7,29 3.4,40.7 5,54.4C6.6,68 11.5,79.1 16.2,78.5C20.8,78 23.1,66.3 21.5,52.6C19.9,39.4 15,28.5 10.6,28.5" fill="#000000" inkscape:connector-curvature="0" atv:refpy="53.642" atv:refpx="13.05"/>
    <path id="path4926" d="M4.1,66.7C4.899,70 6.199,72.1 6.199,72.1L5.5,72.9L3,72.9Z" fill="#000000" inkscape:connector-curvature="0" atv:refpy="69.8" atv:refpx="4.6"/>
    <path id="path4928" d="M91.6,68.9C90.199,71.1 88.399,72.5 86.399,72.8L79.899,73.4L86.8,80.6Z" fill="#000000" inkscape:connector-curvature="0" atv:refpy="74.75" atv:refpx="85.75"/>
    <path id="path4930" d="M39.2,93.8L39.2,93.3C39.4,93.3 39.6,93.2 39.8,92.899C40.8,91.8 41.3,88.499 40.9,84.899L41.4,84.899C41.7,88.6 41.2,91.899 40.1,93.199C39.9,93.6 39.6,93.799 39.2,93.8" fill="#000000" inkscape:connector-curvature="0" atv:refpy="89.35" atv:refpx="40.343"/>
    <rect id="rect4932" y="83.146004" transform="matrix(0.09,0.9959,-0.9959,0.09,127.8531,32.8691)" fill="#000000" height="6.5" x="45.591" atv:refpy="86.397" width="0.69999999" atv:refpx="45.946"/>
    <rect id="rect4934" y="80.216003" transform="matrix(0.0977,0.9952,-0.9952,0.0977,124.0387,29.6203)" fill="#000000" height="6" x="45.334" atv:refpy="83.215" width="0.69999999" atv:refpx="45.685"/>
    <rect id="rect4936" y="76.517998" transform="matrix(0.1029,0.9947,-0.9947,0.1029,119.1515,26.6221)" fill="#000000" height="5.6999998" x="44.417" atv:refpy="79.369" width="0.80000001" atv:refpx="44.816"/>
    <polygon id="polygon4938" fill="#000000" points="43.7,90.1 49.4,89.6 49.4,90.3 43.7,90.8 42.4,90.4 42.6,89.7 " atv:refpy="90.2" atv:refpx="45.9"/>
    <path id="path4940" d="M84,25.5C84,25.7 83.8,25.7 83.6,25.7C83.399,25.7 83.199,25.7 83.199,25.5C83.199,25.3 83.399,25.1 83.6,25.1C83.8,25.1 84,25.3 84,25.5" fill="#000000" inkscape:connector-curvature="0" atv:refpy="25.4" atv:refpx="83.6"/>
    <path id="path4942" d="M78.8,25.9C78.8,26.099 78.6,26.099 78.399,26.099C78.199,26.099 77.999,26.099 77.999,25.9C77.999,25.7 78.199,25.5 78.399,25.5C78.6,25.5 78.8,25.7 78.8,25.9" fill="#000000" inkscape:connector-curvature="0" atv:refpy="25.8" atv:refpx="78.4"/>
    <path id="path4944" d="M73.6,26.3C73.6,26.5 73.399,26.5 73.199,26.5C72.999,26.5 72.799,26.5 72.799,26.3C72.799,26.1 72.999,25.9 73.199,25.9C73.399,25.9 73.6,26 73.6,26.3" fill="#000000" inkscape:connector-curvature="0" atv:refpy="26.2" atv:refpx="73.2"/>
    <path id="path4946" d="M68.4,26.6C68.4,26.8 68.2,26.8 68,26.8C67.8,26.8 67.6,26.8 67.6,26.6C67.6,26.4 67.8,26.2 68,26.2C68.2,26.2 68.4,26.4 68.4,26.6" fill="#000000" inkscape:connector-curvature="0" atv:refpy="26.5" atv:refpx="68"/>
    <path id="path4948" d="M63.1,27C63.1,27.2 62.9,27.2 62.7,27.2C62.5,27.2 62.3,27.2 62.3,27C62.3,26.8 62.5,26.6 62.7,26.6C62.9,26.6 63.1,26.8 63.1,27" fill="#000000" inkscape:connector-curvature="0" atv:refpy="26.9" atv:refpx="62.7"/>
    <path id="path4950" d="M57.9,27.4C57.9,27.599 57.699,27.599 57.5,27.599C57.3,27.599 57.1,27.599 57.1,27.4C57.1,27.2 57.3,27 57.5,27C57.7,27 57.9,27.2 57.9,27.4" fill="#000000" inkscape:connector-curvature="0" atv:refpy="27.3" atv:refpx="57.5"/>
    <path id="path4952" d="M52.8,27.8C52.8,28 52.599,28 52.4,28C52.199,28 52,28 52,27.8C52,27.6 52.2,27.4 52.4,27.4C52.6,27.4 52.8,27.6 52.8,27.8" fill="#000000" inkscape:connector-curvature="0" atv:refpy="27.7" atv:refpx="52.4"/>
    <path id="path4954" d="M47.5,28.2C47.5,28.4 47.3,28.4 47.1,28.4C46.9,28.4 46.7,28.4 46.7,28.2C46.7,28 46.9,27.8 47.1,27.8C47.3,27.8 47.5,28 47.5,28.2" fill="#000000" inkscape:connector-curvature="0" atv:refpy="28.1" atv:refpx="47.1"/>
    <path id="path4956" d="M42.4,28.6C42.4,28.8 42.199,28.8 42,28.8C41.8,28.8 41.6,28.8 41.6,28.6C41.6,28.4 41.8,28.2 42,28.2C42.2,28.2 42.4,28.4 42.4,28.6" fill="#000000" inkscape:connector-curvature="0" atv:refpy="28.5" atv:refpx="42"/>
    <path id="path4958" d="M37.2,29C37.2,29.2 37,29.2 36.8,29.2C36.6,29.2 36.4,29.2 36.4,29C36.4,28.8 36.6,28.6 36.8,28.6C37,28.6 37.2,28.7 37.2,29" fill="#000000" inkscape:connector-curvature="0" atv:refpy="28.9" atv:refpx="36.8"/>
    <path id="path4960" d="M31.9,29.3C31.9,29.5 31.7,29.5 31.5,29.5C31.3,29.5 31.1,29.5 31.1,29.3C31.1,29.1 31.3,28.9 31.5,28.9C31.7,28.9 31.9,29.1 31.9,29.3" fill="#000000" inkscape:connector-curvature="0" atv:refpy="29.2" atv:refpx="31.5"/>
    <path id="path4962" d="M26.7,29.7C26.7,29.9 26.5,29.9 26.3,29.9C26.1,29.9 25.9,29.9 25.9,29.7C25.9,29.5 26.1,29.3 26.3,29.3C26.5,29.3 26.7,29.5 26.7,29.7" fill="#000000" inkscape:connector-curvature="0" atv:refpy="29.6" atv:refpx="26.3"/>
    <path id="path4964" d="M21.6,30C21.6,30.2 21.4,30.2 21.2,30.2C21,30.2 20.8,30.2 20.8,30C20.8,29.8 21,29.6 21.2,29.6C21.4,29.7 21.6,29.9 21.6,30" fill="#000000" inkscape:connector-curvature="0" atv:refpy="29.9" atv:refpx="21.2"/>
    <circle id="ellipse4966" cy="46.299999" fill="#000000" atv:refpy="46.3" r="0.40000001" cx="93.5" atv:refpx="93.5"/>
    <circle id="ellipse4968" cy="46.700001" fill="#000000" atv:refpy="46.7" r="0.40000001" cx="88" atv:refpx="88"/>
    <circle id="ellipse4970" cy="47.099998" fill="#000000" atv:refpy="47.1" r="0.40000001" cx="82.699997" atv:refpx="82.7"/>
    <circle id="ellipse4972" cy="47.400002" fill="#000000" atv:refpy="47.4" r="0.40000001" cx="77.199997" atv:refpx="77.2"/>
    <circle id="ellipse4974" cy="47.799999" fill="#000000" atv:refpy="47.8" r="0.40000001" cx="71.800003" atv:refpx="71.8"/>
    <circle id="ellipse4976" cy="48.200001" fill="#000000" atv:refpy="48.2" r="0.40000001" cx="66.400002" atv:refpx="66.4"/>
    <circle id="ellipse4978" cy="48.599998" fill="#000000" atv:refpy="48.6" r="0.40000001" cx="61" atv:refpx="61"/>
    <circle id="ellipse4980" cy="49" fill="#000000" atv:refpy="49" r="0.40000001" cx="55.599998" atv:refpx="55.6"/>
    <circle id="ellipse4982" cy="49.299999" fill="#000000" atv:refpy="49.3" r="0.40000001" cx="50.299999" atv:refpx="50.3"/>
    <circle id="ellipse4984" cy="49.700001" fill="#000000" atv:refpy="49.7" r="0.40000001" cx="44.799999" atv:refpx="44.8"/>
    <circle id="ellipse4986" cy="50.200001" fill="#000000" atv:refpy="50.2" r="0.40000001" cx="39.400002" atv:refpx="39.4"/>
    <circle id="ellipse4988" cy="50.5" fill="#000000" atv:refpy="50.5" r="0.40000001" cx="33.900002" atv:refpx="33.9"/>
    <circle id="ellipse4990" cy="50.900002" fill="#000000" atv:refpy="50.9" r="0.40000001" cx="28.6" atv:refpx="28.6"/>
    <circle id="ellipse4992" cy="66.099998" fill="#000000" atv:refpy="66.1" r="0.40000001" cx="91.300003" atv:refpx="91.3"/>
    <circle id="ellipse4994" cy="66.599998" fill="#000000" atv:refpy="66.6" r="0.40000001" cx="85.900002" atv:refpx="85.9"/>
    <circle id="ellipse4996" cy="67" fill="#000000" atv:refpy="67" r="0.40000001" cx="80.599998" atv:refpx="80.6"/>
    <circle id="ellipse4998" cy="67.5" fill="#000000" atv:refpy="67.5" r="0.40000001" cx="75.199997" atv:refpx="75.2"/>
    <circle id="ellipse5000" cy="67.900002" fill="#000000" atv:refpy="67.9" r="0.40000001" cx="69.900002" atv:refpx="69.9"/>
    <circle id="ellipse5002" cy="68.300003" fill="#000000" atv:refpy="68.3" r="0.40000001" cx="64.5" atv:refpx="64.5"/>
    <circle id="ellipse5004" cy="68.800003" fill="#000000" atv:refpy="68.8" r="0.40000001" cx="59.099998" atv:refpx="59.1"/>
    <circle id="ellipse5006" cy="69.199997" fill="#000000" atv:refpy="69.2" r="0.40000001" cx="53.799999" atv:refpx="53.8"/>
    <circle id="ellipse5008" cy="69.699997" fill="#000000" atv:refpy="69.7" r="0.40000001" cx="48.400002" atv:refpx="48.4"/>
    <circle id="ellipse5010" cy="70.099998" fill="#000000" atv:refpy="70.1" r="0.40000001" cx="43" atv:refpx="43"/>
    <circle id="ellipse5012" cy="70.599998" fill="#000000" atv:refpy="70.6" r="0.40000001" cx="37.700001" atv:refpx="37.7"/>
    <circle id="ellipse5014" cy="71" fill="#000000" atv:refpy="71" r="0.40000001" cx="32.400002" atv:refpx="32.4"/>
   </g>
   <g id="hlight" atv:refpy="54.227" atv:refpx="54.5">
    <g id="g5255" atv:refpy="54.227" atv:refpx="54.5">
     <path id="path5022" d="M80.5,19.2C87.2,18.3 94.5,30.799 96.5,46.9L99.4,46.6C97.3,30.5 90.1,18 83.4,18.9Z" fill="#fbbc5a" inkscape:connector-curvature="0" atv:refpy="32.877" atv:refpx="89.95"/>
     <path id="path5029" d="M74.4,48C72.6,34.4 66.1,24 59.8,24.7L59.8,24.4C66.1,23.599 73,34.2 74.8,47.9Z" fill="#fbbc5a" inkscape:connector-curvature="0" atv:refpy="36.179" atv:refpx="67.3"/>
     <path id="path5036" d="M43.1,50.5C41.3,36.7 34.8,26.2 28.5,26.9L28.5,26.599C34.8,25.799 41.7,36.5 43.5,50.4Z" fill="#fbbc5a" inkscape:connector-curvature="0" atv:refpy="38.529" atv:refpx="36"/>
     <path id="path5043" d="M22.8,52.2C21,36.3 15.1,23.8 9.6,24.4L12.899,24.099C18.2,23.5 24.2,36 26.1,51.9Z" fill="#fbbc5a" inkscape:connector-curvature="0" atv:refpy="38.14" atv:refpx="17.85"/>
     <polygon id="polygon5050" points="41.3,78.1 40.6,79.3 40.2,79 40.9,77.6 48,76.9 48.9,77.8 48.6,79.2 48.2,79.1 48.3,77.9 47.8,77.4 " fill="#fbbc5a" atv:refpy="78.1" atv:refpx="44.55"/>
     <polygon id="polygon5057" points="50.1,81.6 49.8,82.9 49.3,82.8 49.4,81.7 49.3,81.3 42.8,81.9 41.8,82.3 41.6,81.8 42.7,81.4 49.5,80.9 " fill="#fbbc5a" atv:refpy="81.9" atv:refpx="45.85"/>
     <polygon id="polygon5064" points="42.7,84.8 50.3,84.1 50.4,85.6 50,85.7 49.9,84.6 42.7,85.3 " fill="#fbbc5a" atv:refpy="84.9" atv:refpx="46.55"/>
     <polygon id="polygon5071" points="50,89.5 50,88.4 43.9,89 42.9,88.8 42.9,88.3 43.9,88.5 50.6,87.9 50.4,89.6 " fill="#fbbc5a" atv:refpy="88.75" atv:refpx="46.75"/>
     <path id="path5078" d="M84.2,25.5C84.2,25.7 84,25.7 83.8,25.7C83.6,25.7 83.399,25.7 83.399,25.5C83.399,25.3 83.6,25.1 83.8,25.1C84.1,25.1 84.2,25.3 84.2,25.5" fill="#fbbc5a" inkscape:connector-curvature="0" atv:refpy="25.4" atv:refpx="83.8"/>
     <path id="path5085" d="M79,25.9C79,26.099 78.8,26.099 78.6,26.099C78.399,26.099 78.199,26.099 78.199,25.9C78.199,25.7 78.399,25.5 78.6,25.5C78.8,25.5 79,25.7 79,25.9" fill="#fbbc5a" inkscape:connector-curvature="0" atv:refpy="25.8" atv:refpx="78.6"/>
     <path id="path5092" d="M73.8,26.3C73.8,26.5 73.6,26.5 73.399,26.5C73.199,26.5 72.999,26.5 72.999,26.3C72.999,26.1 73.199,25.9 73.399,25.9C73.6,25.9 73.8,26 73.8,26.3" fill="#fbbc5a" inkscape:connector-curvature="0" atv:refpy="26.2" atv:refpx="73.4"/>
     <path id="path5099" d="M68.6,26.6C68.6,26.8 68.399,26.8 68.199,26.8C67.999,26.8 67.799,26.8 67.799,26.6C67.799,26.4 67.999,26.2 68.199,26.2C68.399,26.2 68.6,26.4 68.6,26.6" fill="#fbbc5a" inkscape:connector-curvature="0" atv:refpy="26.5" atv:refpx="68.2"/>
     <path id="path5106" d="M63.4,27C63.4,27.2 63.199,27.2 63,27.2C62.8,27.2 62.6,27.2 62.6,27C62.6,26.8 62.8,26.6 63,26.6C63.2,26.6 63.4,26.8 63.4,27" fill="#fbbc5a" inkscape:connector-curvature="0" atv:refpy="26.9" atv:refpx="63"/>
     <path id="path5113" d="M58.2,27.4C58.2,27.599 58,27.599 57.8,27.599C57.6,27.599 57.4,27.599 57.4,27.4C57.4,27.2 57.6,27 57.8,27C58,27 58.2,27.2 58.2,27.4" fill="#fbbc5a" inkscape:connector-curvature="0" atv:refpy="27.3" atv:refpx="57.8"/>
     <path id="path5120" d="M53.1,27.8C53.1,28 52.9,28 52.7,28C52.5,28 52.3,28 52.3,27.8C52.3,27.6 52.5,27.4 52.7,27.4C52.9,27.4 53.1,27.6 53.1,27.8" fill="#fbbc5a" inkscape:connector-curvature="0" atv:refpy="27.7" atv:refpx="52.7"/>
     <path id="path5127" d="M47.7,28.2C47.7,28.4 47.5,28.4 47.3,28.4C47.1,28.4 46.9,28.4 46.9,28.2C46.9,28 47.1,27.8 47.3,27.8C47.5,27.8 47.7,28 47.7,28.2" fill="#fbbc5a" inkscape:connector-curvature="0" atv:refpy="28.1" atv:refpx="47.3"/>
     <path id="path5134" d="M42.6,28.6C42.6,28.8 42.4,28.8 42.2,28.8C42,28.8 41.8,28.8 41.8,28.6C41.8,28.4 42,28.2 42.2,28.2C42.4,28.2 42.6,28.4 42.6,28.6" fill="#fbbc5a" inkscape:connector-curvature="0" atv:refpy="28.5" atv:refpx="42.2"/>
     <path id="path5141" d="M37.4,29C37.4,29.2 37.199,29.2 37,29.2C36.8,29.2 36.6,29.2 36.6,29C36.6,28.8 36.8,28.6 37,28.6C37.2,28.6 37.4,28.7 37.4,29" fill="#fbbc5a" inkscape:connector-curvature="0" atv:refpy="28.9" atv:refpx="37"/>
     <path id="path5148" d="M32.2,29.3C32.2,29.5 32,29.5 31.8,29.5C31.6,29.5 31.4,29.5 31.4,29.3C31.4,29.1 31.6,28.9 31.8,28.9C32,28.9 32.2,29.1 32.2,29.3" fill="#fbbc5a" inkscape:connector-curvature="0" atv:refpy="29.2" atv:refpx="31.8"/>
     <path id="path5155" d="M27,29.7C27,29.9 26.8,29.9 26.6,29.9C26.4,29.9 26.2,29.9 26.2,29.7C26.2,29.5 26.4,29.3 26.6,29.3C26.8,29.3 27,29.5 27,29.7" fill="#fbbc5a" inkscape:connector-curvature="0" atv:refpy="29.6" atv:refpx="26.6"/>
     <path id="path5162" d="M21.8,30C21.8,30.2 21.6,30.2 21.4,30.2C21.2,30.2 21,30.2 21,30C21,29.8 21.2,29.6 21.4,29.6C21.6,29.7 21.8,29.9 21.8,30" fill="#fbbc5a" inkscape:connector-curvature="0" atv:refpy="29.9" atv:refpx="21.4"/>
     <circle id="ellipse5169" cy="46.299999" fill="#fbbc5a" atv:refpy="46.3" r="0.40000001" cx="93.699997" atv:refpx="93.7"/>
     <circle id="ellipse5176" cy="46.700001" fill="#fbbc5a" atv:refpy="46.7" r="0.40000001" cx="88.199997" atv:refpx="88.2"/>
     <circle id="ellipse5183" cy="47.099998" fill="#fbbc5a" atv:refpy="47.1" r="0.40000001" cx="82.900002" atv:refpx="82.9"/>
     <circle id="ellipse5190" cy="47.400002" fill="#fbbc5a" atv:refpy="47.4" r="0.40000001" cx="77.400002" atv:refpx="77.4"/>
     <circle id="ellipse5197" cy="47.799999" fill="#fbbc5a" atv:refpy="47.8" r="0.40000001" cx="72.099998" atv:refpx="72.1"/>
     <circle id="ellipse5204" cy="48.200001" fill="#fbbc5a" atv:refpy="48.2" r="0.40000001" cx="66.699997" atv:refpx="66.7"/>
     <circle id="ellipse5211" cy="48.599998" fill="#fbbc5a" atv:refpy="48.6" r="0.40000001" cx="61.299999" atv:refpx="61.3"/>
     <circle id="ellipse5218" cy="49" fill="#fbbc5a" atv:refpy="49" r="0.40000001" cx="55.799999" atv:refpx="55.8"/>
     <circle id="ellipse5225" cy="49.299999" fill="#fbbc5a" atv:refpy="49.3" r="0.40000001" cx="50.5" atv:refpx="50.5"/>
     <circle id="ellipse5232" cy="49.700001" fill="#fbbc5a" atv:refpy="49.7" r="0.40000001" cx="45" atv:refpx="45"/>
     <circle id="ellipse5239" cy="50.200001" fill="#fbbc5a" atv:refpy="50.2" r="0.40000001" cx="39.700001" atv:refpx="39.7"/>
     <circle id="ellipse5246" cy="50.5" fill="#fbbc5a" atv:refpy="50.5" r="0.40000001" cx="34.200001" atv:refpx="34.2"/>
     <circle id="ellipse5253" cy="50.900002" fill="#fbbc5a" atv:refpy="50.9" r="0.40000001" cx="28.9" atv:refpx="28.9"/>
    </g>
    <g id="g5325" atv:refpy="54.227" atv:refpx="54.5">
     <path id="path5257" d="M80.5,19.2C87.2,18.3 94.5,30.799 96.5,46.9L99.4,46.6C97.3,30.5 90.1,18 83.4,18.9Z" fill="#fbbc5a" inkscape:connector-curvature="0" atv:refpy="32.877" atv:refpx="89.95"/>
     <path id="path5259" d="M74.4,48C72.6,34.4 66.1,24 59.8,24.7L59.8,24.4C66.1,23.599 73,34.2 74.8,47.9Z" fill="#fbbc5a" inkscape:connector-curvature="0" atv:refpy="36.179" atv:refpx="67.3"/>
     <path id="path5261" d="M43.1,50.5C41.3,36.7 34.8,26.2 28.5,26.9L28.5,26.599C34.8,25.799 41.7,36.5 43.5,50.4Z" fill="#fbbc5a" inkscape:connector-curvature="0" atv:refpy="38.529" atv:refpx="36"/>
     <path id="path5263" d="M22.8,52.2C21,36.3 15.1,23.8 9.6,24.4L12.899,24.099C18.2,23.5 24.2,36 26.1,51.9Z" fill="#fbbc5a" inkscape:connector-curvature="0" atv:refpy="38.14" atv:refpx="17.85"/>
     <polygon id="polygon5265" points="41.3,78.1 40.6,79.3 40.2,79 40.9,77.6 48,76.9 48.9,77.8 48.6,79.2 48.2,79.1 48.3,77.9 47.8,77.4 " fill="#fbbc5a" atv:refpy="78.1" atv:refpx="44.55"/>
     <polygon id="polygon5267" points="50.1,81.6 49.8,82.9 49.3,82.8 49.4,81.7 49.3,81.3 42.8,81.9 41.8,82.3 41.6,81.8 42.7,81.4 49.5,80.9 " fill="#fbbc5a" atv:refpy="81.9" atv:refpx="45.85"/>
     <polygon id="polygon5269" points="42.7,84.8 50.3,84.1 50.4,85.6 50,85.7 49.9,84.6 42.7,85.3 " fill="#fbbc5a" atv:refpy="84.9" atv:refpx="46.55"/>
     <polygon id="polygon5271" points="50,89.5 50,88.4 43.9,89 42.9,88.8 42.9,88.3 43.9,88.5 50.6,87.9 50.4,89.6 " fill="#fbbc5a" atv:refpy="88.75" atv:refpx="46.75"/>
     <path id="path5273" d="M84.2,25.5C84.2,25.7 84,25.7 83.8,25.7C83.6,25.7 83.399,25.7 83.399,25.5C83.399,25.3 83.6,25.1 83.8,25.1C84.1,25.1 84.2,25.3 84.2,25.5" fill="#fbbc5a" inkscape:connector-curvature="0" atv:refpy="25.4" atv:refpx="83.8"/>
     <path id="path5275" d="M79,25.9C79,26.099 78.8,26.099 78.6,26.099C78.399,26.099 78.199,26.099 78.199,25.9C78.199,25.7 78.399,25.5 78.6,25.5C78.8,25.5 79,25.7 79,25.9" fill="#fbbc5a" inkscape:connector-curvature="0" atv:refpy="25.8" atv:refpx="78.6"/>
     <path id="path5277" d="M73.8,26.3C73.8,26.5 73.6,26.5 73.399,26.5C73.199,26.5 72.999,26.5 72.999,26.3C72.999,26.1 73.199,25.9 73.399,25.9C73.6,25.9 73.8,26 73.8,26.3" fill="#fbbc5a" inkscape:connector-curvature="0" atv:refpy="26.2" atv:refpx="73.4"/>
     <path id="path5279" d="M68.6,26.6C68.6,26.8 68.399,26.8 68.199,26.8C67.999,26.8 67.799,26.8 67.799,26.6C67.799,26.4 67.999,26.2 68.199,26.2C68.399,26.2 68.6,26.4 68.6,26.6" fill="#fbbc5a" inkscape:connector-curvature="0" atv:refpy="26.5" atv:refpx="68.2"/>
     <path id="path5281" d="M63.4,27C63.4,27.2 63.199,27.2 63,27.2C62.8,27.2 62.6,27.2 62.6,27C62.6,26.8 62.8,26.6 63,26.6C63.2,26.6 63.4,26.8 63.4,27" fill="#fbbc5a" inkscape:connector-curvature="0" atv:refpy="26.9" atv:refpx="63"/>
     <path id="path5283" d="M58.2,27.4C58.2,27.599 58,27.599 57.8,27.599C57.6,27.599 57.4,27.599 57.4,27.4C57.4,27.2 57.6,27 57.8,27C58,27 58.2,27.2 58.2,27.4" fill="#fbbc5a" inkscape:connector-curvature="0" atv:refpy="27.3" atv:refpx="57.8"/>
     <path id="path5285" d="M53.1,27.8C53.1,28 52.9,28 52.7,28C52.5,28 52.3,28 52.3,27.8C52.3,27.6 52.5,27.4 52.7,27.4C52.9,27.4 53.1,27.6 53.1,27.8" fill="#fbbc5a" inkscape:connector-curvature="0" atv:refpy="27.7" atv:refpx="52.7"/>
     <path id="path5287" d="M47.7,28.2C47.7,28.4 47.5,28.4 47.3,28.4C47.1,28.4 46.9,28.4 46.9,28.2C46.9,28 47.1,27.8 47.3,27.8C47.5,27.8 47.7,28 47.7,28.2" fill="#fbbc5a" inkscape:connector-curvature="0" atv:refpy="28.1" atv:refpx="47.3"/>
     <path id="path5289" d="M42.6,28.6C42.6,28.8 42.4,28.8 42.2,28.8C42,28.8 41.8,28.8 41.8,28.6C41.8,28.4 42,28.2 42.2,28.2C42.4,28.2 42.6,28.4 42.6,28.6" fill="#fbbc5a" inkscape:connector-curvature="0" atv:refpy="28.5" atv:refpx="42.2"/>
     <path id="path5291" d="M37.4,29C37.4,29.2 37.199,29.2 37,29.2C36.8,29.2 36.6,29.2 36.6,29C36.6,28.8 36.8,28.6 37,28.6C37.2,28.6 37.4,28.7 37.4,29" fill="#fbbc5a" inkscape:connector-curvature="0" atv:refpy="28.9" atv:refpx="37"/>
     <path id="path5293" d="M32.2,29.3C32.2,29.5 32,29.5 31.8,29.5C31.6,29.5 31.4,29.5 31.4,29.3C31.4,29.1 31.6,28.9 31.8,28.9C32,28.9 32.2,29.1 32.2,29.3" fill="#fbbc5a" inkscape:connector-curvature="0" atv:refpy="29.2" atv:refpx="31.8"/>
     <path id="path5295" d="M27,29.7C27,29.9 26.8,29.9 26.6,29.9C26.4,29.9 26.2,29.9 26.2,29.7C26.2,29.5 26.4,29.3 26.6,29.3C26.8,29.3 27,29.5 27,29.7" fill="#fbbc5a" inkscape:connector-curvature="0" atv:refpy="29.6" atv:refpx="26.6"/>
     <path id="path5297" d="M21.8,30C21.8,30.2 21.6,30.2 21.4,30.2C21.2,30.2 21,30.2 21,30C21,29.8 21.2,29.6 21.4,29.6C21.6,29.7 21.8,29.9 21.8,30" fill="#fbbc5a" inkscape:connector-curvature="0" atv:refpy="29.9" atv:refpx="21.4"/>
     <circle id="ellipse5299" cy="46.299999" fill="#fbbc5a" atv:refpy="46.3" r="0.40000001" cx="93.699997" atv:refpx="93.7"/>
     <circle id="ellipse5301" cy="46.700001" fill="#fbbc5a" atv:refpy="46.7" r="0.40000001" cx="88.199997" atv:refpx="88.2"/>
     <circle id="ellipse5303" cy="47.099998" fill="#fbbc5a" atv:refpy="47.1" r="0.40000001" cx="82.900002" atv:refpx="82.9"/>
     <circle id="ellipse5305" cy="47.400002" fill="#fbbc5a" atv:refpy="47.4" r="0.40000001" cx="77.400002" atv:refpx="77.4"/>
     <circle id="ellipse5307" cy="47.799999" fill="#fbbc5a" atv:refpy="47.8" r="0.40000001" cx="72.099998" atv:refpx="72.1"/>
     <circle id="ellipse5309" cy="48.200001" fill="#fbbc5a" atv:refpy="48.2" r="0.40000001" cx="66.699997" atv:refpx="66.7"/>
     <circle id="ellipse5311" cy="48.599998" fill="#fbbc5a" atv:refpy="48.6" r="0.40000001" cx="61.299999" atv:refpx="61.3"/>
     <circle id="ellipse5313" cy="49" fill="#fbbc5a" atv:refpy="49" r="0.40000001" cx="55.799999" atv:refpx="55.8"/>
     <circle id="ellipse5315" cy="49.299999" fill="#fbbc5a" atv:refpy="49.3" r="0.40000001" cx="50.5" atv:refpx="50.5"/>
     <circle id="ellipse5317" cy="49.700001" fill="#fbbc5a" atv:refpy="49.7" r="0.40000001" cx="45" atv:refpx="45"/>
     <circle id="ellipse5319" cy="50.200001" fill="#fbbc5a" atv:refpy="50.2" r="0.40000001" cx="39.700001" atv:refpx="39.7"/>
     <circle id="ellipse5321" cy="50.5" fill="#fbbc5a" atv:refpy="50.5" r="0.40000001" cx="34.200001" atv:refpx="34.2"/>
     <circle id="ellipse5323" cy="50.900002" fill="#fbbc5a" atv:refpy="50.9" r="0.40000001" cx="28.9" atv:refpx="28.9"/>
    </g>
   </g>
  </g>
 </g>
</svg>
