<?xml version='1.0' encoding='UTF-8' standalone='no'?>
<svg xmlns:atv="http://webmi.atvise.com/2007/svgext" enable-background="new 0 0 40 40" xmlns:xlink="http://www.w3.org/1999/xlink" version="1.1" height="20" xmlns="http://www.w3.org/2000/svg" x="0px" y="0px" id="Ebene_1" xml:space="preserve" width="20">
 <defs/>
 <metadata>
  <atv:parameter desc="symbol color" behavior="optional" defaultvalue="#000000" name="symbolColor" substitute="$SYMBOLCOLOR$" valuetype="color"/>
  <atv:parameter desc="number color" behavior="optional" defaultvalue="#ffffff" name="numberColor" substitute="$NUMBERCOLOR$" valuetype="color"/>
  <atv:gridconfig gridstyle="lines" height="20" enabled="false" width="20"/>
  <atv:snapconfig height="10" enabled="false" width="10"/>
 </metadata>
 <path fill="$SYMBOLCOLOR$" stroke-width="1" d="M5.894,2.832C5.894,1.67 5.38,0.728 4.746,0.728C4.113,0.728 3.599,1.67 3.599,2.832C3.599,3.994 4.113,4.935 4.746,4.935C4.894,4.935 5.034,4.885 5.164,4.791L5,4.427C4.92,4.47 4.834,4.493 4.746,4.493C4.246,4.493 3.839,3.748 3.839,2.83C3.839,1.913 4.246,1.169 4.746,1.169C5.247,1.169 5.653,1.913 5.653,2.83L5.894,2.83Z" atv:refpx="4.747" id="id_0" atv:refpy="2.832"/>
 <path fill="$SYMBOLCOLOR$" stroke-width="1" d="M8.645,2.832C8.645,1.67 8.132,0.728 7.498,0.728C6.864,0.728 6.35,1.67 6.35,2.832C6.35,3.992 6.864,4.936 7.498,4.936C7.645,4.936 7.786,4.885 7.915,4.791L7.751,4.427C7.671,4.47 7.586,4.493 7.498,4.493C6.997,4.493 6.591,3.748 6.591,2.83C6.591,1.913 6.997,1.17 7.498,1.17C7.998,1.17 8.404,1.913 8.404,2.83Z" atv:refpx="7.497" id="id_1" atv:refpy="2.832"/>
 <path fill="$SYMBOLCOLOR$" stroke-width="1" d="M11.343,2.832C11.343,1.67 10.83,0.728 10.196,0.728C9.562,0.728 9.048,1.67 9.048,2.832C9.048,3.992 9.562,4.936 10.196,4.936C10.343,4.936 10.484,4.885 10.613,4.791L10.449,4.427C10.369,4.471 10.283,4.493 10.196,4.493C9.695,4.493 9.289,3.748 9.289,2.832C9.289,1.914 9.695,1.171 10.196,1.171C10.696,1.171 11.102,1.914 11.102,2.832Z" atv:refpx="10.195" id="id_2" atv:refpy="2.832"/>
 <path fill="$SYMBOLCOLOR$" stroke-width="1" d="M14.115,2.832C14.115,1.67 13.601,0.728 12.967,0.728C12.333,0.728 11.819,1.67 11.819,2.832C11.819,3.992 12.333,4.936 12.967,4.936C13.114,4.936 13.255,4.885 13.384,4.791L13.221,4.427C13.14,4.47 13.055,4.493 12.967,4.493C12.466,4.493 12.061,3.748 12.061,2.83C12.061,1.913 12.467,1.17 12.967,1.17C13.468,1.17 13.873,1.913 13.873,2.83Z" atv:refpx="12.967" id="id_3" atv:refpy="2.832"/>
 <path fill="$SYMBOLCOLOR$" stroke-width="1" d="M16.872,2.83C16.872,1.669 16.358,0.728 15.725,0.728C15.092,0.728 14.577,1.669 14.577,2.83C14.577,3.992 15.091,4.935 15.725,4.935C15.873,4.935 16.013,4.884 16.143,4.791L15.979,4.427C15.899,4.47 15.813,4.493 15.725,4.493C15.224,4.493 14.818,3.748 14.818,2.832C14.818,1.914 15.224,1.17 15.725,1.17C16.225,1.17 16.631,1.914 16.631,2.832L16.872,2.832Z" atv:refpx="15.724" id="id_4" atv:refpy="2.832"/>
 <path fill="$SYMBOLCOLOR$" stroke-width="1" d="M19.116,6.229L19.116,5.263C19.116,4.011 18.101,2.995 16.849,2.995L15.042,2.995C15.062,3.508 15.155,3.881 15.336,4.083C15.41,4.056 15.49,4.038 15.574,4.038C15.95,4.038 16.254,4.343 16.254,4.718C16.254,5.094 15.95,5.399 15.574,5.399C15.199,5.399 14.894,5.093 14.894,4.718C14.894,4.673 14.899,4.631 14.907,4.589C14.623,4.243 14.428,3.666 14.388,2.995L12.29,2.995C12.312,3.515 12.405,3.889 12.592,4.091C12.672,4.057 12.761,4.038 12.854,4.038C13.229,4.038 13.534,4.343 13.534,4.719C13.534,5.095 13.229,5.399 12.854,5.399C12.478,5.399 12.173,5.094 12.173,4.719C12.173,4.684 12.179,4.651 12.183,4.618C11.885,4.276 11.679,3.686 11.637,2.995L9.533,2.995C9.555,3.525 9.651,3.906 9.846,4.104C9.934,4.062 10.03,4.038 10.133,4.038C10.51,4.038 10.814,4.343 10.814,4.718C10.814,5.094 10.51,5.399 10.133,5.399C9.758,5.399 9.453,5.093 9.453,4.718C9.453,4.695 9.458,4.673 9.46,4.652C9.143,4.317 8.922,3.711 8.88,2.995L6.845,2.995C6.866,3.515 6.959,3.891 7.147,4.091C7.229,4.057 7.318,4.038 7.412,4.038C7.787,4.038 8.092,4.343 8.092,4.719C8.092,5.095 7.787,5.399 7.412,5.399C7.036,5.399 6.731,5.094 6.731,4.719C6.731,4.685 6.736,4.653 6.742,4.621C6.441,4.28 6.233,3.689 6.192,2.995L4.086,2.995C4.108,3.526 4.207,3.908 4.402,4.105C4.49,4.062 4.587,4.038 4.691,4.038C5.067,4.038 5.372,4.343 5.372,4.719C5.372,5.095 5.067,5.399 4.691,5.399C4.315,5.399 4.011,5.095 4.011,4.719C4.011,4.697 4.014,4.676 4.017,4.655C3.7,4.321 3.476,3.713 3.434,2.995L3.243,2.995C1.991,2.995 0.977,4.011 0.977,5.263L0.977,6.228L19.116,6.228Z" atv:refpx="10.046" id="id_5" atv:refpy="4.612"/>
 <path fill="$SYMBOLCOLOR$" d="M0.977,7.015L0.977,16.6L1.154,17.482L1.64,18.203L2.361,18.689L3.243,18.868L16.849,18.868L17.731,18.689L18.452,18.203L18.938,17.482L19.116,16.6L19.116,7.015Z" atv:refpx="10.046" id="id_9" atv:refpy="12.941"/>
 <text fill="$NUMBERCOLOR$" font-size="12" font-family="Arial" atv:refpx="10.413" font-weight="bold" x="10.414" y="16.927" text-anchor="middle" id="id_10" atv:refpy="12.426">31</text>
</svg>
