<?xml version='1.0' encoding='UTF-8' standalone='no'?>
<svg height="275" version="1.2" width="655" xmlns="http://www.w3.org/2000/svg" xmlns:atv="http://webmi.atvise.com/2007/svgext" xmlns:xlink="http://www.w3.org/1999/xlink">
 <defs/>
 <metadata>
  <atv:gridconfig enabled="false" gridstyle="lines" height="20" width="20"/>
  <atv:snapconfig enabled="false" height="10" width="10"/>
 </metadata>
 <script atv:desc="" atv:name="" type="text/ecmascript"><![CDATA[  
webMI.data.subscribeBlock(["AGENT.OBJECTS.timer.sec","AGENT.OBJECTS.timer.min","AGENT.OBJECTS.timer.hour"], function(e) {
	var sec = e[0].value;
	var min = e[1].value;
	var hour = e[2].value;
	
	var secOut = (sec<10?("0"+sec):sec);
	var minOut = (min<10?("0"+min):min);
	var hourOut = (hour<10?("0"+hour):hour);
	
	webMI.gfx.setText("sec",secOut);
	webMI.gfx.setText("min",minOut);
	webMI.gfx.setText("hour",hourOut);
});


function reset() {

	webMI.data.write("AGENT.OBJECTS.timer.active",0);
	webMI.data.write("AGENT.OBJECTS.timer.sec",0);
	webMI.data.write("AGENT.OBJECTS.timer.min",0);
	webMI.data.write("AGENT.OBJECTS.timer.hour",0);

}

// button click RESET
webMI.addEvent("reset", "click", function(e) {
var id = "reset";
var value = true;
	reset();
});]]></script>
 <rect atv:refpx="282.118" atv:refpy="205.523" fill="#e5e5e5" height="80.089" id="id_9" stroke="none" stroke-width="2" width="234.363" x="205.936" y="165.478"/>
 <svg atv:refpx="200.939" atv:refpy="205.481" height="30" id="startstop" transform="matrix(1,0,0,2.6667,0,0)" width="80" x="201.936" xlink:href="SYSTEM.LIBRARY.ATVISE.OBJECTDISPLAYS.Advanced.button_switch" y="62.055">
  <atv:argument name="labelOn" value="T{Stop}"/>
  <atv:argument name="labelOff" value="T{Start}"/>
  <atv:argument name="base" value="AGENT.OBJECTS.timer.active"/>
  <atv:argument name="visibilityLabel" value="hidden"/>
  <atv:argument name="visibilitySymbol" value="inherit"/>
  <atv:argument name="symbolColor" value="SYSTEM.GLOBALS.atvSymbolColor"/>
  <atv:argument name="symbolColorOn" value="SYSTEM.GLOBALS.atvSymbolColor"/>
  <atv:argument name="fillOff" value="#e5e5e5"/>
  <atv:argument name="symbolOn" value="SYSTEM.LIBRARY.ATVISE.OBJECTDISPLAYS.Symbols.20x20.stop"/>
  <atv:argument name="symbolOff" value="SYSTEM.LIBRARY.ATVISE.OBJECTDISPLAYS.Symbols.20x20.play"/>
  <atv:overwrite height="78.001" id="id_6" transform="matrix(1,0,0,0.375,0,0)"/>
  <atv:overwrite id="button_label" transform="matrix(1,0,0,0.375,0,0)" y="44.501"/>
  <atv:overwrite id="button_symbol_off" transform="matrix(1,0,0,0.375,0,0)" y="30.001"/>
  <atv:overwrite id="button_symbol_on" transform="matrix(1,0,0,0.375,0,0)" y="30.001"/>
  <atv:overwrite height="76.001" id="blinking_frame" transform="matrix(1,0,0,0.375,0,0)"/>
  <atv:overwrite height="76.001" id="button_stroke" transform="matrix(1,0,0,0.375,0,0)"/>
  <atv:overwrite height="78.001" id="button_bg" transform="matrix(1,0,0,0.375,0,0)"/>
  <atv:overwrite height="80.001" id="outer_frame" transform="matrix(1,0,0,0.375,0,0)"/>
 </svg>
 <svg atv:refpx="361.934" atv:refpy="205.484" height="30" id="reset" transform="matrix(1,0,0,2.6667,0,0)" width="80" x="362.936" xlink:href="SYSTEM.LIBRARY.ATVISE.OBJECTDISPLAYS.Advanced.button" y="62.055">
  <atv:argument name="label" value="T{Reset}"/>
  <atv:argument name="symbol" value="SYSTEM.LIBRARY.ATVISE.OBJECTDISPLAYS.Symbols.20x20.rewind"/>
  <atv:argument name="visibilityLabel" value="hidden"/>
  <atv:argument name="visibilitySymbol" value="inherit"/>
  <atv:overwrite height="78.001" id="id_6" transform="matrix(1,0,0,0.375,0,0)"/>
  <atv:overwrite id="button_label_2" transform="matrix(1,0,0,0.375,0,0)" y="51.501"/>
  <atv:overwrite id="button_label_1" transform="matrix(1,0,0,0.375,0,0)" y="36.501"/>
  <atv:overwrite id="button_label" transform="matrix(1,0,0,0.375,0,0)" y="44.501"/>
  <atv:overwrite id="button_symbol_bottom" transform="matrix(0.6,0,0,0.225,0,0)" y="67.96"/>
  <atv:overwrite id="button_symbol_top" transform="matrix(0.6,0,0,0.225,0,0)" y="46.627"/>
  <atv:overwrite id="button_symbol" transform="matrix(1,0,0,0.375,0,0)" y="30.001"/>
  <atv:overwrite height="76.001" id="button_stroke" transform="matrix(1,0,0,0.375,0,0)"/>
  <atv:overwrite height="78.001" id="button_bg" transform="matrix(1,0,0,0.375,0,0)"/>
  <atv:overwrite height="80.001" id="outer_frame" transform="matrix(1,0,0,0.375,0,0)"/>
 </svg>
 <text atv:refpx="216.043" atv:refpy="107.978" fill="#000000" font-family="Arial" font-size="48" id="hour" x="196" y="120.478">00</text>
 <text atv:refpx="309.662" atv:refpy="107.978" fill="#000000" font-family="Arial" font-size="48" id="min" x="290.662" y="120.478">00</text>
 <text atv:refpx="412.202" atv:refpy="107.978" fill="#000000" font-family="Arial" font-size="48" id="sec" x="393.202" y="120.478">00</text>
 <text atv:refpx="230.436" atv:refpy="32.479" fill="#000000" font-family="Arial" font-size="28" id="id_5" x="204.936" y="49.978">Hr</text>
 <text atv:refpx="332.135" atv:refpy="32.479" fill="#000000" font-family="Arial" font-size="28" id="id_7" x="294.878" y="49.978">Min</text>
 <text atv:refpx="434.344" atv:refpy="32.479" fill="#000000" font-family="Arial" font-size="28" id="id_8" x="394.195" y="49.978">Sec</text>
</svg>
