<?xml version='1.0' encoding='UTF-8' standalone='no'?>
<svg xmlns:xlink="http://www.w3.org/1999/xlink" xmlns="http://www.w3.org/2000/svg" version="1.2" height="50" width="50" xmlns:atv="http://webmi.atvise.com/2007/svgext">
 <defs/>
 <metadata>
  <atv:gridconfig height="20" width="20" gridstyle="lines" enabled="false"/>
  <atv:snapconfig height="10" width="10" enabled="false"/>
 </metadata>
 <g atv:refpy="25" transform="matrix(200,0,0,200,0,0)" id="id_2" atv:refpx="25">
  <svg atv:refpy="0.125" id="id_1" atv:refpx="0.125">
   <g>
    <g id="shape">
     <path d="M72.2,32.5h-4.5V27H49.5v5.5H45v-6c0-2.2,1.8-4,4-4h19.2c2.2,0,4,1.8,4,4V32.5z" fill="#999"/>
     <path d="M93.3,31.2H82.6c-1.2,0-2.2,1-2.2,2.2c0,0.4,0.1,0.8,0.3,1.2H36.5c0.2-0.3,0.3-0.7,0.3-1.2&#xd;&#xa;&#x9;&#x9;c0-1.2-1-2.2-2.2-2.2H23.9c-3.7,0-6.7,3-6.7,6.7v12c-0.2,0-0.5-0.1-0.7-0.1h-12c-2.5,0-4.5,2-4.5,4.5c0,2.5,2,4.5,4.5,4.5h12&#xd;&#xa;&#x9;&#x9;c0.2,0,0.5,0,0.7-0.1v12c0,3.7,3,6.7,6.7,6.7h10.6c1.2,0,2.2-1,2.2-2.2c0-0.4-0.1-0.8-0.3-1.2h44.3c-0.2,0.3-0.3,0.7-0.3,1.2&#xd;&#xa;&#x9;&#x9;c0,1.2,1,2.2,2.2,2.2h10.6c3.7,0,6.7-3,6.7-6.7V38C100,34.3,97,31.2,93.3,31.2z M95.5,70.8c0,1.2-1,2.2-2.2,2.2h-7.6&#xd;&#xa;&#x9;&#x9;c0.2-0.3,0.3-0.7,0.3-1.2c0-1.2-1-2.2-2.2-2.2H34.2c-1.2,0-2.2,1-2.2,2.2c0,0.4,0.1,0.8,0.3,1.2h-8.4c-1.2,0-2.2-1-2.2-2.2V38&#xd;&#xa;&#x9;&#x9;c0-1.2,1-2.2,2.2-2.2h8.4c-0.2,0.3-0.3,0.7-0.3,1.2c0,1.2,1,2.2,2.2,2.2h49.5c1.2,0,2.2-1,2.2-2.2c0-0.4-0.1-0.8-0.3-1.2h7.6&#xd;&#xa;&#x9;&#x9;c1.2,0,2.2,1,2.2,2.2V70.8z" fill="#999"/>
     <path d="M76.8,46H40.4c-1.2,0-2.2-1-2.2-2.2s1-2.2,2.2-2.2h36.3c1.2,0,2.2,1,2.2,2.2S78,46,76.8,46z" fill="#999"/>
     <path d="M76.8,53.1H40.4c-1.2,0-2.2-1-2.2-2.2s1-2.2,2.2-2.2h36.3c1.2,0,2.2,1,2.2,2.2S78,53.1,76.8,53.1z" fill="#999"/>
     <path d="M76.8,60.2H40.4c-1.2,0-2.2-1-2.2-2.2s1-2.2,2.2-2.2h36.3c1.2,0,2.2,1,2.2,2.2S78,60.2,76.8,60.2z" fill="#999"/>
     <path d="M76.8,67.3H40.4c-1.2,0-2.2-1-2.2-2.2c0-1.2,1-2.2,2.2-2.2h36.3c1.2,0,2.2,1,2.2,2.2&#xd;&#xa;&#x9;&#x9;C79,66.3,78,67.3,76.8,67.3z" fill="#999"/>
    </g>
   </g>
  </svg>
 </g>
</svg>
