<?xml version='1.0' encoding='UTF-8' standalone='no'?>
<svg width="60" x="0px" version="1.1" y="0px" xmlns="http://www.w3.org/2000/svg" height="60" xmlns:xlink="http://www.w3.org/1999/xlink" id="Ebene_1" enable-background="new 0 0 16 16" xml:space="preserve" xmlns:atv="http://webmi.atvise.com/2007/svgext">
 <defs>
  <linearGradient id="SVGID_1_" y1="0.136603" x1="-0.290145" y2="0.639639" gradientUnits="objectBoundingBox" x2="0.792871">
   <stop offset="0" style="stop-color:#9D9D9C"/>
   <stop offset="1" style="stop-color:#3C3C3B"/>
  </linearGradient>
  <linearGradient id="SVGID_2_" y1="0.0373166" x1="0.0373956" y2="1.06773" gradientUnits="objectBoundingBox" x2="0.933879">
   <stop offset="0" style="stop-color:#9D9D9C"/>
   <stop offset="1" style="stop-color:#3C3C3B"/>
  </linearGradient>
 </defs>
 <metadata>
  <atv:parameter desc="symbol color" valuetype="color" substitute="$SYMBOLCOLOR$" behavior="optional" name="symbolColor" defaultvalue="#000000"/>
  <atv:parameter desc="symbol color 2" valuetype="color" substitute="$SYMBOLCOLOR2$" behavior="optional" name="symbolColor2" defaultvalue="#FFFFFF"/>
 </metadata>
 <g id="id_5" atv:refpx="30" atv:refpy="30" transform="matrix(1,0,0,1,0.0658,3.2684)">
  <path fill="$SYMBOLCOLOR$" id="id_0" atv:refpx="101.824" atv:refpy="34.485" stroke-width="1.117" d="M48.235,22.797L48.195,46.165L48.379,46.165L59.021,23.198C59.123,22.976 58.959,22.803 58.662,22.803"/>
  <path fill="$SYMBOLCOLOR$" id="id_1" atv:refpx="23.506" atv:refpy="33.758" stroke-width="1.117" d="M45.592,12.461L21.383,12.461L21.383,7.582C21.383,7.271 21.129,7.021 20.813,7.021L4.242,7.021C3.929,7.021 3.676,7.271 3.676,7.582L3.676,12.461L1.41,12.461C1.097,12.461 0.847,12.714 0.847,13.027L0.847,45.875C0.847,46.191 1.097,46.442 1.41,46.442L45.592,46.442C45.911,46.442 46.162,46.191 46.162,45.875L46.162,13.027C46.162,12.714 45.911,12.461 45.592,12.461"/>
  <g id="id_13" atv:refpx="22.126" atv:refpy="23.57" transform="matrix(3.2557,0,0,3.2557,-4.3608,-6.2925)">
   <text x="8.779" y="17.353" fill="$SYMBOLCOLOR2$" font-family="Arial" id="id_2" font-weight="bold" atv:refpx="-4.931" atv:refpy="17.093" font-size="7" transform="matrix(0.5594,0,0,0.5594,2.1057,3.2397)">R</text>
   <polygon points="5.572,6.658 5.572,15.32 11.347,15.32 11.347,8.583 9.422,6.658" fill="none" stroke="$SYMBOLCOLOR2$" id="id_3" atv:refpx="13.936" stroke-width="0.385" atv:refpy="15.147"/>
   <polyline points="9.326,6.828 9.326,8.753 11.251,8.753" fill="$SYMBOLCOLOR2$" stroke="none" id="id_4" atv:refpx="26.452" stroke-width="0.385" atv:refpy="4.809"/>
   <rect width="2.618" x="6.24" y="8.382" fill="$SYMBOLCOLOR2$" height="0.28" stroke="none" id="id_6" atv:refpx="11.298" stroke-width="0.386" atv:refpy="13.918"/>
   <rect width="2.618" x="6.24" y="7.496" fill="$SYMBOLCOLOR2$" height="0.28" stroke="none" id="id_7" atv:refpx="11.299" stroke-width="0.386" atv:refpy="12.147"/>
   <rect width="4.441" x="6.24" y="9.267" fill="$SYMBOLCOLOR2$" height="0.28" stroke="none" id="id_8" atv:refpx="8.999" stroke-width="0.386" atv:refpy="19.701"/>
   <rect width="4.441" x="6.24" y="14.328" fill="$SYMBOLCOLOR2$" height="0.28" stroke="none" id="id_9" atv:refpx="9" stroke-width="0.386" atv:refpy="34.89"/>
   <rect width="4.441" x="6.24" y="13.539" fill="$SYMBOLCOLOR2$" height="0.28" stroke="none" id="id_11" atv:refpx="9" stroke-width="0.386" atv:refpy="32.522"/>
  </g>
 </g>
</svg>
