<svg xmlns:atv="http://webmi.atvise.com/2007/svgext" width="20" xmlns:xlink="http://www.w3.org/1999/xlink" xmlns="http://www.w3.org/2000/svg" height="20">
 <defs/>
 <metadata>
  <atv:parameter defaultvalue="#000000" behavior="optional" valuetype="color" name="symbolColor" desc="symbol color" substitute="$SYMBOLCOLOR$"/>
  <atv:gridconfig enabled="false" width="20" gridstyle="lines" height="20"/>
  <atv:snapconfig enabled="false" width="10" height="10"/>
 </metadata>
 <path fill="$SYMBOLCOLOR$" id="id_0" atv:refpy="0.294" d="M19.531,16.125C19.789,16.125 20,16.335 20,16.593L20,17.531C20,17.788 19.789,18 19.531,18L0.468,18C0.21,18 0,17.788 0,17.531L0,3.468C0,3.21 0.21,3 0.468,3L1.406,3C1.664,3 1.875,3.21 1.875,3.468L1.875,16.125ZM5.625,13.781L5.625,10.968C5.625,10.71 5.414,10.5 5.156,10.5L4.218,10.5C3.96,10.5 3.75,10.71 3.75,10.968L3.75,13.781C3.75,14.039 3.96,14.25 4.218,14.25L5.156,14.25C5.414,14.25 5.625,14.039 5.625,13.781M9.375,13.781L9.375,5.968C9.375,5.71 9.164,5.5 8.906,5.5L7.968,5.5C7.71,5.5 7.5,5.71 7.5,5.968L7.5,13.781C7.5,14.039 7.71,14.25 7.968,14.25L8.906,14.25C9.164,14.25 9.375,14.039 9.375,13.781M13.125,13.781L13.125,8.468C13.125,8.21 12.914,8 12.656,8L11.718,8C11.46,8 11.25,8.21 11.25,8.468L11.25,13.781C11.25,14.039 11.46,14.25 11.718,14.25L12.656,14.25C12.914,14.25 13.125,14.039 13.125,13.781M16.875,13.781L16.875,4.718C16.875,4.46 16.664,4.25 16.406,4.25L15.468,4.25C15.21,4.25 15,4.46 15,4.718L15,13.781C15,14.039 15.21,14.25 15.468,14.25L16.406,14.25C16.664,14.25 16.875,14.039 16.875,13.781" atv:refpx="0"/>
</svg>
