<?xml version='1.0' encoding='UTF-8' standalone='no'?>
<svg xmlns:atv="http://webmi.atvise.com/2007/svgext" xmlns:xlink="http://www.w3.org/1999/xlink" version="1.2" height="20" xmlns="http://www.w3.org/2000/svg" width="20">
 <defs/>
 <metadata>
  <atv:parameter desc="symbol color" behavior="optional" defaultvalue="#000000" name="symbolColor" substitute="$SYMBOLCOLOR$" valuetype="color"/>
  <atv:gridconfig gridstyle="lines" height="20" enabled="false" width="20"/>
  <atv:snapconfig height="10" enabled="false" width="10"/>
 </metadata>
 <g atv:refpx="10" transform="matrix(1,0,0,1,-119.143,-89.9995)" id="csv_button" atv:refpy="10">
  <path fill="$SYMBOLCOLOR$" d="M135.854,93.466L132.074,90.157L132.007,90.099L131.22,90.099L130.737,90.099L122.42,90.099L122.42,109.9L134.845,109.9L135.407,109.9L135.866,109.9L135.866,94.583L135.866,94.443L135.866,93.471ZM123.275,108.921L123.275,90.922L131.218,90.922L131.218,94.443L134.842,94.443L134.842,108.92Z" atv:refpx="129.144" id="id_2" atv:refpy="100"/>
  <rect fill="$SYMBOLCOLOR$" atv:refpx="126.991" height="0.979" x="124.358" y="92.173" id="id_3" atv:refpy="92.663" width="5.266"/>
  <rect fill="$SYMBOLCOLOR$" atv:refpx="126.991" height="0.979" x="124.358" y="94.132" id="id_4" atv:refpy="94.622" width="5.266"/>
  <rect fill="$SYMBOLCOLOR$" atv:refpx="129.141" height="0.979" x="124.414" y="96.091" id="id_5" atv:refpy="96.581" width="9.453"/>
  <rect fill="$SYMBOLCOLOR$" atv:refpx="129.084" height="0.979" x="124.358" y="103.048" id="id_6" atv:refpy="103.538" width="9.453"/>
  <rect fill="$SYMBOLCOLOR$" atv:refpx="129.084" height="0.979" x="124.358" y="106.966" id="id_7" atv:refpy="107.456" width="9.453"/>
  <rect fill="$SYMBOLCOLOR$" atv:refpx="129.084" height="0.979" x="124.358" y="105.007" id="id_8" atv:refpy="105.497" width="9.453"/>
  <path fill="$SYMBOLCOLOR$" d="M126.517,100.528L127.197,100.744C127.093,101.123 126.92,101.404 126.677,101.586C126.435,101.772 126.127,101.863 125.756,101.863C125.295,101.863 124.916,101.705 124.619,101.39C124.322,101.075 124.175,100.646 124.175,100.099C124.175,99.522 124.324,99.073 124.621,98.754C124.92,98.434 125.311,98.275 125.797,98.275C126.222,98.275 126.567,98.4 126.832,98.651C126.988,98.798 127.107,99.012 127.186,99.29L126.494,99.456C126.453,99.277 126.368,99.135 126.237,99.03C126.107,98.926 125.949,98.874 125.762,98.874C125.505,98.874 125.297,98.964 125.137,99.151C124.977,99.335 124.897,99.634 124.897,100.048C124.897,100.486 124.975,100.798 125.133,100.986C125.291,101.172 125.496,101.263 125.748,101.263C125.934,101.263 126.094,101.204 126.228,101.087C126.362,100.969 126.459,100.783 126.517,100.528" atv:refpx="125.686" id="id_9" atv:refpy="100.069"/>
  <path fill="$SYMBOLCOLOR$" d="M127.619,100.674L128.3,100.61C128.341,100.839 128.424,101.006 128.55,101.114C128.675,101.221 128.844,101.274 129.058,101.274C129.282,101.274 129.453,101.227 129.567,101.131C129.681,101.035 129.738,100.924 129.738,100.795C129.738,100.713 129.715,100.645 129.667,100.587C129.619,100.529 129.535,100.479 129.413,100.437C129.332,100.408 129.145,100.357 128.854,100.285C128.478,100.193 128.214,100.079 128.062,99.943C127.851,99.752 127.744,99.52 127.744,99.244C127.744,99.068 127.795,98.903 127.894,98.749C127.995,98.595 128.138,98.478 128.328,98.397C128.514,98.316 128.744,98.276 129.008,98.276C129.446,98.276 129.774,98.372 129.993,98.562C130.213,98.753 130.328,99.007 130.34,99.327L129.639,99.357C129.61,99.179 129.544,99.051 129.448,98.972C129.348,98.895 129.201,98.856 129.005,98.856C128.8,98.856 128.642,98.897 128.526,98.98C128.452,99.034 128.413,99.105 128.413,99.196C128.413,99.277 128.449,99.348 128.519,99.407C128.608,99.481 128.822,99.558 129.163,99.637C129.505,99.719 129.757,99.801 129.919,99.887C130.083,99.973 130.211,100.091 130.304,100.24C130.395,100.389 130.443,100.573 130.443,100.792C130.443,100.991 130.387,101.179 130.276,101.351C130.168,101.526 130.008,101.654 129.808,101.738C129.607,101.823 129.354,101.865 129.054,101.865C128.615,101.865 128.279,101.763 128.043,101.56C127.807,101.357 127.665,101.063 127.619,100.674" atv:refpx="129.031" id="id_10" atv:refpy="100.071"/>
  <path fill="$SYMBOLCOLOR$" d="M131.914,101.803L130.673,98.336L131.433,98.336L132.31,100.902L133.16,98.336L133.903,98.336L132.661,101.803Z" atv:refpx="132.289" id="id_11" atv:refpy="100.07"/>
 </g>
</svg>
