<?xml version='1.0' encoding='UTF-8' standalone='no'?>
<svg xmlns:xlink="http://www.w3.org/1999/xlink" xmlns="http://www.w3.org/2000/svg" version="1.2" height="50" width="50" xmlns:atv="http://webmi.atvise.com/2007/svgext">
 <defs/>
 <metadata>
  <atv:gridconfig height="20" width="20" gridstyle="lines" enabled="false"/>
  <atv:snapconfig height="10" width="10" enabled="false"/>
 </metadata>
 <g atv:refpy="25" transform="matrix(200,0,0,200,0,0)" id="id_2" atv:refpx="25">
  <svg atv:refpy="0.125" id="id_1" atv:refpx="0.125">
   <g>
    <g id="frame">
     <rect height="100" width="100" fill="none"/>
    </g>
    <g id="shape">
     <rect height="19" width="5.667" fill="#999" y="40.5"/>
     <rect height="19" x="94.333" width="5.667" fill="#999" y="40.5"/>
     <rect height="16" width="100" fill="#999" y="42"/>
     <circle cy="50" cx="50" r="27.5" fill="#999"/>
    </g>
    <g id="dark">
     <rect height="13.988" width="100" fill="#808080" y="43.006"/>
     <circle cy="50" cx="50" r="26.5" fill="#808080"/>
    </g>
    <g id="light">
     <path d="M50,28.5c-11.874,0-21.5,9.626-21.5,21.5S38.126,71.5,50,71.5S71.5,61.874,71.5,50S61.874,28.5,50,28.5z&#xd;&#xa;&#x9;&#x9; M50,70c-11.046,0-20-8.954-20-20s8.954-20,20-20s20,8.954,20,20S61.046,70,50,70z" fill="#b2b2b2"/>
     <rect height="9.992" width="100" fill="#b2b2b2" y="45.004"/>
    </g>
    <g id="hlight">
     <polygon fill="#ccc" points="30.839,46.5 0,46.5 0,53.5 31.03,53.5 73.22,53.5 100,53.5 100,46.5 73.411,46.5 &#x9;&#x9;"/>
    </g>
   </g>
  </svg>
 </g>
</svg>
