<?xml version='1.0' encoding='UTF-8' standalone='no'?>
<svg width="198.2265" xmlns:cc="http://creativecommons.org/ns#" xmlns:svg="http://www.w3.org/2000/svg" xmlns:dc="http://purl.org/dc/elements/1.1/" xmlns="http://www.w3.org/2000/svg" xmlns:sodipodi="http://sodipodi.sourceforge.net/DTD/sodipodi-0.dtd" xmlns:inkscape="http://www.inkscape.org/namespaces/inkscape" sodipodi:docname="Gears_blue.svg" inkscape:version="1.0beta1 (d07a077, 2019-11-03)" id="svg101" xmlns:atv="http://webmi.atvise.com/2007/svgext" xmlns:xlink="http://www.w3.org/1999/xlink" height="166.88707" xmlns:rdf="http://www.w3.org/1999/02/22-rdf-syntax-ns#" version="1.1">
 <defs id="defs95"/>
 <sodipodi:namedview inkscape:window-width="1644" inkscape:document-units="mm" inkscape:current-layer="layer1" inkscape:window-maximized="0" inkscape:document-rotation="0" showgrid="false" inkscape:window-height="951" inkscape:window-x="104" inkscape:pageshadow="2" id="base" borderopacity="1.0" inkscape:cx="643.17271" inkscape:cy="411.09143" inkscape:zoom="0.35" bordercolor="#666666" pagecolor="#ffffff" inkscape:window-y="23" inkscape:pageopacity="0.0"/>
 <metadata id="metadata98">
  <rdf:RDF>
   <cc:Work rdf:about="">
    <dc:format>image/svg+xml</dc:format>
    <dc:type rdf:resource="http://purl.org/dc/dcmitype/StillImage"/>
    <dc:title/>
   </cc:Work>
  </rdf:RDF>
  <atv:gridconfig width="20" gridstyle="lines" enabled="false" height="20"/>
  <atv:snapconfig width="10" enabled="false" height="10"/>
 </metadata>
 <g inkscape:label="Слой 1" inkscape:groupmode="layer" id="layer1" atv:refpx="99.113" transform="translate(64.339447,-39.398726)" atv:refpy="83.444">
  <g id="g153" atv:refpx="34.774" transform="matrix(2.0273949,0,0,1.9624538,-66.672979,25.039452)" atv:refpy="122.842">
   <g id="light" atv:refpx="79.244" atv:refpy="26.998">
    <path id="path147" atv:refpx="79.244" fill="#96c9eb" d="M98.272,20.598L93.567,19.695C93.312,19.195 93.034,18.709 92.73,18.241L94.299,13.722C93.743,13.092 93.149,12.498 92.519,11.942L88,13.512C87.532,13.207 87.046,12.93 86.546,12.675L85.644,7.97C84.856,7.705 84.047,7.484 83.218,7.317L80.074,10.952C79.797,10.938 79.524,10.91 79.244,10.91C78.964,10.91 78.69,10.938 78.414,10.952L75.27,7.317C74.441,7.483 73.633,7.705 72.844,7.97L71.942,12.675C71.442,12.93 70.955,13.208 70.488,13.512L65.969,11.943C65.339,12.499 64.744,13.093 64.188,13.723L65.758,18.242C65.452,18.71 65.176,19.196 64.92,19.696L60.215,20.598C59.95,21.386 59.73,22.195 59.562,23.024L63.197,26.168C63.183,26.445 63.155,26.718 63.155,26.997C63.155,27.278 63.183,27.551 63.197,27.827L59.562,30.971C59.728,31.8 59.95,32.608 60.215,33.397L64.92,34.3C65.175,34.8 65.453,35.285 65.758,35.754L64.188,40.272C64.744,40.903 65.339,41.496 65.969,42.053L70.488,40.483C70.956,40.788 71.442,41.065 71.942,41.321L72.844,46.025C73.631,46.291 74.44,46.511 75.27,46.678L78.414,43.044C78.691,43.058 78.964,43.086 79.244,43.086C79.524,43.086 79.798,43.058 80.074,43.044L83.218,46.678C84.047,46.513 84.855,46.291 85.644,46.025L86.546,41.321C87.046,41.065 87.532,40.788 88,40.483L92.519,42.053C93.149,41.497 93.743,40.903 94.299,40.272L92.73,35.754C93.035,35.286 93.312,34.8 93.567,34.3L98.271,33.397C98.536,32.61 98.758,31.8 98.925,30.971L95.29,27.828C95.304,27.551 95.332,27.278 95.332,26.998C95.332,26.718 95.304,26.444 95.29,26.168L98.925,23.024C98.758,22.195 98.537,21.386 98.272,20.598M79.242,32.183C76.378,32.183 74.056,29.862 74.056,26.997C74.056,24.133 76.378,21.811 79.242,21.811C82.106,21.811 84.428,24.133 84.428,26.997C84.429,29.862 82.107,32.183 79.242,32.183" inkscape:connector-curvature="0" atv:refpy="26.998"/>
   </g>
   <g id="dark" atv:refpx="36.495" atv:refpy="57.015">
    <path id="path150" atv:refpx="36.495" fill="#61859c" d="M68.05,57.016C68.05,56.705 68.035,56.397 68.027,56.089L71.836,53.492C71.762,52.744 71.661,52.005 71.542,51.271L67.2,49.752C67.057,49.144 66.899,48.542 66.721,47.948L69.721,44.462C69.456,43.762 69.167,43.074 68.86,42.395L64.282,42.052C63.986,41.503 63.671,40.965 63.343,40.436L65.334,36.3C64.897,35.692 64.446,35.095 63.974,34.516L59.447,35.373C59.022,34.922 58.585,34.485 58.135,34.061L58.992,29.535C58.413,29.061 57.815,28.611 57.208,28.173L53.072,30.165C52.543,29.837 52.005,29.523 51.456,29.226L51.113,24.648C50.435,24.341 49.746,24.052 49.046,23.787L45.56,26.787C44.966,26.609 44.364,26.451 43.756,26.308L42.237,21.967C41.504,21.848 40.764,21.747 40.016,21.673L37.419,25.482C37.111,25.473 36.803,25.459 36.492,25.459C36.181,25.459 35.874,25.474 35.565,25.482L32.968,21.673C32.22,21.747 31.481,21.848 30.747,21.967L29.228,26.308C28.62,26.451 28.018,26.609 27.424,26.787L23.938,23.787C23.238,24.052 22.55,24.341 21.871,24.648L21.528,29.226C20.979,29.522 20.441,29.837 19.912,30.165L15.776,28.173C15.168,28.61 14.571,29.061 13.993,29.534L14.849,34.06C14.399,34.485 13.961,34.922 13.537,35.372L9.012,34.516C8.538,35.094 8.088,35.692 7.651,36.299L9.643,40.435C9.315,40.964 9.001,41.502 8.704,42.051L4.126,42.394C3.819,43.072 3.53,43.76 3.265,44.461L6.265,47.946C6.087,48.541 5.929,49.143 5.786,49.751L1.445,51.27C1.326,52.003 1.225,52.743 1.151,53.491L4.96,56.088C4.951,56.397 4.937,56.704 4.937,57.015C4.937,57.326 4.952,57.633 4.96,57.942L1.15,60.539C1.224,61.287 1.325,62.026 1.444,62.76L5.786,64.279C5.928,64.887 6.087,65.489 6.265,66.083L3.264,69.569C3.53,70.269 3.819,70.957 4.125,71.636L8.704,71.979C9,72.528 9.315,73.066 9.643,73.595L7.651,77.731C8.088,78.339 8.539,78.936 9.013,79.514L13.539,78.658C13.964,79.108 14.401,79.546 14.851,79.97L13.995,84.496C14.573,84.97 15.171,85.42 15.778,85.857L19.914,83.865C20.443,84.193 20.981,84.506 21.53,84.803L21.873,89.381C22.551,89.689 23.24,89.978 23.94,90.243L27.426,87.243C28.02,87.42 28.622,87.579 29.23,87.722L30.749,92.062C31.482,92.181 32.222,92.282 32.97,92.356L35.567,88.547C35.876,88.556 36.183,88.57 36.494,88.57C36.805,88.57 37.112,88.555 37.421,88.547L40.018,92.356C40.766,92.282 41.505,92.181 42.239,92.062L43.758,87.722C44.366,87.579 44.968,87.42 45.562,87.243L49.048,90.243C49.748,89.978 50.436,89.689 51.115,89.381L51.458,84.803C52.007,84.507 52.545,84.192 53.074,83.865L57.21,85.857C57.818,85.42 58.415,84.969 58.994,84.495L58.138,79.969C58.588,79.544 59.026,79.107 59.45,78.657L63.976,79.513C64.45,78.935 64.9,78.337 65.337,77.729L63.346,73.593C63.674,73.064 63.988,72.526 64.285,71.977L68.863,71.634C69.17,70.956 69.459,70.268 69.724,69.567L66.724,66.081C66.902,65.487 67.06,64.885 67.203,64.277L71.544,62.758C71.663,62.025 71.764,61.285 71.838,60.537L68.029,57.94C68.035,57.634 68.05,57.326 68.05,57.016M36.492,63.051C33.159,63.051 30.456,60.349 30.456,57.016C30.456,53.683 33.159,50.981 36.492,50.981C39.824,50.981 42.527,53.683 42.527,57.016C42.527,60.349 39.825,63.051 36.492,63.051" inkscape:connector-curvature="0" atv:refpy="57.015"/>
   </g>
  </g>
 </g>
</svg>
