<?xml version='1.0' encoding='UTF-8' standalone='no'?>
<svg height="150" version="1.2" width="500" xmlns="http://www.w3.org/2000/svg" xmlns:atv="http://webmi.atvise.com/2007/svgext" xmlns:xlink="http://www.w3.org/1999/xlink">
 <defs/>
 <metadata>
  <atv:parameter behavior="optional" defaultvalue="#1f1f1f" name="color_frame" substitute="$f_color$" valuetype="color"/>
  <atv:parameter behavior="optional" defaultvalue="#1f1f1f" name="color_background" substitute="$b_color$" valuetype="color"/>
  <atv:parameter behavior="optional" defaultvalue="Отмена" name="text_button_cancel" valuetype="string"/>
  <atv:parameter behavior="optional" defaultvalue="Удалить данный PDF" name="step" valuetype="string"/>
  <atv:parameter behavior="optional" defaultvalue="Да" name="text_button_ok" valuetype="string"/>
  <atv:parameter behavior="optional" defaultvalue="Врехний текст" desc="" name="top_text" substitute="$toptext$" valuetype="string"/>
  <atv:gridconfig enabled="true" gridstyle="lines" height="20" width="20"/>
  <atv:snapconfig enabled="false" height="10" width="10"/>
 </metadata>
 <g atv:insensitive="true" atv:refpx="0" atv:refpy="0" id="id_2">
  <rect atv:refpx="250" atv:refpy="75" fill="#1f1f1f" height="150.00" id="id_4" width="500.00" x="0" y="0"/>
 </g>
 <script atv:desc="" atv:name="" type="text/ecmascript"><![CDATA[webMI.gfx.setText("text_1",webMI.query.text_button_ok+"?");

webMI.trigger.connect("clicked", function(e) {
var id = "but_ok";
var value = e.value;
	
	if(webMI.query.mode=="one") {
	webMI.trigger.fire("delete_pdf",true);
	}
	
	closePopup()
}, "but_ok");

webMI.trigger.connect("clicked", function(e) {
var id = "but_cancel";
var value = e.value;	
	closePopup()
}, "but_cancel");

function closePopup(){
	webMI.display.closeWindow();
}]]></script>
 <svg atv:refpx="350.665" atv:refpy="117.551" height="30" id="but_ok" transform="matrix(2.3358,0,0,1.5,0,0)" width="80" x="117.407" xlink:href="SYSTEM.LIBRARY.ATVISE.OBJECTDISPLAYS.Advanced.button" y="63.263">
  <atv:argument name="label" prefix="text_button_ok" value=""/>
  <atv:argument name="fontColor" value="SYSTEM.GLOBALS.plan.FontColor"/>
  <atv:argument name="fontSize" value="16"/>
  <atv:argument name="fillColor" value="SYSTEM.GLOBALS.plan.BlueColor"/>
  <atv:overwrite height="43" id="id_6" transform="matrix(0.4281,0,0,0.6667,0,0)" width="184.864"/>
  <atv:overwrite id="button_symbol" transform="matrix(0.4281,0,0,0.6667,0,0)" x="83.432" y="12.5"/>
  <atv:overwrite id="button_label_2" transform="matrix(0.4281,0,0,0.6667,0,0)" x="93.432" y="34"/>
  <atv:overwrite id="button_label_1" transform="matrix(0.4281,0,0,0.6667,0,0)" x="93.432" y="19"/>
  <atv:overwrite id="button_label" transform="matrix(0.4281,0,0,0.6667,0,0)" x="93.432" y="27"/>
  <atv:overwrite height="41" id="button_stroke" transform="matrix(0.4281,0,0,0.6667,0,0)" width="182.864"/>
  <atv:overwrite height="43" id="button_bg" transform="matrix(0.4281,0,0,0.6667,0,0)" width="184.864"/>
  <atv:overwrite height="45" id="outer_frame" transform="matrix(0.4281,0,0,0.6667,0,0)" width="186.864"/>
 </svg>
 <text atv:refpx="306.414" atv:refpy="-44.144" fill="#ffffff" font-family="Arial" font-size="20" font-weight="bold" id="text_1" text-anchor="middle" x="312.89" y="-36.644"/>
 <svg atv:refpx="117.427" atv:refpy="116.497" height="30" id="but_cancel" transform="matrix(2.3358,0,0,1.5,0,0)" width="80" x="16.697" xlink:href="SYSTEM.LIBRARY.ATVISE.OBJECTDISPLAYS.Advanced.button" y="63.227">
  <atv:argument name="label" prefix="text_button_cancel" value=""/>
  <atv:argument name="fontColor" value="SYSTEM.GLOBALS.plan.FontColor"/>
  <atv:argument name="fontSize" value="16"/>
  <atv:argument name="fillColor" value="SYSTEM.GLOBALS.plan.BlueColor"/>
  <atv:overwrite height="43" id="id_6" transform="matrix(0.4281,0,0,0.6667,0,0)" width="184.864"/>
  <atv:overwrite id="button_symbol" transform="matrix(0.4281,0,0,0.6667,0,0)" x="83.432" y="12.5"/>
  <atv:overwrite id="button_label_2" transform="matrix(0.4281,0,0,0.6667,0,0)" x="93.432" y="34"/>
  <atv:overwrite id="button_label_1" transform="matrix(0.4281,0,0,0.6667,0,0)" x="93.432" y="19"/>
  <atv:overwrite id="button_label" transform="matrix(0.4281,0,0,0.6667,0,0)" x="93.432" y="27"/>
  <atv:overwrite height="41" id="button_stroke" transform="matrix(0.4281,0,0,0.6667,0,0)" width="182.864"/>
  <atv:overwrite height="43" id="button_bg" transform="matrix(0.4281,0,0,0.6667,0,0)" width="184.864"/>
  <atv:overwrite height="45" id="outer_frame" transform="matrix(0.4281,0,0,0.6667,0,0)" width="186.864"/>
 </svg>
 <text atv:refpx="247.179" atv:refpy="39.246" fill="#ffffff" font-family="Arial" font-size="20" font-weight="bold" id="id_3" text-anchor="middle" x="253.179" y="46.246">$toptext$</text>
</svg>
