<?xml version='1.0' encoding='UTF-8' standalone='no'?>
<svg xmlns:atv="http://webmi.atvise.com/2007/svgext" enable-background="new 0 0 72 72" xmlns:xlink="http://www.w3.org/1999/xlink" version="1.1" height="20" xmlns="http://www.w3.org/2000/svg" x="0px" y="0px" id="Ebene_1" xml:space="preserve" width="20">
 <defs/>
 <metadata>
  <atv:parameter desc="symbol color" behavior="optional" defaultvalue="#000000" name="symbolColor" substitute="$SYMBOLCOLOR$" valuetype="color"/>
  <atv:gridconfig gridstyle="lines" height="20" enabled="false" width="20"/>
  <atv:snapconfig height="10" enabled="false" width="10"/>
 </metadata>
 <path fill="$SYMBOLCOLOR$" d="M17.368,9.378L15.378,7.177L15.378,2.596L12.816,2.596L12.816,4.343L10.336,1.597C10.164,1.405 9.834,1.405 9.661,1.597L2.631,9.378C2.51,9.511 2.48,9.704 2.552,9.868C2.625,10.032 2.789,10.138 2.967,10.138L4.368,10.138L4.368,18.091C4.368,18.343 4.57,18.546 4.823,18.546L15.128,18.546C15.379,18.546 15.584,18.343 15.584,18.091L15.584,10.138L17.03,10.138C17.21,10.138 17.373,10.032 17.446,9.868C17.519,9.703 17.489,9.511 17.368,9.378" atv:refpx="10" id="id_0" atv:refpy="10"/>
</svg>
