<svg width="278" height="127" viewBox="0 0 278 127" fill="none" xmlns="http://www.w3.org/2000/svg">
<path d="M155.214 12.4377L131.65 2.66845L131.696 18.3625C132.736 18.4982 133.641 18.9505 134.319 19.6289C134.636 19.9455 134.907 20.3526 135.133 20.7596L155.214 12.4377V12.4377ZM131.063 0L144.54 5.60826L158.064 11.1713L163.627 24.6944L169.235 38.1724L163.627 51.6503L158.064 65.1734L144.54 70.7365L131.063 76.3447L117.585 70.7365L104.061 65.1734L98.4984 51.6503L92.8902 38.1724L98.4984 24.6944L104.061 11.1713L117.585 5.60826L131.063 0V0ZM120.298 45.3636C120.615 45.3636 120.886 45.4088 121.158 45.4993L128.982 26.6392C128.62 26.4131 128.304 26.187 128.032 25.9156C127.49 25.3729 127.082 24.7397 126.902 23.9708L111.524 25.4181C111.479 26.4131 111.027 27.3177 110.393 27.9509C110.258 28.0865 110.122 28.2222 109.986 28.3127L119.484 45.4541C119.756 45.4088 120.027 45.3636 120.298 45.3636V45.3636ZM122.153 45.9516C122.334 46.0872 122.514 46.1777 122.65 46.3586C123.148 46.8109 123.464 47.4441 123.6 48.1677L137.123 47.9868C137.304 46.9014 137.801 45.9063 138.57 45.1375C138.932 44.7756 139.294 44.5043 139.746 44.2329L132.6 27.0011C132.148 27.1368 131.65 27.2272 131.153 27.2272C130.746 27.2272 130.384 27.182 129.977 27.0463L122.153 45.9516V45.9516ZM123.555 49.2984C123.464 49.9768 123.102 50.5648 122.65 51.0171C122.469 51.198 122.334 51.3337 122.107 51.4694L131.243 73.5406L139.656 53.2785C139.249 53.0523 138.887 52.781 138.57 52.4644C137.711 51.6051 137.123 50.4291 137.078 49.1175L123.555 49.2984ZM121.112 51.9216C120.841 51.9669 120.57 52.0121 120.298 52.0121C119.62 52.0121 118.941 51.786 118.399 51.4241L106.323 63.6809L130.022 73.4954L121.112 51.9216ZM117.63 50.61C117.223 50.0673 116.997 49.4341 116.997 48.7105C116.997 48.4391 116.997 48.213 117.087 47.9416L95.6943 39.1221L105.554 62.8668L117.63 50.61V50.61ZM117.494 46.9014C117.63 46.7204 117.766 46.5395 117.946 46.3586C118.127 46.1777 118.263 46.042 118.489 45.9516L108.991 28.8554C108.584 29.0363 108.087 29.1268 107.634 29.1268C106.73 29.1268 105.916 28.8102 105.283 28.3127L95.7395 37.901L117.494 46.9014V46.9014ZM155.486 22.9758C155.802 23.1115 156.074 23.2924 156.3 23.5185C156.752 23.9708 157.023 24.604 157.023 25.2824C157.023 25.7799 156.888 26.2322 156.616 26.594L165.843 35.8657L156.978 14.4729L155.486 22.9758V22.9758ZM155.847 27.4081C155.44 27.6343 154.988 27.7699 154.491 27.7699C154.264 27.7699 154.038 27.7247 153.812 27.6795L144.631 44.2329C145.128 44.459 145.535 44.7756 145.897 45.1375C146.214 45.4541 146.485 45.7707 146.711 46.1777L166.386 37.9914L155.847 27.4081V27.4081ZM152.817 27.1368C152.817 27.0915 152.772 27.0915 152.727 27.0463C152.365 26.6845 152.093 26.187 152.048 25.599L135.404 24.0613C135.223 24.7849 134.816 25.4181 134.319 25.9156C134.093 26.1417 133.867 26.3226 133.595 26.5036L140.787 43.8259C141.239 43.6902 141.736 43.5997 142.234 43.5997C142.686 43.5997 143.184 43.6902 143.591 43.7806L152.817 27.1368V27.1368ZM152.139 24.5135C152.274 24.1065 152.455 23.7899 152.727 23.5185C153.179 23.0662 153.722 22.7949 154.4 22.7949L156.074 13.297L135.495 21.7999C135.585 22.1165 135.631 22.433 135.631 22.7496C135.631 22.8401 135.631 22.8853 135.631 22.9758L152.139 24.5135V24.5135ZM126.721 22.8853C126.721 22.8401 126.721 22.7949 126.721 22.7496C126.721 22.4783 126.766 22.1617 126.811 21.8903L106.097 13.297L107.499 21.3023C107.544 21.3023 107.589 21.3023 107.634 21.3023C108.675 21.3023 109.67 21.7546 110.393 22.433C110.891 22.9306 111.253 23.5637 111.388 24.2874L126.721 22.8853ZM127.173 20.8048C127.399 20.3978 127.67 19.9907 128.032 19.6289C128.711 18.9505 129.57 18.4982 130.565 18.3625L130.52 2.66845L106.911 12.4377L127.173 20.8048ZM104.514 27.5438C104.016 26.9106 103.7 26.0965 103.7 25.192C103.7 24.1517 104.152 23.1567 104.876 22.433C105.283 22.026 105.825 21.7094 106.413 21.4833L105.147 14.4277L96.3275 35.7753L104.514 27.5438V27.5438ZM147.164 47.1727C147.345 47.7155 147.435 48.2582 147.435 48.8009C147.435 50.0673 146.983 51.198 146.214 52.1026L156.571 62.8668L166.386 39.2126L147.164 47.1727V47.1727ZM145.4 52.9167C144.54 53.5951 143.41 54.0021 142.234 54.0021C141.691 54.0021 141.148 53.9117 140.651 53.7308L132.555 73.3145L155.802 63.6809L145.4 52.9167V52.9167ZM0.0372314 127V124.015H2.97705V127H0.0372314ZM3.51978 127V124.015H6.4596V127H3.51978V127ZM7.00233 127V124.015H9.94215V127H7.00233ZM3.51978 123.517V120.578H6.4596V123.517H3.51978V123.517ZM3.51978 120.035V117.095H6.4596V120.035H3.51978V120.035ZM3.51978 116.552V113.613H6.4596V116.552H3.51978V116.552ZM3.51978 113.115V110.13H6.4596V113.115H3.51978V113.115ZM3.51978 109.632V106.693H6.4596V109.632H3.51978V109.632ZM0.0372314 106.15V103.21H2.97705V106.15H0.0372314ZM3.51978 106.15V103.21H6.4596V106.15H3.51978V106.15ZM7.00233 106.15V103.21H9.94215V106.15H7.00233ZM19.9827 127V124.015H22.9678V127H19.9827ZM33.9129 127V124.015H36.8528V127H33.9129ZM19.9827 123.517V120.578H22.9678V123.517H19.9827ZM30.4304 123.517V120.578H33.3702V123.517H30.4304ZM19.9827 120.035V117.095H22.9678V120.035H19.9827ZM26.9478 120.035V117.095H29.8877V120.035H26.9478ZM19.9827 116.552V113.613H22.9678V116.552H19.9827ZM23.4653 116.552V113.613H26.4051V116.552H23.4653ZM26.9478 116.552V113.613H29.8877V116.552H26.9478ZM30.4304 116.552V113.613H33.3702V116.552H30.4304ZM19.9827 113.115V110.13H22.9678V113.115H19.9827ZM33.9129 113.115V110.13H36.8528V113.115H33.9129ZM19.9827 109.632V106.693H22.9678V109.632H19.9827ZM33.9129 109.632V106.693H36.8528V109.632H33.9129ZM19.9827 106.15V103.21H22.9678V106.15H19.9827ZM23.4653 106.15V103.21H26.4051V106.15H23.4653ZM26.9478 106.15V103.21H29.8877V106.15H26.9478ZM30.4304 106.15V103.21H33.3702V106.15H30.4304ZM43.456 116.552V113.613H46.3958V116.552H43.456ZM46.8934 116.552V113.613H49.8784V116.552H46.8934ZM50.3759 116.552V113.613H53.3157V116.552H50.3759ZM53.8585 116.552V113.613H56.7983V116.552H53.8585ZM57.341 116.552V113.613H60.2808V116.552H57.341ZM66.8841 127V124.015H69.8239V127H66.8841ZM80.7691 127V124.015H83.7089V127H80.7691ZM66.8841 123.517V120.578H69.8239V123.517H66.8841ZM80.7691 123.517V120.578H83.7089V123.517H80.7691ZM66.8841 120.035V117.095H69.8239V120.035H66.8841ZM80.7691 120.035V117.095H83.7089V120.035H80.7691ZM66.8841 116.552V113.613H69.8239V116.552H66.8841ZM73.8492 116.552V113.613H76.789V116.552H73.8492ZM80.7691 116.552V113.613H83.7089V116.552H80.7691ZM66.8841 113.115V110.13H69.8239V113.115H66.8841ZM73.8492 113.115V110.13H76.789V113.115H73.8492ZM80.7691 113.115V110.13H83.7089V113.115H80.7691ZM66.8841 109.632V106.693H69.8239V109.632H66.8841ZM70.3666 109.632V106.693H73.3065V109.632H70.3666V109.632ZM77.2865 109.632V106.693H80.2263V109.632H77.2865ZM80.7691 109.632V106.693H83.7089V109.632H80.7691ZM66.8841 106.15V103.21H69.8239V106.15H66.8841ZM80.7691 106.15V103.21H83.7089V106.15H80.7691ZM90.3122 127V124.015H93.252V127H90.3122ZM104.197 127V124.015H107.137V127H104.197ZM90.3122 123.517V120.578H93.252V123.517H90.3122ZM104.197 123.517V120.578H107.137V123.517H104.197ZM90.3122 120.035V117.095H93.252V120.035H90.3122ZM93.7947 120.035V117.095H96.7345V120.035H93.7947ZM97.2773 120.035V117.095H100.217V120.035H97.2773ZM100.76 120.035V117.095H103.7V120.035H100.76ZM104.197 120.035V117.095H107.137V120.035H104.197ZM90.3122 116.552V113.613H93.252V116.552H90.3122ZM104.197 116.552V113.613H107.137V116.552H104.197ZM90.3122 113.115V110.13H93.252V113.115H90.3122ZM104.197 113.115V110.13H107.137V113.115H104.197ZM90.3122 109.632V106.693H93.252V109.632H90.3122ZM104.197 109.632V106.693H107.137V109.632H104.197ZM93.7947 106.15V103.21H96.7345V106.15H93.7947ZM97.2773 106.15V103.21H100.217V106.15H97.2773ZM100.76 106.15V103.21H103.7V106.15H100.76ZM113.74 127V124.015H116.725V127H113.74ZM117.223 127V124.015H120.163V127H117.223ZM120.705 127V124.015H123.645V127H120.705ZM124.188 127V124.015H127.128V127H124.188ZM127.67 123.517V120.578H130.61V123.517H127.67ZM127.67 120.035V117.095H130.61V120.035H127.67ZM117.223 116.552V113.613H120.163V116.552H117.223ZM120.705 116.552V113.613H123.645V116.552H120.705ZM124.188 116.552V113.613H127.128V116.552H124.188ZM113.74 113.115V110.13H116.725V113.115H113.74ZM113.74 109.632V106.693H116.725V109.632H113.74ZM117.223 106.15V103.21H120.163V106.15H117.223ZM120.705 106.15V103.21H123.645V106.15H120.705ZM124.188 106.15V103.21H127.128V106.15H124.188ZM127.67 106.15V103.21H130.61V106.15H127.67ZM144.133 127V124.015H147.073V127H144.133ZM144.133 123.517V120.578H147.073V123.517H144.133ZM144.133 120.035V117.095H147.073V120.035H144.133ZM144.133 116.552V113.613H147.073V116.552H144.133ZM144.133 113.115V110.13H147.073V113.115H144.133ZM144.133 109.632V106.693H147.073V109.632H144.133ZM137.214 106.15V103.21H140.153V106.15H137.214ZM140.651 106.15V103.21H143.636V106.15H140.651ZM144.133 106.15V103.21H147.073V106.15H144.133ZM147.616 106.15V103.21H150.556V106.15H147.616ZM151.098 106.15V103.21H154.038V106.15H151.098ZM160.642 127V124.015H163.581V127H160.642ZM164.124 127V124.015H167.064V127H164.124ZM167.561 127V124.015H170.546V127H167.561ZM171.044 127V124.015H173.984V127H171.044ZM174.527 127V124.015H177.466V127H174.527ZM160.642 123.517V120.578H163.581V123.517H160.642ZM160.642 120.035V117.095H163.581V120.035H160.642ZM160.642 116.552V113.613H163.581V116.552H160.642ZM164.124 116.552V113.613H167.064V116.552H164.124ZM167.561 116.552V113.613H170.546V116.552H167.561ZM171.044 116.552V113.613H173.984V116.552H171.044ZM160.642 113.115V110.13H163.581V113.115H160.642ZM160.642 109.632V106.693H163.581V109.632H160.642ZM160.642 106.15V103.21H163.581V106.15H160.642ZM164.124 106.15V103.21H167.064V106.15H164.124ZM167.561 106.15V103.21H170.546V106.15H167.561ZM171.044 106.15V103.21H173.984V106.15H171.044ZM174.527 106.15V103.21H177.466V106.15H174.527ZM184.07 127V124.015H187.009V127H184.07ZM197.955 127V124.015H200.894V127H197.955ZM184.07 123.517V120.578H187.009V123.517H184.07ZM194.472 123.517V120.578H197.457V123.517H194.472ZM184.07 120.035V117.095H187.009V120.035H184.07ZM191.035 120.035V117.095H193.975V120.035H191.035ZM184.07 116.552V113.613H187.009V116.552H184.07ZM187.552 116.552V113.613H190.492V116.552H187.552ZM191.035 116.552V113.613H193.975V116.552H191.035ZM194.472 116.552V113.613H197.457V116.552H194.472ZM184.07 113.115V110.13H187.009V113.115H184.07ZM197.955 113.115V110.13H200.894V113.115H197.955ZM184.07 109.632V106.693H187.009V109.632H184.07ZM197.955 109.632V106.693H200.894V109.632H197.955ZM184.07 106.15V103.21H187.009V106.15H184.07ZM187.552 106.15V103.21H190.492V106.15H187.552ZM191.035 106.15V103.21H193.975V106.15H191.035ZM194.472 106.15V103.21H197.457V106.15H194.472ZM230.971 127V124.015H233.911V127H230.971ZM234.408 127V124.015H237.393V127H234.408ZM237.891 127V124.015H240.831V127H237.891ZM241.373 127V124.015H244.313V127H241.373ZM244.856 127V124.015H247.796V127H244.856ZM234.408 123.517V120.578H237.393V123.517H234.408ZM237.891 120.035V117.095H240.831V120.035H237.891ZM241.373 116.552V113.613H244.313V116.552H241.373ZM244.856 113.115V110.13H247.796V113.115H244.856ZM230.971 109.632V106.693H233.911V109.632H230.971ZM244.856 109.632V106.693H247.796V109.632H244.856ZM234.408 106.15V103.21H237.393V106.15H234.408ZM237.891 106.15V103.21H240.831V106.15H237.891ZM241.373 106.15V103.21H244.313V106.15H241.373ZM264.621 127V124.015H267.56V127H264.621ZM268.103 127V124.015H271.043V127H268.103ZM271.54 127V124.015H274.525V127H271.54ZM261.138 123.517V120.578H264.078V123.517H261.138ZM275.023 123.517V120.578H277.963V123.517H275.023ZM261.138 120.035V117.095H264.078V120.035H261.138ZM275.023 120.035V117.095H277.963V120.035H275.023ZM261.138 116.552V113.613H264.078V116.552H261.138ZM275.023 116.552V113.613H277.963V116.552H275.023ZM261.138 113.115V110.13H264.078V113.115H261.138ZM275.023 113.115V110.13H277.963V113.115H275.023ZM261.138 109.632V106.693H264.078V109.632H261.138ZM275.023 109.632V106.693H277.963V109.632H275.023ZM264.621 106.15V103.21H267.56V106.15H264.621ZM268.103 106.15V103.21H271.043V106.15H268.103ZM271.54 106.15V103.21H274.525V106.15H271.54ZM256.615 127V124.558H259.058V127H256.615Z" fill="white"/>
</svg>
