<?xml version='1.0' encoding='UTF-8' standalone='no'?>
<svg xmlns:svg="http://www.w3.org/2000/svg" version="1.2" xmlns:rdf="http://www.w3.org/1999/02/22-rdf-syntax-ns#" xmlns:xlink="http://www.w3.org/1999/xlink" xmlns:dc="http://purl.org/dc/elements/1.1/" xmlns:cc="http://creativecommons.org/ns#" width="52" xmlns="http://www.w3.org/2000/svg" height="38" xmlns:atv="http://webmi.atvise.com/2007/svgext">
 <defs/>
 <metadata>
  <atv:gridconfig enabled="false" gridstyle="lines" width="20" height="20"/>
  <atv:snapconfig enabled="false" width="10" height="10"/>
 </metadata>
 <g id="id_2" atv:insensitive="true" atv:refpx="0" atv:refpy="0" transform="matrix(1,0,0,1,0,0)">
  <rect id="id_3" y="0" fill="#0000ff" fill-opacity="0" atv:refpx="26" atv:refpy="19" x="0" width="52.00" height="38.00"/>
 </g>
 <g id="id_1" atv:refpx="26" atv:refpy="19" transform="matrix(1,0,0,1,0,0)">
  <g id="layer1" atv:refpx="26" atv:refpy="19" transform="translate(-29.860119,-18.263338)">
   <g id="shape" atv:refpx="55.86" atv:refpy="37.263" transform="matrix(0.52,0,0,0.51788756,29.860119,12.135174)">
    <circle cy="50" id="circle100" fill="#993300" atv:refpx="50.042" atv:refpy="50" cx="50.042" r="35.208"/>
    <rect id="rect102" y="14.833" fill="#993300" atv:refpx="75" atv:refpy="22.833" x="50" width="50" height="16"/>
    <path id="path104" fill="#993300" atv:refpx="29" atv:refpy="49.667" d="M50,57.667L0,57.667L0,41.667L50,41.667C54.418,41.667 58,45.249 58,49.667C58,54.085 54.418,57.667 50,57.667"/>
    <path id="path106" fill="#993300" atv:refpx="4" atv:refpy="49.667" d="M8,60.667L0,60.667L0,38.667L8,38.667"/>
    <rect id="rect108" y="11.833" fill="#993300" atv:refpx="96" atv:refpy="22.833" x="92" width="8" height="22"/>
   </g>
   <g id="dark" atv:refpx="55.86" atv:refpy="38.019" transform="matrix(0.52,0,0,0.51788756,29.860119,12.135174)">
    <path id="path111" fill="#702a00" atv:refpx="50.48" atv:refpy="50" d="M50.042,15.875C34.071,15.875 20.666,26.849 16.946,41.667L50,41.667C54.418,41.667 58,45.249 58,49.667C58,54.085 54.418,57.667 50,57.667L16.792,57.667C20.272,72.82 33.832,84.125 50.042,84.125C68.889,84.125 84.167,68.847 84.167,50C84.167,31.153 68.888,15.875 50.042,15.875"/>
    <path id="path113" fill="#702a00" atv:refpx="28.5" atv:refpy="49.667" d="M50,56.667C53.866,56.667 57,53.533 57,49.667C57,45.801 53.866,42.667 50,42.667L0,42.667L0,56.667C0,56.667 50,56.667 50,56.667"/>
    <g id="g117" atv:refpx="75" atv:refpy="22.833">
     <path id="path115" fill="#702a00" atv:refpx="75" atv:refpy="22.833" d="M50,15.833L50,15.876C50.014,15.876 50.028,15.875 50.042,15.875C61.343,15.875 71.356,21.372 77.566,29.833L100,29.833L100,15.832Z"/>
    </g>
    <rect id="rect119" y="15.833" fill="#702a00" atv:refpx="75" atv:refpy="22.833" x="50" width="50" height="14"/>
   </g>
   <g id="light" atv:refpx="55.86" atv:refpy="30.909" transform="matrix(0.52,0,0,0.51788756,29.860119,12.135174)">
    <path id="path122" fill="#bc4512" atv:refpx="80.721" atv:refpy="22.833" d="M61.443,17.833C67.134,19.851 72.128,23.334 75.976,27.833L100,27.833L100,17.833Z"/>
    <g id="g126" atv:refpx="27.5" atv:refpy="49.667">
     <path id="path124" fill="#bc4512" atv:refpx="27.5" atv:refpy="49.667" d="M50,44.667L0,44.667L0,54.667C0,54.667 50,54.667 50,54.667C52.761,54.667 55,52.428 55,49.667C55,46.905 52.761,44.667 50,44.667"/>
    </g>
   </g>
   <g id="shadow" atv:refpx="57.163" atv:refpy="38.045" transform="matrix(0.52,0,0,0.51788756,29.860119,12.135174)">
    <path id="path129" fill="#472000" atv:refpx="50.566" atv:refpy="50" d="M50.042,21.292C37.11,21.292 26.151,29.889 22.572,41.667L23.617,41.667C27.163,30.448 37.667,22.292 50.042,22.292C65.32,22.292 77.75,34.722 77.75,50C77.75,65.278 65.319,77.708 50.042,77.708C37.423,77.708 26.756,69.226 23.421,57.667L22.381,57.667C25.744,69.785 36.867,78.708 50.041,78.708C65.871,78.708 78.75,65.83 78.75,50C78.75,34.17 65.871,21.292 50.042,21.292"/>
    <path id="path131" fill="#472000" atv:refpx="51.174" atv:refpy="50" d="M50.042,35.792C45.322,35.792 41.144,38.115 38.559,41.667L39.806,41.667C42.23,38.695 45.916,36.792 50.042,36.792C57.325,36.792 63.25,42.717 63.25,50C63.25,57.283 57.324,63.208 50.042,63.208C45.619,63.208 41.706,61.015 39.308,57.667L38.099,57.667C40.629,61.595 45.032,64.208 50.041,64.208C57.875,64.208 64.25,57.833 64.25,50C64.25,42.166 57.876,35.792 50.042,35.792"/>
    <polygon id="polygon133" points="51.463,19.823 49.537,19.823 48.574,18.155 49.537,16.488 51.463,16.488 52.426,18.155 " fill="#472000" atv:refpx="50.5" atv:refpy="18.155"/>
    <polygon id="polygon135" points="51.463,40.823 49.537,40.823 48.574,39.155 49.537,37.488 51.463,37.488 52.426,39.155 " fill="#472000" atv:refpx="50.5" atv:refpy="39.156"/>
    <polygon id="polygon137" points="51.463,62.323 49.537,62.323 48.574,60.655 49.537,58.988 51.463,58.988 52.426,60.655 " fill="#472000" atv:refpx="50.5" atv:refpy="60.656"/>
    <polygon id="polygon139" points="61.735,55.28 60.773,56.948 58.847,56.948 57.884,55.28 58.847,53.613 60.773,53.613 " fill="#472000" atv:refpx="59.809" atv:refpy="55.281"/>
    <polygon id="polygon141" points="60.773,42.863 61.735,44.53 60.773,46.198 58.847,46.198 57.884,44.53 58.847,42.863 " fill="#472000" atv:refpx="59.809" atv:refpy="44.531"/>
    <polygon id="polygon143" points="51.463,83.573 49.537,83.573 48.574,81.905 49.537,80.238 51.463,80.238 52.426,81.905 " fill="#472000" atv:refpx="50.5" atv:refpy="81.905"/>
    <polygon id="polygon145" points="36.23,23.389 34.563,24.351 32.895,23.389 32.895,21.463 34.563,20.5 36.23,21.463 " fill="#472000" atv:refpx="34.563" atv:refpy="22.425"/>
    <polygon id="polygon147" points="68.105,78.598 66.438,79.56 64.77,78.598 64.77,76.672 66.438,75.709 68.105,76.672 " fill="#472000" atv:refpx="66.438" atv:refpy="77.635"/>
    <polygon id="polygon149" points="24.821,34.093 23.858,35.76 21.933,35.76 20.97,34.093 21.933,32.425 23.858,32.425 " fill="#472000" atv:refpx="22.895" atv:refpy="34.093"/>
    <polygon id="polygon151" points="80.03,65.968 79.067,67.635 77.142,67.635 76.179,65.968 77.142,64.3 79.067,64.3 " fill="#472000" atv:refpx="78.105" atv:refpy="65.968"/>
    <polygon id="polygon153" points="84.043,49.067 84.043,50.993 82.375,51.956 80.707,50.993 80.707,49.067 82.375,48.105 " fill="#472000" atv:refpx="82.375" atv:refpy="50.031"/>
    <polygon id="polygon155" points="23.858,64.3 24.821,65.968 23.858,67.635 21.933,67.635 20.97,65.968 21.933,64.3 " fill="#472000" atv:refpx="22.895" atv:refpy="65.968"/>
    <polygon id="polygon157" points="79.067,32.425 80.03,34.093 79.067,35.76 77.142,35.76 76.179,34.093 77.142,32.425 " fill="#472000" atv:refpx="78.105" atv:refpy="34.093"/>
    <polygon id="polygon159" points="34.563,75.709 36.23,76.672 36.23,78.598 34.563,79.56 32.895,78.598 32.895,76.672 " fill="#472000" atv:refpx="34.563" atv:refpy="77.635"/>
    <polygon id="polygon161" points="66.438,20.5 68.105,21.463 68.105,23.389 66.438,24.351 64.77,23.389 64.77,21.463 " fill="#472000" atv:refpx="66.438" atv:refpy="22.425"/>
   </g>
   <g id="hlight" atv:refpx="55.86" atv:refpy="30.909" transform="matrix(0.52,0,0,0.51788756,29.860119,12.135174)">
    <path id="path164" fill="#eb9069" atv:refpx="26.75" atv:refpy="49.667" d="M50,53.167L0,53.167L0,46.167L50,46.167C51.933,46.167 53.5,47.734 53.5,49.667C53.5,51.6 51.933,53.167 50,53.167"/>
    <path id="path166" fill="#eb9069" atv:refpx="83.666" atv:refpy="22.833" d="M67.332,19.333C70.621,21.191 73.586,23.555 76.109,26.333L100,26.333L100,19.333Z"/>
   </g>
  </g>
 </g>
</svg>
