<?xml version='1.0' encoding='UTF-8' standalone='no'?>
<!-- Created with Inkscape (http://www.inkscape.org/) -->
<svg version="1.1" xmlns:svg="http://www.w3.org/2000/svg" xmlns:sodipodi="http://sodipodi.sourceforge.net/DTD/sodipodi-0.dtd" id="svg8" xmlns:dc="http://purl.org/dc/elements/1.1/" width="42.42" xmlns:inkscape="http://www.inkscape.org/namespaces/inkscape" height="12.29" inkscape:version="0.92.4 (5da689c313, 2019-01-14)" xmlns:rdf="http://www.w3.org/1999/02/22-rdf-syntax-ns#" xmlns:xlink="http://www.w3.org/1999/xlink" sodipodi:docname="atvise_logo_text.svg" xmlns:cc="http://creativecommons.org/ns#" xmlns="http://www.w3.org/2000/svg" xmlns:atv="http://webmi.atvise.com/2007/svgext">
 <defs id="defs2"/>
 <sodipodi:namedview showgrid="false" bordercolor="#666666" inkscape:window-x="1912" inkscape:window-maximized="1" inkscape:pageshadow="2" inkscape:zoom="0.7" inkscape:window-height="1017" id="base" inkscape:cy="215.76829" inkscape:pageopacity="0.0" inkscape:document-units="mm" pagecolor="#ffffff" borderopacity="1.0" inkscape:cx="36.089776" inkscape:window-width="1920" inkscape:current-layer="layer1" inkscape:window-y="114"/>
 <metadata id="metadata5">
  <rdf:RDF>
   <cc:Work rdf:about="">
    <dc:format>image/svg+xml</dc:format>
    <dc:type rdf:resource="http://purl.org/dc/dcmitype/StillImage"/>
    <dc:title/>
   </cc:Work>
  </rdf:RDF>
  <atv:gridconfig enabled="false" gridstyle="lines" width="20" height="20"/>
  <atv:snapconfig enabled="false" width="10" height="10"/>
 </metadata>
 <g id="layer1" inkscape:label="Ebene 1" atv:refpx="21.212" inkscape:groupmode="layer" transform="matrix(1,0,0,1,-1.3784,-283.3739)" atv:refpy="6.147">
  <g id="text3715" atv:refpx="22.591" atv:refpy="289.521">
   <path font-family="'AvantGarde Bk BT'" stroke="none" font-style="normal" id="path3717" font-weight="normal" style="-inkscape-font-specification:'AvantGarde Bk BT';font-variant:normal;font-stretch:normal" fill-opacity="1" aria-label="atvise" font-size="16.93333244px" stroke-width="0.26458332" atv:refpx="6.021" fill="#000000" d="M9.522,290.807C9.522,289.842 9.178,289.001 8.489,288.285C7.8,287.563 7.006,287.202 6.107,287.202C5.132,287.202 4.299,287.563 3.61,288.285C2.927,289.001 2.585,289.892 2.585,290.955C2.585,291.97 2.927,292.827 3.61,293.527C4.294,294.221 5.115,294.569 6.074,294.569C7,294.569 7.805,294.202 8.489,293.469C9.178,292.73 9.522,291.843 9.522,290.807M9.522,293.973C9.158,294.497 8.665,294.908 8.042,295.205C7.425,295.503 6.758,295.652 6.041,295.652C4.707,295.652 3.597,295.197 2.709,294.287C1.822,293.372 1.378,292.245 1.378,290.906C1.378,289.544 1.83,288.406 2.734,287.491C3.643,286.576 4.779,286.118 6.14,286.118C6.84,286.118 7.483,286.262 8.067,286.548C8.651,286.83 9.136,287.237 9.522,287.772L9.522,286.317L10.663,286.317L10.663,295.412L9.522,295.412Z" atv:refpy="290.886"/>
   <path font-family="'AvantGarde Bk BT'" stroke="none" font-style="normal" id="path3719" font-weight="normal" style="-inkscape-font-specification:'AvantGarde Bk BT';font-variant:normal;font-stretch:normal" fill-opacity="1" aria-label="atvise" font-size="16.93333244px" stroke-width="0.26458332" atv:refpx="13.901" fill="#000000" d="M13.317,295.412L13.317,287.491L11.589,287.491L11.589,286.317L13.317,286.317L13.317,283.373L14.483,283.373L14.483,286.317L16.211,286.317L16.211,287.491L14.483,287.491L14.483,295.412Z" atv:refpy="289.393"/>
   <path font-family="'AvantGarde Bk BT'" stroke="none" font-style="normal" id="path3721" font-weight="normal" style="-inkscape-font-specification:'AvantGarde Bk BT';font-variant:normal;font-stretch:normal" fill-opacity="1" aria-label="atvise" font-size="16.93333244px" stroke-width="0.26458332" atv:refpx="20.259" fill="#000000" d="M20.709,295.412L19.642,295.412L16.087,286.317L17.319,286.317L20.229,293.651L23.165,286.317L24.43,286.317Z" atv:refpy="290.865"/>
   <path font-family="'AvantGarde Bk BT'" stroke="none" font-style="normal" id="path3723" font-weight="normal" style="-inkscape-font-specification:'AvantGarde Bk BT';font-variant:normal;font-stretch:normal" fill-opacity="1" aria-label="atvise" font-size="16.93333244px" stroke-width="0.26458332" atv:refpx="25.823" fill="#000000" d="M26.406,285.25L25.24,285.25L25.24,283.373L26.406,283.373ZM25.24,295.412L25.24,286.317L26.406,286.317L26.406,295.412Z" atv:refpy="289.393"/>
   <path font-family="'AvantGarde Bk BT'" stroke="none" font-style="normal" id="path3725" font-weight="normal" style="-inkscape-font-specification:'AvantGarde Bk BT';font-variant:normal;font-stretch:normal" fill-opacity="1" aria-label="atvise" font-size="16.93333244px" stroke-width="0.26458332" atv:refpx="30.607" fill="#000000" d="M27.721,292.551L28.919,292.551L28.919,292.584C28.919,293.152 29.082,293.623 29.407,293.998C29.732,294.367 30.135,294.552 30.614,294.552C31.072,294.552 31.452,294.409 31.755,294.122C32.059,293.836 32.21,293.474 32.21,293.039C32.21,292.604 32.089,292.254 31.846,291.989C31.609,291.724 31.177,291.476 30.548,291.245C29.54,290.887 28.881,290.52 28.572,290.145C28.263,289.77 28.109,289.269 28.109,288.64C28.109,287.929 28.365,287.326 28.878,286.83C29.396,286.333 30.022,286.085 30.755,286.085C31.532,286.085 32.15,286.306 32.607,286.747C33.065,287.188 33.31,287.802 33.343,288.591L32.094,288.591C32.067,288.161 31.929,287.827 31.681,287.59C31.438,287.353 31.105,287.235 30.681,287.235C30.3,287.235 29.983,287.364 29.73,287.623C29.476,287.877 29.349,288.194 29.349,288.574C29.349,288.844 29.402,289.073 29.506,289.26C29.611,289.442 29.785,289.608 30.027,289.757C30.248,289.894 30.568,290.027 30.986,290.153C31.411,290.28 31.695,290.374 31.838,290.435C32.406,290.677 32.822,291 33.087,291.402C33.357,291.804 33.492,292.317 33.492,292.94C33.492,293.723 33.219,294.37 32.673,294.883C32.127,295.395 31.436,295.652 30.598,295.652C29.743,295.652 29.057,295.373 28.539,294.817C28.021,294.254 27.748,293.499 27.721,292.551Z" atv:refpy="290.869"/>
   <path font-family="'AvantGarde Bk BT'" stroke="none" font-style="normal" id="path3727" font-weight="normal" style="-inkscape-font-specification:'AvantGarde Bk BT';font-variant:normal;font-stretch:normal" fill-opacity="1" aria-label="atvise" font-size="16.93333244px" stroke-width="0.26458332" atv:refpx="39.094" fill="#000000" d="M43.802,291.228L35.592,291.228C35.664,292.22 36.022,293.022 36.667,293.634C37.312,294.246 38.116,294.552 39.081,294.552C39.765,294.552 40.379,294.376 40.925,294.023C41.471,293.665 41.892,293.169 42.19,292.535L43.513,292.535C43.094,293.543 42.504,294.318 41.743,294.858C40.988,295.398 40.112,295.668 39.114,295.668C37.791,295.668 36.672,295.197 35.757,294.254C34.842,293.312 34.385,292.179 34.385,290.856C34.385,289.473 34.831,288.329 35.724,287.425C36.623,286.521 37.769,286.069 39.164,286.069C40.531,286.069 41.644,286.54 42.504,287.483C43.37,288.42 43.802,289.641 43.802,291.146ZM42.512,290.244C42.292,289.225 41.887,288.458 41.297,287.946C40.707,287.428 39.938,287.169 38.99,287.169C38.108,287.169 37.361,287.447 36.749,288.004C36.138,288.555 35.763,289.302 35.625,290.244Z" atv:refpy="290.869"/>
  </g>
 </g>
</svg>
