<svg width="47" height="54" viewBox="0 0 47 54" fill="none" xmlns="http://www.w3.org/2000/svg">
<path fill-rule="evenodd" clip-rule="evenodd" d="M22.9759 1.42762L35.1107 6.42431L25.0081 10.3276C24.6232 9.53418 23.8729 8.95094 22.9759 8.79658V1.42762ZM22.2621 8.76612V1.42762L10.1273 6.42431L19.9409 10.439C20.3384 9.5182 21.2183 8.85441 22.2621 8.76612ZM19.777 10.9504L9.65138 6.90019L10.2602 10.3501C11.4107 10.3967 12.3514 11.2572 12.5222 12.3713L19.7194 11.717C19.7158 11.6592 19.714 11.6009 19.714 11.5421C19.714 11.3391 19.7357 11.1411 19.777 10.9504ZM9.17551 7.37606L9.77612 10.3791C8.64069 10.5635 7.77387 11.5486 7.77387 12.7361C7.77387 13.4154 8.05745 14.0284 8.51267 14.4632L4.6547 18.3212L9.17551 7.37606ZM4.41676 19.2729L8.91593 14.7738C9.27866 14.996 9.70532 15.1242 10.1619 15.1242C10.5938 15.1242 10.9989 15.0095 11.3485 14.809L16.0571 23.2844C15.7606 23.4289 15.5054 23.6449 15.3139 23.91L4.41676 19.2729ZM11.7928 14.5142L11.7928 14.4805C11.8615 14.4163 11.9263 14.3481 11.9869 14.2763L12.0308 14.2762C12.1978 14.1092 12.3648 13.825 12.4495 13.4236C12.5049 13.2391 12.5385 13.0452 12.5475 12.8449L19.7889 12.1866C19.9876 13.0255 20.5655 13.7177 21.3317 14.0721L17.5033 23.0799H17.0274H16.5516L11.7928 14.5142ZM21.8339 14.248L17.9792 23.3179L18.2171 23.5558L18.2321 23.5711C18.5145 23.8163 18.727 24.1397 18.8361 24.5076H25.2905C25.3459 23.4449 25.9225 22.5201 26.7694 21.984L23.5781 14.1119C23.2465 14.2512 22.8822 14.3282 22.5 14.3282C22.2704 14.3282 22.0473 14.3004 21.8339 14.248ZM18.1694 26.6297C18.5916 26.2922 18.8735 25.7865 18.9132 25.214L25.3024 25.0011C25.4084 26.0474 26.021 26.944 26.8911 27.4419L22.7379 37.5941L18.1694 26.6297ZM15.6495 26.5993C15.9953 26.8895 16.4412 27.0643 16.928 27.0643C17.2033 27.0643 17.4655 27.0084 17.7039 26.9073L22.0241 37.5941L9.88932 32.3595L15.6495 26.5993ZM15.0612 24.3833C14.9815 24.5986 14.938 24.8313 14.938 25.0743C14.938 25.5045 15.0745 25.9029 15.3066 26.2284L9.41345 32.1216L4.41676 19.9867L15.0612 24.3833ZM23.4518 37.3562L27.3738 27.6665C27.7156 27.7919 28.0848 27.8603 28.4701 27.8603C29.2014 27.8603 29.8752 27.6138 30.4127 27.1992L35.3486 32.3595L23.4518 37.3562ZM35.8245 32.1216L30.6757 26.9727C31.2788 26.3933 31.6541 25.5786 31.6541 24.6763C31.6541 24.355 31.6065 24.0447 31.518 23.7523L40.8212 19.9867L35.8245 32.1216ZM40.8212 19.2729L31.3181 23.251C31.0329 22.6822 30.5823 22.2107 30.0295 21.8996L34.2897 14.2312C34.4607 14.2939 34.6454 14.3282 34.8382 14.3282C35.0747 14.3282 35.2992 14.2766 35.501 14.184L40.8212 19.2729ZM36.0411 13.779L40.5832 18.3212L36.0624 7.37606L35.4164 11.2524C36.0098 11.4838 36.4302 12.0609 36.4302 12.7361C36.4302 13.135 36.2835 13.4997 36.0411 13.779ZM34.7371 11.1473L35.5866 6.90019L25.2407 11.0385C25.2705 11.2019 25.2861 11.3702 25.2861 11.5421C25.2861 11.5926 25.2847 11.6427 25.2821 11.6925L33.2909 12.3599C33.4523 11.6938 34.0326 11.1914 34.7371 11.1473ZM33.2819 13.073L25.1529 12.3955C24.9596 12.9969 24.5676 13.5091 24.0541 13.8548L27.4316 21.6654C27.7571 21.5532 28.1065 21.4922 28.4701 21.4922C28.8471 21.4922 29.2089 21.5578 29.5445 21.6781L33.8284 13.967C33.5558 13.7431 33.3588 13.4303 33.2819 13.073ZM29.6381 2.85525L22.7379 0L15.5998 2.85525L8.69963 5.7105L5.84438 12.6107L2.98914 19.5109L5.84438 26.4111L8.69963 33.3112L15.5998 36.1665L22.7379 39.0217L29.6381 36.1665L36.5383 33.3112L39.3936 26.4111L42.2488 19.5109L39.3936 12.6107L36.5383 5.7105L29.6381 2.85525Z" fill="white"/>
<path d="M1.64795 50H0.804199V43.6016H1.64795V50ZM5.5415 47.4116H4.03857V50H3.19043V43.6016H5.30859C6.0293 43.6016 6.58301 43.7656 6.96973 44.0938C7.35938 44.4219 7.5542 44.8994 7.5542 45.5264C7.5542 45.9248 7.4458 46.272 7.229 46.5679C7.01514 46.8638 6.71631 47.085 6.33252 47.2314L7.83545 49.9473V50H6.93018L5.5415 47.4116ZM4.03857 46.7217H5.33496C5.75391 46.7217 6.08643 46.6133 6.33252 46.3965C6.58154 46.1797 6.70605 45.8896 6.70605 45.5264C6.70605 45.1309 6.5874 44.8276 6.3501 44.6167C6.11572 44.4058 5.77588 44.2988 5.33057 44.2959H4.03857V46.7217ZM10.3052 47.6138H8.16064V46.9502H10.3052V47.6138ZM12.3179 43.6016L14.4097 48.8223L16.5015 43.6016H17.5957V50H16.752V47.5083L16.8311 44.8188L14.7305 50H14.0845L11.9883 44.832L12.0718 47.5083V50H11.228V43.6016H12.3179ZM22.6978 48.3301H20.0171L19.415 50H18.5449L20.9883 43.6016H21.7266L24.1743 50H23.3086L22.6978 48.3301ZM20.272 47.6357H22.4473L21.3574 44.6431L20.272 47.6357ZM26.9209 47.1479C26.1973 46.9399 25.6699 46.6851 25.3389 46.3833C25.0107 46.0786 24.8467 45.7036 24.8467 45.2583C24.8467 44.7544 25.0474 44.3384 25.4487 44.0103C25.853 43.6792 26.3774 43.5137 27.022 43.5137C27.4614 43.5137 27.8525 43.5986 28.1953 43.7686C28.541 43.9385 28.8076 44.1729 28.9951 44.4717C29.1855 44.7705 29.2808 45.0972 29.2808 45.4517H28.4326C28.4326 45.0649 28.3096 44.7617 28.0635 44.542C27.8174 44.3193 27.4702 44.208 27.022 44.208C26.606 44.208 26.2808 44.3003 26.0464 44.4849C25.8149 44.6665 25.6992 44.9199 25.6992 45.2451C25.6992 45.5059 25.8091 45.7271 26.0288 45.9087C26.2515 46.0874 26.6279 46.2515 27.1582 46.4009C27.6914 46.5503 28.1074 46.7158 28.4062 46.8975C28.708 47.0762 28.9307 47.2856 29.0742 47.5259C29.2207 47.7661 29.2939 48.0488 29.2939 48.374C29.2939 48.8926 29.0918 49.3086 28.6875 49.6221C28.2832 49.9326 27.7427 50.0879 27.0659 50.0879C26.6265 50.0879 26.2163 50.0044 25.8354 49.8374C25.4546 49.6675 25.1602 49.436 24.9521 49.1431C24.7471 48.8501 24.6445 48.5176 24.6445 48.1455H25.4927C25.4927 48.5322 25.6348 48.8384 25.9189 49.064C26.2061 49.2866 26.5884 49.3979 27.0659 49.3979C27.5112 49.3979 27.8525 49.3071 28.0898 49.1255C28.3271 48.9438 28.4458 48.6963 28.4458 48.3828C28.4458 48.0693 28.3359 47.8276 28.1162 47.6577C27.8965 47.4849 27.498 47.3149 26.9209 47.1479ZM34.8003 44.2959H32.7437V50H31.9043V44.2959H29.8521V43.6016H34.8003V44.2959ZM39.3662 47.0425H36.5933V49.3101H39.8145V50H35.7495V43.6016H39.7705V44.2959H36.5933V46.3525H39.3662V47.0425ZM43.2114 47.4116H41.7085V50H40.8604V43.6016H42.9785C43.6992 43.6016 44.2529 43.7656 44.6396 44.0938C45.0293 44.4219 45.2241 44.8994 45.2241 45.5264C45.2241 45.9248 45.1157 46.272 44.8989 46.5679C44.6851 46.8638 44.3862 47.085 44.0024 47.2314L45.5054 49.9473V50H44.6001L43.2114 47.4116ZM41.7085 46.7217H43.0049C43.4238 46.7217 43.7563 46.6133 44.0024 46.3965C44.2515 46.1797 44.376 45.8896 44.376 45.5264C44.376 45.1309 44.2573 44.8276 44.02 44.6167C43.7856 44.4058 43.4458 44.2988 43.0005 44.2959H41.7085V46.7217Z" fill="white"/>
</svg>
