<?xml version='1.0' encoding='UTF-8' standalone='no'?>
<svg width="40" x="0px" version="1.1" y="0px" xmlns="http://www.w3.org/2000/svg" height="40" xmlns:xlink="http://www.w3.org/1999/xlink" id="Ebene_1" enable-background="new 0 0 40 40" xml:space="preserve" xmlns:atv="http://webmi.atvise.com/2007/svgext">
 <defs/>
 <metadata>
  <atv:parameter desc="symbol color" valuetype="color" substitute="$SYMBOLCOLOR$" behavior="optional" name="symbolColor" defaultvalue="#000000"/>
 </metadata>
 <g id="id_7" atv:refpx="20" atv:refpy="19.939" transform="matrix(1,0,0,1,-21.057,0)">
  <path fill="$SYMBOLCOLOR$" fill-rule="evenodd" stroke="none" id="id_5" atv:refpx="63.578" stroke-width="2" atv:refpy="11.199" d="M59.593,19.878L59.539,21.057L43.55,21.057L43.176,19.81L44.597,19.075L45.895,17.778L46.746,16.132L47.051,14.238L46.746,12.343L45.895,10.698L44.597,9.4L42.952,8.549L41.057,8.244L39.163,8.549L37.517,9.4L36.22,10.698L35.369,12.343L35.063,14.238L35.369,16.132L36.22,17.778L37.517,19.075L38.938,19.81L38.563,21.057L22.573,21.057L22.52,19.878L22.596,18.19L22.819,16.546L23.183,14.95L23.68,13.41L24.305,11.932L25.051,10.522L25.912,9.188L26.88,7.935L27.95,6.771L29.114,5.701L30.367,4.733L31.701,3.872L33.111,3.126L34.589,2.501L36.129,2.004L37.725,1.64L39.369,1.417L41.057,1.341L42.744,1.417L44.388,1.64L45.984,2.004L47.524,2.501L49.002,3.126L50.412,3.872L51.746,4.733L52.999,5.701L54.163,6.771L55.233,7.935L56.201,9.188L57.062,10.522L57.808,11.932L58.433,13.41L58.93,14.95L59.294,16.546L59.517,18.19Z"/>
  <path fill="$SYMBOLCOLOR$" fill-rule="evenodd" stroke="none" id="id_6" atv:refpx="63.577" stroke-width="2" atv:refpy="29.268" d="M59.593,20L59.517,21.687L59.294,23.331L58.93,24.927L58.433,26.466L57.808,27.945L57.062,29.355L56.201,30.689L55.233,31.942L54.163,33.106L52.999,34.176L51.746,35.144L50.412,36.005L49.002,36.751L47.523,37.376L45.984,37.873L44.388,38.237L42.744,38.46L41.057,38.536L39.369,38.46L37.725,38.237L36.129,37.873L34.589,37.376L33.111,36.751L31.701,36.005L30.367,35.144L29.113,34.176L27.95,33.106L26.879,31.942L25.911,30.689L25.05,29.355L24.305,27.945L23.68,26.466L23.183,24.927L22.818,23.331L22.596,21.687L22.52,20L38.917,20L35.427,31.634L46.686,31.634L43.196,20Z"/>
 </g>
</svg>
