<?xml version='1.0' encoding='UTF-8' standalone='no'?>
<svg width="60" version="1.2" xmlns="http://www.w3.org/2000/svg" height="60" xmlns:xlink="http://www.w3.org/1999/xlink" xmlns:atv="http://webmi.atvise.com/2007/svgext">
 <defs/>
 <metadata>
  <atv:parameter desc="symbol color" valuetype="color" substitute="$SYMBOLCOLOR$" behavior="optional" name="symbolColor" defaultvalue="#000000"/>
 </metadata>
 <rect width="5.425" x="6.936" y="24.573" fill="$SYMBOLCOLOR$" height="5.425" id="id_20" atv:refpx="15.073" atv:refpy="63.286" stroke-width="0.819"/>
 <rect width="5.425" x="15.078" y="24.573" fill="$SYMBOLCOLOR$" height="5.425" id="id_21" atv:refpx="31.352" atv:refpy="63.286" stroke-width="0.819"/>
 <rect width="5.425" x="23.219" y="24.573" fill="$SYMBOLCOLOR$" height="5.425" id="id_22" atv:refpx="70.736" atv:refpy="43.561" stroke-width="0.819"/>
 <rect width="5.425" x="31.357" y="24.573" fill="$SYMBOLCOLOR$" height="5.425" id="id_23" atv:refpx="95.15" atv:refpy="43.561" stroke-width="0.819"/>
 <rect width="5.425" x="6.936" y="32.715" fill="$SYMBOLCOLOR$" height="5.425" id="id_24" atv:refpx="15.073" atv:refpy="87.706" stroke-width="0.819"/>
 <rect width="5.425" x="15.078" y="32.715" fill="$SYMBOLCOLOR$" height="5.425" id="id_25" atv:refpx="31.352" atv:refpy="87.706" stroke-width="0.819"/>
 <rect width="5.425" x="23.219" y="32.715" fill="$SYMBOLCOLOR$" height="5.425" id="id_26" atv:refpx="47.63" atv:refpy="87.706" stroke-width="0.819"/>
 <rect width="5.425" x="47.636" y="24.573" fill="$SYMBOLCOLOR$" height="5.425" id="id_27" atv:refpx="143.983" atv:refpy="43.561" stroke-width="0.819"/>
 <rect width="5.425" x="39.497" y="24.573" fill="$SYMBOLCOLOR$" height="5.425" id="id_28" atv:refpx="119.571" atv:refpy="43.561" stroke-width="0.819"/>
 <rect width="5.425" x="6.936" y="40.856" fill="$SYMBOLCOLOR$" height="5.425" id="id_29" atv:refpx="15.073" atv:refpy="112.123" stroke-width="0.819"/>
 <rect width="29.846" x="15.078" y="40.856" fill="$SYMBOLCOLOR$" height="5.425" id="id_30" atv:refpx="43.566" atv:refpy="112.123" stroke-width="0.819"/>
 <rect width="5.425" x="47.636" y="40.856" fill="$SYMBOLCOLOR$" height="5.425" id="id_31" atv:refpx="143.983" atv:refpy="76.115" stroke-width="0.819"/>
 <rect width="5.425" x="31.357" y="32.715" fill="$SYMBOLCOLOR$" height="5.425" id="id_32" atv:refpx="95.15" atv:refpy="59.84" stroke-width="0.819"/>
 <rect width="5.425" x="47.636" y="32.715" fill="$SYMBOLCOLOR$" height="5.425" id="id_33" atv:refpx="143.983" atv:refpy="59.84" stroke-width="0.819"/>
 <rect width="5.425" x="39.497" y="32.715" fill="$SYMBOLCOLOR$" height="5.425" id="id_34" atv:refpx="119.571" atv:refpy="59.84" stroke-width="0.819"/>
 <polyline points="53.729,9.071 53.729,13.015 40.368,13.015 40.368,18.266 37.622,18.266 37.622,21.125 3.499,21.125 3.499,49.757 56.5,49.757 56.5,21.125 37.622,21.125" fill="none" stroke="$SYMBOLCOLOR$" stroke-linejoin="miter" id="id_3" atv:refpx="30.002" stroke-width="3" atv:refpy="29.416"/>
</svg>
