<?xml version='1.0' encoding='UTF-8' standalone='no'?>
<svg xmlns:atv="http://webmi.atvise.com/2007/svgext" enable-background="new 0 0 88 88" xmlns:xlink="http://www.w3.org/1999/xlink" version="1.1" height="88" xmlns="http://www.w3.org/2000/svg" x="0px" y="0px" id="Ebene_1" xml:space="preserve" width="88">
 <defs/>
 <desc>Gauge scale for every hour between 300 degrees.</desc>
 <title>Gauge scale - 12</title>
 <metadata>
  <atv:parameter desc="scale color" behavior="optional" defaultvalue="#ffffff" name="scaleColor" substitute="$SCALECOLOR$" valuetype="color"/>
  <atv:gridconfig gridstyle="lines" height="20" enabled="false" width="20"/>
  <atv:snapconfig height="10" enabled="false" width="10"/>
 </metadata>
 <path fill="$SCALECOLOR$" stroke-width="1" d="M26.119,11.029L22.866,5.394L21.134,6.394L24.39,12.033C24.958,11.686 25.532,11.348 26.119,11.029" atv:refpx="23.627" id="id_0" atv:refpy="8.714"/>
 <path fill="$SCALECOLOR$" stroke-width="1" d="M12.035,24.39L6.395,21.134L5.395,22.866L11.03,26.119C11.348,25.533 11.686,24.958 12.035,24.39" atv:refpx="8.715" id="id_1" atv:refpy="23.627"/>
 <path fill="$SCALECOLOR$" stroke-width="1" d="M76.971,26.12L82.606,22.867L81.606,21.135L75.965,24.391C76.314,24.958 76.651,25.533 76.971,26.12" atv:refpx="79.286" id="id_2" atv:refpy="23.628"/>
 <path fill="$SCALECOLOR$" stroke-width="1" d="M6.5,44C6.5,43.665 6.517,43.333 6.525,43L0,43L0,45L6.525,45C6.517,44.667 6.5,44.335 6.5,44" atv:refpx="3.263" id="id_3" atv:refpy="44"/>
 <path fill="$SCALECOLOR$" stroke-width="1" d="M63.609,12.035L66.866,6.395L65.134,5.395L61.881,11.03C62.468,11.349 63.043,11.686 63.609,12.035" atv:refpx="64.374" id="id_4" atv:refpy="8.715"/>
 <path fill="$SCALECOLOR$" stroke-width="1" d="M44,6.5C44.335,6.5 44.667,6.517 45,6.525L45,0L43,0L43,6.525C43.333,6.517 43.665,6.5 44,6.5" atv:refpx="44" id="id_5" atv:refpy="3.263"/>
 <g atv:refpx="43.999" id="id_62" atv:refpy="83.055">
  <path fill="none" stroke-width="1" d="M44,81.5C43.665,81.5 43.333,81.483 43,81.475L43,88L45,88L45,81.475C44.667,81.483 44.335,81.5 44,81.5" atv:refpx="87" id="id_6" atv:refpy="166.212"/>
  <path fill="none" stroke-width="1" d="M58.824,78.45L60.318,81.806L61.175,81.425L59.678,78.063C59.395,78.194 59.111,78.326 58.824,78.45" atv:refpx="118.823" id="id_36" atv:refpy="157.997"/>
  <path fill="none" stroke-width="1" d="M55.144,79.816L56.278,83.304L57.171,83.016L56.033,79.515C55.736,79.616 55.443,79.723 55.144,79.816" atv:refpx="111.301" id="id_40" atv:refpy="160.925"/>
  <path fill="none" stroke-width="1" d="M51.338,80.777L52.103,84.373L53.02,84.179L52.254,80.577C51.949,80.646 51.646,80.716 51.338,80.777" atv:refpx="103.517" id="id_41" atv:refpy="163.052"/>
  <path fill="none" stroke-width="1" d="M47.453,81.335L47.838,84.999L48.77,84.901L48.385,81.235C48.074,81.272 47.765,81.307 47.453,81.335" atv:refpx="95.565" id="id_42" atv:refpy="164.353"/>
  <path fill="none" stroke-width="1" d="M28.321,78.063L26.824,81.425L27.681,81.806L29.176,78.45C28.888,78.326 28.604,78.194 28.321,78.063" atv:refpx="54.824" id="id_48" atv:refpy="157.997"/>
  <path fill="none" stroke-width="1" d="M35.747,80.577L34.981,84.179L35.898,84.373L36.662,80.777C36.354,80.717 36.051,80.646 35.747,80.577" atv:refpx="70.803" id="id_54" atv:refpy="163.052"/>
  <path fill="none" stroke-width="1" d="M31.967,79.516L30.83,83.017L31.721,83.305L32.855,79.817C32.557,79.723 32.264,79.616 31.967,79.516" atv:refpx="62.672" id="id_55" atv:refpy="160.927"/>
  <path fill="none" stroke-width="1" d="M39.616,81.236L39.231,84.901L40.162,84.999L40.547,81.335C40.235,81.307 39.925,81.272 39.616,81.236" atv:refpx="79.12" id="id_56" atv:refpy="164.354"/>
 </g>
 <path fill="$SCALECOLOR$" stroke-width="1" d="M75.965,63.609L81.606,66.866L82.606,65.135L76.97,61.881C76.651,62.468 76.313,63.043 75.965,63.609" atv:refpx="79.286" id="id_7" atv:refpy="64.374"/>
 <path fill="$SCALECOLOR$" stroke-width="1" d="M11.03,61.881L5.395,65.135L6.395,66.866L12.035,63.609C11.686,63.043 11.349,62.468 11.03,61.881" atv:refpx="8.715" id="id_8" atv:refpy="64.374"/>
 <path fill="$SCALECOLOR$" stroke-width="1" d="M81.475,43C81.484,43.333 81.5,43.665 81.5,44C81.5,44.335 81.483,44.667 81.475,45L88,45L88,43Z" atv:refpx="84.737" id="id_9" atv:refpy="44"/>
 <path fill="$SCALECOLOR$" stroke-width="1" d="M24.39,75.965L21.134,81.606L22.866,82.606L26.119,76.971C25.533,76.651 24.958,76.314 24.39,75.965" atv:refpx="23.627" id="id_10" atv:refpy="79.286"/>
 <path fill="$SCALECOLOR$" stroke-width="1" d="M61.881,76.971L65.134,82.606L66.866,81.606L63.609,75.965C63.042,76.313 62.467,76.651 61.881,76.971" atv:refpx="64.374" id="id_11" atv:refpy="79.286"/>
</svg>
