<?xml version='1.0' encoding='UTF-8' standalone='no'?>
<svg width="110" height="30" xmlns:atv="http://webmi.atvise.com/2007/svgext" version="1.2" xmlns="http://www.w3.org/2000/svg" xmlns:xlink="http://www.w3.org/1999/xlink">
 <defs/>
 <title>Display Date</title>
 <desc>This control displays the current date.</desc>
 <metadata>
  <atv:parameter name="base" valuetype="address" behavior="optional"/>
  <atv:parameter name="seperator" valuetype="trstring" substitute="$SEPERATOR$" defaultvalue="T{.}" desc="seperator" behavior="optional"/>
  <atv:parameter name="fontColor" valuetype="global" group="Appearance" substitute="$FONTCOLOR$" defaultvalue="SYSTEM.GLOBALS.atvFontColor" desc="font color" behavior="optional"/>
  <atv:parameter name="fillColor" valuetype="global" group="Appearance" substitute="$FILLCOLOR$" defaultvalue="SYSTEM.GLOBALS.atvFillColor" desc="fill color" behavior="optional"/>
  <atv:parameter name="borderColor" valuetype="global" group="Appearance" substitute="$BORDERCOLOR$" defaultvalue="SYSTEM.GLOBALS.atvBorderColor" desc="border color" behavior="optional"/>
  <atv:gridconfig width="1" gridstyle="lines" height="1" enabled="true"/>
  <atv:snapconfig width="1" height="1" enabled="false"/>
 </metadata>
 <rect width="109.5" x="0.25" id="id_0" y="0.25" atv:refpy="15.5" atv:dynamic="true" height="29.5" fill="$FILLCOLOR$" stroke="$BORDERCOLOR$" atv:refpx="55" ry="3" rx="3" stroke-width="0.5"/>
 <rect width="102" x="4" id="id_7" y="4.399" atv:refpy="-143.026" height="21.203" fill="#ffffff" stroke="none" atv:refpx="68.934" ry="3" rx="2.995" stroke-width="3.426"/>
 <path id="id_10" atv:refpy="128.517" fill="#ffffff" d="M6.985,6.616C6.985,6.616 6.291,11.255 6.291,14.608C6.291,17.96 6.985,23.383 6.985,23.383C6.985,23.383 103.016,23.383 103.016,23.383C103.016,23.383 103.708,18.328 103.708,14.975C103.708,11.621 103.016,6.616 103.016,6.616C103.016,6.616 6.985,6.616 6.985,6.616" stroke="$FILLCOLOR$" atv:refpx="70.1" stroke-width="1.713"/>
 <path id="id_1" atv:refpy="15.113" fill="$FILLCOLOR$" d="M17.402,6.458L17.402,23.756L92.13,23.649L92.13,6.35L91.441,6.35L91.441,22.567L82.319,22.567L82.319,6.35L81.63,6.35L81.63,22.567L72.5,22.567L72.5,6.35L71.811,6.35L71.811,22.567L61.652,22.567L61.652,6.35L60.628,6.35L54.555,6.35L54.555,22.567L44.669,22.567L44.669,6.35L44.036,6.35L44.036,22.567L34.067,22.606L34.067,6.388L27.25,6.458L27.25,22.676L18.068,22.676L18.068,6.458Z" stroke="none" atv:refpx="50.88" stroke-width="2"/>
 <text x="30.468" id="id_3" text-anchor="middle" font-size="16" y="20.811" atv:refpy="14.811" font-family="Arial" fill="$FONTCOLOR$" atv:refpx="30.468">$SEPERATOR$</text>
 <text x="57.698" id="id_5" text-anchor="middle" font-size="16" y="20.811" atv:refpy="14.811" font-family="Arial" fill="$FONTCOLOR$" atv:refpx="57.698">$SEPERATOR$</text>
 <text x="17.5" id="d" text-anchor="middle" font-size="16" y="19.93" atv:refpy="35.131" font-family="Courier" fill="$FONTCOLOR$" font-weight="bold" atv:refpx="37.217">00</text>
 <text x="81.835" id="y" text-anchor="middle" font-size="16" y="20" atv:refpy="91.225" font-family="Courier" fill="$FONTCOLOR$" font-weight="bold" atv:refpx="806.714">0000</text>
 <text x="44.36" id="m" text-anchor="middle" font-size="16" y="20" atv:refpy="35.877" font-family="Courier" fill="$FONTCOLOR$" font-weight="bold" atv:refpx="214.172">00</text>
 <script type="text/ecmascript"><![CDATA[var base = (webMI.query["base"] == undefined) ? "" : webMI.query["base"];

function setDate(date) {
	var displayedDate = (date == undefined) ? new Date() : new Date(date);

	var y = displayedDate.getFullYear();
	var m = displayedDate.getMonth()+1;
	var d = displayedDate.getDate();

	webMI.gfx.setText("y", webMI.sprintf("%04d", y));
	webMI.gfx.setText("m", webMI.sprintf("%02d", m));
	webMI.gfx.setText("d", webMI.sprintf("%02d", d));
}

if (base != "") {
	webMI.data.subscribe(base, function(e) {
		setDate(e.value);
	});
}
else {
	setDate();
	var updateInterval = setInterval(function() { setDate(); }, 3000);
}]]></script>
</svg>
