<?xml version='1.0' encoding='UTF-8' standalone='no'?>
<svg xmlns:xlink="http://www.w3.org/1999/xlink" xmlns="http://www.w3.org/2000/svg" version="1.2" height="50" width="50" xmlns:atv="http://webmi.atvise.com/2007/svgext">
 <defs/>
 <metadata>
  <atv:gridconfig height="20" width="20" gridstyle="lines" enabled="false"/>
  <atv:snapconfig height="10" width="10" enabled="false"/>
 </metadata>
 <g atv:refpy="25" transform="matrix(200,0,0,200,0,0)" id="id_2" atv:refpx="25">
  <svg atv:refpy="0.125" id="id_1" atv:refpx="0.125">
   <g>
    <g id="frame">
     <rect height="100" width="100" fill="none"/>
    </g>
    <g id="shape">
     <polygon fill="#999" points="69.333,42.007 64,39.34 36,39.34 30.667,42.007 30.667,57.993 36,60.66 64,60.66 69.333,57.993 &#x9;&#xd;&#xa;&#x9;&#x9;"/>
     <rect height="19" x="0" width="5.667" fill="#999" y="40.5"/>
     <rect height="19" x="94.333" width="5.667" fill="#999" y="40.5"/>
     <rect height="15.987" x="0" width="100" fill="#999" y="42.007"/>
    </g>
    <g id="dark">
     <rect height="13.988" x="0" width="100" fill="#808080" y="43.006"/>
     <polygon fill="#808080" points="68.833,43.007 63.5,40.34 36.5,40.34 31.167,43.007 31.167,56.993 36.5,59.66 63.5,59.66 &#xd;&#xa;&#x9;&#x9;68.833,56.993 &#x9;"/>
    </g>
    <g id="light">
     <polygon fill="#b2b2b2" points="60.347,45.004 56.5,46.383 43.5,46.383 39.653,45.004 0,45.004 0,54.996 39.653,54.996 &#xd;&#xa;&#x9;&#x9;43.5,53.617 56.5,53.617 60.347,54.996 100,54.996 100,45.004 &#x9;"/>
    </g>
    <g id="hlight">
     <polygon fill="#ccc" points="61.35,46.503 57,47.883 43,47.883 38.65,46.503 0,46.503 0,53.497 38.65,53.497 43,52.117 &#xd;&#xa;&#x9;&#x9;57,52.117 61.35,53.497 100,53.497 100,46.503 &#x9;"/>
    </g>
   </g>
  </svg>
 </g>
</svg>
