<svg width="383" height="55" viewBox="0 0 383 55" fill="none" xmlns="http://www.w3.org/2000/svg">
<path d="M104.316 41.2057V38.1599H106.6V41.2057H104.316ZM107.362 41.2057V38.1599H110.408V41.2057H107.362ZM110.408 41.2057V38.1599H113.453V41.2057H110.408ZM107.362 37.3985V35.1142H110.408V37.3985H107.362ZM107.362 34.3528V31.3071H110.408V34.3528H107.362ZM107.362 31.3071V28.2613H110.408V31.3071H107.362ZM107.362 27.4999V25.2156H110.408V27.4999H107.362ZM107.362 24.4542V21.4085H110.408V24.4542H107.362ZM104.316 21.4085V18.3627H106.6V21.4085H104.316ZM107.362 21.4085V18.3627H110.408V21.4085H107.362ZM110.408 21.4085V18.3627H113.453V21.4085H110.408Z" fill="white"/>
<path d="M122.59 41.2057V38.1599H125.636V41.2057H122.59ZM136.296 41.2057V38.1599H138.581V41.2057H136.296ZM122.59 37.3985V35.1142H125.636V37.3985H122.59ZM132.489 37.3985V35.1142H135.535V37.3985H132.489ZM122.59 34.3528V31.3071H125.636V34.3528H122.59ZM129.443 34.3528V31.3071H132.489V34.3528H129.443ZM122.59 31.3071V28.2613H125.636V31.3071H122.59ZM126.398 31.3071V28.2613H128.682V31.3071H126.398ZM129.443 31.3071V28.2613H132.489V31.3071H129.443ZM132.489 31.3071V28.2613H135.535V31.3071H132.489ZM122.59 27.4999V25.2156H125.636V27.4999H122.59ZM136.296 27.4999V25.2156H138.581V27.4999H136.296ZM122.59 24.4542V21.4085H125.636V24.4542H122.59ZM136.296 24.4542V21.4085H138.581V24.4542H136.296ZM122.59 21.4085V18.3627H125.636V21.4085H122.59ZM126.398 21.4085V18.3627H128.682V21.4085H126.398ZM129.443 21.4085V18.3627H132.489V21.4085H129.443ZM132.489 21.4085V18.3627H135.535V21.4085H132.489Z" fill="white"/>
<path d="M145.433 31.3071V28.2613H147.718V31.3071H145.433ZM148.479 31.3071V28.2613H151.525V31.3071H148.479ZM151.525 31.3071V28.2613H154.571V31.3071H151.525ZM155.332 31.3071V28.2613H157.616V31.3071H155.332ZM158.378 31.3071V28.2613H161.423V31.3071H158.378Z" fill="white"/>
<path d="M167.515 41.2057V38.1599H169.799V41.2057H167.515ZM180.459 41.2057V38.1599H183.505V41.2057H180.459ZM167.515 37.3985V35.1142H169.799V37.3985H167.515ZM180.459 37.3985V35.1142H183.505V37.3985H180.459ZM167.515 34.3528V31.3071H169.799V34.3528H167.515ZM180.459 34.3528V31.3071H183.505V34.3528H180.459ZM167.515 31.3071V28.2613H169.799V31.3071H167.515ZM173.606 31.3071V28.2613H176.652V31.3071H173.606ZM180.459 31.3071V28.2613H183.505V31.3071H180.459ZM167.515 27.4999V25.2156H169.799V27.4999H167.515ZM173.606 27.4999V25.2156H176.652V27.4999H173.606ZM180.459 27.4999V25.2156H183.505V27.4999H180.459ZM167.515 24.4542V21.4085H169.799V24.4542H167.515ZM170.561 24.4542V21.4085H173.606V24.4542H170.561ZM177.414 24.4542V21.4085H179.698V24.4542H177.414ZM180.459 24.4542V21.4085H183.505V24.4542H180.459ZM167.515 21.4085V18.3627H169.799V21.4085H167.515ZM180.459 21.4085V18.3627H183.505V21.4085H180.459Z" fill="white"/>
<path d="M189.596 41.2057V38.1599H192.642V41.2057H189.596ZM202.541 41.2057V38.1599H205.586V41.2057H202.541ZM189.596 37.3985V35.1142H192.642V37.3985H189.596ZM202.541 37.3985V35.1142H205.586V37.3985H202.541ZM189.596 34.3528V31.3071H192.642V34.3528H189.596ZM192.642 34.3528V31.3071H195.688V34.3528H192.642ZM196.449 34.3528V31.3071H198.734V34.3528H196.449ZM199.495 34.3528V31.3071H202.541V34.3528H199.495ZM202.541 34.3528V31.3071H205.586V34.3528H202.541ZM189.596 31.3071V28.2613H192.642V31.3071H189.596ZM202.541 31.3071V28.2613H205.586V31.3071H202.541ZM189.596 27.4999V25.2156H192.642V27.4999H189.596ZM202.541 27.4999V25.2156H205.586V27.4999H202.541ZM189.596 24.4542V21.4085H192.642V24.4542H189.596ZM202.541 24.4542V21.4085H205.586V24.4542H202.541ZM192.642 21.4085V18.3627H195.688V21.4085H192.642ZM196.449 21.4085V18.3627H198.734V21.4085H196.449ZM199.495 21.4085V18.3627H202.541V21.4085H199.495Z" fill="white"/>
<path d="M211.678 41.2057V38.1599H214.724V41.2057H211.678ZM214.724 41.2057V38.1599H217.769V41.2057H214.724ZM218.531 41.2057V38.1599H220.815V41.2057H218.531ZM221.577 41.2057V38.1599H224.622V41.2057H221.577ZM224.622 37.3985V35.1142H227.668V37.3985H224.622ZM224.622 34.3528V31.3071H227.668V34.3528H224.622ZM214.724 31.3071V28.2613H217.769V31.3071H214.724ZM218.531 31.3071V28.2613H220.815V31.3071H218.531ZM221.577 31.3071V28.2613H224.622V31.3071H221.577ZM211.678 27.4999V25.2156H214.724V27.4999H211.678ZM211.678 24.4542V21.4085H214.724V24.4542H211.678ZM214.724 21.4085V18.3627H217.769V21.4085H214.724ZM218.531 21.4085V18.3627H220.815V21.4085H218.531ZM221.577 21.4085V18.3627H224.622V21.4085H221.577ZM224.622 21.4085V18.3627H227.668V21.4085H224.622Z" fill="white"/>
<path d="M240.612 41.2057V38.1599H243.658V41.2057H240.612ZM240.612 37.3985V35.1142H243.658V37.3985H240.612ZM240.612 34.3528V31.3071H243.658V34.3528H240.612ZM240.612 31.3071V28.2613H243.658V31.3071H240.612ZM240.612 27.4999V25.2156H243.658V27.4999H240.612ZM240.612 24.4542V21.4085H243.658V24.4542H240.612ZM233.759 21.4085V18.3627H236.805V21.4085H233.759ZM237.567 21.4085V18.3627H239.851V21.4085H237.567ZM240.612 21.4085V18.3627H243.658V21.4085H240.612ZM243.658 21.4085V18.3627H246.704V21.4085H243.658ZM247.465 21.4085V18.3627H249.75V21.4085H247.465Z" fill="white"/>
<path d="M255.841 41.2057V38.1599H258.887V41.2057H255.841ZM259.648 41.2057V38.1599H261.932V41.2057H259.648ZM262.694 41.2057V38.1599H265.74V41.2057H262.694ZM265.74 41.2057V38.1599H268.785V41.2057H265.74ZM269.547 41.2057V38.1599H271.831V41.2057H269.547ZM255.841 37.3985V35.1142H258.887V37.3985H255.841ZM255.841 34.3528V31.3071H258.887V34.3528H255.841ZM255.841 31.3071V28.2613H258.887V31.3071H255.841ZM259.648 31.3071V28.2613H261.932V31.3071H259.648ZM262.694 31.3071V28.2613H265.74V31.3071H262.694ZM265.74 31.3071V28.2613H268.785V31.3071H265.74ZM255.841 27.4999V25.2156H258.887V27.4999H255.841ZM255.841 24.4542V21.4085H258.887V24.4542H255.841ZM255.841 21.4085V18.3627H258.887V21.4085H255.841ZM259.648 21.4085V18.3627H261.932V21.4085H259.648ZM262.694 21.4085V18.3627H265.74V21.4085H262.694ZM265.74 21.4085V18.3627H268.785V21.4085H265.74ZM269.547 21.4085V18.3627H271.831V21.4085H269.547Z" fill="white"/>
<path d="M278.684 41.2057V38.1599H280.968V41.2057H278.684ZM291.628 41.2057V38.1599H294.674V41.2057H291.628ZM278.684 37.3985V35.1142H280.968V37.3985H278.684ZM288.582 37.3985V35.1142H290.867V37.3985H288.582ZM278.684 34.3528V31.3071H280.968V34.3528H278.684ZM284.775 34.3528V31.3071H287.821V34.3528H284.775ZM278.684 31.3071V28.2613H280.968V31.3071H278.684ZM281.73 31.3071V28.2613H284.775V31.3071H281.73ZM284.775 31.3071V28.2613H287.821V31.3071H284.775ZM288.582 31.3071V28.2613H290.867V31.3071H288.582ZM278.684 27.4999V25.2156H280.968V27.4999H278.684ZM291.628 27.4999V25.2156H294.674V27.4999H291.628ZM278.684 24.4542V21.4085H280.968V24.4542H278.684ZM291.628 24.4542V21.4085H294.674V24.4542H291.628ZM278.684 21.4085V18.3627H280.968V21.4085H278.684ZM281.73 21.4085V18.3627H284.775V21.4085H281.73ZM284.775 21.4085V18.3627H287.821V21.4085H284.775ZM288.582 21.4085V18.3627H290.867V21.4085H288.582Z" fill="white"/>
<path d="M322.847 41.2057V38.1599H325.893V41.2057H322.847ZM325.893 41.2057V38.1599H328.938V41.2057H325.893ZM329.7 41.2057V38.1599H331.984V41.2057H329.7ZM332.746 41.2057V38.1599H335.03V41.2057H332.746ZM335.791 41.2057V38.1599H338.837V41.2057H335.791ZM325.893 37.3985V35.1142H328.938V37.3985H325.893ZM329.7 34.3528V31.3071H331.984V34.3528H329.7ZM332.746 31.3071V28.2613H335.03V31.3071H332.746ZM335.791 27.4999V25.2156H338.837V27.4999H335.791ZM322.847 24.4542V21.4085H325.893V24.4542H322.847ZM335.791 24.4542V21.4085H338.837V24.4542H335.791ZM325.893 21.4085V18.3627H328.938V21.4085H325.893ZM329.7 21.4085V18.3627H331.984V21.4085H329.7ZM332.746 21.4085V18.3627H335.03V21.4085H332.746Z" fill="white"/>
<path d="M344.928 41.2057V38.16H347.974V41.2057H344.928Z" fill="white"/>
<path d="M370.817 41.2057V38.1599H373.101V41.2057H370.817ZM373.863 41.2057V38.1599H376.147V41.2057H373.863ZM376.909 41.2057V38.1599H379.954V41.2057H376.909ZM367.01 37.3985V35.1142H370.056V37.3985H367.01ZM379.954 37.3985V35.1142H383V37.3985H379.954ZM367.01 34.3528V31.3071H370.056V34.3528H367.01ZM379.954 34.3528V31.3071H383V34.3528H379.954ZM367.01 31.3071V28.2613H370.056V31.3071H367.01ZM379.954 31.3071V28.2613H383V31.3071H379.954ZM367.01 27.4999V25.2156H370.056V27.4999H367.01ZM379.954 27.4999V25.2156H383V27.4999H379.954ZM367.01 24.4542V21.4085H370.056V24.4542H367.01ZM379.954 24.4542V21.4085H383V24.4542H379.954ZM370.817 21.4085V18.3627H373.101V21.4085H370.817ZM373.863 21.4085V18.3627H376.147V21.4085H373.863ZM376.909 21.4085V18.3627H379.954V21.4085H376.909Z" fill="white"/>
<path d="M44.9245 9.22556L27.4115 1.61124V13.0327C28.173 13.0327 28.9344 13.7941 29.6958 13.7941C29.6958 14.5556 29.6958 14.5556 30.4573 14.5556L44.9245 9.22556ZM27.4115 0.0883789L37.3101 3.89554L46.4473 8.46412L50.2545 17.6013L54.8231 27.4999L50.2545 37.3985L46.4473 46.5357L37.3101 50.3429L27.4115 54.9114L17.5129 50.3429L8.37575 46.5357L3.80716 37.3985L0 27.4999L3.80716 17.6013L8.37575 8.46412L17.5129 3.89554L27.4115 0.0883789ZM19.7972 32.8299C19.7972 32.8299 19.7972 32.8299 20.5586 32.8299L25.8887 19.1242C25.8887 19.1242 25.1272 19.1242 25.1272 18.3627L24.3658 17.6013L12.9443 18.3627C12.9443 19.1242 12.9443 19.8856 12.1829 19.8856C12.1829 19.8856 12.1829 19.8856 12.1829 20.647L19.0358 32.8299C19.0358 32.8299 19.0358 32.8299 19.7972 32.8299ZM21.3201 32.8299C21.3201 32.8299 21.3201 32.8299 21.3201 33.5914L22.0815 34.3528H31.9801C31.9801 33.5914 31.9801 32.8299 32.7416 32.0685H33.503L28.173 19.1242L27.4115 19.8856C27.4115 19.8856 26.6501 19.8856 26.6501 19.1242L21.3201 32.8299ZM22.0815 35.1142C22.0815 35.8757 21.3201 35.8757 21.3201 36.6371C21.3201 36.6371 21.3201 36.6371 20.5586 36.6371L27.4115 52.6271L33.503 38.16C33.503 38.16 32.7416 38.16 32.7416 37.3985C31.9801 36.6371 31.9801 35.8757 31.2187 35.1142H22.0815ZM19.7972 37.3985C19.0358 37.3985 18.2744 37.3985 18.2744 36.6371L9.89861 45.7743L26.6501 52.6271L19.7972 37.3985ZM17.5129 36.6371C17.5129 35.8757 17.5129 35.1142 17.5129 35.1142C17.5129 34.3528 17.5129 34.3528 17.5129 34.3528L2.28429 28.2613L9.13718 45.0128L17.5129 36.6371ZM17.5129 33.5914C17.5129 33.5914 17.5129 33.5914 18.2744 33.5914C18.2744 32.8299 18.2744 32.8299 18.2744 32.8299L11.4215 20.647H10.66C9.89861 20.647 9.13718 20.647 9.13718 20.647L2.28429 27.4999L17.5129 33.5914ZM44.9245 16.8399C44.9245 16.8399 44.9245 16.8399 45.6859 16.8399C45.6859 17.6013 45.6859 17.6013 45.6859 18.3627V19.1242L52.5388 25.977L45.6859 10.7484L44.9245 16.8399ZM44.9245 19.8856H43.4016L37.3101 32.0685C37.3101 32.0685 37.3101 32.0685 38.0716 32.0685C38.0716 32.8299 38.0716 32.8299 38.833 32.8299L52.5388 27.4999L44.9245 19.8856ZM42.6402 19.1242C42.6402 19.1242 42.6402 19.1242 42.6402 18.3627L30.4573 17.6013L29.6958 18.3627C29.6958 19.1242 28.9344 19.1242 28.9344 19.1242L34.2644 31.3071H35.0258C35.7873 31.3071 35.7873 31.3071 36.5487 31.3071L42.6402 19.1242ZM42.6402 17.6013V16.8399C43.4016 16.8399 43.4016 16.0784 44.163 16.0784L44.9245 9.22556L30.4573 15.317C30.4573 16.0784 30.4573 16.0784 30.4573 16.0784V16.8399L42.6402 17.6013ZM24.3658 16.0784L9.13718 9.22556L10.66 15.317C11.4215 15.317 12.1829 15.317 12.1829 16.0784C12.9443 16.8399 12.9443 16.8399 12.9443 17.6013L24.3658 16.0784ZM24.3658 15.317C24.3658 14.5556 25.1272 14.5556 25.1272 13.7941C25.8887 13.7941 25.8887 13.0327 26.6501 13.0327V1.61124L9.89861 9.22556L24.3658 15.317ZM8.37575 19.8856C7.61431 19.1242 7.61431 19.1242 7.61431 18.3627C7.61431 17.6013 8.37575 16.8399 8.37575 16.0784C9.13718 16.0784 9.13718 15.317 9.89861 15.317L9.13718 10.7484L2.28429 25.977L8.37575 19.8856ZM38.833 33.5914C38.833 34.3528 38.833 34.3528 38.833 35.1142C38.833 35.8757 38.833 36.6371 38.0716 37.3985L45.6859 45.0128L52.5388 28.2613L38.833 33.5914ZM37.3101 38.16C37.3101 38.16 35.7873 38.9214 35.0258 38.9214C35.0258 38.9214 34.2644 38.9214 34.2644 38.16L28.173 52.6271L44.9245 45.7743L37.3101 38.16Z" fill="white"/>
</svg>
