<?xml version='1.0' encoding='UTF-8' standalone='no'?>
<svg width="20" x="0px" version="1.1" y="0px" xmlns="http://www.w3.org/2000/svg" height="20" xmlns:xlink="http://www.w3.org/1999/xlink" id="Ebene_1" enable-background="new 0 0 50 50" xml:space="preserve" xmlns:atv="http://webmi.atvise.com/2007/svgext">
 <defs/>
 <metadata>
  <atv:parameter desc="symbol color" valuetype="color" substitute="$SYMBOLCOLOR$" behavior="optional" name="symbolColor" defaultvalue="#000000"/>
 </metadata>
 <circle fill="none" cx="8.53" cy="8.594" stroke="$SYMBOLCOLOR$" r="4.919" id="id_6" atv:refpx="8.53" stroke-width="1" atv:refpy="12.357"/>
 <rect width="2.725" x="-1.317" y="16.946" fill="$SYMBOLCOLOR$" height="5.532" stroke="none" id="id_7" atv:refpx="13.972" stroke-width="1" atv:refpy="26.909" transform="matrix(0.7071,-0.7071,0.7071,0.7071,0,0)"/>
 <polygon fill="$SYMBOLCOLOR$" points="5.162,6.051 5.162,8.307 5.63,8.307 5.63,6.456 8.222,6.456 8.222,6.051" id="id_1" atv:refpx="6.693" atv:refpy="7.18" stroke-width="0.328"/>
 <polygon fill="$SYMBOLCOLOR$" points="11.916,8.307 11.916,6.051 8.855,6.051 8.855,6.456 11.447,6.456 11.447,8.307" id="id_2" atv:refpx="10.386" atv:refpy="7.18" stroke-width="0.328"/>
 <polygon fill="$SYMBOLCOLOR$" points="5.63,10.768 5.63,8.916 5.162,8.916 5.162,11.172 8.222,11.172 8.222,10.768" id="id_3" atv:refpx="6.693" atv:refpy="10.045" stroke-width="0.328"/>
 <polygon fill="$SYMBOLCOLOR$" points="11.916,11.172 11.916,8.916 11.447,8.916 11.447,10.768 8.855,10.768 8.855,11.172" id="id_4" atv:refpx="10.386" atv:refpy="10.045" stroke-width="0.328"/>
</svg>
