<?xml version='1.0' encoding='UTF-8' standalone='no'?>
<svg xmlns:svg="http://www.w3.org/2000/svg" inkscape:version="1.0beta1 (d07a077, 2019-11-03)" sodipodi:docname="Pipelinepump_yellow.svg" id="svg1459" xmlns="http://www.w3.org/2000/svg" xmlns:rdf="http://www.w3.org/1999/02/22-rdf-syntax-ns#" xmlns:inkscape="http://www.inkscape.org/namespaces/inkscape" height="203.03899" xmlns:atv="http://webmi.atvise.com/2007/svgext" width="221.04802" xmlns:sodipodi="http://sodipodi.sourceforge.net/DTD/sodipodi-0.dtd" version="1.1" xmlns:cc="http://creativecommons.org/ns#" xmlns:xlink="http://www.w3.org/1999/xlink" xmlns:dc="http://purl.org/dc/elements/1.1/">
 <defs id="defs1453">
  <linearGradient y1="54.6245" id="Sk2of9mgq1k" gradientUnits="userSpaceOnUse" x2="98" x1="2" y2="54.6245">
   <stop stop-color="#2098e8" offset="0"/>
   <stop stop-color="#005287" offset="1"/>
  </linearGradient>
  <linearGradient y1="54.6245" id="Sk2of9mgq1n" gradientUnits="userSpaceOnUse" x2="98" x1="2" y2="54.6245">
   <stop stop-color="#de9c5f" offset="0"/>
   <stop stop-color="#000000" offset="1"/>
  </linearGradient>
  <linearGradient y1="54.6245" id="Sk2of9mgq1q" gradientUnits="userSpaceOnUse" x2="98" x1="2" y2="54.6245">
   <stop stop-color="#c6e2ff" offset="0"/>
   <stop stop-color="#4c5e70" offset="1"/>
  </linearGradient>
  <linearGradient y1="54.6245" id="Sk2of9mgq1w" gradientUnits="userSpaceOnUse" x2="98" x1="2" y2="54.6245">
   <stop stop-color="#6db6ff" offset="0"/>
   <stop stop-color="#254a70" offset="1"/>
  </linearGradient>
  <linearGradient y1="54.6245" id="Sk2of9mgq22" gradientUnits="userSpaceOnUse" x2="98" x1="2" y2="54.6245">
   <stop stop-color="#b2b2b2" offset="0"/>
   <stop stop-color="#666666" offset="1"/>
  </linearGradient>
  <linearGradient y1="54.6245" id="Sk2of9mgq28" gradientUnits="userSpaceOnUse" x2="98" x1="2" y2="54.6245">
   <stop stop-color="#bc4512" offset="0"/>
   <stop stop-color="#472000" offset="1"/>
  </linearGradient>
  <linearGradient y1="54.6245" id="Sk2of9mgq2q" gradientUnits="userSpaceOnUse" x2="98" x1="2" y2="54.6245">
   <stop stop-color="#96c9eb" offset="0"/>
   <stop stop-color="#547387" offset="1"/>
  </linearGradient>
  <linearGradient y1="65.5" id="Sk2of9mgq9g" gradientUnits="userSpaceOnUse" x2="43.145802" x1="43.145802" y2="84.006798">
   <stop stop-color="#6db6ff" offset="0"/>
   <stop stop-color="#a5d2ff" offset="0.08599999999999999"/>
   <stop stop-color="#254a70" offset="1"/>
  </linearGradient>
  <linearGradient y1="65.5" id="Sk2of9mgq9n" gradientUnits="userSpaceOnUse" x2="59.850201" x1="59.850201" y2="84.006798">
   <stop stop-color="#6db6ff" offset="0"/>
   <stop stop-color="#a5d2ff" offset="0.08599999999999999"/>
   <stop stop-color="#254a70" offset="1"/>
  </linearGradient>
  <linearGradient y1="78.873199" id="Sk2of9mgq9u" gradientUnits="userSpaceOnUse" x2="73.1912" x1="86.4925" y2="92.1745">
   <stop stop-color="#6db6ff" offset="0"/>
   <stop stop-color="#a5d2ff" offset="0.08599999999999999"/>
   <stop stop-color="#254a70" offset="1"/>
  </linearGradient>
  <linearGradient y1="32.935001" id="Sk2of9mgqa0" gradientUnits="userSpaceOnUse" x2="41.216499" x1="13.1168" y2="32.935001">
   <stop stop-color="#6db6ff" offset="0"/>
   <stop stop-color="#254a70" offset="1"/>
  </linearGradient>
  <linearGradient y1="48.349701" id="Sk2of9mgqa5" gradientUnits="userSpaceOnUse" x2="35.2225" x1="29.444201" y2="48.349701">
   <stop stop-color="#6db6ff" offset="0"/>
   <stop stop-color="#254a70" offset="1"/>
  </linearGradient>
  <linearGradient y1="69.236298" id="Sk2of9mgqaa" gradientUnits="userSpaceOnUse" x2="43.066502" x1="11.2732" y2="69.236298">
   <stop stop-color="#6db6ff" offset="0"/>
   <stop stop-color="#254a70" offset="1"/>
  </linearGradient>
  <linearGradient y1="49.5308" id="Sk2of9mgqaf" gradientUnits="userSpaceOnUse" x2="29.444201" x1="24.8892" y2="49.5308">
   <stop stop-color="#6db6ff" offset="0"/>
   <stop stop-color="#254a70" offset="1"/>
  </linearGradient>
  <linearGradient y1="48.219601" id="Sk2of9mgqak" gradientUnits="userSpaceOnUse" x2="39.7775" x1="35.2225" y2="48.219601">
   <stop stop-color="#6db6ff" offset="0"/>
   <stop stop-color="#254a70" offset="1"/>
  </linearGradient>
  <linearGradient y1="48.207298" id="Sk2of9mgqap" gradientUnits="userSpaceOnUse" x2="19.0275" x1="14.4725" y2="48.207298">
   <stop stop-color="#6db6ff" offset="0"/>
   <stop stop-color="#254a70" offset="1"/>
  </linearGradient>
  <linearGradient y1="65.5" id="Sk2of9mgqas" gradientUnits="userSpaceOnUse" x2="43.145802" x1="43.145802" y2="84.006798">
   <stop stop-color="#f2a4a4" offset="0"/>
   <stop stop-color="#ffe0e0" offset="0.08599999999999999"/>
   <stop stop-color="#d87d7d" offset="1"/>
  </linearGradient>
  <linearGradient y1="65.5" id="Sk2of9mgqaw" gradientUnits="userSpaceOnUse" x2="59.850201" x1="59.850201" y2="84.006798">
   <stop stop-color="#f2a4a4" offset="0"/>
   <stop stop-color="#ffe0e0" offset="0.08599999999999999"/>
   <stop stop-color="#d87d7d" offset="1"/>
  </linearGradient>
  <linearGradient y1="78.873199" id="Sk2of9mgqb0" gradientUnits="userSpaceOnUse" x2="73.1912" x1="86.4925" y2="92.1745">
   <stop stop-color="#f2a4a4" offset="0"/>
   <stop stop-color="#ffe0e0" offset="0.08599999999999999"/>
   <stop stop-color="#d87d7d" offset="1"/>
  </linearGradient>
  <linearGradient y1="32.935001" id="Sk2of9mgqb4" gradientUnits="userSpaceOnUse" x2="41.216499" x1="13.1168" y2="32.935001">
   <stop stop-color="#f2a4a4" offset="0"/>
   <stop stop-color="#d87d7d" offset="1"/>
  </linearGradient>
  <linearGradient y1="48.349701" id="Sk2of9mgqb7" gradientUnits="userSpaceOnUse" x2="35.2225" x1="29.444201" y2="48.349701">
   <stop stop-color="#f2a4a4" offset="0"/>
   <stop stop-color="#d87d7d" offset="1"/>
  </linearGradient>
  <linearGradient y1="69.236298" id="Sk2of9mgqba" gradientUnits="userSpaceOnUse" x2="43.066502" x1="11.2732" y2="69.236298">
   <stop stop-color="#f2a4a4" offset="0"/>
   <stop stop-color="#d87d7d" offset="1"/>
  </linearGradient>
  <linearGradient y1="49.5308" id="Sk2of9mgqbd" gradientUnits="userSpaceOnUse" x2="29.444201" x1="24.8892" y2="49.5308">
   <stop stop-color="#f2a4a4" offset="0"/>
   <stop stop-color="#d87d7d" offset="1"/>
  </linearGradient>
  <linearGradient y1="48.219601" id="Sk2of9mgqbg" gradientUnits="userSpaceOnUse" x2="39.7775" x1="35.2225" y2="48.219601">
   <stop stop-color="#f2a4a4" offset="0"/>
   <stop stop-color="#d87d7d" offset="1"/>
  </linearGradient>
  <linearGradient y1="48.207298" id="Sk2of9mgqbj" gradientUnits="userSpaceOnUse" x2="19.0275" x1="14.4725" y2="48.207298">
   <stop stop-color="#f2a4a4" offset="0"/>
   <stop stop-color="#d87d7d" offset="1"/>
  </linearGradient>
  <linearGradient y1="65.5" id="Sk2of9mgqbm" gradientUnits="userSpaceOnUse" x2="43.145802" x1="43.145802" y2="84.006798">
   <stop stop-color="#fcf481" offset="0"/>
   <stop stop-color="#f7f9c7" offset="0.08599999999999999"/>
   <stop stop-color="#b5ab18" offset="1"/>
  </linearGradient>
  <linearGradient y1="65.5" id="Sk2of9mgqbq" gradientUnits="userSpaceOnUse" x2="59.850201" x1="59.850201" y2="84.006798">
   <stop stop-color="#fcf481" offset="0"/>
   <stop stop-color="#f7f9c7" offset="0.08599999999999999"/>
   <stop stop-color="#b5ab18" offset="1"/>
  </linearGradient>
  <linearGradient y1="78.873199" id="Sk2of9mgqbu" gradientUnits="userSpaceOnUse" x2="73.1912" x1="86.4925" y2="92.1745">
   <stop stop-color="#fcf481" offset="0"/>
   <stop stop-color="#f7f9c7" offset="0.08599999999999999"/>
   <stop stop-color="#b5ab18" offset="1"/>
  </linearGradient>
  <linearGradient y1="32.935001" id="Sk2of9mgqby" gradientUnits="userSpaceOnUse" x2="41.216499" x1="13.1168" y2="32.935001">
   <stop stop-color="#fcf481" offset="0"/>
   <stop stop-color="#b5ab18" offset="1"/>
  </linearGradient>
  <linearGradient y1="48.349701" id="Sk2of9mgqc1" gradientUnits="userSpaceOnUse" x2="35.2225" x1="29.444201" y2="48.349701">
   <stop stop-color="#fcf481" offset="0"/>
   <stop stop-color="#b5ab18" offset="1"/>
  </linearGradient>
  <linearGradient y1="69.236298" id="Sk2of9mgqc4" gradientUnits="userSpaceOnUse" x2="43.066502" x1="11.2732" y2="69.236298">
   <stop stop-color="#fcf481" offset="0"/>
   <stop stop-color="#b5ab18" offset="1"/>
  </linearGradient>
  <linearGradient y1="49.5308" id="Sk2of9mgqc7" gradientUnits="userSpaceOnUse" x2="29.444201" x1="24.8892" y2="49.5308">
   <stop stop-color="#fcf481" offset="0"/>
   <stop stop-color="#b5ab18" offset="1"/>
  </linearGradient>
  <linearGradient y1="48.219601" id="Sk2of9mgqca" gradientUnits="userSpaceOnUse" x2="39.7775" x1="35.2225" y2="48.219601">
   <stop stop-color="#fcf481" offset="0"/>
   <stop stop-color="#b5ab18" offset="1"/>
  </linearGradient>
  <linearGradient y1="48.207298" id="Sk2of9mgqcd" gradientUnits="userSpaceOnUse" x2="19.0275" x1="14.4725" y2="48.207298">
   <stop stop-color="#fcf481" offset="0"/>
   <stop stop-color="#b5ab18" offset="1"/>
  </linearGradient>
  <linearGradient y1="65.5" id="Sk2of9mgqcg" gradientUnits="userSpaceOnUse" x2="43.145802" x1="43.145802" y2="84.006798">
   <stop stop-color="#de9c5f" offset="0"/>
   <stop stop-color="#fbbc5a" offset="0.08599999999999999"/>
   <stop stop-color="#000000" offset="1"/>
  </linearGradient>
  <linearGradient y1="65.5" id="Sk2of9mgqck" gradientUnits="userSpaceOnUse" x2="59.850201" x1="59.850201" y2="84.006798">
   <stop stop-color="#de9c5f" offset="0"/>
   <stop stop-color="#fbbc5a" offset="0.08599999999999999"/>
   <stop stop-color="#000000" offset="1"/>
  </linearGradient>
  <linearGradient y1="78.873199" id="Sk2of9mgqco" gradientUnits="userSpaceOnUse" x2="73.1912" x1="86.4925" y2="92.1745">
   <stop stop-color="#de9c5f" offset="0"/>
   <stop stop-color="#fbbc5a" offset="0.08599999999999999"/>
   <stop stop-color="#000000" offset="1"/>
  </linearGradient>
  <linearGradient y1="32.935001" id="Sk2of9mgqcs" gradientUnits="userSpaceOnUse" x2="41.216499" x1="13.1168" y2="32.935001">
   <stop stop-color="#de9c5f" offset="0"/>
   <stop stop-color="#000000" offset="1"/>
  </linearGradient>
  <linearGradient y1="48.349701" id="Sk2of9mgqcv" gradientUnits="userSpaceOnUse" x2="35.2225" x1="29.444201" y2="48.349701">
   <stop stop-color="#de9c5f" offset="0"/>
   <stop stop-color="#000000" offset="1"/>
  </linearGradient>
  <linearGradient y1="69.236298" id="Sk2of9mgqcy" gradientUnits="userSpaceOnUse" x2="43.066502" x1="11.2732" y2="69.236298">
   <stop stop-color="#de9c5f" offset="0"/>
   <stop stop-color="#000000" offset="1"/>
  </linearGradient>
  <linearGradient y1="49.5308" id="Sk2of9mgqd1" gradientUnits="userSpaceOnUse" x2="29.444201" x1="24.8892" y2="49.5308">
   <stop stop-color="#de9c5f" offset="0"/>
   <stop stop-color="#000000" offset="1"/>
  </linearGradient>
  <linearGradient y1="48.219601" id="Sk2of9mgqd4" gradientUnits="userSpaceOnUse" x2="39.7775" x1="35.2225" y2="48.219601">
   <stop stop-color="#de9c5f" offset="0"/>
   <stop stop-color="#000000" offset="1"/>
  </linearGradient>
  <linearGradient y1="48.207298" id="Sk2of9mgqd7" gradientUnits="userSpaceOnUse" x2="19.0275" x1="14.4725" y2="48.207298">
   <stop stop-color="#de9c5f" offset="0"/>
   <stop stop-color="#000000" offset="1"/>
  </linearGradient>
  <linearGradient y1="65.5" id="Sk2of9mgqda" gradientUnits="userSpaceOnUse" x2="43.145802" x1="43.145802" y2="84.006798">
   <stop stop-color="#b2b2b2" offset="0"/>
   <stop stop-color="#cccccc" offset="0.08599999999999999"/>
   <stop stop-color="#666666" offset="1"/>
  </linearGradient>
  <linearGradient y1="65.5" id="Sk2of9mgqde" gradientUnits="userSpaceOnUse" x2="59.850201" x1="59.850201" y2="84.006798">
   <stop stop-color="#b2b2b2" offset="0"/>
   <stop stop-color="#cccccc" offset="0.08599999999999999"/>
   <stop stop-color="#666666" offset="1"/>
  </linearGradient>
  <linearGradient y1="78.873199" id="Sk2of9mgqdi" gradientUnits="userSpaceOnUse" x2="73.1912" x1="86.4925" y2="92.1745">
   <stop stop-color="#b2b2b2" offset="0"/>
   <stop stop-color="#cccccc" offset="0.08599999999999999"/>
   <stop stop-color="#666666" offset="1"/>
  </linearGradient>
  <linearGradient y1="32.935001" id="Sk2of9mgqdm" gradientUnits="userSpaceOnUse" x2="41.216499" x1="13.1168" y2="32.935001">
   <stop stop-color="#b2b2b2" offset="0"/>
   <stop stop-color="#666666" offset="1"/>
  </linearGradient>
  <linearGradient y1="48.349701" id="Sk2of9mgqdp" gradientUnits="userSpaceOnUse" x2="35.2225" x1="29.444201" y2="48.349701">
   <stop stop-color="#b2b2b2" offset="0"/>
   <stop stop-color="#666666" offset="1"/>
  </linearGradient>
  <linearGradient y1="69.236298" id="Sk2of9mgqds" gradientUnits="userSpaceOnUse" x2="43.066502" x1="11.2732" y2="69.236298">
   <stop stop-color="#b2b2b2" offset="0"/>
   <stop stop-color="#666666" offset="1"/>
  </linearGradient>
  <linearGradient y1="49.5308" id="Sk2of9mgqdv" gradientUnits="userSpaceOnUse" x2="29.444201" x1="24.8892" y2="49.5308">
   <stop stop-color="#b2b2b2" offset="0"/>
   <stop stop-color="#666666" offset="1"/>
  </linearGradient>
  <linearGradient y1="48.219601" id="Sk2of9mgqdy" gradientUnits="userSpaceOnUse" x2="39.7775" x1="35.2225" y2="48.219601">
   <stop stop-color="#b2b2b2" offset="0"/>
   <stop stop-color="#666666" offset="1"/>
  </linearGradient>
  <linearGradient y1="48.207298" id="Sk2of9mgqe1" gradientUnits="userSpaceOnUse" x2="19.0275" x1="14.4725" y2="48.207298">
   <stop stop-color="#b2b2b2" offset="0"/>
   <stop stop-color="#666666" offset="1"/>
  </linearGradient>
  <linearGradient y1="0.0131151" id="Sk2of9mgqfs" gradientUnits="objectBoundingBox" x2="0.499979" x1="0.499979" y2="0.983989">
   <stop stop-color="#fcf7b0" offset="0"/>
   <stop stop-color="#ffffee" offset="0.08599999999999999"/>
   <stop stop-color="#7a7410" offset="1"/>
  </linearGradient>
  <linearGradient y1="0.0131151" id="Sk2of9mgqfw" gradientUnits="objectBoundingBox" x2="0.499989" x1="0.499989" y2="0.983989">
   <stop stop-color="#fcf7b0" offset="0"/>
   <stop stop-color="#ffffee" offset="0.08599999999999999"/>
   <stop stop-color="#7a7410" offset="1"/>
  </linearGradient>
  <linearGradient y1="0.458621" id="Sk2of9mgqg0" gradientUnits="objectBoundingBox" x2="0.230573" x1="0.620014" y2="0.914777">
   <stop stop-color="#fcf7b0" offset="0"/>
   <stop stop-color="#ffffee" offset="0.08599999999999999"/>
   <stop stop-color="#7a7410" offset="1"/>
  </linearGradient>
  <linearGradient y1="0.499982" id="Sk2of9mgqg4" gradientUnits="objectBoundingBox" x2="0.999982" x1="-7.11744e-6" y2="0.499982">
   <stop stop-color="#fcf7b0" offset="0"/>
   <stop stop-color="#7a7410" offset="1"/>
  </linearGradient>
  <linearGradient y1="0.500494" id="Sk2of9mgqg7" gradientUnits="objectBoundingBox" x2="1.00009" x1="3.47871e-5" y2="0.500494">
   <stop stop-color="#fcf7b0" offset="0"/>
   <stop stop-color="#7a7410" offset="1"/>
  </linearGradient>
  <linearGradient y1="0.499995" id="Sk2of9mgqga" gradientUnits="objectBoundingBox" x2="0.999984" x1="6.2905e-6" y2="0.499995">
   <stop stop-color="#fcf7b0" offset="0"/>
   <stop stop-color="#7a7410" offset="1"/>
  </linearGradient>
  <linearGradient y1="0.500054" id="Sk2of9mgqgd" gradientUnits="objectBoundingBox" x2="1.00004" x1="4.39078e-5" y2="0.500054">
   <stop stop-color="#fcf7b0" offset="0"/>
   <stop stop-color="#7a7410" offset="1"/>
  </linearGradient>
  <linearGradient y1="0.50002" id="Sk2of9mgqgg" gradientUnits="objectBoundingBox" x2="1.00011" x1="-0.000109794" y2="0.50002">
   <stop stop-color="#fcf7b0" offset="0"/>
   <stop stop-color="#7a7410" offset="1"/>
  </linearGradient>
  <linearGradient y1="0.499961" id="Sk2of9mgqgj" gradientUnits="objectBoundingBox" x2="1.00011" x1="-0.000109794" y2="0.499961">
   <stop stop-color="#fcf7b0" offset="0"/>
   <stop stop-color="#7a7410" offset="1"/>
  </linearGradient>
  <linearGradient y1="65.5" id="SVGID_1_" gradientUnits="userSpaceOnUse" class="linear" x2="43.145802" x1="43.145802" y2="84.006798">
   <stop stop-color="#B3B3B3" offset="0"/>
   <stop stop-color="#FFFFFF" offset="0.086"/>
   <stop stop-color="#000000" offset="1"/>
  </linearGradient>
  <linearGradient y1="65.5" id="SVGID_2_" gradientUnits="userSpaceOnUse" class="linear" x2="59.850201" x1="59.850201" y2="84.006798">
   <stop stop-color="#B3B3B3" offset="0"/>
   <stop stop-color="#FFFFFF" offset="0.086"/>
   <stop stop-color="#000000" offset="1"/>
  </linearGradient>
  <linearGradient y1="78.873199" id="SVGID_3_" gradientUnits="userSpaceOnUse" class="linear" x2="73.1912" x1="86.4925" y2="92.1745">
   <stop stop-color="#B3B3B3" offset="0"/>
   <stop stop-color="#FFFFFF" offset="0.086"/>
   <stop stop-color="#000000" offset="1"/>
  </linearGradient>
  <linearGradient y1="32.935001" id="SVGID_4_" gradientUnits="userSpaceOnUse" class="linear" x2="41.216499" x1="13.1168" y2="32.935001">
   <stop stop-color="#B3B3B3" offset="0"/>
   <stop stop-color="#000000" offset="1"/>
  </linearGradient>
  <linearGradient y1="48.349701" id="SVGID_5_" gradientUnits="userSpaceOnUse" class="linear" x2="35.2225" x1="29.444201" y2="48.349701">
   <stop stop-color="#B3B3B3" offset="0"/>
   <stop stop-color="#000000" offset="1"/>
  </linearGradient>
  <linearGradient y1="69.236298" id="SVGID_6_" gradientUnits="userSpaceOnUse" class="linear" x2="43.066502" x1="11.2732" y2="69.236298">
   <stop stop-color="#B3B3B3" offset="0"/>
   <stop stop-color="#000000" offset="1"/>
  </linearGradient>
  <linearGradient y1="49.5308" id="SVGID_7_" gradientUnits="userSpaceOnUse" class="linear" x2="29.444201" x1="24.8892" y2="49.5308">
   <stop stop-color="#B3B3B3" offset="0"/>
   <stop stop-color="#000000" offset="1"/>
  </linearGradient>
  <linearGradient y1="48.219601" id="SVGID_8_" gradientUnits="userSpaceOnUse" class="linear" x2="39.7775" x1="35.2225" y2="48.219601">
   <stop stop-color="#B3B3B3" offset="0"/>
   <stop stop-color="#000000" offset="1"/>
  </linearGradient>
  <linearGradient y1="48.207298" id="SVGID_9_" gradientUnits="userSpaceOnUse" class="linear" x2="19.0275" x1="14.4725" y2="48.207298">
   <stop stop-color="#B3B3B3" offset="0"/>
   <stop stop-color="#000000" offset="1"/>
  </linearGradient>
 </defs>
 <sodipodi:namedview bordercolor="#666666" inkscape:window-x="234" inkscape:document-rotation="0" inkscape:pageopacity="0.0" borderopacity="1.0" inkscape:document-units="mm" inkscape:zoom="0.35" pagecolor="#ffffff" inkscape:cx="866.29995" inkscape:current-layer="layer1" inkscape:cy="357.98143" id="base" inkscape:pageshadow="2" showgrid="false" inkscape:window-height="951" inkscape:window-maximized="0" inkscape:window-width="1644" inkscape:window-y="23"/>
 <metadata id="metadata1456">
  <rdf:RDF>
   <cc:Work rdf:about="">
    <dc:format>image/svg+xml</dc:format>
    <dc:type rdf:resource="http://purl.org/dc/dcmitype/StillImage"/>
    <dc:title/>
   </cc:Work>
  </rdf:RDF>
  <atv:gridconfig height="20" enabled="false" width="20" gridstyle="lines"/>
  <atv:snapconfig height="10" enabled="false" width="10"/>
 </metadata>
 <g atv:refpx="110.512" inkscape:groupmode="layer" atv:refpy="101.519" id="layer1" transform="translate(123.37519,-53.450748)" inkscape:label="Слой 1">
  <g atv:refpx="-12.863" atv:refpy="154.97" id="g2868" transform="matrix(2.2483826,0,0,2.0546345,-125.98107,51.026279)">
   <g atv:refpx="50.316" atv:refpy="50.59" id="shape">
    <path atv:refpx="50.316" atv:refpy="50.59" d="M99.184,91.222L73.462,65.5L71.212,65.25L48.845,65.25C48.522,63.383 48.104,62.25 47.646,62.25C47.277,62.25 46.015,62.25 45.646,62.25C45.188,62.25 44.77,63.383 44.447,65.25L43.067,65.25L43.067,50.468C43.067,49.931 41.833,49.438 39.778,49.042L39.778,45.631C39.789,45.628 39.8,45.624 39.811,45.621L45.418,44.5L45.418,23.5L41.218,23.08L41.218,19.075L41.218,14.075C41.218,13.774 40.775,13.488 39.997,13.232C39.946,8.54 39.5,7.574 39.5,7.574C39.5,7.053 38.009,6.584 35.633,6.252L34.75,3.074C34.75,2.924 34.546,2.78 34.182,2.649L34.182,2.049L33.705,1.848L32.75,1.848L32.273,2.049L32.273,2.249C31.659,2.166 30.956,2.098 30.182,2.048L30.182,1.382L29.705,1.18L28.75,1.18L28.273,1.381L28.273,1.967C27.911,1.959 27.544,1.954 27.167,1.954C26.789,1.954 26.42,1.958 26.057,1.966L26.057,1.382L25.58,1.18L24.625,1.18L24.148,1.381L24.148,2.047C23.426,2.093 22.766,2.156 22.182,2.232L22.182,2.049L21.705,1.848L20.75,1.848L20.273,2.049L20.273,2.61C19.834,2.752 19.584,2.909 19.584,3.074L18.701,6.252C16.324,6.584 14.834,7.053 14.834,7.574C14.834,7.574 14.388,8.54 14.339,13.231C13.56,13.489 13.118,13.774 13.118,14.074L13.118,19.073L13.118,44.721C13.118,45.038 13.613,45.336 14.474,45.605L14.474,49.059C13.643,49.221 12.948,49.4 12.425,49.592L12.427,49.542C12.427,49.542 9.262,50.854 9.108,52.243C8.972,53.467 7.278,79.74 6.878,85.961C3.302,86.619 1.158,87.453 1.158,88.363C1.158,88.726 1.158,90.095 1.158,90.458C1.158,91.262 2.832,92.007 5.691,92.624L5.691,93.698L5.691,96.829C5.691,98.581 15.308,100 27.169,100C39.033,100 48.649,98.58 48.649,96.829L48.649,93.698L48.649,92.624C49.395,92.463 50.062,92.293 50.638,92.116L51.6,92.116L52.228,91.958L52.228,91.488C52.845,91.16 53.181,90.815 53.181,90.458C53.181,90.095 53.181,88.726 53.181,88.363C53.181,88.006 52.844,87.661 52.228,87.333L52.228,86.87L51.6,86.712L50.661,86.712C50.023,86.514 49.271,86.327 48.424,86.15C48.578,85.667 48.721,85.05 48.849,84.312L65.319,84.312L74.588,93.58C75.973,93.577 77.616,93.694 79.753,93.999C86.753,94.999 85.753,94.749 92.003,93.999C96.198,93.496 97.803,92.657 99.463,92.309C99.503,91.839 99.423,91.462 99.184,91.222M44.446,84.312C44.524,84.762 44.608,85.166 44.696,85.524C44.173,85.455 43.626,85.387 43.065,85.324L43.065,84.312ZM35.223,48.447C33.481,48.295 31.53,48.192 29.445,48.148L29.445,46.766C31.569,46.715 33.533,46.594 35.223,46.419ZM19.027,46.41C20.737,46.589 22.729,46.714 24.889,46.766L24.889,48.147C22.77,48.193 20.79,48.299 19.027,48.455Z" id="path2657" inkscape:connector-curvature="0" fill="#fcee21"/>
   </g>
   <g atv:refpx="55.366" atv:refpy="56.867" id="linear">
    <path atv:refpx="43.146" atv:refpy="74.781" d="M42.521,84.312C40.984,84.312 38.489,80.045 38.489,74.78C38.489,69.517 40.985,65.249 42.521,65.249L46.396,65.249C47.173,65.249 47.803,69.516 47.803,74.78C47.803,80.044 47.172,84.312 46.396,84.312Z" id="path2667" class="linear" inkscape:connector-curvature="0" fill="url(#Sk2of9mgqfs)"/>
    <path atv:refpx="59.851" atv:refpy="74.781" d="M73.462,65.5L71.212,65.25L47.646,65.25C46.869,65.25 46.239,69.517 46.239,74.781C46.239,80.045 46.869,84.312 47.646,84.312L65.316,84.312Z" id="path2676" class="linear" inkscape:connector-curvature="0" fill="url(#Sk2of9mgqfw)"/>
    <path atv:refpx="82.393" atv:refpy="80.08" d="M65.316,84.313L74.584,93.581C75.97,93.578 77.613,93.695 79.75,94C86.75,95 85.75,94.75 92,94C96.195,93.497 97.799,92.658 99.459,92.31C99.504,91.839 99.423,91.461 99.183,91.222L73.462,65.5Z" id="path2685" class="linear" inkscape:connector-curvature="0" fill="url(#Sk2of9mgqg0)"/>
    <path atv:refpx="27.167" atv:refpy="32.935" d="M38.333,45.917L33.583,44.917L33.583,23.917L40.417,23L41.217,23.08L41.217,19.075C41.217,20.221 34.927,21.149 27.166,21.149C19.406,21.149 13.116,20.22 13.116,19.075L13.116,44.722C13.116,45.868 19.406,46.796 27.166,46.796C32.738,46.796 37.539,46.316 39.81,45.622Z" id="path2692" class="linear" inkscape:connector-curvature="0" fill="url(#Sk2of9mgqg4)"/>
    <path atv:refpx="32.333" atv:refpy="48.349" d="M29.444,48.146L29.444,48.202C31.57,48.254 33.534,48.376 35.222,48.553L35.222,48.446C33.48,48.294 31.528,48.19 29.444,48.146" id="path2699" class="linear" inkscape:connector-curvature="0" fill="url(#Sk2of9mgqg7)"/>
    <path atv:refpx="27.17" atv:refpy="69.236" d="M14.473,49.378C13.659,49.639 13.197,49.93 13.197,50.236L12.395,50.544L12.424,49.591C12.949,49.399 13.641,49.219 14.473,49.056ZM19.027,48.453L19.027,48.564C20.735,48.383 22.726,48.256 24.889,48.204L24.889,48.146C22.771,48.19 20.789,48.297 19.027,48.453M12.356,51.829L11.273,87.997C11.342,89.285 18.428,90.326 27.166,90.326C27.447,90.326 27.722,90.322 28,90.32L27.938,90.217C27.938,90.217 27.938,55.948 27.938,54.79C27.938,53.632 27.166,52.633 27.166,52.633L27.166,53.327C20.416,53.327 14.663,52.705 12.356,51.829M42.521,65.25L43.067,65.25L43.067,50.468C43.067,49.931 41.833,49.438 39.778,49.042L39.778,49.353C40.641,49.621 41.137,49.92 41.137,50.236C41.137,51.375 34.882,52.299 27.167,52.299L27.167,52.633L29.328,52.706C29.328,52.706 29.791,53.169 29.791,54.558C29.791,56.009 30.347,84.346 30.464,90.275C37.662,90.051 43.067,89.108 43.067,87.979L43.067,84.312L42.521,84.312C40.984,84.312 38.489,80.045 38.489,74.78C38.489,69.517 40.984,65.249 42.521,65.25" id="path2706" class="linear" inkscape:connector-curvature="0" fill="url(#Sk2of9mgqga)"/>
    <path atv:refpx="27.167" atv:refpy="49.53" d="M27.167,46.796C26.39,46.796 25.632,46.784 24.889,46.766L24.889,51.958C24.889,52.144 25.909,52.294 27.167,52.294C28.425,52.294 29.444,52.143 29.444,51.958L29.444,46.766C28.702,46.785 27.943,46.796 27.167,46.796" id="path2713" class="linear" inkscape:connector-curvature="0" fill="url(#Sk2of9mgqgd)"/>
    <path atv:refpx="37.5" atv:refpy="48.219" d="M35.223,46.418L35.223,50.473C35.223,50.659 36.243,50.809 37.5,50.809C38.757,50.809 39.777,50.657 39.777,50.473L39.777,45.63C38.73,45.947 37.154,46.217 35.223,46.418" id="path2720" class="linear" inkscape:connector-curvature="0" fill="url(#Sk2of9mgqgg)"/>
    <path atv:refpx="16.75" atv:refpy="48.207" d="M14.473,45.606L14.473,50.473C14.473,50.659 15.493,50.809 16.75,50.809C18.007,50.809 19.027,50.657 19.027,50.473L19.027,46.41C17.078,46.205 15.505,45.928 14.473,45.606" id="path2727" class="linear" inkscape:connector-curvature="0" fill="url(#Sk2of9mgqgj)"/>
   </g>
   <g atv:refpx="31.84" atv:refpy="46.533" id="light">
    <path atv:refpx="46.32" atv:refpy="74.782" d="M47.646,84.313C46.869,84.313 46.239,80.046 46.239,74.782C46.239,69.518 46.869,65.25 47.646,65.25L48.845,65.25C48.522,63.383 48.104,62.25 47.646,62.25C47.277,62.25 46.015,62.25 45.646,62.25C44.624,62.25 43.796,67.86 43.796,74.782C43.796,81.703 44.624,87.313 45.646,87.313C46.015,87.313 47.277,87.313 47.646,87.313C48.104,87.313 48.522,86.18 48.845,84.313Z" id="path2730" inkscape:connector-curvature="0" fill="#fcf7b0"/>
    <polygon atv:refpx="36.083" atv:refpy="34.917" points="38.583,45.917 38.583,24.417 33.583,23.917 33.583,44.917 " id="polygon2732" fill="#fcf7b0"/>
    <ellipse atv:refpx="27.167" ry="1.821" atv:refpy="7.574" id="ellipse2734" cy="7.5739999" cx="27.167" fill="#fcf7b0" rx="12.333"/>
   </g>
   <g atv:refpx="23.964" atv:refpy="45.642" id="dark">
    <path atv:refpx="27.167" atv:refpy="5.976" d="M34.75,3.074C34.75,3.691 31.355,4.194 27.167,4.194C22.979,4.194 19.584,3.693 19.584,3.074L18.334,7.574C18.334,8.294 22.289,8.878 27.167,8.878C32.045,8.879 36,8.295 36,7.574Z" id="path2737" inkscape:connector-curvature="0" fill="#b7bd1c"/>
    <path atv:refpx="15.342" atv:refpy="11.486" d="M15.315,8.074C15.184,8.58 14.885,10.222 14.876,14.617C15.072,14.714 15.08,14.809 15.376,14.899C15.383,10.553 15.676,8.892 15.809,8.361C15.508,8.269 15.508,8.173 15.315,8.074" id="path2739" inkscape:connector-curvature="0" fill="#b7bd1c"/>
    <path atv:refpx="17.715" atv:refpy="12.044" d="M17.548,8.713C17.421,9.331 17.18,11.056 17.177,15.262C17.391,15.301 17.616,15.338 17.849,15.374C17.859,10.893 18.141,9.286 18.252,8.831C18.007,8.793 17.77,8.754 17.548,8.713" id="path2741" inkscape:connector-curvature="0" fill="#b7bd1c"/>
    <path atv:refpx="21.07" atv:refpy="12.438" d="M20.828,9.134C20.724,9.636 20.487,11.277 20.48,15.689C20.677,15.707 21.119,15.725 21.322,15.742C21.327,11.431 21.551,9.744 21.659,9.184C21.46,9.169 21.02,9.152 20.828,9.134" id="path2743" inkscape:connector-curvature="0" fill="#b7bd1c"/>
    <path atv:refpx="25.28" atv:refpy="12.66" d="M25.09,9.368C25.004,9.831 24.79,11.447 24.783,15.936C25.026,15.943 25.272,15.948 25.52,15.953C25.525,11.495 25.703,9.866 25.777,9.384C25.545,9.379 25.318,9.373 25.09,9.368" id="path2745" inkscape:connector-curvature="0" fill="#b7bd1c"/>
    <path atv:refpx="29.718" atv:refpy="12.636" d="M29.219,9.363C29.291,9.82 29.474,11.431 29.479,15.931C29.729,15.924 29.971,15.913 30.216,15.903C30.209,11.345 29.986,9.762 29.904,9.339C29.678,9.347 29.451,9.355 29.219,9.363" id="path2747" inkscape:connector-curvature="0" fill="#b7bd1c"/>
    <path atv:refpx="33.676" atv:refpy="12.401" d="M33.083,9.15C33.187,9.67 33.422,11.325 33.427,15.705C33.626,15.688 34.077,15.671 34.269,15.652C34.26,11.166 34.013,9.556 33.915,9.097C33.725,9.116 33.279,9.133 33.083,9.15" id="path2749" inkscape:connector-curvature="0" fill="#b7bd1c"/>
    <path atv:refpx="37.027" atv:refpy="11.971" d="M36.482,8.766C36.577,9.114 36.888,10.625 36.9,15.308C37.137,15.267 37.359,15.225 37.571,15.181C37.565,10.841 37.306,9.171 37.185,8.634C36.963,8.679 36.729,8.723 36.482,8.766" id="path2751" inkscape:connector-curvature="0" fill="#b7bd1c"/>
    <path atv:refpx="39.389" atv:refpy="11.318" d="M39.285,7.907C39.144,8.02 39.18,8.129 38.906,8.233C39.01,8.58 39.359,10.087 39.374,14.759C39.734,14.622 39.737,14.478 39.873,14.328C39.846,8.969 39.376,7.876 39.376,7.876Z" id="path2753" inkscape:connector-curvature="0" fill="#b7bd1c"/>
    <path atv:refpx="27.168" atv:refpy="50.252" d="M39.777,49.354L39.777,50.473C39.777,50.659 38.757,50.809 37.5,50.809C36.243,50.809 35.223,50.657 35.223,50.473L35.223,48.554C33.535,48.378 31.57,48.256 29.445,48.204L29.445,51.96C29.445,52.146 28.425,52.296 27.168,52.296C25.91,52.296 24.89,52.144 24.89,51.96L24.89,48.204C22.728,48.256 20.735,48.381 19.028,48.563L19.028,50.473C19.028,50.659 18.008,50.809 16.75,50.809C15.493,50.809 14.473,50.657 14.473,50.473L14.473,49.38C13.661,49.641 13.197,49.931 13.197,50.238C13.197,51.377 19.452,52.301 27.168,52.301C34.884,52.301 41.138,51.377 41.138,50.238C41.137,49.92 40.64,49.622 39.777,49.354" id="path2755" inkscape:connector-curvature="0" fill="#b7bd1c"/>
    <path atv:refpx="9.607" atv:refpy="68.876" d="M12.425,49.542C12.425,49.542 9.26,50.854 9.106,52.243C8.951,53.633 6.79,87.285 6.79,87.285L6.867,88.057L11.266,88.211" id="path2757" inkscape:connector-curvature="0" fill="#b7bd1c"/>
   </g>
   <g atv:refpx="27.186" atv:refpy="49.125" id="shadow">
    <path atv:refpx="27.167" atv:refpy="94.746" d="M27.167,94.298C18.244,94.298 10.373,93.634 5.688,92.623L5.688,93.697C5.688,95.449 15.305,96.868 27.167,96.868C39.03,96.868 48.646,95.448 48.646,93.697L48.646,92.623C43.961,93.634 36.09,94.298 27.167,94.298" id="path2760" inkscape:connector-curvature="0" fill="#7a7410"/>
    <path atv:refpx="47.32" atv:refpy="74.782" d="M47.646,84.313C46.869,84.313 46.239,80.046 46.239,74.782C46.239,69.518 46.869,65.25 47.646,65.25L48.845,65.25C48.522,63.383 48.104,62.25 47.646,62.25C46.624,62.25 45.796,67.86 45.796,74.782C45.796,81.703 46.624,87.313 47.646,87.313C48.104,87.313 48.522,86.18 48.845,84.313Z" id="path2762" inkscape:connector-curvature="0" fill="#7a7410"/>
    <polygon atv:refpx="35.691" atv:refpy="35.216" points="37.583,25.45 37.583,45.513 37.083,45.513 37.083,25.883 33.798,25.414 33.869,24.919 " id="polygon2764" fill="#7a7410"/>
    <path atv:refpx="39.778" atv:refpy="27.142" d="M39.723,27.498C39.449,27.498 39.183,27.399 38.982,27.198L39.336,26.844C39.562,27.072 39.961,27.044 40.22,26.785L40.574,27.139C40.333,27.377 40.025,27.497 39.723,27.498" id="path2766" inkscape:connector-curvature="0" fill="#7a7410"/>
    <path atv:refpx="39.778" atv:refpy="44.636" d="M39.723,44.992C39.449,44.992 39.183,44.893 38.982,44.692L39.336,44.338C39.562,44.565 39.961,44.538 40.22,44.279L40.574,44.633C40.333,44.871 40.025,44.992 39.723,44.992" id="path2768" inkscape:connector-curvature="0" fill="#7a7410"/>
    <path atv:refpx="44.251" atv:refpy="25.959" d="M44.196,26.315C43.922,26.315 43.655,26.215 43.455,26.015L43.809,25.661C44.035,25.888 44.434,25.863 44.693,25.602L45.047,25.956C44.806,26.195 44.497,26.314 44.196,26.315" id="path2770" inkscape:connector-curvature="0" fill="#7a7410"/>
    <path atv:refpx="44.251" atv:refpy="43.453" d="M44.195,43.81C43.911,43.81 43.65,43.704 43.455,43.509L43.809,43.155C43.916,43.262 44.062,43.323 44.227,43.309C44.397,43.301 44.564,43.225 44.693,43.096L45.047,43.45C44.83,43.667 44.547,43.795 44.251,43.808C44.23,43.81 44.213,43.81 44.195,43.81" id="path2772" inkscape:connector-curvature="0" fill="#7a7410"/>
    <polygon atv:refpx="2.314" atv:refpy="87.909" points="2.023,88.483 2.604,88.728 2.604,87.336 2.023,87.091 " id="polygon2774" fill="#7a7410"/>
    <polygon atv:refpx="4.058" atv:refpy="87.909" points="3.767,88.728 4.349,88.483 4.349,87.091 3.767,87.336 " id="polygon2776" fill="#7a7410"/>
    <polygon atv:refpx="7.23" atv:refpy="89.659" points="6.939,90.233 7.521,90.478 7.521,89.086 6.939,88.841 " id="polygon2778" fill="#7a7410"/>
    <polygon atv:refpx="8.974" atv:refpy="89.659" points="8.684,90.478 9.265,90.233 9.265,88.841 8.684,89.086 " id="polygon2780" fill="#7a7410"/>
    <polygon atv:refpx="14.563" atv:refpy="90.743" points="14.273,91.316 14.854,91.561 14.854,90.169 14.273,89.924 " id="polygon2782" fill="#7a7410"/>
    <polygon atv:refpx="16.308" atv:refpy="90.743" points="16.017,91.561 16.599,91.316 16.599,89.924 16.017,90.169 " id="polygon2784" fill="#7a7410"/>
    <polygon atv:refpx="25.308" atv:refpy="91.076" points="25.017,91.895 25.599,91.649 25.599,90.257 25.017,90.503 " id="polygon2786" fill="#7a7410"/>
    <polygon atv:refpx="23.563" atv:refpy="91.076" points="23.273,91.649 23.854,91.895 23.854,90.503 23.273,90.257 " id="polygon2788" fill="#7a7410"/>
    <polygon atv:refpx="36.391" atv:refpy="90.826" points="36.1,91.645 36.682,91.399 36.682,90.007 36.1,90.253 " id="polygon2790" fill="#7a7410"/>
    <polygon atv:refpx="34.647" atv:refpy="90.826" points="34.356,91.399 34.938,91.645 34.938,90.253 34.356,90.007 " id="polygon2792" fill="#7a7410"/>
    <polygon atv:refpx="44.23" atv:refpy="89.993" points="43.939,90.566 44.521,90.811 44.521,89.419 43.939,89.174 " id="polygon2794" fill="#7a7410"/>
    <polygon atv:refpx="45.974" atv:refpy="89.993" points="45.684,90.811 46.265,90.566 46.265,89.174 45.684,89.419 " id="polygon2796" fill="#7a7410"/>
    <polygon atv:refpx="50.314" atv:refpy="87.909" points="50.023,88.483 50.604,88.728 50.604,87.336 50.023,87.091 " id="polygon2798" fill="#7a7410"/>
    <polygon atv:refpx="52.058" atv:refpy="87.909" points="51.767,88.728 52.349,88.483 52.349,87.091 51.767,87.336 " id="polygon2800" fill="#7a7410"/>
    <polygon atv:refpx="44.23" atv:refpy="86.159" points="43.939,86.733 44.521,86.978 44.521,85.586 43.939,85.341 " id="polygon2802" fill="#7a7410"/>
    <path atv:refpx="19.796" atv:refpy="61.459" d="M27.167,54.9C20.487,54.9 14.779,54.291 12.425,53.429L12.425,68.017C14.779,68.878 20.487,69.488 27.167,69.488Z" id="path2804" inkscape:connector-curvature="0" fill="#7a7410"/>
    <polygon atv:refpx="28.511" atv:refpy="2.054" points="28.273,2.525 28.75,2.726 28.75,1.583 28.273,1.382 " id="polygon2806" fill="#7a7410"/>
    <polygon atv:refpx="29.944" atv:refpy="2.054" points="29.705,2.726 30.182,2.525 30.182,1.382 29.705,1.583 " id="polygon2808" fill="#7a7410"/>
    <polygon atv:refpx="24.386" atv:refpy="2.054" points="24.148,2.525 24.625,2.726 24.625,1.583 24.148,1.382 " id="polygon2810" fill="#7a7410"/>
    <polygon atv:refpx="25.819" atv:refpy="2.054" points="25.58,2.726 26.057,2.525 26.057,1.382 25.58,1.583 " id="polygon2812" fill="#7a7410"/>
    <polygon atv:refpx="20.511" atv:refpy="2.721" points="20.273,3.191 20.75,3.393 20.75,2.25 20.273,2.049 " id="polygon2814" fill="#7a7410"/>
    <polygon atv:refpx="21.944" atv:refpy="2.721" points="21.705,3.393 22.182,3.191 22.182,2.049 21.705,2.25 " id="polygon2816" fill="#7a7410"/>
    <polygon atv:refpx="32.511" atv:refpy="2.721" points="32.273,3.191 32.75,3.393 32.75,2.25 32.273,2.049 " id="polygon2818" fill="#7a7410"/>
    <polygon atv:refpx="33.944" atv:refpy="2.721" points="33.705,3.393 34.182,3.191 34.182,2.049 33.705,2.25 " id="polygon2820" fill="#7a7410"/>
    <polygon atv:refpx="29.944" atv:refpy="3.221" points="29.705,3.893 30.182,3.691 30.182,2.549 29.705,2.75 " id="polygon2822" fill="#7a7410"/>
    <polygon atv:refpx="28.511" atv:refpy="3.221" points="28.273,3.691 28.75,3.893 28.75,2.75 28.273,2.549 " id="polygon2824" fill="#7a7410"/>
    <polygon atv:refpx="24.386" atv:refpy="3.221" points="24.148,3.691 24.625,3.893 24.625,2.75 24.148,2.549 " id="polygon2826" fill="#7a7410"/>
    <polygon atv:refpx="25.819" atv:refpy="3.221" points="25.58,3.893 26.057,3.691 26.057,2.549 25.58,2.75 " id="polygon2828" fill="#7a7410"/>
    <path atv:refpx="28.287" atv:refpy="73.083" d="M27.939,54.791C27.939,55.949 27.939,90.217 27.939,90.217L28.634,91.375Z" id="path2830" inkscape:connector-curvature="0" fill="#7a7410"/>
   </g>
   <g atv:refpx="27.186" atv:refpy="45.841" id="hlight">
    <polygon atv:refpx="3.186" atv:refpy="87.09" points="3.767,87.336 2.604,87.336 2.023,87.091 2.604,86.845 3.767,86.845 4.349,87.091 " id="polygon2833" fill="#ffffee"/>
    <polygon atv:refpx="51.186" atv:refpy="87.09" points="51.767,87.336 50.604,87.336 50.023,87.091 50.604,86.845 51.767,86.845 52.349,87.091 " id="polygon2835" fill="#ffffee"/>
    <polygon atv:refpx="45.102" atv:refpy="89.174" points="45.684,89.419 44.521,89.419 43.939,89.174 44.521,88.929 45.684,88.929 46.265,89.174 " id="polygon2837" fill="#ffffee"/>
    <polygon atv:refpx="35.519" atv:refpy="90.007" points="36.1,90.253 34.938,90.253 34.356,90.007 34.938,89.762 36.1,89.762 36.682,90.007 " id="polygon2839" fill="#ffffee"/>
    <polygon atv:refpx="24.436" atv:refpy="90.257" points="25.017,90.503 23.854,90.503 23.273,90.257 23.854,90.012 25.017,90.012 25.599,90.257 " id="polygon2841" fill="#ffffee"/>
    <polygon atv:refpx="15.436" atv:refpy="89.924" points="16.017,90.169 14.854,90.169 14.273,89.924 14.854,89.679 16.017,89.679 16.599,89.924 " id="polygon2843" fill="#ffffee"/>
    <polygon atv:refpx="8.102" atv:refpy="88.84" points="8.684,89.086 7.521,89.086 6.939,88.841 7.521,88.595 8.684,88.595 9.265,88.841 " id="polygon2845" fill="#ffffee"/>
    <path atv:refpx="44.326" atv:refpy="85.34" d="M44.596,85.095L44.52,85.095L43.939,85.34L44.52,85.585L44.711,85.585C44.672,85.43 44.632,85.27 44.596,85.095" id="path2847" inkscape:connector-curvature="0" fill="#ffffee"/>
    <path atv:refpx="19.733" atv:refpy="60.633" d="M12.55,68.017L12.3,68.017L12.3,53.25L12.468,53.312C14.894,54.201 20.663,54.775 27.167,54.775L27.167,55.025C20.781,55.025 15.091,54.47 12.55,53.606Z" id="path2849" inkscape:connector-curvature="0" fill="#ffffee"/>
    <path atv:refpx="19.844" atv:refpy="62.251" d="M26.292,68.607L26.166,68.606C20.856,68.557 16.082,68.121 13.395,67.438L13.456,67.196C16.104,67.869 20.802,68.3 26.043,68.355L26.043,55.895L26.293,55.895L26.293,68.607Z" id="path2851" inkscape:connector-curvature="0" fill="#ffffee"/>
    <path atv:refpx="19.217" atv:refpy="51.781" d="M27.167,52.299C19.451,52.299 13.197,51.375 13.197,50.236L11.267,50.979C11.267,52.275 18.386,53.327 27.167,53.327Z" id="path2853" inkscape:connector-curvature="0" fill="#ffffee"/>
    <polygon atv:refpx="29.227" atv:refpy="1.381" points="28.75,1.583 29.705,1.583 30.182,1.382 29.705,1.18 28.75,1.18 28.273,1.382 " id="polygon2855" fill="#ffffee"/>
    <polygon atv:refpx="25.102" atv:refpy="1.381" points="24.625,1.583 25.58,1.583 26.057,1.382 25.58,1.18 24.625,1.18 24.148,1.382 " id="polygon2857" fill="#ffffee"/>
    <polygon atv:refpx="21.227" atv:refpy="2.048" points="20.75,2.25 21.705,2.25 22.182,2.049 21.705,1.847 20.75,1.847 20.273,2.049 " id="polygon2859" fill="#ffffee"/>
    <polygon atv:refpx="33.228" atv:refpy="2.048" points="32.75,2.25 33.705,2.25 34.182,2.049 33.705,1.847 32.75,1.847 32.273,2.049 " id="polygon2861" fill="#ffffee"/>
    <polygon atv:refpx="29.227" atv:refpy="2.548" points="28.75,2.75 29.705,2.75 30.182,2.549 29.705,2.347 28.75,2.347 28.273,2.549 " id="polygon2863" fill="#ffffee"/>
    <polygon atv:refpx="25.102" atv:refpy="2.548" points="24.625,2.75 25.58,2.75 26.057,2.549 25.58,2.347 24.625,2.347 24.148,2.549 " id="polygon2865" fill="#ffffee"/>
   </g>
  </g>
 </g>
</svg>
