<?xml version='1.0' encoding='UTF-8' standalone='no'?>
<svg version="1.2" xmlns:atv="http://webmi.atvise.com/2007/svgext" width="560" height="330" xmlns="http://www.w3.org/2000/svg" xmlns:xlink="http://www.w3.org/1999/xlink">
 <defs/>
 <title>Configuration - Bar/Column</title>
 <metadata>
  <atv:parameter substitute="$FONTCOLOR$" defaultvalue="SYSTEM.GLOBALS.atvFontColor" desc="font color" behavior="optional" valuetype="global" name="fontColor"/>
  <atv:gridconfig width="20" enabled="true" height="20" gridstyle="lines"/>
  <atv:snapconfig width="5" enabled="true" height="5"/>
 </metadata>
 <text id="id_18" font-size="12" fill="$FONTCOLOR$" atv:refpy="233.5" atv:refpx="130" font-family="Arial" x="157.5" y="238" text-anchor="end">T{Labels}:</text>
 <text id="id_40" font-size="12" fill="$FONTCOLOR$" atv:refpy="127.5" atv:refpx="113.5" font-family="Arial" x="155.5" y="132" text-anchor="end">T{Border color}:</text>
 <text id="id_41" font-size="12" fill="$FONTCOLOR$" atv:refpy="198.5" atv:refpx="103" font-family="Arial" x="157.5" y="203" text-anchor="end">T{Border line width}:</text>
 <svg id="series_borderColor" width="160" transform="matrix(0.625,0,0,1,0,0)" atv:refpy="132" height="30" atv:refpx="230.002" x="288" y="113" xlink:href="SYSTEM.LIBRARY.ATVISE.OBJECTDISPLAYS.Advanced.picker_color">
  <atv:argument value="series_borderColor" name="name"/>
  <atv:argument value="30" name="tabIndex"/>
  <atv:overwrite id="button_stroke" transform="matrix(1.6,0,0,1,0,0)" x="75.5"/>
  <atv:overwrite id="id_1" transform="matrix(1.6,0,0,1,0,0)" x="75.75"/>
  <atv:overwrite id="button_bg" transform="matrix(1.6,0,0,1,0,0)" x="75.5"/>
  <atv:overwrite id="input_label" transform="matrix(1.6,0,0,1,0,0)" x="63.5"/>
  <atv:overwrite id="blinking_frame" width="68" transform="matrix(1.6,0,0,1,0,0)"/>
  <atv:overwrite id="focus_frame" width="96" transform="matrix(1.6,0,0,1,0,0)"/>
  <atv:overwrite id="input_bg" width="68" transform="matrix(1.6,0,0,1,0,0)"/>
  <atv:overwrite id="id_2" width="100" transform="matrix(1.6,0,0,1,0,0)"/>
 </svg>
 <svg id="series_borderWidth" width="160" transform="matrix(0.625,0,0,1,0,0)" atv:refpy="204" height="30" atv:refpx="230" x="288" y="184" xlink:href="SYSTEM.LIBRARY.ATVISE.OBJECTDISPLAYS.Advanced.picker_value">
  <atv:argument value="32" name="tabIndex"/>
  <atv:argument value="0" name="min"/>
  <atv:overwrite id="focus_frame" width="96" transform="matrix(1.6,0,0,1,0,0)"/>
  <atv:overwrite id="clickarea_dec" transform="matrix(1.6,0,0,1,-96,0)"/>
  <atv:overwrite id="clickarea_inc" transform="matrix(1.6,0,0,1,-96,0)"/>
  <atv:overwrite id="input_label" transform="matrix(1.6,0,0,1,0,0)" x="65.5"/>
  <atv:overwrite id="blinking_frame" width="68" transform="matrix(1.6,0,0,1,0,0)"/>
  <atv:overwrite id="input_bg" width="68" transform="matrix(1.6,0,0,1,0,0)"/>
  <atv:overwrite id="id_2" width="100" transform="matrix(1.6,0,0,1,0,0)"/>
 </svg>
 <text id="id_48" font-size="12" fill="$FONTCOLOR$" atv:refpy="197.5" atv:refpx="314.5" font-family="Arial" x="298.5" y="202" text-anchor="start">[T{px}]</text>
 <text id="id_30" font-weight="bold" font-size="12" fill="$FONTCOLOR$" atv:refpy="86.5" atv:refpx="50.84" font-family="Arial" x="24.5" y="91" text-anchor="start">T{Styling}:</text>
 <text id="id_0" font-size="12" fill="$FONTCOLOR$" atv:refpy="163.5" atv:refpx="124" font-family="Arial" x="155.5" y="168" text-anchor="end">T{Fill color}:</text>
 <svg id="series_color" width="160" transform="matrix(0.625,0,0,1,0,0)" atv:refpy="167" height="30" atv:refpx="230.002" x="288" y="148" xlink:href="SYSTEM.LIBRARY.ATVISE.OBJECTDISPLAYS.Advanced.picker_color">
  <atv:argument value="series_color" name="name"/>
  <atv:argument value="31" name="tabIndex"/>
  <atv:overwrite id="button_stroke" transform="matrix(1.6,0,0,1,0,0)" x="75.5"/>
  <atv:overwrite id="id_1" transform="matrix(1.6,0,0,1,0,0)" x="75.75"/>
  <atv:overwrite id="button_bg" transform="matrix(1.6,0,0,1,0,0)" x="75.5"/>
  <atv:overwrite id="input_label" transform="matrix(1.6,0,0,1,0,0)" x="63.5"/>
  <atv:overwrite id="blinking_frame" width="68" transform="matrix(1.6,0,0,1,0,0)"/>
  <atv:overwrite id="focus_frame" width="96" transform="matrix(1.6,0,0,1,0,0)"/>
  <atv:overwrite id="input_bg" width="68" transform="matrix(1.6,0,0,1,0,0)"/>
  <atv:overwrite id="id_2" width="100" transform="matrix(1.6,0,0,1,0,0)"/>
 </svg>
 <svg id="series_dataLabels_format" width="160" transform="matrix(1.9,0,0,1,0,0)" atv:refpy="268" height="30" atv:refpx="332.998" x="95.263" y="253" xlink:href="SYSTEM.LIBRARY.ATVISE.OBJECTDISPLAYS.Advanced.in_out_value">
  <atv:argument value="String" name="validation"/>
  <atv:argument value="34" name="tabIndex"/>
  <atv:overwrite id="id_2" width="298.5" transform="matrix(0.5263,0,0,1,0,0)"/>
  <atv:overwrite id="id_0" width="303.5" transform="matrix(0.5263,0,0,1,0,0)"/>
  <atv:overwrite id="input_label" transform="matrix(0.5263,0,0,1,0,0)" x="295.5"/>
  <atv:overwrite id="blinking_frame" width="296" transform="matrix(0.5263,0,0,1,0,0)"/>
  <atv:overwrite id="input_bg" width="296" transform="matrix(0.5263,0,0,1,0,0)"/>
 </svg>
 <text id="id_6" font-size="12" fill="$FONTCOLOR$" atv:refpy="268.5" atv:refpx="113.5" font-family="Arial" x="156.5" y="273" text-anchor="end">T{Label format}:</text>
 <svg id="series_dataLabels_enabled" width="160" transform="" atv:refpy="235" height="30" atv:refpx="230" x="181" y="219" xlink:href="SYSTEM.LIBRARY.ATVISE.OBJECTDISPLAYS.Advanced.checkbox">
  <atv:argument value="true" name="valueOn"/>
  <atv:argument value="true" name="outputValueOn"/>
  <atv:argument value="false" name="outputValueOff"/>
  <atv:argument value="T{visible}" name="label"/>
  <atv:argument value="33" name="tabIndex"/>
  <atv:overwrite id="checkbox_bg2" transform="matrix(1.6,0,0,1,0,0)"/>
  <atv:overwrite id="id_5" transform="matrix(1.6,0,0,1,0,0)"/>
  <atv:overwrite id="id_2" width="68" transform="matrix(1.6,0,0,1,0,0)"/>
  <atv:overwrite id="id_0" width="99.5" transform="matrix(1.6,0,0,1,0,0)"/>
 </svg>
 <text id="id_4" font-size="12" fill="$FONTCOLOR$" atv:refpy="36.5" atv:refpx="102.5" font-family="Arial" x="153.5" y="41" text-anchor="end">T{Related x/y-axis}:</text>
 <svg id="series_xAxis" width="160" transform="matrix(0.95,0,0,1,0,0)" atv:refpy="35" height="30" atv:refpx="259" x="189.474" y="20" xlink:href="SYSTEM.LIBRARY.ATVISE.OBJECTDISPLAYS.Advanced.combobox">
  <atv:overwrite id="id_3" transform="matrix(1.0526,0,0,1,0,0)" x="126.75"/>
  <atv:overwrite id="id_5" transform="matrix(1.0526,0,0,1,0,0)" x="124.5"/>
  <atv:overwrite id="id_2" width="120" transform="matrix(1.0526,0,0,1,0,0)"/>
  <atv:overwrite id="combobox_stroke" width="151.5" transform="matrix(1.0526,0,0,1,0,0)"/>
  <atv:overwrite id="focus_frame" width="148" transform="matrix(1.0526,0,0,1,0,0)"/>
  <atv:overwrite id="button_stroke" transform="matrix(1.0526,0,0,1,0,0)" x="127"/>
  <atv:overwrite id="id_7" transform="matrix(1.0526,0,0,1,0,0)" x="127"/>
  <atv:overwrite id="button_bg" transform="matrix(1.0526,0,0,1,0,0)" x="127"/>
  <atv:overwrite id="combobox_label" transform="matrix(1.0526,0,0,1,0,0)" x="117.5"/>
  <atv:overwrite id="blinking_frame" width="120" transform="matrix(1.0526,0,0,1,0,0)"/>
  <atv:overwrite id="combobox_bg" width="120" transform="matrix(1.0526,0,0,1,0,0)"/>
  <atv:overwrite id="id_0" width="152" transform="matrix(1.0526,0,0,1,0,0)"/>
 </svg>
 <svg id="series_yAxis" width="160" transform="matrix(0.95,0,0,1,0,0)" atv:refpy="35" height="30" atv:refpx="414" x="354.737" y="20" xlink:href="SYSTEM.LIBRARY.ATVISE.OBJECTDISPLAYS.Advanced.combobox">
  <atv:overwrite id="id_3" transform="matrix(1.0526,0,0,1,0,0)" x="126.75"/>
  <atv:overwrite id="id_5" transform="matrix(1.0526,0,0,1,0,0)" x="124.5"/>
  <atv:overwrite id="id_2" width="120" transform="matrix(1.0526,0,0,1,0,0)"/>
  <atv:overwrite id="combobox_stroke" width="151.5" transform="matrix(1.0526,0,0,1,0,0)"/>
  <atv:overwrite id="focus_frame" width="148" transform="matrix(1.0526,0,0,1,0,0)"/>
  <atv:overwrite id="button_stroke" transform="matrix(1.0526,0,0,1,0,0)" x="127"/>
  <atv:overwrite id="id_7" transform="matrix(1.0526,0,0,1,0,0)" x="127"/>
  <atv:overwrite id="button_bg" transform="matrix(1.0526,0,0,1,0,0)" x="127"/>
  <atv:overwrite id="combobox_label" transform="matrix(1.0526,0,0,1,0,0)" x="117.5"/>
  <atv:overwrite id="blinking_frame" width="120" transform="matrix(1.0526,0,0,1,0,0)"/>
  <atv:overwrite id="combobox_bg" width="120" transform="matrix(1.0526,0,0,1,0,0)"/>
  <atv:overwrite id="id_0" width="152" transform="matrix(1.0526,0,0,1,0,0)"/>
 </svg>
 <script type="text/ecmascript"><![CDATA[var inputDefaults = {
	"series_xAxis": 0,
	"series_yAxis": 0,
	"series_color": "#CCCCCC",
	"series_borderColor": "#000000",
	"series_borderWidth": 1,
	"series_dataLabels_enabled": true,
	"series_dataLabels_format": "{point.y:.2f}"
};

var activeSeries = webMI.query.activeSeries;
var triggerEnabled = true;

var chartname = webMI.query.chartname;
var chart = webMI.trendFactory.getTrendByName(chartname);
var options = chart.chart.options;
var configHandler = new webMI.rootWindow.ConfigHandler;

var xAxes = [];
var yAxes = [];

//Read options
function readOptions() {
	triggerEnabled = false;

	//Search configured axis
	xAxes = [];
	yAxes = [];

	var i = 0;
	while (typeof chart.chart.xAxis[i] != "undefined") {
		var name = chart.chart.xAxis[i].options.title.text;
		if (name == "")
			name = "X-Axis " + i;
		xAxes.push(name);
		webMI.trigger.fire("addItem", {text: name, value: i}, "series_xAxis");
		i++;
	}

	var i = 0;
	while (typeof chart.chart.yAxis[i] != "undefined") {
		var name = chart.chart.yAxis[i].options.title.text;
		if (name == "")
			name = "Y-Axis " + i;
		yAxes.push(name);
		webMI.trigger.fire("addItem", {text: name, value: i}, "series_yAxis");
		i++;
	}

	//Set values for current series
	var curSeries = chart.chart.series[activeSeries];

	if (typeof curSeries == "undefined")
		return;

	webMI.trigger.fire("setSelectedItem", curSeries.options.xAxis ? xAxes[curSeries.options.xAxis] : xAxes[0], "series_xAxis");
	webMI.trigger.fire("setSelectedItem", curSeries.options.yAxis ? yAxes[curSeries.options.yAxis] : yAxes[0], "series_yAxis");

	if (!curSeries.color)
		setOptions("series_color", inputDefaults["series_color"], activeSeries);

	if (!curSeries.options.borderColor)
		setOptions("series_borderColor", inputDefaults["series_borderColor"], activeSeries);

	if (!curSeries.options.dataLabels.format)
		setOptions("series_dataLabels_format", inputDefaults["series_dataLabels_format"], activeSeries);

	webMI.trigger.fire("valuechanged_series_color", {hex: curSeries.color});
	webMI.trigger.fire("valuechanged_series_borderColor", {hex: curSeries.options.borderColor});

	curSeries.options.borderWidth = typeof curSeries.options.borderWidth != "undefined" ? curSeries.options.borderWidth : 0;
	webMI.trigger.fire("setValue", curSeries.options.borderWidth, "series_borderWidth");

	webMI.trigger.fire("setChecked", curSeries.options.dataLabels.enabled, "series_dataLabels_enabled");
	webMI.trigger.fire("setValue", curSeries.options.dataLabels.format, "series_dataLabels_format");
	triggerEnabled = true;
}

//Write options
function setOptions(key, value, identifier) {
	if (value == "true") value = true;
	else if (value == "false") value = false;

	if (chart.chart.series[identifier]) {
		var optionsObj = configHandler.createConfigObject(key.slice(7, key.length), value);
		chart.chart.series[identifier].update(optionsObj);
		chart.control.updated();
	}
}

//Triggers for every input element
webMI.addOnload(function() {
	for (var key in inputDefaults)
		webMI.trigger.connect("valuechanged", function(e){ processInput(e.context, e.value, activeSeries) }, key);

	readOptions();
});

function processInput(key, value, identifier) {
	if (typeof key == "undefined" || typeof value == "undefined")
		return;

	if (!triggerEnabled)
		return;

	setOptions(key, value, identifier);
}
]]></script>
</svg>
