<?xml version='1.0' encoding='UTF-8' standalone='no'?>
<svg width="500" version="1.2" xmlns="http://www.w3.org/2000/svg" height="306.5" xmlns:xlink="http://www.w3.org/1999/xlink" xmlns:atv="http://webmi.atvise.com/2007/svgext">
 <defs/>
 <desc>The Input for a "Picker Date".</desc>
 <title>Date Input</title>
 <metadata>
  <atv:parameter valuetype="string" substitute="" behavior="optional" name="popupId" defaultvalue="datePickerPopup"/>
  <atv:parameter valuetype="string" behavior="optional" name="controlBackgroundColor" defaultvalue="#3f434a"/>
  <atv:parameter valuetype="string" behavior="optional" name="controlTintColor" defaultvalue="#E3D700"/>
  <atv:parameter valuetype="string" behavior="optional" name="controlTextColor" defaultvalue="#FFFFFF"/>
  <atv:parameter valuetype="string" behavior="optional" name="controlLabelColor" defaultvalue="#B3B3B3"/>
  <atv:gridconfig width="20" enabled="false" height="20" gridstyle="lines"/>
  <atv:snapconfig width="10" enabled="false" height="10"/>
 </metadata>
 <rect width="500" x="0" y="0" fill="#585d67" height="306.5" stroke="#0000ff" id="id_0" atv:refpx="250" stroke-width="0" atv:refpy="153.25"/>
 <rect width="350" x="0" y="0" fill="#3f434a" height="306.5" stroke="#0000ff" id="id_1" atv:refpx="175" stroke-width="0" atv:refpy="153.25"/>
 <!--<g id="id_4" atv:refpx="419.712" atv:refpy="158.954" transform="matrix(1,0,0,1,126.7117,133.9536)">
  <text x="297.5" y="31" fill="#ffffff" font-family="Open Sans" text-anchor="end" id="monthLabel" atv:refpx="310.5" atv:refpy="26.5" font-size="16">Month</text>
  <text x="304" y="31" fill="#ffffff" font-family="Open Sans" id="yearLabel" atv:refpx="344.89" atv:refpy="26.5" font-size="16">Year</text>
 </g>-->
 <svg width="100" x="54.838" y="59.615" height="31" xlink:href="SYSTEM.LIBRARY.PROJECT.OBJECTDISPLAYS.FlatComponents.ActionButton" id="field_00" atv:refpx="32.5" atv:refpy="63" transform="matrix(0.31,0,0,0.8387,0,0)">
  <atv:argument value="T{29}" name="label"/>
  <atv:overwrite width="30" height="25" id="button_stroke" transform="matrix(3.2258,0,0,1.1923,0,0)"/>
  <atv:overwrite x="15" y="19" id="button_label" transform="matrix(3.2258,0,0,1.1923,0,0)"/>
  <atv:overwrite x="8.25" y="5.75" id="button_symbol" transform="matrix(3.2258,0,0,1.1923,0,0)"/>
  <atv:overwrite width="30" height="25" id="button_bg" transform="matrix(3.2258,0,0,1.1923,0,0)"/>
  <atv:overwrite width="31" height="26" id="id_2" transform="matrix(3.2258,0,0,1.1923,0,0)"/>
 </svg>
 <svg width="100" x="208.064" y="59.615" height="31" xlink:href="SYSTEM.LIBRARY.PROJECT.OBJECTDISPLAYS.FlatComponents.ActionButton" id="field_01" atv:refpx="80" atv:refpy="63" transform="matrix(0.31,0,0,0.8387,0,0)">
  <atv:argument value="T{30}" name="label"/>
  <atv:overwrite width="30" height="25" id="button_stroke" transform="matrix(3.2258,0,0,1.1923,0,0)"/>
  <atv:overwrite x="15" y="19" id="button_label" transform="matrix(3.2258,0,0,1.1923,0,0)"/>
  <atv:overwrite x="8.25" y="5.75" id="button_symbol" transform="matrix(3.2258,0,0,1.1923,0,0)"/>
  <atv:overwrite width="30" height="25" id="button_bg" transform="matrix(3.2258,0,0,1.1923,0,0)"/>
  <atv:overwrite width="31" height="26" id="id_2" transform="matrix(3.2258,0,0,1.1923,0,0)"/>
 </svg>
 <svg width="100" x="361.29" y="59.615" height="31" xlink:href="SYSTEM.LIBRARY.PROJECT.OBJECTDISPLAYS.FlatComponents.ActionButton" id="field_02" atv:refpx="127.499" atv:refpy="63" transform="matrix(0.31,0,0,0.8387,0,0)">
  <atv:argument value="T{1}" name="label"/>
  <atv:overwrite width="30" height="25" id="button_stroke" transform="matrix(3.2258,0,0,1.1923,0,0)"/>
  <atv:overwrite x="15" y="19" id="button_label" transform="matrix(3.2258,0,0,1.1923,0,0)"/>
  <atv:overwrite x="8.25" y="5.75" id="button_symbol" transform="matrix(3.2258,0,0,1.1923,0,0)"/>
  <atv:overwrite width="30" height="25" id="button_bg" transform="matrix(3.2258,0,0,1.1923,0,0)"/>
  <atv:overwrite width="31" height="26" id="id_2" transform="matrix(3.2258,0,0,1.1923,0,0)"/>
 </svg>
 <svg width="100" x="514.516" y="59.615" height="31" xlink:href="SYSTEM.LIBRARY.PROJECT.OBJECTDISPLAYS.FlatComponents.ActionButton" id="field_03" atv:refpx="175" atv:refpy="63" transform="matrix(0.31,0,0,0.8387,0,0)">
  <atv:argument value="T{2}" name="label"/>
  <atv:overwrite width="30" height="25" id="button_stroke" transform="matrix(3.2258,0,0,1.1923,0,0)"/>
  <atv:overwrite x="15" y="19" id="button_label" transform="matrix(3.2258,0,0,1.1923,0,0)"/>
  <atv:overwrite x="8.25" y="5.75" id="button_symbol" transform="matrix(3.2258,0,0,1.1923,0,0)"/>
  <atv:overwrite width="30" height="25" id="button_bg" transform="matrix(3.2258,0,0,1.1923,0,0)"/>
  <atv:overwrite width="31" height="26" id="id_2" transform="matrix(3.2258,0,0,1.1923,0,0)"/>
 </svg>
 <svg width="100" x="667.742" y="59.615" height="31" xlink:href="SYSTEM.LIBRARY.PROJECT.OBJECTDISPLAYS.FlatComponents.ActionButton" id="field_04" atv:refpx="222.5" atv:refpy="63" transform="matrix(0.31,0,0,0.8387,0,0)">
  <atv:argument value="T{3}" name="label"/>
  <atv:overwrite width="30" height="25" id="button_stroke" transform="matrix(3.2258,0,0,1.1923,0,0)"/>
  <atv:overwrite x="15" y="19" id="button_label" transform="matrix(3.2258,0,0,1.1923,0,0)"/>
  <atv:overwrite x="8.25" y="5.75" id="button_symbol" transform="matrix(3.2258,0,0,1.1923,0,0)"/>
  <atv:overwrite width="30" height="25" id="button_bg" transform="matrix(3.2258,0,0,1.1923,0,0)"/>
  <atv:overwrite width="31" height="26" id="id_2" transform="matrix(3.2258,0,0,1.1923,0,0)"/>
 </svg>
 <svg width="100" x="820.967" y="59.615" height="31" xlink:href="SYSTEM.LIBRARY.PROJECT.OBJECTDISPLAYS.FlatComponents.ActionButton" id="field_05" atv:refpx="270" atv:refpy="63" transform="matrix(0.31,0,0,0.8387,0,0)">
  <atv:argument value="T{4}" name="label"/>
  <atv:overwrite width="30" height="25" id="button_stroke" transform="matrix(3.2258,0,0,1.1923,0,0)"/>
  <atv:overwrite x="15" y="19" id="button_label" transform="matrix(3.2258,0,0,1.1923,0,0)"/>
  <atv:overwrite x="8.25" y="5.75" id="button_symbol" transform="matrix(3.2258,0,0,1.1923,0,0)"/>
  <atv:overwrite width="30" height="25" id="button_bg" transform="matrix(3.2258,0,0,1.1923,0,0)"/>
  <atv:overwrite width="31" height="26" id="id_2" transform="matrix(3.2258,0,0,1.1923,0,0)"/>
 </svg>
 <svg width="100" x="974.193" y="59.615" height="31" xlink:href="SYSTEM.LIBRARY.PROJECT.OBJECTDISPLAYS.FlatComponents.ActionButton" id="field_06" atv:refpx="317.5" atv:refpy="63" transform="matrix(0.31,0,0,0.8387,0,0)">
  <atv:argument value="T{5}" name="label"/>
  <atv:overwrite width="30" height="25" id="button_stroke" transform="matrix(3.2258,0,0,1.1923,0,0)"/>
  <atv:overwrite x="15" y="19" id="button_label" transform="matrix(3.2258,0,0,1.1923,0,0)"/>
  <atv:overwrite x="8.25" y="5.75" id="button_symbol" transform="matrix(3.2258,0,0,1.1923,0,0)"/>
  <atv:overwrite width="30" height="25" id="button_bg" transform="matrix(3.2258,0,0,1.1923,0,0)"/>
  <atv:overwrite width="31" height="26" id="id_2" transform="matrix(3.2258,0,0,1.1923,0,0)"/>
 </svg>
 <svg width="100" x="58.064" y="110.29" height="31" xlink:href="SYSTEM.LIBRARY.PROJECT.OBJECTDISPLAYS.FlatComponents.ActionButton" id="field_10" atv:refpx="33.5" atv:refpy="105.5" transform="matrix(0.31,0,0,0.8387,0,0)">
  <atv:argument value="T{6}" name="label"/>
  <atv:overwrite width="30" height="25" id="button_stroke" transform="matrix(3.2258,0,0,1.1923,0,0)"/>
  <atv:overwrite x="15" y="19" id="button_label" transform="matrix(3.2258,0,0,1.1923,0,0)"/>
  <atv:overwrite x="8.25" y="5.75" id="button_symbol" transform="matrix(3.2258,0,0,1.1923,0,0)"/>
  <atv:overwrite width="30" height="25" id="button_bg" transform="matrix(3.2258,0,0,1.1923,0,0)"/>
  <atv:overwrite width="31" height="26" id="id_2" transform="matrix(3.2258,0,0,1.1923,0,0)"/>
 </svg>
 <svg width="100" x="211.29" y="110.29" height="31" xlink:href="SYSTEM.LIBRARY.PROJECT.OBJECTDISPLAYS.FlatComponents.ActionButton" id="field_11" atv:refpx="81" atv:refpy="105.5" transform="matrix(0.31,0,0,0.8387,0,0)">
  <atv:argument value="T{7}" name="label"/>
  <atv:overwrite width="30" height="25" id="button_stroke" transform="matrix(3.2258,0,0,1.1923,0,0)"/>
  <atv:overwrite x="15" y="19" id="button_label" transform="matrix(3.2258,0,0,1.1923,0,0)"/>
  <atv:overwrite x="8.25" y="5.75" id="button_symbol" transform="matrix(3.2258,0,0,1.1923,0,0)"/>
  <atv:overwrite width="30" height="25" id="button_bg" transform="matrix(3.2258,0,0,1.1923,0,0)"/>
  <atv:overwrite width="31" height="26" id="id_2" transform="matrix(3.2258,0,0,1.1923,0,0)"/>
 </svg>
 <svg width="100" x="364.516" y="110.29" height="31" xlink:href="SYSTEM.LIBRARY.PROJECT.OBJECTDISPLAYS.FlatComponents.ActionButton" id="field_12" atv:refpx="128.5" atv:refpy="105.5" transform="matrix(0.31,0,0,0.8387,0,0)">
  <atv:argument value="T{8}" name="label"/>
  <atv:overwrite width="30" height="25" id="button_stroke" transform="matrix(3.2258,0,0,1.1923,0,0)"/>
  <atv:overwrite x="15" y="19" id="button_label" transform="matrix(3.2258,0,0,1.1923,0,0)"/>
  <atv:overwrite x="8.25" y="5.75" id="button_symbol" transform="matrix(3.2258,0,0,1.1923,0,0)"/>
  <atv:overwrite width="30" height="25" id="button_bg" transform="matrix(3.2258,0,0,1.1923,0,0)"/>
  <atv:overwrite width="31" height="26" id="id_2" transform="matrix(3.2258,0,0,1.1923,0,0)"/>
 </svg>
 <svg width="100" x="517.741" y="110.29" height="31" xlink:href="SYSTEM.LIBRARY.PROJECT.OBJECTDISPLAYS.FlatComponents.ActionButton" id="field_13" atv:refpx="176" atv:refpy="105.5" transform="matrix(0.31,0,0,0.8387,0,0)">
  <atv:argument value="T{9}" name="label"/>
  <atv:overwrite width="30" height="25" id="button_stroke" transform="matrix(3.2258,0,0,1.1923,0,0)"/>
  <atv:overwrite x="15" y="19" id="button_label" transform="matrix(3.2258,0,0,1.1923,0,0)"/>
  <atv:overwrite x="8.25" y="5.75" id="button_symbol" transform="matrix(3.2258,0,0,1.1923,0,0)"/>
  <atv:overwrite width="30" height="25" id="button_bg" transform="matrix(3.2258,0,0,1.1923,0,0)"/>
  <atv:overwrite width="31" height="26" id="id_2" transform="matrix(3.2258,0,0,1.1923,0,0)"/>
 </svg>
 <svg width="100" x="670.967" y="110.29" height="31" xlink:href="SYSTEM.LIBRARY.PROJECT.OBJECTDISPLAYS.FlatComponents.ActionButton" id="field_14" atv:refpx="223.5" atv:refpy="105.5" transform="matrix(0.31,0,0,0.8387,0,0)">
  <atv:argument value="T{10}" name="label"/>
  <atv:overwrite width="30" height="25" id="button_stroke" transform="matrix(3.2258,0,0,1.1923,0,0)"/>
  <atv:overwrite x="15" y="19" id="button_label" transform="matrix(3.2258,0,0,1.1923,0,0)"/>
  <atv:overwrite x="8.25" y="5.75" id="button_symbol" transform="matrix(3.2258,0,0,1.1923,0,0)"/>
  <atv:overwrite width="30" height="25" id="button_bg" transform="matrix(3.2258,0,0,1.1923,0,0)"/>
  <atv:overwrite width="31" height="26" id="id_2" transform="matrix(3.2258,0,0,1.1923,0,0)"/>
 </svg>
 <svg width="100" x="824.193" y="110.29" height="31" xlink:href="SYSTEM.LIBRARY.PROJECT.OBJECTDISPLAYS.FlatComponents.ActionButton" id="field_15" atv:refpx="271" atv:refpy="105.5" transform="matrix(0.31,0,0,0.8387,0,0)">
  <atv:argument value="T{11}" name="label"/>
  <atv:overwrite width="30" height="25" id="button_stroke" transform="matrix(3.2258,0,0,1.1923,0,0)"/>
  <atv:overwrite x="15" y="19" id="button_label" transform="matrix(3.2258,0,0,1.1923,0,0)"/>
  <atv:overwrite x="8.25" y="5.75" id="button_symbol" transform="matrix(3.2258,0,0,1.1923,0,0)"/>
  <atv:overwrite width="30" height="25" id="button_bg" transform="matrix(3.2258,0,0,1.1923,0,0)"/>
  <atv:overwrite width="31" height="26" id="id_2" transform="matrix(3.2258,0,0,1.1923,0,0)"/>
 </svg>
 <svg width="100" x="977.419" y="110.29" height="31" xlink:href="SYSTEM.LIBRARY.PROJECT.OBJECTDISPLAYS.FlatComponents.ActionButton" id="field_16" atv:refpx="318.5" atv:refpy="105.5" transform="matrix(0.31,0,0,0.8387,0,0)">
  <atv:argument value="T{12}" name="label"/>
  <atv:overwrite width="30" height="25" id="button_stroke" transform="matrix(3.2258,0,0,1.1923,0,0)"/>
  <atv:overwrite x="15" y="19" id="button_label" transform="matrix(3.2258,0,0,1.1923,0,0)"/>
  <atv:overwrite x="8.25" y="5.75" id="button_symbol" transform="matrix(3.2258,0,0,1.1923,0,0)"/>
  <atv:overwrite width="30" height="25" id="button_bg" transform="matrix(3.2258,0,0,1.1923,0,0)"/>
  <atv:overwrite width="31" height="26" id="id_2" transform="matrix(3.2258,0,0,1.1923,0,0)"/>
 </svg>
 <svg width="100" x="58.064" y="160.963" height="31" xlink:href="SYSTEM.LIBRARY.PROJECT.OBJECTDISPLAYS.FlatComponents.ActionButton" id="field_20" atv:refpx="33.499" atv:refpy="148" transform="matrix(0.31,0,0,0.8387,0,0)">
  <atv:argument value="T{13}" name="label"/>
  <atv:overwrite width="30" height="25" id="button_stroke" transform="matrix(3.2258,0,0,1.1923,0,0)"/>
  <atv:overwrite x="15" y="19" id="button_label" transform="matrix(3.2258,0,0,1.1923,0,0)"/>
  <atv:overwrite x="8.25" y="5.75" id="button_symbol" transform="matrix(3.2258,0,0,1.1923,0,0)"/>
  <atv:overwrite width="30" height="25" id="button_bg" transform="matrix(3.2258,0,0,1.1923,0,0)"/>
  <atv:overwrite width="31" height="26" id="id_2" transform="matrix(3.2258,0,0,1.1923,0,0)"/>
 </svg>
 <svg width="100" x="211.29" y="160.963" height="31" xlink:href="SYSTEM.LIBRARY.PROJECT.OBJECTDISPLAYS.FlatComponents.ActionButton" id="field_21" atv:refpx="80.999" atv:refpy="148" transform="matrix(0.31,0,0,0.8387,0,0)">
  <atv:argument value="T{14}" name="label"/>
  <atv:overwrite width="30" height="25" id="button_stroke" transform="matrix(3.2258,0,0,1.1923,0,0)"/>
  <atv:overwrite x="15" y="19" id="button_label" transform="matrix(3.2258,0,0,1.1923,0,0)"/>
  <atv:overwrite x="8.25" y="5.75" id="button_symbol" transform="matrix(3.2258,0,0,1.1923,0,0)"/>
  <atv:overwrite width="30" height="25" id="button_bg" transform="matrix(3.2258,0,0,1.1923,0,0)"/>
  <atv:overwrite width="31" height="26" id="id_2" transform="matrix(3.2258,0,0,1.1923,0,0)"/>
 </svg>
 <svg width="100" x="364.516" y="160.963" height="31" xlink:href="SYSTEM.LIBRARY.PROJECT.OBJECTDISPLAYS.FlatComponents.ActionButton" id="field_22" atv:refpx="128.499" atv:refpy="148" transform="matrix(0.31,0,0,0.8387,0,0)">
  <atv:argument value="T{15}" name="label"/>
  <atv:overwrite width="30" height="25" id="button_stroke" transform="matrix(3.2258,0,0,1.1923,0,0)"/>
  <atv:overwrite x="15" y="19" id="button_label" transform="matrix(3.2258,0,0,1.1923,0,0)"/>
  <atv:overwrite x="8.25" y="5.75" id="button_symbol" transform="matrix(3.2258,0,0,1.1923,0,0)"/>
  <atv:overwrite width="30" height="25" id="button_bg" transform="matrix(3.2258,0,0,1.1923,0,0)"/>
  <atv:overwrite width="31" height="26" id="id_2" transform="matrix(3.2258,0,0,1.1923,0,0)"/>
 </svg>
 <svg width="100" x="517.741" y="160.963" height="31" xlink:href="SYSTEM.LIBRARY.PROJECT.OBJECTDISPLAYS.FlatComponents.ActionButton" id="field_23" atv:refpx="175.999" atv:refpy="148" transform="matrix(0.31,0,0,0.8387,0,0)">
  <atv:argument value="T{16}" name="label"/>
  <atv:overwrite width="30" height="25" id="button_stroke" transform="matrix(3.2258,0,0,1.1923,0,0)"/>
  <atv:overwrite x="15" y="19" id="button_label" transform="matrix(3.2258,0,0,1.1923,0,0)"/>
  <atv:overwrite x="8.25" y="5.75" id="button_symbol" transform="matrix(3.2258,0,0,1.1923,0,0)"/>
  <atv:overwrite width="30" height="25" id="button_bg" transform="matrix(3.2258,0,0,1.1923,0,0)"/>
  <atv:overwrite width="31" height="26" id="id_2" transform="matrix(3.2258,0,0,1.1923,0,0)"/>
 </svg>
 <svg width="100" x="670.967" y="160.963" height="31" xlink:href="SYSTEM.LIBRARY.PROJECT.OBJECTDISPLAYS.FlatComponents.ActionButton" id="field_24" atv:refpx="223.499" atv:refpy="148" transform="matrix(0.31,0,0,0.8387,0,0)">
  <atv:argument value="T{17}" name="label"/>
  <atv:overwrite width="30" height="25" id="button_stroke" transform="matrix(3.2258,0,0,1.1923,0,0)"/>
  <atv:overwrite x="15" y="19" id="button_label" transform="matrix(3.2258,0,0,1.1923,0,0)"/>
  <atv:overwrite x="8.25" y="5.75" id="button_symbol" transform="matrix(3.2258,0,0,1.1923,0,0)"/>
  <atv:overwrite width="30" height="25" id="button_bg" transform="matrix(3.2258,0,0,1.1923,0,0)"/>
  <atv:overwrite width="31" height="26" id="id_2" transform="matrix(3.2258,0,0,1.1923,0,0)"/>
 </svg>
 <svg width="100" x="824.193" y="160.963" height="31" xlink:href="SYSTEM.LIBRARY.PROJECT.OBJECTDISPLAYS.FlatComponents.ActionButton" id="field_25" atv:refpx="270.999" atv:refpy="148" transform="matrix(0.31,0,0,0.8387,0,0)">
  <atv:argument value="T{18}" name="label"/>
  <atv:overwrite width="30" height="25" id="button_stroke" transform="matrix(3.2258,0,0,1.1923,0,0)"/>
  <atv:overwrite x="15" y="19" id="button_label" transform="matrix(3.2258,0,0,1.1923,0,0)"/>
  <atv:overwrite x="8.25" y="5.75" id="button_symbol" transform="matrix(3.2258,0,0,1.1923,0,0)"/>
  <atv:overwrite width="30" height="25" id="button_bg" transform="matrix(3.2258,0,0,1.1923,0,0)"/>
  <atv:overwrite width="31" height="26" id="id_2" transform="matrix(3.2258,0,0,1.1923,0,0)"/>
 </svg>
 <svg width="100" x="977.419" y="160.963" height="31" xlink:href="SYSTEM.LIBRARY.PROJECT.OBJECTDISPLAYS.FlatComponents.ActionButton" id="field_26" atv:refpx="318.499" atv:refpy="148" transform="matrix(0.31,0,0,0.8387,0,0)">
  <atv:argument value="T{19}" name="label"/>
  <atv:overwrite width="30" height="25" id="button_stroke" transform="matrix(3.2258,0,0,1.1923,0,0)"/>
  <atv:overwrite x="15" y="19" id="button_label" transform="matrix(3.2258,0,0,1.1923,0,0)"/>
  <atv:overwrite x="8.25" y="5.75" id="button_symbol" transform="matrix(3.2258,0,0,1.1923,0,0)"/>
  <atv:overwrite width="30" height="25" id="button_bg" transform="matrix(3.2258,0,0,1.1923,0,0)"/>
  <atv:overwrite width="31" height="26" id="id_2" transform="matrix(3.2258,0,0,1.1923,0,0)"/>
 </svg>
 <svg width="100" x="58.064" y="211.637" height="31" xlink:href="SYSTEM.LIBRARY.PROJECT.OBJECTDISPLAYS.FlatComponents.ActionButton" id="field_30" atv:refpx="33.5" atv:refpy="190.5" transform="matrix(0.31,0,0,0.8387,0,0)">
  <atv:argument value="T{20}" name="label"/>
  <atv:overwrite width="30" height="25" id="button_stroke" transform="matrix(3.2258,0,0,1.1923,0,0)"/>
  <atv:overwrite x="15" y="19" id="button_label" transform="matrix(3.2258,0,0,1.1923,0,0)"/>
  <atv:overwrite x="8.25" y="5.75" id="button_symbol" transform="matrix(3.2258,0,0,1.1923,0,0)"/>
  <atv:overwrite width="30" height="25" id="button_bg" transform="matrix(3.2258,0,0,1.1923,0,0)"/>
  <atv:overwrite width="31" height="26" id="id_2" transform="matrix(3.2258,0,0,1.1923,0,0)"/>
 </svg>
 <svg width="100" x="211.29" y="211.637" height="31" xlink:href="SYSTEM.LIBRARY.PROJECT.OBJECTDISPLAYS.FlatComponents.ActionButton" id="field_31" atv:refpx="81" atv:refpy="190.5" transform="matrix(0.31,0,0,0.8387,0,0)">
  <atv:argument value="T{21}" name="label"/>
  <atv:overwrite width="30" height="25" id="button_stroke" transform="matrix(3.2258,0,0,1.1923,0,0)"/>
  <atv:overwrite x="15" y="19" id="button_label" transform="matrix(3.2258,0,0,1.1923,0,0)"/>
  <atv:overwrite x="8.25" y="5.75" id="button_symbol" transform="matrix(3.2258,0,0,1.1923,0,0)"/>
  <atv:overwrite width="30" height="25" id="button_bg" transform="matrix(3.2258,0,0,1.1923,0,0)"/>
  <atv:overwrite width="31" height="26" id="id_2" transform="matrix(3.2258,0,0,1.1923,0,0)"/>
 </svg>
 <svg width="100" x="364.516" y="211.637" height="31" xlink:href="SYSTEM.LIBRARY.PROJECT.OBJECTDISPLAYS.FlatComponents.ActionButton" id="field_32" atv:refpx="128.5" atv:refpy="190.5" transform="matrix(0.31,0,0,0.8387,0,0)">
  <atv:argument value="T{22}" name="label"/>
  <atv:overwrite width="30" height="25" id="button_stroke" transform="matrix(3.2258,0,0,1.1923,0,0)"/>
  <atv:overwrite x="15" y="19" id="button_label" transform="matrix(3.2258,0,0,1.1923,0,0)"/>
  <atv:overwrite x="8.25" y="5.75" id="button_symbol" transform="matrix(3.2258,0,0,1.1923,0,0)"/>
  <atv:overwrite width="30" height="25" id="button_bg" transform="matrix(3.2258,0,0,1.1923,0,0)"/>
  <atv:overwrite width="31" height="26" id="id_2" transform="matrix(3.2258,0,0,1.1923,0,0)"/>
 </svg>
 <svg width="100" x="517.741" y="211.637" height="31" xlink:href="SYSTEM.LIBRARY.PROJECT.OBJECTDISPLAYS.FlatComponents.ActionButton" id="field_33" atv:refpx="176" atv:refpy="190.5" transform="matrix(0.31,0,0,0.8387,0,0)">
  <atv:argument value="T{23}" name="label"/>
  <atv:overwrite width="30" height="25" id="button_stroke" transform="matrix(3.2258,0,0,1.1923,0,0)"/>
  <atv:overwrite x="15" y="19" id="button_label" transform="matrix(3.2258,0,0,1.1923,0,0)"/>
  <atv:overwrite x="8.25" y="5.75" id="button_symbol" transform="matrix(3.2258,0,0,1.1923,0,0)"/>
  <atv:overwrite width="30" height="25" id="button_bg" transform="matrix(3.2258,0,0,1.1923,0,0)"/>
  <atv:overwrite width="31" height="26" id="id_2" transform="matrix(3.2258,0,0,1.1923,0,0)"/>
 </svg>
 <svg width="100" x="670.967" y="211.637" height="31" xlink:href="SYSTEM.LIBRARY.PROJECT.OBJECTDISPLAYS.FlatComponents.ActionButton" id="field_34" atv:refpx="223.5" atv:refpy="190.5" transform="matrix(0.31,0,0,0.8387,0,0)">
  <atv:argument value="T{24}" name="label"/>
  <atv:overwrite width="30" height="25" id="button_stroke" transform="matrix(3.2258,0,0,1.1923,0,0)"/>
  <atv:overwrite x="15" y="19" id="button_label" transform="matrix(3.2258,0,0,1.1923,0,0)"/>
  <atv:overwrite x="8.25" y="5.75" id="button_symbol" transform="matrix(3.2258,0,0,1.1923,0,0)"/>
  <atv:overwrite width="30" height="25" id="button_bg" transform="matrix(3.2258,0,0,1.1923,0,0)"/>
  <atv:overwrite width="31" height="26" id="id_2" transform="matrix(3.2258,0,0,1.1923,0,0)"/>
 </svg>
 <svg width="100" x="824.193" y="211.637" height="31" xlink:href="SYSTEM.LIBRARY.PROJECT.OBJECTDISPLAYS.FlatComponents.ActionButton" id="field_35" atv:refpx="271" atv:refpy="190.5" transform="matrix(0.31,0,0,0.8387,0,0)">
  <atv:argument value="T{25}" name="label"/>
  <atv:overwrite width="30" height="25" id="button_stroke" transform="matrix(3.2258,0,0,1.1923,0,0)"/>
  <atv:overwrite x="15" y="19" id="button_label" transform="matrix(3.2258,0,0,1.1923,0,0)"/>
  <atv:overwrite x="8.25" y="5.75" id="button_symbol" transform="matrix(3.2258,0,0,1.1923,0,0)"/>
  <atv:overwrite width="30" height="25" id="button_bg" transform="matrix(3.2258,0,0,1.1923,0,0)"/>
  <atv:overwrite width="31" height="26" id="id_2" transform="matrix(3.2258,0,0,1.1923,0,0)"/>
 </svg>
 <svg width="100" x="977.419" y="211.637" height="31" xlink:href="SYSTEM.LIBRARY.PROJECT.OBJECTDISPLAYS.FlatComponents.ActionButton" id="field_36" atv:refpx="318.5" atv:refpy="190.5" transform="matrix(0.31,0,0,0.8387,0,0)">
  <atv:argument value="T{26}" name="label"/>
  <atv:overwrite width="30" height="25" id="button_stroke" transform="matrix(3.2258,0,0,1.1923,0,0)"/>
  <atv:overwrite x="15" y="19" id="button_label" transform="matrix(3.2258,0,0,1.1923,0,0)"/>
  <atv:overwrite x="8.25" y="5.75" id="button_symbol" transform="matrix(3.2258,0,0,1.1923,0,0)"/>
  <atv:overwrite width="30" height="25" id="button_bg" transform="matrix(3.2258,0,0,1.1923,0,0)"/>
  <atv:overwrite width="31" height="26" id="id_2" transform="matrix(3.2258,0,0,1.1923,0,0)"/>
 </svg>
 <svg width="100" x="58.064" y="262.311" height="31" xlink:href="SYSTEM.LIBRARY.PROJECT.OBJECTDISPLAYS.FlatComponents.ActionButton" id="field_40" atv:refpx="33.5" atv:refpy="233" transform="matrix(0.31,0,0,0.8387,0,0)">
  <atv:argument value="T{27}" name="label"/>
  <atv:overwrite width="30" height="25" id="button_stroke" transform="matrix(3.2258,0,0,1.1923,0,0)"/>
  <atv:overwrite x="15" y="19" id="button_label" transform="matrix(3.2258,0,0,1.1923,0,0)"/>
  <atv:overwrite x="8.25" y="5.75" id="button_symbol" transform="matrix(3.2258,0,0,1.1923,0,0)"/>
  <atv:overwrite width="30" height="25" id="button_bg" transform="matrix(3.2258,0,0,1.1923,0,0)"/>
  <atv:overwrite width="31" height="26" id="id_2" transform="matrix(3.2258,0,0,1.1923,0,0)"/>
 </svg>
 <svg width="100" x="211.29" y="262.311" height="31" xlink:href="SYSTEM.LIBRARY.PROJECT.OBJECTDISPLAYS.FlatComponents.ActionButton" id="field_41" atv:refpx="81" atv:refpy="233" transform="matrix(0.31,0,0,0.8387,0,0)">
  <atv:argument value="T{28}" name="label"/>
  <atv:overwrite width="30" height="25" id="button_stroke" transform="matrix(3.2258,0,0,1.1923,0,0)"/>
  <atv:overwrite x="15" y="19" id="button_label" transform="matrix(3.2258,0,0,1.1923,0,0)"/>
  <atv:overwrite x="8.25" y="5.75" id="button_symbol" transform="matrix(3.2258,0,0,1.1923,0,0)"/>
  <atv:overwrite width="30" height="25" id="button_bg" transform="matrix(3.2258,0,0,1.1923,0,0)"/>
  <atv:overwrite width="31" height="26" id="id_2" transform="matrix(3.2258,0,0,1.1923,0,0)"/>
 </svg>
 <svg width="100" x="364.516" y="262.311" height="31" xlink:href="SYSTEM.LIBRARY.PROJECT.OBJECTDISPLAYS.FlatComponents.ActionButton" id="field_42" atv:refpx="128.5" atv:refpy="233" transform="matrix(0.31,0,0,0.8387,0,0)">
  <atv:argument value="T{29}" name="label"/>
  <atv:overwrite width="30" height="25" id="button_stroke" transform="matrix(3.2258,0,0,1.1923,0,0)"/>
  <atv:overwrite x="15" y="19" id="button_label" transform="matrix(3.2258,0,0,1.1923,0,0)"/>
  <atv:overwrite x="8.25" y="5.75" id="button_symbol" transform="matrix(3.2258,0,0,1.1923,0,0)"/>
  <atv:overwrite width="30" height="25" id="button_bg" transform="matrix(3.2258,0,0,1.1923,0,0)"/>
  <atv:overwrite width="31" height="26" id="id_2" transform="matrix(3.2258,0,0,1.1923,0,0)"/>
 </svg>
 <svg width="100" x="517.741" y="262.311" height="31" xlink:href="SYSTEM.LIBRARY.PROJECT.OBJECTDISPLAYS.FlatComponents.ActionButton" id="field_43" atv:refpx="176" atv:refpy="233" transform="matrix(0.31,0,0,0.8387,0,0)">
  <atv:argument value="T{30}" name="label"/>
  <atv:overwrite width="30" height="25" id="button_stroke" transform="matrix(3.2258,0,0,1.1923,0,0)"/>
  <atv:overwrite x="15" y="19" id="button_label" transform="matrix(3.2258,0,0,1.1923,0,0)"/>
  <atv:overwrite x="8.25" y="5.75" id="button_symbol" transform="matrix(3.2258,0,0,1.1923,0,0)"/>
  <atv:overwrite width="30" height="25" id="button_bg" transform="matrix(3.2258,0,0,1.1923,0,0)"/>
  <atv:overwrite width="31" height="26" id="id_2" transform="matrix(3.2258,0,0,1.1923,0,0)"/>
 </svg>
 <svg width="100" x="670.967" y="262.311" height="31" xlink:href="SYSTEM.LIBRARY.PROJECT.OBJECTDISPLAYS.FlatComponents.ActionButton" id="field_44" atv:refpx="223.5" atv:refpy="233" transform="matrix(0.31,0,0,0.8387,0,0)">
  <atv:argument value="T{31}" name="label"/>
  <atv:overwrite width="30" height="25" id="button_stroke" transform="matrix(3.2258,0,0,1.1923,0,0)"/>
  <atv:overwrite x="15" y="19" id="button_label" transform="matrix(3.2258,0,0,1.1923,0,0)"/>
  <atv:overwrite x="8.25" y="5.75" id="button_symbol" transform="matrix(3.2258,0,0,1.1923,0,0)"/>
  <atv:overwrite width="30" height="25" id="button_bg" transform="matrix(3.2258,0,0,1.1923,0,0)"/>
  <atv:overwrite width="31" height="26" id="id_2" transform="matrix(3.2258,0,0,1.1923,0,0)"/>
 </svg>
 <svg width="100" x="824.193" y="262.311" height="31" xlink:href="SYSTEM.LIBRARY.PROJECT.OBJECTDISPLAYS.FlatComponents.ActionButton" id="field_45" atv:refpx="271" atv:refpy="233" transform="matrix(0.31,0,0,0.8387,0,0)">
  <atv:argument value="T{1}" name="label"/>
  <atv:overwrite width="30" height="25" id="button_stroke" transform="matrix(3.2258,0,0,1.1923,0,0)"/>
  <atv:overwrite x="15" y="19" id="button_label" transform="matrix(3.2258,0,0,1.1923,0,0)"/>
  <atv:overwrite x="8.25" y="5.75" id="button_symbol" transform="matrix(3.2258,0,0,1.1923,0,0)"/>
  <atv:overwrite width="30" height="25" id="button_bg" transform="matrix(3.2258,0,0,1.1923,0,0)"/>
  <atv:overwrite width="31" height="26" id="id_2" transform="matrix(3.2258,0,0,1.1923,0,0)"/>
 </svg>
 <svg width="100" x="977.419" y="262.311" height="31" xlink:href="SYSTEM.LIBRARY.PROJECT.OBJECTDISPLAYS.FlatComponents.ActionButton" id="field_46" atv:refpx="318.5" atv:refpy="233" transform="matrix(0.31,0,0,0.8387,0,0)">
  <atv:argument value="T{2}" name="label"/>
  <atv:overwrite width="30" height="25" id="button_stroke" transform="matrix(3.2258,0,0,1.1923,0,0)"/>
  <atv:overwrite x="15" y="19" id="button_label" transform="matrix(3.2258,0,0,1.1923,0,0)"/>
  <atv:overwrite x="8.25" y="5.75" id="button_symbol" transform="matrix(3.2258,0,0,1.1923,0,0)"/>
  <atv:overwrite width="30" height="25" id="button_bg" transform="matrix(3.2258,0,0,1.1923,0,0)"/>
  <atv:overwrite width="31" height="26" id="id_2" transform="matrix(3.2258,0,0,1.1923,0,0)"/>
 </svg>
 <svg width="100" x="58.064" y="312.984" height="31" xlink:href="SYSTEM.LIBRARY.PROJECT.OBJECTDISPLAYS.FlatComponents.ActionButton" id="field_50" atv:refpx="33.5" atv:refpy="275.5" transform="matrix(0.31,0,0,0.8387,0,0)">
  <atv:argument value="T{3}" name="label"/>
  <atv:overwrite width="30" height="25" id="button_stroke" transform="matrix(3.2258,0,0,1.1923,0,0)"/>
  <atv:overwrite x="15" y="19" id="button_label" transform="matrix(3.2258,0,0,1.1923,0,0)"/>
  <atv:overwrite x="8.25" y="5.75" id="button_symbol" transform="matrix(3.2258,0,0,1.1923,0,0)"/>
  <atv:overwrite width="30" height="25" id="button_bg" transform="matrix(3.2258,0,0,1.1923,0,0)"/>
  <atv:overwrite width="31" height="26" id="id_2" transform="matrix(3.2258,0,0,1.1923,0,0)"/>
 </svg>
 <svg width="100" x="211.29" y="312.984" height="31" xlink:href="SYSTEM.LIBRARY.PROJECT.OBJECTDISPLAYS.FlatComponents.ActionButton" id="field_51" atv:refpx="81" atv:refpy="275.5" transform="matrix(0.31,0,0,0.8387,0,0)">
  <atv:argument value="T{4}" name="label"/>
  <atv:overwrite width="30" height="25" id="button_stroke" transform="matrix(3.2258,0,0,1.1923,0,0)"/>
  <atv:overwrite x="15" y="19" id="button_label" transform="matrix(3.2258,0,0,1.1923,0,0)"/>
  <atv:overwrite x="8.25" y="5.75" id="button_symbol" transform="matrix(3.2258,0,0,1.1923,0,0)"/>
  <atv:overwrite width="30" height="25" id="button_bg" transform="matrix(3.2258,0,0,1.1923,0,0)"/>
  <atv:overwrite width="31" height="26" id="id_2" transform="matrix(3.2258,0,0,1.1923,0,0)"/>
 </svg>
 <svg width="100" x="364.516" y="312.984" height="31" xlink:href="SYSTEM.LIBRARY.PROJECT.OBJECTDISPLAYS.FlatComponents.ActionButton" id="field_52" atv:refpx="128.5" atv:refpy="275.5" transform="matrix(0.31,0,0,0.8387,0,0)">
  <atv:argument value="T{5}" name="label"/>
  <atv:overwrite width="30" height="25" id="button_stroke" transform="matrix(3.2258,0,0,1.1923,0,0)"/>
  <atv:overwrite x="15" y="19" id="button_label" transform="matrix(3.2258,0,0,1.1923,0,0)"/>
  <atv:overwrite x="8.25" y="5.75" id="button_symbol" transform="matrix(3.2258,0,0,1.1923,0,0)"/>
  <atv:overwrite width="30" height="25" id="button_bg" transform="matrix(3.2258,0,0,1.1923,0,0)"/>
  <atv:overwrite width="31" height="26" id="id_2" transform="matrix(3.2258,0,0,1.1923,0,0)"/>
 </svg>
 <svg width="100" x="517.741" y="312.984" height="31" xlink:href="SYSTEM.LIBRARY.PROJECT.OBJECTDISPLAYS.FlatComponents.ActionButton" id="field_53" atv:refpx="176" atv:refpy="275.5" transform="matrix(0.31,0,0,0.8387,0,0)">
  <atv:argument value="T{6}" name="label"/>
  <atv:overwrite width="30" height="25" id="button_stroke" transform="matrix(3.2258,0,0,1.1923,0,0)"/>
  <atv:overwrite x="15" y="19" id="button_label" transform="matrix(3.2258,0,0,1.1923,0,0)"/>
  <atv:overwrite x="8.25" y="5.75" id="button_symbol" transform="matrix(3.2258,0,0,1.1923,0,0)"/>
  <atv:overwrite width="30" height="25" id="button_bg" transform="matrix(3.2258,0,0,1.1923,0,0)"/>
  <atv:overwrite width="31" height="26" id="id_2" transform="matrix(3.2258,0,0,1.1923,0,0)"/>
 </svg>
 <svg width="100" x="670.967" y="312.984" height="31" xlink:href="SYSTEM.LIBRARY.PROJECT.OBJECTDISPLAYS.FlatComponents.ActionButton" id="field_54" atv:refpx="223.5" atv:refpy="275.5" transform="matrix(0.31,0,0,0.8387,0,0)">
  <atv:argument value="T{7}" name="label"/>
  <atv:overwrite width="30" height="25" id="button_stroke" transform="matrix(3.2258,0,0,1.1923,0,0)"/>
  <atv:overwrite x="15" y="19" id="button_label" transform="matrix(3.2258,0,0,1.1923,0,0)"/>
  <atv:overwrite x="8.25" y="5.75" id="button_symbol" transform="matrix(3.2258,0,0,1.1923,0,0)"/>
  <atv:overwrite width="30" height="25" id="button_bg" transform="matrix(3.2258,0,0,1.1923,0,0)"/>
  <atv:overwrite width="31" height="26" id="id_2" transform="matrix(3.2258,0,0,1.1923,0,0)"/>
 </svg>
 <svg width="100" x="824.193" y="312.984" height="31" xlink:href="SYSTEM.LIBRARY.PROJECT.OBJECTDISPLAYS.FlatComponents.ActionButton" id="field_55" atv:refpx="271" atv:refpy="275.5" transform="matrix(0.31,0,0,0.8387,0,0)">
  <atv:argument value="T{8}" name="label"/>
  <atv:overwrite width="30" height="25" id="button_stroke" transform="matrix(3.2258,0,0,1.1923,0,0)"/>
  <atv:overwrite x="15" y="19" id="button_label" transform="matrix(3.2258,0,0,1.1923,0,0)"/>
  <atv:overwrite x="8.25" y="5.75" id="button_symbol" transform="matrix(3.2258,0,0,1.1923,0,0)"/>
  <atv:overwrite width="30" height="25" id="button_bg" transform="matrix(3.2258,0,0,1.1923,0,0)"/>
  <atv:overwrite width="31" height="26" id="id_2" transform="matrix(3.2258,0,0,1.1923,0,0)"/>
 </svg>
 <svg width="100" x="977.419" y="312.984" height="31" xlink:href="SYSTEM.LIBRARY.PROJECT.OBJECTDISPLAYS.FlatComponents.ActionButton" id="field_56" atv:refpx="318.5" atv:refpy="275.5" transform="matrix(0.31,0,0,0.8387,0,0)">
  <atv:argument value="T{9}" name="label"/>
  <atv:overwrite width="30" height="25" id="button_stroke" transform="matrix(3.2258,0,0,1.1923,0,0)"/>
  <atv:overwrite x="15" y="19" id="button_label" transform="matrix(3.2258,0,0,1.1923,0,0)"/>
  <atv:overwrite x="8.25" y="5.75" id="button_symbol" transform="matrix(3.2258,0,0,1.1923,0,0)"/>
  <atv:overwrite width="30" height="25" id="button_bg" transform="matrix(3.2258,0,0,1.1923,0,0)"/>
  <atv:overwrite width="31" height="26" id="id_2" transform="matrix(3.2258,0,0,1.1923,0,0)"/>
 </svg>
 <text x="364" y="27" fill="#B3B3B3" font-family="Open Sans" text-anchor="start" id="yearLabelLeft" atv:refpx="374.167" atv:refpy="22.5" font-size="12">Year</text>
 <text x="364" y="50" fill="#ffffff" font-family="Open Sans" text-anchor="start" id="dayOfTheWeekLabel" atv:refpx="426.782" atv:refpy="45.5" font-size="16">Day Of The Week</text>
 <text x="364.5" y="74" fill="#ffffff" font-family="Open Sans" text-anchor="start" id="numericDateLabel" atv:refpx="417.142" atv:refpy="68" font-size="16">Numeric Date</text>
 <svg width="7" x="325" y="18" height="14" xlink:href="SYSTEM.LIBRARY.PROJECT.OBJECTDISPLAYS.Symbols.GoForward" id="goForwardButton" atv:refpx="328.5" atv:refpy="25"/>
 <svg width="7" x="18" y="18" height="14" xlink:href="SYSTEM.LIBRARY.PROJECT.OBJECTDISPLAYS.Symbols.GoBack" id="goBackButton" atv:refpx="21.5" atv:refpy="25"/>
 <rect width="23" x="10" y="10" fill="#3f434a" height="30" stroke="#0000ff" fill-opacity="0" id="goBackClickarea" atv:refpx="21.5" stroke-width="0" atv:refpy="25"/>
 <rect width="23" x="317" y="10" fill="#3f434a" height="30" stroke="#0000ff" fill-opacity="0" id="goForwardClickarea" atv:refpx="328.5" stroke-width="0" atv:refpy="25"/>
 <svg width="100" x="33.858" y="10" height="31" xlink:href="SYSTEM.LIBRARY.PROJECT.OBJECTDISPLAYS.FlatComponents.Combobox" id="monthInput" atv:refpx="106.5" atv:refpy="25.5" transform="matrix(1.27,0,0,1,0,0)">
  <atv:overwrite points="119.5,13.999 105.5,13.999 112.5,20.999 119.5,13.999" id="id_0" transform="matrix(0.7874,0,0,1,0,0)"/>
  <atv:overwrite id="combobox_label" transform="matrix(0.7874,0,0,1,0,0)"/>
  <atv:overwrite width="127" id="combobox_stroke" transform="matrix(0.7874,0,0,1,0,0)"/>
 </svg>
 <svg width="80" x="113.386" y="10" height="31" xlink:href="SYSTEM.LIBRARY.PROJECT.OBJECTDISPLAYS.FlatComponents.EditableLabel" id="yearInput" atv:refpx="243.5" atv:refpy="25.5" transform="matrix(1.5875,0,0,1,0,0)">
  <atv:overwrite x="63.5" id="input_label" transform="matrix(0.6299,0,0,1,0,0)"/>
  <atv:overwrite width="126" id="input_bg" transform="matrix(0.6299,0,0,1,0,0)"/>
  <atv:overwrite width="199.326" id="blinking_frame" transform="matrix(0.6299,0,0,1,0,0)"/>
 </svg>
 <svg width="100" x="276.923" y="265.5" height="31" xlink:href="SYSTEM.LIBRARY.PROJECT.OBJECTDISPLAYS.FlatComponents.ActionButton" id="id_3" atv:refpx="425" atv:refpy="281" transform="matrix(1.3,0,0,1,0,0)">
  <atv:argument value="T{Okay}" name="label"/>
  <atv:overwrite width="129" id="button_stroke" transform="matrix(0.7692,0,0,1,0,0)"/>
  <atv:overwrite x="64.5" id="button_label" transform="matrix(0.7692,0,0,1,0,0)"/>
  <atv:overwrite x="57.75" id="button_symbol" transform="matrix(0.7692,0,0,1,0,0)"/>
  <atv:overwrite width="129" id="button_bg" transform="matrix(0.7692,0,0,1,0,0)"/>
  <atv:overwrite width="130" id="id_2" transform="matrix(0.7692,0,0,1,0,0)"/>
 </svg>
 <svg width="100" x="276.923" y="224.5" height="31" xlink:href="SYSTEM.LIBRARY.PROJECT.OBJECTDISPLAYS.FlatComponents.ActionButton" id="nowButton" atv:refpx="425" atv:refpy="240" transform="matrix(1.3,0,0,1,0,0)">
  <atv:argument value="T{Today}" name="label"/>
  <atv:overwrite width="129" id="button_stroke" transform="matrix(0.7692,0,0,1,0,0)"/>
  <atv:overwrite x="64.5" id="button_label" transform="matrix(0.7692,0,0,1,0,0)"/>
  <atv:overwrite x="57.75" id="button_symbol" transform="matrix(0.7692,0,0,1,0,0)"/>
  <atv:overwrite width="129" id="button_bg" transform="matrix(0.7692,0,0,1,0,0)"/>
  <atv:overwrite width="130" id="id_2" transform="matrix(0.7692,0,0,1,0,0)"/>
 </svg>
 <script type="text/ecmascript"><![CDATA[var popupId = webMI.query.popupId;
var controlBackgroundColor = webMI.query.controlBackgroundColor;
var controlTintColor = webMI.query.controlTintColor;
var controlTextColor = webMI.query.controlTextColor;
var controlLabelColor = webMI.query.controlLabelColor;

var _value = {},
    _monthNames = [
		"T{January}",
		"T{February}",
		"T{March}",
		"T{April}",
		"T{May}",
		"T{June}",
		"T{July}",
		"T{August}",
		"T{September}",
		"T{October}",
		"T{November}",
		"T{December}"
	],
    _dayOfTheWeekNames = [
		"T{Sunday}",
		"T{Monday}",
		"T{Tuesday}",
		"T{Wednesday}",
		"T{Thursday}",
		"T{Friday}",
		"T{Saturday}"
	],
    _buttonValues = {};

function updateButtons() {
    var currentDate = new Date(_value.raw);
    currentDate.setDate(0);
    var dOW = currentDate.getDay();

    while (dOW != 1) {
        currentDate.setDate(currentDate.getDate() - 1);
        dOW = currentDate.getDay();
    }

    var initialUpdate = _buttonValues['00'] === undefined;
    for (var y = 0; y < 6; y++) {
        for (var x = 0; x < 7; x++) {
            var id = y + '' + x,
                fieldId = 'field_' + id,
                labelId = fieldId + '_button_label',
                bgId = fieldId + '_button_bg';

            webMI.gfx.setText(labelId, currentDate.getDate());


            if (currentDate.getMonth() == _value.month && currentDate.getDate() == _value.day) {
                webMI.gfx.setFill(labelId, controlBackgroundColor);
                webMI.gfx.setFill(bgId, controlTintColor);
            } else {
                var now = new Date();
                webMI.gfx.setFill(labelId,
                    (currentDate.getMonth() == now.getMonth() && currentDate.getDate() == now.getDate() && currentDate.getFullYear() == now.getFullYear()) ? controlTintColor :
                    (currentDate.getMonth() == _value.month) ? controlTextColor : controlLabelColor);
                webMI.gfx.setFill(bgId, 'none');
            }

            if (initialUpdate)
                (function() {
                    var _id = id;

                    webMI.trigger.connect('clicked', function(e) {
                        if (_buttonValues[_id] != _value.raw) setValue(_buttonValues[_id])
                    }, fieldId);
                })();

            _buttonValues[id] = currentDate.valueOf();

            currentDate.setDate(currentDate.getDate() + 1);
        }
    }
}

function setValue(timestamp) {
    var millis = 0;
    if (timestamp) {
        millis = timestamp;
        if (typeof millis != "number") {
            millis = parseInt(timestamp, 10);
            if (isNaN(millis)) {
                millis = 0;
            }
        }
    }

    var newDate = new Date(millis);
    _value.raw = millis;
    _value.day = newDate.getDate();
    _value.dayOfTheWeek = newDate.getDay();
    _value.month = newDate.getMonth();
    _value.year = newDate.getFullYear();
    _value.hours = newDate.getHours();
    _value.minutes = newDate.getMinutes();
    _value.seconds = newDate.getSeconds();
    _value.millis = newDate.getMilliseconds();

    updateButtons();
    updateLabels();
}

function updateLabels() {
    webMI.gfx.setText('yearLabelLeft', _value.year);
    webMI.gfx.setText('dayOfTheWeekLabel', _dayOfTheWeekNames[_value.dayOfTheWeek] + ',');
    webMI.gfx.setText('numericDateLabel', new Date(_value.raw).toLocaleDateString());

    webMI.trigger.fire('setSelectedItem', _monthNames[_value.month], 'monthInput');
    webMI.trigger.fire('setValue', _value.year, 'yearInput');
}

webMI.addOnload(function() {
    setValue(webMI.query.value);
});

webMI.trigger.connect('setValue', function(e) {
    setValue(e.value);
});

webMI.addEvent('goBackClickarea', ['mouseup', 'touchend'], function(e) {
    var newValue = new Date(_value.raw);
    newValue.setMonth(newValue.getMonth() - 1);
    setValue(newValue.valueOf());
});

webMI.addEvent('goForwardClickarea', ['mouseup', 'touchend'], function(e) {
    var newValue = new Date(_value.raw);
    newValue.setMonth(newValue.getMonth() + 1);
    setValue(newValue.valueOf());
});

webMI.trigger.fire('setItems', (function() {
    var items = [];
    for (var i in _monthNames) {
        items.push({
            text: _monthNames[i],
            value: i
        });
    }

    return items;
})(), 'monthInput');

webMI.trigger.connect('valuechanged', function(e) {
    if (e.value == _value.month) return;

    var newDate = new Date(_value.raw);
    newDate.setMonth(e.value);
    setValue(newDate.valueOf());
}, 'monthInput');

webMI.trigger.connect('valuechanged', function(e) {
    if (!_value.raw || e.value == _value.year || _value.year && e.value == '') return;

    var newDate = new Date(_value.raw);
    newDate.setFullYear(e.value);
    setValue(newDate.valueOf());
}, 'yearInput');

webMI.trigger.connect("clicked", function() {
    webMI.trigger.fire("com.atvise.datepicker_" + popupId, _value.raw);
    webMI.display.closeWindow();
}, "id_3");

webMI.trigger.connect("clicked", function(e) {
    setValue((new Date()).valueOf());
}, "nowButton");]]></script>
</svg>
