<?xml version='1.0' encoding='UTF-8' standalone='no'?>
<svg xmlns:inkscape="http://www.inkscape.org/namespaces/inkscape" width="190.15982" height="187.89197" sodipodi:docname="debrisscreen.svg" xmlns:xlink="http://www.w3.org/1999/xlink" version="1.1" id="svg1604" xmlns:dc="http://purl.org/dc/elements/1.1/" inkscape:version="1.0beta1 (d07a077, 2019-11-03)" xmlns:cc="http://creativecommons.org/ns#" xmlns="http://www.w3.org/2000/svg" xmlns:rdf="http://www.w3.org/1999/02/22-rdf-syntax-ns#" xmlns:sodipodi="http://sodipodi.sourceforge.net/DTD/sodipodi-0.dtd" xmlns:atv="http://webmi.atvise.com/2007/svgext" xmlns:svg="http://www.w3.org/2000/svg">
 <defs id="defs1598">
  <linearGradient x1="0.571218" gradientUnits="objectBoundingBox" id="SVGID_1_" y2="0.571823" x2="0.365775" y1="0.366561" class="linear">
   <stop offset="0" stop-color="#ff5600"/>
   <stop offset="1" stop-color="#1a0c00"/>
  </linearGradient>
  <linearGradient x1="0.569575" gradientUnits="objectBoundingBox" id="SVGID_2_" y2="0.569767" x2="0.364131" y1="0.364987" class="linear">
   <stop offset="0" stop-color="#ff5600"/>
   <stop offset="1" stop-color="#1a0c00"/>
  </linearGradient>
 </defs>
 <sodipodi:namedview inkscape:document-rotation="0" inkscape:current-layer="layer1" borderopacity="1.0" inkscape:window-x="0" pagecolor="#ffffff" inkscape:document-units="mm" id="base" inkscape:cx="386.5" inkscape:cy="217.92857" inkscape:window-y="0" inkscape:pageshadow="2" inkscape:zoom="0.35" bordercolor="#666666" showgrid="false" inkscape:pageopacity="0.0" inkscape:window-maximized="0" inkscape:window-height="910" inkscape:window-width="1284"/>
 <metadata id="metadata1601">
  <rdf:RDF>
   <cc:Work rdf:about="">
    <dc:format>image/svg+xml</dc:format>
    <dc:type rdf:resource="http://purl.org/dc/dcmitype/StillImage"/>
    <dc:title/>
   </cc:Work>
  </rdf:RDF>
  <atv:gridconfig width="20" height="20" gridstyle="lines" enabled="false"/>
  <atv:snapconfig width="10" height="10" enabled="false"/>
 </metadata>
 <g inkscape:label="Слой 1" inkscape:groupmode="layer" id="layer1" atv:refpy="93.966" atv:refpx="95.08" transform="translate(-3.5718754,-90.506399)">
  <g id="g2229" atv:refpy="184.472" atv:refpx="98.652" transform="matrix(2.0447293,0,0,2.0203437,-5.0159877,82.829093)">
   <g id="light" atv:refpy="47.25" atv:refpx="48.35">
    <g id="g1999" atv:refpy="54.6" atv:refpx="55.5">
     <path fill="#ff5600" id="path1925" d="M39.2,55.7C39.2,55.7 44,55.4 44,51.4L44.1,60C44.1,56 48.9,55.7 48.9,55.7Z" atv:refpy="55.7" inkscape:connector-curvature="0" atv:refpx="44.05"/>
     <path fill="#ff5600" id="path1927" d="M30.4,56.3C30.4,56.3 35.199,56 35.199,52L35.3,60.6C35.3,56.6 40.099,56.3 40.099,56.3Z" atv:refpy="56.3" inkscape:connector-curvature="0" atv:refpx="35.25"/>
     <path fill="#ff5600" id="path1929" d="M21,57.3C21,57.3 25.8,57 25.8,53L25.9,61.6C25.9,57.6 30.7,57.3 30.7,57.3Z" atv:refpy="57.3" inkscape:connector-curvature="0" atv:refpx="25.85"/>
     <path fill="#ff5600" id="path1931" d="M47.5,55C47.5,55 52.3,54.7 52.3,50.7L52.4,59.3C52.4,55.3 57.199,55 57.199,55Z" atv:refpy="55" inkscape:connector-curvature="0" atv:refpx="52.35"/>
     <path fill="#ff5600" id="path1933" d="M56.3,54.1C56.3,54.1 61.099,53.8 61.099,49.8L61.199,58.4C61.199,54.4 66,54.1 66,54.1Z" atv:refpy="54.1" inkscape:connector-curvature="0" atv:refpx="61.15"/>
     <path fill="#ff5600" id="path1935" d="M64.5,53.4C64.5,53.4 69.3,53.1 69.3,49.1L69.399,57.7C69.399,53.7 74.199,53.4 74.199,53.4Z" atv:refpy="53.4" inkscape:connector-curvature="0" atv:refpx="69.35"/>
     <path fill="#ff5600" id="path1937" d="M57.5,46.6C57.5,46.6 62.3,46.3 62.3,42.3L62.4,50.9C62.4,46.9 67.2,46.6 67.2,46.6Z" atv:refpy="46.6" inkscape:connector-curvature="0" atv:refpx="62.35"/>
     <path fill="#ff5600" id="path1939" d="M66.3,45.4C66.3,45.4 71.1,45.1 71.1,41.1L71.199,49.7C71.199,45.7 75.999,45.4 75.999,45.4Z" atv:refpy="45.4" inkscape:connector-curvature="0" atv:refpx="71.15"/>
     <path fill="#ff5600" id="path1941" d="M74.5,44.4C74.5,44.4 79.3,44.1 79.3,40.1L79.399,48.7C79.399,44.7 84.199,44.4 84.199,44.4Z" atv:refpy="44.4" inkscape:connector-curvature="0" atv:refpx="79.35"/>
     <path fill="#ff5600" id="path1943" d="M31.4,49.2C31.4,49.2 36.199,48.9 36.199,44.9L36.3,53.5C36.3,49.5 41.099,49.2 41.099,49.2Z" atv:refpy="49.2" inkscape:connector-curvature="0" atv:refpx="36.25"/>
     <path fill="#ff5600" id="path1945" d="M40.2,48C40.2,48 45,47.7 45,43.7L45.1,52.3C45.1,48.3 49.9,48 49.9,48Z" atv:refpy="48" inkscape:connector-curvature="0" atv:refpx="45.05"/>
     <path fill="#ff5600" id="path1947" d="M48.5,47C48.5,47 53.3,46.7 53.3,42.7L53.4,51.3C53.4,47.3 58.199,47 58.199,47Z" atv:refpy="47" inkscape:connector-curvature="0" atv:refpx="53.35"/>
     <path fill="#ff5600" id="path1949" d="M58.7,39.4C58.7,39.4 63.5,39.1 63.5,35.1L63.6,43.7C63.6,39.7 68.4,39.4 68.4,39.4Z" atv:refpy="39.4" inkscape:connector-curvature="0" atv:refpx="63.55"/>
     <path fill="#ff5600" id="path1951" d="M67.5,38.2C67.5,38.2 72.3,37.9 72.3,33.9L72.399,42.5C72.399,38.5 77.199,38.2 77.199,38.2Z" atv:refpy="38.2" inkscape:connector-curvature="0" atv:refpx="72.35"/>
     <path fill="#ff5600" id="path1953" d="M41.4,40.8C41.4,40.8 46.199,40.5 46.199,36.5L46.3,45.1C46.3,41.1 51.099,40.8 51.099,40.8Z" atv:refpy="40.8" inkscape:connector-curvature="0" atv:refpx="46.25"/>
     <path fill="#ff5600" id="path1955" d="M49.7,39.8C49.7,39.8 54.5,39.5 54.5,35.5L54.6,44.1C54.6,40.1 59.4,39.8 59.4,39.8Z" atv:refpy="39.8" inkscape:connector-curvature="0" atv:refpx="54.55"/>
     <path fill="#ff5600" id="path1957" d="M59.7,32.6C59.7,32.6 64.5,32.3 64.5,28.3L64.599,36.9C64.599,32.9 69.399,32.6 69.399,32.6Z" atv:refpy="32.6" inkscape:connector-curvature="0" atv:refpx="64.55"/>
     <path fill="#ff5600" id="path1959" d="M68.5,31.4C68.5,31.4 73.3,31.099 73.3,27.099L73.399,35.699C73.399,31.699 78.199,31.399 78.199,31.399Z" atv:refpy="31.4" inkscape:connector-curvature="0" atv:refpx="73.35"/>
     <path fill="#ff5600" id="path1961" d="M42.4,34C42.4,34 47.199,33.7 47.199,29.7L47.3,38.3C47.3,34.3 52.099,34 52.099,34Z" atv:refpy="34" inkscape:connector-curvature="0" atv:refpx="47.25"/>
     <path fill="#ff5600" id="path1963" d="M50.7,33C50.7,33 55.5,32.7 55.5,28.7L55.6,37.3C55.6,33.3 60.4,33 60.4,33Z" atv:refpy="33" inkscape:connector-curvature="0" atv:refpx="55.55"/>
     <path fill="#ff5600" id="path1965" d="M60.7,25.2C60.7,25.2 65.5,24.9 65.5,20.9L65.6,29.5C65.6,25.5 70.399,25.2 70.399,25.2Z" atv:refpy="25.2" inkscape:connector-curvature="0" atv:refpx="65.55"/>
     <path fill="#ff5600" id="path1967" d="M51.7,25.6C51.7,25.6 56.5,25.3 56.5,21.3L56.6,29.9C56.6,25.9 61.4,25.599 61.4,25.599Z" atv:refpy="25.6" inkscape:connector-curvature="0" atv:refpx="56.55"/>
     <path fill="#ff5600" id="path1969" d="M72.5,52.5C72.5,52.5 77.3,52.2 77.3,48.2L77.399,56.8C77.399,52.8 82.199,52.5 82.199,52.5Z" atv:refpy="52.5" inkscape:connector-curvature="0" atv:refpx="77.35"/>
     <path fill="#ff5600" id="path1971" d="M80.3,51.7C80.3,51.7 85.1,51.4 85.1,47.4L85.199,56C85.199,52 89.999,51.7 89.999,51.7Z" atv:refpy="51.7" inkscape:connector-curvature="0" atv:refpx="85.15"/>
     <path fill="#ff5600" id="path1973" d="M38.2,62.3C38.2,62.3 43,62 43,58L43.1,66.6C43.1,62.599 47.9,62.3 47.9,62.3Z" atv:refpy="62.3" inkscape:connector-curvature="0" atv:refpx="43.05"/>
     <path fill="#ff5600" id="path1975" d="M29.4,63C29.4,63 34.199,62.7 34.199,58.7L34.3,67.3C34.3,63.3 39.099,63 39.099,63Z" atv:refpy="63" inkscape:connector-curvature="0" atv:refpx="34.25"/>
     <path fill="#ff5600" id="path1977" d="M46.5,61.6C46.5,61.6 51.3,61.3 51.3,57.3L51.4,65.9C51.4,61.9 56.199,61.6 56.199,61.6Z" atv:refpy="61.6" inkscape:connector-curvature="0" atv:refpx="51.35"/>
     <path fill="#ff5600" id="path1979" d="M55.3,60.7C55.3,60.7 60.099,60.4 60.099,56.4L60.199,65C60.199,61 65,60.7 65,60.7Z" atv:refpy="60.7" inkscape:connector-curvature="0" atv:refpx="60.15"/>
     <path fill="#ff5600" id="path1981" d="M63.5,60C63.5,60 68.3,59.7 68.3,55.7L68.399,64.3C68.399,60.3 73.199,60 73.199,60Z" atv:refpy="60" inkscape:connector-curvature="0" atv:refpx="68.35"/>
     <path fill="#ff5600" id="path1983" d="M71.5,59.2C71.5,59.2 76.3,58.9 76.3,54.9L76.399,63.5C76.399,59.5 81.199,59.2 81.199,59.2Z" atv:refpy="59.2" inkscape:connector-curvature="0" atv:refpx="76.35"/>
     <path fill="#ff5600" id="path1985" d="M37.2,69.9C37.2,69.9 42,69.6 42,65.6L42.1,74.2C42.1,70.2 46.9,69.9 46.9,69.9Z" atv:refpy="69.9" inkscape:connector-curvature="0" atv:refpx="42.05"/>
     <path fill="#ff5600" id="path1987" d="M45.5,69.2C45.5,69.2 50.3,68.9 50.3,64.9L50.4,73.5C50.4,69.5 55.199,69.2 55.199,69.2Z" atv:refpy="69.2" inkscape:connector-curvature="0" atv:refpx="50.35"/>
     <path fill="#ff5600" id="path1989" d="M54.3,68.3C54.3,68.3 59.099,68 59.099,64L59.199,72.6C59.199,68.6 63.999,68.3 63.999,68.3Z" atv:refpy="68.3" inkscape:connector-curvature="0" atv:refpx="59.15"/>
     <path fill="#ff5600" id="path1991" d="M62.5,67.6C62.5,67.6 67.3,67.3 67.3,63.3L67.399,71.899C67.399,67.899 72.199,67.6 72.199,67.6Z" atv:refpy="67.6" inkscape:connector-curvature="0" atv:refpx="67.35"/>
     <path fill="#ff5600" id="path1993" d="M45.3,76.7C45.3,76.7 50.099,76.4 50.099,72.4L50.199,81C50.199,77 54.999,76.7 54.999,76.7Z" atv:refpy="76.7" inkscape:connector-curvature="0" atv:refpx="50.15"/>
     <path fill="#ff5600" id="path1995" d="M53.5,76C53.5,76 58.3,75.7 58.3,71.7L58.4,80.3C58.4,76.3 63.199,76 63.199,76Z" atv:refpy="76" inkscape:connector-curvature="0" atv:refpx="58.35"/>
     <path fill="#ff5600" id="path1997" d="M47.3,84C47.3,84 52.099,83.7 52.099,79.7L52.199,88.3C52.2,84.3 57,84 57,84Z" atv:refpy="84" inkscape:connector-curvature="0" atv:refpx="52.15"/>
    </g>
    <rect width="0.30000001" height="64.199997" x="30.5" y="-2.3" fill="#ff5600" id="rect2001" atv:refpy="29.782" atv:refpx="30.664" transform="matrix(0.7071,0.7071,-0.7071,0.7071,30.0625,-12.9626)"/>
    <path fill="#ff5600" id="path2003" d="M12.4,65.4C10.3,65.4 8.3,64.599 6.7,63L6.9,62.8C9.9,65.8 14.9,65.8 17.9,62.8L63.3,17.4C66.3,14.399 66.3,9.399 63.3,6.399L63.5,6.199C66.7,9.399 66.7,14.5 63.5,17.599L18.1,63.1C16.5,64.599 14.5,65.4 12.4,65.4" atv:refpy="35.8" inkscape:connector-curvature="0" atv:refpx="36.3"/>
   </g>
   <g id="shape" atv:refpy="65.9" atv:refpx="66.3">
    <circle r="6.5999999" cy="43.200001" fill="#e34300" id="circle2006" atv:refpy="43.2" cx="89" atv:refpx="89"/>
    <circle r="6.5999999" cy="88.599998" fill="#e34300" id="circle2008" atv:refpy="88.6" cx="43.599998" atv:refpx="43.6"/>
   </g>
   <g id="linear" atv:refpy="49.325" atv:refpx="49.744">
    <path fill="url(#SVGID_1_)" id="path2016" d="M84.3,38.6C86.899,36 91.1,36 93.6,38.6L62.4,7.3C59.8,4.699 55.6,4.699 53.099,7.3C50.599,9.9 50.499,14.1 53.099,16.6L84.3,47.8C81.8,45.3 81.8,41.099 84.3,38.6" atv:refpy="26.575" inkscape:connector-curvature="0" atv:refpx="72.394" class="linear"/>
    <path fill="url(#SVGID_2_)" id="path2023" d="M39,83.9C41.6,81.3 45.8,81.3 48.3,83.9L17.1,52.7C14.5,50.1 10.3,50.1 7.8,52.7C5.3,55.3 5.2,59.5 7.8,62L39,93.3C36.4,90.7 36.4,86.5 39,83.9" atv:refpy="72.025" inkscape:connector-curvature="0" atv:refpx="27.094" class="linear"/>
    <path fill="#993300" id="path2025" d="M32.1,36.5C32.1,36.5 32.7,34.1 34.2,33.8C35.7,33.5 37.8,33.8 37.8,33.8C37.8,33.8 34.5,33.8 34.5,36.199C34.5,38.599 31.8,38.599 31.8,38.599Z" atv:refpy="36.133" inkscape:connector-curvature="0" atv:refpx="34.8"/>
   </g>
   <g id="dark" atv:refpy="50.31" atv:refpx="50.7">
    <path fill="#8a3400" id="path2028" d="M6.4,62.9C6.4,62.9 8.1,64.599 9.9,64.4C9.1,65.8 10.5,67.2 10.5,67.2Z" atv:refpy="65.05" inkscape:connector-curvature="0" atv:refpx="8.45"/>
    <path fill="#8a3400" id="path2030" d="M5.5,61.1C6.9,58.1 10.1,57.8 10.1,57.8L6.899,58.1Z" atv:refpy="59.45" inkscape:connector-curvature="0" atv:refpx="7.8"/>
    <circle r="4.5999999" cy="43.200001" fill="#8a3400" id="circle2032" atv:refpy="43.2" cx="89" atv:refpx="89"/>
    <circle r="4.5999999" cy="88.599998" fill="#8a3400" id="circle2034" atv:refpy="88.6" cx="43.599998" atv:refpx="43.6"/>
    <path fill="#8a3400" id="path2036" d="M9.2,56.6C9.2,56.6 14,56.3 14,52.3L14.1,60.9C14.1,56.9 18.9,56.6 18.9,56.6Z" atv:refpy="56.6" inkscape:connector-curvature="0" atv:refpx="14.05"/>
    <path fill="#8a3400" id="path2038" d="M72.6,35.9C72.6,35.9 77.399,35.6 77.399,31.599L77.499,40.199C77.499,36.199 82.299,35.9 82.299,35.9Z" atv:refpy="35.9" inkscape:connector-curvature="0" atv:refpx="77.45"/>
    <path fill="#8a3400" id="path2040" d="M65.2,29.7C65.2,29.7 70,29.4 70,25.4L70,34C70,30 74.8,29.7 74.8,29.7Z" atv:refpy="29.7" inkscape:connector-curvature="0" atv:refpx="70"/>
    <path fill="#8a3400" id="path2042" d="M66.2,22.8C66.2,22.8 71,22.5 71,18.5L71.1,27.1C71.1,23.1 75.899,22.8 75.899,22.8Z" atv:refpy="22.8" inkscape:connector-curvature="0" atv:refpx="71.05"/>
    <path fill="#8a3400" id="path2044" d="M51.8,10.2C51.8,10.2 56.599,9.899 56.599,5.899L56.699,14.5C56.699,10.5 61.499,10.2 61.499,10.2Z" atv:refpy="10.2" inkscape:connector-curvature="0" atv:refpx="56.65"/>
    <path fill="#8a3400" id="path2046" d="M59,16.4C59,16.4 63.8,16.099 63.8,12.099L63.9,20.699C63.9,16.699 68.7,16.399 68.7,16.399Z" atv:refpy="16.4" inkscape:connector-curvature="0" atv:refpx="63.85"/>
    <path fill="#8a3400" id="path2048" d="M17.9,63.1C17.9,63.1 22.7,62.8 22.7,58.8L22.8,67.4C22.8,63.4 27.6,63.1 27.6,63.1Z" atv:refpy="63.1" inkscape:connector-curvature="0" atv:refpx="22.75"/>
    <path fill="#8a3400" id="path2050" d="M25.9,70.1C25.9,70.1 30.7,69.8 30.7,65.8L30.8,74.399C30.8,70.399 35.6,70.1 35.6,70.1Z" atv:refpy="70.1" inkscape:connector-curvature="0" atv:refpx="30.75"/>
    <g id="g2122" atv:refpy="43.4" atv:refpx="42.2">
     <path fill="#8a3400" id="path2052" d="M28.7,48.2C28.7,48.2 33.5,47.9 33.5,43.9L33.6,52.5C33.6,48.5 38.4,48.2 38.4,48.2Z" atv:refpy="48.2" inkscape:connector-curvature="0" atv:refpx="33.55"/>
     <path fill="#8a3400" id="path2054" d="M19.9,48.8C19.9,48.8 24.7,48.5 24.7,44.5L24.8,53.1C24.8,49.1 29.6,48.8 29.6,48.8Z" atv:refpy="48.8" inkscape:connector-curvature="0" atv:refpx="24.75"/>
     <path fill="#8a3400" id="path2056" d="M10.4,49.8C10.4,49.8 15.2,49.5 15.2,45.5L15.299,54.1C15.299,50.1 20.099,49.8 20.099,49.8Z" atv:refpy="49.8" inkscape:connector-curvature="0" atv:refpx="15.25"/>
     <path fill="#8a3400" id="path2058" d="M36.9,47.5C36.9,47.5 41.699,47.2 41.699,43.2L41.8,51.8C41.8,47.8 46.599,47.5 46.599,47.5Z" atv:refpy="47.5" inkscape:connector-curvature="0" atv:refpx="41.75"/>
     <path fill="#8a3400" id="path2060" d="M45.8,46.6C45.8,46.6 50.599,46.3 50.599,42.3L50.699,50.9C50.699,46.9 55.499,46.6 55.499,46.6Z" atv:refpy="46.6" inkscape:connector-curvature="0" atv:refpx="50.65"/>
     <path fill="#8a3400" id="path2062" d="M54,45.9C54,45.9 58.8,45.6 58.8,41.6L58.9,50.2C58.9,46.2 63.699,45.9 63.699,45.9Z" atv:refpy="45.9" inkscape:connector-curvature="0" atv:refpx="58.85"/>
     <path fill="#8a3400" id="path2064" d="M47,39.1C47,39.1 51.8,38.8 51.8,34.8L51.9,43.4C51.9,39.4 56.699,39.1 56.699,39.1Z" atv:refpy="39.1" inkscape:connector-curvature="0" atv:refpx="51.85"/>
     <path fill="#8a3400" id="path2066" d="M55.8,37.9C55.8,37.9 60.599,37.6 60.599,33.6L60.699,42.2C60.699,38.2 65.5,37.9 65.5,37.9Z" atv:refpy="37.9" inkscape:connector-curvature="0" atv:refpx="60.65"/>
     <path fill="#8a3400" id="path2068" d="M64,36.9C64,36.9 68.8,36.6 68.8,32.6L68.899,41.2C68.899,37.2 73.699,36.9 73.699,36.9Z" atv:refpy="36.9" inkscape:connector-curvature="0" atv:refpx="68.85"/>
     <path fill="#8a3400" id="path2070" d="M69.2,44.1L74,44.1L73.9,39.8C73.9,43.8 69.2,44.1 69.2,44.1" atv:refpy="41.95" inkscape:connector-curvature="0" atv:refpx="71.6"/>
     <path fill="#8a3400" id="path2072" d="M20.9,41.7C20.9,41.7 25.7,41.4 25.7,37.4L25.8,46C25.8,42 30.6,41.7 30.6,41.7Z" atv:refpy="41.7" inkscape:connector-curvature="0" atv:refpx="25.75"/>
     <path fill="#8a3400" id="path2074" d="M37.9,39.5C37.9,39.5 42.699,39.2 42.699,35.2L42.8,43.8C42.8,39.8 47.599,39.5 47.599,39.5Z" atv:refpy="39.5" inkscape:connector-curvature="0" atv:refpx="42.75"/>
     <path fill="#8a3400" id="path2076" d="M48.2,31.9C48.2,31.9 53,31.599 53,27.599L53.1,36.199C53.1,32.199 57.9,31.899 57.9,31.899Z" atv:refpy="31.9" inkscape:connector-curvature="0" atv:refpx="53.05"/>
     <path fill="#8a3400" id="path2078" d="M57,30.7C57,30.7 61.8,30.4 61.8,26.4L61.9,35C61.9,31 66.7,30.7 66.7,30.7Z" atv:refpy="30.7" inkscape:connector-curvature="0" atv:refpx="61.85"/>
     <path fill="#8a3400" id="path2080" d="M30.9,33.3C30.9,33.3 35.699,33 35.699,28.999L35.8,37.599C35.8,33.599 40.599,33.3 40.599,33.3Z" atv:refpy="33.3" inkscape:connector-curvature="0" atv:refpx="35.75"/>
     <path fill="#8a3400" id="path2082" d="M39.1,32.299C39.1,32.299 43.9,31.999 43.9,27.999L44,36.599C44,32.599 48.8,32.299 48.8,32.299Z" atv:refpy="32.3" inkscape:connector-curvature="0" atv:refpx="43.95"/>
     <path fill="#8a3400" id="path2084" d="M49.2,25.1C49.2,25.1 54,24.8 54,20.8L54.1,29.4C54.1,25.4 58.9,25.099 58.9,25.099Z" atv:refpy="25.1" inkscape:connector-curvature="0" atv:refpx="54.05"/>
     <path fill="#8a3400" id="path2086" d="M58,23.8C58,23.8 62.8,23.5 62.8,19.5L62.9,28.1C62.9,24.1 67.7,23.8 67.7,23.8Z" atv:refpy="23.8" inkscape:connector-curvature="0" atv:refpx="62.85"/>
     <path fill="#8a3400" id="path2088" d="M31.9,26.5C31.9,26.5 36.699,26.2 36.699,22.2L36.8,30.799C36.8,26.799 41.599,26.499 41.599,26.499Z" atv:refpy="26.5" inkscape:connector-curvature="0" atv:refpx="36.75"/>
     <path fill="#8a3400" id="path2090" d="M40.1,25.5C40.1,25.5 44.9,25.2 44.9,21.2L45,29.799C45,25.799 49.8,25.499 49.8,25.499Z" atv:refpy="25.5" inkscape:connector-curvature="0" atv:refpx="44.95"/>
     <path fill="#8a3400" id="path2092" d="M50.2,17.6C50.2,17.6 55,17.3 55,13.3L55.1,21.9C55.1,17.9 59.9,17.599 59.9,17.599Z" atv:refpy="17.6" inkscape:connector-curvature="0" atv:refpx="55.05"/>
     <path fill="#8a3400" id="path2094" d="M41.1,18C41.1,18 45.9,17.7 45.9,13.7L46,22.299C46,18.299 50.8,17.999 50.8,17.999Z" atv:refpy="18" inkscape:connector-curvature="0" atv:refpx="45.95"/>
     <path fill="#8a3400" id="path2096" d="M62,45C62,45 66.8,44.7 66.8,40.7L66.899,49.3C66.899,45.3 71.699,45 71.699,45Z" atv:refpy="45" inkscape:connector-curvature="0" atv:refpx="66.85"/>
     <path fill="#8a3400" id="path2098" d="M27.7,54.8C27.7,54.8 32.5,54.5 32.5,50.5L32.6,59.1C32.6,55.1 37.4,54.8 37.4,54.8Z" atv:refpy="54.8" inkscape:connector-curvature="0" atv:refpx="32.55"/>
     <path fill="#8a3400" id="path2100" d="M18.9,55.4C18.9,55.4 23.7,55.1 23.7,51.1L23.8,59.7C23.8,55.7 28.6,55.4 28.6,55.4Z" atv:refpy="55.4" inkscape:connector-curvature="0" atv:refpx="23.75"/>
     <path fill="#8a3400" id="path2102" d="M35.9,54.1C35.9,54.1 40.699,53.8 40.699,49.8L40.8,58.4C40.8,54.4 45.599,54.1 45.599,54.1Z" atv:refpy="54.1" inkscape:connector-curvature="0" atv:refpx="40.75"/>
     <path fill="#8a3400" id="path2104" d="M44.8,53.2C44.8,53.2 49.599,52.9 49.599,48.9L49.699,57.5C49.699,53.5 54.499,53.2 54.499,53.2Z" atv:refpy="53.2" inkscape:connector-curvature="0" atv:refpx="49.65"/>
     <path fill="#8a3400" id="path2106" d="M53,52.5C53,52.5 57.8,52.2 57.8,48.2L57.9,56.8C57.9,52.8 62.699,52.5 62.699,52.5Z" atv:refpy="52.5" inkscape:connector-curvature="0" atv:refpx="57.85"/>
     <path fill="#8a3400" id="path2108" d="M61,51.6C61,51.6 65.8,51.3 65.8,47.3L65.899,55.9C65.899,51.9 70.699,51.6 70.699,51.6Z" atv:refpy="51.6" inkscape:connector-curvature="0" atv:refpx="65.85"/>
     <path fill="#8a3400" id="path2110" d="M26.7,62.4C26.7,62.4 31.5,62.1 31.5,58.1L31.6,66.7C31.6,62.7 36.4,62.4 36.4,62.4Z" atv:refpy="62.4" inkscape:connector-curvature="0" atv:refpx="31.55"/>
     <path fill="#8a3400" id="path2112" d="M34.9,61.7C34.9,61.7 39.699,61.4 39.699,57.4L39.8,66C39.8,62 44.599,61.7 44.599,61.7Z" atv:refpy="61.7" inkscape:connector-curvature="0" atv:refpx="39.75"/>
     <path fill="#8a3400" id="path2114" d="M43.7,60.8C43.7,60.8 48.5,60.5 48.5,56.5L48.6,65.099C48.6,61.099 53.4,60.8 53.4,60.8Z" atv:refpy="60.8" inkscape:connector-curvature="0" atv:refpx="48.55"/>
     <path fill="#8a3400" id="path2116" d="M52,60.1C52,60.1 56.8,59.8 56.8,55.8L56.9,64.4C56.9,60.4 61.699,60.1 61.699,60.1Z" atv:refpy="60.1" inkscape:connector-curvature="0" atv:refpx="56.85"/>
     <path fill="#8a3400" id="path2118" d="M34.7,69.2C34.7,69.2 39.5,68.9 39.5,64.9L39.6,73.5C39.6,69.5 44.4,69.2 44.4,69.2Z" atv:refpy="69.2" inkscape:connector-curvature="0" atv:refpx="39.55"/>
     <path fill="#8a3400" id="path2120" d="M42.9,68.5C42.9,68.5 47.699,68.2 47.699,64.2L47.8,72.8C47.8,68.8 52.599,68.5 52.599,68.5Z" atv:refpy="68.5" inkscape:connector-curvature="0" atv:refpx="47.75"/>
    </g>
    <path fill="#8a3400" id="path2124" d="M33.9,76.5C33.9,76.5 38.699,76.2 38.699,72.2L38.8,80.8C38.8,76.8 43.599,76.5 43.599,76.5Z" atv:refpy="76.5" inkscape:connector-curvature="0" atv:refpx="38.75"/>
    <path fill="#8a3400" id="path2126" d="M68,10.9C68,10.9 66.3,9.2 64.5,9.4C65.3,8 63.9,6.6 63.9,6.6Z" atv:refpy="8.75" inkscape:connector-curvature="0" atv:refpx="65.95"/>
    <path fill="#8a3400" id="path2128" d="M72.1,15.1C72.1,15.1 70.399,13.4 68.6,13.6C69.4,12.2 68,10.8 68,10.8Z" atv:refpy="12.95" inkscape:connector-curvature="0" atv:refpx="70.05"/>
    <path fill="#8a3400" id="path2130" d="M76.1,19.2C76.1,19.2 74.399,17.5 72.6,17.7C73.4,16.3 72,14.9 72,14.9Z" atv:refpy="17.05" inkscape:connector-curvature="0" atv:refpx="74.05"/>
    <path fill="#8a3400" id="path2132" d="M80.3,23.5C80.3,23.5 78.6,21.8 76.8,22C77.6,20.6 76.2,19.2 76.2,19.2Z" atv:refpy="21.35" inkscape:connector-curvature="0" atv:refpx="78.25"/>
    <path fill="#8a3400" id="path2134" d="M84,27.4C84,27.4 82.3,25.7 80.5,25.9C81.3,24.5 79.9,23.099 79.9,23.099Z" atv:refpy="25.25" inkscape:connector-curvature="0" atv:refpx="81.95"/>
    <path fill="#8a3400" id="path2136" d="M88,31.5C88,31.5 86.3,29.8 84.5,30C85.3,28.6 83.9,27.2 83.9,27.2Z" atv:refpy="29.35" inkscape:connector-curvature="0" atv:refpx="85.95"/>
    <path fill="#8a3400" id="path2138" d="M92.2,35.7C92.2,35.7 90.5,34 88.7,34.2C89.5,32.8 88.1,31.4 88.1,31.4Z" atv:refpy="33.55" inkscape:connector-curvature="0" atv:refpx="90.15"/>
    <g id="g2160" atv:refpy="61.55" atv:refpx="61.95">
     <path fill="#8a3400" id="path2140" d="M78.9,44.6C78.9,44.6 80.6,42.9 80.4,41.1C81.8,41.9 83.2,40.5 83.2,40.5Z" atv:refpy="42.55" inkscape:connector-curvature="0" atv:refpx="81.05"/>
     <path fill="#8a3400" id="path2142" d="M74.7,48.8C74.7,48.8 76.4,47.099 76.2,45.3C77.6,46.099 79,44.699 79,44.699Z" atv:refpy="46.75" inkscape:connector-curvature="0" atv:refpx="76.85"/>
     <path fill="#8a3400" id="path2144" d="M70.4,53C70.4,53 72.1,51.3 71.9,49.5C73.3,50.3 74.7,48.9 74.7,48.9Z" atv:refpy="50.95" inkscape:connector-curvature="0" atv:refpx="72.55"/>
     <path fill="#8a3400" id="path2146" d="M66.2,57.2C66.2,57.2 67.9,55.5 67.7,53.7C69.1,54.5 70.5,53.1 70.5,53.1Z" atv:refpy="55.15" inkscape:connector-curvature="0" atv:refpx="68.35"/>
     <path fill="#8a3400" id="path2148" d="M61.9,61.5C61.9,61.5 63.6,59.8 63.4,58C64.8,58.8 66.2,57.4 66.2,57.4Z" atv:refpy="59.45" inkscape:connector-curvature="0" atv:refpx="64.05"/>
     <path fill="#8a3400" id="path2150" d="M57.7,65.7C57.7,65.7 59.4,64 59.2,62.2C60.6,63 62,61.6 62,61.6Z" atv:refpy="63.65" inkscape:connector-curvature="0" atv:refpx="59.85"/>
     <path fill="#8a3400" id="path2152" d="M53.4,69.9C53.4,69.9 55.1,68.2 54.9,66.4C56.3,67.2 57.699,65.8 57.699,65.8Z" atv:refpy="67.85" inkscape:connector-curvature="0" atv:refpx="55.55"/>
     <path fill="#8a3400" id="path2154" d="M49.2,74.2C49.2,74.2 50.9,72.5 50.7,70.7C52.1,71.5 53.5,70.1 53.5,70.1Z" atv:refpy="72.15" inkscape:connector-curvature="0" atv:refpx="51.35"/>
     <path fill="#8a3400" id="path2156" d="M44.9,78.4C44.9,78.4 46.6,76.7 46.4,74.9C47.8,75.7 49.199,74.3 49.199,74.3Z" atv:refpy="76.35" inkscape:connector-curvature="0" atv:refpx="47.05"/>
     <path fill="#8a3400" id="path2158" d="M40.7,82.6C40.7,82.6 42.4,80.899 42.2,79.1C43.6,79.899 45,78.5 45,78.5Z" atv:refpy="80.55" inkscape:connector-curvature="0" atv:refpx="42.85"/>
    </g>
    <g id="g2184" atv:refpy="70.6" atv:refpx="70.7">
     <path fill="#8a3400" id="path2162" d="M53.7,87.9C53.7,87.9 52,89.6 52.2,91.4C50.8,90.6 49.4,92 49.4,92Z" atv:refpy="89.95" inkscape:connector-curvature="0" atv:refpx="51.55"/>
     <path fill="#8a3400" id="path2164" d="M57.6,84C57.6,84 55.9,85.7 56.1,87.5C54.7,86.7 53.3,88.1 53.3,88.1Z" atv:refpy="86.05" inkscape:connector-curvature="0" atv:refpx="55.45"/>
     <path fill="#8a3400" id="path2166" d="M61.4,80.1C61.4,80.1 59.699,81.8 59.9,83.6C58.5,82.8 57.1,84.199 57.1,84.199Z" atv:refpy="82.15" inkscape:connector-curvature="0" atv:refpx="59.25"/>
     <path fill="#8a3400" id="path2168" d="M65.2,76.3C65.2,76.3 63.5,78 63.7,79.8C62.3,79 60.9,80.399 60.9,80.399Z" atv:refpy="78.35" inkscape:connector-curvature="0" atv:refpx="63.05"/>
     <path fill="#8a3400" id="path2170" d="M69,72.4C69,72.4 67.3,74.1 67.5,75.9C66.1,75.1 64.7,76.5 64.7,76.5Z" atv:refpy="74.45" inkscape:connector-curvature="0" atv:refpx="66.85"/>
     <path fill="#8a3400" id="path2172" d="M72.9,68.5C72.9,68.5 71.2,70.2 71.4,72C70,71.2 68.6,72.6 68.6,72.6Z" atv:refpy="70.55" inkscape:connector-curvature="0" atv:refpx="70.75"/>
     <path fill="#8a3400" id="path2174" d="M76.7,64.7C76.7,64.7 75,66.4 75.2,68.2C73.8,67.4 72.4,68.8 72.4,68.8Z" atv:refpy="66.75" inkscape:connector-curvature="0" atv:refpx="74.55"/>
     <path fill="#8a3400" id="path2176" d="M80.5,60.8C80.5,60.8 78.8,62.5 79,64.3C77.6,63.5 76.2,64.899 76.2,64.899Z" atv:refpy="62.85" inkscape:connector-curvature="0" atv:refpx="78.35"/>
     <path fill="#8a3400" id="path2178" d="M84.3,56.9C84.3,56.9 82.6,58.6 82.8,60.4C81.4,59.6 80,61 80,61Z" atv:refpy="58.95" inkscape:connector-curvature="0" atv:refpx="82.15"/>
     <path fill="#8a3400" id="path2180" d="M88.2,53.1C88.2,53.1 86.5,54.8 86.7,56.6C85.3,55.8 83.9,57.2 83.9,57.2Z" atv:refpy="55.15" inkscape:connector-curvature="0" atv:refpx="86.05"/>
     <path fill="#8a3400" id="path2182" d="M92,49.2C92,49.2 90.3,50.9 90.5,52.7C89.1,51.9 87.7,53.3 87.7,53.3Z" atv:refpy="51.25" inkscape:connector-curvature="0" atv:refpx="89.85"/>
    </g>
    <path fill="#8a3400" id="path2186" d="M30.6,87.7C30.6,87.7 32.3,89.4 34.1,89.2C33.3,90.6 34.7,92 34.7,92Z" atv:refpy="89.85" inkscape:connector-curvature="0" atv:refpx="32.65"/>
    <path fill="#8a3400" id="path2188" d="M26.4,83.4C26.4,83.4 28.099,85.1 29.9,84.9C29.099,86.3 30.5,87.7 30.5,87.7Z" atv:refpy="85.55" inkscape:connector-curvature="0" atv:refpx="28.45"/>
    <path fill="#8a3400" id="path2190" d="M22.4,79.3C22.4,79.3 24.099,81 25.9,80.8C25.099,82.2 26.5,83.6 26.5,83.6Z" atv:refpy="81.45" inkscape:connector-curvature="0" atv:refpx="24.45"/>
    <path fill="#8a3400" id="path2192" d="M18.3,75.1C18.3,75.1 20,76.8 21.8,76.6C21,78 22.4,79.399 22.4,79.399Z" atv:refpy="77.25" inkscape:connector-curvature="0" atv:refpx="20.35"/>
    <path fill="#8a3400" id="path2194" d="M14.6,71.2C14.6,71.2 16.3,72.9 18.1,72.7C17.3,74.1 18.7,75.5 18.7,75.5Z" atv:refpy="73.35" inkscape:connector-curvature="0" atv:refpx="16.65"/>
    <path fill="#8a3400" id="path2196" d="M10.5,67.1C10.5,67.1 12.2,68.8 14,68.6C13.2,70 14.6,71.399 14.6,71.399Z" atv:refpy="69.25" inkscape:connector-curvature="0" atv:refpx="12.55"/>
    <path fill="#8a3400" id="path2198" d="M13.2,67.6C14.6,64.599 17.799,64.3 17.799,64.3L14.599,64.599Z" atv:refpy="65.95" inkscape:connector-curvature="0" atv:refpx="15.5"/>
    <path fill="#8a3400" id="path2200" d="M21.1,74.4C22.5,71.4 25.7,71.1 25.7,71.1L22.5,71.4Z" atv:refpy="72.75" inkscape:connector-curvature="0" atv:refpx="23.4"/>
    <path fill="#8a3400" id="path2202" d="M27.4,80.7C28.799,77.7 32,77.4 32,77.4L28.8,77.7Z" atv:refpy="79.05" inkscape:connector-curvature="0" atv:refpx="29.7"/>
    <path fill="#8a3400" id="path2204" d="M82.9,36.1C84.3,33.1 87.5,32.8 87.5,32.8L84.3,33.1Z" atv:refpy="34.45" inkscape:connector-curvature="0" atv:refpx="85.2"/>
    <path fill="#8a3400" id="path2206" d="M79.3,32.1C80.7,29.1 83.899,28.8 83.899,28.8L80.699,29.1Z" atv:refpy="30.45" inkscape:connector-curvature="0" atv:refpx="81.6"/>
    <path fill="#8a3400" id="path2208" d="M75.3,27.7C76.7,24.7 79.899,24.4 79.899,24.4L76.699,24.7Z" atv:refpy="26.05" inkscape:connector-curvature="0" atv:refpx="77.6"/>
    <path fill="#8a3400" id="path2210" d="M31.9,86.1C33.3,83.1 36.5,82.8 36.5,82.8L33.3,83.1Z" atv:refpy="84.45" inkscape:connector-curvature="0" atv:refpx="34.2"/>
    <path fill="#8a3400" id="path2212" d="M43.6,96.8C41.4,96.8 39.3,95.899 37.8,94.399C34.6,91.199 34.6,85.999 37.8,82.8L83.2,37.4C84.8,35.8 86.8,35 89,35C91.2,35 93.3,35.9 94.8,37.4C98,40.6 98,45.8 94.8,49L49.5,94.4C47.9,96 45.8,96.8 43.6,96.8M89,35.6C87,35.6 85,36.4 83.6,37.8L38.3,83.2C35.3,86.2 35.3,91 38.3,94C39.699,95.4 41.699,96.2 43.699,96.2C45.699,96.2 47.699,95.4 49.099,94L94.5,48.6C97.5,45.6 97.5,40.8 94.5,37.8C93,36.4 91.1,35.6 89,35.6" atv:refpy="65.9" inkscape:connector-curvature="0" atv:refpx="66.3"/>
    <path fill="#8a3400" id="path2214" d="M6.6,63.2C3.4,60 3.4,54.8 6.6,51.6L51.9,6.2C55.1,3 60.3,3 63.5,6.2L63.1,6.6C60.1,3.6 55.3,3.6 52.3,6.6L7,52C4,55 4,59.8 7,62.8Z" atv:refpy="33.5" inkscape:connector-curvature="0" atv:refpx="33.85"/>
    <path fill="#8a3400" id="path2216" d="M29.7,40.5C29.7,40.5 34.5,40.2 34.5,36.2L34.6,44.8C34.6,40.8 39.4,40.5 39.4,40.5Z" atv:refpy="40.5" inkscape:connector-curvature="0" atv:refpx="34.55"/>
   </g>
   <g id="shadow" atv:refpy="48.083" atv:refpx="55.95">
    <path fill="#1a0c00" id="path2219" d="M43.9,51.3C43.9,51.3 44.5,48.9 46,48.599C47.5,48.3 49.6,48.599 49.6,48.599C49.6,48.599 46.3,48.599 46.3,50.999C46.3,53.399 43.6,53.399 43.6,53.399Z" atv:refpy="50.933" inkscape:connector-curvature="0" atv:refpx="46.6"/>
    <path fill="#1a0c00" id="path2221" d="M62.6,45.6C62.6,45.6 63.2,43.2 64.7,42.9C66.2,42.6 68.3,42.9 68.3,42.9C68.3,42.9 65,42.9 65,45.3C65,47.699 62.3,47.699 62.3,47.699Z" atv:refpy="45.233" inkscape:connector-curvature="0" atv:refpx="65.3"/>
   </g>
   <g id="hlight" atv:refpy="47.856" atv:refpx="50.05">
    <path fill="#ffd9c9" id="path2224" d="M53.1,60.4C53.1,60.4 49.5,64.3 47.7,64.3C45.9,64.3 45.9,67.3 45.9,68.2C45.9,69.1 45.3,67 45.9,64.3C45.3,63.099 43.5,63.4 42.9,64.3C42.3,65.2 39,64.3 39,64.3C39,64.3 39.6,64.3 41.7,63.099C43.8,61.899 46.2,61.899 47.7,62.199C49.2,62.499 53.1,60.4 53.1,60.4" atv:refpy="64.406" inkscape:connector-curvature="0" atv:refpx="46.05"/>
    <path fill="#ffd9c9" id="path2226" d="M61.1,27.3C61.1,27.3 57.5,31.2 55.7,31.2C53.9,31.2 53.9,34.2 53.9,35.1C53.9,36 53.3,33.9 53.9,31.2C53.3,30 51.5,30.3 50.9,31.2C50.3,32.1 47,31.2 47,31.2C47,31.2 47.6,31.2 49.7,30C51.8,28.8 54.2,28.8 55.7,29.1C57.2,29.4 61.1,27.3 61.1,27.3" atv:refpy="31.306" inkscape:connector-curvature="0" atv:refpx="54.05"/>
   </g>
  </g>
 </g>
</svg>
