<?xml version='1.0' encoding='UTF-8' standalone='no'?>
<svg width="60" x="0px" version="1.1" y="0px" xmlns="http://www.w3.org/2000/svg" height="60" xmlns:xlink="http://www.w3.org/1999/xlink" id="Ebene_1" enable-background="new 0 0 16 16" xml:space="preserve" xmlns:atv="http://webmi.atvise.com/2007/svgext">
 <defs>
  <linearGradient id="SVGID_1_" y1="0.136603" x1="-0.290145" y2="0.639639" gradientUnits="objectBoundingBox" x2="0.792871">
   <stop offset="0" style="stop-color:#9D9D9C"/>
   <stop offset="1" style="stop-color:#3C3C3B"/>
  </linearGradient>
  <linearGradient id="SVGID_2_" y1="0.0373166" x1="0.0373956" y2="1.06773" gradientUnits="objectBoundingBox" x2="0.933879">
   <stop offset="0" style="stop-color:#9D9D9C"/>
   <stop offset="1" style="stop-color:#3C3C3B"/>
  </linearGradient>
 </defs>
 <metadata>
  <atv:parameter desc="symbol color" valuetype="color" substitute="$SYMBOLCOLOR$" behavior="optional" name="symbolColor" defaultvalue="#000000"/>
  <atv:parameter desc="symbol color 2" valuetype="color" substitute="$SYMBOLCOLOR2$" behavior="optional" name="symbolColor2" defaultvalue="#FFFFFF"/>
 </metadata>
 <g id="id_6" atv:refpx="30" atv:refpy="30" transform="matrix(1,0,0,1,-0.2133,3.079)">
  <path fill="$SYMBOLCOLOR$" id="id_0" atv:refpx="102.765" atv:refpy="34.745" stroke-width="1.117" d="M48.681,22.951L48.642,46.532L48.825,46.532L59.565,23.354C59.666,23.132 59.502,22.957 59.203,22.957"/>
  <path fill="$SYMBOLCOLOR$" id="id_1" atv:refpx="23.727" atv:refpy="33.956" stroke-width="1.117" d="M46.013,12.52L21.584,12.52L21.584,7.598C21.584,7.283 21.327,7.03 21.008,7.03L4.287,7.03C3.972,7.03 3.716,7.283 3.716,7.598L3.716,12.52L1.429,12.52C1.114,12.52 0.861,12.776 0.861,13.091L0.861,46.239C0.861,46.558 1.114,46.812 1.429,46.812L46.013,46.812C46.336,46.812 46.589,46.558 46.589,46.239L46.589,13.091C46.589,12.776 46.336,12.52 46.013,12.52"/>
  <rect width="18.804" x="15.048" y="17.051" fill="none" height="14.645" stroke="$SYMBOLCOLOR2$" id="id_2" atv:refpx="24.45" stroke-width="1" atv:refpy="41.421"/>
  <rect width="30.497" x="9.2" y="35.239" fill="$SYMBOLCOLOR2$" height="8.23" stroke="none" id="id_3" atv:refpx="24.45" stroke-width="1" atv:refpy="74.594"/>
  <rect width="12.079" x="26.093" y="37.483" fill="$SYMBOLCOLOR$" height="0.822" stroke="none" id="id_4" atv:refpx="32.134" stroke-width="1" atv:refpy="75.376"/>
  <circle fill="$SYMBOLCOLOR$" cx="35.18" cy="40.261" stroke="none" r="0.969" id="id_5" atv:refpx="35.18" stroke-width="1" atv:refpy="79.554"/>
 </g>
</svg>
