<?xml version='1.0' encoding='UTF-8' standalone='no'?>
<svg xmlns:svg="http://www.w3.org/2000/svg" version="1.2" xmlns:rdf="http://www.w3.org/1999/02/22-rdf-syntax-ns#" xmlns:xlink="http://www.w3.org/1999/xlink" xmlns:dc="http://purl.org/dc/elements/1.1/" xmlns:cc="http://creativecommons.org/ns#" width="100" xmlns="http://www.w3.org/2000/svg" height="49.97" xmlns:atv="http://webmi.atvise.com/2007/svgext">
 <defs/>
 <metadata>
  <atv:gridconfig enabled="false" gridstyle="lines" width="20" height="20"/>
  <atv:snapconfig enabled="false" width="10" height="10"/>
 </metadata>
 <g id="id_2" atv:insensitive="true" atv:refpx="0" atv:refpy="0" transform="matrix(1,0,0,1,0,0)">
  <rect id="id_3" y="0" fill="#0000ff" fill-opacity="0" atv:refpx="50" atv:refpy="24.985" x="0" width="100.00" height="49.97"/>
 </g>
 <g id="id_1" atv:refpx="50" atv:refpy="24.985" transform="matrix(1,0,0,1,0,-0.0304)">
  <g id="layer1" atv:refpx="50" atv:refpy="25.015" transform="translate(-57.395685,-64.586584)">
   <g id="shape" atv:refpx="107.396" atv:refpy="89.587" transform="matrix(1.4492754,0,0,1.3333069,34.931916,22.921736)">
    <path id="path47" fill="#993300" atv:refpx="50" atv:refpy="50" d="M81.5,68.75C81.041,68.75 80.582,68.645 80.158,68.434L50,53.354L19.842,68.434C18.912,68.896 17.808,68.849 16.923,68.301C16.039,67.755 15.5,66.79 15.5,65.75L15.5,34.25C15.5,33.21 16.039,32.244 16.923,31.698C17.808,31.151 18.911,31.101 19.842,31.567L50,46.646L80.158,31.567C81.088,31.101 82.192,31.15 83.077,31.698C83.962,32.244 84.5,33.21 84.5,34.25L84.5,65.75C84.5,66.79 83.962,67.755 83.077,68.302C82.596,68.6 82.049,68.75 81.5,68.75"/>
   </g>
   <g id="dark" atv:refpx="107.395" atv:refpy="89.587" transform="matrix(1.4492754,0,0,1.3333069,34.931916,22.921736)">
    <path id="path50" fill="#702a00" atv:refpx="49.999" atv:refpy="50" d="M81.5,67.75C81.194,67.75 80.888,67.68 80.605,67.539L50,52.236L19.395,67.539C18.775,67.848 18.038,67.815 17.448,67.451C16.859,67.087 16.5,66.443 16.5,65.75L16.5,34.25C16.5,33.557 16.859,32.913 17.449,32.549C18.038,32.183 18.775,32.15 19.395,32.461L50,47.764L80.605,32.461C81.224,32.152 81.961,32.184 82.551,32.549C83.14,32.913 83.499,33.557 83.499,34.25L83.499,65.75C83.499,66.443 83.14,67.087 82.551,67.451C82.23,67.648 81.865,67.75 81.5,67.75"/>
   </g>
   <path id="path53" fill="#bc4512" atv:refpx="84.57" atv:refpy="89.587" d="M61.743,111.253C61.611,111.253 61.478,111.22 61.362,111.154C61.149,111.031 61.018,110.817 61.018,110.586L61.018,68.587C61.018,68.356 61.149,68.142 61.362,68.02C61.575,67.899 61.842,67.888 62.066,67.991L107.718,88.991C107.965,89.104 108.12,89.335 108.12,89.587C108.12,89.839 107.965,90.069 107.72,90.183L62.068,111.182C61.965,111.229 61.855,111.253 61.743,111.253Z" stroke-width="1.39008"/>
   <path id="path55" fill="#bc4512" atv:refpx="130.222" atv:refpy="89.587" d="M153.047,111.253C152.937,111.253 152.826,111.229 152.723,111.182L107.071,90.183C106.826,90.069 106.671,89.839 106.671,89.587C106.671,89.335 106.826,89.104 107.071,88.991L152.723,67.991C152.946,67.887 153.215,67.899 153.427,68.02C153.642,68.142 153.772,68.356 153.772,68.587L153.772,110.586C153.772,110.817 153.642,111.031 153.429,111.154C153.313,111.219 153.181,111.253 153.047,111.253Z" stroke-width="1.39008"/>
   <g id="hlight" atv:refpx="107.396" atv:refpy="89.587" transform="matrix(1.4492754,0,0,1.3333069,34.931916,22.921736)">
    <polygon id="polygon58" points="48.882,50 19,35.059 19,64.941 " fill="#eb9069" atv:refpx="33.941" atv:refpy="50"/>
    <polygon id="polygon60" points="81,35.059 51.118,50 81,64.941 " fill="#eb9069" atv:refpx="66.059" atv:refpy="50"/>
   </g>
  </g>
 </g>
</svg>
