<?xml version='1.0' encoding='UTF-8' standalone='no'?>
<svg xmlns:svg="http://www.w3.org/2000/svg" version="1.2" xmlns:rdf="http://www.w3.org/1999/02/22-rdf-syntax-ns#" xmlns:xlink="http://www.w3.org/1999/xlink" xmlns:dc="http://purl.org/dc/elements/1.1/" xmlns:cc="http://creativecommons.org/ns#" width="26" xmlns="http://www.w3.org/2000/svg" height="10" xmlns:atv="http://webmi.atvise.com/2007/svgext">
 <defs/>
 <metadata>
  <atv:gridconfig enabled="false" gridstyle="lines" width="20" height="20"/>
  <atv:snapconfig enabled="false" width="10" height="10"/>
 </metadata>
 <g id="id_2" atv:insensitive="true" atv:refpx="0" atv:refpy="0" transform="matrix(1,0,0,1,0,0)">
  <rect id="id_3" y="0" fill="#0000ff" fill-opacity="0" atv:refpx="13" atv:refpy="5" x="0" width="26.00" height="10.00"/>
 </g>
 <g id="id_1" atv:refpx="13" atv:refpy="5" transform="matrix(1,0,0,1,0,0)">
  <g id="layer1" atv:refpx="13" atv:refpy="5" transform="translate(150.24554,3.6663695)">
   <g id="shape" atv:refpx="-137.246" atv:refpy="1.334" transform="matrix(0.52,0,0,0.45454545,-163.24554,-21.317733)">
    <rect id="rect45" y="38.833" fill="#52a6f9" atv:refpx="72" atv:refpy="49.833" x="69" width="6" height="22"/>
    <rect id="rect47" y="42" fill="#52a6f9" atv:refpx="50" atv:refpy="50" x="25" width="50" height="16"/>
   </g>
   <g id="dark" atv:refpx="-137.246" atv:refpy="1.41" transform="matrix(0.52,0,0,0.45454545,-163.24554,-21.317733)">
    <rect id="rect50" y="43" fill="#3185d8" atv:refpx="50" atv:refpy="50" x="25" width="50" height="14"/>
   </g>
   <g id="light" atv:refpx="-137.246" atv:refpy="1.41" transform="matrix(0.52,0,0,0.45454545,-163.24554,-21.317733)">
    <rect id="rect53" y="45" fill="#6db6ff" atv:refpx="50" atv:refpy="50" x="25" width="50" height="10"/>
   </g>
   <g id="hlight" atv:refpx="-137.246" atv:refpy="1.41" transform="matrix(0.52,0,0,0.45454545,-163.24554,-21.317733)">
    <rect id="rect56" y="46.5" fill="#a5d2ff" atv:refpx="50" atv:refpy="50" x="25" width="50" height="7"/>
   </g>
  </g>
 </g>
</svg>
