<?xml version='1.0' encoding='UTF-8' standalone='no'?>
<svg version="1.2" xmlns:atv="http://webmi.atvise.com/2007/svgext" width="1024" height="120" xmlns="http://www.w3.org/2000/svg" xmlns:xlink="http://www.w3.org/1999/xlink">
 <defs>
        <linearGradient id="linear_21" y1="-7.18755e-05" y2="1.58424" x1="-0.0150911" gradientUnits="objectBoundingBox" x2="-0.0150911">
   <stop offset="0" stop-color="#c9c9c9"/>
   <stop offset="0.7117903930131004" stop-color="#000000"/>
  </linearGradient>
        <linearGradient id="linear_37" y1="0.0149254" y2="1" x1="1" gradientUnits="objectBoundingBox" x2="1">
   <stop offset="0" stop-color="#ffffff" stop-opacity="0.392156862745098"/>
   <stop offset="1" stop-color="#ffffff" stop-opacity="0"/>
  </linearGradient>
        <linearGradient id="linear_48" y1="0.0149254" y2="1" x1="1" gradientUnits="objectBoundingBox" x2="1">
   <stop offset="0" stop-color="#ffffff" stop-opacity="0.392156862745098"/>
   <stop offset="1" stop-color="#ffffff" stop-opacity="0"/>
  </linearGradient>
        <linearGradient id="linear_49" y1="0.0149254" y2="1" x1="1" gradientUnits="objectBoundingBox" x2="1">
   <stop offset="0" stop-color="#ffffff" stop-opacity="0.392156862745098"/>
   <stop offset="1" stop-color="#ffffff" stop-opacity="0"/>
  </linearGradient>
 </defs>
    <rect id="id_14" width="1022" fill="$FILLCOLOR$" stroke="#575757" atv:refpy="60.5" atv:refpx="513.5" height="118" stroke-width="2" y="1" x="1"/>
 <desc>This control is a smaller version of the default "top" display.</desc>
 <title>Topframe (1024x120)</title>
 <metadata>
        <atv:parameter substitute="$FONTCOLOR$" defaultvalue="SYSTEM.GLOBALS.atvFontColor" desc="font color" behavior="optional" valuetype="global" name="fontColor"/>
        <atv:parameter substitute="$FILLCOLOR$" defaultvalue="SYSTEM.GLOBALS.atvFillColor" desc="background color" behavior="optional" valuetype="global" name="fillColor"/>
        <atv:parameter defaultvalue="0" behavior="optional" desc="min alarm priority" group="Alarm" valuetype="number" name="minAlarmPriority"/>
        <atv:parameter defaultvalue="0" behavior="optional" desc="max alarm priority" group="Alarm" valuetype="number" name="maxAlarmPriority"/>
        <atv:gridconfig width="10" enabled="true" height="10" gridstyle="lines"/>
  <atv:snapconfig width="5" enabled="true" height="5"/>
 </metadata>
 <path id="id_33" stroke-width="2" atv:refpx="355.987" atv:refpy="59.436" fill="#000088" d="M0,0" stroke="#0000ff"/>
 <svg id="id_29" atv:refpx="728.523" transform="matrix(0.525,0,0,1.4,0,0)" xlink:href="SYSTEM.LIBRARY.ATVISE.OBJECTDISPLAYS.Advanced.button_open_display" y="53.571" height="30" atv:refpy="96.001" width="80" x="1347.667">
  <atv:argument name="display" value="SYSTEM.LIBRARY.ATVISE.OBJECTDISPLAYS.Advanced.hmi.historylist"/>
  <atv:argument name="symbol" value="SYSTEM.LIBRARY.ATVISE.OBJECTDISPLAYS.Symbols.20x20.history"/>
  <atv:argument name="symbolPressed" value="SYSTEM.LIBRARY.ATVISE.OBJECTDISPLAYS.Symbols.20x20.history"/>
  <atv:argument name="visibilityLabel" value="hidden"/>
  <atv:argument name="visibilitySymbol" value="inherit"/>
  <atv:argument name="tabIndex" value="-999999"/>
  <atv:overwrite id="button_symbol_pressed" transform="matrix(1.7778,0,0,0.6667,0,0)" y="12.5" x="12.5"/>
  <atv:overwrite id="id_2" transform="matrix(1.7778,0,0,0.6667,0,0)" height="39.5" width="39.5"/>
  <atv:overwrite id="id_0" transform="matrix(1.7778,0,0,0.6667,0,0)" height="44.5" width="44.5"/>
  <atv:argument name="extraBorderColor" value="#ffffff"/>
  <atv:argument name="smallDisplay" value="SYSTEM.LIBRARY.ATVISE.OBJECTDISPLAYS.Advanced.hmi.historylist_small"/>
  <atv:overwrite id="id_6" transform="matrix(1.9048,0,0,0.7143,0,0)" height="40" width="40"/>
  <atv:overwrite id="button_label" transform="matrix(1.9048,0,0,0.7143,0,0)" y="25.5" x="21"/>
  <atv:overwrite id="button_symbol" transform="matrix(1.9048,0,0,0.7143,0,0)" y="11" x="11"/>
  <atv:overwrite id="button_stroke" transform="matrix(1.9048,0,0,0.7143,0,0)" height="38" width="38"/>
  <atv:overwrite id="button_bg" transform="matrix(1.9048,0,0,0.7143,0,0)" height="40" width="40"/>
  <atv:overwrite id="outer_frame" transform="matrix(1.9048,0,0,0.7143,0,0)" height="42" width="42"/>
 </svg>
    <svg id="id_22" width="168" atv:refpy="95.501" atv:refpx="101" height="45" y="73.001" x="16" xlink:href="SYSTEM.LIBRARY.ATVISE.OBJECTDISPLAYS.Advanced.hmi.button_group_display"/>
    <svg id="id_13" width="168" atv:refpy="88.001" atv:refpx="422.142" height="45" y="73.001" x="367.529" xlink:href="SYSTEM.LIBRARY.ATVISE.OBJECTDISPLAYS.Advanced.hmi.button_group_zoom"/>
    <svg id="id_15" width="168" atv:refpy="95.501" atv:refpx="617.527" height="45" y="73.001" x="537.527" xlink:href="SYSTEM.LIBRARY.ATVISE.OBJECTDISPLAYS.Advanced.hmi.button_group_alarm"/>
    <rect id="id_1" ry="3" width="639.586" fill="#ffffff" stroke="none" atv:refpy="72.5" atv:refpx="3027.406" height="65" stroke-width="1.542" y="5" x="370" rx="5.904"/>
 <svg id="id_8" width="650" transform="matrix(0.9872,0,0,1,0,0)" atv:refpy="45" atv:refpx="685.835" height="75" y="0" x="369.739" xlink:href="SYSTEM.LIBRARY.ATVISE.OBJECTDISPLAYS.Advanced.hmi.alarmlog">
  <atv:argument value="#ff0000" name="fill"/>
  <atv:argument value="SYSTEM.GLOBALS.atvSymbolColor" name="symbolColor"/>
        <atv:argument prefix="minAlarmPriority" name="minAlarmPriority"/>
        <atv:argument prefix="maxAlarmPriority" name="maxAlarmPriority"/>
 </svg>
    <rect id="id_27" ry="6" width="147" fill="#ffffff" stroke="none" atv:refpy="127.5" atv:refpx="1207.768" height="65" stroke-width="1.542" y="5" x="202" rx="6"/>
    <rect id="id_28" ry="6" width="145.392" fill="url(#linear_37)" stroke="none" atv:refpy="135.41" atv:refpx="868.51" height="20" stroke-width="1.542" y="6.319" x="202.661" rx="6"/>
    <text id="username_label" font-weight="normal" font-size="11" fill="#575757" atv:refpy="-31.5" atv:refpx="2.561" font-family="Arial" y="48" x="338.5" text-anchor="end"/>
    <text id="id_20" font-weight="bold" font-size="11" fill="$FONTCOLOR$" atv:refpy="-2.5" atv:refpx="-629.436" font-family="Arial" y="48" x="214.5">T{User}:</text>
    <text id="time_label" font-weight="normal" font-size="11" fill="$FONTCOLOR$" atv:refpy="-9.5" atv:refpx="-1291.968" font-family="Arial" y="35" x="338.5" text-anchor="end">10:56</text>
    <text id="id_19" font-weight="bold" font-size="11" fill="$FONTCOLOR$" atv:refpy="30.287" atv:refpx="228.5" font-family="Arial" y="35" x="214.5">T{Time}:</text>
    <text id="language_label" font-weight="normal" font-size="11" fill="$FONTCOLOR$" atv:refpy="-19.5" atv:refpx="-883.182" font-family="Arial" y="61" x="338.5" text-anchor="end">T{}</text>
    <text id="id_25" font-weight="bold" font-size="11" fill="$FONTCOLOR$" atv:refpy="-49.5" atv:refpx="-2121.368" font-family="Arial" y="61" x="214.5">T{Language}:</text>
    <text id="date_label" font-weight="normal" font-size="11" fill="$FONTCOLOR$" atv:refpy="-6.5" atv:refpx="-1582.757" font-family="Arial" y="22" x="338.5" text-anchor="end">25.02.2011</text>
    <text id="id_18" font-weight="bold" font-size="11" fill="$FONTCOLOR$" atv:refpy="18.5" atv:refpx="227.5" font-family="Arial" y="22" x="214.5">T{Date}:</text>
    <svg id="id_11" width="30" transform="matrix(1.5,0,0,1.5,0,0)" atv:refpy="95.499" atv:refpx="250.5" height="30" y="48.667" x="152.001" xlink:href="SYSTEM.LIBRARY.ATVISE.OBJECTDISPLAYS.Advanced.hmi.button_login">
        <atv:overwrite id="button_symbol" transform="matrix(0.6667,0,0,0.6667,0,0)" x="12.5" y="12.5"/>
        <atv:overwrite id="button_stroke" width="37.5" transform="matrix(0.6667,0,0,0.6667,0,0)" height="37.5"/>
        <atv:overwrite id="button_symbol_pressed" transform="matrix(0.6667,0,0,0.6667,0,0)" x="12.5" y="12.5"/>
        <atv:overwrite id="button_bg" width="37.5" transform="matrix(0.6667,0,0,0.6667,0,0)" height="37.5"/>
        <atv:overwrite id="id_3" width="39.5" transform="matrix(0.6667,0,0,0.6667,0,0)" height="39.5"/>
        <atv:overwrite id="id_0" width="44.5" transform="matrix(0.6667,0,0,0.6667,0,0)" height="44.5"/>
 </svg>
    <svg id="id_12" width="45" atv:refpy="95.501" atv:refpx="298.5" height="45" y="73.001" x="275" xlink:href="SYSTEM.LIBRARY.ATVISE.OBJECTDISPLAYS.Advanced.hmi.button_switch_language"/>
    <rect id="id_4" ry="3" width="639" fill="url(#linear_48)" stroke="none" atv:refpy="134.875" atv:refpx="3297.365" height="20" stroke-width="1.542" y="5.784" x="370.949" rx="5.917"/>
    <g id="id_16" transform="matrix(1,0,0,1,-1,1.4733)" atv:refpy="37.5" atv:refpx="101.264">
        <rect id="id_5" ry="6" width="160" fill="#ffffff" stroke="none" atv:refpy="126.027" atv:refpx="1137.241" height="65" stroke-width="1.542" y="3.527" x="21.264" rx="6"/>
        <rect id="id_9" ry="6" width="158.213" fill="url(#linear_49)" stroke="none" atv:refpy="133.937" atv:refpx="768.588" height="20" stroke-width="1.542" y="4.846" x="22.011" rx="6"/>
  <g atv:refpx="158.206" atv:refpy="36.247" transform="matrix(0.6198,0,0,0.6198,56.9453,-2.9552)" id="atvise_logo">
   <svg width="80" x="63.696" atv:refpx="159.452" atv:refpy="49.236" y="31.504" transform="matrix(0.6904,0,0,0.6904,0,0)" height="80" atv:dynamic="true" xlink:href="SYSTEM.LIBRARY.ATVISE.OBJECTDISPLAYS.Symbols.atvise_logo" id="id_17"/>
   <rect stroke-width="0" fill="#000000" width="55.2" x="44" atv:refpx="212.5" fill-opacity="0.0001" y="21.794" atv:refpy="75" stroke="none" height="55.2" id="logo_click"/>
   <text fill="$FONTCOLOR$" x="39.5" font-size="22" atv:refpx="75" atv:refpy="160.75" y="96.75" font-family="Verdana, Arial" atv:dynamic="true" id="title">atvise</text>
  </g>
 </g>
    <g id="redu_info" transform="matrix(1,0,0,1,-212.2111,0.673)" atv:refpy="96.087" atv:refpx="939.847" visibility="hidden">
        <g id="id_36" transform="matrix(1,0,0,1,-0.9122,0.5935)" atv:refpy="97.989" atv:refpx="1141.471">
            <text id="id_31" font-size="8" fill="$FONTCOLOR$" atv:refpy="85.735" atv:refpx="1154.387" font-family="Arial" y="89.235" x="1133.387" text-anchor="start">T{STATUS}:</text>
            <text id="redu_status" font-weight="bold" font-size="14" fill="$FONTCOLOR$" atv:refpy="103.001" atv:refpx="938.764" font-family="Arial" y="105.235" x="1133.387" text-anchor="start"/>
  </g>
        <text id="redu_role" font-weight="bold" font-size="30" fill="$FONTCOLOR$" atv:refpy="306.181" atv:refpx="1199.085" font-family="Arial" y="104.828" x="1103.16"/>
        <svg id="id_7" width="80" transform="matrix(0.525,0,0,1.4,0,0)" atv:refpy="30.674" atv:refpx="767.789" height="30" y="53.571" x="2251" xlink:href="SYSTEM.LIBRARY.ATVISE.OBJECTDISPLAYS.Advanced.button_open_display">
            <atv:argument value="SYSTEM.LIBRARY.ATVISE.OBJECTDISPLAYS.Advanced.redundancy.status" name="display"/>
            <atv:argument value="SYSTEM.LIBRARY.ATVISE.OBJECTDISPLAYS.Symbols.20x20.info" name="symbol"/>
            <atv:argument value="SYSTEM.LIBRARY.ATVISE.OBJECTDISPLAYS.Symbols.20x20.info" name="symbolPressed"/>
            <atv:argument value="hidden" name="visibilityLabel"/>
            <atv:argument value="inherit" name="visibilitySymbol"/>
            <atv:argument value="-999999" name="tabIndex"/>
   <atv:overwrite id="button_symbol_pressed" transform="matrix(1.7778,0,0,0.6667,0,0)" y="12.5" x="12.5"/>
            <atv:overwrite id="id_2" width="39.5" transform="matrix(1.7778,0,0,0.6667,0,0)" height="39.5"/>
            <atv:overwrite id="id_0" width="44.5" transform="matrix(1.7778,0,0,0.6667,0,0)" height="44.5"/>
            <atv:overwrite id="id_1" width="42" transform="matrix(1.9048,0,0,0.7143,0,0)" height="42"/>
            <atv:argument value="#ffffff" name="extraBorderColor"/>
            <atv:overwrite id="id_6" width="40" transform="matrix(1.9048,0,0,0.7143,0,0)" height="40"/>
            <atv:overwrite id="button_label" transform="matrix(1.9048,0,0,0.7143,0,0)" x="21" y="25.5"/>
            <atv:overwrite id="button_symbol" transform="matrix(1.9048,0,0,0.7143,0,0)" x="11" y="11"/>
            <atv:overwrite id="button_stroke" width="38" transform="matrix(1.9048,0,0,0.7143,0,0)" height="38"/>
            <atv:overwrite id="button_bg" width="40" transform="matrix(1.9048,0,0,0.7143,0,0)" height="40"/>
            <atv:overwrite id="outer_frame" width="42" transform="matrix(1.9048,0,0,0.7143,0,0)" height="42"/>
  </svg>
 </g>
 <script type="text/ecmascript"><![CDATA[var tabHandler = webMI.callExtension("SYSTEM.LIBRARY.ATVISE.QUICKDYNAMICS.Tab Handler");

webMI.addEvent("atvise_logo", "click", function(e) {
var id = "atvise_logo";
var value = true;
return function(value) {
	var names = tabHandler.getParentIFrameNames();
	for (var i=0;i<names.length;i++){
		var NN;
		webMI.trigger.fire("com.atvise.getDefaultDisplay_"+(NN=names[i]),function(display,url){
			if (url != undefined)
				webMI.display.openUrl(url, webMI.query,NN);
			else if (display != undefined)
				webMI.display.openDisplay(display, webMI.query,NN);
		});
	}
} (value);
});

webMI.addEvent(webMI.data, "clientvariableschange", function(e) {
	webMI.gfx.setText("username_label", (e.username) ? e.username : "");
});

function updateTime() {
	var time = new Date();
	webMI.gfx.setText("date_label", webMI.sprintf("%02d",time.getDate()) + "." + webMI.sprintf("%02d",time.getMonth()+1) + "." + time.getFullYear());
	webMI.gfx.setText("time_label", webMI.sprintf("%02d",time.getHours()) + ":" + webMI.sprintf("%02d",time.getMinutes()));
}

webMI.addOnload(function() {
	updateTime();
	var updateDateTime = setInterval( function() { updateTime(); },60000);
});

var reduinfoInitialized = false;
webMI.addEvent(webMI.data, "serverstatechange", function() {
	if (reduinfoInitialized)
		return;

	reduinfoInitialized = true;
	webMI.callExtension("SYSTEM.LIBRARY.ATVISE.QUICKDYNAMICS.Redundancy PopUp", {"display":"SYSTEM.LIBRARY.ATVISE.OBJECTDISPLAYS.Advanced.redundancy.warning_dialog"});
	webMI.gfx.setVisible("redu_info", null);
	webMI.data.subscribe("AGENT.REDUNDANCY.role", function(e) {
		webMI.gfx.setText("redu_role", e.value.charAt(0));
	});

    webMI.data.subscribe("AGENT.REDUNDANCY.status", function(e) {
		e.value = getStatusTranslation(e.value);
		webMI.gfx.setText("redu_status", e.value);
	});
});

function getStatusTranslation(text) {
    var statustext;
    switch(text) {
        case "Active":
            statustext = "T{Active}";
            break;
        case "Passive":
            statustext = "T{Passive}";
            break;
        case "SOP":
            statustext = "T{SOP}";
            break;
        case "SNOP":
            statustext = "T{SNOP}";
            break;
        default:
            statustext = text;
    }

    return statustext;
}

]]></script>
    <line id="id_21" y1="7" stroke="#D7D7D7" atv:refpy="58" atv:refpx="189.5" y2="115" stroke-width="0.5" x1="191" x2="191"/>
    <line id="id_23" y1="7" stroke="#D7D7D7" atv:refpy="56" atv:refpx="358.5" y2="115" stroke-width="0.5" x1="359" x2="359"/>
</svg>
