<?xml version='1.0' encoding='iso-8859-1'?>
<!-- Generator: Adobe Illustrator 19.1.0, SVG Export Plug-In . SVG Version: 6.00 Build 0)  -->
<svg id="Capa_1" xml:space="preserve" version="1.1" xmlns:atv="http://webmi.atvise.com/2007/svgext" width="16" height="16" x="0px" y="0px" style="enable-background:new 0 0 477.175 477.175" xmlns="http://www.w3.org/2000/svg" xmlns:xlink="http://www.w3.org/1999/xlink">
 <defs/>
 <metadata>
  <atv:gridconfig width="20" enabled="false" height="20" gridstyle="lines"/>
  <atv:snapconfig width="10" enabled="false" height="10"/>
 </metadata>
 <g id="id_1" transform="matrix(0.0225,0,0,0.0178,2.6339,3.7511)" atv:refpy="8.008" atv:refpx="8.006">
  <path id="id_0" d="M360.731,229.075L135.631,3.974C130.33,-1.325 121.831,-1.325 116.531,3.974C111.231,9.274 111.231,17.774 116.531,23.074L332.031,238.575L116.531,454.075C111.231,459.375 111.231,467.875 116.531,473.175C119.131,475.775 122.631,477.175 126.031,477.175C129.431,477.175 132.931,475.875 135.531,473.175L360.631,248.075C365.931,242.875 365.931,234.275 360.731,229.075" fill="#575757" atv:refpy="238.588" atv:refpx="238.587"/>
 </g>
 <g id="id_2" atv:refpy="0" atv:refpx="0"/>
 <g id="id_3" atv:refpy="0" atv:refpx="0"/>
 <g id="id_4" atv:refpy="0" atv:refpx="0"/>
 <g id="id_5" atv:refpy="0" atv:refpx="0"/>
 <g id="id_6" atv:refpy="0" atv:refpx="0"/>
 <g id="id_7" atv:refpy="0" atv:refpx="0"/>
 <g id="id_8" atv:refpy="0" atv:refpx="0"/>
 <g id="id_9" atv:refpy="0" atv:refpx="0"/>
 <g id="id_10" atv:refpy="0" atv:refpx="0"/>
 <g id="id_11" atv:refpy="0" atv:refpx="0"/>
 <g id="id_12" atv:refpy="0" atv:refpx="0"/>
 <g id="id_13" atv:refpy="0" atv:refpx="0"/>
 <g id="id_14" atv:refpy="0" atv:refpx="0"/>
 <g id="id_15" atv:refpy="0" atv:refpx="0"/>
 <g id="id_16" atv:refpy="0" atv:refpx="0"/>
</svg>
