<?xml version='1.0' encoding='UTF-8' standalone='no'?>
<svg width="60" x="0px" version="1.1" y="0px" xmlns="http://www.w3.org/2000/svg" height="60" xmlns:xlink="http://www.w3.org/1999/xlink" id="Ebene_1" enable-background="new 0 0 50 50" xml:space="preserve" xmlns:atv="http://webmi.atvise.com/2007/svgext">
 <defs/>
 <metadata>
  <atv:parameter desc="symbol color" valuetype="color" substitute="$SYMBOLCOLOR$" behavior="optional" name="symbolColor" defaultvalue="#000000"/>
 </metadata>
 <path fill="$SYMBOLCOLOR$" stroke="none" id="id_0" atv:refpx="30.013" stroke-width="0.346" atv:refpy="30.01" d="M23.188,47.315L16.116,42.378C16.116,42.378 19.878,39.352 27.584,28.313C35.292,17.274 36.835,12.701 36.835,12.701L43.907,17.638C43.907,17.638 40.145,20.663 32.438,31.702C24.732,42.74 23.188,47.315 23.188,47.315" stroke-miterlimit="10"/>
 <path fill="$SYMBOLCOLOR$" stroke="none" id="id_1" atv:refpx="78.105" stroke-width="0.346" atv:refpy="11.08" d="M53.41,10.696L48.685,14.688C48.685,14.688 44.992,15.134 42.837,12.582C40.498,9.812 41.736,6.464 41.736,6.464L46.462,2.472C46.462,2.472 46.347,2.29 46.286,2.262C44.635,1.526 40.341,2.756 38.852,4.013C33.155,8.828 36.517,14.091 38.405,16.325C40.058,18.284 44.921,22.754 50.616,17.939C52.106,16.684 54.036,12.656 53.585,10.905C53.569,10.837 53.41,10.696 53.41,10.696" stroke-miterlimit="10"/>
 <path fill="$SYMBOLCOLOR$" stroke="none" id="id_2" atv:refpx="15.472" stroke-width="0.346" atv:refpy="88.212" d="M6.589,49.3L11.313,45.309C11.313,45.309 15.006,44.863 17.161,47.414C19.501,50.183 18.261,53.532 18.261,53.532L13.537,57.525C13.537,57.525 13.651,57.705 13.712,57.735C15.363,58.471 19.658,57.241 21.146,55.985C26.845,51.168 23.481,45.906 21.592,43.672C19.94,41.712 15.076,37.244 9.38,42.057C7.891,43.314 5.961,47.343 6.412,49.094C6.428,49.16 6.589,49.3 6.589,49.3" stroke-miterlimit="10"/>
</svg>
