<?xml version="1.0" encoding="utf-8"?>
<!-- Generator: Adobe Illustrator 22.1.0, SVG Export Plug-In . SVG Version: 6.00 Build 0)  -->
<svg xmlns="http://www.w3.org/2000/svg" xmlns:xlink="http://www.w3.org/1999/xlink" version="1.1" id="Layer_1" x="0px" y="0px" viewBox="0 0 512 512" style="enable-background:new 0 0 512 512;" xml:space="preserve" width="512" height="512">
<style type="text/css">
	.st0{fill:#333;}
	.st1{fill:#444;}
	.st2{fill:#333;}
	.st3{fill:#222;}
	.st4{fill:#222;}
	.st5{fill:#111;}
	.st6{fill:#222;}
	.st7{fill:#FFEA63;}
	.st8{fill:#000;}
	.st9{fill:#FFB74B;}
	.st10{fill:#222;}
	.st11{fill:#333;}
	.st12{fill:#222;}
	.st23{fill:#222;}
</style>
<g>
	<g>
		<g>
			<rect x="242.333" y="59.633" class="st8" width="27.333" height="399.627"/>
		</g>
	</g>
	<g>
		<g>
			<g>
				<path class="st6" d="M371.424,445.036H137.361c-2.279,0-4.271-1.542-4.841-3.749c-0.57-2.207,0.425-4.521,2.419-5.625      l110.956-61.437l-75.464-43.024c-1.971-1.123-2.938-3.432-2.356-5.625s2.564-3.719,4.833-3.719h168.855      c2.279,0,4.271,1.542,4.841,3.749c0.57,2.207-0.425,4.521-2.419,5.625l-77.876,43.121l107.591,61.34      c1.971,1.123,2.938,3.432,2.356,5.625S373.692,445.036,371.424,445.036z M156.713,435.036h195.846l-96.492-55.013      L156.713,435.036z M191.773,331.857l64.365,36.696l66.273-36.696H191.773z"/>
			</g>
		</g>
		<g>
			<g>
				<path class="st6" d="M172.907,331.857c-0.937,0-1.876-0.263-2.702-0.793c-1.799-1.156-2.664-3.329-2.151-5.406l26.522-107.36      c0.027-0.111,0.058-0.221,0.092-0.331c0.001-0.001,0.001-0.003,0.002-0.004c0-0.002,0.001-0.003,0.001-0.005      c0.001-0.003,0.002-0.005,0.003-0.008c0-0.001,0-0.001,0.001-0.002c0.017-0.055,0.035-0.109,0.055-0.164      c0-0.001,0.001-0.001,0.001-0.002c0-0.002,0.001-0.003,0.002-0.005c0.299-0.834,0.805-1.552,1.447-2.104l50.683-43.901      l-28.598-25.328c-1.555-1.378-2.097-3.573-1.359-5.516c0.736-1.943,2.598-3.227,4.675-3.227h66.48      c2.088,0,3.955,1.297,4.685,3.253s0.167,4.159-1.411,5.526l-29.295,25.375l49.514,43.854c0.626,0.55,1.118,1.259,1.41,2.08      c0.001,0.002,0.001,0.003,0.002,0.005c0,0.002,0.001,0.004,0.002,0.005c0,0.002,0.001,0.004,0.002,0.006      c0,0.002,0.001,0.003,0.002,0.005c0,0.002,0.001,0.004,0.002,0.006c0,0.001,0,0.003,0.002,0.005      c0,0.002,0.001,0.004,0.002,0.006c0,0.002,0.001,0.003,0.001,0.005c0.001,0.002,0.002,0.004,0.003,0.007      c0,0.001,0.001,0.003,0.001,0.005c0.002,0.003,0.003,0.007,0.004,0.01c0.001,0.003,0.002,0.005,0.003,0.008      c0,0.001,0,0.002,0.001,0.003c0.001,0.003,0.001,0.005,0.002,0.008c0.001,0.001,0.001,0.001,0.001,0.002      c0.001,0.003,0.002,0.006,0.003,0.009c0,0,0,0,0,0c0.012,0.035,0.023,0.069,0.034,0.104l33.508,107.379      c0.646,2.073-0.119,4.327-1.896,5.578c-1.775,1.25-4.154,1.212-5.89-0.097l-83.462-62.976l-79.274,62.902      C175.11,331.493,174.011,331.857,172.907,331.857z M202.476,228.021l-21.2,85.815l65.769-52.185L202.476,228.021z       M263.383,261.451l68.974,52.044l-26.706-85.583L263.383,261.451z M214.366,224.465l40.77,30.763l38.771-30.763H214.366z       M212.848,214.465h82.218l-40.651-36.005L212.848,214.465z M234.767,147.701l19.721,17.466l20.164-17.466H234.767z"/>
			</g>
		</g>
	</g>
	<g>
		<g>
			<polygon class="st2" points="361.29,459.26 387.847,451.696 289.311,79.823 262.754,87.386    "/>
		</g>
	</g>
	<g>
		<g>
			<polygon class="st2" points="150.71,459.26 124.153,451.696 222.689,79.823 249.246,87.386    "/>
		</g>
	</g>
	<g>
		<g>
			<rect x="201.197" y="206.623" class="st2" width="107.58" height="18.868"/>
		</g>
	</g>
	<g>
		<g>
			<rect x="174.686" y="312.777" class="st2" width="160.602" height="18.868"/>
		</g>
	</g>
	<g>
		<g>
			<rect x="213.667" y="128.623" class="st2" width="82.667" height="18.868"/>
		</g>
	</g>
	<g>
		<g>
			<polygon class="st3" points="141.515,451.696 238.833,84.421 222.689,79.823 124.153,451.696 150.71,459.26 151.928,454.662         "/>
		</g>
	</g>
	<g>
		<g>
			<path class="st0" d="M304.847,110.375h-97.694V49.299c0-5.523,4.477-10,10-10h77.694c5.523,0,10,4.477,10,10V110.375z"/>
		</g>
	</g>
	<g>
		<g>
			<path class="st1" d="M257.153,39.299h-40c-5.523,0-10,4.477-10,10v61.076h40V49.299C247.153,43.776,251.63,39.299,257.153,39.299     z"/>
		</g>
	</g>
	<g>
		<g>
			<path class="st4" d="M326.075,128.623H185.925c-4.418,0-8-3.582-8-8V93.116c0-4.418,3.582-8,8-8h140.151c4.418,0,8,3.582,8,8     v27.507C334.075,125.041,330.494,128.623,326.075,128.623z"/>
		</g>
	</g>
	<g>
		<g>
			<path class="st6" d="M217.925,120.623V93.116c0-4.418,3.582-8,8-8h-40c-4.418,0-8,3.582-8,8v27.507c0,4.418,3.582,8,8,8h40     C221.506,128.623,217.925,125.041,217.925,120.623z"/>
		</g>
	</g>
	<g>
		<g>
			<path class="st11" d="M412.895,472.701H99.105c-5.523,0-10-4.477-10-10v-29.372c0-5.523,4.477-10,10-10h313.789     c5.523,0,10,4.477,10,10v29.372C422.895,468.224,418.417,472.701,412.895,472.701z"/>
		</g>
	</g>
	<g>
		<g>
			<path class="st23" d="M129.105,446.329c0-5.523,4.477-10,10-10h283.789v-3c0-5.523-4.477-10-10-10H99.105     c-5.523,0-10,4.477-10,10v29.373c0,5.523,4.477,10,10,10h30V446.329z"/>
		</g>
	</g>
	<g>
		<g>
			<path class="st1" d="M366.329,417.369c-2.637,0-5.054-1.752-5.783-4.418l-19.333-70.667c-0.875-3.196,1.008-6.496,4.204-7.371     c3.191-0.874,6.495,1.007,7.37,4.204l19.333,70.667c0.875,3.196-1.008,6.496-4.204,7.371     C367.387,417.3,366.854,417.369,366.329,417.369z"/>
		</g>
	</g>

</g>
</svg>
