<?xml version='1.0' encoding='UTF-8' standalone='no'?>
<svg xmlns:atv="http://webmi.atvise.com/2007/svgext" xmlns="http://www.w3.org/2000/svg" xmlns:xlink="http://www.w3.org/1999/xlink" width="300" version="1.2" height="200">
 <defs/>
 <desc>Small display variant</desc>
 <title>Configuration - Line/Area</title>
 <metadata>
  <atv:parameter name="fontColor" valuetype="global" desc="font color" defaultvalue="SYSTEM.GLOBALS.atvFontColor" substitute="$FONTCOLOR$" behavior="optional"/>
  <atv:gridconfig width="20" enabled="true" height="20" gridstyle="lines"/>
  <atv:snapconfig width="5" enabled="true" height="5"/>
 </metadata>
 <text x="115.5" text-anchor="end" fill="$FONTCOLOR$" font-family="Arial" y="29" atv:refpy="24.5" atv:refpx="68.5" id="id_39" font-size="12">T{Related y-axis}:</text>
 <text x="115.5" text-anchor="end" fill="$FONTCOLOR$" font-family="Arial" y="65" atv:refpy="60.5" atv:refpx="80" id="id_40" font-size="12">T{Line color}:</text>
 <text x="113.5" text-anchor="end" fill="$FONTCOLOR$" font-family="Arial" y="136" atv:refpy="131.5" atv:refpx="66.5" id="id_41" font-size="12">T{Line width} [px]:</text>
 <svg xlink:href="SYSTEM.LIBRARY.ATVISE.OBJECTDISPLAYS.Advanced.picker_color" x="144" y="45" atv:refpy="57" width="160" transform="matrix(0.9375,0,0,1,0,0)" atv:refpx="210.003" id="series_color" height="30">
  <atv:argument value="series_color" name="name"/>
  <atv:argument value="30" name="tabIndex"/>
  <atv:overwrite x="125.5" transform="matrix(1.0667,0,0,1,0,0)" id="button_stroke"/>
  <atv:overwrite x="125.75" transform="matrix(1.0667,0,0,1,0,0)" id="id_1"/>
  <atv:overwrite x="125.5" transform="matrix(1.0667,0,0,1,0,0)" id="button_bg"/>
  <atv:overwrite x="113.5" transform="matrix(1.0667,0,0,1,0,0)" id="input_label"/>
  <atv:overwrite transform="matrix(1.0667,0,0,1,0,0)" width="118" id="blinking_frame"/>
  <atv:overwrite transform="matrix(1.0667,0,0,1,0,0)" width="146" id="focus_frame"/>
  <atv:overwrite transform="matrix(1.0667,0,0,1,0,0)" width="118" id="input_bg"/>
  <atv:overwrite transform="matrix(1.0667,0,0,1,0,0)" width="148" id="id_0"/>
  <atv:overwrite transform="matrix(1.0667,0,0,1,0,0)" width="150" id="id_2"/>
 </svg>
 <svg xlink:href="SYSTEM.LIBRARY.ATVISE.OBJECTDISPLAYS.Advanced.rocker_switch_horizontal" x="144.008" y="115" atv:refpy="164" width="160" transform="matrix(0.9375,0,0,1,0,0)" atv:refpx="209.996" id="series_lineWidth" height="30">
  <atv:argument value="32" name="tabIndex"/>
  <atv:argument value="0" name="min"/>
  <atv:argument value="No" name="statusEnabled"/>
  <atv:overwrite transform="matrix(1.0667,0,0,1,-10.6667,0)" id="icon_plus"/>
  <atv:overwrite x="111" transform="matrix(1.0667,0,0,1,0,0)" id="inc_stroke"/>
  <atv:overwrite x="111" transform="matrix(1.0667,0,0,1,0,0)" id="inc_bg"/>
  <atv:overwrite x="110" transform="matrix(1.0667,0,0,1,0,0)" id="id_5"/>
  <atv:overwrite transform="matrix(1.0667,0,0,1,0,0)" id="icon_minus"/>
  <atv:overwrite transform="matrix(1.0667,0,0,1,0,0)" id="dec_stroke"/>
  <atv:overwrite transform="matrix(1.0667,0,0,1,0,0)" id="dec_bg"/>
  <atv:overwrite transform="matrix(1.0667,0,0,1,0,0)" id="id_20"/>
  <atv:overwrite x="75" transform="matrix(1.0667,0,0,1,0,0)" id="input_label"/>
  <atv:overwrite x="34" transform="matrix(1.0667,0,0,1,0,0)" id="blinking_frame"/>
  <atv:overwrite transform="matrix(1.0667,0,0,1,0,0)" width="62" id="input_field_widget"/>
  <atv:overwrite transform="matrix(1.0667,0,0,1,0,0)" width="67" id="focus_frame"/>
  <atv:overwrite transform="matrix(1.0667,0,0,1,0,0)" width="68" id="input_bg"/>
  <atv:overwrite transform="matrix(1.0667,0,0,1,0,0)" width="70" id="id_19"/>
 </svg>
 <svg xlink:href="SYSTEM.LIBRARY.ATVISE.OBJECTDISPLAYS.Advanced.radiobutton" x="12" y="155" atv:refpy="204" width="160" atv:refpx="86" id="series_dashStyle-Solid" height="30">
  <atv:argument value="series_dashStyle" name="radiogroupId"/>
  <atv:argument value="T{solid}" name="label"/>
  <atv:argument value="solid" name="value"/>
  <atv:argument value="33" name="tabIndex"/>
  <atv:overwrite transform="matrix(1.6,0,0,1,0,0)" id="radiobutton_bg2"/>
  <atv:overwrite width="68" transform="matrix(1.6,0,0,1,0,0)" id="id_2"/>
  <atv:overwrite width="99.5" transform="matrix(1.6,0,0,1,0,0)" id="id_0"/>
  <atv:overwrite width="66" id="radiobutton_bg"/>
 </svg>
 <svg xlink:href="SYSTEM.LIBRARY.ATVISE.OBJECTDISPLAYS.Advanced.radiobutton" x="100" y="155" atv:refpy="207" width="160" atv:refpx="191" id="series_dashStyle-Dot" height="30">
  <atv:argument value="series_dashStyle" name="radiogroupId"/>
  <atv:argument value="T{dotted}" name="label"/>
  <atv:argument value="dotted" name="value"/>
  <atv:argument value="34" name="tabIndex"/>
  <atv:overwrite transform="matrix(1.6,0,0,1,0,0)" id="radiobutton_bg2"/>
  <atv:overwrite width="68" transform="matrix(1.6,0,0,1,0,0)" id="id_2"/>
  <atv:overwrite width="99.5" transform="matrix(1.6,0,0,1,0,0)" id="id_0"/>
  <atv:overwrite width="66" id="radiobutton_bg"/>
 </svg>
 <svg xlink:href="SYSTEM.LIBRARY.ATVISE.OBJECTDISPLAYS.Advanced.radiobutton" x="197" y="155" atv:refpy="204" width="160" atv:refpx="290" id="series_dashStyle-Dash" height="30">
  <atv:argument value="series_dashStyle" name="radiogroupId"/>
  <atv:argument value="T{dashed}" name="label"/>
  <atv:argument value="dashed" name="value"/>
  <atv:argument value="35" name="tabIndex"/>
  <atv:overwrite transform="matrix(1.6,0,0,1,0,0)" id="radiobutton_bg2"/>
  <atv:overwrite width="68" transform="matrix(1.6,0,0,1,0,0)" id="id_2"/>
  <atv:overwrite width="99.5" transform="matrix(1.6,0,0,1,0,0)" id="id_0"/>
  <atv:overwrite width="66" id="radiobutton_bg"/>
 </svg>
 <text x="115.5" text-anchor="end" visibility="hidden" fill="$FONTCOLOR$" font-family="Arial" y="101" atv:refpy="96.5" atv:refpx="84" id="series_fillColor_label" font-size="12">T{Fill color}:</text>
 <svg xlink:href="SYSTEM.LIBRARY.ATVISE.OBJECTDISPLAYS.Advanced.picker_color" x="144" visibility="hidden" y="80" atv:refpy="92" width="160" transform="matrix(0.9375,0,0,1,0,0)" atv:refpx="210.003" id="series_fillColor" height="30">
  <atv:argument value="series_fillColor" name="name"/>
  <atv:argument value="31" name="tabIndex"/>
  <atv:overwrite x="125.5" transform="matrix(1.0667,0,0,1,0,0)" id="button_stroke"/>
  <atv:overwrite x="125.75" transform="matrix(1.0667,0,0,1,0,0)" id="id_1"/>
  <atv:overwrite x="125.5" transform="matrix(1.0667,0,0,1,0,0)" id="button_bg"/>
  <atv:overwrite x="113.5" transform="matrix(1.0667,0,0,1,0,0)" id="input_label"/>
  <atv:overwrite transform="matrix(1.0667,0,0,1,0,0)" width="118" id="blinking_frame"/>
  <atv:overwrite transform="matrix(1.0667,0,0,1,0,0)" width="146" id="focus_frame"/>
  <atv:overwrite transform="matrix(1.0667,0,0,1,0,0)" width="118" id="input_bg"/>
  <atv:overwrite transform="matrix(1.0667,0,0,1,0,0)" width="148" id="id_0"/>
  <atv:overwrite transform="matrix(1.0667,0,0,1,0,0)" width="150" id="id_2"/>
 </svg>
 <svg xlink:href="SYSTEM.LIBRARY.ATVISE.OBJECTDISPLAYS.Advanced.combobox" x="144" y="10" atv:refpy="25" width="160" transform="matrix(0.9375,0,0,1,0,0)" atv:refpx="208.026" id="series_yAxis" height="30">
  <atv:overwrite x="126.75" transform="matrix(1.0526,0,0,1,0,0)" id="id_3"/>
  <atv:overwrite x="124.5" transform="matrix(1.0526,0,0,1,0,0)" id="id_5"/>
  <atv:overwrite width="120" transform="matrix(1.0526,0,0,1,0,0)" id="id_2"/>
  <atv:overwrite width="151.5" transform="matrix(1.0526,0,0,1,0,0)" id="combobox_stroke"/>
  <atv:overwrite transform="matrix(1.0667,0,0,1,0,0)" width="146" id="focus_frame"/>
  <atv:overwrite x="125" transform="matrix(1.0667,0,0,1,0,0)" id="button_stroke"/>
  <atv:overwrite x="125" transform="matrix(1.0667,0,0,1,0,0)" id="id_7"/>
  <atv:overwrite x="125" transform="matrix(1.0667,0,0,1,0,0)" id="button_bg"/>
  <atv:overwrite x="115.5" transform="matrix(1.0667,0,0,1,0,0)" id="combobox_label"/>
  <atv:overwrite transform="matrix(1.0667,0,0,1,0,0)" width="118" id="blinking_frame"/>
  <atv:overwrite transform="matrix(1.0667,0,0,1,0,0)" width="118" id="combobox_bg"/>
  <atv:overwrite transform="matrix(1.0667,0,0,1,0,0)" width="148" id="id_1"/>
  <atv:overwrite transform="matrix(1.0667,0,0,1,0,0)" width="150" id="id_0"/>
 </svg>
 <script type="text/ecmascript"><![CDATA[var inputDefaults = {
	"series_xAxis": 0,
	"series_yAxis": 0,
	"series_nonStop": false,
	"series_connectNulls": true,
	"series_marker_enabled": true,
	"series_color": "#000000",
	"series_fillColor": "#DDDDDD",
	"series_lineWidth": 1,
	"series_dashStyle-Solid": "T{solid}",
	"series_dashStyle-Dash": "T{dashed}",
	"series_dashStyle-Dot": "T{dotted}"
};

var activeSeries = webMI.query.activeSeries;
var triggerEnabled = true;

var chartname = webMI.query.chartname;
var chart = webMI.trendFactory.getTrendByName(chartname);
var options = chart.chart.options;
var configHandler = new webMI.rootWindow.ConfigHandler;

var xAxes = [];
var yAxes = [];

//Read options
function readOptions() {
	triggerEnabled = false;

	//Search configured axis
	xAxes = [];
	yAxes = [];

	var i = 0;
	while (typeof chart.chart.xAxis[i] != "undefined") {
		var name = chart.chart.xAxis[i].options.title.text;
		if (name == "")
			name = "T{X-Axis} " + i;
		xAxes.push(name);
		webMI.trigger.fire("addItem", {text: name, value: i}, "series_xAxis");
		i++;
	}

	var i = 0;
	while (typeof chart.chart.yAxis[i] != "undefined") {
		var name = chart.chart.yAxis[i].options.title.text;
		if (name == "")
			name = "T{Y-Axis} " + i;
		yAxes.push(name);
		webMI.trigger.fire("addItem", {text: name, value: i}, "series_yAxis");
		i++;
	}

	//Set values for current series
	var curSeries = chart.chart.series[activeSeries];

	if (typeof curSeries == "undefined")
		return;

	if (curSeries.type == "line" || curSeries.type == "spline") {
		webMI.gfx.setVisible("series_fillColor", false);
		webMI.gfx.setVisible("series_fillColor_label", false);
	} else {
		webMI.gfx.setVisible("series_fillColor", true);
		webMI.gfx.setVisible("series_fillColor_label", true);
	}

	webMI.trigger.fire("setSelectedItem", curSeries.options.xAxis ? xAxes[curSeries.options.xAxis] : xAxes[0], "series_xAxis");
	webMI.trigger.fire("setSelectedItem", curSeries.options.yAxis ? yAxes[curSeries.options.yAxis] : yAxes[0], "series_yAxis");

	if ((curSeries.type == "line" || curSeries.type == "area" || curSeries.type == "arearange") && (typeof curSeries.options.step == "undefined" || curSeries.options.step == false))
		webMI.trigger.fire("radioClicked_series_interpolation", {name: "T{linear}"});
	else if (curSeries.type == "line" || curSeries.type == "area" || curSeries.type == "arearange")
		webMI.trigger.fire("radioClicked_series_interpolation", {name: "T{step}"});
	else if (curSeries.type == "spline" || curSeries.type == "areaspline" || curSeries.type == "areasplinerange")
		webMI.trigger.fire("radioClicked_series_interpolation", {name: "T{spline}"});

	webMI.trigger.fire("setChecked", curSeries.options.connectNulls, "series_connectNulls");
	webMI.trigger.fire("setChecked", curSeries.options.nonStop, "series_nonStop");
	webMI.trigger.fire("setChecked", curSeries.options.marker.enabled, "series_marker_enabled");
	webMI.trigger.fire("valuechanged_series_color", {hex: curSeries.color});
	webMI.trigger.fire("valuechanged_series_fillColor", {hex: curSeries.options.fillColor ? curSeries.options.fillColor : curSeries.color});
	webMI.trigger.fire("setValue", curSeries.options.lineWidth, "series_lineWidth");

	var dashStyle = inputDefaults["series_dashStyle-" + (curSeries.options.dashStyle ? curSeries.options.dashStyle : "Solid")];
	webMI.trigger.fire("radioClicked_series_dashStyle", {name: dashStyle});

	triggerEnabled = true;
}

//Write options
function setOptions(key, value, identifier) {
	if(value === "true" || value === true)
		value = true;
	if(value === "false" || value === false)
		value = false

	if (chart.chart.series[identifier]) {
		var optionsObj = configHandler.createConfigObject(key.slice(7, key.length), value);
		if(chart.control.isLiveModeRunning()){
			chart.control.stopLiveMode(function() {
				chart.chart.series[identifier].update(optionsObj, false, chart.control.startLiveMode);
			});
		} else {
			chart.chart.series[identifier].update(optionsObj);
		}
		chart.control.updated();
	}
}

//Triggers for every input element
webMI.addOnload(function() {
	for (var key in inputDefaults)
		webMI.trigger.connect("valuechanged", function(e){ processInput(e.context, e.value, activeSeries) }, key);

	//Triggers for interpolation radio buttons
	webMI.trigger.connect("valuechanged", function(e){
		var type = chart.chart.series[activeSeries].type;
		if (type == "line" || type == "spline") {
			processInput("series_type", "line", activeSeries);
		} else if (type == "area" || type == "areaspline") {
			processInput("series_type", "area", activeSeries);
		} else if (type == "arearange" || type == "areasplinerange") {
			processInput("series_type", "arearange", activeSeries);
		}
		processInput("series_step", false, activeSeries);
	}, "series_interpolation-linear");

	webMI.trigger.connect("valuechanged", function(e){
		var type = chart.chart.series[activeSeries].type;
		if (type == "line" || type == "spline") {
			processInput("series_type", "spline", activeSeries);
		} else if (type == "area" || type == "areaspline") {
			processInput("series_type", "areaspline", activeSeries);
		} else if (type == "arearange" || type == "areasplinerange") {
			processInput("series_type", "areasplinerange", activeSeries);
		}
	}, "series_interpolation-spline");

	webMI.trigger.connect("valuechanged", function(e){
		var type = chart.chart.series[activeSeries].type;
		if (type == "line" || type == "spline") {
			processInput("series_type", "line", activeSeries);
		} else if (type == "area" || type == "areaspline") {
			processInput("series_type", "area", activeSeries);
		} else if (type == "arearange" || type == "areasplinerange") {
			processInput("series_type", "arearange", activeSeries);
		}
		processInput("series_step", true, activeSeries);
	}, "series_interpolation-step");

	readOptions();
});

function processInput(key, value, identifier) {
	if (typeof key == "undefined" || typeof value == "undefined")
		return;

	if (!triggerEnabled)
		return;

	setOptions(key, value, identifier);
}
]]></script>
</svg>
