<svg width="39" height="38" viewBox="0 0 39 38" fill="none" xmlns="http://www.w3.org/2000/svg">
<g clip-path="url(#clip0)">
<path fill-rule="evenodd" clip-rule="evenodd" d="M14.4861 4.75C14.2222 4.75 13.9583 5.01389 13.6944 5.01389C13.1667 5.27778 12.9028 5.27778 12.6389 5.27778C12.1111 5.80556 11.5833 6.06944 11.0556 6.33333C10.5278 6.06944 8.94445 5.01389 8.41667 4.75C8.15278 4.22222 7.88889 4.22222 7.36111 4.22222C7.09723 4.22222 6.83334 4.22222 6.56945 4.48611C6.30556 4.48611 4.98611 6.06944 4.72223 6.33333C4.19445 6.86111 3.40278 7.65278 3.93056 8.70833C3.93056 8.97222 4.45834 9.5 4.72223 9.76389L5.77778 11.3472C6.04167 11.6111 5.77778 11.875 5.77778 12.1389L5.51389 12.9306C4.98611 13.7222 4.72223 14.5139 4.72223 15.3056C4.19445 15.3056 2.08334 15.8333 1.55556 15.8333C1.29167 16.0972 1.02778 16.0972 0.763892 16.0972C0.500003 16.3611 0.236115 16.8889 0.236115 17.1528C0.236115 18.2083 0.236115 18.7361 0.236115 19.7917C0.236115 19.7917 0.236115 20.0556 0.236115 20.3194C0.500003 20.8472 0.236115 21.9028 1.55556 22.1667C2.08334 22.1667 4.72223 22.4306 4.98611 22.4306C5.25 23.4861 5.77778 24.8056 6.30556 25.5972C6.56945 26.125 6.56945 26.125 6.30556 26.6528C6.04167 26.6528 6.04167 26.9167 6.04167 26.9167L5.51389 27.9722C5.25 27.9722 5.25 28.2361 5.25 28.2361C4.72223 29.0278 4.19445 29.5556 4.72223 30.3472C4.72223 30.6111 4.98611 30.875 5.25 31.1389C5.25 31.1389 5.25 31.1389 5.51389 31.1389C5.51389 31.4028 5.51389 31.4028 5.51389 31.4028C5.77778 31.4028 5.77778 31.6667 6.04167 31.9306C6.04167 31.9306 6.04167 31.9306 6.30556 31.9306C6.30556 32.1944 6.30556 32.1944 6.56945 32.1944L7.36111 33.25C7.625 33.25 8.15278 33.5139 8.41667 33.5139C8.68056 33.5139 9.20834 32.9861 9.20834 32.9861C10 32.1944 11.0556 31.6667 11.8472 31.1389L12.375 31.4028C13.1667 31.6667 14.2222 32.1944 15.2778 32.4583C15.5417 32.4583 15.5417 32.4583 15.5417 32.7222C15.5417 32.9861 15.5417 33.5139 15.8056 33.7778C15.8056 34.3056 15.8056 34.5694 16.0694 34.8333C16.0694 36.1528 16.3333 36.6806 17.3889 36.9444C17.6528 36.9444 17.6528 36.9444 17.9167 36.9444C18.4444 36.9444 18.9722 36.9444 19.2361 36.6806C20.5556 36.6806 21.875 37.2083 22.1389 35.625C22.4028 34.8333 22.6667 32.9861 22.6667 32.1944C23.1944 31.9306 23.9861 31.6667 24.5139 31.4028C25.0417 31.4028 25.5694 31.1389 26.0972 30.6111L22.4028 27.1806L21.6111 27.4444C20.2917 27.7083 19.5 27.9722 17.9167 27.9722C16.3333 27.9722 14.4861 27.1806 13.1667 26.125C12.9028 25.8611 12.6389 25.8611 12.375 25.5972C11.8472 25.0694 11.3194 24.5417 10.7917 23.75L10.2639 22.6944C10.2639 22.6944 10.2639 22.6944 10 22.4306L9.73612 21.375C9.47223 21.1111 9.47223 20.8472 9.47223 20.8472C9.20834 19.2639 9.20834 17.4167 9.47223 16.0972C9.73611 15.3056 10 14.7778 10 14.25C10.7917 13.1944 11.3194 12.4028 12.375 11.3472C13.1667 10.5556 14.2222 10.0278 15.5417 9.5L16.3333 9.23611C18.4444 8.70833 20.2917 8.97222 22.4028 9.76389C22.9306 10.0278 23.7222 10.5556 24.5139 10.8194C25.0417 11.3472 25.5694 12.1389 26.0972 12.6667C26.3611 12.6667 26.3611 12.9306 26.3611 12.9306L27.1528 14.25C27.9444 16.0972 28.2083 18.2083 27.9444 20.0556C27.9444 20.3194 27.6806 20.8472 27.6806 21.1111C28.2083 21.6389 31.1111 24.8056 31.375 24.8056C31.6389 24.5417 31.9028 24.0139 31.9028 23.75C31.9028 23.4861 32.1667 23.4861 32.1667 23.2222C32.1667 22.9583 32.6944 22.1667 32.6944 21.6389C32.9583 21.6389 34.2778 21.375 34.8056 21.1111C35.5972 20.8472 36.3889 21.1111 36.9167 20.3194C36.9167 20.0556 37.1806 19.7917 37.1806 19.2639C36.9167 19 37.1806 18.4722 37.1806 17.9444C37.1806 17.6806 36.9167 17.6806 36.9167 17.4167C36.9167 16.3611 37.1806 15.3056 36.125 15.0417C35.8611 14.7778 35.5972 14.7778 35.5972 14.7778L33.75 14.5139C33.4861 14.5139 33.4861 14.5139 33.2222 14.5139C32.9583 14.5139 32.6944 14.5139 32.6944 14.5139C32.4306 14.5139 32.4306 14.25 32.1667 13.9861L31.9028 13.1944C31.6389 12.4028 31.375 11.875 31.1111 11.3472C30.8472 10.5556 30.8472 10.8194 31.1111 10.2917L32.1667 8.44444C32.4306 8.44444 32.4306 8.44444 32.4306 8.44444C32.4306 8.18056 32.6944 7.91667 32.6944 7.91667C32.9583 7.125 32.9583 6.59722 32.4306 6.06944L30.8472 4.48611C30.8472 4.48611 30.8472 4.48611 30.5833 4.48611L30.3194 4.22222C29.7917 3.69444 29.2639 2.90278 27.9444 3.95833L25.5694 5.80556C25.0417 5.54167 24.5139 5.27778 23.7222 5.01389C23.1944 4.75 22.4028 4.48611 21.875 4.48611C21.6111 3.95833 21.6111 3.69444 21.6111 3.16667C21.6111 2.63889 21.0833 1.05556 21.0833 0.527778C20.8194 0.263889 20.2917 0 19.7639 0C18.9722 0 18.1806 0 17.3889 0H16.3333C15.8056 0.263889 15.2778 0.527778 15.0139 0.791667C15.0139 1.05556 15.0139 1.05556 15.0139 1.31944C14.75 2.11111 14.75 3.95833 14.4861 4.75V4.75ZM16.8611 13.9861L17.6528 14.5139C18.1806 14.7778 18.7083 15.3056 19.2361 15.5694C20.2917 16.3611 20.0278 17.6806 19.5 18.7361C18.7083 19.5278 17.6528 20.0556 16.5972 19.5278L15.0139 18.4722C14.75 18.2083 14.4861 17.9444 14.2222 17.9444C13.9583 17.9444 13.9583 18.2083 13.9583 18.2083C13.9583 19.7917 14.4861 21.1111 15.2778 21.9028C15.5417 22.4306 16.0694 22.6944 16.5972 22.9583C17.3889 23.4861 18.4444 23.75 19.2361 23.4861C19.5 23.2222 19.7639 23.2222 20.2917 23.2222C21.0833 23.2222 21.875 24.2778 22.4028 24.8056L35.0694 37.4722C35.8611 38.2639 37.4444 38.2639 38.2361 37.4722C39.0278 36.4167 39.0278 35.0972 38.2361 34.3056C36.9167 32.9861 24.7778 21.1111 24.25 20.0556C23.9861 19.2639 24.25 18.7361 24.25 17.6806C24.25 16.8889 24.25 16.3611 23.7222 15.5694C23.4583 14.7778 22.9306 14.5139 22.4028 13.9861C22.1389 13.7222 21.875 13.7222 21.3472 13.4583C20.8194 13.1944 20.0278 13.1944 19.2361 13.1944C18.7083 13.1944 16.8611 13.4583 16.8611 13.9861V13.9861Z" fill="#4D6578"/>
</g>
<defs>
<clipPath id="clip0">
<rect width="39" height="38" fill="white"/>
</clipPath>
</defs>
</svg>
