<?xml version='1.0' encoding='UTF-8' standalone='no'?>
<svg version="1.2" height="330" xmlns:xlink="http://www.w3.org/1999/xlink" xmlns:atv="http://webmi.atvise.com/2007/svgext" width="560" xmlns="http://www.w3.org/2000/svg">
 <title>Configuration - Line/Area</title>
 <defs/>
 <metadata>
  <atv:gridconfig gridstyle="lines" height="20" enabled="true" width="20"/>
  <atv:snapconfig height="5" enabled="true" width="5"/>
 </metadata>
 <text atv:refpy="73.5" font-family="Arial" id="id_17" y="78" font-size="12" atv:refpx="112" text-anchor="end" fill="#000000" x="154.5">T{Interpolation}:</text>
 <text atv:refpy="293.5" font-family="Arial" id="id_18" y="298" font-size="12" atv:refpx="123.5" text-anchor="end" fill="#000000" x="156.5">T{Line type}:</text>
 <text atv:refpy="36.5" font-family="Arial" id="id_39" y="41" font-size="12" atv:refpx="102.5" text-anchor="end" fill="#000000" x="153.5">T{Related x/y-axis}:</text>
 <text atv:refpy="223.5" font-family="Arial" id="id_40" y="228" font-size="12" atv:refpx="120" text-anchor="end" fill="#000000" x="155.5">T{Line color}:</text>
 <text atv:refpy="258.5" font-family="Arial" id="id_41" y="263" font-size="12" atv:refpx="120" text-anchor="end" fill="#000000" x="156.5">T{Line width}:</text>
 <svg atv:refpy="220" id="series_color" y="208" transform="matrix(0.625,0,0,1,0,0)" xlink:href="SYSTEM.LIBRARY.ATVISE.OBJECTDISPLAYS.Chrome.picker_color" atv:refpx="230.002" height="30" width="160" x="288">
  <atv:argument value="series_color" name="name"/>
  <atv:argument value="30" name="tabIndex"/>
  <atv:overwrite id="id_1" transform="matrix(1.6,0,0,1,0,0)" x="74.75"/>
  <atv:overwrite id="button_bg" transform="matrix(1.6,0,0,1,0,0)" x="73.5"/>
  <atv:overwrite id="button_stroke" y="2.75" transform="matrix(1.6,0,0,1,0,0)" height="24.5" width="24.5" x="72.5"/>
  <atv:overwrite id="input_label" transform="matrix(1.6,0,0,1,0,0)" x="63.5"/>
  <atv:overwrite id="input_bg" transform="matrix(1.6,0,0,1,0,0)" width="66"/>
  <atv:overwrite id="id_2" transform="matrix(1.6,0,0,1,0,0)" width="68"/>
  <atv:overwrite id="id_0" transform="matrix(1.6,0,0,1,0,0)" width="99.5"/>
 </svg>
 <svg atv:refpy="292" id="series_lineWidth" y="243" transform="matrix(0.625,0,0,1,0,0)" xlink:href="SYSTEM.LIBRARY.ATVISE.OBJECTDISPLAYS.Chrome.picker_value" atv:refpx="230" height="30" width="160" x="288">
  <atv:argument value="32" name="tabIndex"/>
  <atv:argument value="0" name="min"/>
  <atv:overwrite id="clickarea_dec" transform="matrix(1.6,0,0,1,-96,0)"/>
  <atv:overwrite id="clickarea_inc" transform="matrix(1.6,0,0,1,-96,0)"/>
  <atv:overwrite id="input_label" transform="matrix(1.6,0,0,1,0,0)" x="65.5"/>
  <atv:overwrite id="input_bg" transform="matrix(1.6,0,0,1,0,0)" width="66"/>
  <atv:overwrite id="id_2" transform="matrix(1.6,0,0,1,0,0)" width="68"/>
  <atv:overwrite id="id_0" transform="matrix(1.6,0,0,1,0,0)" width="99.5"/>
 </svg>
 <text atv:refpy="257.5" font-family="Arial" id="id_48" y="262" font-size="12" atv:refpx="313.5" text-anchor="start" fill="#000000" x="297.5">[T{px}]</text>
 <svg atv:refpy="327" id="series_dashStyle-Solid" y="278" transform="matrix(0.625,0,0,1,0,0)" xlink:href="SYSTEM.LIBRARY.ATVISE.OBJECTDISPLAYS.Chrome.radiobutton" atv:refpx="230" height="30" width="160" x="288">
  <atv:argument value="series_dashStyle" name="radiogroupId"/>
  <atv:argument value="T{solid}" name="label"/>
  <atv:argument value="solid" name="value"/>
  <atv:argument value="33" name="tabIndex"/>
  <atv:overwrite id="radiobutton_symbol" transform="matrix(1.6,0,0,1,0,0)"/>
  <atv:overwrite id="radiobutton_bg2" transform="matrix(1.6,0,0,1,0,0)"/>
  <atv:overwrite id="id_1" transform="matrix(1.6,0,0,1,0,0)"/>
  <atv:overwrite id="radiobutton_label" transform="matrix(1.6,0,0,1,0,0)" x="93"/>
  <atv:overwrite id="radiobutton_bg" transform="matrix(1.6,0,0,1,0,0)" width="66"/>
  <atv:overwrite id="id_2" transform="matrix(1.6,0,0,1,0,0)" width="68"/>
  <atv:overwrite id="id_0" transform="matrix(1.6,0,0,1,0,0)" width="99.5"/>
 </svg>
 <svg atv:refpy="330" id="series_dashStyle-Dot" y="278" transform="matrix(0.625,0,0,1,0,0)" xlink:href="SYSTEM.LIBRARY.ATVISE.OBJECTDISPLAYS.Chrome.radiobutton" atv:refpx="335" height="30" width="160" x="456">
  <atv:argument value="series_dashStyle" name="radiogroupId"/>
  <atv:argument value="T{dotted}" name="label"/>
  <atv:argument value="dotted" name="value"/>
  <atv:argument value="34" name="tabIndex"/>
  <atv:overwrite id="radiobutton_symbol" transform="matrix(1.6,0,0,1,0,0)"/>
  <atv:overwrite id="radiobutton_bg2" transform="matrix(1.6,0,0,1,0,0)"/>
  <atv:overwrite id="id_1" transform="matrix(1.6,0,0,1,0,0)"/>
  <atv:overwrite id="radiobutton_label" transform="matrix(1.6,0,0,1,0,0)" x="93"/>
  <atv:overwrite id="radiobutton_bg" transform="matrix(1.6,0,0,1,0,0)" width="66"/>
  <atv:overwrite id="id_2" transform="matrix(1.6,0,0,1,0,0)" width="68"/>
  <atv:overwrite id="id_0" transform="matrix(1.6,0,0,1,0,0)" width="99.5"/>
 </svg>
 <svg atv:refpy="327" id="series_dashStyle-Dash" y="278" transform="matrix(0.625,0,0,1,0,0)" xlink:href="SYSTEM.LIBRARY.ATVISE.OBJECTDISPLAYS.Chrome.radiobutton" atv:refpx="440" height="30" width="160" x="624">
  <atv:argument value="series_dashStyle" name="radiogroupId"/>
  <atv:argument value="T{dashed}" name="label"/>
  <atv:argument value="dashed" name="value"/>
  <atv:argument value="35" name="tabIndex"/>
  <atv:overwrite id="radiobutton_symbol" transform="matrix(1.6,0,0,1,0,0)"/>
  <atv:overwrite id="radiobutton_bg2" transform="matrix(1.6,0,0,1,0,0)"/>
  <atv:overwrite id="id_1" transform="matrix(1.6,0,0,1,0,0)"/>
  <atv:overwrite id="radiobutton_label" transform="matrix(1.6,0,0,1,0,0)" x="93"/>
  <atv:overwrite id="radiobutton_bg" transform="matrix(1.6,0,0,1,0,0)" width="66"/>
  <atv:overwrite id="id_2" transform="matrix(1.6,0,0,1,0,0)" width="68"/>
  <atv:overwrite id="id_0" transform="matrix(1.6,0,0,1,0,0)" width="99.5"/>
 </svg>
 <svg atv:refpy="67" id="series_interpolation-linear" y="57" transform="matrix(0.625,0,0,1,0,0)" xlink:href="SYSTEM.LIBRARY.ATVISE.OBJECTDISPLAYS.Chrome.radiobutton" atv:refpx="230" height="30" width="160" x="288">
  <atv:argument value="series_interpolation" name="radiogroupId"/>
  <atv:argument value="T{linear}" name="label"/>
  <atv:argument value="linear" name="value"/>
  <atv:argument value="26" name="tabIndex"/>
  <atv:overwrite id="radiobutton_symbol" transform="matrix(1.6,0,0,1,0,0)"/>
  <atv:overwrite id="radiobutton_bg2" transform="matrix(1.6,0,0,1,0,0)"/>
  <atv:overwrite id="id_1" transform="matrix(1.6,0,0,1,0,0)"/>
  <atv:overwrite id="radiobutton_label" transform="matrix(1.6,0,0,1,0,0)" x="93"/>
  <atv:overwrite id="radiobutton_bg" transform="matrix(1.6,0,0,1,0,0)" width="66"/>
  <atv:overwrite id="id_2" transform="matrix(1.6,0,0,1,0,0)" width="68"/>
  <atv:overwrite id="id_0" transform="matrix(1.6,0,0,1,0,0)" width="99.5"/>
 </svg>
 <svg atv:refpy="67" id="series_interpolation-spline" y="57" transform="matrix(0.625,0,0,1,0,0)" xlink:href="SYSTEM.LIBRARY.ATVISE.OBJECTDISPLAYS.Chrome.radiobutton" atv:refpx="335" height="30" width="160" x="456">
  <atv:argument value="series_interpolation" name="radiogroupId"/>
  <atv:argument value="T{spline}" name="label"/>
  <atv:argument value="spline" name="value"/>
  <atv:argument value="27" name="tabIndex"/>
  <atv:overwrite id="radiobutton_symbol" transform="matrix(1.6,0,0,1,0,0)"/>
  <atv:overwrite id="radiobutton_bg2" transform="matrix(1.6,0,0,1,0,0)"/>
  <atv:overwrite id="id_1" transform="matrix(1.6,0,0,1,0,0)"/>
  <atv:overwrite id="radiobutton_label" transform="matrix(1.6,0,0,1,0,0)" x="93"/>
  <atv:overwrite id="radiobutton_bg" transform="matrix(1.6,0,0,1,0,0)" width="66"/>
  <atv:overwrite id="id_2" transform="matrix(1.6,0,0,1,0,0)" width="68"/>
  <atv:overwrite id="id_0" transform="matrix(1.6,0,0,1,0,0)" width="99.5"/>
 </svg>
 <svg atv:refpy="63" id="series_interpolation-step" y="57" transform="matrix(0.625,0,0,1,0,0)" xlink:href="SYSTEM.LIBRARY.ATVISE.OBJECTDISPLAYS.Chrome.radiobutton" atv:refpx="436" height="30" width="160" x="624">
  <atv:argument value="series_interpolation" name="radiogroupId"/>
  <atv:argument value="T{step}" name="label"/>
  <atv:argument value="step" name="value"/>
  <atv:argument value="28" name="tabIndex"/>
  <atv:overwrite id="radiobutton_symbol" transform="matrix(1.6,0,0,1,0,0)"/>
  <atv:overwrite id="radiobutton_bg2" transform="matrix(1.6,0,0,1,0,0)"/>
  <atv:overwrite id="id_1" transform="matrix(1.6,0,0,1,0,0)"/>
  <atv:overwrite id="radiobutton_label" transform="matrix(1.6,0,0,1,0,0)" x="93"/>
  <atv:overwrite id="radiobutton_bg" transform="matrix(1.6,0,0,1,0,0)" width="66"/>
  <atv:overwrite id="id_2" transform="matrix(1.6,0,0,1,0,0)" width="68"/>
  <atv:overwrite id="id_0" transform="matrix(1.6,0,0,1,0,0)" width="99.5"/>
 </svg>
 <text atv:refpy="181.5" font-family="Arial" id="id_30" y="186" font-size="12" font-weight="bold" atv:refpx="50.84" text-anchor="start" fill="#000000" x="24.5">T{Styling}:</text>
 <text atv:refpy="223.5" font-family="Arial" id="series_fillColor_label" y="228" font-size="12" atv:refpx="341" text-anchor="end" visibility="hidden" fill="#000000" x="372.5">T{Fill color}:</text>
 <svg atv:refpy="220" id="series_fillColor" y="208" transform="matrix(0.625,0,0,1,0,0)" xlink:href="SYSTEM.LIBRARY.ATVISE.OBJECTDISPLAYS.Chrome.picker_color" atv:refpx="440.002" height="30" visibility="hidden" width="160" x="624">
  <atv:argument value="series_fillColor" name="name"/>
  <atv:argument value="31" name="tabIndex"/>
  <atv:overwrite id="id_1" transform="matrix(1.6,0,0,1,0,0)" x="74.75"/>
  <atv:overwrite id="button_bg" transform="matrix(1.6,0,0,1,0,0)" x="73.5"/>
  <atv:overwrite id="button_stroke" y="2.75" transform="matrix(1.6,0,0,1,0,0)" height="24.5" width="24.5" x="72.5"/>
  <atv:overwrite id="input_label" transform="matrix(1.6,0,0,1,0,0)" x="63.5"/>
  <atv:overwrite id="input_bg" transform="matrix(1.6,0,0,1,0,0)" width="66"/>
  <atv:overwrite id="id_2" transform="matrix(1.6,0,0,1,0,0)" width="68"/>
  <atv:overwrite id="id_0" transform="matrix(1.6,0,0,1,0,0)" width="99.5"/>
 </svg>
 <text atv:refpy="108.5" font-family="Arial" id="id_4" y="113" font-size="12" atv:refpx="111" text-anchor="end" fill="#000000" x="154.5">T{Missing data}:</text>
 <svg atv:refpy="105" id="series_connectNulls" y="94" transform="matrix(0.625,0,0,1,0,0)" xlink:href="SYSTEM.LIBRARY.ATVISE.OBJECTDISPLAYS.Chrome.checkbox" atv:refpx="230" height="30" width="160" x="288">
  <atv:argument value="T{Ignore}" name="label"/>
  <atv:argument value="true" name="valueOn"/>
  <atv:argument value="true" name="outputValueOn"/>
  <atv:argument value="false" name="outputValueOff"/>
  <atv:overwrite id="checkbox_symbol" transform="matrix(1.6,0,0,1,0,0)"/>
  <atv:overwrite id="checkbox_bg2" transform="matrix(1.6,0,0,1,0,0)"/>
  <atv:overwrite id="id_5" transform="matrix(1.6,0,0,1,0,0)"/>
  <atv:overwrite id="checkbox_item" transform="matrix(1.6,0,0,1,0,0)" x="92.5"/>
  <atv:overwrite id="checkbox_bg" transform="matrix(1.6,0,0,1,0,0)" width="66"/>
  <atv:overwrite id="id_2" transform="matrix(1.6,0,0,1,0,0)" width="68"/>
  <atv:overwrite id="id_0" transform="matrix(1.6,0,0,1,0,0)" width="99.5"/>
 </svg>
 <svg atv:refpy="110" id="series_nonStop" y="95" transform="matrix(0.625,0,0,1,0,0)" xlink:href="SYSTEM.LIBRARY.ATVISE.OBJECTDISPLAYS.Chrome.checkbox" atv:refpx="438" height="30" width="160" x="624">
  <atv:argument value="T{enabled}" name="label"/>
  <atv:argument value="true" name="valueOn"/>
  <atv:argument value="true" name="outputValueOn"/>
  <atv:argument value="false" name="outputValueOff"/>
  <atv:overwrite id="checkbox_symbol" transform="matrix(1.6,0,0,1,0,0)"/>
  <atv:overwrite id="checkbox_bg2" transform="matrix(1.6,0,0,1,0,0)"/>
  <atv:overwrite id="id_5" transform="matrix(1.6,0,0,1,0,0)"/>
  <atv:overwrite id="checkbox_item" transform="matrix(1.6,0,0,1,0,0)" x="92.5"/>
  <atv:overwrite id="checkbox_bg" transform="matrix(1.6,0,0,1,0,0)" width="66"/>
  <atv:overwrite id="id_2" transform="matrix(1.6,0,0,1,0,0)" width="68"/>
  <atv:overwrite id="id_0" transform="matrix(1.6,0,0,1,0,0)" width="99.5"/>
 </svg>
 <text atv:refpy="109.5" font-family="Arial" id="id_6" y="114" font-size="12" atv:refpx="338.5" text-anchor="end" fill="#000000" x="372.5">T{Non-stop}:</text>
 <svg atv:refpy="35" id="series_xAxis" y="20" transform="matrix(0.95,0,0,1,0,0)" xlink:href="SYSTEM.LIBRARY.ATVISE.OBJECTDISPLAYS.Chrome.combobox" atv:refpx="256" height="30" width="160" x="189.474">
  <atv:overwrite id="id_3" transform="matrix(1.0526,0,0,1,0,0)" x="126.75"/>
  <atv:overwrite id="button_bg" transform="matrix(1.0526,0,0,1,0,0)" x="125.5"/>
  <atv:overwrite id="button_stroke" transform="matrix(1.0526,0,0,1,0,0)" x="125.5"/>
  <atv:overwrite id="id_5" transform="matrix(1.0526,0,0,1,0,0)" x="124.5"/>
  <atv:overwrite id="combobox_label" transform="matrix(1.0526,0,0,1,0,0)" x="117.5"/>
  <atv:overwrite id="combobox_bg" transform="matrix(1.0526,0,0,1,0,0)" width="118"/>
  <atv:overwrite id="id_2" transform="matrix(1.0526,0,0,1,0,0)" width="120"/>
  <atv:overwrite id="combobox_stroke" transform="matrix(1.0526,0,0,1,0,0)" width="151.5"/>
 </svg>
 <svg atv:refpy="35" id="series_yAxis" y="20" transform="matrix(0.95,0,0,1,0,0)" xlink:href="SYSTEM.LIBRARY.ATVISE.OBJECTDISPLAYS.Chrome.combobox" atv:refpx="411" height="30" width="160" x="354.737">
  <atv:overwrite id="id_3" transform="matrix(1.0526,0,0,1,0,0)" x="126.75"/>
  <atv:overwrite id="button_bg" transform="matrix(1.0526,0,0,1,0,0)" x="125.5"/>
  <atv:overwrite id="button_stroke" transform="matrix(1.0526,0,0,1,0,0)" x="125.5"/>
  <atv:overwrite id="id_5" transform="matrix(1.0526,0,0,1,0,0)" x="124.5"/>
  <atv:overwrite id="combobox_label" transform="matrix(1.0526,0,0,1,0,0)" x="117.5"/>
  <atv:overwrite id="combobox_bg" transform="matrix(1.0526,0,0,1,0,0)" width="118"/>
  <atv:overwrite id="id_2" transform="matrix(1.0526,0,0,1,0,0)" width="120"/>
  <atv:overwrite id="combobox_stroke" transform="matrix(1.0526,0,0,1,0,0)" width="151.5"/>
 </svg>
 <text atv:refpy="144.5" font-family="Arial" id="id_7" y="149" font-size="12" atv:refpx="126.5" text-anchor="end" fill="#000000" x="153.5">T{Marker}:</text>
 <svg atv:refpy="141" id="series_marker_enabled" y="130" transform="matrix(0.625,0,0,1,0,0)" xlink:href="SYSTEM.LIBRARY.ATVISE.OBJECTDISPLAYS.Chrome.checkbox" atv:refpx="230" height="30" width="160" x="288">
  <atv:argument value="T{enabled}" name="label"/>
  <atv:argument value="true" name="valueOn"/>
  <atv:argument value="true" name="outputValueOn"/>
  <atv:argument value="false" name="outputValueOff"/>
  <atv:overwrite id="checkbox_symbol" transform="matrix(1.6,0,0,1,0,0)"/>
  <atv:overwrite id="checkbox_bg2" transform="matrix(1.6,0,0,1,0,0)"/>
  <atv:overwrite id="id_5" transform="matrix(1.6,0,0,1,0,0)"/>
  <atv:overwrite id="checkbox_item" transform="matrix(1.6,0,0,1,0,0)" x="92.5"/>
  <atv:overwrite id="checkbox_bg" transform="matrix(1.6,0,0,1,0,0)" width="66"/>
  <atv:overwrite id="id_2" transform="matrix(1.6,0,0,1,0,0)" width="68"/>
  <atv:overwrite id="id_0" transform="matrix(1.6,0,0,1,0,0)" width="99.5"/>
 </svg>
 <script type="text/ecmascript"><![CDATA[var inputDefaults = {
	"series_xAxis": 0,
	"series_yAxis": 0,
	"series_nonStop": false,
	"series_connectNulls": true,
	"series_marker_enabled": true,
	"series_color": "#000000",
	"series_fillColor": "#DDDDDD",
	"series_lineWidth": 1,
	"series_dashStyle-Solid": "T{solid}",
	"series_dashStyle-Dash": "T{dashed}",
	"series_dashStyle-Dot": "T{dotted}"
};

var activeSeries = webMI.query.activeSeries;
var triggerEnabled = true;

var chartname = webMI.query.chartname;
var chart = webMI.trendFactory.getTrendByName(chartname);
var options = chart.chart.options;
var configHandler = new webMI.rootWindow.ConfigHandler;

var xAxes = [];
var yAxes = [];

//Read options
function readOptions() {
	triggerEnabled = false;

	//Search configured axis
	xAxes = [];
	yAxes = [];

	var i = 0;
	while (typeof chart.chart.xAxis[i] != "undefined") {
		var name = chart.chart.xAxis[i].options.title.text;
		if (name == "")
			name = "T{X-Axis} " + i;
		xAxes.push(name);
		webMI.trigger.fire("addItem", {text: name, value: i}, "series_xAxis");
		i++;
	}

	var i = 0;
	while (typeof chart.chart.yAxis[i] != "undefined") {
		var name = chart.chart.yAxis[i].options.title.text;
		if (name == "")
			name = "T{Y-Axis} " + i;
		yAxes.push(name);
		webMI.trigger.fire("addItem", {text: name, value: i}, "series_yAxis");
		i++;
	}

	//Set values for current series
	var curSeries = chart.chart.series[activeSeries];

	if (typeof curSeries == "undefined")
		return;

	if (curSeries.type == "line" || curSeries.type == "spline") {
		webMI.gfx.setVisible("series_fillColor", false);
		webMI.gfx.setVisible("series_fillColor_label", false);
	} else {
		webMI.gfx.setVisible("series_fillColor", true);
		webMI.gfx.setVisible("series_fillColor_label", true);
	}

	webMI.trigger.fire("setSelectedItem", curSeries.options.xAxis ? xAxes[curSeries.options.xAxis] : xAxes[0], "series_xAxis");
	webMI.trigger.fire("setSelectedItem", curSeries.options.yAxis ? yAxes[curSeries.options.yAxis] : yAxes[0], "series_yAxis");

	if ((curSeries.type == "line" || curSeries.type == "area" || curSeries.type == "arearange") && (typeof curSeries.options.step == "undefined" || curSeries.options.step == false))
		webMI.trigger.fire("radioClicked_series_interpolation", {name: "T{linear}"});
	else if (curSeries.type == "line" || curSeries.type == "area" || curSeries.type == "arearange")
		webMI.trigger.fire("radioClicked_series_interpolation", {name: "T{step}"});
	else if (curSeries.type == "spline" || curSeries.type == "areaspline" || curSeries.type == "areasplinerange")
		webMI.trigger.fire("radioClicked_series_interpolation", {name: "T{spline}"});

	webMI.trigger.fire("setChecked", curSeries.options.connectNulls, "series_connectNulls");
	webMI.trigger.fire("setChecked", curSeries.options.nonStop, "series_nonStop");
	webMI.trigger.fire("setChecked", curSeries.options.marker.enabled, "series_marker_enabled");
	webMI.trigger.fire("valuechanged_series_color", {hex: curSeries.color});
	webMI.trigger.fire("valuechanged_series_fillColor", {hex: curSeries.options.fillColor ? curSeries.options.fillColor : curSeries.color});
	webMI.trigger.fire("setValue", curSeries.options.lineWidth, "series_lineWidth");

	var dashStyle = inputDefaults["series_dashStyle-" + (curSeries.options.dashStyle ? curSeries.options.dashStyle : "Solid")];
	webMI.trigger.fire("radioClicked_series_dashStyle", {name: dashStyle});

	triggerEnabled = true;
}

//Write options
function setOptions(key, value, identifier) {
	if(value === "true" || value === true)
		value = true;
	if(value === "false" || value === false)
		value = false

	if (chart.chart.series[identifier]) {
		var optionsObj = configHandler.createConfigObject(key.slice(7, key.length), value);
		if(chart.control.isLiveModeRunning()){
			chart.control.stopLiveMode(function() {
				chart.chart.series[identifier].update(optionsObj, false, chart.control.startLiveMode);
			});
		} else {
			chart.chart.series[identifier].update(optionsObj);
		}
		chart.control.updated();
	}
}

//Triggers for every input element
webMI.addOnload(function() {
	for (var key in inputDefaults)
		webMI.trigger.connect("valuechanged", function(e){ processInput(e.context, e.value, activeSeries) }, key);

	//Triggers for interpolation radio buttons
	webMI.trigger.connect("valuechanged", function(e){
		var type = chart.chart.series[activeSeries].type;
		if (type == "line" || type == "spline") {
			processInput("series_type", "line", activeSeries);
		} else if (type == "area" || type == "areaspline") {
			processInput("series_type", "area", activeSeries);
		} else if (type == "arearange" || type == "areasplinerange") {
			processInput("series_type", "arearange", activeSeries);
		}
		processInput("series_step", false, activeSeries);
	}, "series_interpolation-linear");

	webMI.trigger.connect("valuechanged", function(e){
		var type = chart.chart.series[activeSeries].type;
		if (type == "line" || type == "spline") {
			processInput("series_type", "spline", activeSeries);
		} else if (type == "area" || type == "areaspline") {
			processInput("series_type", "areaspline", activeSeries);
		} else if (type == "arearange" || type == "areasplinerange") {
			processInput("series_type", "areasplinerange", activeSeries);
		}
	}, "series_interpolation-spline");

	webMI.trigger.connect("valuechanged", function(e){
		var type = chart.chart.series[activeSeries].type;
		if (type == "line" || type == "spline") {
			processInput("series_type", "line", activeSeries);
		} else if (type == "area" || type == "areaspline") {
			processInput("series_type", "area", activeSeries);
		} else if (type == "arearange" || type == "areasplinerange") {
			processInput("series_type", "arearange", activeSeries);
		}
		processInput("series_step", true, activeSeries);
	}, "series_interpolation-step");

	readOptions();
});

function processInput(key, value, identifier) {
	if (typeof key == "undefined" || typeof value == "undefined")
		return;

	if (!triggerEnabled)
		return;

	setOptions(key, value, identifier);
}
]]></script>
</svg>
