<?xml version='1.0' encoding='UTF-8' standalone='no'?>
<svg width="60" xmlns:xlink="http://www.w3.org/1999/xlink" xmlns:atv="http://webmi.atvise.com/2007/svgext" version="1.1" xmlns="http://www.w3.org/2000/svg" y="0px" height="60" enable-background="new 0 0 72 72" id="Ebene_1" x="0px" xml:space="preserve">
 <defs/>
 <metadata>
  <atv:parameter desc="symbol color" defaultvalue="#000000" name="symbolColor" substitute="$SYMBOLCOLOR$" valuetype="color" behavior="optional"/>
  <atv:gridconfig width="20" height="20" gridstyle="lines" enabled="false"/>
  <atv:snapconfig width="10" height="10" enabled="false"/>
 </metadata>
 <g atv:refpy="30" id="id_9" atv:refpx="30">
  <path stroke-width="1.204" atv:refpy="93.93" fill="$SYMBOLCOLOR$" id="id_0" atv:refpx="30.208" d="M34.867,46.331L25.549,46.331C24.851,46.331 24.28,46.9 24.28,47.598C24.28,48.297 24.851,48.865 25.549,48.865L34.867,48.865C35.565,48.865 36.135,48.296 36.135,47.598C36.135,46.9 35.565,46.331 34.867,46.331"/>
  <path stroke-width="1.204" atv:refpy="100.607" fill="$SYMBOLCOLOR$" id="id_1" atv:refpx="30.208" d="M34.867,49.669L25.549,49.669C24.851,49.669 24.28,50.238 24.28,50.936C24.28,51.635 24.851,52.204 25.549,52.204L34.867,52.204C35.565,52.204 36.135,51.635 36.135,50.936C36.135,50.238 35.565,49.669 34.867,49.669"/>
  <path stroke-width="1.204" atv:refpy="107.28" fill="$SYMBOLCOLOR$" id="id_2" atv:refpx="30.207" d="M31.931,53.007L28.484,53.007C27.785,53.007 27.216,53.575 27.216,54.273C27.216,54.971 27.785,55.54 28.484,55.54L31.931,55.54C32.628,55.54 33.197,54.971 33.197,54.273C33.198,53.575 32.63,53.007 31.931,53.007"/>
  <path stroke-width="1.204" atv:refpy="50.633" fill="$SYMBOLCOLOR$" id="id_3" atv:refpx="30.208" d="M30.209,18.659C23.38,18.659 17.823,24.215 17.823,31.044C17.823,35.391 20.12,39.435 23.841,41.666C23.834,41.75 23.828,41.832 23.828,41.913C23.828,43.774 25.343,45.288 27.205,45.288L33.211,45.288C35.071,45.288 36.585,43.774 36.585,41.913C36.585,41.833 36.582,41.75 36.575,41.667C40.294,39.436 42.593,35.392 42.593,31.044C42.594,24.215 37.037,18.659 30.209,18.659M35.398,40.623L34.884,40.898L35.027,41.46C35.07,41.632 35.091,41.781 35.091,41.914C35.091,42.952 34.248,43.796 33.211,43.796L27.205,43.796C26.168,43.796 25.321,42.952 25.321,41.914C25.321,41.78 25.343,41.637 25.387,41.463L25.531,40.899L25.02,40.624C21.501,38.713 19.317,35.042 19.317,31.044C19.317,25.037 24.204,20.151 30.21,20.151C36.214,20.151 41.103,25.037 41.103,31.044C41.101,35.043 38.915,38.713 35.398,40.623"/>
  <path stroke-width="1.204" atv:refpy="59.958" fill="$SYMBOLCOLOR$" id="id_4" atv:refpx="8.706" d="M12.687,29.006L4.726,29.006C3.652,29.006 2.78,29.879 2.78,30.951C2.78,32.023 3.652,32.896 4.726,32.896L12.687,32.896C13.76,32.896 14.633,32.023 14.633,30.951C14.633,29.879 13.76,29.006 12.687,29.006M4.726,30.499L12.687,30.499C12.936,30.499 13.139,30.701 13.139,30.951C13.139,31.202 12.936,31.402 12.687,31.402L4.726,31.402C4.477,31.402 4.273,31.2 4.273,30.951C4.273,30.702 4.477,30.499 4.726,30.499"/>
  <path stroke-width="1.204" atv:refpy="27.515" fill="$SYMBOLCOLOR$" id="id_5" atv:refpx="15.455" d="M19.645,20.299C20.014,19.932 20.216,19.443 20.216,18.923C20.216,18.402 20.014,17.914 19.645,17.547L14.017,11.915C13.308,11.21 11.973,11.21 11.264,11.917C10.896,12.286 10.694,12.772 10.694,13.292C10.694,13.812 10.896,14.302 11.267,14.669L16.895,20.298C17.261,20.666 17.75,20.868 18.271,20.868C18.792,20.868 19.281,20.666 19.645,20.299M18.591,19.242C18.434,19.4 18.11,19.4 17.952,19.242L12.322,13.612C12.236,13.526 12.189,13.414 12.189,13.291C12.189,13.171 12.236,13.058 12.322,12.972C12.409,12.885 12.52,12.84 12.642,12.84C12.765,12.84 12.875,12.885 12.962,12.972L18.592,18.602C18.677,18.688 18.724,18.801 18.724,18.922C18.724,19.044 18.677,19.158 18.591,19.242"/>
  <path stroke-width="1.204" atv:refpy="10.385" fill="$SYMBOLCOLOR$" id="id_6" atv:refpx="59.508" d="M30.727,16.311C31.798,16.311 32.671,15.437 32.671,14.366L32.671,6.405C32.671,5.335 31.798,4.461 30.725,4.459C29.653,4.461 28.781,5.335 28.781,6.406L28.781,14.366C28.781,15.438 29.655,16.311 30.727,16.311M31.179,14.366C31.179,14.615 30.976,14.818 30.724,14.818C30.476,14.818 30.272,14.616 30.272,14.366L30.272,6.405C30.272,6.155 30.475,5.953 30.724,5.951C30.976,5.952 31.179,6.154 31.179,6.403Z"/>
  <path stroke-width="1.204" atv:refpy="17.156" fill="$SYMBOLCOLOR$" id="id_7" atv:refpx="86.378" d="M49.761,12.944C49.051,12.239 47.714,12.242 47.008,12.946L41.381,18.574C41.011,18.941 40.809,19.431 40.809,19.95C40.809,20.47 41.011,20.956 41.378,21.323C41.748,21.691 42.234,21.895 42.756,21.895C43.276,21.895 43.765,21.694 44.132,21.324L49.762,15.696C50.518,14.94 50.518,13.706 49.761,12.944M48.705,14.643L43.075,20.271C42.998,20.351 42.88,20.396 42.755,20.396C42.63,20.396 42.516,20.351 42.437,20.274C42.351,20.187 42.304,20.072 42.304,19.952C42.304,19.83 42.348,19.719 42.435,19.631L48.065,14.001C48.149,13.914 48.26,13.87 48.383,13.87C48.508,13.87 48.617,13.916 48.705,14.001C48.881,14.178 48.881,14.466 48.705,14.643"/>
  <path stroke-width="1.204" atv:refpy="32.407" fill="$SYMBOLCOLOR$" id="id_8" atv:refpx="96.66" d="M55.273,30.46L47.312,30.46C46.239,30.46 45.367,31.333 45.367,32.404C45.364,32.924 45.566,33.412 45.934,33.779C46.303,34.149 46.792,34.351 47.312,34.351L55.275,34.353C56.345,34.351 57.216,33.479 57.219,32.406C57.219,31.333 56.347,30.46 55.273,30.46M46.86,32.406C46.86,32.283 46.907,32.173 46.991,32.086C47.078,31.999 47.189,31.954 47.312,31.954L55.273,31.952C55.522,31.952 55.726,32.155 55.726,32.404C55.724,32.654 55.522,32.858 55.273,32.859L47.312,32.858C47.189,32.858 47.077,32.811 46.991,32.728C46.907,32.641 46.86,32.528 46.86,32.406"/>
 </g>
</svg>
