<?xml version='1.0' encoding='UTF-8' standalone='no'?>
<svg height="205" version="1.2" width="400" xmlns="http://www.w3.org/2000/svg" xmlns:atv="http://webmi.atvise.com/2007/svgext" xmlns:xlink="http://www.w3.org/1999/xlink">
 <defs/>
 <desc>Dialog to acknowledge or confirm alarms with comment.</desc>
 <title>Alarm Comment Dialog</title>
 <metadata>
  <atv:gridconfig enabled="false" gridstyle="lines" height="20" width="20"/>
  <atv:snapconfig enabled="false" height="10" width="10"/>
 </metadata>
 <rect atv:refpx="200" atv:refpy="102.5" fill="none" height="205" id="background" stroke="none" stroke-width="0" width="400" x="0" y="0"/>
 <text atv:refpx="41.5" atv:refpy="21.5" fill="#000000" font-family="Arial" font-size="12" font-weight="bold" id="alarm_id_label" x="19.5" y="26">T{Alarm ID}:</text>
 <text atv:refpx="41.5" atv:refpy="41.5" fill="#000000" font-family="Arial" font-size="12" id="alarm_id" x="19.5" y="46">AlarmId</text>
 <text atv:refpx="41.5" atv:refpy="66.5" fill="#000000" font-family="Arial" font-size="12" font-weight="bold" id="condition_address_label" x="19.5" y="71">T{Condition address}:</text>
 <text atv:refpx="41.5" atv:refpy="86.5" fill="#000000" font-family="Arial" font-size="12" id="condition_address" x="19.5" y="91">Condition address</text>
 <svg atv:refpx="200" atv:refpy="140" height="30" id="comment" transform="matrix(2.2625,0,0,1,0,0)" width="160" x="8.398" xlink:href="SYSTEM.LIBRARY.ATVISE.OBJECTDISPLAYS.Steelblue.in_out_value" y="125">
  <atv:argument name="validation" value="String"/>
  <atv:overwrite id="input_label" transform="matrix(0.442,0,0,1,0,0)" x="353.5"/>
  <atv:overwrite id="blinking_frame" transform="matrix(0.442,0,0,1,0,0)" width="355"/>
  <atv:overwrite id="focus_frame" transform="matrix(0.442,0,0,1,0,0)" width="354"/>
  <atv:overwrite id="id_2" transform="matrix(0.442,0,0,1,0,0)" width="356.5"/>
  <atv:overwrite id="id_0" transform="matrix(0.442,0,0,1,0,0)" width="361.5"/>
 </svg>
 <text atv:refpx="41.5" atv:refpy="111.5" fill="#000000" font-family="Arial" font-size="12" font-weight="bold" id="comment_label" x="19.5" y="116">T{Comment}:</text>
 <svg atv:refpx="326.5" atv:refpy="180" height="30" id="button" transform="matrix(1.3125,0,0,1,0,0)" width="80" x="210.286" xlink:href="SYSTEM.LIBRARY.ATVISE.OBJECTDISPLAYS.Steelblue.button" y="165">
  <atv:argument name="label" value="T{ACKNOWLEDGE}"/>
  <atv:overwrite id="button_stroke" transform="matrix(0.7619,0,0,1,0,0)" width="97"/>
  <atv:overwrite id="button_label" transform="matrix(0.7619,0,0,1,0,0)" x="52.5"/>
  <atv:overwrite id="button_symbol" transform="matrix(0.7619,0,0,1,0,0)" x="42.5"/>
  <atv:overwrite id="button_bg" transform="matrix(0.7619,0,0,1,0,0)" width="97"/>
  <atv:overwrite id="id_2" transform="matrix(0.7619,0,0,1,0,0)" width="99.5"/>
  <atv:overwrite id="id_0" transform="matrix(0.7619,0,0,1,0,0)" width="104.5"/>
 </svg>
 <text atv:refpx="43.5" atv:refpy="180.739" fill="#ff0000" font-family="Arial" font-size="12" id="error" visibility="hidden" x="21.5" y="185.239">T{Error}:</text>
 <script atv:desc="" atv:href="SYSTEM.LIBRARY.ATVISE.DISPLAYSCRIPTS.dialogs.alarm_comment" atv:name="alarm_comment" atv:type="text/ecmascript"/>
 <script atv:desc="" atv:name="" type="text/ecmascript"/>
</svg>
