<svg width="21" height="32" viewBox="0 0 21 32" fill="none" xmlns="http://www.w3.org/2000/svg">
<path fill-rule="evenodd" clip-rule="evenodd" d="M4.26001 27.89H8.62V25.88H4.26001C3.64001 25.88 3.07001 25.6301 2.66003 25.2201C2.25006 24.8101 2 24.25 2 23.63V4.26001C2 3.64001 2.25006 3.07007 2.66003 2.66003C3.07001 2.26001 3.63 2.01001 4.26001 2.01001H12.87H12.94L12.95 0H4.26001C3.09003 0 2.02002 0.47998 1.25 1.26001C0.47998 2.03003 0 3.08997 0 4.26001V23.63C0 24.8 0.47998 25.86 1.25 26.64C2.02002 27.41 3.08002 27.89 4.26001 27.89ZM20.33 5.97998L14.89 0.160034V5.97998H20.33ZM4.26001 13.63H16.62V15.26H4.26001V13.63ZM16.62 10.5H4.26001V12.13H16.62V10.5ZM4.32001 7.5H10.52V9.13H4.32001V7.5ZM10.52 4.44006H4.32001V6.07007H10.52V4.44006ZM20.63 7.84009V23.63C20.63 24.8 20.15 25.86 19.38 26.63C18.6 27.41 17.54 27.88 16.38 27.89V25.88C17 25.88 17.5601 25.6301 17.97 25.2201C18.3701 24.8201 18.63 24.25 18.63 23.63V7.83008L20.63 7.84009ZM10.35 25.3501V31.9501L12.51 30.17L14.67 31.9501V25.3501C13.05 25.79 11.96 25.79 10.35 25.3501ZM16.56 20.8101C16.56 18.5701 14.75 16.76 12.51 16.76C10.27 16.76 8.45001 18.5701 8.45001 20.8101C8.45001 23.05 10.27 24.87 12.51 24.87C14.75 24.87 16.56 23.05 16.56 20.8101Z" fill="#4D6578"/>
</svg>
