<?xml version='1.0' encoding='UTF-8' standalone='no'?>
<svg width="20" x="0px" version="1.1" y="0px" xmlns="http://www.w3.org/2000/svg" height="20" xmlns:xlink="http://www.w3.org/1999/xlink" id="Ebene_1" enable-background="new 0 0 72 72" xml:space="preserve" xmlns:atv="http://webmi.atvise.com/2007/svgext">
 <defs/>
 <metadata>
  <atv:parameter desc="symbol color" valuetype="color" substitute="$SYMBOLCOLOR$" behavior="optional" name="symbolColor" defaultvalue="#000000"/>
 </metadata>
 <g id="id_3">
  <path fill="$SYMBOLCOLOR$" id="id_0" atv:refpx="18.076" atv:refpy="31.828" stroke-width="0.42" d="M11.696,15.692L8.447,15.692C8.203,15.692 8.004,15.891 8.004,16.134C8.004,16.378 8.203,16.576 8.447,16.576L11.696,16.576C11.939,16.576 12.137,16.378 12.137,16.134C12.137,15.891 11.939,15.692 11.696,15.692"/>
  <path fill="$SYMBOLCOLOR$" id="id_1" atv:refpx="18.076" atv:refpy="34.155" stroke-width="0.42" d="M11.696,16.856L8.447,16.856C8.203,16.856 8.004,17.055 8.004,17.298C8.004,17.542 8.203,17.74 8.447,17.74L11.696,17.74C11.939,17.74 12.137,17.542 12.137,17.298C12.137,17.055 11.939,16.856 11.696,16.856"/>
  <path fill="$SYMBOLCOLOR$" id="id_2" atv:refpx="19.099" atv:refpy="36.482" stroke-width="0.42" d="M10.672,18.02L9.47,18.02C9.226,18.02 9.028,18.218 9.028,18.461C9.028,18.705 9.226,18.903 9.47,18.903L10.672,18.903C10.915,18.903 11.113,18.705 11.113,18.461C11.114,18.218 10.916,18.02 10.672,18.02"/>
  <circle fill="$SYMBOLCOLOR$" cx="10.089" cy="10.529" stroke="none" r="4.113" id="id_10" atv:refpx="5.248" stroke-width="1.099" atv:refpy="16.945"/>
  <rect width="4.692" x="7.742" y="13.644" fill="$SYMBOLCOLOR$" rx="1.036" height="1.743" ry="0.76" stroke="none" id="id_11" atv:refpx="17.831" stroke-width="1.099" atv:refpy="41.195"/>
 </g>
</svg>
