<?xml version='1.0' encoding='UTF-8' standalone='no'?>
<svg xmlns:atv="http://webmi.atvise.com/2007/svgext" enable-background="new 0 0 50 50" xmlns:xlink="http://www.w3.org/1999/xlink" version="1.1" height="20" xmlns="http://www.w3.org/2000/svg" x="0px" y="0px" id="Ebene_1" xml:space="preserve" width="20">
 <defs/>
 <metadata>
  <atv:parameter desc="symbol color" behavior="optional" defaultvalue="#000000" name="symbolColor" substitute="$SYMBOLCOLOR$" valuetype="color"/>
  <atv:gridconfig gridstyle="lines" height="20" enabled="false" width="20"/>
  <atv:snapconfig height="10" enabled="false" width="10"/>
 </metadata>
 <g atv:refpx="10" transform="matrix(1,0,0,1,0.1324,0.2579)" id="id_0" atv:refpy="10">
  <path fill="$SYMBOLCOLOR$" stroke-width="0.498" d="M11.955,6.925L11.955,6.25L8.973,6.25C8.973,7.66 7.839,8.803 6.441,8.803C5.043,8.803 3.91,7.66 3.91,6.25L0.927,6.25L0.927,6.925L2.603,7.248C2.699,7.625 2.848,7.98 3.042,8.305L2.15,9.631L3.081,10.57L4.393,9.672C4.721,9.872 5.079,10.025 5.46,10.123L5.779,11.802L7.095,11.802L7.414,10.125C7.799,10.027 8.161,9.873 8.492,9.671L9.805,10.57L10.737,9.631L9.842,8.302C10.035,7.977 10.183,7.624 10.278,7.249Z" atv:refpx="15.341" id="id_25" atv:refpy="36.175"/>
  <path fill="$SYMBOLCOLOR$" stroke-width="0.498" d="M11.955,5.679L11.955,6.355L8.973,6.355C8.973,4.945 7.839,3.8 6.441,3.8C5.043,3.8 3.91,4.944 3.91,6.355L0.927,6.355L0.927,5.679L2.603,5.356C2.699,4.979 2.848,4.624 3.042,4.299L2.15,2.973L3.081,2.033L4.393,2.932C4.721,2.732 5.079,2.579 5.46,2.481L5.779,0.802L7.095,0.802L7.414,2.479C7.799,2.577 8.161,2.731 8.492,2.933L9.805,2.033L10.737,2.973L9.843,4.302C10.035,4.627 10.183,4.98 10.279,5.355Z" atv:refpx="18.195" id="id_26" atv:refpy="11.915"/>
  <path fill="$SYMBOLCOLOR$" stroke-width="0.358" d="M18.807,11.842L18.553,11.217L15.789,12.336C16.318,13.643 15.696,15.129 14.4,15.653C13.105,16.177 11.625,15.543 11.096,14.236L8.331,15.355L8.584,15.981L10.26,15.652C10.491,15.965 10.761,16.238 11.063,16.467L10.733,18.031L11.948,18.552L12.828,17.227C13.207,17.29 13.596,17.297 13.986,17.245L14.912,18.682L16.131,18.188L15.798,16.513C16.117,16.279 16.395,15.999 16.626,15.687L18.181,16.027L18.693,14.808L17.364,13.911C17.421,13.538 17.426,13.155 17.373,12.771Z" atv:refpx="22.469" id="id_28" atv:refpy="45.939"/>
  <path fill="$SYMBOLCOLOR$" stroke-width="0.358" d="M18.339,10.688L18.592,11.314L15.828,12.433C15.299,11.126 13.818,10.491 12.522,11.017C11.226,11.541 10.605,13.025 11.135,14.333L8.37,15.453L8.116,14.827L9.549,13.897C9.497,13.513 9.501,13.128 9.558,12.754L8.234,11.86L8.745,10.639L10.298,10.979C10.527,10.671 10.801,10.394 11.118,10.16L10.783,8.484L12.003,7.991L12.928,9.425C13.322,9.372 13.715,9.379 14.098,9.443L14.978,8.116L16.195,8.637L15.864,10.205C16.165,10.433 16.434,10.706 16.663,11.017Z" atv:refpx="38.582" id="id_29" atv:refpy="20.059"/>
 </g>
</svg>
