<?xml version='1.0' encoding='UTF-8' standalone='no'?>
<svg xmlns:svg="http://www.w3.org/2000/svg" version="1.2" xmlns:rdf="http://www.w3.org/1999/02/22-rdf-syntax-ns#" xmlns:xlink="http://www.w3.org/1999/xlink" xmlns:dc="http://purl.org/dc/elements/1.1/" xmlns:cc="http://creativecommons.org/ns#" width="44" xmlns="http://www.w3.org/2000/svg" height="44" xmlns:atv="http://webmi.atvise.com/2007/svgext">
 <defs/>
 <metadata>
  <atv:gridconfig enabled="false" gridstyle="lines" width="20" height="20"/>
  <atv:snapconfig enabled="false" width="10" height="10"/>
 </metadata>
 <g id="id_2" atv:insensitive="true" atv:refpx="0" atv:refpy="0" transform="matrix(1,0,0,1,0,0)">
  <rect id="id_3" y="0" fill="#0000ff" fill-opacity="0" atv:refpx="22" atv:refpy="22" x="0" width="44.00" height="44.00"/>
 </g>
 <g id="id_1" atv:refpx="22" atv:refpy="22" transform="matrix(1,0,0,1,0,0)">
  <g id="layer1" atv:refpx="22" atv:refpy="22" transform="translate(-58.269755,-17.459439)">
   <g id="shape" atv:refpx="80.27" atv:refpy="39.459" transform="matrix(0.51612903,0,0,0.51663809,58.269755,9.817328)">
    <circle cy="50" id="circle94" fill="#993300" atv:refpx="50.042" atv:refpy="50" cx="50.042" r="35.208"/>
    <path id="path96" fill="#993300" atv:refpx="29" atv:refpy="49.667" d="M50,57.667L0,57.667L0,41.667L50,41.667C54.418,41.667 58,45.249 58,49.667C58,54.085 54.418,57.667 50,57.667"/>
    <path id="path98" fill="#993300" atv:refpx="4" atv:refpy="49.667" d="M8,60.667L0,60.667L0,38.667L8,38.667"/>
    <path id="path100" fill="#993300" atv:refpx="50.042" atv:refpy="92.121" d="M50.042,85.208C47.289,85.208 44.613,84.882 42.042,84.283L42.042,99.958L58.042,99.958L58.042,84.284C55.471,84.882 52.795,85.208 50.042,85.208"/>
    <rect id="rect102" y="91.958" fill="#993300" atv:refpx="50.042" atv:refpy="95.958" x="39.042" width="22" height="8"/>
   </g>
   <g id="dark" atv:refpx="79.99" atv:refpy="39.739" transform="matrix(0.51612903,0,0,0.51663809,58.269755,9.817328)">
    <path id="path105" fill="#702a00" atv:refpx="50.48" atv:refpy="50" d="M50.042,15.875C34.071,15.875 20.666,26.849 16.946,41.667L50,41.667C54.418,41.667 58,45.249 58,49.667C58,54.085 54.418,57.667 50,57.667L16.792,57.667C20.272,72.82 33.832,84.125 50.042,84.125C68.889,84.125 84.167,68.847 84.167,50C84.167,31.153 68.888,15.875 50.042,15.875"/>
    <path id="path107" fill="#702a00" atv:refpx="28.5" atv:refpy="49.667" d="M50,56.667C53.866,56.667 57,53.533 57,49.667C57,45.801 53.866,42.667 50,42.667L0,42.667L0,56.667Z"/>
    <path id="path109" fill="#702a00" atv:refpx="50.042" atv:refpy="92.234" d="M57.042,84.51C54.779,84.966 52.439,85.208 50.042,85.208C47.645,85.208 45.305,84.966 43.042,84.51L43.042,99.958L57.042,99.958Z"/>
   </g>
   <g id="light" atv:refpx="72.474" atv:refpy="47.177" transform="matrix(0.51612903,0,0,0.51663809,58.269755,9.817328)">
    <path id="path112" fill="#bc4512" atv:refpx="27.5" atv:refpy="49.667" d="M50,44.667L0,44.667L0,54.667L50,54.667C52.761,54.667 55,52.428 55,49.667C55,46.905 52.761,44.667 50,44.667"/>
    <path id="path114" fill="#bc4512" atv:refpx="50.042" atv:refpy="92.403" d="M55.042,84.848C53.408,85.08 51.74,85.208 50.042,85.208C48.344,85.208 46.676,85.081 45.042,84.848L45.042,99.958L55.042,99.958Z"/>
   </g>
   <g id="hlight" atv:refpx="72.087" atv:refpy="47.564" transform="matrix(0.51612903,0,0,0.51663809,58.269755,9.817328)">
    <path id="path117" fill="#eb9069" atv:refpx="26.75" atv:refpy="49.667" d="M50,53.167L0,53.167L0,46.167L50,46.167C51.933,46.167 53.5,47.734 53.5,49.667C53.5,51.6 51.933,53.167 50,53.167"/>
    <path id="path119" fill="#eb9069" atv:refpx="50.042" atv:refpy="92.496" d="M53.542,85.034C52.391,85.148 51.223,85.208 50.042,85.208C48.861,85.208 47.693,85.147 46.542,85.034L46.542,99.958L53.542,99.958Z"/>
   </g>
   <g id="shadow" atv:refpx="85.112" atv:refpy="35.665" transform="matrix(0.51612903,0,0,0.51663809,58.269755,9.817328)">
    <path id="path122" fill="#472000" atv:refpx="50.566" atv:refpy="50" d="M50.042,21.292C37.11,21.292 26.151,29.889 22.572,41.667L23.617,41.667C27.163,30.448 37.667,22.292 50.042,22.292C65.32,22.292 77.75,34.722 77.75,50C77.75,65.278 65.319,77.708 50.042,77.708C37.423,77.708 26.756,69.226 23.421,57.667L22.381,57.667C25.744,69.785 36.867,78.708 50.041,78.708C65.871,78.708 78.75,65.83 78.75,50C78.75,34.17 65.871,21.292 50.042,21.292"/>
    <path id="path124" fill="#472000" atv:refpx="51.174" atv:refpy="50" d="M50.042,35.792C45.322,35.792 41.144,38.115 38.559,41.667L39.806,41.667C42.23,38.695 45.916,36.792 50.042,36.792C57.325,36.792 63.25,42.717 63.25,50C63.25,57.283 57.324,63.208 50.042,63.208C45.619,63.208 41.706,61.015 39.308,57.667L38.099,57.667C40.629,61.595 45.032,64.208 50.041,64.208C57.875,64.208 64.25,57.833 64.25,50C64.25,42.166 57.876,35.792 50.042,35.792"/>
    <polygon id="polygon126" points="50.963,19.823 49.037,19.823 48.074,18.155 49.037,16.488 50.963,16.488 51.926,18.155 " fill="#472000" atv:refpx="50" atv:refpy="18.155"/>
    <polygon id="polygon128" points="50.963,40.823 49.037,40.823 48.074,39.155 49.037,37.488 50.963,37.488 51.926,39.155 " fill="#472000" atv:refpx="50" atv:refpy="39.156"/>
    <polygon id="polygon130" points="50.963,62.323 49.037,62.323 48.074,60.655 49.037,58.988 50.963,58.988 51.926,60.655 " fill="#472000" atv:refpx="50" atv:refpy="60.656"/>
    <polygon id="polygon132" points="61.235,55.28 60.273,56.948 58.347,56.948 57.384,55.28 58.347,53.613 60.273,53.613 " fill="#472000" atv:refpx="59.309" atv:refpy="55.281"/>
    <polygon id="polygon134" points="60.273,42.863 61.235,44.53 60.273,46.198 58.347,46.198 57.384,44.53 58.347,42.863 " fill="#472000" atv:refpx="59.309" atv:refpy="44.531"/>
    <polygon id="polygon136" points="50.963,83.573 49.037,83.573 48.074,81.905 49.037,80.238 50.963,80.238 51.926,81.905 " fill="#472000" atv:refpx="50" atv:refpy="81.905"/>
    <polygon id="polygon138" points="35.73,23.389 34.063,24.351 32.395,23.389 32.395,21.463 34.063,20.5 35.73,21.463 " fill="#472000" atv:refpx="34.063" atv:refpy="22.425"/>
    <polygon id="polygon140" points="67.605,78.598 65.938,79.56 64.27,78.598 64.27,76.672 65.938,75.709 67.605,76.672 " fill="#472000" atv:refpx="65.938" atv:refpy="77.635"/>
    <polygon id="polygon142" points="24.321,34.093 23.358,35.76 21.433,35.76 20.47,34.093 21.433,32.425 23.358,32.425 " fill="#472000" atv:refpx="22.395" atv:refpy="34.093"/>
    <polygon id="polygon144" points="79.53,65.968 78.567,67.635 76.642,67.635 75.679,65.968 76.642,64.3 78.567,64.3 " fill="#472000" atv:refpx="77.605" atv:refpy="65.968"/>
    <polygon id="polygon146" points="83.543,49.067 83.543,50.993 81.875,51.956 80.207,50.993 80.207,49.067 81.875,48.105 " fill="#472000" atv:refpx="81.875" atv:refpy="50.031"/>
    <polygon id="polygon148" points="23.358,64.3 24.321,65.968 23.358,67.635 21.433,67.635 20.47,65.968 21.433,64.3 " fill="#472000" atv:refpx="22.395" atv:refpy="65.968"/>
    <polygon id="polygon150" points="78.567,32.425 79.53,34.093 78.567,35.76 76.642,35.76 75.679,34.093 76.642,32.425 " fill="#472000" atv:refpx="77.605" atv:refpy="34.093"/>
    <polygon id="polygon152" points="34.063,75.709 35.73,76.672 35.73,78.598 34.063,79.56 32.395,78.598 32.395,76.672 " fill="#472000" atv:refpx="34.063" atv:refpy="77.635"/>
    <polygon id="polygon154" points="65.938,20.5 67.605,21.463 67.605,23.389 65.938,24.351 64.27,23.389 64.27,21.463 " fill="#472000" atv:refpx="65.938" atv:refpy="22.425"/>
   </g>
  </g>
 </g>
</svg>
