<svg width="42" height="42" viewBox="0 0 42 42" fill="none" xmlns="http://www.w3.org/2000/svg">
<path d="M42 0H0V42H42V0Z" fill="url(#paint0_linear)"/>
<path d="M6.75867 32.3448H13.0345V10.1379H6.75867V32.3448Z" fill="white"/>
<path d="M30.4138 32.3448H37.1724L32.3448 25.5862C35.2413 24.1379 36.6896 21.7241 36.6896 18.3448C36.6896 13.0345 32.8275 10.1379 27.0344 10.1379H17.3793V32.3448H23.1724V26.5517H26.5517L30.4138 32.3448ZM30.4138 18.3448C30.4138 20.2759 29.4482 21.7241 26.5517 21.7241H23.1724V14.9655H26.5517C29.4482 14.9655 30.4138 16.4138 30.4138 18.3448Z" fill="white"/>
<defs>
<linearGradient id="paint0_linear" x1="1.03183e-06" y1="-0.48276" x2="43.4483" y2="44.4138" gradientUnits="userSpaceOnUse">
<stop stop-color="#1890FF"/>
<stop offset="1" stop-color="#1F1F1F"/>
</linearGradient>
</defs>
</svg>
