<?xml version='1.0' encoding='UTF-8' standalone='no'?>
<!-- Created with Inkscape (http://www.inkscape.org/) -->
<svg height="9.33" id="svg3920" xmlns:sodipodi="http://sodipodi.sourceforge.net/DTD/sodipodi-0.dtd" sodipodi:docname="world_of_visualization.svg" version="1.1" width="141.08" xmlns:svg="http://www.w3.org/2000/svg" xmlns:rdf="http://www.w3.org/1999/02/22-rdf-syntax-ns#" xmlns:inkscape="http://www.inkscape.org/namespaces/inkscape" xmlns:dc="http://purl.org/dc/elements/1.1/" xmlns="http://www.w3.org/2000/svg" xmlns:cc="http://creativecommons.org/ns#" xmlns:xlink="http://www.w3.org/1999/xlink" inkscape:version="0.92.4 (5da689c313, 2019-01-14)" xmlns:atv="http://webmi.atvise.com/2007/svgext">
 <defs id="defs3914"/>
 <sodipodi:namedview inkscape:cx="-75.714286" inkscape:window-x="1912" id="base" inkscape:current-layer="layer1" inkscape:window-maximized="1" showgrid="false" bordercolor="#666666" pagecolor="#ffffff" inkscape:window-width="1920" inkscape:document-units="mm" inkscape:zoom="0.35" inkscape:pageopacity="0.0" inkscape:window-y="114" inkscape:pageshadow="2" borderopacity="1.0" inkscape:cy="560" inkscape:window-height="1017"/>
 <metadata id="metadata3917">
  <rdf:RDF>
   <cc:Work rdf:about="">
    <dc:format>image/svg+xml</dc:format>
    <dc:type rdf:resource="http://purl.org/dc/dcmitype/StillImage"/>
    <dc:title/>
   </cc:Work>
  </rdf:RDF>
  <atv:gridconfig height="20" gridstyle="lines" width="20" enabled="false"/>
  <atv:snapconfig height="10" width="10" enabled="false"/>
 </metadata>
 <g id="layer1" atv:refpy="4.663" atv:refpx="70.538" inkscape:groupmode="layer" transform="matrix(1,0,0,1,-11.4137,-9.6752)" inkscape:label="Ebene 1">
  <g id="text3924" atv:refpy="14.338" atv:refpx="81.952">
   <path d="M14.104,18.809L13.218,18.809L13.218,10.667L11.413,10.667L11.413,9.78L15.909,9.78L15.909,10.667L14.104,10.667Z" id="path3926" font-family="'AvantGarde Bk BT'" stroke-width="0.26458332" font-weight="normal" font-size="12.69999981px" atv:refpy="14.295" style="-inkscape-font-specification:'AvantGarde Bk BT, Normal';font-feature-settings:normal;font-stretch:normal;font-variant-numeric:normal;text-align:start;font-variant-ligatures:normal;writing-mode:lr-tb;font-variant:normal;font-variant-caps:normal" aria-label="The world of Visualization." atv:refpx="13.662" fill="#000000" text-anchor="start" stroke="none" font-style="normal" fill-opacity="1"/>
   <path d="M16.69,9.78L17.552,9.78L17.552,12.788C17.805,12.478 18.106,12.244 18.458,12.087C18.813,11.93 19.21,11.851 19.648,11.851C20.607,11.851 21.306,12.126 21.744,12.676C22.183,13.222 22.402,14.111 22.402,15.343L22.402,18.809L21.54,18.809L21.54,15.33C21.54,14.342 21.391,13.656 21.093,13.271C20.796,12.883 20.297,12.688 19.599,12.688C19.202,12.688 18.853,12.769 18.551,12.93C18.253,13.087 18.017,13.315 17.844,13.612C17.736,13.798 17.66,14.011 17.614,14.251C17.573,14.487 17.552,14.9 17.552,15.491L17.552,18.809L16.69,18.809Z" id="path3928" font-family="'AvantGarde Bk BT'" stroke-width="0.26458332" font-weight="normal" font-size="12.69999981px" atv:refpy="14.295" style="-inkscape-font-specification:'AvantGarde Bk BT, Normal';font-feature-settings:normal;font-stretch:normal;font-variant-numeric:normal;text-align:start;font-variant-ligatures:normal;writing-mode:lr-tb;font-variant:normal;font-variant-caps:normal" aria-label="The world of Visualization." atv:refpx="19.547" fill="#000000" text-anchor="start" stroke="none" font-style="normal" fill-opacity="1"/>
   <path d="M30.488,15.671L24.33,15.671C24.384,16.415 24.653,17.017 25.136,17.476C25.62,17.935 26.224,18.164 26.947,18.164C27.46,18.164 27.921,18.032 28.33,17.767C28.739,17.499 29.056,17.126 29.279,16.651L30.271,16.651C29.957,17.408 29.514,17.988 28.944,18.394C28.378,18.799 27.72,19.001 26.972,19.001C25.98,19.001 25.141,18.648 24.454,17.941C23.768,17.234 23.425,16.384 23.425,15.392C23.425,14.355 23.76,13.497 24.429,12.819C25.103,12.141 25.963,11.802 27.009,11.802C28.034,11.802 28.869,12.155 29.514,12.862C30.163,13.565 30.488,14.481 30.488,15.609ZM29.521,14.933C29.355,14.168 29.051,13.594 28.609,13.209C28.167,12.821 27.59,12.626 26.879,12.626C26.217,12.626 25.657,12.835 25.198,13.253C24.74,13.666 24.458,14.226 24.355,14.933Z" id="path3930" font-family="'AvantGarde Bk BT'" stroke-width="0.26458332" font-weight="normal" font-size="12.69999981px" atv:refpy="15.402" style="-inkscape-font-specification:'AvantGarde Bk BT, Normal';font-feature-settings:normal;font-stretch:normal;font-variant-numeric:normal;text-align:start;font-variant-ligatures:normal;writing-mode:lr-tb;font-variant:normal;font-variant-caps:normal" aria-label="The world of Visualization." atv:refpx="26.957" fill="#000000" text-anchor="start" stroke="none" font-style="normal" fill-opacity="1"/>
   <path d="M40.683,17.097L42.332,11.988L43.262,11.988L40.962,18.809L40.391,18.809L38.791,13.612L37.216,18.809L36.646,18.809L34.345,11.988L35.257,11.988L36.925,17.097L38.488,11.988L39.12,11.988Z" id="path3932" font-family="'AvantGarde Bk BT'" stroke-width="0.26458332" font-weight="normal" font-size="12.69999981px" atv:refpy="15.399" style="-inkscape-font-specification:'AvantGarde Bk BT, Normal';font-feature-settings:normal;font-stretch:normal;font-variant-numeric:normal;text-align:start;font-variant-ligatures:normal;writing-mode:lr-tb;font-variant:normal;font-variant-caps:normal" aria-label="The world of Visualization." atv:refpx="38.804" fill="#000000" text-anchor="start" stroke="none" font-style="normal" fill-opacity="1"/>
   <path d="M44.434,15.392C44.434,16.178 44.685,16.837 45.185,17.37C45.685,17.9 46.307,18.164 47.051,18.164C47.783,18.164 48.397,17.9 48.893,17.37C49.389,16.837 49.637,16.174 49.637,15.38C49.637,14.574 49.385,13.912 48.881,13.395C48.38,12.875 47.744,12.614 46.971,12.614C46.276,12.614 45.679,12.881 45.179,13.414C44.682,13.947 44.434,14.607 44.434,15.392M43.517,15.405C43.517,14.404 43.86,13.548 44.546,12.837C45.232,12.126 46.045,11.771 46.983,11.771C47.971,11.771 48.812,12.12 49.507,12.819C50.206,13.517 50.555,14.35 50.555,15.318C50.555,16.335 50.214,17.203 49.532,17.922C48.85,18.642 48.023,19.001 47.051,19.001C46.063,19.001 45.226,18.65 44.54,17.947C43.858,17.24 43.517,16.393 43.517,15.405" id="path3934" font-family="'AvantGarde Bk BT'" stroke-width="0.26458332" font-weight="normal" font-size="12.69999981px" atv:refpy="15.386" style="-inkscape-font-specification:'AvantGarde Bk BT, Normal';font-feature-settings:normal;font-stretch:normal;font-variant-numeric:normal;text-align:start;font-variant-ligatures:normal;writing-mode:lr-tb;font-variant:normal;font-variant-caps:normal" aria-label="The world of Visualization." atv:refpx="47.036" fill="#000000" text-anchor="start" stroke="none" font-style="normal" fill-opacity="1"/>
   <path d="M52.453,18.809L51.566,18.809L51.566,11.988L52.391,11.988L52.391,12.775C52.606,12.473 52.839,12.252 53.091,12.112C53.348,11.971 53.645,11.897 53.984,11.889L53.99,12.837C53.441,12.887 53.046,13.052 52.806,13.333C52.57,13.61 52.453,14.063 52.453,14.691Z" id="path3936" font-family="'AvantGarde Bk BT'" stroke-width="0.26458332" font-weight="normal" font-size="12.69999981px" atv:refpy="15.349" style="-inkscape-font-specification:'AvantGarde Bk BT, Normal';font-feature-settings:normal;font-stretch:normal;font-variant-numeric:normal;text-align:start;font-variant-ligatures:normal;writing-mode:lr-tb;font-variant:normal;font-variant-caps:normal" aria-label="The world of Visualization." atv:refpx="52.779" fill="#000000" text-anchor="start" stroke="none" font-style="normal" fill-opacity="1"/>
   <path d="M54.766,18.809L54.766,9.78L55.64,9.78L55.64,18.809Z" id="path3938" font-family="'AvantGarde Bk BT'" stroke-width="0.26458332" font-weight="normal" font-size="12.69999981px" atv:refpy="14.295" style="-inkscape-font-specification:'AvantGarde Bk BT, Normal';font-feature-settings:normal;font-stretch:normal;font-variant-numeric:normal;text-align:start;font-variant-ligatures:normal;writing-mode:lr-tb;font-variant:normal;font-variant-caps:normal" aria-label="The world of Visualization." atv:refpx="55.203" fill="#000000" text-anchor="start" stroke="none" font-style="normal" fill-opacity="1"/>
   <path d="M62.821,15.467C62.821,14.689 62.563,14.026 62.046,13.476C61.533,12.926 60.93,12.651 60.235,12.651C59.516,12.651 58.9,12.914 58.387,13.439C57.874,13.96 57.618,14.598 57.618,15.355C57.618,16.153 57.874,16.823 58.387,17.364C58.904,17.906 59.528,18.177 60.26,18.177C60.934,18.177 61.529,17.906 62.046,17.364C62.563,16.823 62.821,16.19 62.821,15.467M62.796,13.067L62.796,11.547L62.796,9.78L63.677,9.78L63.677,18.809L62.796,18.809L62.796,17.78C62.49,18.16 62.11,18.458 61.655,18.673C61.2,18.883 60.719,18.989 60.21,18.989C59.226,18.989 58.397,18.642 57.724,17.947C57.05,17.253 56.713,16.401 56.713,15.392C56.713,14.392 57.046,13.55 57.711,12.868C58.377,12.182 59.21,11.839 60.21,11.839C60.748,11.839 61.235,11.944 61.674,12.155C62.116,12.362 62.49,12.666 62.796,13.067" id="path3940" font-family="'AvantGarde Bk BT'" stroke-width="0.26458332" font-weight="normal" font-size="12.69999981px" atv:refpy="14.385" style="-inkscape-font-specification:'AvantGarde Bk BT, Normal';font-feature-settings:normal;font-stretch:normal;font-variant-numeric:normal;text-align:start;font-variant-ligatures:normal;writing-mode:lr-tb;font-variant:normal;font-variant-caps:normal" aria-label="The world of Visualization." atv:refpx="60.195" fill="#000000" text-anchor="start" stroke="none" font-style="normal" fill-opacity="1"/>
   <path d="M69.214,15.392C69.214,16.178 69.464,16.837 69.965,17.37C70.465,17.9 71.087,18.164 71.831,18.164C72.563,18.164 73.177,17.9 73.673,17.37C74.169,16.837 74.417,16.174 74.417,15.38C74.417,14.574 74.165,13.912 73.661,13.395C73.16,12.875 72.524,12.614 71.751,12.614C71.056,12.614 70.459,12.881 69.958,13.414C69.462,13.947 69.214,14.607 69.214,15.392M68.297,15.405C68.297,14.404 68.64,13.548 69.326,12.837C70.012,12.126 70.825,11.771 71.763,11.771C72.751,11.771 73.592,12.12 74.287,12.819C74.986,13.517 75.335,14.35 75.335,15.318C75.335,16.335 74.994,17.203 74.312,17.922C73.63,18.642 72.803,19.001 71.831,19.001C70.843,19.001 70.006,18.65 69.32,17.947C68.638,17.24 68.297,16.393 68.297,15.405" id="path3942" font-family="'AvantGarde Bk BT'" stroke-width="0.26458332" font-weight="normal" font-size="12.69999981px" atv:refpy="15.386" style="-inkscape-font-specification:'AvantGarde Bk BT, Normal';font-feature-settings:normal;font-stretch:normal;font-variant-numeric:normal;text-align:start;font-variant-ligatures:normal;writing-mode:lr-tb;font-variant:normal;font-variant-caps:normal" aria-label="The world of Visualization." atv:refpx="71.816" fill="#000000" text-anchor="start" stroke="none" font-style="normal" fill-opacity="1"/>
   <path d="M77.573,18.809L76.724,18.809L76.724,12.75L75.812,12.75L75.812,11.988L76.687,11.988L76.687,11.802C76.687,11.078 76.869,10.543 77.232,10.196C77.6,9.848 78.163,9.675 78.919,9.675L79,9.675L79,10.462C78.475,10.471 78.103,10.576 77.884,10.779C77.669,10.977 77.561,11.318 77.561,11.802L77.561,11.988L79,11.988L79,12.75L77.573,12.75Z" id="path3944" font-family="'AvantGarde Bk BT'" stroke-width="0.26458332" font-weight="normal" font-size="12.69999981px" atv:refpy="14.242" style="-inkscape-font-specification:'AvantGarde Bk BT, Normal';font-feature-settings:normal;font-stretch:normal;font-variant-numeric:normal;text-align:start;font-variant-ligatures:normal;writing-mode:lr-tb;font-variant:normal;font-variant-caps:normal" aria-label="The world of Visualization." atv:refpx="77.407" fill="#000000" text-anchor="start" stroke="none" font-style="normal" fill-opacity="1"/>
   <path d="M82.497,9.78L83.384,9.78L86.243,17.476L89.114,9.78L90.001,9.78L86.602,18.809L85.902,18.809Z" id="path3946" font-family="'AvantGarde Bk BT'" stroke-width="0.26458332" font-weight="normal" font-size="12.69999981px" atv:refpy="14.295" style="-inkscape-font-specification:'AvantGarde Bk BT, Normal';font-feature-settings:normal;font-stretch:normal;font-variant-numeric:normal;text-align:start;font-variant-ligatures:normal;writing-mode:lr-tb;font-variant:normal;font-variant-caps:normal" aria-label="The world of Visualization." atv:refpx="86.249" fill="#000000" text-anchor="start" stroke="none" font-style="normal" fill-opacity="1"/>
   <path d="M91.408,11.188L90.534,11.188L90.534,9.78L91.408,9.78ZM90.534,18.809L90.534,11.988L91.408,11.988L91.408,18.809Z" id="path3948" font-family="'AvantGarde Bk BT'" stroke-width="0.26458332" font-weight="normal" font-size="12.69999981px" atv:refpy="14.295" style="-inkscape-font-specification:'AvantGarde Bk BT, Normal';font-feature-settings:normal;font-stretch:normal;font-variant-numeric:normal;text-align:start;font-variant-ligatures:normal;writing-mode:lr-tb;font-variant:normal;font-variant-caps:normal" aria-label="The world of Visualization." atv:refpx="90.972" fill="#000000" text-anchor="start" stroke="none" font-style="normal" fill-opacity="1"/>
   <path d="M92.394,16.663L93.293,16.663L93.293,16.688C93.293,17.114 93.415,17.467 93.659,17.749C93.903,18.026 94.205,18.164 94.565,18.164C94.908,18.164 95.193,18.057 95.42,17.842C95.648,17.627 95.762,17.356 95.762,17.029C95.762,16.703 95.671,16.44 95.489,16.242C95.311,16.043 94.986,15.857 94.515,15.684C93.759,15.415 93.265,15.14 93.033,14.859C92.801,14.578 92.686,14.202 92.686,13.73C92.686,13.197 92.878,12.744 93.262,12.372C93.651,12 94.12,11.814 94.67,11.814C95.253,11.814 95.716,11.979 96.059,12.31C96.402,12.641 96.586,13.102 96.611,13.693L95.675,13.693C95.654,13.371 95.551,13.12 95.365,12.943C95.183,12.765 94.933,12.676 94.614,12.676C94.329,12.676 94.091,12.773 93.901,12.968C93.711,13.158 93.616,13.395 93.616,13.681C93.616,13.883 93.655,14.055 93.734,14.195C93.812,14.332 93.943,14.456 94.124,14.567C94.29,14.671 94.53,14.77 94.844,14.865C95.162,14.96 95.375,15.03 95.482,15.076C95.908,15.258 96.22,15.5 96.419,15.801C96.621,16.103 96.723,16.488 96.723,16.955C96.723,17.542 96.518,18.028 96.109,18.412C95.7,18.797 95.181,18.989 94.552,18.989C93.912,18.989 93.397,18.78 93.008,18.363C92.62,17.941 92.415,17.374 92.394,16.663Z" id="path3950" font-family="'AvantGarde Bk BT'" stroke-width="0.26458332" font-weight="normal" font-size="12.69999981px" atv:refpy="15.402" style="-inkscape-font-specification:'AvantGarde Bk BT, Normal';font-feature-settings:normal;font-stretch:normal;font-variant-numeric:normal;text-align:start;font-variant-ligatures:normal;writing-mode:lr-tb;font-variant:normal;font-variant-caps:normal" aria-label="The world of Visualization." atv:refpx="94.559" fill="#000000" text-anchor="start" stroke="none" font-style="normal" fill-opacity="1"/>
   <path d="M97.74,11.988L98.602,11.988L98.602,15.609C98.602,16.539 98.753,17.199 99.054,17.587C99.356,17.972 99.852,18.164 100.543,18.164C100.935,18.164 101.281,18.086 101.578,17.928C101.876,17.767 102.116,17.536 102.298,17.234C102.401,17.056 102.475,16.847 102.521,16.608C102.566,16.364 102.589,15.942 102.589,15.343L102.589,11.988L103.463,11.988L103.463,18.809L102.589,18.809L102.589,18.071C102.324,18.394 102.029,18.627 101.702,18.772C101.376,18.917 100.981,18.989 100.518,18.989C99.534,18.989 98.825,18.724 98.391,18.195C97.957,17.662 97.74,16.779 97.74,15.547Z" id="path3952" font-family="'AvantGarde Bk BT'" stroke-width="0.26458332" font-weight="normal" font-size="12.69999981px" atv:refpy="15.489" style="-inkscape-font-specification:'AvantGarde Bk BT, Normal';font-feature-settings:normal;font-stretch:normal;font-variant-numeric:normal;text-align:start;font-variant-ligatures:normal;writing-mode:lr-tb;font-variant:normal;font-variant-caps:normal" aria-label="The world of Visualization." atv:refpx="100.602" fill="#000000" text-anchor="start" stroke="none" font-style="normal" fill-opacity="1"/>
   <path d="M110.62,15.355C110.62,14.632 110.361,14.001 109.844,13.464C109.328,12.922 108.732,12.651 108.058,12.651C107.327,12.651 106.702,12.922 106.186,13.464C105.673,14.001 105.417,14.669 105.417,15.467C105.417,16.227 105.673,16.87 106.186,17.395C106.698,17.916 107.314,18.177 108.034,18.177C108.728,18.177 109.332,17.902 109.844,17.352C110.361,16.798 110.62,16.132 110.62,15.355M110.62,17.73C110.347,18.123 109.977,18.431 109.51,18.654C109.046,18.877 108.546,18.989 108.009,18.989C107.008,18.989 106.175,18.648 105.51,17.966C104.844,17.279 104.511,16.434 104.511,15.429C104.511,14.408 104.85,13.555 105.528,12.868C106.21,12.182 107.062,11.839 108.083,11.839C108.608,11.839 109.09,11.946 109.528,12.161C109.966,12.372 110.33,12.678 110.62,13.079L110.62,11.988L111.475,11.988L111.475,18.809L110.62,18.809Z" id="path3954" font-family="'AvantGarde Bk BT'" stroke-width="0.26458332" font-weight="normal" font-size="12.69999981px" atv:refpy="15.414" style="-inkscape-font-specification:'AvantGarde Bk BT, Normal';font-feature-settings:normal;font-stretch:normal;font-variant-numeric:normal;text-align:start;font-variant-ligatures:normal;writing-mode:lr-tb;font-variant:normal;font-variant-caps:normal" aria-label="The world of Visualization." atv:refpx="107.994" fill="#000000" text-anchor="start" stroke="none" font-style="normal" fill-opacity="1"/>
   <path d="M112.883,18.809L112.883,9.78L113.757,9.78L113.757,18.809Z" id="path3956" font-family="'AvantGarde Bk BT'" stroke-width="0.26458332" font-weight="normal" font-size="12.69999981px" atv:refpy="14.295" style="-inkscape-font-specification:'AvantGarde Bk BT, Normal';font-feature-settings:normal;font-stretch:normal;font-variant-numeric:normal;text-align:start;font-variant-ligatures:normal;writing-mode:lr-tb;font-variant:normal;font-variant-caps:normal" aria-label="The world of Visualization." atv:refpx="113.321" fill="#000000" text-anchor="start" stroke="none" font-style="normal" fill-opacity="1"/>
   <path d="M116.064,11.188L115.19,11.188L115.19,9.78L116.064,9.78ZM115.19,18.809L115.19,11.988L116.064,11.988L116.064,18.809Z" id="path3958" font-family="'AvantGarde Bk BT'" stroke-width="0.26458332" font-weight="normal" font-size="12.69999981px" atv:refpy="14.295" style="-inkscape-font-specification:'AvantGarde Bk BT, Normal';font-feature-settings:normal;font-stretch:normal;font-variant-numeric:normal;text-align:start;font-variant-ligatures:normal;writing-mode:lr-tb;font-variant:normal;font-variant-caps:normal" aria-label="The world of Visualization." atv:refpx="115.627" fill="#000000" text-anchor="start" stroke="none" font-style="normal" fill-opacity="1"/>
   <path d="M121.62,18.809L116.908,18.809L116.908,17.984L120.467,12.812L117.304,12.812L117.304,11.988L121.434,11.988L121.434,12.93L117.949,17.935L121.62,17.935Z" id="path3960" font-family="'AvantGarde Bk BT'" stroke-width="0.26458332" font-weight="normal" font-size="12.69999981px" atv:refpy="15.399" style="-inkscape-font-specification:'AvantGarde Bk BT, Normal';font-feature-settings:normal;font-stretch:normal;font-variant-numeric:normal;text-align:start;font-variant-ligatures:normal;writing-mode:lr-tb;font-variant:normal;font-variant-caps:normal" aria-label="The world of Visualization." atv:refpx="119.264" fill="#000000" text-anchor="start" stroke="none" font-style="normal" fill-opacity="1"/>
   <path d="M128.355,15.355C128.355,14.632 128.097,14.001 127.58,13.464C127.063,12.922 126.468,12.651 125.794,12.651C125.062,12.651 124.438,12.922 123.921,13.464C123.408,14.001 123.152,14.669 123.152,15.467C123.152,16.227 123.408,16.87 123.921,17.395C124.434,17.916 125.05,18.177 125.769,18.177C126.464,18.177 127.067,17.902 127.58,17.352C128.097,16.798 128.355,16.132 128.355,15.355M128.355,17.73C128.082,18.123 127.712,18.431 127.245,18.654C126.782,18.877 126.282,18.989 125.744,18.989C124.744,18.989 123.911,18.648 123.245,17.966C122.58,17.279 122.247,16.434 122.247,15.429C122.247,14.408 122.586,13.555 123.264,12.868C123.946,12.182 124.797,11.839 125.819,11.839C126.344,11.839 126.825,11.946 127.263,12.161C127.702,12.372 128.065,12.678 128.355,13.079L128.355,11.988L129.211,11.988L129.211,18.809L128.355,18.809Z" id="path3962" font-family="'AvantGarde Bk BT'" stroke-width="0.26458332" font-weight="normal" font-size="12.69999981px" atv:refpy="15.414" style="-inkscape-font-specification:'AvantGarde Bk BT, Normal';font-feature-settings:normal;font-stretch:normal;font-variant-numeric:normal;text-align:start;font-variant-ligatures:normal;writing-mode:lr-tb;font-variant:normal;font-variant-caps:normal" aria-label="The world of Visualization." atv:refpx="125.729" fill="#000000" text-anchor="start" stroke="none" font-style="normal" fill-opacity="1"/>
   <path d="M131.201,18.809L131.201,12.868L129.905,12.868L129.905,11.988L131.201,11.988L131.201,9.78L132.076,9.78L132.076,11.988L133.372,11.988L133.372,12.868L132.076,12.868L132.076,18.809Z" id="path3964" font-family="'AvantGarde Bk BT'" stroke-width="0.26458332" font-weight="normal" font-size="12.69999981px" atv:refpy="14.295" style="-inkscape-font-specification:'AvantGarde Bk BT, Normal';font-feature-settings:normal;font-stretch:normal;font-variant-numeric:normal;text-align:start;font-variant-ligatures:normal;writing-mode:lr-tb;font-variant:normal;font-variant-caps:normal" aria-label="The world of Visualization." atv:refpx="131.639" fill="#000000" text-anchor="start" stroke="none" font-style="normal" fill-opacity="1"/>
   <path d="M134.965,11.188L134.091,11.188L134.091,9.78L134.965,9.78ZM134.091,18.809L134.091,11.988L134.965,11.988L134.965,18.809Z" id="path3966" font-family="'AvantGarde Bk BT'" stroke-width="0.26458332" font-weight="normal" font-size="12.69999981px" atv:refpy="14.295" style="-inkscape-font-specification:'AvantGarde Bk BT, Normal';font-feature-settings:normal;font-stretch:normal;font-variant-numeric:normal;text-align:start;font-variant-ligatures:normal;writing-mode:lr-tb;font-variant:normal;font-variant-caps:normal" aria-label="The world of Visualization." atv:refpx="134.529" fill="#000000" text-anchor="start" stroke="none" font-style="normal" fill-opacity="1"/>
   <path d="M136.931,15.392C136.931,16.178 137.181,16.837 137.681,17.37C138.182,17.9 138.804,18.164 139.548,18.164C140.28,18.164 140.894,17.9 141.39,17.37C141.886,16.837 142.134,16.174 142.134,15.38C142.134,14.574 141.882,13.912 141.377,13.395C140.877,12.875 140.24,12.614 139.467,12.614C138.773,12.614 138.175,12.881 137.675,13.414C137.179,13.947 136.931,14.607 136.931,15.392M136.013,15.405C136.013,14.404 136.356,13.548 137.043,12.837C137.729,12.126 138.541,11.771 139.48,11.771C140.468,11.771 141.309,12.12 142.004,12.819C142.702,13.517 143.052,14.35 143.052,15.318C143.052,16.335 142.711,17.203 142.028,17.922C141.346,18.642 140.52,19.001 139.548,19.001C138.56,19.001 137.723,18.65 137.037,17.947C136.354,17.24 136.013,16.393 136.013,15.405" id="path3968" font-family="'AvantGarde Bk BT'" stroke-width="0.26458332" font-weight="normal" font-size="12.69999981px" atv:refpy="15.386" style="-inkscape-font-specification:'AvantGarde Bk BT, Normal';font-feature-settings:normal;font-stretch:normal;font-variant-numeric:normal;text-align:start;font-variant-ligatures:normal;writing-mode:lr-tb;font-variant:normal;font-variant-caps:normal" aria-label="The world of Visualization." atv:refpx="139.533" fill="#000000" text-anchor="start" stroke="none" font-style="normal" fill-opacity="1"/>
   <path d="M144.075,11.988L144.924,11.988L144.924,12.763C145.193,12.453 145.503,12.223 145.855,12.075C146.21,11.926 146.615,11.851 147.07,11.851C147.57,11.851 148.015,11.944 148.403,12.13C148.796,12.316 149.106,12.583 149.333,12.93C149.491,13.174 149.602,13.462 149.668,13.792C149.739,14.119 149.774,14.603 149.774,15.243L149.774,18.809L148.912,18.809L148.912,14.989C148.912,14.183 148.757,13.598 148.447,13.234C148.141,12.87 147.649,12.688 146.971,12.688C146.574,12.688 146.225,12.769 145.923,12.93C145.625,13.087 145.39,13.315 145.216,13.612C145.108,13.798 145.032,14.011 144.986,14.251C144.945,14.487 144.924,14.9 144.924,15.491L144.924,18.809L144.075,18.809Z" id="path3970" font-family="'AvantGarde Bk BT'" stroke-width="0.26458332" font-weight="normal" font-size="12.69999981px" atv:refpy="15.331" style="-inkscape-font-specification:'AvantGarde Bk BT, Normal';font-feature-settings:normal;font-stretch:normal;font-variant-numeric:normal;text-align:start;font-variant-ligatures:normal;writing-mode:lr-tb;font-variant:normal;font-variant-caps:normal" aria-label="The world of Visualization." atv:refpx="146.925" fill="#000000" text-anchor="start" stroke="none" font-style="normal" fill-opacity="1"/>
   <path d="M152.49,18.809L151.603,18.809L151.603,17.16L152.49,17.16Z" id="path3972" font-family="'AvantGarde Bk BT'" stroke-width="0.26458332" font-weight="normal" font-size="12.69999981px" atv:refpy="17.985" style="-inkscape-font-specification:'AvantGarde Bk BT, Normal';font-feature-settings:normal;font-stretch:normal;font-variant-numeric:normal;text-align:start;font-variant-ligatures:normal;writing-mode:lr-tb;font-variant:normal;font-variant-caps:normal" aria-label="The world of Visualization." atv:refpx="152.047" fill="#000000" text-anchor="start" stroke="none" font-style="normal" fill-opacity="1"/>
  </g>
 </g>
</svg>
