<?xml version='1.0' encoding='UTF-8' standalone='no'?>
<svg width="187.47646" xmlns:cc="http://creativecommons.org/ns#" xmlns:svg="http://www.w3.org/2000/svg" xmlns:dc="http://purl.org/dc/elements/1.1/" xmlns="http://www.w3.org/2000/svg" xmlns:sodipodi="http://sodipodi.sourceforge.net/DTD/sodipodi-0.dtd" xmlns:inkscape="http://www.inkscape.org/namespaces/inkscape" sodipodi:docname="Motor1_grey.svg" inkscape:version="1.0beta1 (d07a077, 2019-11-03)" id="svg8" xmlns:atv="http://webmi.atvise.com/2007/svgext" xmlns:xlink="http://www.w3.org/1999/xlink" height="135.08318" xmlns:rdf="http://www.w3.org/1999/02/22-rdf-syntax-ns#" version="1.1">
 <defs id="defs2"/>
 <sodipodi:namedview inkscape:window-width="1644" inkscape:document-units="mm" inkscape:current-layer="layer1" inkscape:window-maximized="0" inkscape:document-rotation="0" showgrid="false" inkscape:window-height="951" inkscape:window-x="104" inkscape:pageshadow="2" id="base" borderopacity="1.0" inkscape:cx="527.14336" inkscape:cy="412.41814" inkscape:zoom="0.35" bordercolor="#666666" pagecolor="#ffffff" inkscape:window-y="23" inkscape:pageopacity="0.0"/>
 <metadata id="metadata5">
  <rdf:RDF>
   <cc:Work rdf:about="">
    <dc:format>image/svg+xml</dc:format>
    <dc:type rdf:resource="http://purl.org/dc/dcmitype/StillImage"/>
    <dc:title/>
   </cc:Work>
  </rdf:RDF>
  <atv:gridconfig width="20" gridstyle="lines" enabled="false" height="20"/>
  <atv:snapconfig width="10" enabled="false" height="10"/>
 </metadata>
 <g inkscape:label="Слой 1" inkscape:groupmode="layer" id="layer1" atv:refpx="93.738" transform="translate(33.640013,-39.047699)" atv:refpy="67.542">
  <g id="g73" atv:refpx="60.098" transform="matrix(1.8747458,0,0,2.2848207,-33.640013,-8.3783239)" atv:refpy="106.589">
   <g id="shape" atv:refpx="50" atv:refpy="50.318">
    <path id="path51" atv:refpx="50" fill="#B3B3B3" d="M94.738,27.257C91.844,27.257 89.476,27.257 89.476,27.257L89.476,29.115L86.379,29.115L86.379,20.757L73.997,20.757L73.997,29.115L45.113,29.115L45.113,20.757L32.731,20.757L32.731,29.115L29.076,29.115L29.076,27.257C29.076,27.257 26.708,27.257 23.814,27.257C20.92,27.257 18.552,30.53 18.552,34.531L18.552,39.948C17.685,39.948 16.536,39.948 15.268,39.948C12.75,39.948 12.285,42.866 12.241,46.56L0,46.56L0,53.747L12.241,53.747C12.283,57.45 12.745,60.379 15.268,60.379C16.536,60.379 17.685,60.379 18.552,60.379L18.552,65.792C18.552,69.793 20.919,73.066 23.814,73.066C26.708,73.066 29.076,73.066 29.076,73.066L29.076,71.212L32.731,71.212L32.731,79.879L45.113,79.879L45.113,71.212L73.997,71.212L73.997,79.879L86.379,79.879L86.379,71.212L89.476,71.212L89.476,73.066C89.476,73.066 91.844,73.066 94.738,73.066C97.632,73.066 100,69.792 100,65.791L100,34.53C100,30.529 97.632,27.256 94.738,27.257" inkscape:connector-curvature="0" atv:refpy="50.318"/>
   </g>
   <g id="linear" atv:refpx="0" atv:refpy="0"/>
   <g id="dark" atv:refpx="56.12" atv:refpy="63.406">
    <path id="path55" atv:refpx="59.276" fill="#999999" d="M94.738,69.428C93.292,69.428 91.978,69.428 91.024,69.428L91.024,65.485L26.018,65.485L26.018,69.428C25.345,69.428 24.603,69.428 23.814,69.428C20.92,69.428 18.552,66.974 18.552,63.971L18.552,65.791C18.552,69.792 20.919,73.065 23.814,73.065C26.708,73.065 29.076,73.065 29.076,73.065L29.076,71.211L89.476,71.211L89.476,73.065C89.476,73.065 91.844,73.065 94.738,73.065C97.632,73.065 100,69.792 100,65.791L100,63.971C100,66.973 97.632,69.428 94.738,69.428" inkscape:connector-curvature="0" atv:refpy="68.518"/>
    <path id="path57" atv:refpx="15.396" fill="#999999" d="M18.552,60.378C17.685,60.378 18.552,60.378 15.268,60.378C12.745,60.378 12.283,57.449 12.241,53.746C12.241,53.746 14.966,58.086 18.552,58.086Z" inkscape:connector-curvature="0" atv:refpy="57.062"/>
   </g>
   <g id="light" atv:refpx="50.001" atv:refpy="38.427">
    <rect width="12.388" id="rect60" atv:refpx="6.194" fill="#CCCCCC" height="3.056" y="46.541" x="0" atv:refpy="48.069"/>
    <path id="path62" atv:refpx="59.277" fill="#CCCCCC" d="M94.738,27.257C91.844,27.257 89.476,27.257 89.476,27.257L89.476,29.115L29.076,29.115L29.076,27.257C29.076,27.257 26.708,27.257 23.814,27.257C20.92,27.257 18.552,30.53 18.552,34.531L18.552,43.169C18.552,40.669 20.919,38.623 23.814,38.623C24.603,38.623 25.345,38.623 26.018,38.623L26.018,41.205L91.025,41.205L91.025,38.623C91.979,38.623 93.293,38.623 94.739,38.623C97.633,38.623 100.001,40.669 100.001,43.169L100.001,34.531C100,30.53 97.632,27.257 94.738,27.257" inkscape:connector-curvature="0" atv:refpy="35.213"/>
   </g>
   <g id="shadow" atv:refpx="59.555" atv:refpy="75.544">
    <rect width="12.382" id="rect65" atv:refpx="80.188" fill="#808080" height="8.6669998" y="71.210999" x="73.997002" atv:refpy="75.544"/>
    <rect width="12.382" id="rect67" atv:refpx="38.922" fill="#808080" height="8.6669998" y="71.210999" x="32.730999" atv:refpy="75.544"/>
   </g>
   <g id="hlight" atv:refpx="59.277" atv:refpy="34.419">
    <path id="path70" atv:refpx="59.277" fill="#E6E6E6" d="M94.738,28.623C91.844,28.623 89.476,28.623 89.476,28.623L89.476,32.137L29.076,32.137L29.076,28.622C29.076,28.622 26.708,28.622 23.814,28.622C20.92,28.622 18.552,31.281 18.552,34.532L18.552,40.214C18.552,36.964 20.919,34.306 23.814,34.306C24.603,34.306 25.345,34.306 26.018,34.306L26.018,38.183L91.025,38.183L91.025,34.306C91.979,34.306 93.293,34.306 94.739,34.306C97.633,34.306 100.001,36.964 100.001,40.214L100.001,34.532C100,31.281 97.632,28.623 94.738,28.623" inkscape:connector-curvature="0" atv:refpy="34.419"/>
   </g>
  </g>
 </g>
</svg>
