<?xml version='1.0' encoding='UTF-8' standalone='no'?>
<svg width="20" x="0px" version="1.1" y="0px" xmlns="http://www.w3.org/2000/svg" height="20" xmlns:xlink="http://www.w3.org/1999/xlink" id="Ebene_1" enable-background="new 0 0 16 16" xml:space="preserve" xmlns:atv="http://webmi.atvise.com/2007/svgext">
 <defs>
  <linearGradient id="SVGID_1_" y1="0.136603" x1="-0.290145" y2="0.639639" gradientUnits="objectBoundingBox" x2="0.792871">
   <stop offset="0" style="stop-color:#9D9D9C"/>
   <stop offset="1" style="stop-color:#3C3C3B"/>
  </linearGradient>
  <linearGradient id="SVGID_2_" y1="0.0373166" x1="0.0373956" y2="1.06773" gradientUnits="objectBoundingBox" x2="0.933879">
   <stop offset="0" style="stop-color:#9D9D9C"/>
   <stop offset="1" style="stop-color:#3C3C3B"/>
  </linearGradient>
 </defs>
 <metadata>
  <atv:parameter desc="symbol color" valuetype="color" substitute="$SYMBOLCOLOR$" behavior="optional" name="symbolColor" defaultvalue="#000000"/>
  <atv:parameter desc="symbol color 2" valuetype="color" substitute="$SYMBOLCOLOR2$" behavior="optional" name="symbolColor2" defaultvalue="#FFFFFF"/>
 </metadata>
 <path fill="$SYMBOLCOLOR$" id="id_0" atv:refpx="17.188" atv:refpy="12.444" stroke-width="1.117" d="M15.532,8.854L15.52,16.032L15.576,16.032L18.845,8.977C18.876,8.909 18.826,8.856 18.735,8.856"/>
 <path fill="$SYMBOLCOLOR$" id="id_1" atv:refpx="7.936" atv:refpy="10.064" stroke-width="1.117" d="M14.72,5.679L7.284,5.679L7.284,4.181C7.284,4.085 7.206,4.008 7.109,4.008L2.019,4.008C1.923,4.008 1.845,4.085 1.845,4.181L1.845,5.679L1.149,5.679C1.053,5.679 0.976,5.757 0.976,5.853L0.976,15.943C0.976,16.04 1.053,16.117 1.149,16.117L14.72,16.117C14.818,16.117 14.895,16.04 14.895,15.943L14.895,5.853C14.895,5.757 14.818,5.679 14.72,5.679"/>
 <g id="id_13" atv:refpx="7.512" atv:refpy="11.024" transform="matrix(1,0,0,1,-0.6238,-0.0814)">
  <text x="8.779" y="17.353" fill="$SYMBOLCOLOR2$" font-family="Arial" id="id_2" font-weight="bold" atv:refpx="-4.931" atv:refpy="17.093" font-size="7" transform="matrix(0.5594,0,0,0.5594,2.1057,3.2397)">R</text>
  <polygon points="5.572,6.658 5.572,15.32 11.347,15.32 11.347,8.583 9.422,6.658" fill="none" stroke="$SYMBOLCOLOR2$" id="id_3" atv:refpx="13.936" stroke-width="0.385" atv:refpy="15.147"/>
  <polyline points="9.326,6.828 9.326,8.753 11.251,8.753" fill="$SYMBOLCOLOR2$" stroke="none" id="id_4" atv:refpx="26.452" stroke-width="0.385" atv:refpy="4.809"/>
  <rect width="2.618" x="6.24" y="8.382" fill="$SYMBOLCOLOR2$" height="0.28" stroke="none" id="id_6" atv:refpx="11.298" stroke-width="0.386" atv:refpy="13.918"/>
  <rect width="2.618" x="6.24" y="7.496" fill="$SYMBOLCOLOR2$" height="0.28" stroke="none" id="id_7" atv:refpx="11.299" stroke-width="0.386" atv:refpy="12.147"/>
  <rect width="4.441" x="6.24" y="9.267" fill="$SYMBOLCOLOR2$" height="0.28" stroke="none" id="id_8" atv:refpx="8.999" stroke-width="0.386" atv:refpy="19.701"/>
  <rect width="4.441" x="6.24" y="14.328" fill="$SYMBOLCOLOR2$" height="0.28" stroke="none" id="id_9" atv:refpx="9" stroke-width="0.386" atv:refpy="34.89"/>
  <rect width="4.441" x="6.24" y="13.539" fill="$SYMBOLCOLOR2$" height="0.28" stroke="none" id="id_11" atv:refpx="9" stroke-width="0.386" atv:refpy="32.522"/>
 </g>
</svg>
