<?xml version='1.0' encoding='UTF-8' standalone='no'?>
<svg height="330" version="1.2" width="780" xmlns="http://www.w3.org/2000/svg" xmlns:atv="http://webmi.atvise.com/2007/svgext" xmlns:xlink="http://www.w3.org/1999/xlink">
 <defs/>
 <desc>Dialog to confirm the action of the Archive Management.</desc>
 <title>Confirmation Dialog</title>
 <metadata>
  <atv:parameter behavior="hidden" defaultvalue="" name="action" substitute="$ACTION$" valuetype="string"/>
  <atv:parameter behavior="hidden" defaultvalue="T{Are you sure you want to start the transfer of the selected file(s)}?" name="question" substitute="$QUESTION$" valuetype="string"/>
  <atv:parameter behavior="optional" defaultvalue="SYSTEM.GLOBALS.atvFillColor" desc="fill color" group="Appearance" name="globalFillColor" substitute="$FILLCOLOR$" valuetype="global"/>
  <atv:parameter behavior="optional" defaultvalue="SYSTEM.GLOBALS.atvFontColor" desc="color" group="Font" name="globalFontColor" substitute="$FONTCOLOR$" valuetype="global"/>
  <atv:gridconfig enabled="true" gridstyle="lines" height="20" width="20"/>
  <atv:snapconfig enabled="true" height="10" width="10"/>
 </metadata>
 <text atv:refpx="1904.377" atv:refpy="195.848" fill="$FONTCOLOR$" font-family="Arial" font-size="16" id="question" transform="matrix(1.194,0,0,1.1739,-3.88,-31.302)" x="24.5" y="199.5">$QUESTION$</text>
 <svg atv:refpx="550.017" atv:refpy="290.028" height="30" id="btn_ok" transform="matrix(1.5,0,0,1.3333,0,0)" width="80" x="326.667" xlink:href="SYSTEM.LIBRARY.ATVISE.OBJECTDISPLAYS.Advanced.button" y="202.505">
  <atv:argument name="label" value="T{OK}"/>
  <atv:argument name="fontSize" value="16"/>
  <atv:overwrite height="34.5" id="id_2" transform="matrix(0.6667,0,0,0.75,0,0)" width="114.5"/>
  <atv:overwrite height="39.5" id="id_0" transform="matrix(0.6667,0,0,0.75,0,0)" width="119.5"/>
  <atv:overwrite height="37.999" id="id_6" transform="matrix(0.6667,0,0,0.75,0,0)" width="118"/>
  <atv:overwrite id="button_label_2" transform="matrix(0.6667,0,0,0.75,0,0)" x="60" y="31.499"/>
  <atv:overwrite id="button_label_1" transform="matrix(0.6667,0,0,0.75,0,0)" x="60" y="16.499"/>
  <atv:overwrite id="button_label" transform="matrix(0.6667,0,0,0.75,0,0)" x="60" y="24.499"/>
  <atv:overwrite id="button_symbol_bottom" transform="matrix(0.4,0,0,0.45,0,0)" x="89.833" y="34.624"/>
  <atv:overwrite id="button_symbol_top" transform="matrix(0.4,0,0,0.45,0,0)" x="89.833" y="13.291"/>
  <atv:overwrite id="button_symbol" transform="matrix(0.6667,0,0,0.75,0,0)" x="50" y="9.999"/>
  <atv:overwrite height="35.999" id="button_stroke" transform="matrix(0.6667,0,0,0.75,0,0)" width="116"/>
  <atv:overwrite height="37.999" id="button_bg" transform="matrix(0.6667,0,0,0.75,0,0)" width="118"/>
  <atv:overwrite height="39.999" id="outer_frame" transform="matrix(0.6667,0,0,0.75,0,0)" width="120"/>
 </svg>
 <svg atv:refpx="700.014" atv:refpy="290.032" height="30" id="btn_cancel" transform="matrix(1.5,0,0,1.3333,0,0)" width="80" x="426.667" xlink:href="SYSTEM.LIBRARY.ATVISE.OBJECTDISPLAYS.Advanced.button" y="202.505">
  <atv:argument name="label" value="T{Cancel}"/>
  <atv:argument name="fontSize" value="16"/>
  <atv:overwrite height="34.499" id="id_2" transform="matrix(0.6667,0,0,0.75,0,0)" width="114.5"/>
  <atv:overwrite height="39.499" id="id_0" transform="matrix(0.6667,0,0,0.75,0,0)" width="119.5"/>
  <atv:overwrite height="37.999" id="id_6" transform="matrix(0.6667,0,0,0.75,0,0)" width="118"/>
  <atv:overwrite id="button_label_2" transform="matrix(0.6667,0,0,0.75,0,0)" x="60" y="31.499"/>
  <atv:overwrite id="button_label_1" transform="matrix(0.6667,0,0,0.75,0,0)" x="60" y="16.499"/>
  <atv:overwrite id="button_label" transform="matrix(0.6667,0,0,0.75,0,0)" x="60" y="24.499"/>
  <atv:overwrite id="button_symbol_bottom" transform="matrix(0.4,0,0,0.45,0,0)" x="89.833" y="34.624"/>
  <atv:overwrite id="button_symbol_top" transform="matrix(0.4,0,0,0.45,0,0)" x="89.833" y="13.291"/>
  <atv:overwrite id="button_symbol" transform="matrix(0.6667,0,0,0.75,0,0)" x="50" y="9.999"/>
  <atv:overwrite height="35.999" id="button_stroke" transform="matrix(0.6667,0,0,0.75,0,0)" width="116"/>
  <atv:overwrite height="37.999" id="button_bg" transform="matrix(0.6667,0,0,0.75,0,0)" width="118"/>
  <atv:overwrite height="39.999" id="outer_frame" transform="matrix(0.6667,0,0,0.75,0,0)" width="120"/>
 </svg>
 <text atv:refpx="98.375" atv:refpy="40.544" fill="$FONTCOLOR$" font-family="Arial" font-size="20" id="headline" transform="matrix(1.194,0,0,1.1739,-3.88,-3.478)" x="25" y="43.5">T{Confirm action}:</text>
 <svg atv:refpx="390.008" atv:refpy="210" height="30" id="action" transform="matrix(9.15,0,0,2,0,0)" width="80" x="2.623" xlink:href="SYSTEM.LIBRARY.ATVISE.OBJECTDISPLAYS.Advanced.label" y="90">
  <atv:argument name="text" prefix="action"/>
  <atv:argument name="color" prefix="globalFontColor"/>
  <atv:argument name="font-size" value="19"/>
 </svg>
 <text atv:refpx="347.167" atv:refpy="95.848" fill="$FONTCOLOR$" font-family="Arial" font-size="16" id="question_restore" transform="matrix(1.194,0,0,1.1739,-3.88,-13.912)" x="24.5" y="99.5">T{Please choose which action should be used for handling file(s) from restore}.</text>
 <svg atv:refpx="230" atv:refpy="135" height="30" id="rdb_action_move" width="160" x="150" xlink:href="SYSTEM.LIBRARY.ATVISE.OBJECTDISPLAYS.Advanced.radiobutton" y="120">
  <atv:argument name="radiogroupId" value="action"/>
  <atv:argument name="label" value="T{move}"/>
  <atv:argument name="fontSize" value="16"/>
  <atv:argument name="value" value="move"/>
 </svg>
 <svg atv:refpx="510" atv:refpy="135" height="30" id="rdb_action_copy" width="160" x="430" xlink:href="SYSTEM.LIBRARY.ATVISE.OBJECTDISPLAYS.Advanced.radiobutton" y="120">
  <atv:argument name="radiogroupId" value="action"/>
  <atv:argument name="label" value="T{copy}"/>
  <atv:argument name="fontSize" value="16"/>
  <atv:argument name="value" value="copy"/>
 </svg>
 <script atv:desc="" atv:href="SYSTEM.LIBRARY.ATVISE.DISPLAYSCRIPTS.archivemanagement.confirmation_dialog" atv:name="" atv:type="text/ecmascript"/>
 <script atv:desc="" atv:name="" type="text/ecmascript"/>
</svg>
