<svg xmlns:atv="http://webmi.atvise.com/2007/svgext" x="0px" xmlns:xlink="http://www.w3.org/1999/xlink" y="24px" id="Layer_1" height="56.56" version="1.1" xml:space="preserve" xmlns="http://www.w3.org/2000/svg" width="100" enable-background="0 24 100 56">
 <g id="id_13" atv:refpx="50" atv:refpy="28.28" transform="matrix(1,0,0,1,-0.032,-24.01)">
  <defs>
   <linearGradient y1="40" x2="57.435" x1="57.435" y2="70" id="Sk2n355pb5e" gradientUnits="userSpaceOnUse">
    <stop stop-color="#f2a4a4" offset="0"/>
    <stop stop-color="#d87d7d" offset="1"/>
   </linearGradient>
   <linearGradient y1="40" x2="57.435" x1="57.435" y2="70" id="Sk2n355pb5h" gradientUnits="userSpaceOnUse">
    <stop stop-color="#bc4512" offset="0"/>
    <stop stop-color="#472000" offset="1"/>
   </linearGradient>
   <linearGradient y1="40" x2="57.435" x1="57.435" y2="70" id="Sk2n355pb5k" gradientUnits="userSpaceOnUse">
    <stop stop-color="#de9c5f" offset="0"/>
    <stop stop-color="#000000" offset="1"/>
   </linearGradient>
   <linearGradient y1="33.3399" x2="50.0313" x1="50.0313" y2="71.2407" id="Sk2n355pb75" gradientUnits="userSpaceOnUse">
    <stop stop-color="#96c9eb" offset="0"/>
    <stop stop-color="#547387" offset="1"/>
   </linearGradient>
   <linearGradient y1="29.7441" x2="59.495" x1="40.5677" y2="29.7441" id="Sk2n355pb7a" gradientUnits="userSpaceOnUse">
    <stop stop-color="#96c9eb" offset="0"/>
    <stop stop-color="#547387" offset="1"/>
   </linearGradient>
   <linearGradient y1="33.3399" x2="50.0313" x1="50.0313" y2="71.2407" id="Sk2n355pb7d" gradientUnits="userSpaceOnUse">
    <stop stop-color="#96c9eb" offset="0"/>
    <stop stop-color="#547387" offset="1"/>
   </linearGradient>
   <linearGradient y1="29.7441" x2="59.495" x1="40.5677" y2="29.7441" id="Sk2n355pb7g" gradientUnits="userSpaceOnUse">
    <stop stop-color="#96c9eb" offset="0"/>
    <stop stop-color="#547387" offset="1"/>
   </linearGradient>
   <linearGradient y1="33.3399" x2="50.0313" x1="50.0313" y2="71.2407" id="Sk2n355pb7j" gradientUnits="userSpaceOnUse">
    <stop stop-color="#6db6ff" offset="0"/>
    <stop stop-color="#254a70" offset="1"/>
   </linearGradient>
   <linearGradient y1="29.7441" x2="59.495" x1="40.5677" y2="29.7441" id="Sk2n355pb7m" gradientUnits="userSpaceOnUse">
    <stop stop-color="#6db6ff" offset="0"/>
    <stop stop-color="#254a70" offset="1"/>
   </linearGradient>
   <linearGradient y1="33.3399" x2="50.0313" x1="50.0313" y2="71.2407" id="Sk2n355pb7p" gradientUnits="userSpaceOnUse">
    <stop stop-color="#2098e8" offset="0"/>
    <stop stop-color="#005287" offset="1"/>
   </linearGradient>
   <linearGradient y1="29.7441" x2="59.495" x1="40.5677" y2="29.7441" id="Sk2n355pb7s" gradientUnits="userSpaceOnUse">
    <stop stop-color="#2098e8" offset="0"/>
    <stop stop-color="#005287" offset="1"/>
   </linearGradient>
   <linearGradient y1="33.3399" x2="50.0313" x1="50.0313" y2="71.2407" id="Sk2n355pb7v" gradientUnits="userSpaceOnUse">
    <stop stop-color="#96c9eb" offset="0"/>
    <stop stop-color="#547387" offset="1"/>
   </linearGradient>
   <linearGradient y1="29.7441" x2="59.495" x1="40.5677" y2="29.7441" id="Sk2n355pb7y" gradientUnits="userSpaceOnUse">
    <stop stop-color="#96c9eb" offset="0"/>
    <stop stop-color="#547387" offset="1"/>
   </linearGradient>
   <linearGradient y1="33.3399" x2="50.0313" x1="50.0313" y2="71.2407" id="Sk2n355pb81" gradientUnits="userSpaceOnUse">
    <stop stop-color="#2098e8" offset="0"/>
    <stop stop-color="#005287" offset="1"/>
   </linearGradient>
   <linearGradient y1="29.7441" x2="59.495" x1="40.5677" y2="29.7441" id="Sk2n355pb84" gradientUnits="userSpaceOnUse">
    <stop stop-color="#2098e8" offset="0"/>
    <stop stop-color="#005287" offset="1"/>
   </linearGradient>
   <linearGradient y1="33.3399" class="linear" x2="50.0313" x1="50.0313" y2="71.2407" id="SVGID_1_" gradientUnits="userSpaceOnUse">
    <stop stop-color="#B3B3B3" offset="0"/>
    <stop stop-color="#808080" offset="1"/>
   </linearGradient>
   <linearGradient y1="29.7441" class="linear" x2="59.495" x1="40.5677" y2="29.7441" id="SVGID_2_" gradientUnits="userSpaceOnUse">
    <stop stop-color="#B3B3B3" offset="0"/>
    <stop stop-color="#808080" offset="1"/>
   </linearGradient>
  </defs>
  <metadata/>
  <desc>Copyright Opto 22</desc>
  <desc>Created with Snap</desc>
  <g id="id_12" atv:refpx="50.032" atv:refpy="52.29">
   <g id="shape" atv:refpx="50.032" atv:refpy="52.29">
    <path atv:refpx="50.032" id="id_0" fill="#0080d5" xmlns="http://www.w3.org/2000/svg" atv:refpy="52.29" d="M81.081,33.34L59.495,33.34L59.495,25.982C59.495,24.893 55.257,24.01 50.031,24.01C44.804,24.01 40.567,24.893 40.567,25.982L40.567,33.34L18.982,33.34C8.516,33.34 0.032,41.824 0.032,52.29C0.032,62.756 8.516,71.24 18.982,71.24L19.274,71.24L19.274,80.569L25.688,80.569L25.688,71.24L74.376,71.24L74.376,80.569L80.79,80.569L80.79,71.24L81.082,71.24C91.548,71.24 100.032,62.756 100.032,52.29C100.031,41.824 91.547,33.34 81.081,33.34"/>
   </g>
   <g id="linear" atv:refpx="50.031" atv:refpy="47.626">
    <path class="linear" atv:refpx="50.031" id="id_1" fill="url('#Sk2n355pb81')" xmlns="http://www.w3.org/2000/svg" atv:refpy="52.291" d="M18.982,71.241C8.516,71.241 0.032,62.757 0.032,52.291C0.032,41.824 8.516,33.34 18.982,33.34L81.08,33.34C91.546,33.34 100.03,41.824 100.03,52.291C100.03,62.757 91.547,71.241 81.08,71.241Z"/>
    <path class="linear" atv:refpx="50.032" id="id_2" fill="url('#Sk2n355pb84')" xmlns="http://www.w3.org/2000/svg" atv:refpy="29.744" d="M40.568,25.982C40.568,24.893 44.805,24.009 50.032,24.009C55.258,24.009 59.495,24.892 59.495,25.982L59.495,33.506C59.495,34.595 55.258,35.478 50.032,35.478C44.805,35.478 40.568,34.595 40.568,33.506Z"/>
   </g>
   <g id="shadow" atv:refpx="50.031" atv:refpy="61.765">
    <path atv:refpx="50.031" id="id_3" fill="#005287" xmlns="http://www.w3.org/2000/svg" atv:refpy="61.765" d="M81.081,69.407L18.982,69.407C8.516,69.407 0.032,61.742 0.032,52.289C0.032,62.755 8.516,71.24 18.982,71.24L81.08,71.24C91.546,71.24 100.03,62.755 100.03,52.289C100.031,61.744 91.547,69.407 81.081,69.407"/>
   </g>
   <g id="dark" atv:refpx="50.031" atv:refpy="70.22">
    <rect x="19.273" y="59.87" atv:refpx="22.48" id="id_4" height="20.7" fill="#005f9c" width="6.414" xmlns="http://www.w3.org/2000/svg" atv:refpy="70.22"/>
    <rect x="74.375" y="59.87" atv:refpx="77.582" id="id_5" height="20.7" fill="#005f9c" width="6.414" xmlns="http://www.w3.org/2000/svg" atv:refpy="70.22"/>
   </g>
   <g id="light" atv:refpx="50.031" atv:refpy="43.54">
    <rect x="19.273" y="59.87" atv:refpx="22.48" id="id_6" height="3.2" fill="#2098e8" width="6.414" xmlns="http://www.w3.org/2000/svg" atv:refpy="61.47"/>
    <rect x="74.375" y="59.87" atv:refpx="77.582" id="id_7" height="3.2" fill="#2098e8" width="6.414" xmlns="http://www.w3.org/2000/svg" atv:refpy="61.47"/>
    <ellipse rx="9.464" cy="25.982" atv:refpx="50.031" id="id_8" cx="50.031" fill="#2098e8" xmlns="http://www.w3.org/2000/svg" atv:refpy="25.982" ry="1.972"/>
   </g>
   <g id="hlight" atv:refpx="45.603" atv:refpy="38.958">
    <path atv:refpx="74.528" id="id_9" fill="#82ccff" xmlns="http://www.w3.org/2000/svg" atv:refpy="35.41" d="M91.175,36.813C88.253,35.035 84.791,34.006 81.081,34.006L61.676,34.006C61.093,34.47 59.727,34.867 57.88,35.132L81.081,35.132C84.791,35.132 88.532,35.206 91.175,36.813"/>
    <path atv:refpx="22.357" id="id_10" fill="#82ccff" xmlns="http://www.w3.org/2000/svg" atv:refpy="43.149" d="M18.982,34.007C8.516,34.007 0.032,42.193 0.032,52.291C0.032,42.815 8.516,35.132 18.982,35.132L44.683,35.132C42.836,34.868 41.471,34.471 40.887,34.007Z"/>
    <path atv:refpx="45.531" id="id_11" fill="#82ccff" xmlns="http://www.w3.org/2000/svg" atv:refpy="26.572" d="M49.75,25.625L44.101,27.519C42.891,27.316 41.925,27.052 41.311,26.75Z"/>
   </g>
  </g>
 </g>
</svg>
