<?xml version='1.0' encoding='UTF-8' standalone='no'?>
<svg width="40" x="0px" version="1.1" y="0px" xmlns="http://www.w3.org/2000/svg" height="40" xmlns:xlink="http://www.w3.org/1999/xlink" id="Ebene_1" enable-background="new 0 0 16 16" xml:space="preserve" xmlns:atv="http://webmi.atvise.com/2007/svgext">
 <defs>
  <linearGradient id="SVGID_1_" y1="0.136603" x1="-0.290145" y2="0.639639" gradientUnits="objectBoundingBox" x2="0.792871">
   <stop offset="0" style="stop-color:#9D9D9C"/>
   <stop offset="1" style="stop-color:#3C3C3B"/>
  </linearGradient>
  <linearGradient id="SVGID_2_" y1="0.0373166" x1="0.0373956" y2="1.06773" gradientUnits="objectBoundingBox" x2="0.933879">
   <stop offset="0" style="stop-color:#9D9D9C"/>
   <stop offset="1" style="stop-color:#3C3C3B"/>
  </linearGradient>
 </defs>
 <metadata>
  <atv:parameter desc="symbol color" valuetype="color" substitute="$SYMBOLCOLOR$" behavior="optional" name="symbolColor" defaultvalue="#000000"/>
  <atv:parameter desc="symbol color 2" valuetype="color" substitute="$SYMBOLCOLOR2$" behavior="optional" name="symbolColor2" defaultvalue="#FFFFFF"/>
 </metadata>
 <path fill="$SYMBOLCOLOR$" id="id_0" atv:refpx="35.601" atv:refpy="25.105" stroke-width="1.117" d="M32.05,17.409L32.024,32.796L32.145,32.796L39.152,17.673C39.219,17.527 39.111,17.413 38.916,17.413"/>
 <path fill="$SYMBOLCOLOR$" id="id_1" atv:refpx="15.767" atv:refpy="20.003" stroke-width="1.117" d="M30.31,10.603L14.369,10.603L14.369,7.391C14.369,7.186 14.202,7.021 13.994,7.021L3.083,7.021C2.877,7.021 2.71,7.186 2.71,7.391L2.71,10.603L1.218,10.603C1.012,10.603 0.847,10.77 0.847,10.976L0.847,32.605C0.847,32.813 1.012,32.978 1.218,32.978L30.31,32.978C30.52,32.978 30.685,32.813 30.685,32.605L30.685,10.976C30.685,10.77 30.52,10.603 30.31,10.603"/>
 <g id="id_13" atv:refpx="14.858" atv:refpy="22.061" transform="matrix(2.1437,0,0,2.1437,-2.5821,-1.7453)">
  <text x="8.779" y="17.353" fill="$SYMBOLCOLOR2$" font-family="Arial" id="id_2" font-weight="bold" atv:refpx="-4.931" atv:refpy="17.093" font-size="7" transform="matrix(0.5594,0,0,0.5594,2.1057,3.2397)">R</text>
  <polygon points="5.572,6.658 5.572,15.32 11.347,15.32 11.347,8.583 9.422,6.658" fill="none" stroke="$SYMBOLCOLOR2$" id="id_3" atv:refpx="13.936" stroke-width="0.385" atv:refpy="15.147"/>
  <polyline points="9.326,6.828 9.326,8.753 11.251,8.753" fill="$SYMBOLCOLOR2$" stroke="none" id="id_4" atv:refpx="26.452" stroke-width="0.385" atv:refpy="4.809"/>
  <rect width="2.618" x="6.24" y="8.382" fill="$SYMBOLCOLOR2$" height="0.28" stroke="none" id="id_6" atv:refpx="11.298" stroke-width="0.386" atv:refpy="13.918"/>
  <rect width="2.618" x="6.24" y="7.496" fill="$SYMBOLCOLOR2$" height="0.28" stroke="none" id="id_7" atv:refpx="11.299" stroke-width="0.386" atv:refpy="12.147"/>
  <rect width="4.441" x="6.24" y="9.267" fill="$SYMBOLCOLOR2$" height="0.28" stroke="none" id="id_8" atv:refpx="8.999" stroke-width="0.386" atv:refpy="19.701"/>
  <rect width="4.441" x="6.24" y="14.328" fill="$SYMBOLCOLOR2$" height="0.28" stroke="none" id="id_9" atv:refpx="9" stroke-width="0.386" atv:refpy="34.89"/>
  <rect width="4.441" x="6.24" y="13.539" fill="$SYMBOLCOLOR2$" height="0.28" stroke="none" id="id_11" atv:refpx="9" stroke-width="0.386" atv:refpy="32.522"/>
 </g>
</svg>
