<?xml version='1.0' encoding='UTF-8' standalone='no'?>
<svg id="Ebene_1" xml:space="preserve" enable-background="new 0 0 72 72" x="0px" xmlns:atv="http://webmi.atvise.com/2007/svgext" y="0px" xmlns="http://www.w3.org/2000/svg" version="1.1" xmlns:xlink="http://www.w3.org/1999/xlink" width="40" height="40">
 <defs/>
 <metadata>
  <atv:parameter valuetype="color" behavior="optional" substitute="$SYMBOLCOLOR$" defaultvalue="#000000" name="symbolColor" desc="symbol color"/>
  <atv:gridconfig gridstyle="lines" enabled="false" width="20" height="20"/>
  <atv:snapconfig enabled="false" width="10" height="10"/>
 </metadata>
 <g id="id_5" atv:refpx="19.808" atv:refpy="18.228">
  <path stroke-width="0.757" d="M23.061,29.701L17.198,29.701C16.759,29.701 16.4,30.059 16.4,30.498C16.4,30.938 16.759,31.295 17.198,31.295L23.061,31.295C23.501,31.295 23.859,30.937 23.859,30.498C23.859,30.059 23.501,29.701 23.061,29.701" id="id_0" atv:refpx="20.13" atv:refpy="60.2" fill="$SYMBOLCOLOR$"/>
  <path stroke-width="0.757" d="M23.061,31.801L17.198,31.801C16.759,31.801 16.4,32.159 16.4,32.598C16.4,33.038 16.759,33.396 17.198,33.396L23.061,33.396C23.501,33.396 23.859,33.038 23.859,32.598C23.859,32.159 23.501,31.801 23.061,31.801" id="id_1" atv:refpx="20.13" atv:refpy="64.4" fill="$SYMBOLCOLOR$"/>
  <path stroke-width="0.757" d="M21.214,33.901L19.045,33.901C18.605,33.901 18.247,34.258 18.247,34.697C18.247,35.137 18.605,35.495 19.045,35.495L21.214,35.495C21.652,35.495 22.01,35.137 22.01,34.697C22.011,34.258 21.654,33.901 21.214,33.901" id="id_2" atv:refpx="20.129" atv:refpy="68.599" fill="$SYMBOLCOLOR$"/>
  <circle stroke="none" stroke-width="2" id="id_10" cy="20.321" r="7.487" cx="20" atv:refpx="0.31" atv:refpy="33.156" fill="$SYMBOLCOLOR$"/>
  <rect stroke="none" stroke-width="2" id="id_11" x="15.729" y="25.992" atv:refpx="20" atv:refpy="77.303" ry="1.383" width="8.542" fill="$SYMBOLCOLOR$" rx="1.886" height="3.173"/>
  <rect stroke="$SYMBOLCOLOR$" stroke-width="1" id="id_3" x="19.133" y="1.461" atv:refpx="39.214" atv:refpy="6.142" ry="1.239" width="1.897" fill="none" rx="0.948" height="9.361"/>
  <rect stroke="$SYMBOLCOLOR$" stroke-width="1" id="id_4" x="6.036" transform="matrix(0.866,-0.5,0.5,0.866,0,0)" y="8.244" atv:refpx="21.86" atv:refpy="7.701" ry="1.239" width="1.897" fill="none" rx="0.948" height="9.361"/>
  <rect stroke="$SYMBOLCOLOR$" stroke-width="1" id="id_6" x="-21.246" transform="matrix(-0,-1,1,-0,0,0)" y="0.895" atv:refpx="5.576" atv:refpy="41.544" ry="1.239" width="1.897" fill="none" rx="0.948" height="9.361"/>
  <rect stroke="$SYMBOLCOLOR$" stroke-width="1" id="id_7" x="-28.285" transform="matrix(-0.4853,-0.8744,0.8744,-0.4853,0,0)" y="-11.238" atv:refpx="7.533" atv:refpy="57.27" ry="1.239" width="1.897" fill="none" rx="0.948" height="9.361"/>
  <rect stroke="$SYMBOLCOLOR$" stroke-width="1" id="id_8" x="-8.465" transform="matrix(0.5044,-0.8635,0.8635,0.5044,0,0)" y="8.096" atv:refpx="7.241" atv:refpy="24.329" ry="1.239" width="1.897" fill="none" rx="0.948" height="9.361"/>
  <rect stroke="$SYMBOLCOLOR$" stroke-width="1" id="id_16" x="-28.273" transform="matrix(-0.866,-0.5,-0.5,0.866,0,0)" y="-11.564" atv:refpx="57.371" atv:refpy="7.702" ry="1.239" width="1.897" fill="none" rx="0.948" height="9.361"/>
  <rect stroke="$SYMBOLCOLOR$" stroke-width="1" id="id_17" x="-21.247" transform="matrix(0,-1,-1,0,0,0)" y="-38.721" atv:refpx="72.761" atv:refpy="20.299" ry="1.239" width="1.897" fill="none" rx="0.948" height="9.361"/>
  <rect stroke="$SYMBOLCOLOR$" stroke-width="1" id="id_18" x="-9.062" transform="matrix(0.4853,-0.8744,-0.8744,-0.4853,0,0)" y="-45.877" atv:refpx="67.8" atv:refpy="27.085" ry="1.239" width="1.897" fill="none" rx="0.948" height="9.361"/>
  <rect stroke="$SYMBOLCOLOR$" stroke-width="1" id="id_19" x="-28.449" transform="matrix(-0.5044,-0.8635,-0.8635,0.5044,0,0)" y="-26.112" atv:refpx="69.273" atv:refpy="12.936" ry="1.239" width="1.897" fill="none" rx="0.948" height="9.361"/>
 </g>
</svg>
