<?xml version='1.0' encoding='UTF-8' standalone='no'?>
<svg width="125" height="30" xmlns:atv="http://webmi.atvise.com/2007/svgext" version="1.2" xmlns="http://www.w3.org/2000/svg" xmlns:xlink="http://www.w3.org/1999/xlink">
 <defs/>
 <title>Display Time Advanced</title>
 <desc>Displays the current client time (hour, minutes, seconds and milliseconds).</desc>
 <metadata>
  <atv:parameter name="base" valuetype="address" behavior="optional"/>
  <atv:parameter name="fontColor" valuetype="global" group="Appearance" substitute="$FONTCOLOR$" defaultvalue="SYSTEM.GLOBALS.atvFontColor" desc="font color" behavior="optional"/>
  <atv:parameter name="fillColor" valuetype="global" group="Appearance" substitute="$FILLCOLOR$" defaultvalue="SYSTEM.GLOBALS.atvFillColor" desc="fill color" behavior="optional"/>
  <atv:parameter name="borderColor" valuetype="global" group="Appearance" substitute="$BORDERCOLOR$" defaultvalue="SYSTEM.GLOBALS.atvBorderColor" desc="border color" behavior="optional"/>
  <atv:parameter name="updateTime" valuetype="number" desc="update time interval" behavior="optional"/>
  <atv:gridconfig width="2" gridstyle="lines" height="2" enabled="true"/>
  <atv:snapconfig width="1" height="1" enabled="false"/>
 </metadata>
 <rect width="124.5" x="0.25" id="id_0" y="0.25" atv:refpy="15.25" atv:dynamic="true" height="29.5" fill="$FILLCOLOR$" stroke="#d7d7d7" atv:refpx="62.5" ry="3" rx="3" stroke-width="0.5"/>
 <rect width="118.024" x="3.393" id="id_7" y="4.241" atv:refpy="-143.184" height="21.203" fill="#ffffff" stroke="none" atv:refpx="78.526" ry="3" rx="2.92" stroke-width="3.426"/>
 <path id="id_10" atv:refpy="128.437" fill="#ffffff" d="M5.816,6.538C5.816,6.538 5.11,11.177 5.11,14.53C5.11,17.882 5.816,23.305 5.816,23.305C5.816,23.305 118.995,23.305 118.995,23.305C118.995,23.305 119.699,18.25 119.699,14.897C119.699,11.543 118.995,6.538 118.995,6.538C118.995,6.538 5.816,6.538 5.816,6.538" stroke="$FILLCOLOR$" atv:refpx="42.046" stroke-width="1.713"/>
 <path id="id_17" atv:refpy="14.975" fill-rule="evenodd" fill="$FILLCOLOR$" d="M15.567,6.949L16.242,6.949L16.242,22.422L26.057,22.422L26.057,6.949L33.2,6.949L33.2,22.422L43.009,22.422L43.009,6.949L43.688,6.949L43.688,22.422L53.506,22.422L53.506,6.949L60.649,6.949L60.649,22.422L70.439,22.422L70.439,6.949L71.111,6.949L71.111,22.422L80.955,22.422L80.955,6.949L88.744,6.949L88.744,22.422L98.653,22.422L98.653,6.949L99.328,6.949L99.328,22.422L108.457,22.422L108.457,6.949L109.126,6.949L109.126,22.948L15.567,22.948Z" stroke="none" atv:refpx="62.348" stroke-width="2"/>
 <text x="16.08" id="h" text-anchor="middle" font-size="16" y="20" atv:refpy="16" font-family="Courier" fill="$FONTCOLOR$" font-weight="bold" atv:refpx="16.08">00</text>
 <text x="43.552" id="m" text-anchor="middle" font-size="16" y="20" atv:refpy="16" font-family="Courier" fill="$FONTCOLOR$" font-weight="bold" atv:refpx="43.552">00</text>
 <text x="70.97" id="s" text-anchor="middle" font-size="16" y="20" atv:refpy="16" font-family="Courier" fill="$FONTCOLOR$" font-weight="bold" atv:refpx="70.97">00</text>
 <text x="103.7" id="ms" text-anchor="middle" font-size="16" y="20" atv:refpy="16" font-family="Courier" fill="$FONTCOLOR$" font-weight="bold" atv:refpx="103.7">000</text>
 <text x="29.524" id="id_3" text-anchor="middle" font-size="16" y="20.126" atv:refpy="14.126" font-family="Arial" fill="$FONTCOLOR$" atv:refpx="29.524">:</text>
 <text x="56.971" id="id_4" text-anchor="middle" font-size="16" y="20.126" atv:refpy="14.126" font-family="Arial" fill="$FONTCOLOR$" atv:refpx="56.971">:</text>
 <text x="84.697" id="id_5" text-anchor="middle" font-size="16" y="20.286" atv:refpy="14.286" font-family="Arial" fill="$FONTCOLOR$" atv:refpx="84.697">.</text>
 <script type="text/ecmascript"><![CDATA[var base = (webMI.query["base"] == undefined) ? "" : webMI.query["base"];
var updateTime = (webMI.query["updateTime"] == undefined) ? 30000 : parseInt(webMI.query["updateTime"],10);

function setTime(time) {
	var displayedTime = (time == undefined) ? new Date() : new Date(time);

	var h = displayedTime.getHours();
	var m = displayedTime.getMinutes();
	var s = displayedTime.getSeconds();
	var ms = displayedTime.getMilliseconds();

	webMI.gfx.setText("h", webMI.sprintf("%02d", h));
	webMI.gfx.setText("m", webMI.sprintf("%02d", m));
	webMI.gfx.setText("s", webMI.sprintf("%02d", s));
	webMI.gfx.setText("ms", webMI.sprintf("%03d", ms));
}

if (base != "") {
	webMI.data.subscribe(base, function(e) {
		setTime(e.value);
	});
}
else {
	setTime();
	var updateInterval = setInterval(function() { setTime(); }, updateTime);
}]]></script>
</svg>
