<?xml version='1.0' encoding='UTF-8' standalone='no'?>
<svg height="20" xmlns:xlink="http://www.w3.org/1999/xlink" xmlns:atv="http://webmi.atvise.com/2007/svgext" xmlns="http://www.w3.org/2000/svg" version="1.2" width="20">
    <defs/>
    <metadata>
        <atv:parameter defaultvalue="#000000" name="symbolColor" behavior="optional" substitute="$SYMBOLCOLOR$" valuetype="color" desc="symbol color"/>
        <atv:gridconfig gridstyle="lines" height="1" enabled="true" width="1"/>
        <atv:snapconfig height="1" enabled="true" width="1"/>
    </metadata>
    <g id="id_5" transform="matrix(0.6667,0,0,0.6792,-114.6667,23.4151)" atv:refpy="9.999" atv:refpx="10.001">
        <path id="id_70" stroke="$SYMBOLCOLOR$" stroke-width="3" stroke-linecap="round" fill="none" atv:refpy="-2" atv:refpx="104" d="M183,-24.5L179,-24.5C179,-24.5 175,-24.5 175,-20.5C175,-16.5 179,-16.5 179,-16.5C179,-16.5 183,-16.5 183,-16.5"/>
        <path id="id_71" stroke="$SYMBOLCOLOR$" stroke-width="3" stroke-linecap="round" fill="none" atv:refpy="-2" atv:refpx="120" d="M191,-16.5L195,-16.5C195,-16.5 199,-16.5 199,-20.5C199,-24.5 195,-24.5 195,-24.5C195,-24.5 191,-24.5 191,-24.5"/>
    </g>
    <line id="id_0" y2="14.625" stroke="$SYMBOLCOLOR$" stroke-width="2" stroke-linejoin="miter" stroke-linecap="round" y1="4" x2="7" x1="9.847" atv:refpy="9.442" atv:refpx="8.906"/>
    <line id="id_1" y2="14.625" stroke="$SYMBOLCOLOR$" stroke-width="2" stroke-linejoin="miter" stroke-linecap="round" y1="4" x2="10" x1="12.847" atv:refpy="9.442" atv:refpx="11.906"/>
</svg>
