<?xml version='1.0' encoding='UTF-8' standalone='no'?>
<svg width="60" xmlns:xlink="http://www.w3.org/1999/xlink" xmlns:atv="http://webmi.atvise.com/2007/svgext" version="1.1" xmlns="http://www.w3.org/2000/svg" y="0px" height="60" enable-background="new 0 0 72 72" id="Ebene_1" x="0px" xml:space="preserve">
 <defs/>
 <metadata>
  <atv:parameter desc="symbol color" defaultvalue="#000000" name="symbolColor" substitute="$SYMBOLCOLOR$" valuetype="color" behavior="optional"/>
  <atv:gridconfig width="20" height="20" gridstyle="lines" enabled="false"/>
  <atv:snapconfig width="10" height="10" enabled="false"/>
 </metadata>
 <path atv:refpy="30.002" fill="$SYMBOLCOLOR$" id="id_0" atv:refpx="30.002" d="M53.881,27.985L47.431,20.852L47.431,6.005L39.128,6.005L39.128,11.667L31.09,2.768C30.533,2.145 29.464,2.145 28.903,2.768L6.119,27.985C5.727,28.416 5.63,29.042 5.863,29.573C6.1,30.105 6.631,30.448 7.208,30.448L11.749,30.448L11.749,56.224C11.749,57.04 12.403,57.698 13.223,57.698L46.621,57.698C47.435,57.698 48.099,57.04 48.099,56.224L48.099,30.448L52.785,30.448C53.369,30.448 53.897,30.105 54.134,29.573C54.37,29.039 54.273,28.416 53.881,27.985"/>
</svg>
