<?xml version='1.0' encoding='UTF-8' standalone='no'?>
<svg version="1.2" xmlns:atv="http://webmi.atvise.com/2007/svgext" width="560" height="330" xmlns="http://www.w3.org/2000/svg" xmlns:xlink="http://www.w3.org/1999/xlink">
 <defs/>
 <title>Configuration - Pie</title>
 <metadata>
  <atv:parameter substitute="$FONTCOLOR$" defaultvalue="SYSTEM.GLOBALS.atvFontColor" desc="font color" behavior="optional" valuetype="global" name="fontColor"/>
  <atv:gridconfig width="20" enabled="true" height="20" gridstyle="lines"/>
  <atv:snapconfig width="5" enabled="true" height="5"/>
 </metadata>
 <text id="id_18" font-size="12" fill="$FONTCOLOR$" atv:refpy="145.5" atv:refpx="124.5" font-family="Arial" x="157.5" y="150" text-anchor="end">T{Line type}:</text>
 <text id="id_40" font-size="12" fill="$FONTCOLOR$" atv:refpy="75.5" atv:refpx="121" font-family="Arial" x="156.5" y="80" text-anchor="end">T{Line color}:</text>
 <text id="id_41" font-size="12" fill="$FONTCOLOR$" atv:refpy="110.5" atv:refpx="121" font-family="Arial" x="157.5" y="115" text-anchor="end">T{Line width}:</text>
 <svg id="TODO1" width="160" transform="matrix(0.625,0,0,1,0,0)" atv:refpy="72" height="30" atv:refpx="230.002" x="288" y="60" xlink:href="SYSTEM.LIBRARY.ATVISE.OBJECTDISPLAYS.Advanced.picker_color">
  <atv:argument value="lineColor" name="name"/>
  <atv:argument value="30" name="tabIndex"/>
  <atv:overwrite id="button_stroke" transform="matrix(1.6,0,0,1,0,0)" x="75.5"/>
  <atv:overwrite id="id_1" transform="matrix(1.6,0,0,1,0,0)" x="75.75"/>
  <atv:overwrite id="button_bg" transform="matrix(1.6,0,0,1,0,0)" x="75.5"/>
  <atv:overwrite id="input_label" transform="matrix(1.6,0,0,1,0,0)" x="63.5"/>
  <atv:overwrite id="blinking_frame" width="68" transform="matrix(1.6,0,0,1,0,0)"/>
  <atv:overwrite id="focus_frame" width="96" transform="matrix(1.6,0,0,1,0,0)"/>
  <atv:overwrite id="input_bg" width="68" transform="matrix(1.6,0,0,1,0,0)"/>
  <atv:overwrite id="id_2" width="100" transform="matrix(1.6,0,0,1,0,0)"/>
 </svg>
 <svg id="TODO3" width="160" transform="matrix(0.625,0,0,1,0,0)" atv:refpy="144" height="30" atv:refpx="230" x="288" y="95" xlink:href="SYSTEM.LIBRARY.ATVISE.OBJECTDISPLAYS.Advanced.picker_value">
  <atv:argument value="32" name="tabIndex"/>
  <atv:overwrite id="focus_frame" width="96" transform="matrix(1.6,0,0,1,0,0)"/>
  <atv:overwrite id="clickarea_dec" transform="matrix(1.6,0,0,1,-96,0)"/>
  <atv:overwrite id="clickarea_inc" transform="matrix(1.6,0,0,1,-96,0)"/>
  <atv:overwrite id="input_label" transform="matrix(1.6,0,0,1,0,0)" x="65.5"/>
  <atv:overwrite id="blinking_frame" width="68" transform="matrix(1.6,0,0,1,0,0)"/>
  <atv:overwrite id="input_bg" width="68" transform="matrix(1.6,0,0,1,0,0)"/>
  <atv:overwrite id="id_2" width="100" transform="matrix(1.6,0,0,1,0,0)"/>
 </svg>
 <text id="id_48" font-size="12" fill="$FONTCOLOR$" atv:refpy="109.5" atv:refpx="314.5" font-family="Arial" x="298.5" y="114" text-anchor="start">[T{px}]</text>
 <svg id="TODO4" width="160" transform="" atv:refpy="179" height="30" atv:refpx="231" x="180" y="130" xlink:href="SYSTEM.LIBRARY.ATVISE.OBJECTDISPLAYS.Advanced.radiobutton">
  <atv:argument value="g13" name="radiogroupId"/>
  <atv:argument value="T{solid}" name="label"/>
  <atv:argument value="solid" name="value"/>
  <atv:argument value="33" name="tabIndex"/>
  <atv:overwrite id="radiobutton_bg2" transform="matrix(1.6,0,0,1,0,0)"/>
  <atv:overwrite id="id_2" width="68" transform="matrix(1.6,0,0,1,0,0)"/>
  <atv:overwrite id="id_0" width="99.5" transform="matrix(1.6,0,0,1,0,0)"/>
  <atv:overwrite id="radiobutton_bg" width="66"/>
 </svg>
 <svg id="TODO5" width="160" transform="" atv:refpy="182" height="30" atv:refpx="336" x="285" y="130" xlink:href="SYSTEM.LIBRARY.ATVISE.OBJECTDISPLAYS.Advanced.radiobutton">
  <atv:argument value="g13" name="radiogroupId"/>
  <atv:argument value="T{dotted}" name="label"/>
  <atv:argument value="dotted" name="value"/>
  <atv:argument value="34" name="tabIndex"/>
  <atv:overwrite id="radiobutton_bg2" transform="matrix(1.6,0,0,1,0,0)"/>
  <atv:overwrite id="id_2" width="68" transform="matrix(1.6,0,0,1,0,0)"/>
  <atv:overwrite id="id_0" width="99.5" transform="matrix(1.6,0,0,1,0,0)"/>
  <atv:overwrite id="radiobutton_bg" width="66"/>
 </svg>
 <svg id="TODO6" width="160" transform="" atv:refpy="179" height="30" atv:refpx="441" x="390" y="130" xlink:href="SYSTEM.LIBRARY.ATVISE.OBJECTDISPLAYS.Advanced.radiobutton">
  <atv:argument value="g13" name="radiogroupId"/>
  <atv:argument value="T{dashed}" name="label"/>
  <atv:argument value="dashed" name="value"/>
  <atv:argument value="35" name="tabIndex"/>
  <atv:overwrite id="radiobutton_bg2" transform="matrix(1.6,0,0,1,0,0)"/>
  <atv:overwrite id="id_2" width="68" transform="matrix(1.6,0,0,1,0,0)"/>
  <atv:overwrite id="id_0" width="99.5" transform="matrix(1.6,0,0,1,0,0)"/>
  <atv:overwrite id="radiobutton_bg" width="66"/>
 </svg>
 <text id="id_30" font-weight="bold" font-size="12" fill="$FONTCOLOR$" atv:refpy="31.5" atv:refpx="50.84" font-family="Arial" x="24.5" y="36" text-anchor="start">T{Styling}:</text>
 <text id="id_0" font-size="12" fill="$FONTCOLOR$" atv:refpy="75.5" atv:refpx="336" font-family="Arial" x="367.5" y="80" text-anchor="end">T{Fill color}:</text>
 <svg id="TODO2" width="160" transform="matrix(0.625,0,0,1,0,0)" atv:refpy="72" height="30" atv:refpx="440.002" x="625.6" y="60" xlink:href="SYSTEM.LIBRARY.ATVISE.OBJECTDISPLAYS.Advanced.picker_color">
  <atv:argument value="fillColor" name="name"/>
  <atv:argument value="31" name="tabIndex"/>
  <atv:overwrite id="button_stroke" transform="matrix(1.6,0,0,1,0,0)" x="75.5"/>
  <atv:overwrite id="id_1" transform="matrix(1.6,0,0,1,0,0)" x="75.75"/>
  <atv:overwrite id="button_bg" transform="matrix(1.6,0,0,1,0,0)" x="75.5"/>
  <atv:overwrite id="input_label" transform="matrix(1.6,0,0,1,0,0)" x="63.5"/>
  <atv:overwrite id="blinking_frame" width="68" transform="matrix(1.6,0,0,1,0,0)"/>
  <atv:overwrite id="focus_frame" width="96" transform="matrix(1.6,0,0,1,0,0)"/>
  <atv:overwrite id="input_bg" width="68" transform="matrix(1.6,0,0,1,0,0)"/>
  <atv:overwrite id="id_2" width="100" transform="matrix(1.6,0,0,1,0,0)"/>
 </svg>
 <text id="id_4" font-size="12" fill="$FONTCOLOR$" atv:refpy="180.5" atv:refpx="129" font-family="Arial" x="156.5" y="185" text-anchor="end">T{Labels}:</text>
 <svg id="series_dataLabels_format" width="160" transform="matrix(1.275,0,0,1,0,0)" atv:refpy="215" height="30" atv:refpx="281.998" x="141.176" y="200" xlink:href="SYSTEM.LIBRARY.ATVISE.OBJECTDISPLAYS.Advanced.in_out_value">
  <atv:argument value="37" name="tabIndex"/>
  <atv:overwrite id="id_2" width="198.5" transform="matrix(0.7843,0,0,1,0,0)"/>
  <atv:overwrite id="id_0" width="203.5" transform="matrix(0.7843,0,0,1,0,0)"/>
  <atv:overwrite id="input_label" transform="matrix(0.7843,0,0,1,0,0)" x="196.055"/>
  <atv:overwrite id="blinking_frame" width="196" transform="matrix(0.7843,0,0,1,0,0)"/>
  <atv:overwrite id="focus_frame" width="200" transform="matrix(0.7843,0,0,1,0,0)"/>
  <atv:overwrite id="input_bg" width="196" transform="matrix(0.7843,0,0,1,0,0)"/>
 </svg>
 <text id="id_9" font-size="12" fill="$FONTCOLOR$" atv:refpy="215.5" atv:refpx="112.5" font-family="Arial" x="155.5" y="220" text-anchor="end">T{Label format}:</text>
 <text id="id_10" font-size="12" fill="$FONTCOLOR$" atv:refpy="250.5" atv:refpx="108.5" font-family="Arial" x="157.5" y="255" text-anchor="end">T{Label distance}:</text>
 <svg id="series_dataLabels_distance" width="160" transform="matrix(0.625,0,0,1,0,0)" atv:refpy="284" height="30" atv:refpx="230" x="288" y="235" xlink:href="SYSTEM.LIBRARY.ATVISE.OBJECTDISPLAYS.Advanced.picker_value">
  <atv:argument value="38" name="tabIndex"/>
  <atv:overwrite id="focus_frame" width="96" transform="matrix(1.6,0,0,1,0,0)"/>
  <atv:overwrite id="clickarea_dec" transform="matrix(1.6,0,0,1,-96,0)"/>
  <atv:overwrite id="clickarea_inc" transform="matrix(1.6,0,0,1,-96,0)"/>
  <atv:overwrite id="input_label" transform="matrix(1.6,0,0,1,0,0)" x="65.5"/>
  <atv:overwrite id="blinking_frame" width="68" transform="matrix(1.6,0,0,1,0,0)"/>
  <atv:overwrite id="input_bg" width="68" transform="matrix(1.6,0,0,1,0,0)"/>
  <atv:overwrite id="id_2" width="100" transform="matrix(1.6,0,0,1,0,0)"/>
 </svg>
 <text id="id_12" font-size="12" fill="$FONTCOLOR$" atv:refpy="249.5" atv:refpx="314.5" font-family="Arial" x="298.5" y="254" text-anchor="start">[T{px}]</text>
 <svg id="series_dataLabels_enabled" width="160" transform="" atv:refpy="180" height="30" atv:refpx="229" x="180" y="165" xlink:href="SYSTEM.LIBRARY.ATVISE.OBJECTDISPLAYS.Advanced.checkbox">
  <atv:argument value="true" name="valueOn"/>
  <atv:argument value="true" name="outputValueOn"/>
  <atv:argument value="false" name="outputValueOff"/>
  <atv:argument value="T{visible}" name="label"/>
  <atv:argument value="36" name="tabIndex"/>
  <atv:overwrite id="checkbox_bg2" transform="matrix(1.6,0,0,1,0,0)"/>
  <atv:overwrite id="id_5" transform="matrix(1.6,0,0,1,0,0)"/>
  <atv:overwrite id="id_2" width="68" transform="matrix(1.6,0,0,1,0,0)"/>
  <atv:overwrite id="id_0" width="99.5" transform="matrix(1.6,0,0,1,0,0)"/>
 </svg>
 <script type="text/ecmascript"><![CDATA[var inputDefaults = {};
/* ********************
Pie chart is not supported in this version
********************* */]]></script>
</svg>
