<svg width="12" height="18" viewBox="0 0 12 18" fill="none" xmlns="http://www.w3.org/2000/svg">
<path fill-rule="evenodd" clip-rule="evenodd" d="M2.66667 17.667H9.33333C10.6667 16.333 12 16.333 12 13.667C12 12.333 12 11 12 9.66699L10.6667 8.33301V7L9.33333 5.66699L8 0.333008H4L2.66667 5.66699L1.33333 7V8.33301L0 9.66699C0 11 0 12.333 0 13.667C0 16.333 1.33333 16.333 2.66667 17.667Z" fill="url(#paint0_linear)"/>
<path fill-rule="evenodd" clip-rule="evenodd" d="M9.33337 5.66699C6.66671 5.66699 5.33337 6.99999 2.66671 5.66699L1.33337 7C4.00004 8.333 8.00004 7 10.6667 7L9.33337 5.66699Z" fill="#FFC978"/>
<path fill-rule="evenodd" clip-rule="evenodd" d="M10.6667 8.33301C8 9.66701 4 9.66701 1.33333 8.33301L0 9.66699C4 11 8 11 12 9.66699C10.6667 9.66699 12 9.66701 10.6667 8.33301Z" fill="#FFC978"/>
<defs>
<linearGradient id="paint0_linear" x1="2.66667" y1="7" x2="20" y2="5.667" gradientUnits="userSpaceOnUse">
<stop stop-color="#FFC978"/>
<stop offset="0.160784" stop-color="#CB9D64"/>
<stop offset="0.388235" stop-color="#96704F"/>
<stop offset="1"/>
</linearGradient>
</defs>
</svg>
