<?xml version='1.0' encoding='UTF-8' standalone='no'?>
<svg xmlns:svg="http://www.w3.org/2000/svg" version="1.2" xmlns:rdf="http://www.w3.org/1999/02/22-rdf-syntax-ns#" xmlns:xlink="http://www.w3.org/1999/xlink" xmlns:dc="http://purl.org/dc/elements/1.1/" xmlns:cc="http://creativecommons.org/ns#" width="54" xmlns="http://www.w3.org/2000/svg" height="14" xmlns:atv="http://webmi.atvise.com/2007/svgext">
 <defs/>
 <metadata>
  <atv:gridconfig enabled="false" gridstyle="lines" width="20" height="20"/>
  <atv:snapconfig enabled="false" width="10" height="10"/>
 </metadata>
 <g id="id_2" atv:insensitive="true" atv:refpx="0" atv:refpy="0" transform="matrix(1,0,0,1,0,0)">
  <rect id="id_3" y="0" fill="#0000ff" fill-opacity="0" atv:refpx="27" atv:refpy="7" x="0" width="54.00" height="14.00"/>
 </g>
 <g id="id_1" atv:refpx="27" atv:refpy="7">
  <g id="layer1" atv:refpx="27" atv:refpy="7" transform="translate(-42.04985,-71.891075)">
   <rect id="rect103" y="71.891075" fill="#999" atv:refpx="43.336" atv:refpy="78.891" x="42.04985" width="2.5714283" height="14" stroke-width="0.507092"/>
   <rect id="rect105" y="71.891075" fill="#999" atv:refpx="49.05" atv:refpy="78.891" x="47.764076" width="2.5714283" height="14" stroke-width="0.507092"/>
   <rect id="rect107" y="71.891075" fill="#999" atv:refpx="54.764" atv:refpy="78.891" x="53.478306" width="2.5714283" height="14" stroke-width="0.507092"/>
   <rect id="rect109" y="71.891075" fill="#999" atv:refpx="60.478" atv:refpy="78.891" x="59.192532" width="2.5714283" height="14" stroke-width="0.507092"/>
   <rect id="rect111" y="71.891075" fill="#999" atv:refpx="66.192" atv:refpy="78.891" x="64.906769" width="2.5714283" height="14" stroke-width="0.507092"/>
   <rect id="rect113" y="71.891075" fill="#999" atv:refpx="71.907" atv:refpy="78.891" x="70.621506" width="2.5714283" height="14" stroke-width="0.507092"/>
   <rect id="rect115" y="71.891075" fill="#999" atv:refpx="77.621" atv:refpy="78.891" x="76.335732" width="2.5714283" height="14" stroke-width="0.507092"/>
   <rect id="rect117" y="71.891075" fill="#999" atv:refpx="83.336" atv:refpy="78.891" x="82.049957" width="2.5714283" height="14" stroke-width="0.507092"/>
   <rect id="rect119" y="71.891075" fill="#999" atv:refpx="89.05" atv:refpy="78.891" x="87.764191" width="2.5714283" height="14" stroke-width="0.507092"/>
   <rect id="rect121" y="71.891075" fill="#999" atv:refpx="94.764" atv:refpy="78.891" x="93.478424" width="2.5714283" height="14" stroke-width="0.507092"/>
   <g id="shadow" atv:refpx="69.05" atv:refpy="79.329" transform="matrix(0.51428566,0,0,0.5,43.335565,53.891067)">
    <rect id="rect124" y="40" fill="#666" atv:refpx="0" atv:refpy="40.875" x="-2.5" width="5" height="1.75"/>
    <rect id="rect126" y="40" fill="#666" atv:refpx="11.111" atv:refpy="40.875" x="8.6110001" width="5" height="1.75"/>
    <rect id="rect128" y="40" fill="#666" atv:refpx="22.222" atv:refpy="40.875" x="19.722" width="5" height="1.75"/>
    <rect id="rect130" y="40" fill="#666" atv:refpx="33.333" atv:refpy="40.875" x="30.833" width="5" height="1.75"/>
    <rect id="rect132" y="40" fill="#666" atv:refpx="44.444" atv:refpy="40.875" x="41.944" width="5" height="1.75"/>
    <rect id="rect134" y="40" fill="#666" atv:refpx="55.556" atv:refpy="40.875" x="53.056" width="5" height="1.75"/>
    <rect id="rect136" y="40" fill="#666" atv:refpx="66.667" atv:refpy="40.875" x="64.167" width="5" height="1.75"/>
    <rect id="rect138" y="40" fill="#666" atv:refpx="77.778" atv:refpy="40.875" x="75.278" width="5" height="1.75"/>
    <rect id="rect140" y="40" fill="#666" atv:refpx="88.889" atv:refpy="40.875" x="86.389" width="5" height="1.75"/>
    <rect id="rect142" y="40" fill="#666" atv:refpx="100" atv:refpy="40.875" x="97.5" width="5" height="1.75"/>
    <rect id="rect144" y="60" fill="#666" atv:refpx="0" atv:refpy="60.875" x="-2.5" width="5" height="1.75"/>
    <rect id="rect146" y="60" fill="#666" atv:refpx="11.111" atv:refpy="60.875" x="8.6110001" width="5" height="1.75"/>
    <rect id="rect148" y="60" fill="#666" atv:refpx="22.222" atv:refpy="60.875" x="19.722" width="5" height="1.75"/>
    <rect id="rect150" y="60" fill="#666" atv:refpx="33.333" atv:refpy="60.875" x="30.833" width="5" height="1.75"/>
    <rect id="rect152" y="60" fill="#666" atv:refpx="44.444" atv:refpy="60.875" x="41.944" width="5" height="1.75"/>
    <rect id="rect154" y="60" fill="#666" atv:refpx="55.556" atv:refpy="60.875" x="53.056" width="5" height="1.75"/>
    <rect id="rect156" y="60" fill="#666" atv:refpx="66.667" atv:refpy="60.875" x="64.167" width="5" height="1.75"/>
    <rect id="rect158" y="60" fill="#666" atv:refpx="77.778" atv:refpy="60.875" x="75.278" width="5" height="1.75"/>
    <rect id="rect160" y="60" fill="#666" atv:refpx="88.889" atv:refpy="60.875" x="86.389" width="5" height="1.75"/>
    <rect id="rect162" y="60" fill="#666" atv:refpx="100" atv:refpy="60.875" x="97.5" width="5" height="1.75"/>
   </g>
   <g id="dark" atv:refpx="69.05" atv:refpy="78.891" transform="matrix(0.51428566,0,0,0.5,43.335565,53.891067)">
    <rect id="rect165" y="39" fill="#808080" atv:refpx="50" atv:refpy="40" x="0" width="100" height="2"/>
    <rect id="rect167" y="59" fill="#808080" atv:refpx="50" atv:refpy="60" x="0" width="100" height="2"/>
   </g>
   <g id="hlight" atv:refpx="69.05" atv:refpy="78.641" transform="matrix(0.51428566,0,0,0.5,43.335565,53.891067)">
    <rect id="rect170" y="39.375" fill="#ccc" atv:refpx="50" atv:refpy="39.5" x="0" width="100" height="0.25"/>
    <rect id="rect172" y="59.375" fill="#ccc" atv:refpx="50" atv:refpy="59.5" x="0" width="100" height="0.25"/>
   </g>
  </g>
 </g>
</svg>
