<?xml version='1.0' encoding='UTF-8' standalone='no'?>
<svg width="40" x="0px" version="1.1" y="0px" xmlns="http://www.w3.org/2000/svg" height="40" xmlns:xlink="http://www.w3.org/1999/xlink" id="Ebene_1" enable-background="new 0 0 50 50" xml:space="preserve" xmlns:atv="http://webmi.atvise.com/2007/svgext">
 <defs/>
 <metadata>
  <atv:parameter desc="symbol color" valuetype="color" substitute="$SYMBOLCOLOR$" behavior="optional" name="symbolColor" defaultvalue="#000000"/>
 </metadata>
 <path fill="$SYMBOLCOLOR$" stroke="none" id="id_0" atv:refpx="20.008" stroke-width="0.346" atv:refpy="20.006" d="M15.502,31.434L10.832,28.174C10.832,28.174 13.316,26.176 18.405,18.886C23.495,11.597 24.514,8.577 24.514,8.577L29.183,11.837C29.183,11.837 26.7,13.835 21.61,21.124C16.521,28.413 15.502,31.434 15.502,31.434" stroke-miterlimit="10"/>
 <path fill="$SYMBOLCOLOR$" stroke="none" id="id_1" atv:refpx="29.681" stroke-width="0.346" atv:refpy="7.392" d="M35.6,7.137L32.452,9.797C32.452,9.797 29.991,10.094 28.555,8.394C26.996,6.548 27.821,4.317 27.821,4.317L30.97,1.657C30.97,1.657 30.894,1.536 30.853,1.517C29.753,1.026 26.891,1.846 25.899,2.684C22.103,5.892 24.343,9.399 25.601,10.888C26.703,12.194 29.943,15.172 33.738,11.964C34.731,11.127 36.017,8.443 35.717,7.276C35.706,7.231 35.6,7.137 35.6,7.137" stroke-miterlimit="10"/>
 <path fill="$SYMBOLCOLOR$" stroke="none" id="id_2" atv:refpx="10.318" stroke-width="0.346" atv:refpy="32.608" d="M4.4,32.862L7.548,30.202C7.548,30.202 10.009,29.905 11.445,31.605C13.004,33.45 12.178,35.682 12.178,35.682L9.03,38.342C9.03,38.342 9.106,38.462 9.147,38.482C10.247,38.973 13.109,38.153 14.101,37.316C17.898,34.106 15.657,30.6 14.398,29.111C13.297,27.805 10.056,24.828 6.26,28.035C5.268,28.873 3.982,31.557 4.282,32.723C4.293,32.768 4.4,32.862 4.4,32.862" stroke-miterlimit="10"/>
</svg>
