<?xml version='1.0' encoding='UTF-8' standalone='no'?>
<svg version="1.1" id="Ebene_1" xmlns="http://www.w3.org/2000/svg" xmlns:xlink="http://www.w3.org/1999/xlink" x="0px" y="0px" width="80px" height="80px" viewBox="0 0 80 80" enable-background="new 0 0 80 80" xml:space="preserve">
<g>
	<defs>
		<rect id="SVGID_1_" width="80" height="80"/>
	</defs>
	<clipPath id="SVGID_2_">
		<use xlink:href="#SVGID_1_"  overflow="visible"/>
	</clipPath>
	<path clip-path="url(#SVGID_2_)" fill="#F2D600" d="M14.884,0h50.232C73.336,0,80,6.664,80,14.884v50.232
		C80,73.336,73.336,80,65.116,80H14.884C6.664,80,0,73.336,0,65.116V14.884C0,6.664,6.664,0,14.884,0"/>
	<path clip-path="url(#SVGID_2_)" d="M25.116,11.163c4.11,0,7.442,3.332,7.442,7.442c0,4.11-3.332,7.441-7.442,7.441
		s-7.441-3.331-7.441-7.441C17.675,14.495,21.006,11.163,25.116,11.163"/>
	<path clip-path="url(#SVGID_2_)" d="M25.116,31.628L25.116,31.628c4.11,0,7.442,3.332,7.442,7.442v22.325
		c0,4.11-3.332,7.441-7.442,7.441s-7.441-3.331-7.441-7.441V39.07C17.675,34.96,21.006,31.628,25.116,31.628"/>
	<path clip-path="url(#SVGID_2_)" d="M54.884,53.953c4.109,0,7.441,3.332,7.441,7.442s-3.332,7.441-7.441,7.441
		c-4.11,0-7.442-3.331-7.442-7.441S50.773,53.953,54.884,53.953"/>
	<path clip-path="url(#SVGID_2_)" d="M54.884,11.163L54.884,11.163c4.109,0,7.441,3.332,7.441,7.442V40.93
		c0,4.11-3.332,7.442-7.441,7.442c-4.11,0-7.442-3.332-7.442-7.442V18.604C47.441,14.495,50.773,11.163,54.884,11.163"/>
</g>
</svg>
