<svg xmlns:atv="http://webmi.atvise.com/2007/svgext" width="40" xmlns:xlink="http://www.w3.org/1999/xlink" xmlns="http://www.w3.org/2000/svg" height="40">
 <defs/>
 <metadata>
  <atv:parameter defaultvalue="#000000" behavior="optional" valuetype="color" name="symbolColor" desc="symbol color" substitute="$SYMBOLCOLOR$"/>
  <atv:gridconfig enabled="false" width="20" gridstyle="lines" height="20"/>
  <atv:snapconfig enabled="false" width="10" height="10"/>
 </metadata>
 <path fill="$SYMBOLCOLOR$" id="id_0" atv:refpy="0.588" d="M39.061,32.25C39.577,32.25 39.999,32.67 39.999,33.186L39.999,35.062C39.999,35.576 39.577,36 39.061,36L0.935,36C0.419,36 0,35.576 0,35.062L0,6.936C0,6.42 0.419,6 0.935,6L2.811,6C3.327,6 3.749,6.42 3.749,6.936L3.749,32.25ZM11.249,27.562L11.249,21.936C11.249,21.42 10.827,21 10.311,21L8.435,21C7.919,21 7.499,21.42 7.499,21.936L7.499,27.562C7.499,28.078 7.919,28.5 8.435,28.5L10.311,28.5C10.827,28.5 11.249,28.078 11.249,27.562M18.749,27.562L18.749,11.936C18.749,11.42 18.327,11 17.811,11L15.935,11C15.419,11 14.999,11.42 14.999,11.936L14.999,27.562C14.999,28.078 15.419,28.5 15.935,28.5L17.811,28.5C18.327,28.5 18.749,28.078 18.749,27.562M26.249,27.562L26.249,16.936C26.249,16.42 25.827,16 25.311,16L23.435,16C22.919,16 22.499,16.42 22.499,16.936L22.499,27.562C22.499,28.078 22.919,28.5 23.435,28.5L25.311,28.5C25.827,28.5 26.249,28.078 26.249,27.562M33.749,27.562L33.749,9.436C33.749,8.92 33.327,8.5 32.811,8.5L30.935,8.5C30.419,8.5 29.999,8.92 29.999,9.436L29.999,27.562C29.999,28.078 30.419,28.5 30.935,28.5L32.811,28.5C33.327,28.5 33.749,28.078 33.749,27.562" atv:refpx="0"/>
</svg>
