<?xml version='1.0' encoding='UTF-8' standalone='no'?>
<svg version="1.2" xmlns="http://www.w3.org/2000/svg" xmlns:xlink="http://www.w3.org/1999/xlink" xmlns:atv="http://webmi.atvise.com/2007/svgext" width="287" height="140">
 <defs/>
 <desc>Simple display that can be used as dialog for picking a date.</desc>
 <title>Date picker dialog</title>
 <metadata>
  <atv:parameter valuetype="string" defaultvalue="dpt" desc="popup id" behavior="hidden" name="popupId"/>
  <atv:parameter valuetype="number" desc="initial timestamp" behavior="hidden" name="timestamp"/>
  <atv:gridconfig enabled="true" width="10" gridstyle="lines" height="10"/>
  <atv:snapconfig enabled="true" width="5" height="5"/>
 </metadata>
 <svg id="id_0" atv:refpy="51" xlink:href="SYSTEM.LIBRARY.ATVISE.OBJECTDISPLAYS.Advanced.in_out_datetime" transform="matrix(0.9861,0,0,1,0,0)" x="2.028" width="287" height="102" y="2" atv:refpx="143.528">
  <atv:argument name="tabIndex" value="1"/>
  <atv:argument name="arrowFill" value="#575757"/>
 </svg>
 <svg id="id_1" atv:refpy="125" xlink:href="SYSTEM.LIBRARY.ATVISE.OBJECTDISPLAYS.Advanced.button" atv:dynamic="true" x="103.5" width="80" height="30" y="107" atv:refpx="143.5">
  <atv:argument name="symbol" value="SYSTEM.LIBRARY.ATVISE.OBJECTDISPLAYS.Symbols.20x20.check"/>
  <atv:argument name="visibilityLabel" value="hidden"/>
  <atv:argument name="visibilitySymbol" value="inherit"/>
  <atv:argument name="tabIndex" value="2"/>
 </svg>
 <svg id="id_2" atv:refpy="125" xlink:href="SYSTEM.LIBRARY.ATVISE.OBJECTDISPLAYS.Advanced.button" atv:dynamic="true" transform="matrix(0.5,0,0,1,0,0)" x="490" width="80" height="30" y="107" atv:refpx="267">
  <atv:argument name="symbol" value="SYSTEM.LIBRARY.ATVISE.OBJECTDISPLAYS.Symbols.20x20.x"/>
  <atv:argument name="visibilityLabel" value="hidden"/>
  <atv:argument name="visibilitySymbol" value="inherit"/>
  <atv:argument name="tabIndex" value="4"/>
  <atv:overwrite id="id_2" transform="matrix(2,0,0,1,0,0)" width="34.5"/>
  <atv:overwrite id="id_0" transform="matrix(2,0,0,1,0,0)" width="39.5"/>
  <atv:overwrite id="id_1" transform="matrix(2,0,0,1,0,0)" width="40"/>
  <atv:overwrite id="id_6" transform="matrix(2,0,0,1,0,0)" width="38"/>
  <atv:overwrite id="button_symbol" transform="matrix(2,0,0,1,0,0)" x="10"/>
  <atv:overwrite id="button_label" transform="matrix(2,0,0,1,0,0)" x="20"/>
  <atv:overwrite id="button_stroke" transform="matrix(2,0,0,1,0,0)" width="36"/>
  <atv:overwrite id="button_bg" transform="matrix(2,0,0,1,0,0)" width="38"/>
  <atv:overwrite id="outer_frame" transform="matrix(2,0,0,1,0,0)" width="40"/>
 </svg>
 <svg id="id_3" atv:refpy="124" xlink:href="SYSTEM.LIBRARY.ATVISE.OBJECTDISPLAYS.Advanced.button" atv:dynamic="true" transform="matrix(0.5,0,0,1,0,0)" x="4" width="80" height="30" y="107" atv:refpx="21">
  <atv:argument name="symbol" value="SYSTEM.LIBRARY.ATVISE.OBJECTDISPLAYS.Symbols.20x20.dots"/>
  <atv:argument name="label" value="T{now}"/>
  <atv:argument name="tabIndex" value="3"/>
  <atv:overwrite id="id_2" transform="matrix(2,0,0,1,0,0)" width="34.5"/>
  <atv:overwrite id="id_0" transform="matrix(2,0,0,1,0,0)" width="39.5"/>
  <atv:overwrite id="id_1" transform="matrix(2,0,0,1,0,0)" width="40"/>
  <atv:overwrite id="id_6" transform="matrix(2,0,0,1,0,0)" width="38"/>
  <atv:overwrite id="button_symbol" transform="matrix(2,0,0,1,0,0)" x="10"/>
  <atv:overwrite id="button_label" transform="matrix(2,0,0,1,0,0)" x="20"/>
  <atv:overwrite id="button_stroke" transform="matrix(2,0,0,1,0,0)" width="36"/>
  <atv:overwrite id="button_bg" transform="matrix(2,0,0,1,0,0)" width="38"/>
  <atv:overwrite id="outer_frame" transform="matrix(2,0,0,1,0,0)" width="40"/>
 </svg>
 <script type="text/ecmascript"><![CDATA[var popupId = webMI.query["popupId"];
var timestamp = parseInt(webMI.query["timestamp"],10);
if (isNaN(timestamp)) timestamp = 0;
var curTime = 0;

webMI.trigger.connect("valuechanged", function(e) {
curTime = e.value;
}, "id_0");

webMI.trigger.connect("clicked", function(e) {
var id = "id_1";
var value = e.value;
return function(value) {
webMI.trigger.fire("com.atvise.datepicker_" + popupId, curTime);
webMI.display.closeWindow();
} (value);
}, "id_1");

webMI.trigger.connect("clicked", function(e) {
var id = "id_2";
var value = e.value;
return function(value) {
webMI.trigger.fire("setValue", curTime = 0, "id_0");
} (value);
}, "id_2");

webMI.addOnload(function() {
	webMI.trigger.fire("setValue", curTime = timestamp, "id_0");
});
webMI.trigger.connect("clicked", function(e) {
var id = "id_3";
var value = e.value;
return function(value) {
var now = (new Date()).getTime();
curTime = now;
webMI.trigger.fire("setValue", now, "id_0");
} (value);
}, "id_3");

]]></script>
</svg>
