<?xml version='1.0' encoding='UTF-8' standalone='no'?>
<svg id="svg1658" xmlns:cc="http://creativecommons.org/ns#" height="184.39863" width="227.54166" xmlns:dc="http://purl.org/dc/elements/1.1/" xmlns:rdf="http://www.w3.org/1999/02/22-rdf-syntax-ns#" xmlns:svg="http://www.w3.org/2000/svg" xmlns:inkscape="http://www.inkscape.org/namespaces/inkscape" xmlns:atv="http://webmi.atvise.com/2007/svgext" xmlns="http://www.w3.org/2000/svg" xmlns:xlink="http://www.w3.org/1999/xlink" xmlns:sodipodi="http://sodipodi.sourceforge.net/DTD/sodipodi-0.dtd" sodipodi:docname="MudPump.svg" version="1.1" inkscape:version="1.0beta1 (d07a077, 2019-11-03)">
 <defs id="defs1652">
  <linearGradient id="SVGID_1_" class="linear" y2="0.499855" x2="1" x1="2.18367e-5" gradientUnits="objectBoundingBox" y1="0.499855">
   <stop stop-color="#ff5600" offset="0"/>
   <stop stop-color="#1a0c00" offset="1"/>
  </linearGradient>
  <linearGradient id="SVGID_2_" class="linear" y2="0.49997" x2="0.999949" x1="0" gradientUnits="objectBoundingBox" y1="0.49997">
   <stop stop-color="#ff5600" offset="0"/>
   <stop stop-color="#1a0c00" offset="1"/>
  </linearGradient>
  <linearGradient id="SVGID_3_" class="linear" y2="1" x2="0.499995" x1="0.499995" gradientUnits="objectBoundingBox" y1="1.45123e-5">
   <stop stop-color="#ff5600" offset="0"/>
   <stop stop-color="#1a0c00" offset="1"/>
  </linearGradient>
  <linearGradient id="SVGID_4_" class="linear" y2="1.00002" x2="0.500002" x1="0.500002" gradientUnits="objectBoundingBox" y1="1.2031e-5">
   <stop stop-color="#ff5600" offset="0"/>
   <stop stop-color="#1a0c00" offset="1"/>
  </linearGradient>
  <linearGradient id="SVGID_5_" class="linear" y2="0.500081" x2="0.999946" x1="-0.00012205" gradientUnits="objectBoundingBox" y1="0.500081">
   <stop stop-color="#ff5600" offset="0"/>
   <stop stop-color="#1a0c00" offset="1"/>
  </linearGradient>
  <linearGradient id="SVGID_6_" class="linear" y2="0.500081" x2="0.999892" x1="-0.000176295" gradientUnits="objectBoundingBox" y1="0.500081">
   <stop stop-color="#ff5600" offset="0"/>
   <stop stop-color="#1a0c00" offset="1"/>
  </linearGradient>
  <linearGradient id="SVGID_7_" class="linear" y2="0.500014" x2="0.999837" x1="-0.000230404" gradientUnits="objectBoundingBox" y1="0.500014">
   <stop stop-color="#ff5600" offset="0"/>
   <stop stop-color="#1a0c00" offset="1"/>
  </linearGradient>
  <linearGradient id="SVGID_8_" class="linear" y2="0.499922" x2="1.00001" x1="1.13624e-5" gradientUnits="objectBoundingBox" y1="0.499922">
   <stop stop-color="#ff5600" offset="0"/>
   <stop stop-color="#1a0c00" offset="1"/>
  </linearGradient>
 </defs>
 <sodipodi:namedview borderopacity="1.0" inkscape:window-width="1366" bordercolor="#666666" inkscape:cy="472.75558" inkscape:zoom="0.35" inkscape:pageopacity="0.0" id="base" inkscape:pageshadow="2" inkscape:window-x="0" inkscape:window-height="691" inkscape:document-rotation="0" inkscape:current-layer="layer1" inkscape:cx="412.85714" showgrid="false" inkscape:document-units="mm" inkscape:window-maximized="1" inkscape:window-y="0" pagecolor="#ffffff"/>
 <metadata id="metadata1655">
  <rdf:RDF>
   <cc:Work rdf:about="">
    <dc:format>image/svg+xml</dc:format>
    <dc:type rdf:resource="http://purl.org/dc/dcmitype/StillImage"/>
    <dc:title/>
   </cc:Work>
  </rdf:RDF>
  <atv:gridconfig height="20" width="20" gridstyle="lines" enabled="false"/>
  <atv:snapconfig height="10" width="10" enabled="false"/>
 </metadata>
 <g id="layer1" transform="translate(3.4017852,-23.08342)" atv:refpy="92.199" inkscape:groupmode="layer" inkscape:label="Layer 1" atv:refpx="113.771">
  <g id="g3066" transform="matrix(2.2754166,0,0,2.2309705,-3.4017852,5.5926114)" atv:refpy="115.283" atv:refpx="110.369">
   <g id="shape" atv:refpy="50" atv:refpx="50">
    <path id="path2820" d="M100,15.679L85.926,15.679L85.926,11.481C85.926,10.936 85.484,10.493 84.938,10.493L83.333,10.493C83.333,9.948 82.891,9.505 82.345,9.505L17.284,9.505C16.738,9.505 16.296,9.947 16.296,10.493L14.69,10.493C14.145,10.493 13.703,10.935 13.703,11.481L13.703,15.679L0,15.679L0,21.111L11.605,21.111L11.605,37.037L11.867,37.037L11.867,47.654C11.867,47.995 12.143,48.27 12.484,48.27L13.564,48.27L13.579,51.356C13.579,51.901 14.021,52.344 14.567,52.344L16.295,52.344L16.295,58.27L16.295,77.565L13.949,90.494L19.258,90.494L21.851,90.494L24.086,90.494L24.086,89.406C24.086,88.15 25.104,87.132 26.36,87.132L73.268,87.132C74.524,87.132 75.542,88.15 75.542,89.406L75.542,90.494L77.777,90.494L80.37,90.494L85.679,90.494L83.333,77.565L83.333,58.272L83.333,52.346L84.938,52.346C85.483,52.346 85.926,51.904 85.926,51.358L85.941,48.272L87.021,48.272C87.362,48.272 87.638,47.995 87.638,47.655L87.638,37.037L87.9,37.037L87.9,21.111L100,21.111Z" fill="#e34300" inkscape:connector-curvature="0" atv:refpy="50" atv:refpx="50"/>
   </g>
   <g id="dark" atv:refpy="48.532" atv:refpx="49.815">
    <rect id="rect2823" y="24.815001" fill="#8a3400" height="32.716" x="20" atv:refpy="41.173" width="59.630001" atv:refpx="49.815"/>
    <path id="path2825" d="M61.008,79.012L38.457,79.012C31.105,79.012 25.124,73.179 25.124,66.008L25.124,57.447L34.013,57.447L34.013,66.008C34.013,68.277 36.007,70.122 38.457,70.122L61.008,70.122C63.459,70.122 65.452,68.276 65.452,66.008L65.452,57.447L74.341,57.447L74.341,66.008C74.341,73.179 68.36,79.012 61.008,79.012" fill="#8a3400" inkscape:connector-curvature="0" atv:refpy="68.23" atv:refpx="49.733"/>
    <circle id="circle2827" cy="47.530998" fill="#8a3400" atv:refpy="47.531" r="6.5840001" cx="29.547001" atv:refpx="29.547"/>
    <circle id="circle2829" cy="47.530998" fill="#8a3400" atv:refpy="47.531" r="6.5840001" cx="49.712002" atv:refpx="49.712"/>
    <circle id="circle2831" cy="47.530998" fill="#8a3400" atv:refpy="47.531" r="6.5840001" cx="69.876999" atv:refpx="69.877"/>
    <circle id="circle2833" cy="73.950996" fill="#8a3400" atv:refpy="73.951" r="8.7810001" cx="49.712002" atv:refpx="49.712"/>
    <path id="path2835" d="M64,22.333L55,22.333L55,16.332C55,15.227 55.895,14.332 57,14.332L62,14.332C63.105,14.332 64,15.227 64,16.332Z" fill="#8a3400" inkscape:connector-curvature="0" atv:refpy="18.333" atv:refpx="59.5"/>
    <path id="path2837" d="M43.833,22.333L34.833,22.333L34.833,16.332C34.833,15.227 35.728,14.332 36.833,14.332L41.833,14.332C42.937,14.332 43.833,15.227 43.833,16.332Z" fill="#8a3400" inkscape:connector-curvature="0" atv:refpy="18.333" atv:refpx="39.333"/>
   </g>
   <g id="linear" atv:refpy="37.12" atv:refpx="49.753">
    <rect id="rect2845" y="20.988001" fill="url(#SVGID_1_)" class="linear" height="3.457" x="23.086" atv:refpy="22.717" width="18.271999" atv:refpx="32.222"/>
    <rect id="rect2852" y="7.8400002" fill="url(#SVGID_2_)" class="linear" height="13.148" x="27.284" atv:refpy="14.414" width="9.8769999" atv:refpx="32.222"/>
    <path id="path2859" d="M79.753,16.296L79.753,21.48C79.753,22.026 79.311,22.468 78.765,22.468L20.741,22.468C20.195,22.468 19.753,22.026 19.753,21.48L19.753,16.296L11.605,16.296L11.605,37.037L19.753,37.037L19.753,31.852C19.753,31.307 20.195,30.864 20.741,30.864L78.765,30.864C79.311,30.864 79.753,31.306 79.753,31.852L79.753,37.037L87.901,37.037L87.901,16.296Z" fill="url(#SVGID_3_)" class="linear" inkscape:connector-curvature="0" atv:refpy="26.666" atv:refpx="49.753"/>
    <rect id="rect2866" y="22.469" fill="url(#SVGID_4_)" class="linear" height="8.3950005" x="19.753" atv:refpy="26.667" width="60" atv:refpx="49.753"/>
    <path id="path2873" d="M29.547,40.946C30.809,40.946 31.983,41.306 32.985,41.922C33.14,41.515 33.235,41.077 33.235,40.616L33.235,30.738C33.235,28.702 31.584,27.051 29.548,27.051C27.511,27.051 25.86,28.702 25.86,30.738L25.86,40.616C25.86,41.077 25.955,41.515 26.11,41.922C27.11,41.308 28.285,40.946 29.547,40.946" fill="url(#SVGID_5_)" class="linear" inkscape:connector-curvature="0" atv:refpy="34.487" atv:refpx="29.548"/>
    <path id="path2880" d="M49.712,40.946C50.974,40.946 52.148,41.306 53.15,41.922C53.305,41.515 53.4,41.077 53.4,40.616L53.4,30.738C53.4,28.702 51.749,27.051 49.713,27.051C47.677,27.051 46.026,28.702 46.026,30.738L46.026,40.616C46.026,41.077 46.121,41.515 46.276,41.922C47.276,41.308 48.45,40.946 49.712,40.946" fill="url(#SVGID_6_)" class="linear" inkscape:connector-curvature="0" atv:refpy="34.487" atv:refpx="49.713"/>
    <path id="path2887" d="M69.877,40.946C71.139,40.946 72.312,41.306 73.315,41.922C73.47,41.516 73.565,41.078 73.565,40.617L73.565,30.74C73.565,28.703 71.914,27.052 69.878,27.052C67.842,27.052 66.191,28.703 66.191,30.74L66.191,40.617C66.191,41.077 66.286,41.516 66.441,41.922C67.44,41.307 68.615,40.946 69.877,40.946" fill="url(#SVGID_7_)" class="linear" inkscape:connector-curvature="0" atv:refpy="34.488" atv:refpx="69.878"/>
    <path id="path2894" d="M49.712,65.17C51.345,65.17 52.868,65.624 54.177,66.4L54.177,57.449L45.288,57.449L45.288,66.375C46.588,65.613 48.097,65.17 49.712,65.17" fill="url(#SVGID_8_)" class="linear" inkscape:connector-curvature="0" atv:refpy="61.925" atv:refpx="49.733"/>
   </g>
   <g id="light" atv:refpy="61.975" atv:refpx="49.712">
    <path id="path2897" d="M61.872,70.864C65.283,70.864 68.058,68.91 68.058,66.508L68.058,58.198L65.7,58.198L65.7,66.008C65.7,68.277 63.706,70.123 61.256,70.123Z" fill="#ff5600" inkscape:connector-curvature="0" atv:refpy="64.531" atv:refpx="64.657"/>
    <path id="path2899" d="M38.086,78.214C32.367,78.214 27.716,72.813 27.716,66.173L27.716,58.247L25.741,58.247L25.741,66.173C25.741,72.812 31.279,78.214 38.086,78.214" fill="#ff5600" inkscape:connector-curvature="0" atv:refpy="68.231" atv:refpx="31.913"/>
    <path id="path2901" d="M49.712,61.934C43.076,61.934 37.696,67.314 37.696,73.95C37.696,80.586 43.076,85.966 49.712,85.966C56.349,85.966 61.728,80.586 61.728,73.95C61.728,67.314 56.348,61.934 49.712,61.934M49.712,82.732C44.862,82.732 40.931,78.801 40.931,73.951C40.931,69.101 44.862,65.169 49.712,65.169C54.562,65.169 58.493,69.1 58.493,73.951C58.493,78.8 54.562,82.732 49.712,82.732" fill="#ff5600" inkscape:connector-curvature="0" atv:refpy="73.95" atv:refpx="49.712"/>
    <path id="path2903" d="M29.547,37.984C24.274,37.984 20,42.258 20,47.531C20,52.804 24.274,57.078 29.547,57.078C34.82,57.078 39.094,52.804 39.094,47.531C39.095,42.258 34.82,37.984 29.547,37.984M29.547,54.115C25.911,54.115 22.963,51.167 22.963,47.531C22.963,43.895 25.911,40.947 29.547,40.947C33.183,40.947 36.131,43.895 36.131,47.531C36.132,51.167 33.184,54.115 29.547,54.115" fill="#ff5600" inkscape:connector-curvature="0" atv:refpy="47.531" atv:refpx="29.547"/>
    <path id="path2905" d="M49.712,37.984C44.439,37.984 40.165,42.258 40.165,47.531C40.165,52.804 44.439,57.078 49.712,57.078C54.985,57.078 59.259,52.804 59.259,47.531C59.259,42.258 54.985,37.984 49.712,37.984M49.712,54.115C46.076,54.115 43.128,51.167 43.128,47.531C43.128,43.895 46.076,40.947 49.712,40.947C53.348,40.947 56.296,43.895 56.296,47.531C56.296,51.167 53.348,54.115 49.712,54.115" fill="#ff5600" inkscape:connector-curvature="0" atv:refpy="47.531" atv:refpx="49.712"/>
    <path id="path2907" d="M69.877,37.984C64.604,37.984 60.33,42.258 60.33,47.531C60.33,52.804 64.604,57.078 69.877,57.078C75.149,57.078 79.423,52.804 79.423,47.531C79.423,42.258 75.148,37.984 69.877,37.984M69.877,54.115C66.241,54.115 63.292,51.167 63.292,47.531C63.292,43.895 66.24,40.947 69.877,40.947C73.512,40.947 76.461,43.895 76.461,47.531C76.461,51.167 73.513,54.115 69.877,54.115" fill="#ff5600" inkscape:connector-curvature="0" atv:refpy="47.531" atv:refpx="69.877"/>
   </g>
   <g id="shadow" atv:refpy="50.622" atv:refpx="50">
    <circle id="circle2910" cy="73.950996" fill="#1a0c00" atv:refpy="73.951" r="6.5419998" cx="49.712002" atv:refpx="49.712"/>
    <circle id="circle2912" cy="47.530998" fill="#1a0c00" atv:refpy="47.531" r="4.6090002" cx="29.547001" atv:refpx="29.547"/>
    <circle id="circle2914" cy="47.530998" fill="#1a0c00" atv:refpy="47.531" r="4.6090002" cx="49.712002" atv:refpx="49.712"/>
    <circle id="circle2916" cy="47.530998" fill="#1a0c00" atv:refpy="47.531" r="4.6090002" cx="69.876999" atv:refpx="69.877"/>
    <polygon id="polygon2918" points="53.294,64.568 53.915,63.491 55.158,63.491 55.78,64.568 55.158,65.644 53.915,65.644 " fill="#1a0c00" atv:refpy="64.567" atv:refpx="54.537"/>
    <polygon id="polygon2920" points="44.162,64.257 44.784,63.181 46.027,63.181 46.648,64.257 46.027,65.334 44.784,65.334 " fill="#1a0c00" atv:refpy="64.257" atv:refpx="45.405"/>
    <polygon id="polygon2922" points="53.17,83.365 53.792,82.289 55.035,82.289 55.656,83.365 55.035,84.442 53.792,84.442 " fill="#1a0c00" atv:refpy="83.365" atv:refpx="54.413"/>
    <polygon id="polygon2924" points="38.93,69.902 39.552,68.826 40.795,68.826 41.416,69.902 40.795,70.979 39.552,70.979 " fill="#1a0c00" atv:refpy="69.903" atv:refpx="40.173"/>
    <polygon id="polygon2926" points="44.409,83.644 45.031,82.568 46.274,82.568 46.895,83.644 46.274,84.721 45.031,84.721 " fill="#1a0c00" atv:refpy="83.644" atv:refpx="45.652"/>
    <polygon id="polygon2928" points="57.987,70.473 58.609,69.396 59.852,69.396 60.473,70.473 59.852,71.549 58.609,71.549 " fill="#1a0c00" atv:refpy="70.472" atv:refpx="59.23"/>
    <polygon id="polygon2930" points="38.93,77.946 39.552,76.87 40.795,76.87 41.416,77.946 40.795,79.023 39.552,79.023 " fill="#1a0c00" atv:refpy="77.947" atv:refpx="40.173"/>
    <polygon id="polygon2932" points="58.111,78.023 58.732,76.946 59.975,76.946 60.597,78.023 59.975,79.099 58.732,79.099 " fill="#1a0c00" atv:refpy="78.023" atv:refpx="59.354"/>
    <rect id="rect2934" y="33.580002" fill="#1a0c00" height="2.7160001" x="87.901001" atv:refpy="34.938" width="1.358" atv:refpx="88.58"/>
    <rect id="rect2936" y="22.016001" fill="#1a0c00" height="2.7160001" x="87.901001" atv:refpy="23.374" width="1.358" atv:refpx="88.58"/>
    <rect id="rect2938" y="28.724001" fill="#1a0c00" height="2.7160001" x="87.901001" atv:refpy="30.082" width="1.358" atv:refpx="88.58"/>
    <rect id="rect2940" y="33.580002" fill="#1a0c00" height="2.7160001" x="10.247" atv:refpy="34.938" width="1.358" atv:refpx="10.926"/>
    <rect id="rect2942" y="22.016001" fill="#1a0c00" height="2.7160001" x="10.247" atv:refpy="23.374" width="1.358" atv:refpx="10.926"/>
    <rect id="rect2944" y="28.724001" fill="#1a0c00" height="2.7160001" x="10.247" atv:refpy="30.082" width="1.358" atv:refpx="10.926"/>
    <polygon id="polygon2946" points="31.852,40.37 32.469,39.301 33.704,39.301 34.321,40.37 33.704,41.44 32.469,41.44 " fill="#1a0c00" atv:refpy="40.37" atv:refpx="33.087"/>
    <polygon id="polygon2948" points="25.185,40.123 25.802,39.054 27.037,39.054 27.654,40.123 27.037,41.193 25.802,41.193 " fill="#1a0c00" atv:refpy="40.123" atv:refpx="26.419"/>
    <polygon id="polygon2950" points="31.852,54.815 32.469,53.746 33.704,53.746 34.321,54.815 33.704,55.884 32.469,55.884 " fill="#1a0c00" atv:refpy="54.815" atv:refpx="33.087"/>
    <polygon id="polygon2952" points="21.028,44.609 21.646,43.539 22.88,43.539 23.498,44.609 22.88,45.678 21.646,45.678 " fill="#1a0c00" atv:refpy="44.608" atv:refpx="22.263"/>
    <polygon id="polygon2954" points="25.185,54.938 25.802,53.869 27.037,53.869 27.654,54.938 27.037,56.007 25.802,56.007 " fill="#1a0c00" atv:refpy="54.938" atv:refpx="26.419"/>
    <polygon id="polygon2956" points="35.679,45.062 36.296,43.993 37.531,43.993 38.148,45.062 37.531,46.131 36.296,46.131 " fill="#1a0c00" atv:refpy="45.062" atv:refpx="36.913"/>
    <polygon id="polygon2958" points="21.028,50.411 21.646,49.342 22.88,49.342 23.498,50.411 22.88,51.48 21.646,51.48 " fill="#1a0c00" atv:refpy="50.411" atv:refpx="22.263"/>
    <polygon id="polygon2960" points="35.679,50.864 36.296,49.795 37.531,49.795 38.148,50.864 37.531,51.933 36.296,51.933 " fill="#1a0c00" atv:refpy="50.864" atv:refpx="36.913"/>
    <polygon id="polygon2962" points="52.016,40.37 52.634,39.301 53.868,39.301 54.486,40.37 53.868,41.44 52.634,41.44 " fill="#1a0c00" atv:refpy="40.37" atv:refpx="53.251"/>
    <polygon id="polygon2964" points="45.35,40.123 45.967,39.054 47.202,39.054 47.819,40.123 47.202,41.193 45.967,41.193 " fill="#1a0c00" atv:refpy="40.123" atv:refpx="46.585"/>
    <polygon id="polygon2966" points="52.016,54.815 52.634,53.746 53.868,53.746 54.486,54.815 53.868,55.884 52.634,55.884 " fill="#1a0c00" atv:refpy="54.815" atv:refpx="53.251"/>
    <polygon id="polygon2968" points="41.193,44.609 41.81,43.539 43.045,43.539 43.662,44.609 43.045,45.678 41.81,45.678 " fill="#1a0c00" atv:refpy="44.608" atv:refpx="42.427"/>
    <polygon id="polygon2970" points="45.35,54.938 45.967,53.869 47.202,53.869 47.819,54.938 47.202,56.007 45.967,56.007 " fill="#1a0c00" atv:refpy="54.938" atv:refpx="46.585"/>
    <polygon id="polygon2972" points="55.844,45.062 56.461,43.993 57.695,43.993 58.313,45.062 57.695,46.131 56.461,46.131 " fill="#1a0c00" atv:refpy="45.062" atv:refpx="57.079"/>
    <polygon id="polygon2974" points="41.193,50.411 41.81,49.342 43.045,49.342 43.662,50.411 43.045,51.48 41.81,51.48 " fill="#1a0c00" atv:refpy="50.411" atv:refpx="42.427"/>
    <polygon id="polygon2976" points="55.844,50.864 56.461,49.795 57.695,49.795 58.313,50.864 57.695,51.933 56.461,51.933 " fill="#1a0c00" atv:refpy="50.864" atv:refpx="57.079"/>
    <polygon id="polygon2978" points="72.181,40.37 72.798,39.301 74.033,39.301 74.65,40.37 74.033,41.44 72.798,41.44 " fill="#1a0c00" atv:refpy="40.37" atv:refpx="73.416"/>
    <polygon id="polygon2980" points="65.514,40.123 66.132,39.054 67.366,39.054 67.984,40.123 67.366,41.193 66.132,41.193 " fill="#1a0c00" atv:refpy="40.123" atv:refpx="66.749"/>
    <polygon id="polygon2982" points="72.181,54.815 72.798,53.746 74.033,53.746 74.65,54.815 74.033,55.884 72.798,55.884 " fill="#1a0c00" atv:refpy="54.815" atv:refpx="73.416"/>
    <polygon id="polygon2984" points="61.358,44.609 61.975,43.539 63.209,43.539 63.827,44.609 63.209,45.678 61.975,45.678 " fill="#1a0c00" atv:refpy="44.608" atv:refpx="62.593"/>
    <polygon id="polygon2986" points="65.514,54.938 66.132,53.869 67.366,53.869 67.984,54.938 67.366,56.007 66.132,56.007 " fill="#1a0c00" atv:refpy="54.938" atv:refpx="66.749"/>
    <polygon id="polygon2988" points="76.008,45.062 76.626,43.993 77.86,43.993 78.477,45.062 77.86,46.131 76.626,46.131 " fill="#1a0c00" atv:refpy="45.062" atv:refpx="77.243"/>
    <polygon id="polygon2990" points="61.358,50.411 61.975,49.342 63.209,49.342 63.827,50.411 63.209,51.48 61.975,51.48 " fill="#1a0c00" atv:refpy="50.411" atv:refpx="62.593"/>
    <polygon id="polygon2992" points="76.008,50.864 76.626,49.795 77.86,49.795 78.477,50.864 77.86,51.933 76.626,51.933 " fill="#1a0c00" atv:refpy="50.864" atv:refpx="77.243"/>
    <rect id="rect2994" y="19.403" fill="#1a0c00" height="1.358" x="38.147999" atv:refpy="20.082" width="2.7160001" atv:refpx="39.506"/>
    <rect id="rect2996" y="19.403" fill="#1a0c00" height="1.358" x="33.868" atv:refpy="20.082" width="2.7160001" atv:refpx="35.226"/>
    <rect id="rect2998" y="19.403" fill="#1a0c00" height="1.358" x="28.23" atv:refpy="20.082" width="2.7160001" atv:refpx="29.588"/>
    <rect id="rect3000" y="19.403" fill="#1a0c00" height="1.358" x="23.58" atv:refpy="20.082" width="2.7160001" atv:refpx="24.938"/>
    <rect id="rect3002" y="16.914" fill="#1a0c00" height="19.506001" x="83.454002" atv:refpy="26.667" width="0.5" atv:refpx="83.704"/>
    <rect id="rect3004" y="16.914" fill="#1a0c00" height="19.506001" x="15.306" atv:refpy="26.667" width="0.5" atv:refpx="15.556"/>
    <path id="path3006" d="M38.333,70.112C38.705,69.005 39.242,67.973 39.902,67.036L34.171,67.036C34.659,68.767 36.324,70.059 38.333,70.112" fill="#1a0c00" inkscape:connector-curvature="0" atv:refpy="68.575" atv:refpx="37.037"/>
    <path id="path3008" d="M65.294,67.037L59.522,67.037C60.183,67.975 60.719,69.007 61.092,70.115C63.119,70.08 64.804,68.78 65.294,67.037" fill="#1a0c00" inkscape:connector-curvature="0" atv:refpy="68.576" atv:refpx="62.408"/>
    <path id="path3010" d="M77.778,90.494L71.637,73.827C69.201,76.969 65.349,79.013 61.008,79.013L60.599,79.013C58.687,83.117 54.538,85.968 49.712,85.968C44.886,85.968 40.737,83.117 38.825,79.013L38.457,79.013C34.182,79.013 30.381,77.033 27.939,73.972L21.852,90.494L24.087,90.494L24.087,89.406C24.087,88.15 25.105,87.132 26.361,87.132L73.269,87.132C74.525,87.132 75.543,88.15 75.543,89.406L75.543,90.494Z" fill="#1a0c00" inkscape:connector-curvature="0" atv:refpy="82.16" atv:refpx="49.815"/>
    <path id="path3012" d="M16.296,58.272L16.296,77.566L19.259,61.235C17.623,61.235 16.296,59.908 16.296,58.272" fill="#1a0c00" inkscape:connector-curvature="0" atv:refpy="67.919" atv:refpx="17.777"/>
    <path id="path3014" d="M80.37,61.235L83.333,77.566L83.333,58.272C83.333,59.908 82.007,61.235 80.37,61.235" fill="#1a0c00" inkscape:connector-curvature="0" atv:refpy="67.919" atv:refpx="81.852"/>
    <polygon id="polygon3016" points="85.926,16.296 87.901,16.296 87.901,21.111 100,21.111 100,15.679 85.926,15.679 " fill="#1a0c00" atv:refpy="18.395" atv:refpx="92.963"/>
    <polygon id="polygon3018" points="13.704,16.296 13.704,15.679 0,15.679 0,21.111 11.605,21.111 11.605,16.296 " fill="#1a0c00" atv:refpy="18.395" atv:refpx="6.852"/>
    <path id="path3020" d="M72.099,57.407L72.099,65.032C72.099,71.271 67.348,76.36 61.427,76.594C61.318,77.08 61.174,77.553 61.008,78.015L61.008,79.012C68.36,79.012 74.341,73.179 74.341,66.008L74.341,57.447Z" fill="#1a0c00" inkscape:connector-curvature="0" atv:refpy="68.209" atv:refpx="67.675"/>
    <path id="path3022" d="M45.059,39.198C44.96,39.165 44.86,39.136 44.75,39.136L44.083,39.136L44.083,37.636L44.75,37.636C45.302,37.636 45.75,37.188 45.75,36.636L45.75,35.5C45.75,34.948 45.302,34.5 44.75,34.5L44.083,34.5L44.083,33L44.75,33C45.302,33 45.75,32.552 45.75,32L45.75,30.864L40.836,30.864L40.836,41.636L42.211,41.636C42.989,40.648 43.955,39.816 45.059,39.198" fill="#1a0c00" inkscape:connector-curvature="0" atv:refpy="36.25" atv:refpx="43.293"/>
    <path id="path3024" d="M65.203,39.21C65.088,39.164 64.964,39.135 64.833,39.135L64.166,39.135L64.166,37.635L64.833,37.635C65.385,37.635 65.833,37.187 65.833,36.635L65.833,35.5C65.833,34.948 65.385,34.5 64.833,34.5L64.166,34.5L64.166,33L64.833,33C65.385,33 65.833,32.552 65.833,32L65.833,30.864L60.92,30.864L60.92,41.636L62.377,41.636C63.149,40.654 64.108,39.827 65.203,39.21" fill="#1a0c00" inkscape:connector-curvature="0" atv:refpy="36.25" atv:refpx="63.377"/>
    <path id="path3026" d="M74.836,37.636L75.503,37.636L75.503,39.136L74.836,39.136C74.727,39.136 74.627,39.166 74.529,39.198C75.633,39.816 76.598,40.648 77.375,41.636L78.749,41.636L78.749,30.864L73.835,30.864L73.835,32C73.835,32.552 74.282,33 74.835,33L75.502,33L75.502,34.5L74.835,34.5C74.282,34.5 73.835,34.948 73.835,35.5L73.835,36.636C73.836,37.188 74.283,37.636 74.836,37.636" fill="#1a0c00" inkscape:connector-curvature="0" atv:refpy="36.25" atv:refpx="76.292"/>
    <path id="path3028" d="M54.586,37.636L55.253,37.636L55.253,39.136L54.586,39.136C54.5,39.136 54.423,39.165 54.343,39.185C55.455,39.804 56.428,40.641 57.211,41.636L58.5,41.636L58.5,30.864L53.586,30.864L53.586,32C53.586,32.552 54.034,33 54.586,33L55.253,33L55.253,34.5L54.586,34.5C54.034,34.5 53.586,34.948 53.586,35.5L53.586,36.636C53.586,37.188 54.034,37.636 54.586,37.636" fill="#1a0c00" inkscape:connector-curvature="0" atv:refpy="36.25" atv:refpx="56.043"/>
    <path id="path3030" d="M34.67,37.636L35.337,37.636L35.337,39.136L34.67,39.136C34.521,39.136 34.383,39.173 34.256,39.232C35.337,39.847 36.284,40.665 37.048,41.635L38.584,41.635L38.584,30.864L33.67,30.864L33.67,32C33.67,32.552 34.118,33 34.67,33L35.337,33L35.337,34.5L34.67,34.5C34.118,34.5 33.67,34.948 33.67,35.5L33.67,36.636C33.67,37.188 34.117,37.636 34.67,37.636" fill="#1a0c00" inkscape:connector-curvature="0" atv:refpy="36.25" atv:refpx="36.127"/>
    <path id="path3032" d="M24.835,39.234C24.707,39.174 24.567,39.136 24.417,39.136L23.75,39.136L23.75,37.636L24.417,37.636C24.969,37.636 25.417,37.188 25.417,36.636L25.417,35.5C25.417,34.948 24.969,34.5 24.417,34.5L23.75,34.5L23.75,33L24.417,33C24.969,33 25.417,32.552 25.417,32L25.417,30.864L20.503,30.864L20.503,41.636L22.047,41.636C22.811,40.666 23.756,39.848 24.835,39.234" fill="#1a0c00" inkscape:connector-curvature="0" atv:refpy="36.25" atv:refpx="22.96"/>
    <rect id="rect3034" y="10.75" fill="#1a0c00" height="5.125" x="83.375" atv:refpy="13.313" width="0.5" atv:refpx="83.625"/>
   </g>
   <g id="hlight" atv:refpy="40.895" atv:refpx="49.709">
    <rect id="rect3037" y="22.917" fill="#ffd9c9" height="1" x="20.5" atv:refpy="23.417" width="58.917" atv:refpx="49.959"/>
    <rect id="rect3039" y="17.333" fill="#ffd9c9" height="1" x="11.917" atv:refpy="17.833" width="3.1670001" atv:refpx="13.501"/>
    <rect id="rect3041" y="17.333" fill="#ffd9c9" height="1" x="16.25" atv:refpy="17.833" width="3.1670001" atv:refpx="17.834"/>
    <rect id="rect3043" y="17.333" fill="#ffd9c9" height="1" x="80" atv:refpy="17.833" width="3.1670001" atv:refpx="81.584"/>
    <rect id="rect3045" y="17.333" fill="#ffd9c9" height="1" x="84.333" atv:refpy="17.833" width="3.1670001" atv:refpx="85.917"/>
    <path id="path3047" d="M58.743,73.95L58.243,73.95C58.243,69.247 54.416,65.42 49.712,65.42C45.008,65.42 41.181,69.247 41.181,73.95L40.681,73.95C40.681,68.971 44.732,64.92 49.712,64.92C54.691,64.92 58.743,68.971 58.743,73.95" fill="#ffd9c9" inkscape:connector-curvature="0" atv:refpy="69.435" atv:refpx="49.712"/>
    <path id="path3049" d="M36.382,47.531L35.882,47.531C35.882,44.038 33.04,41.197 29.548,41.197C26.055,41.197 23.214,44.039 23.214,47.531L22.714,47.531C22.714,43.762 25.779,40.697 29.548,40.697C33.315,40.697 36.382,43.762 36.382,47.531" fill="#ffd9c9" inkscape:connector-curvature="0" atv:refpy="44.114" atv:refpx="29.548"/>
    <path id="path3051" d="M56.546,47.531L56.046,47.531C56.046,44.038 53.204,41.197 49.712,41.197C46.219,41.197 43.378,44.039 43.378,47.531L42.878,47.531C42.878,43.762 45.944,40.697 49.712,40.697C53.48,40.697 56.546,43.762 56.546,47.531" fill="#ffd9c9" inkscape:connector-curvature="0" atv:refpy="44.114" atv:refpx="49.712"/>
    <path id="path3053" d="M76.711,47.531L76.211,47.531C76.211,44.038 73.369,41.197 69.877,41.197C66.384,41.197 63.541,44.039 63.541,47.531L63.041,47.531C63.041,43.762 66.107,40.697 69.877,40.697C73.646,40.697 76.711,43.762 76.711,47.531" fill="#ffd9c9" inkscape:connector-curvature="0" atv:refpy="44.114" atv:refpx="69.876"/>
    <rect id="rect3055" y="10.167" fill="#ffd9c9" height="0.75" x="18.167" atv:refpy="10.542" width="9.1169996" atv:refpx="22.725"/>
    <rect id="rect3057" y="10.167" fill="#ffd9c9" height="0.75" x="37.160999" atv:refpy="10.542" width="44.006001" atv:refpx="59.164"/>
    <path id="path3059" d="M17,15.75C16.862,15.75 16.75,15.638 16.75,15.5L16.75,10.167C16.75,10.029 16.862,9.917 17,9.917C17.138,9.917 17.25,10.029 17.25,10.167L17.25,15.5C17.25,15.638 17.138,15.75 17,15.75" fill="#ffd9c9" inkscape:connector-curvature="0" atv:refpy="12.834" atv:refpx="17"/>
    <path id="path3061" d="M14.25,15.75C14.112,15.75 14,15.638 14,15.5L14,11.167C14,11.029 14.112,10.917 14.25,10.917C14.388,10.917 14.5,11.029 14.5,11.167L14.5,15.5C14.5,15.638 14.388,15.75 14.25,15.75" fill="#ffd9c9" inkscape:connector-curvature="0" atv:refpy="13.334" atv:refpx="14.25"/>
    <rect id="rect3063" y="7.8400002" fill="#ffd9c9" height="11.125" x="28.625" atv:refpy="13.403" width="1.25" atv:refpx="29.25"/>
   </g>
  </g>
 </g>
</svg>
