<?xml version='1.0' encoding='UTF-8' standalone='no'?>
<svg xmlns:svg="http://www.w3.org/2000/svg" version="1.2" xmlns:rdf="http://www.w3.org/1999/02/22-rdf-syntax-ns#" xmlns:xlink="http://www.w3.org/1999/xlink" xmlns:dc="http://purl.org/dc/elements/1.1/" xmlns:cc="http://creativecommons.org/ns#" width="100" xmlns="http://www.w3.org/2000/svg" height="49.97" xmlns:atv="http://webmi.atvise.com/2007/svgext">
 <defs/>
 <metadata>
  <atv:gridconfig enabled="false" gridstyle="lines" width="20" height="20"/>
  <atv:snapconfig enabled="false" width="10" height="10"/>
 </metadata>
 <g id="id_2" atv:insensitive="true" atv:refpx="0" atv:refpy="0">
  <rect id="id_3" y="0" fill="#0000ff" fill-opacity="0" atv:refpx="50" atv:refpy="24.985" x="0" width="100.00" height="49.97"/>
 </g>
 <g id="id_1" atv:refpx="50" atv:refpy="24.985" transform="matrix(1,0,0,1,0,-0.0304)">
  <g id="layer1" atv:refpx="50" atv:refpy="25.015" transform="translate(-64.955209,-78.193727)">
   <g id="shape" atv:refpx="114.955" atv:refpy="103.194" transform="matrix(1.4492754,0,0,1.3333069,42.49144,36.528879)">
    <path id="path47" fill="#c78163" atv:refpx="50" atv:refpy="50" d="M81.5,68.75C81.041,68.75 80.582,68.645 80.158,68.434L50,53.354L19.842,68.434C18.912,68.896 17.808,68.849 16.923,68.301C16.039,67.755 15.5,66.79 15.5,65.75L15.5,34.25C15.5,33.21 16.039,32.244 16.923,31.698C17.808,31.151 18.911,31.101 19.842,31.567L50,46.646L80.158,31.567C81.088,31.101 82.192,31.15 83.077,31.698C83.962,32.244 84.5,33.21 84.5,34.25L84.5,65.75C84.5,66.79 83.962,67.755 83.077,68.302C82.596,68.6 82.049,68.75 81.5,68.75"/>
   </g>
   <path id="path50" fill="#947365" atv:refpx="114.954" atv:refpy="103.194" d="M160.607,126.86C160.163,126.86 159.72,126.767 159.31,126.579L114.955,106.175L70.6,126.579C69.701,126.991 68.633,126.947 67.779,126.461C66.924,125.976 66.404,125.117 66.404,124.193L66.404,82.194C66.404,81.27 66.924,80.412 67.779,79.926C68.633,79.44 69.701,79.396 70.6,79.809L114.955,100.212L159.31,79.809C160.207,79.397 161.275,79.441 162.13,79.926C162.984,80.412 163.504,81.27 163.504,82.194L163.504,124.193C163.504,125.117 162.984,125.976 162.13,126.461C161.665,126.725 161.136,126.86 160.607,126.86" stroke-width="1.39008"/>
   <g id="light" atv:refpx="114.955" atv:refpy="103.195" transform="matrix(1.4492754,0,0,1.3333069,42.49144,36.528879)">
    <path id="path53" fill="#de9c5f" atv:refpx="34.25" atv:refpy="50" d="M18.5,66.25C18.409,66.25 18.317,66.225 18.237,66.176C18.09,66.084 18,65.923 18,65.75L18,34.25C18,34.077 18.09,33.916 18.237,33.825C18.383,33.734 18.567,33.726 18.723,33.803L50.223,49.553C50.393,49.638 50.5,49.811 50.5,50C50.5,50.189 50.393,50.362 50.224,50.447L18.723,66.197C18.653,66.232 18.577,66.25 18.5,66.25"/>
    <path id="path55" fill="#de9c5f" atv:refpx="65.75" atv:refpy="50" d="M81.5,66.25C81.424,66.25 81.347,66.232 81.276,66.197L49.775,50.447C49.607,50.362 49.5,50.189 49.5,50C49.5,49.811 49.607,49.638 49.776,49.553L81.276,33.803C81.43,33.724 81.616,33.733 81.762,33.824C81.91,33.916 82,34.077 82,34.25L82,65.75C82,65.923 81.91,66.084 81.763,66.176C81.683,66.225 81.592,66.25 81.5,66.25"/>
   </g>
   <g id="hlight" atv:refpx="114.955" atv:refpy="103.194" transform="matrix(1.4492754,0,0,1.3333069,42.49144,36.528879)">
    <polygon id="polygon58" points="48.882,50 19,35.059 19,64.941 " fill="#fbbc5a" atv:refpx="33.941" atv:refpy="50"/>
    <polygon id="polygon60" points="81,35.059 51.118,50 81,64.941 " fill="#fbbc5a" atv:refpx="66.059" atv:refpy="50"/>
   </g>
  </g>
 </g>
</svg>
