<?xml version='1.0' encoding='UTF-8' standalone='no'?>
<svg xmlns:atv="http://webmi.atvise.com/2007/svgext" enable-background="new 0 0 50 50" xmlns:xlink="http://www.w3.org/1999/xlink" version="1.1" height="20" xmlns="http://www.w3.org/2000/svg" x="0px" y="0px" id="Ebene_1" xml:space="preserve" width="20">
 <defs/>
 <metadata>
  <atv:parameter desc="symbol color" behavior="optional" defaultvalue="#000000" name="symbolColor" substitute="$SYMBOLCOLOR$" valuetype="color"/>
  <atv:gridconfig gridstyle="lines" height="20" enabled="false" width="20"/>
  <atv:snapconfig height="10" enabled="false" width="10"/>
 </metadata>
 <path fill="$SYMBOLCOLOR$" d="M16.222,11.696C15.832,12.538 15.633,13.255 15.099,14.089C14.49,15.039 13.446,17.109 11.818,17.628C10.577,18.024 8.719,17.79 7.848,17.729C6.258,17.62 5.291,16.634 5.307,13.37C5.309,13.06 5.199,12.44 5.094,12.148C5.061,12.055 4.966,11.836 4.966,11.836L3.014,7.675C2.821,7.334 2.941,6.902 3.282,6.709C3.622,6.516 4.054,6.635 4.247,6.976L6.142,10.317C6.142,10.317 6.208,10.422 6.299,10.425C6.441,10.43 6.49,10.361 6.527,10.224C6.55,10.137 6.518,9.927 6.518,9.927L5.611,4.07C5.532,3.563 5.88,3.087 6.389,3.008C6.897,2.929 7.373,3.277 7.451,3.786L8.216,8.714C8.216,8.714 8.259,8.921 8.358,8.957C8.488,9.004 8.546,8.99 8.632,8.882C8.69,8.809 8.696,8.598 8.696,8.598L8.959,3.077C8.959,2.563 9.377,2.146 9.891,2.146C10.405,2.146 10.822,2.563 10.822,3.077L10.53,8.614C10.53,8.614 10.528,8.979 10.59,9.064C10.707,9.225 10.878,9.229 11.019,9.156C11.104,9.112 11.166,8.892 11.166,8.892L12.358,4.255C12.479,3.755 12.982,3.448 13.482,3.569C13.982,3.689 14.29,4.193 14.169,4.693C14.169,4.693 13.219,8.486 13.089,10.01C13.081,10.102 13.045,10.328 13.042,10.421C13.016,11.191 13.066,11.673 13.381,11.904C13.856,12.25 14.204,11.472 14.526,11.051C14.788,10.722 15.128,9.79 15.392,9.285C15.765,8.57 16.353,8.722 16.595,8.854C16.977,9.062 17.279,9.364 16.908,10.138C16.663,10.652 16.37,11.376 16.222,11.696" atv:refpx="10" id="id_0" atv:refpy="10"/>
</svg>
