<?xml version='1.0' encoding='UTF-8' standalone='no'?>
<svg width="40" x="0px" version="1.1" y="0px" xmlns="http://www.w3.org/2000/svg" height="40" xmlns:xlink="http://www.w3.org/1999/xlink" id="Ebene_1" enable-background="new 0 0 50 50" xml:space="preserve" xmlns:atv="http://webmi.atvise.com/2007/svgext">
 <defs/>
 <metadata>
  <atv:parameter desc="symbol color" valuetype="color" substitute="$SYMBOLFILL$" behavior="optional" name="symbolColor" defaultvalue="#000000"/>
 </metadata>
 <path fill="$SYMBOLFILL$" id="id_0" atv:refpx="20.001" atv:refpy="20.001" d="M34.183,23.866C33.294,25.785 32.84,27.419 31.623,29.32C30.235,31.486 27.855,36.204 24.145,37.387C21.316,38.289 17.081,37.756 15.096,37.617C11.472,37.369 9.268,35.121 9.304,27.682C9.309,26.975 9.058,25.562 8.819,24.896C8.744,24.684 8.527,24.185 8.527,24.185L4.078,14.701C3.638,13.924 3.911,12.939 4.689,12.499C5.464,12.059 6.448,12.331 6.888,13.108L11.207,20.723C11.207,20.723 11.358,20.962 11.565,20.969C11.889,20.98 12.001,20.823 12.085,20.511C12.137,20.313 12.064,19.834 12.064,19.834L9.997,6.484C9.817,5.329 10.61,4.244 11.77,4.064C12.928,3.883 14.013,4.677 14.191,5.837L15.935,17.069C15.935,17.069 16.033,17.541 16.258,17.623C16.555,17.73 16.687,17.698 16.883,17.452C17.015,17.286 17.029,16.805 17.029,16.805L17.628,4.221C17.628,3.049 18.581,2.099 19.753,2.099C20.924,2.099 21.875,3.049 21.875,4.221L21.209,16.841C21.209,16.841 21.204,17.673 21.346,17.867C21.612,18.234 22.002,18.243 22.324,18.077C22.517,17.976 22.659,17.475 22.659,17.475L25.376,6.906C25.651,5.766 26.798,5.066 27.938,5.342C29.077,5.616 29.779,6.764 29.503,7.904C29.503,7.904 27.338,16.55 27.042,20.023C27.024,20.233 26.941,20.748 26.935,20.96C26.875,22.715 26.989,23.814 27.707,24.34C28.79,25.129 29.583,23.355 30.317,22.396C30.914,21.646 31.689,19.522 32.291,18.371C33.141,16.741 34.481,17.087 35.033,17.388C35.904,17.862 36.592,18.551 35.746,20.315C35.188,21.486 34.52,23.137 34.183,23.866"/>
</svg>
