<?xml version='1.0' encoding='UTF-8' standalone='no'?>
<svg xmlns="http://www.w3.org/2000/svg" xmlns:atv="http://webmi.atvise.com/2007/svgext" version="1.2" width="1280" xmlns:xlink="http://www.w3.org/1999/xlink" height="768">
 <defs/>
 <metadata>
  <atv:gridconfig gridstyle="lines" enabled="false" width="20" height="20"/>
  <atv:snapconfig enabled="false" width="10" height="10"/>
 </metadata>
 <text atv:refpy="193.358" font-size="12" font-family="Arial" visibility="hidden" id="id_2" fill="#000088" y="157.94" atv:refpx="652.113" x="465.06" transform="matrix(6.8226,0,0,4.4712,-2684.5675,-492.7013)">XXXXXXX</text>
 <svg atv:refpy="290.092" id="id_3" y="210.005" width="80" atv:refpx="665.681" x="417.327" height="30" xlink:href="SYSTEM.LIBRARY.ATVISE.OBJECTDISPLAYS.Advanced.button_alarmlist_actions" transform="matrix(1.4556,0,0,1.2893,0,0)">
  <atv:argument name="label" value="T{Back}"/>
  <atv:argument name="action" value=""/>
  <atv:overwrite id="id_6" width="114.447" height="36.678" transform="matrix(0.687,0,0,0.7756,0,0)"/>
  <atv:overwrite id="button_symbol" y="9.339" x="48.224" transform="matrix(0.687,0,0,0.7756,0,0)"/>
  <atv:overwrite id="button_label" y="23.839" x="58.224" transform="matrix(0.687,0,0,0.7756,0,0)"/>
  <atv:overwrite id="button_stroke" width="112.447" height="34.678" transform="matrix(0.687,0,0,0.7756,0,0)"/>
  <atv:overwrite id="button_bg" width="114.447" height="36.678" transform="matrix(0.687,0,0,0.7756,0,0)"/>
  <atv:overwrite id="outer_frame" width="116.447" height="38.678" transform="matrix(0.687,0,0,0.7756,0,0)"/>
 </svg>
 <script type="text/ecmascript"><![CDATA[webMI.data.subscribe(webMI.query["base"] + ".Text", function(e) {
var id = "id_2";
var value = e.value;
webMI.gfx.setText(id, value);
webMI.gfx.setVisible(id, null);
});
webMI.addEvent("id_3", "click", function(e) {
var id = "id_3";
var value = true;
webMI.display.openDisplay("AGENT.DISPLAYS.MAIN.HTML", {});
});
]]></script>
</svg>
