<?xml version='1.0' encoding='UTF-8' standalone='no'?>
<svg xmlns="http://www.w3.org/2000/svg" xmlns:atv="http://webmi.atvise.com/2007/svgext" y="0px" xml:space="preserve" xmlns:xlink="http://www.w3.org/1999/xlink" x="0px" id="Ebene_1" width="12" height="12" enable-background="new 0 0 40 40" version="1.1">
 <defs/>
 <metadata>
  <atv:parameter valuetype="color" desc="symbol color" name="symbolColor" behavior="optional" defaultvalue="#000000" substitute="$SYMBOLCOLOR$"/>
  <atv:parameter valuetype="color" desc="number color" name="numberColor" behavior="optional" defaultvalue="#ffffff" substitute="$NUMBERCOLOR$"/>
  <atv:gridconfig enabled="false" width="20" height="20" gridstyle="lines"/>
  <atv:snapconfig enabled="false" width="10" height="10"/>
 </metadata>
 <path fill="$SYMBOLCOLOR$" stroke-width="1" d="M3.561,1.887C3.561,1.191 3.251,0.626 2.868,0.626C2.485,0.626 2.175,1.191 2.175,1.887C2.175,2.583 2.485,3.147 2.868,3.147C2.957,3.147 3.042,3.117 3.12,3.061L3.021,2.843C2.973,2.868 2.921,2.882 2.868,2.882C2.566,2.882 2.32,2.436 2.32,1.886C2.32,1.336 2.566,0.89 2.868,0.89C3.17,0.89 3.415,1.336 3.415,1.886L3.561,1.886Z" id="id_0" atv:refpx="2.869" atv:refpy="2.102"/>
 <path fill="$SYMBOLCOLOR$" stroke-width="1" d="M5.222,1.887C5.222,1.191 4.913,0.626 4.53,0.626C4.147,0.626 3.836,1.191 3.836,1.887C3.836,2.582 4.147,3.148 4.53,3.148C4.618,3.148 4.704,3.117 4.782,3.061L4.682,2.843C4.634,2.868 4.583,2.882 4.53,2.882C4.227,2.882 3.982,2.436 3.982,1.886C3.982,1.336 4.227,0.891 4.53,0.891C4.832,0.891 5.077,1.336 5.077,1.886Z" id="id_1" atv:refpx="0.002" atv:refpy="0.19"/>
 <path fill="$SYMBOLCOLOR$" stroke-width="1" d="M6.852,1.887C6.852,1.191 6.542,0.626 6.159,0.626C5.776,0.626 5.466,1.191 5.466,1.887C5.466,2.582 5.776,3.148 6.159,3.148C6.248,3.148 6.333,3.117 6.411,3.061L6.312,2.843C6.264,2.869 6.212,2.882 6.159,2.882C5.857,2.882 5.611,2.436 5.611,1.887C5.611,1.337 5.857,0.892 6.159,0.892C6.461,0.892 6.706,1.337 6.706,1.887Z" id="id_2" atv:refpx="0.002" atv:refpy="0.19"/>
 <path fill="$SYMBOLCOLOR$" stroke-width="1" d="M8.526,1.887C8.526,1.191 8.216,0.626 7.833,0.626C7.45,0.626 7.139,1.191 7.139,1.887C7.139,2.582 7.45,3.148 7.833,3.148C7.921,3.148 8.007,3.117 8.084,3.061L7.986,2.843C7.937,2.868 7.886,2.882 7.833,2.882C7.53,2.882 7.285,2.436 7.285,1.886C7.285,1.336 7.531,0.891 7.833,0.891C8.135,0.891 8.38,1.336 8.38,1.886Z" id="id_3" atv:refpx="7.833" atv:refpy="1.887"/>
 <path fill="$SYMBOLCOLOR$" stroke-width="1" d="M10.191,1.886C10.191,1.19 9.881,0.626 9.498,0.626C9.116,0.626 8.805,1.19 8.805,1.886C8.805,2.582 9.115,3.147 9.498,3.147C9.588,3.147 9.672,3.116 9.751,3.061L9.652,2.843C9.603,2.868 9.551,2.882 9.498,2.882C9.196,2.882 8.951,2.436 8.951,1.887C8.951,1.337 9.196,0.891 9.498,0.891C9.8,0.891 10.045,1.337 10.045,1.887L10.191,1.887Z" id="id_4" atv:refpx="9.498" atv:refpy="1.887"/>
 <path fill="$SYMBOLCOLOR$" stroke-width="1" d="M11.546,3.922L11.546,3.344C11.546,2.593 10.933,1.985 10.177,1.985L9.086,1.985C9.098,2.292 9.154,2.515 9.263,2.637C9.308,2.62 9.356,2.61 9.407,2.61C9.634,2.61 9.818,2.792 9.818,3.017C9.818,3.242 9.634,3.425 9.407,3.425C9.181,3.425 8.996,3.242 8.996,3.017C8.996,2.99 8.999,2.965 9.004,2.94C8.833,2.732 8.715,2.387 8.691,1.985L7.424,1.985C7.437,2.296 7.493,2.52 7.606,2.641C7.654,2.621 7.708,2.61 7.764,2.61C7.991,2.61 8.175,2.792 8.175,3.018C8.175,3.243 7.991,3.425 7.764,3.425C7.537,3.425 7.353,3.242 7.353,3.018C7.353,2.997 7.357,2.977 7.359,2.957C7.179,2.752 7.055,2.399 7.029,1.985L5.759,1.985C5.772,2.302 5.83,2.53 5.948,2.649C6.001,2.624 6.059,2.61 6.121,2.61C6.349,2.61 6.532,2.792 6.532,3.017C6.532,3.242 6.349,3.425 6.121,3.425C5.895,3.425 5.71,3.242 5.71,3.017C5.71,3.003 5.713,2.99 5.715,2.977C5.523,2.777 5.39,2.414 5.364,1.985L4.135,1.985C4.148,2.296 4.204,2.521 4.318,2.641C4.367,2.621 4.421,2.61 4.478,2.61C4.704,2.61 4.888,2.792 4.888,3.018C4.888,3.243 4.704,3.425 4.478,3.425C4.251,3.425 4.066,3.242 4.066,3.018C4.066,2.997 4.069,2.978 4.073,2.959C3.891,2.755 3.766,2.4 3.741,1.985L2.469,1.985C2.482,2.303 2.542,2.532 2.66,2.65C2.713,2.624 2.772,2.61 2.834,2.61C3.061,2.61 3.246,2.792 3.246,3.018C3.246,3.243 3.061,3.425 2.834,3.425C2.607,3.425 2.424,3.243 2.424,3.018C2.424,3.004 2.426,2.992 2.427,2.979C2.236,2.779 2.101,2.415 2.075,1.985L1.96,1.985C1.204,1.985 0.591,2.593 0.591,3.344L0.591,3.922L11.546,3.922Z" id="id_5" atv:refpx="6.069" atv:refpy="2.954"/>
 <path fill="$SYMBOLCOLOR$" d="M0.591,4.393L0.591,10.137L0.698,10.665L0.992,11.097L1.427,11.388L1.96,11.496L10.177,11.496L10.71,11.388L11.145,11.097L11.439,10.665L11.546,10.137L11.546,4.393Z" id="id_9" atv:refpx="6.069" atv:refpy="7.945"/>
 <text fill="$NUMBERCOLOR$" font-family="Arial" y="16.475" font-size="12" font-weight="bold" text-anchor="middle" x="11.005" id="id_10" atv:refpx="6.647" atv:refpy="7.365" transform="matrix(0.6039,0,0,0.5992,0.0018,0.1905)">31</text>
</svg>
