<?xml version='1.0' encoding='UTF-8' standalone='no'?>
<svg width="100" height="100" xmlns:atv="http://webmi.atvise.com/2007/svgext" version="1.2" xmlns="http://www.w3.org/2000/svg" xmlns:xlink="http://www.w3.org/1999/xlink">
 <defs/>
 <title>Clock Analog</title>
 <desc>This control displays the current client time.</desc>
 <metadata>
  <atv:parameter name="base" valuetype="address" behavior="hidden"/>
  <atv:parameter name="fontColor" valuetype="global" substitute="$FONTCOLOR$" defaultvalue="SYSTEM.GLOBALS.atvFontColor" desc="font color" behavior="optional"/>
  <atv:parameter name="fillColor" valuetype="global" substitute="$FILLCOLOR$" defaultvalue="SYSTEM.GLOBALS.atvFillColor" desc="fill color" behavior="optional"/>
  <atv:parameter name="borderColor" valuetype="global" substitute="$BORDERCOLOR$" defaultvalue="SYSTEM.GLOBALS.atvBorderColor" desc="border color" behavior="optional"/>
  <atv:parameter name="pointerColor" valuetype="global" substitute="$SPOINTER$" defaultvalue="SYSTEM.GLOBALS.atvAccent1" desc="seconds-pointer color" behavior="optional"/>
  <atv:parameter name="symbolColor" valuetype="global" substitute="$SYMBOLCOLOR$" defaultvalue="SYSTEM.GLOBALS.atvSymbolColor" desc="symbol color" behavior="optional"/>
  <atv:gridconfig width="2" gridstyle="lines" height="2" enabled="true"/>
  <atv:snapconfig width="2" height="2" enabled="true"/>
 </metadata>
 <circle id="id_102" atv:refpy="50" fill="$FILLCOLOR$" stroke="$BORDERCOLOR$" atv:refpx="50" cx="50" cy="50" r="49.5" stroke-width="0.5"/>
 <circle id="id_103" atv:refpy="50" fill="#ffffff" stroke="none" atv:refpx="50" cx="50" cy="50" r="47" stroke-width="1"/>
 <rect width="2" x="49" id="minute" y="24.831" atv:refpy="50" height="25.169" fill="$SYMBOLCOLOR$" stroke="none" atv:refpx="50" stroke-width="1"/>
 <rect width="2" x="49" id="hour" y="32" atv:refpy="50" height="18" fill="$SYMBOLCOLOR$" stroke="none" atv:refpx="50" stroke-width="1"/>
 <path id="second" atv:refpy="50" fill="$SPOINTER$" d="M49,44L50,29L51,44Z" stroke="none" atv:refpx="50"/>
 <circle id="id_104" atv:refpy="50" fill="$FILLCOLOR$" stroke="#FFFFFF" atv:refpx="50" cx="50" cy="50" r="6.5" stroke-width="0.5"/>
 <g id="id_112" atv:refpy="50" atv:refpx="50" transform="matrix(0.8188,0,0,0.8188,9.3023,9.0623)">
  <g id="id_501" atv:refpy="94.509" atv:refpx="332.516" transform="matrix(0.6156,0,0,0.6156,-154.9032,-11.56)">
   <g id="id_485" atv:refpy="44.805" atv:refpx="338.317">
    <line y2="40.33" id="id_9" atv:refpy="44.805" y1="49.28" stroke-miterlimit="10" x1="337.848" fill="none" stroke="#BEBEBE" atv:refpx="338.317" x2="338.785"/>
   </g>
   <g id="id_486" atv:refpy="45.714" atv:refpx="344.054">
    <line y2="41.313" id="id_13" atv:refpy="45.714" y1="50.115" stroke-miterlimit="10" x1="343.121" fill="none" stroke="#BEBEBE" atv:refpx="344.054" x2="344.988"/>
   </g>
   <g id="id_487" atv:refpy="47.218" atv:refpx="349.666">
    <line y2="42.938" id="id_20" atv:refpy="47.218" y1="51.497" stroke-miterlimit="10" x1="348.277" fill="none" stroke="#BEBEBE" atv:refpx="349.666" x2="351.055"/>
   </g>
   <g id="id_488" atv:refpy="49.299" atv:refpx="355.089">
    <line y2="45.188" id="id_21" atv:refpy="49.299" y1="53.41" stroke-miterlimit="10" x1="353.26" fill="none" stroke="#BEBEBE" atv:refpx="355.089" x2="356.918"/>
   </g>
   <g id="id_489" atv:refpy="100" atv:refpx="332.515">
    <line y2="51.459" id="id_22" atv:refpy="55.1" y1="58.741" stroke-miterlimit="10" x1="362.494" fill="none" stroke="#BEBEBE" atv:refpx="365.138" x2="367.781"/>
    <line y2="141.259" id="id_23" atv:refpy="144.9" y1="148.541" stroke-miterlimit="10" x1="297.25" fill="none" stroke="#BEBEBE" atv:refpx="299.894" x2="302.537"/>
   </g>
   <g id="id_490" atv:refpy="100" atv:refpx="332.515">
    <line y2="55.411" id="id_24" atv:refpy="58.756" y1="62.101" stroke-miterlimit="10" x1="366.643" fill="none" stroke="#BEBEBE" atv:refpx="369.652" x2="372.662"/>
    <line y2="137.899" id="id_25" atv:refpy="141.244" y1="144.589" stroke-miterlimit="10" x1="292.369" fill="none" stroke="#BEBEBE" atv:refpx="295.379" x2="298.389"/>
   </g>
   <g id="id_491" atv:refpy="100" atv:refpx="332.515">
    <line y2="59.852" id="id_26" atv:refpy="62.864" y1="65.875" stroke-miterlimit="10" x1="370.416" fill="none" stroke="#BEBEBE" atv:refpx="373.759" x2="377.102"/>
    <line y2="134.125" id="id_27" atv:refpy="137.137" y1="140.148" stroke-miterlimit="10" x1="287.928" fill="none" stroke="#BEBEBE" atv:refpx="291.27" x2="294.613"/>
   </g>
   <g id="id_492" atv:refpy="100" atv:refpx="332.516">
    <line y2="64.732" id="id_28" atv:refpy="67.377" y1="70.023" stroke-miterlimit="10" x1="373.775" fill="none" stroke="#BEBEBE" atv:refpx="377.415" x2="381.055"/>
    <line y2="129.977" id="id_29" atv:refpy="132.623" y1="135.268" stroke-miterlimit="10" x1="283.977" fill="none" stroke="#BEBEBE" atv:refpx="287.615" x2="291.254"/>
   </g>
   <g id="id_493" atv:refpy="100" atv:refpx="332.515">
    <line y2="75.595" id="id_30" atv:refpy="77.427" y1="79.258" stroke-miterlimit="10" x1="379.107" fill="none" stroke="#BEBEBE" atv:refpx="383.216" x2="387.326"/>
    <line y2="120.742" id="id_31" atv:refpy="122.573" y1="124.405" stroke-miterlimit="10" x1="277.703" fill="none" stroke="#BEBEBE" atv:refpx="281.813" x2="285.924"/>
   </g>
   <g id="id_494" atv:refpy="100" atv:refpx="332.516">
    <line y2="81.458" id="id_32" atv:refpy="82.85" y1="84.241" stroke-miterlimit="10" x1="381.02" fill="none" stroke="#BEBEBE" atv:refpx="385.299" x2="389.578"/>
    <line y2="115.759" id="id_33" atv:refpy="117.15" y1="118.542" stroke-miterlimit="10" x1="275.453" fill="none" stroke="#BEBEBE" atv:refpx="279.732" x2="284.012"/>
   </g>
   <g id="id_495" atv:refpy="100" atv:refpx="332.516">
    <line y2="87.524" id="id_34" atv:refpy="88.46" y1="89.397" stroke-miterlimit="10" x1="382.4" fill="none" stroke="#BEBEBE" atv:refpx="386.801" x2="391.203"/>
    <line y2="110.604" id="id_35" atv:refpy="111.54" y1="112.476" stroke-miterlimit="10" x1="273.828" fill="none" stroke="#BEBEBE" atv:refpx="278.228" x2="282.629"/>
   </g>
   <g id="id_496" atv:refpy="100.001" atv:refpx="332.516">
    <line y2="93.729" id="id_36" atv:refpy="94.2" y1="94.67" stroke-miterlimit="10" x1="383.236" fill="none" stroke="#BEBEBE" atv:refpx="387.711" x2="392.186"/>
    <line y2="105.33" id="id_37" atv:refpy="105.801" y1="106.272" stroke-miterlimit="10" x1="272.846" fill="none" stroke="#BEBEBE" atv:refpx="277.321" x2="281.795"/>
   </g>
   <line y2="106.271" id="id_38" atv:refpy="105.802" y1="105.332" stroke-miterlimit="10" x1="383.236" fill="none" stroke="#BEBEBE" atv:refpx="387.711" x2="392.186"/>
   <line y2="94.668" id="id_39" atv:refpy="94.198" y1="93.729" stroke-miterlimit="10" x1="272.846" fill="none" stroke="#BEBEBE" atv:refpx="277.321" x2="281.795"/>
   <line y2="112.474" id="id_40" atv:refpy="111.539" y1="110.604" stroke-miterlimit="10" x1="382.4" fill="none" stroke="#BEBEBE" atv:refpx="386.801" x2="391.203"/>
   <line y2="89.396" id="id_41" atv:refpy="88.461" y1="87.526" stroke-miterlimit="10" x1="273.828" fill="none" stroke="#BEBEBE" atv:refpx="278.229" x2="282.631"/>
   <line y2="118.54" id="id_42" atv:refpy="117.15" y1="115.761" stroke-miterlimit="10" x1="381.02" fill="none" stroke="#BEBEBE" atv:refpx="385.299" x2="389.578"/>
   <line y2="84.239" id="id_43" atv:refpy="82.85" y1="81.46" stroke-miterlimit="10" x1="275.453" fill="none" stroke="#BEBEBE" atv:refpx="279.732" x2="284.012"/>
   <line y2="124.403" id="id_44" atv:refpy="122.573" y1="120.744" stroke-miterlimit="10" x1="379.105" fill="none" stroke="#BEBEBE" atv:refpx="383.216" x2="387.326"/>
   <line y2="79.256" id="id_45" atv:refpy="77.427" y1="75.597" stroke-miterlimit="10" x1="277.703" fill="none" stroke="#BEBEBE" atv:refpx="281.814" x2="285.926"/>
   <line y2="135.266" id="id_47" atv:refpy="132.623" y1="129.979" stroke-miterlimit="10" x1="373.775" fill="none" stroke="#BEBEBE" atv:refpx="377.415" x2="381.055"/>
   <line y2="70.022" id="id_48" atv:refpy="67.378" y1="64.734" stroke-miterlimit="10" x1="283.975" fill="none" stroke="#BEBEBE" atv:refpx="287.615" x2="291.256"/>
   <line y2="140.146" id="id_51" atv:refpy="137.136" y1="134.126" stroke-miterlimit="10" x1="370.416" fill="none" stroke="#BEBEBE" atv:refpx="373.76" x2="377.104"/>
   <line y2="65.874" id="id_52" atv:refpy="62.864" y1="59.854" stroke-miterlimit="10" x1="287.928" fill="none" stroke="#BEBEBE" atv:refpx="291.272" x2="294.615"/>
   <line y2="144.587" id="id_53" atv:refpy="141.243" y1="137.9" stroke-miterlimit="10" x1="366.641" fill="none" stroke="#BEBEBE" atv:refpx="369.651" x2="372.662"/>
   <line y2="62.1" id="id_54" atv:refpy="58.757" y1="55.413" stroke-miterlimit="10" x1="292.367" fill="none" stroke="#BEBEBE" atv:refpx="295.379" x2="298.391"/>
   <line y2="148.539" id="id_55" atv:refpy="144.899" y1="141.26" stroke-miterlimit="10" x1="362.492" fill="none" stroke="#BEBEBE" atv:refpx="365.138" x2="367.783"/>
   <line y2="58.74" id="id_56" atv:refpy="55.1" y1="51.461" stroke-miterlimit="10" x1="297.248" fill="none" stroke="#BEBEBE" atv:refpx="299.894" x2="302.539"/>
   <g id="id_497" atv:refpy="49.299" atv:refpx="309.941">
    <line y2="53.409" id="id_57" atv:refpy="49.299" y1="45.188" stroke-miterlimit="10" x1="308.111" fill="none" stroke="#BEBEBE" atv:refpx="309.941" x2="311.771"/>
   </g>
   <g id="id_498" atv:refpy="47.217" atv:refpx="315.365">
    <line y2="51.496" id="id_58" atv:refpy="47.217" y1="42.938" stroke-miterlimit="10" x1="313.975" fill="none" stroke="#BEBEBE" atv:refpx="315.365" x2="316.756"/>
   </g>
   <g id="id_499" atv:refpy="45.714" atv:refpx="320.976">
    <line y2="50.114" id="id_59" atv:refpy="45.713" y1="41.313" stroke-miterlimit="10" x1="320.041" fill="none" stroke="#BEBEBE" atv:refpx="320.976" x2="321.912"/>
   </g>
   <g id="id_500" atv:refpy="44.804" atv:refpx="326.714">
    <line y2="49.279" id="id_60" atv:refpy="44.804" y1="40.329" stroke-miterlimit="10" x1="326.244" fill="none" stroke="#BEBEBE" atv:refpx="326.714" x2="327.184"/>
   </g>
  </g>
  <g id="id_504" atv:refpy="100" atv:refpx="332.515" transform="matrix(0.6156,0,0,0.6156,-154.9032,-11.56)">
   <g id="id_502" atv:refpy="151.162" atv:refpx="302.399">
    <polygon id="id_61" atv:refpy="151.162" fill="$SYMBOLCOLOR$" points="297.783,156.157 307.016,144.167 301.248,158.157 &#x9;&#x9;&#x9;&#x9;&#x9;" atv:refpx="302.399"/>
   </g>
   <g id="id_503" atv:refpy="48.837" atv:refpx="362.632">
    <polygon id="id_62" atv:refpy="48.837" fill="$SYMBOLCOLOR$" points="358.016,55.833 363.783,41.842 367.248,43.842 &#x9;&#x9;&#x9;&#x9;&#x9;" atv:refpx="362.632"/>
   </g>
  </g>
  <g id="id_507" atv:refpy="100" atv:refpx="332.515" transform="matrix(0.6156,0,0,0.6156,-154.9032,-11.56)">
   <g id="id_505" atv:refpy="130.116" atv:refpx="281.353">
    <polygon id="id_63" atv:refpy="130.116" fill="$SYMBOLCOLOR$" points="274.357,131.268 288.348,125.5 276.357,134.732 &#x9;&#x9;&#x9;&#x9;&#x9;" atv:refpx="281.353"/>
   </g>
   <g id="id_506" atv:refpy="69.884" atv:refpx="383.679">
    <polygon id="id_64" atv:refpy="69.884" fill="$SYMBOLCOLOR$" points="376.684,74.5 388.674,65.268 390.674,68.732 &#x9;&#x9;&#x9;&#x9;&#x9;" atv:refpx="383.679"/>
   </g>
  </g>
  <g id="id_510" atv:refpy="17.884" atv:refpx="-1.163" transform="matrix(0.6156,0,0,0.6156,-154.9032,-11.56)">
   <polygon id="id_69" atv:refpy="34.822" fill="$SYMBOLCOLOR$" points="276.357,65.268 288.348,74.5 274.357,68.732 &#x9;&#x9;&#x9;&#x9;" atv:refpx="24.284"/>
  </g>
  <g id="id_511" atv:refpy="130.116" atv:refpx="383.678" transform="matrix(0.6156,0,0,0.6156,-154.9032,-11.56)">
   <polygon id="id_70" atv:refpy="130.116" fill="$SYMBOLCOLOR$" points="376.682,125.5 390.674,131.268 388.674,134.732 &#x9;&#x9;&#x9;&#x9;" atv:refpx="383.678"/>
  </g>
  <g id="id_513" atv:refpy="155.965" atv:refpx="332.517" transform="matrix(0.6156,0,0,0.6156,-154.9032,-11.56)">
   <line y2="154.811" id="id_71" atv:refpy="150.701" y1="146.591" stroke-miterlimit="10" x1="353.258" fill="none" stroke="#BEBEBE" atv:refpx="355.089" x2="356.92"/>
   <line y2="157.063" id="id_72" atv:refpy="152.783" y1="148.503" stroke-miterlimit="10" x1="348.273" fill="none" stroke="#BEBEBE" atv:refpx="349.665" x2="351.057"/>
   <line y2="158.688" id="id_73" atv:refpy="154.287" y1="149.886" stroke-miterlimit="10" x1="343.117" fill="none" stroke="#BEBEBE" atv:refpx="344.053" x2="344.99"/>
   <line y2="159.669" id="id_74" atv:refpy="155.195" y1="150.72" stroke-miterlimit="10" x1="337.846" fill="none" stroke="#BEBEBE" atv:refpx="338.317" x2="338.787"/>
   <line y2="159.669" id="id_75" atv:refpy="155.195" y1="150.721" stroke-miterlimit="10" x1="327.184" fill="none" stroke="#BEBEBE" atv:refpx="326.714" x2="326.244"/>
   <line y2="158.688" id="id_76" atv:refpy="154.287" y1="149.886" stroke-miterlimit="10" x1="321.91" fill="none" stroke="#BEBEBE" atv:refpx="320.976" x2="320.041"/>
   <line y2="157.063" id="id_77" atv:refpy="152.783" y1="148.503" stroke-miterlimit="10" x1="316.754" fill="none" stroke="#BEBEBE" atv:refpx="315.365" x2="313.975"/>
   <line y2="154.813" id="id_78" atv:refpy="150.702" y1="146.59" stroke-miterlimit="10" x1="311.771" fill="none" stroke="#BEBEBE" atv:refpx="309.942" x2="308.113"/>
   <g id="id_512" atv:refpy="158.5" atv:refpx="332.516">
    <polygon id="id_79" atv:refpy="158.5" fill="$SYMBOLCOLOR$" points="332.516,150.999 334.516,166 330.516,166 &#x9;&#x9;&#x9;&#x9;&#x9;" atv:refpx="332.516"/>
   </g>
  </g>
  <g id="id_516" atv:refpy="100" atv:refpx="332.515" transform="matrix(0.6156,0,0,0.6156,-154.9032,-11.56)">
   <g id="id_514" atv:refpy="48.838" atv:refpx="302.399">
    <polygon id="id_80" atv:refpy="48.838" fill="$SYMBOLCOLOR$" points="301.248,41.843 307.016,55.833 297.783,43.843 &#x9;&#x9;&#x9;&#x9;&#x9;" atv:refpx="302.399"/>
   </g>
   <g id="id_515" atv:refpy="151.162" atv:refpx="362.632">
    <polygon id="id_81" atv:refpy="151.162" fill="$SYMBOLCOLOR$" points="358.016,144.167 367.248,156.158 363.783,158.158 &#x9;&#x9;&#x9;&#x9;&#x9;" atv:refpx="362.632"/>
   </g>
  </g>
  <g id="id_518" atv:refpy="41.5" atv:refpx="332.516" transform="matrix(0.6156,0,0,0.6156,-154.9032,-11.56)">
   <g id="id_517" atv:refpy="41.5" atv:refpx="332.516">
    <polygon id="id_82" atv:refpy="20.515" fill="$SYMBOLCOLOR$" points="334.516,34 332.516,49 330.516,34 &#x9;&#x9;&#x9;&#x9;&#x9;" atv:refpx="50.073"/>
   </g>
  </g>
  <g id="id_508" atv:refpy="48" atv:refpx="-8.5" transform="matrix(0.6156,0,0,0.6156,-154.9032,-11.56)">
   <polygon id="id_67" atv:refpy="100" fill="$SYMBOLCOLOR$" points="266.516,98 281.516,100 266.516,102 &#x9;&#x9;&#x9;&#x9;&#x9;" atv:refpx="274.016"/>
  </g>
  <g id="id_107" atv:refpy="50" atv:refpx="85.633" transform="matrix(-0.6156,0,0,0.6156,254.3169,-11.56)">
   <polygon id="id_108" atv:refpy="100" fill="$SYMBOLCOLOR$" points="266.516,98 281.516,100 266.516,102 &#x9;&#x9;&#x9;&#x9;&#x9;" atv:refpx="274.016"/>
  </g>
 </g>
 <text x="50" id="id_113" text-anchor="middle" font-size="10" y="14.342" atv:refpy="-331.4" font-family="Arial" fill="$FONTCOLOR$" atv:refpx="-243.908">12</text>
 <text x="50" id="id_114" text-anchor="middle" font-size="10" y="93.853" atv:refpy="-251.889" font-family="Arial" fill="$FONTCOLOR$" atv:refpx="-150.392">6</text>
 <text x="89.322" id="id_115" text-anchor="middle" font-size="10" y="53.5" atv:refpy="-292.242" font-family="Arial" fill="$FONTCOLOR$" atv:refpx="-111.07">3</text>
 <text x="10.797" id="id_116" text-anchor="middle" font-size="10" y="53.5" atv:refpy="-292.242" font-family="Arial" fill="$FONTCOLOR$" atv:refpx="-189.595">9</text>
 <text x="84.627" id="id_117" text-anchor="middle" font-size="10" y="33.212" atv:refpy="-312.53" font-family="Arial" fill="$FONTCOLOR$" atv:refpx="-115.765">2</text>
 <text x="69.559" id="id_118" text-anchor="middle" font-size="10" y="19.941" atv:refpy="-325.801" font-family="Arial" fill="$FONTCOLOR$" atv:refpx="-130.833">1</text>
 <text x="29.102" id="id_119" text-anchor="middle" font-size="10" y="19.924" atv:refpy="-325.818" font-family="Arial" fill="$FONTCOLOR$" atv:refpx="-252.908">11</text>
 <text x="15.237" id="id_120" text-anchor="middle" font-size="10" y="33.958" atv:refpy="-311.784" font-family="Arial" fill="$FONTCOLOR$" atv:refpx="-278.671">10</text>
 <text x="16.847" id="id_121" text-anchor="middle" font-size="10" y="74.008" atv:refpy="-271.734" font-family="Arial" fill="$FONTCOLOR$" atv:refpx="-183.545">8</text>
 <text x="30.475" id="id_122" text-anchor="middle" font-size="10" y="89.127" atv:refpy="-256.615" font-family="Arial" fill="$FONTCOLOR$" atv:refpx="-169.917">7</text>
 <text x="69.966" id="id_123" text-anchor="middle" font-size="10" y="87.907" atv:refpy="-257.835" font-family="Arial" fill="$FONTCOLOR$" atv:refpx="-130.426">5</text>
 <text x="83.424" id="id_124" text-anchor="middle" font-size="10" y="72.263" atv:refpy="-273.479" font-family="Arial" fill="$FONTCOLOR$" atv:refpx="-116.968">4</text>
 <script type="text/ecmascript"><![CDATA[
(function setClock() {
	var today = new Date();
	var h = today.getHours();
	var m = today.getMinutes();
	var s = today.getSeconds();

	webMI.gfx.setRotation("hour", webMI.translate(h * 30 + m/2, 0, 359, 0, 359));
	webMI.gfx.setRotation("minute", webMI.translate(m, 0, 60, 0, 360));
	webMI.gfx.setRotation("second", webMI.translate(s, 0, 60, 0, 360));

	setTimeout(setClock,1000);
})();]]></script>
</svg>
