<?xml version='1.0' encoding='UTF-8' standalone='no'?>
<!-- Created with Inkscape (http://www.inkscape.org/) -->
<svg version="1.1" xmlns:svg="http://www.w3.org/2000/svg" xmlns:sodipodi="http://sodipodi.sourceforge.net/DTD/sodipodi-0.dtd" id="svg8" xmlns:dc="http://purl.org/dc/elements/1.1/" width="48.94" xmlns:inkscape="http://www.inkscape.org/namespaces/inkscape" height="12.99" inkscape:version="0.92.4 (5da689c313, 2019-01-14)" xmlns:rdf="http://www.w3.org/1999/02/22-rdf-syntax-ns#" xmlns:xlink="http://www.w3.org/1999/xlink" sodipodi:docname="atvise_logo_text_R.svg" xmlns:cc="http://creativecommons.org/ns#" xmlns="http://www.w3.org/2000/svg" xmlns:atv="http://webmi.atvise.com/2007/svgext">
 <defs id="defs2"/>
 <sodipodi:namedview showgrid="false" bordercolor="#666666" inkscape:window-x="1912" inkscape:window-maximized="1" inkscape:pageshadow="2" inkscape:zoom="1.979899" inkscape:window-height="1017" id="base" inkscape:cy="0.37772838" inkscape:pageopacity="0.0" inkscape:document-units="mm" pagecolor="#ffffff" borderopacity="1.0" inkscape:cx="144.37396" inkscape:window-width="1920" inkscape:current-layer="layer2" inkscape:window-y="114"/>
 <metadata id="metadata5">
  <rdf:RDF>
   <cc:Work rdf:about="">
    <dc:format>image/svg+xml</dc:format>
    <dc:type rdf:resource="http://purl.org/dc/dcmitype/StillImage"/>
    <dc:title/>
   </cc:Work>
  </rdf:RDF>
  <atv:gridconfig enabled="false" gridstyle="lines" width="20" height="20"/>
  <atv:snapconfig enabled="false" width="10" height="10"/>
 </metadata>
 <g id="layer2" inkscape:label="Ebene 2" atv:refpx="24.471" inkscape:groupmode="layer" transform="matrix(1,0,0,1,-0.5238,-1.2236)" atv:refpy="6.493">
  <g id="text3715" atv:refpx="21.736" transform="translate(-0.32544497,-281.45857)" atv:refpy="8.063">
   <path font-family="'AvantGarde Bk BT'" stroke="none" font-style="normal" id="path3751" font-weight="normal" style="-inkscape-font-specification:'AvantGarde Bk BT';font-variant:normal;font-stretch:normal" inkscape:connector-curvature="0" fill-opacity="1" aria-label="atvise" font-size="16.93333244px" stroke-width="0.26458332" atv:refpx="5.492" fill="#000000" d="M8.993,290.807C8.993,289.842 8.648,289.001 7.959,288.285C7.27,287.563 6.477,287.202 5.578,287.202C4.603,287.202 3.77,287.563 3.081,288.285C2.398,289.001 2.056,289.892 2.056,290.955C2.056,291.97 2.398,292.827 3.081,293.527C3.765,294.221 4.586,294.569 5.545,294.569C6.471,294.569 7.276,294.202 7.959,293.469C8.648,292.73 8.993,291.843 8.993,290.807M8.993,293.973C8.629,294.497 8.136,294.908 7.513,295.205C6.896,295.503 6.229,295.652 5.512,295.652C4.178,295.652 3.067,295.197 2.18,294.287C1.292,293.372 0.849,292.245 0.849,290.906C0.849,289.544 1.301,288.406 2.205,287.491C3.114,286.576 4.25,286.118 5.611,286.118C6.311,286.118 6.953,286.262 7.538,286.548C8.122,286.83 8.607,287.237 8.993,287.772L8.993,286.317L10.134,286.317L10.134,295.412L8.993,295.412Z" atv:refpy="290.886"/>
   <path font-family="'AvantGarde Bk BT'" stroke="none" font-style="normal" id="path3753" font-weight="normal" style="-inkscape-font-specification:'AvantGarde Bk BT';font-variant:normal;font-stretch:normal" inkscape:connector-curvature="0" fill-opacity="1" aria-label="atvise" font-size="16.93333244px" stroke-width="0.26458332" atv:refpx="13.371" fill="#000000" d="M12.788,295.412L12.788,287.491L11.06,287.491L11.06,286.317L12.788,286.317L12.788,283.373L13.954,283.373L13.954,286.317L15.682,286.317L15.682,287.491L13.954,287.491L13.954,295.412Z" atv:refpy="289.393"/>
   <path font-family="'AvantGarde Bk BT'" stroke="none" font-style="normal" id="path3755" font-weight="normal" style="-inkscape-font-specification:'AvantGarde Bk BT';font-variant:normal;font-stretch:normal" inkscape:connector-curvature="0" fill-opacity="1" aria-label="atvise" font-size="16.93333244px" stroke-width="0.26458332" atv:refpx="19.73" fill="#000000" d="M20.18,295.412L19.113,295.412L15.558,286.317L16.79,286.317L19.7,293.651L22.636,286.317L23.901,286.317Z" atv:refpy="290.865"/>
   <path font-family="'AvantGarde Bk BT'" stroke="none" font-style="normal" id="path3757" font-weight="normal" style="-inkscape-font-specification:'AvantGarde Bk BT';font-variant:normal;font-stretch:normal" inkscape:connector-curvature="0" fill-opacity="1" aria-label="atvise" font-size="16.93333244px" stroke-width="0.26458332" atv:refpx="25.294" fill="#000000" d="M25.877,285.25L24.711,285.25L24.711,283.373L25.877,283.373ZM24.711,295.412L24.711,286.317L25.877,286.317L25.877,295.412Z" atv:refpy="289.393"/>
   <path font-family="'AvantGarde Bk BT'" stroke="none" font-style="normal" id="path3759" font-weight="normal" style="-inkscape-font-specification:'AvantGarde Bk BT';font-variant:normal;font-stretch:normal" inkscape:connector-curvature="0" fill-opacity="1" aria-label="atvise" font-size="16.93333244px" stroke-width="0.26458332" atv:refpx="30.077" fill="#000000" d="M27.191,292.551L28.39,292.551L28.39,292.584C28.39,293.152 28.553,293.623 28.878,293.998C29.203,294.367 29.606,294.552 30.085,294.552C30.543,294.552 30.923,294.409 31.226,294.122C31.529,293.836 31.681,293.474 31.681,293.039C31.681,292.604 31.56,292.254 31.317,291.989C31.08,291.724 30.647,291.476 30.019,291.245C29.01,290.887 28.352,290.52 28.043,290.145C27.734,289.77 27.58,289.269 27.58,288.64C27.58,287.929 27.836,287.326 28.349,286.83C28.867,286.333 29.493,286.085 30.226,286.085C31.003,286.085 31.62,286.306 32.078,286.747C32.535,287.188 32.781,287.802 32.814,288.591L31.565,288.591C31.538,288.161 31.4,287.827 31.152,287.59C30.909,287.353 30.576,287.235 30.151,287.235C29.771,287.235 29.454,287.364 29.201,287.623C28.947,287.877 28.82,288.194 28.82,288.574C28.82,288.844 28.873,289.073 28.977,289.26C29.082,289.442 29.256,289.608 29.498,289.757C29.719,289.894 30.038,290.027 30.457,290.153C30.882,290.28 31.166,290.374 31.309,290.435C31.877,290.677 32.293,291 32.557,291.402C32.828,291.804 32.963,292.317 32.963,292.94C32.963,293.723 32.69,294.37 32.144,294.883C31.598,295.395 30.907,295.652 30.069,295.652C29.214,295.652 28.528,295.373 28.01,294.817C27.492,294.254 27.219,293.499 27.191,292.551Z" atv:refpy="290.869"/>
   <path font-family="'AvantGarde Bk BT'" stroke="none" font-style="normal" id="path3761" font-weight="normal" style="-inkscape-font-specification:'AvantGarde Bk BT';font-variant:normal;font-stretch:normal" inkscape:connector-curvature="0" fill-opacity="1" aria-label="atvise" font-size="16.93333244px" stroke-width="0.26458332" atv:refpx="38.565" fill="#000000" d="M43.273,291.228L35.063,291.228C35.134,292.22 35.493,293.022 36.138,293.634C36.782,294.246 37.587,294.552 38.552,294.552C39.235,294.552 39.85,294.376 40.396,294.023C40.941,293.665 41.363,293.169 41.661,292.535L42.984,292.535C42.565,293.543 41.975,294.318 41.214,294.858C40.459,295.398 39.583,295.668 38.585,295.668C37.262,295.668 36.143,295.197 35.228,294.254C34.313,293.312 33.856,292.179 33.856,290.856C33.856,289.473 34.302,288.329 35.195,287.425C36.093,286.521 37.24,286.069 38.635,286.069C40.002,286.069 41.115,286.54 41.975,287.483C42.84,288.42 43.273,289.641 43.273,291.146ZM41.983,290.244C41.763,289.225 41.358,288.458 40.768,287.946C40.178,287.428 39.409,287.169 38.461,287.169C37.579,287.169 36.832,287.447 36.22,288.004C35.608,288.555 35.234,289.302 35.096,290.244Z" atv:refpy="290.869"/>
  </g>
  <g id="text3715-4" atv:refpx="46.433" transform="matrix(0.67861958,0,0,0.67861958,14.479948,-187.86164)" atv:refpy="4.257">
   <path font-family="sans-serif" stroke="none" font-style="normal" id="path3748" font-weight="normal" style="writing-mode:lr-tb;-inkscape-font-specification:'sans-serif, Normal';text-align:start;font-variant:normal;font-variant-caps:normal;font-feature-settings:normal;font-stretch:normal;font-variant-ligatures:normal;font-variant-position:super;font-variant-numeric:normal" inkscape:connector-curvature="0" text-anchor="start" fill-opacity="1" aria-label="®" font-size="10.58333302px" stroke-width="0.26458332" atv:refpx="47.085" fill="#000000" d="M51.555,283.102C51.555,284.335 51.117,285.389 50.242,286.264C49.371,287.136 48.318,287.572 47.085,287.572C45.851,287.572 44.797,287.136 43.922,286.264C43.05,285.389 42.615,284.335 42.615,283.102C42.615,281.868 43.05,280.816 43.922,279.944C44.797,279.069 45.851,278.632 47.085,278.632C48.318,278.632 49.371,279.069 50.242,279.944C51.117,280.816 51.555,281.868 51.555,283.102M50.955,283.102C50.955,282.034 50.576,281.117 49.818,280.352C49.064,279.588 48.153,279.205 47.085,279.205C46.017,279.205 45.104,279.588 44.346,280.352C43.591,281.117 43.214,282.034 43.214,283.102C43.214,284.17 43.591,285.086 44.346,285.851C45.104,286.616 46.017,286.998 47.085,286.998C48.153,286.998 49.064,286.616 49.818,285.851C50.576,285.086 50.955,284.17 50.955,283.102M49.963,285.375L48.811,285.375L47.1,283.541L46.263,283.541L46.263,285.375L45.41,285.375L45.41,280.647L47.023,280.647C47.347,280.647 47.614,280.661 47.824,280.688C48.034,280.716 48.241,280.783 48.444,280.89C48.661,281.007 48.819,281.15 48.919,281.319C49.023,281.484 49.074,281.693 49.074,281.944C49.074,282.278 48.976,282.557 48.78,282.781C48.587,283.002 48.32,283.177 47.979,283.308ZM48.144,282.001C48.144,281.877 48.12,281.767 48.072,281.67C48.023,281.574 47.943,281.495 47.829,281.433C47.722,281.374 47.608,281.336 47.488,281.319C47.367,281.302 47.216,281.293 47.033,281.293L46.263,281.293L46.263,282.89L46.919,282.89C47.133,282.89 47.317,282.874 47.472,282.843C47.627,282.809 47.755,282.752 47.855,282.673C47.961,282.587 48.036,282.492 48.077,282.389C48.122,282.285 48.144,282.156 48.144,282.001Z" atv:refpy="283.102"/>
  </g>
 </g>
</svg>
