<?xml version='1.0' encoding='UTF-8' standalone='no'?>
<svg width="60" x="0px" version="1.1" y="0px" xmlns="http://www.w3.org/2000/svg" height="60" xmlns:xlink="http://www.w3.org/1999/xlink" id="Ebene_1" enable-background="new 0 0 16 16" xml:space="preserve" xmlns:atv="http://webmi.atvise.com/2007/svgext">
 <defs>
  <linearGradient id="SVGID_1_" y1="0.136603" x1="-0.290145" y2="0.639639" gradientUnits="objectBoundingBox" x2="0.792871">
   <stop offset="0" style="stop-color:#9D9D9C"/>
   <stop offset="1" style="stop-color:#3C3C3B"/>
  </linearGradient>
  <linearGradient id="SVGID_2_" y1="0.0373166" x1="0.0373956" y2="1.06773" gradientUnits="objectBoundingBox" x2="0.933879">
   <stop offset="0" style="stop-color:#9D9D9C"/>
   <stop offset="1" style="stop-color:#3C3C3B"/>
  </linearGradient>
 </defs>
 <metadata>
  <atv:parameter desc="symbol color" valuetype="color" substitute="$SYMBOLCOLOR$" behavior="optional" name="symbolColor" defaultvalue="#000000"/>
 </metadata>
 <g id="id_2" atv:refpx="30" atv:refpy="30" transform="matrix(1,0,0,1,-0.2812,3.2774)">
  <path fill="$SYMBOLCOLOR$" id="id_0" atv:refpx="102.781" atv:refpy="34.531" stroke-width="1.117" d="M48.695,22.761L48.656,46.292L48.839,46.292L59.556,23.163C59.657,22.941 59.494,22.767 59.196,22.767"/>
  <path fill="$SYMBOLCOLOR$" id="id_1" atv:refpx="23.794" atv:refpy="33.602" stroke-width="1.117" d="M46.032,12.351L21.655,12.351L21.655,7.441C21.655,7.126 21.4,6.874 21.08,6.874L4.395,6.874C4.08,6.874 3.823,7.126 3.823,7.441L3.823,12.351L1.543,12.351C1.227,12.351 0.976,12.606 0.976,12.922L0.976,46.001C0.976,46.318 1.227,46.571 1.543,46.571L46.032,46.571C46.354,46.571 46.607,46.318 46.607,46.001L46.607,12.922C46.607,12.606 46.354,12.351 46.032,12.351"/>
 </g>
</svg>
