<?xml version='1.0' encoding='UTF-8' standalone='no'?>
<svg width="40" version="1.2" xmlns="http://www.w3.org/2000/svg" height="40" xmlns:xlink="http://www.w3.org/1999/xlink" xmlns:atv="http://webmi.atvise.com/2007/svgext">
 <defs/>
 <metadata>
  <atv:parameter desc="symbol color" valuetype="color" substitute="$SYMBOLCOLOR$" behavior="optional" name="symbolColor" defaultvalue="#000000"/>
 </metadata>
 <rect width="3.543" x="4.938" y="16.455" fill="$SYMBOLCOLOR$" height="3.543" id="id_20" atv:refpx="10.253" atv:refpy="42.933" stroke-width="0.819"/>
 <rect width="3.543" x="10.254" y="16.455" fill="$SYMBOLCOLOR$" height="3.543" id="id_21" atv:refpx="20.883" atv:refpy="42.933" stroke-width="0.819"/>
 <rect width="3.543" x="15.571" y="16.455" fill="$SYMBOLCOLOR$" height="3.543" id="id_22" atv:refpx="47.09" atv:refpy="28.856" stroke-width="0.819"/>
 <rect width="3.543" x="20.886" y="16.455" fill="$SYMBOLCOLOR$" height="3.543" id="id_23" atv:refpx="63.033" atv:refpy="28.856" stroke-width="0.819"/>
 <rect width="3.543" x="4.938" y="21.772" fill="$SYMBOLCOLOR$" height="3.543" id="id_24" atv:refpx="10.253" atv:refpy="58.881" stroke-width="0.819"/>
 <rect width="3.543" x="10.254" y="21.772" fill="$SYMBOLCOLOR$" height="3.543" id="id_25" atv:refpx="20.883" atv:refpy="58.881" stroke-width="0.819"/>
 <rect width="3.543" x="15.571" y="21.772" fill="$SYMBOLCOLOR$" height="3.543" id="id_26" atv:refpx="31.514" atv:refpy="58.881" stroke-width="0.819"/>
 <rect width="3.543" x="31.518" y="16.455" fill="$SYMBOLCOLOR$" height="3.543" id="id_27" atv:refpx="94.924" atv:refpy="28.856" stroke-width="0.819"/>
 <rect width="3.543" x="26.203" y="16.455" fill="$SYMBOLCOLOR$" height="3.543" id="id_28" atv:refpx="78.981" atv:refpy="28.856" stroke-width="0.819"/>
 <rect width="3.543" x="4.938" y="27.089" fill="$SYMBOLCOLOR$" height="3.543" id="id_29" atv:refpx="10.253" atv:refpy="74.827" stroke-width="0.819"/>
 <rect width="19.491" x="10.254" y="27.089" fill="$SYMBOLCOLOR$" height="3.543" id="id_30" atv:refpx="28.858" atv:refpy="74.827" stroke-width="0.819"/>
 <rect width="3.543" x="31.518" y="27.089" fill="$SYMBOLCOLOR$" height="3.543" id="id_31" atv:refpx="94.924" atv:refpy="50.116" stroke-width="0.819"/>
 <rect width="3.543" x="20.886" y="21.772" fill="$SYMBOLCOLOR$" height="3.543" id="id_32" atv:refpx="63.033" atv:refpy="39.487" stroke-width="0.819"/>
 <rect width="3.543" x="31.518" y="21.772" fill="$SYMBOLCOLOR$" height="3.543" id="id_33" atv:refpx="94.924" atv:refpy="39.487" stroke-width="0.819"/>
 <rect width="3.543" x="26.203" y="21.772" fill="$SYMBOLCOLOR$" height="3.543" id="id_34" atv:refpx="78.981" atv:refpy="39.487" stroke-width="0.819"/>
 <polyline points="36.101,5.693 36.101,8.345 27.114,8.345 27.114,11.877 25.267,11.877 25.267,13.8 2.316,13.8 2.316,33.058 37.965,33.058 37.965,13.8 25.267,13.8" fill="none" stroke="$SYMBOLCOLOR$" stroke-linejoin="miter" id="id_3" atv:refpx="20.142" stroke-width="2" atv:refpy="19.377"/>
</svg>
