<?xml version='1.0' encoding='UTF-8' standalone='no'?>
<svg sodipodi:docname="boiler_red.svg" xmlns:atv="http://webmi.atvise.com/2007/svgext" xmlns:sodipodi="http://sodipodi.sourceforge.net/DTD/sodipodi-0.dtd" xmlns:xlink="http://www.w3.org/1999/xlink" xmlns:svg="http://www.w3.org/2000/svg" id="svg2875" height="172.26196" version="1.1" xmlns:dc="http://purl.org/dc/elements/1.1/" xmlns="http://www.w3.org/2000/svg" width="302.20474" xmlns:cc="http://creativecommons.org/ns#" xmlns:rdf="http://www.w3.org/1999/02/22-rdf-syntax-ns#" xmlns:inkscape="http://www.inkscape.org/namespaces/inkscape" inkscape:version="1.0beta1 (d07a077, 2019-11-03)">
 <defs id="defs2869">
  <linearGradient y1="40" x2="57.435001" x1="57.435001" y2="70" id="Sk2n355pb5e" gradientUnits="userSpaceOnUse">
   <stop stop-color="#f2a4a4" offset="0"/>
   <stop stop-color="#d87d7d" offset="1"/>
  </linearGradient>
  <linearGradient y1="40" x2="57.435001" x1="57.435001" y2="70" id="Sk2n355pb5h" gradientUnits="userSpaceOnUse">
   <stop stop-color="#bc4512" offset="0"/>
   <stop stop-color="#472000" offset="1"/>
  </linearGradient>
  <linearGradient y1="40" x2="57.435001" x1="57.435001" y2="70" id="Sk2n355pb5k" gradientUnits="userSpaceOnUse">
   <stop stop-color="#de9c5f" offset="0"/>
   <stop stop-color="#000000" offset="1"/>
  </linearGradient>
  <linearGradient y1="33.339901" x2="50.0313" x1="50.0313" y2="71.2407" id="Sk2n355pb75" gradientUnits="userSpaceOnUse">
   <stop stop-color="#96c9eb" offset="0"/>
   <stop stop-color="#547387" offset="1"/>
  </linearGradient>
  <linearGradient y1="29.744101" x2="59.494999" x1="40.567699" y2="29.744101" id="Sk2n355pb7a" gradientUnits="userSpaceOnUse">
   <stop stop-color="#96c9eb" offset="0"/>
   <stop stop-color="#547387" offset="1"/>
  </linearGradient>
  <linearGradient y1="33.339901" x2="50.0313" x1="50.0313" y2="71.2407" id="Sk2n355pb7j" gradientUnits="userSpaceOnUse">
   <stop stop-color="#6db6ff" offset="0"/>
   <stop stop-color="#254a70" offset="1"/>
  </linearGradient>
  <linearGradient y1="29.744101" x2="59.494999" x1="40.567699" y2="29.744101" id="Sk2n355pb7m" gradientUnits="userSpaceOnUse">
   <stop stop-color="#6db6ff" offset="0"/>
   <stop stop-color="#254a70" offset="1"/>
  </linearGradient>
  <linearGradient y1="33.339901" x2="50.0313" x1="50.0313" y2="71.2407" id="Sk2n355pb7p" gradientUnits="userSpaceOnUse">
   <stop stop-color="#2098e8" offset="0"/>
   <stop stop-color="#005287" offset="1"/>
  </linearGradient>
  <linearGradient y1="29.744101" x2="59.494999" x1="40.567699" y2="29.744101" id="Sk2n355pb7s" gradientUnits="userSpaceOnUse">
   <stop stop-color="#2098e8" offset="0"/>
   <stop stop-color="#005287" offset="1"/>
  </linearGradient>
  <linearGradient y1="40" x2="57.435001" x1="57.435001" y2="70" id="Sk2n355pba5" gradientUnits="userSpaceOnUse">
   <stop stop-color="#6db6ff" offset="0"/>
   <stop stop-color="#254a70" offset="1"/>
  </linearGradient>
  <linearGradient y1="0.346821" x2="0.5" x1="0.5" y2="1.33859" id="Sk2n355pbae" gradientUnits="objectBoundingBox">
   <stop stop-color="#ff5600" offset="0"/>
   <stop stop-color="#1a0c00" offset="1"/>
  </linearGradient>
  <linearGradient y1="40" class="linear" x2="57.435001" x1="57.435001" y2="70" id="SVGID_1_" gradientUnits="userSpaceOnUse">
   <stop stop-color="#CCCCCC" offset="0"/>
   <stop stop-color="#333333" offset="1"/>
  </linearGradient>
 </defs>
 <sodipodi:namedview inkscape:window-maximized="1" id="base" showgrid="false" inkscape:pageshadow="2" inkscape:window-height="1003" inkscape:zoom="0.35" pagecolor="#ffffff" inkscape:current-layer="layer1" inkscape:window-x="0" inkscape:document-rotation="0" inkscape:cx="1569.667" inkscape:pageopacity="0.0" borderopacity="1.0" inkscape:window-width="2560" inkscape:document-units="mm" inkscape:window-y="0" bordercolor="#666666" inkscape:cy="135.53444"/>
 <metadata id="metadata2872">
  <rdf:RDF>
   <cc:Work rdf:about="">
    <dc:format>image/svg+xml</dc:format>
    <dc:type rdf:resource="http://purl.org/dc/dcmitype/StillImage"/>
    <dc:title/>
   </cc:Work>
  </rdf:RDF>
  <atv:gridconfig gridstyle="lines" height="20" width="20" enabled="false"/>
  <atv:snapconfig height="10" width="10" enabled="false"/>
 </metadata>
 <g id="layer1" atv:refpx="151.102" inkscape:groupmode="layer" atv:refpy="80.124" transform="translate(309.4744,-112.30651)" inkscape:label="Слой 1">
  <g id="g3332" atv:refpx="-158.372" atv:refpy="192.43" transform="matrix(3.0423092,0,0,3.1944139,-309.9277,37.764866)">
   <g id="linear" atv:refpx="57.435" atv:refpy="44.634">
    <path class="linear" id="path3224" atv:refpx="57.435" fill="url(#Sk2n355pbae)" inkscape:connector-curvature="0" atv:refpy="44.634" d="M25.908,59.758C20.556,51.405 20.556,37.862 25.908,29.509L88.962,29.509C94.314,37.862 94.314,51.405 88.962,59.758Z"/>
   </g>
   <g id="shape" atv:refpx="43.656" atv:refpy="52.246">
    <rect x="14.469" y="43.092999" id="rect3227" atv:refpx="17.37" height="2.628" fill="#e34300" width="5.8010001" atv:refpy="44.407"/>
    <path id="path3229" atv:refpx="3.865" fill="#e34300" inkscape:connector-curvature="0" atv:refpy="54.966" d="M3.321,52.7C3.321,51.907 3.455,51.145 3.699,50.434L0.149,50.434L0.149,59.497L7.581,59.497L7.581,59.129C5.077,58.069 3.321,55.589 3.321,52.7"/>
    <rect x="29.514" y="67.110001" id="rect3231" atv:refpx="34.59" height="4.3499999" fill="#e34300" width="10.151" atv:refpy="69.285"/>
    <path id="path3233" atv:refpx="47.064" fill="#e34300" inkscape:connector-curvature="0" atv:refpy="62.941" d="M84.263,48.621L84.263,61.355L30.608,61.355L30.608,48.621L27.708,48.621L27.708,59.694L6.964,59.694L6.964,62.141L27.708,62.141L27.708,65.569L27.708,77.261L30.607,77.261L30.607,76.036L84.263,76.036L84.263,77.261L87.163,77.261L87.163,65.57L87.163,61.945L87.163,48.621ZM84.263,73.5L30.608,73.5L30.608,63.848L84.263,63.848Z"/>
    <path id="path3235" atv:refpx="54.483" fill="#e34300" inkscape:connector-curvature="0" atv:refpy="47.534" d="M71.205,63.666L71.205,65.116L52.897,65.116L52.897,63.666L51.083,63.666L51.083,65.116L42.926,65.116C41.727,65.116 40.751,64.14 40.751,62.941L40.751,33.939L56.023,33.939C57.422,33.939 58.561,32.801 58.561,31.401L58.561,27.232L57.111,27.232L57.111,31.401C57.111,32 56.623,32.488 56.023,32.488L38.486,32.488C37.885,32.488 37.397,32 37.397,31.4L37.397,27.231L35.947,27.231L35.947,31.4C35.947,32.8 37.085,33.938 38.485,33.938L39.301,33.938L39.301,62.941C39.301,64.94 40.927,66.567 42.926,66.567L51.083,66.567L51.083,67.836L52.896,67.836L52.896,66.567L71.204,66.567L71.204,67.836L73.017,67.836L73.017,63.667Z"/>
   </g>
   <g id="dark" atv:refpx="48.638" atv:refpy="49.193">
    <rect x="34.429001" y="28.32" id="rect3238" atv:refpx="36.719" height="1.189" fill="#8a3400" width="4.579" atv:refpy="28.915"/>
    <path id="path3240" atv:refpx="44.83" fill="#8a3400" inkscape:connector-curvature="0" atv:refpy="70.374" d="M50.178,69.104C50.178,68.705 49.852,68.379 49.452,68.379L45.464,68.379C45.065,68.379 44.739,68.053 44.739,67.654L44.739,67.473C44.739,67.074 44.413,66.748 44.014,66.748L40.207,66.748C39.808,66.748 39.482,67.074 39.482,67.473L39.482,73.274C39.482,73.673 39.808,73.999 40.207,73.999L44.014,73.999C44.413,73.999 44.739,73.673 44.739,73.274L44.739,73.093C44.739,72.694 45.065,72.368 45.464,72.368L49.452,72.368C49.852,72.368 50.178,72.042 50.178,71.643Z"/>
    <rect x="55.366001" y="28.32" id="rect3242" atv:refpx="57.656" height="1.189" fill="#8a3400" width="4.5799999" atv:refpy="28.915"/>
    <polygon points="76.302,28.32 76.302,29.509 80.881,29.509 80.881,28.32 80.094,28.32 80.094,27.413 77.089,27.413 77.089,28.32 " id="polygon3244" atv:refpx="78.591" fill="#8a3400" atv:refpy="28.461"/>
    <path id="path3246" atv:refpx="84.253" fill="#8a3400" inkscape:connector-curvature="0" atv:refpy="69.377" d="M89.331,64.301L89.331,65.861L78.44,65.861C77.485,67.802 77.485,70.95 78.44,72.892L89.332,72.892L89.332,74.452L90.782,74.452L90.782,64.301Z"/>
    <circle r="3.8069999" cy="52.700001" id="circle3248" atv:refpx="10.3" cx="10.3" fill="#8a3400" atv:refpy="52.7"/>
    <circle r="8.3599997" cy="45.132" id="circle3250" atv:refpx="63.143" cx="63.143002" fill="#8a3400" atv:refpy="45.132"/>
    <path id="path3252" atv:refpx="56.558" fill="#8a3400" inkscape:connector-curvature="0" atv:refpy="27.051" d="M56.558,23.934C54.836,23.934 53.441,25.33 53.441,27.051C53.441,28.772 54.836,30.168 56.558,30.168C58.279,30.168 59.675,28.772 59.675,27.051C59.675,25.33 58.279,23.934 56.558,23.934M58.861,26.661L57.635,26.661C57.519,26.341 57.266,26.088 56.947,25.973L56.947,24.748C57.925,24.912 58.695,25.683 58.861,26.661M56.168,24.748L56.168,25.973C55.848,26.089 55.595,26.342 55.48,26.661L54.254,26.661C54.419,25.683 55.19,24.912 56.168,24.748M54.255,27.44L55.48,27.44C55.596,27.76 55.849,28.013 56.168,28.128L56.168,29.353C55.19,29.189 54.42,28.418 54.255,27.44M56.948,29.353L56.948,28.128C57.268,28.012 57.521,27.759 57.636,27.44L58.861,27.44C58.696,28.418 57.926,29.189 56.948,29.353"/>
    <path id="path3254" atv:refpx="33.713" fill="#8a3400" inkscape:connector-curvature="0" atv:refpy="69.194" d="M33.713,64.843C31.31,64.843 29.363,66.791 29.363,69.193C29.363,71.595 31.311,73.543 33.713,73.543C36.115,73.543 38.063,71.595 38.063,69.193C38.063,66.791 36.116,64.843 33.713,64.843M36.927,68.651L35.217,68.651C35.055,68.205 34.703,67.852 34.256,67.69L34.256,65.98C35.622,66.21 36.697,67.286 36.927,68.651M33.169,65.981L33.169,67.69C32.723,67.851 32.369,68.204 32.208,68.651L30.497,68.651C30.729,67.285 31.804,66.209 33.169,65.981M30.498,69.738L32.208,69.738C32.369,70.184 32.723,70.538 33.169,70.699L33.169,72.409C31.803,72.178 30.728,71.103 30.498,69.738M34.257,72.408L34.257,70.699C34.702,70.538 35.056,70.185 35.218,69.738L36.928,69.738C36.696,71.104 35.622,72.179 34.257,72.408"/>
   </g>
   <g id="light" atv:refpx="49.092" atv:refpy="49.766">
    <path id="path3257" atv:refpx="12.935" fill="#ff5600" inkscape:connector-curvature="0" atv:refpy="52.7" d="M21.913,45.721L10.3,45.721C6.446,45.721 3.321,48.845 3.321,52.699C3.321,56.554 6.445,59.678 10.3,59.678C14.155,59.678 17.279,56.554 17.279,52.699C17.279,52.169 17.218,51.654 17.106,51.159L22.549,51.159C22.186,49.389 21.972,47.56 21.913,45.721M10.3,56.506C8.198,56.506 6.493,54.802 6.493,52.699C6.493,50.597 8.197,48.891 10.3,48.891C12.403,48.891 14.107,50.596 14.107,52.699C14.106,54.802 12.402,56.506 10.3,56.506"/>
    <path id="path3259" atv:refpx="10.299" fill="#ff5600" inkscape:connector-curvature="0" atv:refpy="52.7" d="M6.855,52.7C6.855,54.602 8.397,56.144 10.299,56.144L10.299,49.256C12.2,49.256 13.742,50.798 13.742,52.7Z"/>
    <circle r="7.9970002" cy="45.132" id="circle3261" atv:refpx="63.143" cx="63.143002" fill="#ff5600" atv:refpy="45.132"/>
    <rect x="23.577" y="48.620998" id="rect3263" atv:refpx="29.015" height="13.776" fill="#ff5600" width="10.876" atv:refpy="55.509"/>
    <rect x="93.594002" y="51.332001" id="rect3265" atv:refpx="94.229" height="1.2690001" fill="#ff5600" width="1.2690001" atv:refpy="51.967"/>
   </g>
   <g id="shadow" atv:refpx="51.411" atv:refpy="46.967">
    <polygon points="63.474,38.756 62.812,38.756 62.481,38.183 62.812,37.61 63.474,37.61 63.805,38.183 " id="polygon3268" atv:refpx="63.143" fill="#1a0c00" atv:refpy="38.183"/>
    <polygon points="63.474,52.668 62.812,52.668 62.481,52.095 62.812,51.522 63.474,51.522 63.805,52.095 " id="polygon3270" atv:refpx="63.143" fill="#1a0c00" atv:refpy="52.095"/>
    <polygon points="56.518,45.712 55.856,45.712 55.525,45.139 55.856,44.566 56.518,44.566 56.849,45.139 " id="polygon3272" atv:refpx="56.187" fill="#1a0c00" atv:refpy="45.139"/>
    <polygon points="70.43,45.712 69.768,45.712 69.437,45.139 69.768,44.566 70.43,44.566 70.76,45.139 " id="polygon3274" atv:refpx="70.099" fill="#1a0c00" atv:refpy="45.139"/>
    <polygon points="68.392,40.794 67.73,40.794 67.399,40.221 67.73,39.647 68.392,39.647 68.723,40.221 " id="polygon3276" atv:refpx="68.061" fill="#1a0c00" atv:refpy="40.221"/>
    <polygon points="58.555,50.631 57.893,50.631 57.563,50.057 57.893,49.484 58.555,49.484 58.886,50.057 " id="polygon3278" atv:refpx="58.225" fill="#1a0c00" atv:refpy="50.058"/>
    <polygon points="57.894,40.794 58.555,40.794 58.886,40.221 58.555,39.647 57.893,39.647 57.563,40.221 " id="polygon3280" atv:refpx="58.225" fill="#1a0c00" atv:refpy="40.221"/>
    <polygon points="67.73,50.631 68.392,50.631 68.723,50.057 68.392,49.484 67.73,49.484 67.399,50.057 " id="polygon3282" atv:refpx="68.061" fill="#1a0c00" atv:refpy="50.058"/>
    <path id="path3284" atv:refpx="63.143" fill="#1a0c00" opacity="0.5" inkscape:connector-curvature="0" atv:refpy="51.125" d="M63.143,53.492C58.526,53.492 54.783,49.748 54.783,45.132L54.783,46.945C54.783,51.562 58.526,57.118 63.143,57.118C67.76,57.118 71.503,51.562 71.503,46.945L71.503,45.133C71.503,49.749 67.76,53.492 63.143,53.492" enable-background="new    "/>
    <path id="path3286" atv:refpx="66.256" fill="#1a0c00" inkscape:connector-curvature="0" atv:refpy="65.139" d="M77.769,68.425L58.698,68.425C57.699,68.425 56.885,67.612 56.885,66.612L56.885,59.679L54.71,59.679L54.71,66.612C54.71,68.811 56.499,70.6 58.698,70.6L77.802,70.6C77.713,69.887 77.7,69.144 77.769,68.425"/>
    <path id="path3288" atv:refpx="84.573" fill="#1a0c00" inkscape:connector-curvature="0" atv:refpy="25.623" d="M79.271,27.64L77.821,27.64L77.821,26.348C77.821,24.836 79.447,23.605 81.446,23.605L91.325,23.605L91.325,25.055L81.446,25.055C80.164,25.055 79.271,25.737 79.271,26.348Z"/>
    <path id="path3290" atv:refpx="90.193" fill="#1a0c00" inkscape:connector-curvature="0" atv:refpy="54.807" d="M83.078,66.023L80.903,66.023L80.903,63.78C80.903,61.943 82.692,60.449 84.891,60.449L95.495,60.449C96.494,60.449 97.308,59.635 97.308,58.635L97.308,47.579C97.308,46.579 96.495,45.766 95.495,45.766L92.413,45.766L92.413,43.591L95.495,43.591C97.694,43.591 99.483,45.38 99.483,47.579L99.483,58.636C99.483,60.835 97.694,62.624 95.495,62.624L84.891,62.624C83.823,62.624 83.078,63.233 83.078,63.78C83.078,63.78 83.078,66.023 83.078,66.023"/>
    <path id="path3292" atv:refpx="89.83" fill="#1a0c00" inkscape:connector-curvature="0" atv:refpy="45.404" d="M88.878,65.751L87.156,65.751L87.156,64.301L88.878,64.301C90.077,64.301 91.053,63.325 91.053,62.126L91.053,25.057L92.503,25.057L92.503,62.126C92.504,64.125 90.877,65.751 88.878,65.751"/>
    <path id="path3294" atv:refpx="91.779" fill="#1a0c00" inkscape:connector-curvature="0" atv:refpy="51.34" d="M91.779,54.875C90.777,54.875 89.966,54.063 89.966,53.062L89.966,49.617C89.966,48.617 90.777,47.804 91.779,47.804C92.78,47.804 93.592,48.616 93.592,49.617L93.592,53.062C93.591,54.062 92.78,54.875 91.779,54.875"/>
    <circle r="0.85500002" cy="27.051001" id="circle3296" atv:refpx="59.229" cx="59.229" fill="#1a0c00" atv:refpy="27.051"/>
    <circle r="0.634" cy="55.237" id="circle3298" atv:refpx="33.139" cx="33.139" fill="#1a0c00" atv:refpy="55.237"/>
    <rect x="27.52" y="49.528" id="rect3300" atv:refpx="30.239" height="3.082" fill="#1a0c00" width="5.4380002" atv:refpy="51.069"/>
    <path id="path3302" atv:refpx="23.305" fill="#1a0c00" inkscape:connector-curvature="0" atv:refpy="51.068" d="M23.305,52.972C23.105,52.972 22.942,52.81 22.942,52.609L22.942,49.527C22.942,49.327 23.104,49.164 23.305,49.164C23.506,49.164 23.668,49.326 23.668,49.527L23.668,52.609C23.668,52.809 23.506,52.972 23.305,52.972"/>
    <path id="path3304" atv:refpx="23.305" fill="#1a0c00" inkscape:connector-curvature="0" atv:refpy="59.497" d="M23.305,61.401C23.105,61.401 22.942,61.239 22.942,61.038L22.942,57.956C22.942,57.756 23.104,57.593 23.305,57.593C23.506,57.593 23.668,57.755 23.668,57.956L23.668,61.038C23.668,61.238 23.506,61.401 23.305,61.401"/>
    <path id="path3306" atv:refpx="13.466" fill="#1a0c00" inkscape:connector-curvature="0" atv:refpy="60.762" d="M6.159,63.279C5.578,63.279 5.061,63.159 4.627,62.88C3.76,62.322 3.338,61.221 3.338,59.514L4.062,59.514C4.062,60.935 4.385,61.862 5.019,62.27C6.386,63.15 9.31,61.82 12.139,60.534C14.614,59.408 17.174,58.244 19.198,58.244L23.594,58.244L23.594,58.969L19.198,58.969C17.332,58.969 14.844,60.1 12.439,61.193C10.099,62.258 7.854,63.279 6.159,63.279"/>
    <path id="path3308" atv:refpx="43.814" fill="#1a0c00" inkscape:connector-curvature="0" atv:refpy="66.703" d="M43.474,66.84L44.193,66.746C44.184,66.685 44.175,66.626 44.168,66.566L43.436,66.566C43.449,66.657 43.462,66.746 43.474,66.84"/>
    <path id="path3310" atv:refpx="43.382" fill="#1a0c00" inkscape:connector-curvature="0" atv:refpy="64.483" d="M43.601,63.848L42.84,63.848C42.967,64.224 43.081,64.644 43.183,65.117L43.923,65.117C43.827,64.65 43.719,64.23 43.601,63.848"/>
    <path id="path3312" atv:refpx="36.929" fill="#1a0c00" inkscape:connector-curvature="0" atv:refpy="58.781" d="M34.555,58.049L34.624,58.771C34.656,58.768 37.371,58.529 39.303,59.547L39.303,58.739C37.231,57.81 34.686,58.036 34.555,58.049"/>
    <path id="path3314" atv:refpx="41.547" fill="#1a0c00" inkscape:connector-curvature="0" atv:refpy="60.528" d="M40.752,59.701L40.752,60.693C40.982,60.913 41.199,61.132 41.398,61.355L42.342,61.355C41.893,60.77 41.363,60.259 40.752,59.701"/>
    <circle r="1.1339999" cy="51.883999" id="circle3316" atv:refpx="95.782" cx="95.781998" fill="#1a0c00" atv:refpy="51.884"/>
    <rect x="89.150002" y="23.334999" id="rect3318" atv:refpx="90.782" height="1.994" fill="#1a0c00" width="3.263" atv:refpy="24.332"/>
    <circle r="1.193" cy="69.195" id="circle3320" atv:refpx="37.44" cx="37.439999" fill="#1a0c00" atv:refpy="69.195"/>
   </g>
   <g id="hlight" atv:refpx="64.709" atv:refpy="48.239">
    <circle r="0.74000001" cy="51.883999" id="circle3323" atv:refpx="95.782" cx="95.781998" fill="#ffd9c9" atv:refpy="51.884"/>
    <rect x="59.245998" y="42.775002" id="rect3325" atv:refpx="63.143" height="4.7129998" fill="#ffd9c9" width="7.7940001" atv:refpy="45.132"/>
    <circle r="0.81599998" cy="69.195" id="circle3327" atv:refpx="33.713" cx="33.713001" fill="#ffd9c9" atv:refpy="69.195"/>
    <circle r="0.58399999" cy="27.051001" id="circle3329" atv:refpx="56.558" cx="56.557999" fill="#ffd9c9" atv:refpy="27.051"/>
   </g>
  </g>
 </g>
</svg>
