<?xml version='1.0' encoding='UTF-8' standalone='no'?>
<svg width="20" x="0px" version="1.1" y="0px" xmlns="http://www.w3.org/2000/svg" height="20" xmlns:xlink="http://www.w3.org/1999/xlink" id="Ebene_1" enable-background="new 0 0 16 16" xml:space="preserve" xmlns:atv="http://webmi.atvise.com/2007/svgext">
 <defs>
  <linearGradient id="SVGID_1_" y1="0.136603" x1="-0.290145" y2="0.639639" gradientUnits="objectBoundingBox" x2="0.792871">
   <stop offset="0" style="stop-color:#9D9D9C"/>
   <stop offset="1" style="stop-color:#3C3C3B"/>
  </linearGradient>
  <linearGradient id="SVGID_2_" y1="0.0373166" x1="0.0373956" y2="1.06773" gradientUnits="objectBoundingBox" x2="0.933879">
   <stop offset="0" style="stop-color:#9D9D9C"/>
   <stop offset="1" style="stop-color:#3C3C3B"/>
  </linearGradient>
 </defs>
 <metadata>
  <atv:parameter desc="symbol color" valuetype="color" substitute="$SYMBOLCOLOR$" behavior="optional" name="symbolColor" defaultvalue="#000000"/>
  <atv:parameter desc="symbol color 2" valuetype="color" substitute="$SYMBOLCOLOR2$" behavior="optional" name="symbolColor2" defaultvalue="#FFFFFF"/>
 </metadata>
 <path fill="$SYMBOLCOLOR$" id="id_0" atv:refpx="17.188" atv:refpy="12.444" stroke-width="1.117" d="M15.532,8.854L15.52,16.032L15.576,16.032L18.845,8.977C18.876,8.909 18.826,8.856 18.735,8.856"/>
 <path fill="$SYMBOLCOLOR$" id="id_1" atv:refpx="7.936" atv:refpy="10.064" stroke-width="1.117" d="M14.72,5.679L7.284,5.679L7.284,4.181C7.284,4.085 7.206,4.008 7.109,4.008L2.019,4.008C1.923,4.008 1.845,4.085 1.845,4.181L1.845,5.679L1.149,5.679C1.053,5.679 0.976,5.757 0.976,5.853L0.976,15.943C0.976,16.04 1.053,16.117 1.149,16.117L14.72,16.117C14.818,16.117 14.895,16.04 14.895,15.943L14.895,5.853C14.895,5.757 14.818,5.679 14.72,5.679"/>
 <rect width="5.724" x="5.294" y="7.058" fill="none" height="4.458" stroke="$SYMBOLCOLOR2$" id="id_2" atv:refpx="8.156" stroke-width="1" atv:refpy="9.286"/>
 <rect width="9.283" x="3.514" y="12.594" fill="$SYMBOLCOLOR2$" height="2.505" stroke="none" id="id_3" atv:refpx="8.156" stroke-width="1" atv:refpy="13.847"/>
 <rect width="3.677" x="8.656" y="13.277" fill="$SYMBOLCOLOR$" height="0.228" stroke="none" id="id_4" atv:refpx="10.495" stroke-width="1" atv:refpy="13.402"/>
 <circle fill="$SYMBOLCOLOR$" cx="11.422" cy="14.123" stroke="none" r="0.295" id="id_5" atv:refpx="11.422" stroke-width="1" atv:refpy="14.123"/>
</svg>
