<?xml version='1.0' encoding='UTF-8' standalone='no'?>
<svg width="20" x="0px" version="1.1" y="0px" xmlns="http://www.w3.org/2000/svg" height="20" xmlns:xlink="http://www.w3.org/1999/xlink" id="Ebene_1" enable-background="new 0 0 50 50" xml:space="preserve" xmlns:atv="http://webmi.atvise.com/2007/svgext">
 <defs/>
 <metadata>
  <atv:parameter desc="symbol color" valuetype="color" substitute="$SYMBOLCOLOR$" behavior="optional" name="symbolColor" defaultvalue="#000000"/>
 </metadata>
 <polygon points="4.155,1 4.155,18.528 15.841,18.528 15.841,4.896 11.946,1" fill="none" stroke="$SYMBOLCOLOR$" id="id_2" atv:refpx="25.464" stroke-width="0.779" atv:refpy="10.741"/>
 <polyline points="11.751,1.344 11.751,5.24 15.646,5.24" fill="$SYMBOLCOLOR$" stroke="none" id="id_3" atv:refpx="39.515" stroke-width="0.779" atv:refpy="3.294"/>
 <rect width="5.298" x="5.506" y="4.49" fill="$SYMBOLCOLOR$" height="0.566" stroke="none" id="id_4" atv:refpx="21.479" stroke-width="0.781" atv:refpy="4.773"/>
 <rect width="5.298" x="5.506" y="2.698" fill="$SYMBOLCOLOR$" height="0.566" stroke="none" id="id_6" atv:refpx="21.48" stroke-width="0.781" atv:refpy="2.981"/>
 <rect width="8.987" x="5.506" y="6.28" fill="$SYMBOLCOLOR$" height="0.566" stroke="none" id="id_7" atv:refpx="9.999" stroke-width="0.781" atv:refpy="22.276"/>
 <rect width="8.987" x="5.506" y="16.522" fill="$SYMBOLCOLOR$" height="0.566" stroke="none" id="id_8" atv:refpx="10" stroke-width="0.781" atv:refpy="53"/>
 <rect width="8.987" x="5.506" y="14.926" fill="$SYMBOLCOLOR$" height="0.566" stroke="none" id="id_9" atv:refpx="10" stroke-width="0.781" atv:refpy="48.21"/>
 <path fill="$SYMBOLCOLOR$" fill-rule="evenodd" stroke="none" id="id_0" atv:refpx="10.001" stroke-width="2" atv:refpy="10.929" d="M7.318,7.562L8.665,7.562L8.665,10.255L11.334,10.255L11.334,7.562L12.681,7.562L12.681,14.295L11.334,14.295L11.334,11.602L8.665,11.602L8.665,14.295L7.318,14.295Z"/>
</svg>
