<?xml version='1.0' encoding='iso-8859-1'?>
<!-- Generator: Adobe Illustrator 19.1.0, SVG Export Plug-In . SVG Version: 6.00 Build 0)  -->
<svg id="Capa_1" xml:space="preserve" version="1.1" xmlns:atv="http://webmi.atvise.com/2007/svgext" width="64" height="64" x="0px" y="0px" style="enable-background:new 0 0 64 64" xmlns="http://www.w3.org/2000/svg" xmlns:xlink="http://www.w3.org/1999/xlink">
 <defs/>
 <metadata>
  <atv:gridconfig width="20" enabled="false" height="20" gridstyle="lines"/>
  <atv:snapconfig width="10" enabled="false" height="10"/>
 </metadata>
 <g id="id_2" transform="matrix(0.8052,0,0,0.8052,6.2351,6.2351)" atv:refpy="32" atv:refpx="32">
  <g id="id_1" atv:refpy="32" atv:refpx="32">
   <path id="id_0" d="M0,14L0,16L0,64L64,64L64,16L64,14L64,0L0,0ZM62,62L2,62L2,16L62,16ZM2,2L62,2L62,14L2,14Z" fill="#575757" atv:refpy="32" atv:refpx="32"/>
  </g>
 </g>
 <g id="id_3" transform="matrix(1,0,0,1,30.5434,27.2215)" atv:refpy="27.221" atv:refpx="30.543"/>
 <g id="id_4" transform="matrix(1,0,0,1,30.5434,27.2215)" atv:refpy="27.221" atv:refpx="30.543"/>
 <g id="id_5" transform="matrix(1,0,0,1,30.5434,27.2215)" atv:refpy="27.221" atv:refpx="30.543"/>
 <g id="id_6" transform="matrix(1,0,0,1,30.5434,27.2215)" atv:refpy="27.221" atv:refpx="30.543"/>
 <g id="id_7" transform="matrix(1,0,0,1,30.5434,27.2215)" atv:refpy="27.221" atv:refpx="30.543"/>
 <g id="id_8" transform="matrix(1,0,0,1,30.5434,27.2215)" atv:refpy="27.221" atv:refpx="30.543"/>
 <g id="id_9" transform="matrix(1,0,0,1,30.5434,27.2215)" atv:refpy="27.221" atv:refpx="30.543"/>
 <g id="id_10" transform="matrix(1,0,0,1,30.5434,27.2215)" atv:refpy="27.221" atv:refpx="30.543"/>
 <g id="id_11" transform="matrix(1,0,0,1,30.5434,27.2215)" atv:refpy="27.221" atv:refpx="30.543"/>
 <g id="id_12" transform="matrix(1,0,0,1,30.5434,27.2215)" atv:refpy="27.221" atv:refpx="30.543"/>
 <g id="id_13" transform="matrix(1,0,0,1,30.5434,27.2215)" atv:refpy="27.221" atv:refpx="30.543"/>
 <g id="id_14" transform="matrix(1,0,0,1,30.5434,27.2215)" atv:refpy="27.221" atv:refpx="30.543"/>
 <g id="id_15" transform="matrix(1,0,0,1,30.5434,27.2215)" atv:refpy="27.221" atv:refpx="30.543"/>
 <g id="id_16" transform="matrix(1,0,0,1,30.5434,27.2215)" atv:refpy="27.221" atv:refpx="30.543"/>
 <g id="id_17" transform="matrix(1,0,0,1,30.5434,27.2215)" atv:refpy="27.221" atv:refpx="30.543"/>
</svg>
