<?xml version='1.0' encoding='UTF-8' standalone='no'?>
<svg sodipodi:docname="Pipe_elbow_blue.svg" inkscape:version="1.0beta1 (d07a077, 2019-11-03)" xmlns:dc="http://purl.org/dc/elements/1.1/" xmlns:svg="http://www.w3.org/2000/svg" width="80" xmlns:sodipodi="http://sodipodi.sourceforge.net/DTD/sodipodi-0.dtd" xmlns:inkscape="http://www.inkscape.org/namespaces/inkscape" id="svg216" xmlns:atv="http://webmi.atvise.com/2007/svgext" version="1.1" xmlns:xlink="http://www.w3.org/1999/xlink" height="80" xmlns:cc="http://creativecommons.org/ns#" xmlns:rdf="http://www.w3.org/1999/02/22-rdf-syntax-ns#" xmlns="http://www.w3.org/2000/svg">
 <defs id="defs210"/>
 <sodipodi:namedview inkscape:pageshadow="2" id="base" showgrid="false" inkscape:window-x="130" inkscape:document-units="mm" inkscape:pageopacity="0.0" inkscape:current-layer="layer1" bordercolor="#666666" inkscape:zoom="0.35" pagecolor="#ffffff" inkscape:window-maximized="0" inkscape:cy="364.28571" inkscape:window-y="23" inkscape:window-height="951" borderopacity="1.0" inkscape:window-width="1644" inkscape:document-rotation="0" inkscape:cx="990.00001"/>
 <metadata id="metadata213">
  <rdf:RDF>
   <cc:Work rdf:about="">
    <dc:format>image/svg+xml</dc:format>
    <dc:type rdf:resource="http://purl.org/dc/dcmitype/StillImage"/>
    <dc:title/>
   </cc:Work>
  </rdf:RDF>
  <atv:gridconfig enabled="false" width="20" gridstyle="lines" height="20"/>
  <atv:snapconfig enabled="false" width="10" height="10"/>
 </metadata>
 <g atv:refpy="23.2" atv:refpx="23.2" id="layer1" inkscape:groupmode="layer" inkscape:label="Слой 1" transform="translate(156.10417,-51.782738)">
  <g atv:refpy="74.983" atv:refpx="-132.904" id="g267" transform="matrix(0.8,0,0,0.8,-156.10417,51.782738)">
   <g atv:refpy="50" atv:refpx="50" id="frame">
    <rect y="0" atv:refpy="50" width="100" atv:refpx="50" fill="none" id="rect252" height="100" x="0"/>
   </g>
   <g atv:refpy="29" atv:refpx="29" id="shape">
    <path atv:refpy="29" inkscape:connector-curvature="0" atv:refpx="29" fill="#0080d5" id="path255" d="M34,58L0,58L0,42L34,42C38.411,42 42,38.411 42,34L42,0L58,0L58,34C58,47.234 47.234,58 34,58"/>
   </g>
   <g atv:refpy="28.5" atv:refpx="28.5" id="dark">
    <path atv:refpy="28.5" inkscape:connector-curvature="0" atv:refpx="28.5" fill="#005f9c" id="path258" d="M34,57L0,57L0,43L34,43C38.962,43 43,38.962 43,34L43,0L57,0L57,34C57,46.682 46.682,57 34,57"/>
   </g>
   <g atv:refpy="27.5" atv:refpx="27.5" id="light">
    <path atv:refpy="27.5" inkscape:connector-curvature="0" atv:refpx="27.5" fill="#2098e8" id="path261" d="M34,55L0,55L0,45L34,45C40.065,45 45,40.065 45,34L45,0L55,0L55,34C55,45.58 45.58,55 34,55"/>
   </g>
   <g atv:refpy="26.75" atv:refpx="26.75" id="hlight">
    <path atv:refpy="26.75" inkscape:connector-curvature="0" atv:refpx="26.75" fill="#82ccff" id="path264" d="M34,53.5L0,53.5L0,46.5L34,46.5C40.893,46.5 46.5,40.893 46.5,34L46.5,0L53.5,0L53.5,34C53.5,44.752 44.752,53.5 34,53.5"/>
   </g>
  </g>
 </g>
</svg>
