<?xml version='1.0' encoding='UTF-8' standalone='no'?>
<svg id="Ebene_1" xml:space="preserve" enable-background="new 0 0 72 72" x="0px" xmlns:atv="http://webmi.atvise.com/2007/svgext" y="0px" xmlns="http://www.w3.org/2000/svg" version="1.1" xmlns:xlink="http://www.w3.org/1999/xlink" width="40" height="40">
 <defs/>
 <metadata>
  <atv:parameter valuetype="color" behavior="optional" substitute="$SYMBOLCOLOR$" defaultvalue="#000000" name="symbolColor" desc="symbol color"/>
  <atv:gridconfig gridstyle="lines" enabled="false" width="20" height="20"/>
  <atv:snapconfig enabled="false" width="10" height="10"/>
 </metadata>
 <path d="M35.454,18.697L31.28,14.08L31.28,4.473L25.906,4.473L25.906,8.137L20.705,2.378C20.345,1.976 19.652,1.976 19.291,2.378L4.546,18.697C4.293,18.976 4.23,19.379 4.381,19.725C4.534,20.067 4.877,20.291 5.252,20.291L8.189,20.291L8.189,36.97C8.189,37.497 8.614,37.923 9.143,37.923L30.756,37.923C31.281,37.923 31.711,37.497 31.711,36.97L31.711,20.291L34.745,20.291C35.121,20.291 35.464,20.067 35.617,19.725C35.771,19.378 35.707,18.976 35.454,18.697" id="id_0" atv:refpx="20" atv:refpy="20" fill="$SYMBOLCOLOR$"/>
</svg>
