<?xml version='1.0' encoding='UTF-8' standalone='no'?>
<svg xmlns:svg="http://www.w3.org/2000/svg" version="1.2" xmlns:rdf="http://www.w3.org/1999/02/22-rdf-syntax-ns#" xmlns:xlink="http://www.w3.org/1999/xlink" xmlns:dc="http://purl.org/dc/elements/1.1/" xmlns:cc="http://creativecommons.org/ns#" width="30" xmlns="http://www.w3.org/2000/svg" height="30" xmlns:atv="http://webmi.atvise.com/2007/svgext">
 <defs/>
 <metadata>
  <atv:gridconfig enabled="false" gridstyle="lines" width="20" height="20"/>
  <atv:snapconfig enabled="false" width="10" height="10"/>
 </metadata>
 <g id="id_2" atv:insensitive="true" atv:refpx="0" atv:refpy="0" transform="matrix(1,0,0,1,0,0)">
  <rect id="id_3" y="0" fill="#0000ff" fill-opacity="0" atv:refpx="15" atv:refpy="15" x="0" width="30.00" height="30.00"/>
 </g>
 <g id="id_1" atv:refpx="15" atv:refpy="15">
  <g id="layer1" atv:refpx="15" atv:refpy="15" transform="translate(-106.47589,-44.487798)">
   <g id="shape" atv:refpx="121.476" atv:refpy="59.488" transform="matrix(0.51724138,0,0,0.51724138,106.47589,44.487798)">
    <path id="path43" fill="#52a6f9" atv:refpx="29" atv:refpy="29" d="M34,58L0,58L0,42L34,42C38.411,42 42,38.411 42,34L42,0L58,0L58,34C58,47.234 47.234,58 34,58"/>
   </g>
   <g id="dark" atv:refpx="121.217" atv:refpy="59.229" transform="matrix(0.51724138,0,0,0.51724138,106.47589,44.487798)">
    <path id="path46" fill="#3185d8" atv:refpx="28.5" atv:refpy="28.5" d="M34,57L0,57L0,43L34,43C38.962,43 43,38.962 43,34L43,0L57,0L57,34C57,46.682 46.682,57 34,57"/>
   </g>
   <g id="light" atv:refpx="120.7" atv:refpy="58.712" transform="matrix(0.51724138,0,0,0.51724138,106.47589,44.487798)">
    <path id="path49" fill="#6db6ff" atv:refpx="27.5" atv:refpy="27.5" d="M34,55L0,55L0,45L34,45C40.065,45 45,40.065 45,34L45,0L55,0L55,34C55,45.58 45.58,55 34,55"/>
   </g>
   <g id="hlight" atv:refpx="120.312" atv:refpy="58.324" transform="matrix(0.51724138,0,0,0.51724138,106.47589,44.487798)">
    <path id="path52" fill="#a5d2ff" atv:refpx="26.75" atv:refpy="26.75" d="M34,53.5L0,53.5L0,46.5L34,46.5C40.893,46.5 46.5,40.893 46.5,34L46.5,0L53.5,0L53.5,34C53.5,44.752 44.752,53.5 34,53.5"/>
   </g>
  </g>
 </g>
</svg>
