<?xml version='1.0' encoding='UTF-8' standalone='no'?>
<svg xmlns:atv="http://webmi.atvise.com/2007/svgext" xmlns="http://www.w3.org/2000/svg" xmlns:xlink="http://www.w3.org/1999/xlink" width="300" version="1.2" height="200">
 <defs/>
 <desc>Small display variant</desc>
 <title>Configuration - Bar/Column</title>
 <metadata>
  <atv:parameter name="fontColor" valuetype="global" desc="font color" defaultvalue="SYSTEM.GLOBALS.atvFontColor" substitute="$FONTCOLOR$" behavior="optional"/>
  <atv:gridconfig width="20" enabled="true" height="20" gridstyle="lines"/>
  <atv:snapconfig width="5" enabled="true" height="5"/>
 </metadata>
 <text x="115.5" text-anchor="end" fill="$FONTCOLOR$" font-family="Arial" y="169" atv:refpy="164.5" atv:refpx="88" id="id_18" font-size="12">T{Labels}:</text>
 <text x="115.5" text-anchor="end" fill="$FONTCOLOR$" font-family="Arial" y="64" atv:refpy="59.5" atv:refpx="73.5" id="id_40" font-size="12">T{Border color}:</text>
 <text x="115.5" text-anchor="end" fill="$FONTCOLOR$" font-family="Arial" y="134" atv:refpy="129.5" atv:refpx="61" id="id_41" font-size="12">T{Border line width}:</text>
 <svg xlink:href="SYSTEM.LIBRARY.ATVISE.OBJECTDISPLAYS.Advanced.picker_color" x="145.067" y="44" atv:refpy="64" width="160" transform="matrix(0.9375,0,0,1,0,0)" atv:refpx="211.003" id="series_borderColor" height="30">
  <atv:argument value="series_borderColor" name="name"/>
  <atv:argument value="30" name="tabIndex"/>
  <atv:overwrite x="125.5" transform="matrix(1.0667,0,0,1,0,0)" id="button_stroke"/>
  <atv:overwrite x="125.75" transform="matrix(1.0667,0,0,1,0,0)" id="id_1"/>
  <atv:overwrite x="125.5" transform="matrix(1.0667,0,0,1,0,0)" id="button_bg"/>
  <atv:overwrite x="113.5" transform="matrix(1.0667,0,0,1,0,0)" id="input_label"/>
  <atv:overwrite transform="matrix(1.0667,0,0,1,0,0)" width="118" id="blinking_frame"/>
  <atv:overwrite transform="matrix(1.0667,0,0,1,0,0)" width="146" id="focus_frame"/>
  <atv:overwrite transform="matrix(1.0667,0,0,1,0,0)" width="118" id="input_bg"/>
  <atv:overwrite transform="matrix(1.0667,0,0,1,0,0)" width="148" id="id_0"/>
  <atv:overwrite transform="matrix(1.0667,0,0,1,0,0)" width="150" id="id_2"/>
 </svg>
 <svg xlink:href="SYSTEM.LIBRARY.ATVISE.OBJECTDISPLAYS.Advanced.rocker_switch_horizontal" x="145.067" y="115" atv:refpy="136" width="160" transform="matrix(0.9375,0,0,1,0,0)" atv:refpx="211" id="series_borderWidth" height="30">
  <atv:argument value="32" name="tabIndex"/>
  <atv:argument value="0" name="min"/>
 </svg>
 <text x="115.5" text-anchor="end" fill="$FONTCOLOR$" font-family="Arial" y="99" atv:refpy="94.5" atv:refpx="84" id="id_0" font-size="12">T{Fill color}:</text>
 <svg xlink:href="SYSTEM.LIBRARY.ATVISE.OBJECTDISPLAYS.Advanced.picker_color" x="145.067" y="79" atv:refpy="99" width="160" transform="matrix(0.9375,0,0,1,0,0)" atv:refpx="211.003" id="series_color" height="30">
  <atv:argument value="series_color" name="name"/>
  <atv:argument value="31" name="tabIndex"/>
  <atv:overwrite x="125.5" transform="matrix(1.0667,0,0,1,0,0)" id="button_stroke"/>
  <atv:overwrite x="125.75" transform="matrix(1.0667,0,0,1,0,0)" id="id_1"/>
  <atv:overwrite x="125.5" transform="matrix(1.0667,0,0,1,0,0)" id="button_bg"/>
  <atv:overwrite x="113.5" transform="matrix(1.0667,0,0,1,0,0)" id="input_label"/>
  <atv:overwrite transform="matrix(1.0667,0,0,1,0,0)" width="118" id="blinking_frame"/>
  <atv:overwrite transform="matrix(1.0667,0,0,1,0,0)" width="146" id="focus_frame"/>
  <atv:overwrite transform="matrix(1.0667,0,0,1,0,0)" width="118" id="input_bg"/>
  <atv:overwrite transform="matrix(1.0667,0,0,1,0,0)" width="148" id="id_0"/>
  <atv:overwrite transform="matrix(1.0667,0,0,1,0,0)" width="150" id="id_2"/>
 </svg>
 <svg xlink:href="SYSTEM.LIBRARY.ATVISE.OBJECTDISPLAYS.Advanced.checkbox" x="136" y="150" atv:refpy="167" width="160" atv:refpx="186" id="series_dataLabels_enabled" height="30">
  <atv:argument value="true" name="valueOn"/>
  <atv:argument value="true" name="outputValueOn"/>
  <atv:argument value="false" name="outputValueOff"/>
  <atv:argument value="T{visible}" name="label"/>
  <atv:argument value="33" name="tabIndex"/>
  <atv:overwrite transform="matrix(1.6,0,0,1,0,0)" id="checkbox_bg2"/>
  <atv:overwrite transform="matrix(1.6,0,0,1,0,0)" id="id_5"/>
  <atv:overwrite width="68" transform="matrix(1.6,0,0,1,0,0)" id="id_2"/>
  <atv:overwrite width="99.5" transform="matrix(1.6,0,0,1,0,0)" id="id_0"/>
 </svg>
 <text x="115.5" text-anchor="end" fill="$FONTCOLOR$" font-family="Arial" y="29" atv:refpy="24.5" atv:refpx="68.5" id="id_4" font-size="12">T{Related x/y-axis}:</text>
 <svg xlink:href="SYSTEM.LIBRARY.ATVISE.OBJECTDISPLAYS.Advanced.combobox" x="145.067" y="9" atv:refpy="25" width="160" transform="matrix(0.9375,0,0,1,0,0)" atv:refpx="211" id="series_yAxis" height="30">
  <atv:overwrite x="126.75" transform="matrix(1.0526,0,0,1,0,0)" id="id_3"/>
  <atv:overwrite x="124.5" transform="matrix(1.0526,0,0,1,0,0)" id="id_5"/>
  <atv:overwrite width="120" transform="matrix(1.0526,0,0,1,0,0)" id="id_2"/>
  <atv:overwrite width="151.5" transform="matrix(1.0526,0,0,1,0,0)" id="combobox_stroke"/>
  <atv:overwrite transform="matrix(1.0667,0,0,1,0,0)" width="146" id="focus_frame"/>
  <atv:overwrite x="125" transform="matrix(1.0667,0,0,1,0,0)" id="button_stroke"/>
  <atv:overwrite x="125" transform="matrix(1.0667,0,0,1,0,0)" id="id_7"/>
  <atv:overwrite x="125" transform="matrix(1.0667,0,0,1,0,0)" id="button_bg"/>
  <atv:overwrite x="115.5" transform="matrix(1.0667,0,0,1,0,0)" id="combobox_label"/>
  <atv:overwrite transform="matrix(1.0667,0,0,1,0,0)" width="118" id="blinking_frame"/>
  <atv:overwrite transform="matrix(1.0667,0,0,1,0,0)" width="118" id="combobox_bg"/>
  <atv:overwrite transform="matrix(1.0667,0,0,1,0,0)" width="148" id="id_1"/>
  <atv:overwrite transform="matrix(1.0667,0,0,1,0,0)" width="150" id="id_0"/>
 </svg>
 <script type="text/ecmascript"><![CDATA[var inputDefaults = {
	"series_xAxis": 0,
	"series_yAxis": 0,
	"series_color": "#CCCCCC",
	"series_borderColor": "#000000",
	"series_borderWidth": 1,
	"series_dataLabels_enabled": true,
	"series_dataLabels_format": "{point.y:.2f}"
};

var activeSeries = webMI.query.activeSeries;
var triggerEnabled = true;

var chartname = webMI.query.chartname;
var chart = webMI.trendFactory.getTrendByName(chartname);
var options = chart.chart.options;
var configHandler = new webMI.rootWindow.ConfigHandler;

var xAxes = [];
var yAxes = [];

//Read options
function readOptions() {
	triggerEnabled = false;

	//Search configured axis
	xAxes = [];
	yAxes = [];

	var i = 0;
	while (typeof chart.chart.xAxis[i] != "undefined") {
		var name = chart.chart.xAxis[i].options.title.text;
		if (name == "")
			name = "X-Axis " + i;
		xAxes.push(name);
		webMI.trigger.fire("addItem", {text: name, value: i}, "series_xAxis");
		i++;
	}

	var i = 0;
	while (typeof chart.chart.yAxis[i] != "undefined") {
		var name = chart.chart.yAxis[i].options.title.text;
		if (name == "")
			name = "Y-Axis " + i;
		yAxes.push(name);
		webMI.trigger.fire("addItem", {text: name, value: i}, "series_yAxis");
		i++;
	}

	//Set values for current series
	var curSeries = chart.chart.series[activeSeries];

	if (typeof curSeries == "undefined")
		return;

	webMI.trigger.fire("setSelectedItem", curSeries.options.xAxis ? xAxes[curSeries.options.xAxis] : xAxes[0], "series_xAxis");
	webMI.trigger.fire("setSelectedItem", curSeries.options.yAxis ? yAxes[curSeries.options.yAxis] : yAxes[0], "series_yAxis");

	if (!curSeries.color)
		setOptions("series_color", inputDefaults["series_color"], activeSeries);

	if (!curSeries.options.borderColor)
		setOptions("series_borderColor", inputDefaults["series_borderColor"], activeSeries);

	if (!curSeries.options.dataLabels.format)
		setOptions("series_dataLabels_format", inputDefaults["series_dataLabels_format"], activeSeries);

	webMI.trigger.fire("valuechanged_series_color", {hex: curSeries.color});
	webMI.trigger.fire("valuechanged_series_borderColor", {hex: curSeries.options.borderColor});

	curSeries.options.borderWidth = typeof curSeries.options.borderWidth != "undefined" ? curSeries.options.borderWidth : 0;
	webMI.trigger.fire("setValue", curSeries.options.borderWidth, "series_borderWidth");

	webMI.trigger.fire("setChecked", curSeries.options.dataLabels.enabled, "series_dataLabels_enabled");
	webMI.trigger.fire("setValue", curSeries.options.dataLabels.format, "series_dataLabels_format");
	triggerEnabled = true;
}

//Write options
function setOptions(key, value, identifier) {
	if (value == "true") value = true;
	else if (value == "false") value = false;

	if (chart.chart.series[identifier]) {
		var optionsObj = configHandler.createConfigObject(key.slice(7, key.length), value);
		chart.chart.series[identifier].update(optionsObj);
		chart.control.updated();
	}
}

//Triggers for every input element
webMI.addOnload(function() {
	for (var key in inputDefaults)
		webMI.trigger.connect("valuechanged", function(e){ processInput(e.context, e.value, activeSeries) }, key);

	readOptions();
});

function processInput(key, value, identifier) {
	if (typeof key == "undefined" || typeof value == "undefined")
		return;

	if (!triggerEnabled)
		return;

	setOptions(key, value, identifier);
}
]]></script>
</svg>
