<?xml version='1.0' encoding='UTF-8' standalone='no'?>
<svg xmlns:atv="http://webmi.atvise.com/2007/svgext" xmlns:xlink="http://www.w3.org/1999/xlink" width="157" xmlns="http://www.w3.org/2000/svg" height="595" version="1.2">
 <defs/>
 <metadata>
  <atv:parameter valuetype="string" name="chartname" behavior="mandatory" defaultvalue="gti1"/>
  <atv:parameter valuetype="string" name="groupname" behavior="mandatory" defaultvalue="group1"/>
  <atv:parameter valuetype="address" name="GtiTrendCfg" behavior="mandatory" defaultvalue=""/>
  <atv:gridconfig enabled="true" width="2" gridstyle="lines" height="2"/>
  <atv:snapconfig enabled="true" width="1" height="1"/>
 </metadata>
 <g atv:refpy="0" transform="matrix(0.9814,0,0,0.9917,0,0)" atv:refpx="0" id="id_19" atv:insensitive="true">
  <rect atv:refpy="300" atv:refpx="80" fill="#0000ff" width="160.00" height="600.00" id="id_20" y="0" fill-opacity="0" x="0"/>
 </g>
 <script type="text/ecmascript"><![CDATA[webMI.trigger.connect("com.atvise.highchart_options", function(e) {
	webMI.gfx.setVisible("highcharts", !e.value);
	webMI.gfx.setVisible("configuration", e.value);
}, "toolbar");]]></script>
 <svg atv:refpy="297.5" transform="matrix(0.395,0,0,1.3475,0,0)" atv:refpx="79" width="400" height="400" xlink:href="SYSTEM.LIBRARY.PROJECT.OBJECTDISPLAYS.GtiCharts.NewCharts.highcharts_new" id="id_0" y="20.779" x="0">
  <atv:argument name="trendName" value="" prefix="chartname"/>
  <atv:argument name="trendGroup" value="" prefix="groupname"/>
  <atv:overwrite transform="matrix(2.5316,0,0,0.7421,0,0)" id="label" y="280.5" x="-91.5"/>
  <atv:overwrite transform="matrix(2.5316,0,0,0.7421,0,0)" width="156" height="537" id="border"/>
  <atv:overwrite transform="matrix(2.5316,0,0,0.7421,0,0)" width="158" height="539" id="id_3"/>
 </svg>
 <svg atv:refpy="574" atv:refpx="7" width="14" height="14" xlink:href="SYSTEM.LIBRARY.PROJECT.OBJECTDISPLAYS.GtiCharts.chart_but_back" id="id_1" y="567" x="0">
  <atv:argument name="chartname" value="" prefix="chartname"/>
 </svg>
 <svg atv:refpy="574" atv:refpx="21" width="14" height="14" xlink:href="SYSTEM.LIBRARY.PROJECT.OBJECTDISPLAYS.GtiCharts.chart_but_forward" id="id_2" y="567" x="14">
  <atv:argument name="chartname" value="" prefix="chartname"/>
 </svg>
 <svg atv:refpy="574" transform="matrix(0.4031,0,0,0.4634,0,0)" atv:refpx="92.5" width="320" height="30.21" xlink:href="SYSTEM.LIBRARY.PROJECT.OBJECTDISPLAYS.GtiCharts.NewCharts.start_end_time_new" id="id_9" y="1223.505" x="69.457">
  <atv:argument name="chartname" value="" prefix="chartname"/>
 </svg>
 <svg atv:refpy="587.958" transform="matrix(0.8063,0,0,0.4667,0,0)" atv:refpx="92.498" width="160" height="30" xlink:href="SYSTEM.LIBRARY.PROJECT.OBJECTDISPLAYS.GtiCharts.NewCharts.button_config_new" id="id_11" y="1244.911" x="34.727">
  <atv:argument name="chartname" value="" prefix="chartname"/>
 </svg>
 <svg atv:refpy="14" transform="matrix(0.1227,0,0,0.175,0,0)" atv:refpx="78.5" width="1280" height="160" xlink:href="SYSTEM.LIBRARY.PROJECT.OBJECTDISPLAYS.GtiCharts.NewCharts.legend_new" id="id_14" y="0" x="0">
  <atv:overwrite transform="matrix(8.1529,0,0,5.7143,0,0)" id="preview" y="21.5" x="18"/>
  <atv:argument name="_trendName" value="gti1"/>
 </svg>
 <svg atv:refpy="588" transform="matrix(0.4667,0,0,0.4667,0,0)" atv:refpx="14" width="60" height="30" xlink:href="SYSTEM.LIBRARY.PROJECT.OBJECTDISPLAYS.GtiCharts.NewCharts.toolbar_new" id="id_5" y="1245" x="0">
  <atv:argument name="chartname" prefix="chartname"/>
 </svg>
</svg>
