<?xml version='1.0' encoding='UTF-8' standalone='no'?>
<svg id="Ebene_1" xml:space="preserve" enable-background="new 0 0 72 72" x="0px" xmlns:atv="http://webmi.atvise.com/2007/svgext" y="0px" xmlns="http://www.w3.org/2000/svg" version="1.1" xmlns:xlink="http://www.w3.org/1999/xlink" width="40" height="40">
 <defs/>
 <metadata>
  <atv:parameter valuetype="color" behavior="optional" substitute="$SYMBOLCOLOR$" defaultvalue="#000000" name="symbolColor" desc="symbol color"/>
  <atv:gridconfig gridstyle="lines" enabled="false" width="20" height="20"/>
  <atv:snapconfig enabled="false" width="10" height="10"/>
 </metadata>
 <circle stroke-width="1" id="id_1" cy="20" r="2.085" cx="20" atv:refpx="20" atv:refpy="20" fill="$SYMBOLCOLOR$"/>
 <path stroke-width="1" d="M21.595,9.155L21.595,17.253C23.424,16.813 24.784,15.169 24.784,13.204C24.784,11.239 23.424,9.596 21.595,9.155" id="id_2" atv:refpx="23.19" atv:refpy="13.205" fill="$SYMBOLCOLOR$"/>
 <path stroke-width="1" d="M28.796,13.459L23.067,19.185C24.673,20.167 26.796,19.967 28.186,18.578C29.577,17.188 29.777,15.064 28.796,13.459" id="id_3" atv:refpx="26.238" atv:refpy="16.627" fill="$SYMBOLCOLOR$"/>
 <path stroke-width="1" d="M30.845,21.595L22.744,21.595C23.186,23.421 24.83,24.784 26.795,24.784C28.759,24.784 30.402,23.424 30.845,21.595" id="id_4" atv:refpx="26.796" atv:refpy="23.19" fill="$SYMBOLCOLOR$"/>
 <path stroke-width="1" d="M26.54,28.796L20.811,23.067C19.831,24.671 20.031,26.796 21.418,28.186C22.811,29.577 24.935,29.777 26.54,28.796" id="id_5" atv:refpx="23.372" atv:refpy="26.238" fill="$SYMBOLCOLOR$"/>
 <path stroke-width="1" d="M18.405,30.845L18.405,22.744C16.577,23.186 15.216,24.83 15.216,26.793C15.216,28.762 16.576,30.404 18.405,30.845" id="id_6" atv:refpx="16.81" atv:refpy="26.796" fill="$SYMBOLCOLOR$"/>
 <path stroke-width="1" d="M11.202,26.54L16.93,20.811C15.324,19.833 13.202,20.031 11.811,21.42C10.422,22.811 10.222,24.935 11.202,26.54" id="id_7" atv:refpx="13.763" atv:refpy="23.371" fill="$SYMBOLCOLOR$"/>
 <path stroke-width="1" d="M9.154,18.405L17.253,18.405C16.811,16.576 15.169,15.216 13.204,15.216C11.239,15.216 9.597,16.575 9.154,18.405" id="id_8" atv:refpx="13.204" atv:refpy="16.81" fill="$SYMBOLCOLOR$"/>
 <path stroke-width="1" d="M13.459,11.203L19.186,16.93C20.165,15.325 19.968,13.201 18.578,11.811C17.188,10.421 15.062,10.221 13.459,11.203" id="id_9" atv:refpx="16.628" atv:refpy="13.761" fill="$SYMBOLCOLOR$"/>
 <path stroke="none" stroke-width="1" d="M36.587,4.375L3.411,4.375L3.088,4.518L2.955,4.864L2.955,20L7.203,20L7.302,18.273L7.593,16.611L8.064,15.025L8.702,13.53L9.495,12.137L10.432,10.86L11.499,9.711L12.688,8.704L13.983,7.851L15.373,7.165L16.848,6.659L18.393,6.346L19.999,6.239L21.604,6.346L23.149,6.659L24.623,7.165L26.014,7.851L27.308,8.704L28.497,9.711L29.565,10.86L30.501,12.137L31.294,13.53L31.932,15.025L32.403,16.611L32.694,18.273L32.794,20L37.043,20L37.043,4.864L36.909,4.518Z" id="id_22" atv:refpx="20" atv:refpy="12.188" fill="$SYMBOLCOLOR$" fill-rule="evenodd"/>
 <path stroke="none" stroke-width="1" d="M36.587,35.111L3.412,35.111L3.089,34.969L2.956,34.623L2.956,19.486L7.204,19.486L7.303,21.213L7.594,22.875L8.064,24.461L8.703,25.956L9.495,27.349L10.433,28.627L11.5,29.775L12.689,30.782L13.983,31.634L15.373,32.32L16.848,32.827L18.393,33.14L19.999,33.248L21.603,33.14L23.149,32.827L24.622,32.32L26.014,31.634L27.308,30.782L28.497,29.775L29.565,28.627L30.501,27.349L31.294,25.956L31.932,24.461L32.403,22.875L32.692,21.213L32.794,19.486L37.043,19.486L37.043,34.623L36.909,34.969Z" id="id_23" atv:refpx="20" atv:refpy="27.299" fill="$SYMBOLCOLOR$" fill-rule="evenodd"/>
</svg>
