<?xml version='1.0' encoding='UTF-8' standalone='no'?>
<svg version="1.2" xmlns:atv="http://webmi.atvise.com/2007/svgext" width="800" height="120" xmlns="http://www.w3.org/2000/svg" xmlns:xlink="http://www.w3.org/1999/xlink">
 <defs>
  <linearGradient id="linear_21" y1="-7.18755e-05" y2="1.10539" x1="-0.0150911" gradientUnits="objectBoundingBox" x2="-0.0150911">
   <stop offset="0.462882096069869" stop-color="#cfcfcf"/>
   <stop offset="1" stop-color="#000000"/>
  </linearGradient>
 </defs>
 <desc>A small version of the default "top" display (e.g. for panel screens).</desc>
 <title>Topframe small (800x120)</title>
 <metadata>
  <atv:parameter defaultvalue="0" behavior="optional" desc="min alarm priority" group="Alarm" scope="" valuetype="number" name="minAlarmPriority"/>
  <atv:parameter defaultvalue="0" behavior="optional" desc="max alarm priority" group="Alarm" valuetype="number" name="maxAlarmPriority"/>
  <atv:gridconfig width="10" enabled="true" height="10" gridstyle="lines"/>
  <atv:snapconfig width="5" enabled="true" height="5"/>
 </metadata>
 <path id="id_33" d="M0,0" fill="#000088" stroke="#0000ff" atv:refpy="59.436" stroke-width="2" atv:refpx="355.987"/>
 <path id="id_10" d="M801,99.166C801,99.166 801,119 781,119C761,119 20,119 20,119C20,119 0,119 0,99.166C0,79.333 0,0 0,0C0,0 801,0 801,0C801,0 801,99.166 801,99.166" fill="url(#linear_21)" stroke="#c8c8c8" atv:refpy="59.501" stroke-width="1" atv:refpx="640"/>
 <svg id="id_29" width="80" transform="matrix(0.5625,0,0,1.5,0,0)" atv:refpy="37.501" atv:refpx="726.498" height="30" y="10" x="1251.556" xlink:href="SYSTEM.LIBRARY.ATVISE.OBJECTDISPLAYS.Chrome.button_open_display">
  <atv:argument value="SYSTEM.LIBRARY.ATVISE.OBJECTDISPLAYS.Chrome.hmi.historylist" name="display"/>
  <atv:argument value="SYSTEM.LIBRARY.ATVISE.OBJECTDISPLAYS.Symbols.20x20.history" name="symbol"/>
  <atv:argument value="SYSTEM.LIBRARY.ATVISE.OBJECTDISPLAYS.Symbols.20x20.history" name="symbolPressed"/>
  <atv:argument value="#ffffff" name="symbolColor"/>
  <atv:argument value="hidden" name="visibilityLabel"/>
  <atv:argument value="inherit" name="visibilitySymbol"/>
  <atv:argument value="-999999" name="tabIndex"/>
  <atv:overwrite id="button_symbol_pressed" transform="matrix(1.7778,0,0,0.6667,0,0)" y="12.5" x="12.5"/>
  <atv:overwrite id="button_stroke" width="37" transform="matrix(1.7778,0,0,0.6667,0,0)" height="37"/>
  <atv:overwrite id="button_label" transform="matrix(1.7778,0,0,0.6667,0,0)" x="22.5" y="27"/>
  <atv:overwrite id="button_symbol" transform="matrix(1.7778,0,0,0.6667,0,0)" x="12.5" y="12.5"/>
  <atv:overwrite id="button_bg" width="37" transform="matrix(1.7778,0,0,0.6667,0,0)" height="37"/>
  <atv:overwrite id="id_2" width="39.5" transform="matrix(1.7778,0,0,0.6667,0,0)" height="39.5"/>
  <atv:overwrite id="id_0" width="44.5" transform="matrix(1.7778,0,0,0.6667,0,0)" height="44.5"/>
 </svg>
 <svg id="id_22" width="160" atv:refpy="87.5" atv:refpx="86" height="45" y="65" x="6" xlink:href="SYSTEM.LIBRARY.ATVISE.OBJECTDISPLAYS.Chrome.hmi.button_group_display">
  <atv:argument value="#000000" name="symbolColor"/>
  <atv:argument value="#ffffff" name="symbolColor2"/>
 </svg>
 <svg id="id_13" width="160" atv:refpy="80" atv:refpx="219.613" height="45" y="65" x="168" xlink:href="SYSTEM.LIBRARY.ATVISE.OBJECTDISPLAYS.Chrome.hmi.button_group_zoom"/>
 <svg id="id_15" width="160" atv:refpy="87.5" atv:refpx="410" height="45" y="65" x="330" xlink:href="SYSTEM.LIBRARY.ATVISE.OBJECTDISPLAYS.Chrome.hmi.button_group_alarm"/>
 <svg id="id_11" width="30" transform="matrix(1.5,0,0,1.5,0,0)" atv:refpy="87.498" atv:refpx="708.998" height="30" y="43.333" x="457.667" xlink:href="SYSTEM.LIBRARY.ATVISE.OBJECTDISPLAYS.Chrome.hmi.button_login">
  <atv:overwrite id="button_stroke" width="37.5" transform="matrix(0.6667,0,0,0.6667,0,0)" height="37.5"/>
  <atv:overwrite id="button_symbol" transform="matrix(0.6667,0,0,0.6667,0,0)" x="12.5" y="12.5"/>
  <atv:overwrite id="button_symbol_pressed" transform="matrix(0.6667,0,0,0.6667,0,0)" x="12.5" y="12.5"/>
  <atv:overwrite id="button_bg" width="37.5" transform="matrix(0.6667,0,0,0.6667,0,0)" height="37.5"/>
  <atv:overwrite id="id_3" width="39.5" transform="matrix(0.6667,0,0,0.6667,0,0)" height="39.5"/>
  <atv:overwrite id="id_0" width="44.5" transform="matrix(0.6667,0,0,0.6667,0,0)" height="44.5"/>
 </svg>
 <svg id="id_12" width="45" atv:refpy="87.5" atv:refpx="662" height="45" y="65" x="639.5" xlink:href="SYSTEM.LIBRARY.ATVISE.OBJECTDISPLAYS.Chrome.hmi.button_switch_language">
  <atv:argument value="#ffffff" name="symbolColor"/>
 </svg>
 <rect id="id_1" ry="5" width="696" fill="#000000" stroke="#b1b1b1" atv:refpy="61.731" stroke-width="1" atv:refpx="3050.497" height="45" y="15" x="6" rx="4.971"/>
 <svg id="id_16" width="650" atv:refpy="38.955" atv:refpx="512.003" height="37.91" y="20" x="46.5" xlink:href="SYSTEM.LIBRARY.ATVISE.OBJECTDISPLAYS.Chrome.hmi.alarmlog_1row">
  <atv:argument value="#ffffff" name="fontColor"/>
  <atv:argument value="#FFFFFF" name="symbolColor"/>
  <atv:argument prefix="minAlarmPriority" name="minAlarmPriority"/>
  <atv:argument prefix="maxAlarmPriority" name="maxAlarmPriority"/>
 </svg>
 <rect id="id_5" ry="5" width="145" fill="#000000" stroke="#b1b1b1" atv:refpy="95.84" stroke-width="1" atv:refpx="980.655" height="45" y="65" x="492.5" rx="5"/>
 <text id="username_label" font-weight="bold" font-size="14" fill="#ffffff" atv:refpy="-0.261" atv:refpx="296.061" font-family="Courier New" y="82" x="632" text-anchor="end"/>
 <text id="id_20" font-weight="bold" font-size="14" fill="#ffffff" atv:refpy="-207.5" atv:refpx="-1325.289" font-family="Courier New" y="82" x="498">T{User}:</text>
 <text id="language_label" font-weight="bold" font-size="14" fill="#ffffff" atv:refpy="17.739" atv:refpx="-715.528" font-family="Courier New" y="100" x="632" text-anchor="end">T{}</text>
 <text id="id_25" font-weight="bold" font-size="14" fill="#ffffff" atv:refpy="-9.5" atv:refpx="-1533.906" font-family="Courier New" y="100" x="498">T{Language}:</text>
 <g atv:refpx="23.658" atv:refpy="37.521" id="logo_clickarea">
  <svg width="80" x="35.516" atv:refpx="23.592" atv:refpy="37.46" y="79.878" transform="matrix(0.313,0,0,0.313,0,0)" height="80" xlink:href="SYSTEM.LIBRARY.ATVISE.OBJECTDISPLAYS.Symbols.atvise_logo" id="atvise_logo"/>
  <rect stroke-width="0" fill="#000000" width="25" x="11.2" atv:refpx="246.1" fill-opacity="0.0001" y="25" atv:refpy="52.1" stroke="none" height="25" id="logo_click"/>
 </g>
 <g atv:refpx="767" atv:refpy="62" visibility="hidden" id="redu_info">
  <g atv:refpx="767.296" atv:refpy="85.16" transform="matrix(1,0,0,1,-375.087,-12.235)" id="id_36">
   <text fill="#d4d4d4" x="1133.387" font-size="8" atv:refpx="404.213" text-anchor="start" atv:refpy="66.265" y="94.235" font-family="Arial" id="id_31">T{STATUS}:</text>
   <text fill="#d4d4d4" x="1127.087" font-size="10" atv:refpx="20.326" text-anchor="start" atv:refpy="64.085" y="106.734" font-family="Arial" font-weight="bold" id="redu_status"/>
  </g>
  <text id="redu_role" font-weight="bold" font-size="26" fill="#d4d4d4" atv:refpy="207.328" atv:refpx="1318.888" font-family="Arial" y="94.5" x="736"/>
  <svg id="id_43" width="80" transform="matrix(0.5625,0,0,1.5,0,0)" atv:refpy="154.828" atv:refpx="1357.659" height="30" y="10" x="1335.111" xlink:href="SYSTEM.LIBRARY.ATVISE.OBJECTDISPLAYS.Chrome.button_open_display">
   <atv:argument value="SYSTEM.LIBRARY.ATVISE.OBJECTDISPLAYS.Chrome.redundancy.status" name="display"/>
   <atv:argument value="SYSTEM.LIBRARY.ATVISE.OBJECTDISPLAYS.Symbols.20x20.info" name="symbol"/>
   <atv:argument value="SYSTEM.LIBRARY.ATVISE.OBJECTDISPLAYS.Symbols.20x20.info" name="symbolPressed"/>
   <atv:argument value="#ffffff" name="symbolColor"/>
   <atv:argument value="hidden" name="visibilityLabel"/>
   <atv:argument value="inherit" name="visibilitySymbol"/>
   <atv:argument value="-999999" name="tabIndex"/>
   <atv:overwrite id="button_symbol_pressed" transform="matrix(1.7778,0,0,0.6667,0,0)" y="12.5" x="12.5"/>
   <atv:overwrite id="button_stroke" width="37" transform="matrix(1.7778,0,0,0.6667,0,0)" height="37"/>
   <atv:overwrite id="button_label" transform="matrix(1.7778,0,0,0.6667,0,0)" x="22.5" y="27"/>
   <atv:overwrite id="button_symbol" transform="matrix(1.7778,0,0,0.6667,0,0)" x="12.5" y="12.5"/>
   <atv:overwrite id="button_bg" width="37" transform="matrix(1.7778,0,0,0.6667,0,0)" height="37"/>
   <atv:overwrite id="id_2" width="39.5" transform="matrix(1.7778,0,0,0.6667,0,0)" height="39.5"/>
   <atv:overwrite id="id_0" width="44.5" transform="matrix(1.7778,0,0,0.6667,0,0)" height="44.5"/>
  </svg>
 </g>
 <script type="text/ecmascript"><![CDATA[var tabHandler = webMI.callExtension("SYSTEM.LIBRARY.ATVISE.QUICKDYNAMICS.Tab Handler");

webMI.addEvent("logo_clickarea", "click", function(e) {
var id = "logo_clickarea";
var value = true;
return function(value) {
	var names = tabHandler.getParentIFrameNames();
	for (var i=0;i<names.length;i++){
		var NN;
		webMI.trigger.fire("com.atvise.getDefaultDisplay_"+(NN=names[i]),function(display,url){
			if (url != undefined)
				webMI.display.openUrl(url, webMI.query,NN);
			else if (display != undefined)
				webMI.display.openDisplay(display, webMI.query,NN);
		});
	}
} (value);
});

webMI.addEvent(webMI.data, "clientvariableschange", function(e) {
	webMI.gfx.setText("username_label", (e.username) ? e.username : "");
});

webMI.addOnload(function() {
	var reduinfoInitialized = false;
	webMI.addEvent(webMI.data, "serverstatechange", function() {
		if (reduinfoInitialized)
			return;

		reduinfoInitialized = true;
		webMI.callExtension("SYSTEM.LIBRARY.ATVISE.QUICKDYNAMICS.Redundancy PopUp", {"display":"SYSTEM.LIBRARY.ATVISE.OBJECTDISPLAYS.Chrome.redundancy.warning_dialog"});
		webMI.gfx.setVisible("redu_info", null);
		webMI.data.subscribe("AGENT.REDUNDANCY.role", function(e) {
			webMI.gfx.setText("redu_role", e.value.charAt(0));
		});

		webMI.data.subscribe("AGENT.REDUNDANCY.status", function(e) {
			e.value = getStatusTranslation(e.value);
			webMI.gfx.setText("redu_status", e.value);
		});
	});
});

function getStatusTranslation(text) {
	var statustext;
	switch(text) {
		case "Active":
			statustext = "T{Active}";
			break;
		case "Passive":
			statustext = "T{Passive}";
			break;
		case "SOP":
			statustext = "T{SOP}";
			break;
		case "SNOP":
			statustext = "T{SNOP}";
			break;
		default:
			statustext = text;
	}

	return statustext;
}

]]></script>
</svg>
