<?xml version='1.0' encoding='UTF-8' standalone='no'?>
<svg width="40" x="0px" version="1.1" y="0px" xmlns="http://www.w3.org/2000/svg" height="40" xmlns:xlink="http://www.w3.org/1999/xlink" id="Ebene_1" enable-background="new 0 0 16 16" xml:space="preserve" xmlns:atv="http://webmi.atvise.com/2007/svgext">
 <defs>
  <linearGradient id="SVGID_1_" y1="0.136603" x1="-0.290145" y2="0.639639" gradientUnits="objectBoundingBox" x2="0.792871">
   <stop offset="0" style="stop-color:#9D9D9C"/>
   <stop offset="1" style="stop-color:#3C3C3B"/>
  </linearGradient>
  <linearGradient id="SVGID_2_" y1="0.0373166" x1="0.0373956" y2="1.06773" gradientUnits="objectBoundingBox" x2="0.933879">
   <stop offset="0" style="stop-color:#9D9D9C"/>
   <stop offset="1" style="stop-color:#3C3C3B"/>
  </linearGradient>
 </defs>
 <metadata>
  <atv:parameter desc="symbol color" valuetype="color" substitute="$SYMBOLCOLOR$" behavior="optional" name="symbolColor" defaultvalue="#000000"/>
 </metadata>
 <path fill="$SYMBOLCOLOR$" id="id_0" atv:refpx="36.122" atv:refpy="25.163" stroke-width="1.117" d="M32.532,17.38L32.506,32.941L32.627,32.941L39.714,17.646C39.781,17.499 39.673,17.384 39.476,17.384"/>
 <path fill="$SYMBOLCOLOR$" id="id_1" atv:refpx="16.065" atv:refpy="20.003" stroke-width="1.117" d="M30.771,10.496L14.651,10.496L14.651,7.249C14.651,7.041 14.482,6.874 14.271,6.874L3.237,6.874C3.029,6.874 2.859,7.041 2.859,7.249L2.859,10.496L1.351,10.496C1.142,10.496 0.976,10.665 0.976,10.874L0.976,32.748C0.976,32.958 1.142,33.125 1.351,33.125L30.771,33.125C30.984,33.125 31.151,32.958 31.151,32.748L31.151,10.874C31.151,10.665 30.984,10.496 30.771,10.496"/>
</svg>
