<?xml version='1.0' encoding='UTF-8' standalone='no'?>
<svg xmlns:xlink="http://www.w3.org/1999/xlink" xmlns="http://www.w3.org/2000/svg" version="1.2" height="50" width="50" xmlns:atv="http://webmi.atvise.com/2007/svgext">
 <defs/>
 <metadata>
  <atv:gridconfig height="20" width="20" gridstyle="lines" enabled="false"/>
  <atv:snapconfig height="10" width="10" enabled="false"/>
 </metadata>
 <g atv:refpy="25" transform="matrix(200,0,0,200,0,0)" id="id_2" atv:refpx="25">
  <svg atv:refpy="0.125" id="id_1" atv:refpx="0.125">
   <g>
    <g id="shape">
     <path d="M100,58.13H75c-4.364,0-10.122-1.822-13.692-4.333L30.736,32.29c-0.906-0.637-3.379-1.42-4.486-1.42H0&#xd;&#xa;&#x9;&#x9;&#x9;&#x9;&#x9;v-16h26.25c4.365,0,10.124,1.823,13.693,4.334L70.514,40.71c0.905,0.637,3.379,1.42,4.486,1.42h25V58.13z" fill="#999"/>
    </g>
    <g id="dark">
     <path d="M100,57.131H75c-4.181,0-9.697-1.746-13.117-4.151L31.312,31.472c-1.064-0.749-3.76-1.602-5.062-1.602H0&#xd;&#xa;&#x9;&#x9;&#x9;&#x9;v-14h26.25c4.182,0,9.698,1.746,13.118,4.152l30.57,21.506c1.064,0.749,3.762,1.602,5.063,1.602h25V57.131z" fill="#808080"/>
    </g>
    <g id="light">
     <path d="M100,55.131H75c-3.752,0-8.896-1.629-11.967-3.788L32.462,29.836c-1.411-0.993-4.487-1.966-6.212-1.966H0&#xd;&#xa;&#x9;&#x9;&#x9;&#x9;v-10h26.25c3.753,0,8.898,1.628,11.967,3.788l30.57,21.507c1.411,0.992,4.488,1.966,6.213,1.966h25V55.131z" fill="#b2b2b2"/>
    </g>
    <g id="hlight">
     <path d="M100,53.631H75c-3.481,0-8.255-1.512-11.104-3.515L33.326,28.609c-1.666-1.172-5.039-2.24-7.076-2.24H0v-7&#xd;&#xa;&#x9;&#x9;&#x9;&#x9;h26.25c3.482,0,8.256,1.511,11.104,3.515l30.57,21.506c1.666,1.172,5.039,2.24,7.076,2.24h25V53.631z" fill="#ccc"/>
    </g>
    <g id="frame">
     <rect height="100" width="100" fill="none"/>
    </g>
   </g>
  </svg>
 </g>
</svg>
