<?xml version='1.0' encoding='UTF-8' standalone='no'?>
<svg xmlns:dc="http://purl.org/dc/elements/1.1/" xmlns="http://www.w3.org/2000/svg" xmlns:rdf="http://www.w3.org/1999/02/22-rdf-syntax-ns#" height="156.71" xmlns:svg="http://www.w3.org/2000/svg" xmlns:cc="http://creativecommons.org/ns#" version="1.2" width="156.71" xmlns:xlink="http://www.w3.org/1999/xlink" xmlns:atv="http://webmi.atvise.com/2007/svgext">
 <defs/>
 <metadata>
  <atv:gridconfig enabled="false" height="20" width="20" gridstyle="lines"/>
  <atv:snapconfig enabled="false" height="10" width="10"/>
 </metadata>
 <g atv:refpy="78.354" id="id_1" atv:refpx="78.354">
  <g atv:refpy="78.354" id="layer1" transform="translate(40.934821,22.036012)" atv:refpx="78.354">
   <g atv:refpy="56.318" id="shape" transform="matrix(2.701878,0,0,2.7018781,-40.934821,-22.036012)" atv:refpx="37.42">
    <path fill="#0080d5" atv:refpy="29" id="path47" d="M34,58L0,58L0,42L34,42C38.411,42 42,38.411 42,34L42,0L58,0L58,34C58,47.234 47.234,58 34,58" atv:refpx="29"/>
   </g>
   <g atv:refpy="54.968" id="dark" transform="matrix(2.701878,0,0,2.7018781,-40.934821,-22.036012)" atv:refpx="36.069">
    <path fill="#005f9c" atv:refpy="28.5" id="path50" d="M34,57L0,57L0,43L34,43C38.962,43 43,38.962 43,34L43,0L57,0L57,34C57,46.682 46.682,57 34,57" atv:refpx="28.5"/>
   </g>
   <g atv:refpy="52.266" id="light" transform="matrix(2.701878,0,0,2.7018781,-40.934821,-22.036012)" atv:refpx="33.367">
    <path fill="#2098e8" atv:refpy="27.5" id="path53" d="M34,55L0,55L0,45L34,45C40.065,45 45,40.065 45,34L45,0L55,0L55,34C55,45.58 45.58,55 34,55" atv:refpx="27.5"/>
   </g>
   <g atv:refpy="50.239" id="hlight" transform="matrix(2.701878,0,0,2.7018781,-40.934821,-22.036012)" atv:refpx="31.34">
    <path fill="#82ccff" atv:refpy="26.75" id="path56" d="M34,53.5L0,53.5L0,46.5L34,46.5C40.893,46.5 46.5,40.893 46.5,34L46.5,0L53.5,0L53.5,34C53.5,44.752 44.752,53.5 34,53.5" atv:refpx="26.75"/>
   </g>
  </g>
 </g>
</svg>
