<?xml version='1.0' encoding='UTF-8' standalone='no'?>
<svg width="125" version="1.2" xmlns="http://www.w3.org/2000/svg" height="30" xmlns:xlink="http://www.w3.org/1999/xlink" xmlns:atv="http://webmi.atvise.com/2007/svgext">
 <defs>
  <linearGradient id="linear_0" y1="0.0151344" x1="1.00116" y2="0.938184" gradientUnits="objectBoundingBox" x2="1.00116">
   <stop offset="0" stop-color="#d2d2d6"/>
   <stop offset="0.3318385650224215" stop-color="#ffffff"/>
   <stop offset="0.3856502242152466" stop-color="#2c2c3c"/>
   <stop offset="1" stop-color="#adadad"/>
  </linearGradient>
  <linearGradient id="linear_10" y1="0.0447761" x1="0.239739" y2="0.955818" gradientUnits="objectBoundingBox" x2="0.239739">
   <stop offset="0" stop-color="#000000"/>
   <stop offset="1" stop-color="#ffffff"/>
  </linearGradient>
 </defs>
 <title>Display Time Advanced</title>
 <desc>Displays the current client time (hour, minutes, seconds and milliseconds).</desc>
 <metadata>
  <atv:parameter valuetype="address" behavior="optional" name="base"/>
  <atv:parameter desc="update time interval" valuetype="number" behavior="optional" name="updateTime"/>
  <atv:gridconfig width="2" enabled="true" height="2" gridstyle="lines"/>
  <atv:snapconfig width="1" enabled="false" height="1"/>
 </metadata>
 <rect width="124.5" x="0.25" y="0.25" fill="url(#linear_0)" atv:dynamic="true" rx="3" height="29.5" ry="3" stroke="#646464" id="id_0" atv:refpx="62.5" stroke-width="0.5" atv:refpy="15.25"/>
 <rect width="118.024" x="3.393" y="4.241" fill="url(#linear_10)" rx="2.92" height="21.203" ry="3" stroke="none" id="id_7" atv:refpx="78.526" stroke-width="3.426" atv:refpy="-143.184"/>
 <path fill="#ffffff" stroke="#000000" id="id_10" atv:refpx="42.046" stroke-width="1.713" atv:refpy="128.437" d="M5.816,6.538C5.816,6.538 5.11,11.177 5.11,14.53C5.11,17.882 5.816,23.305 5.816,23.305C5.816,23.305 118.995,23.305 118.995,23.305C118.995,23.305 119.699,18.25 119.699,14.897C119.699,11.543 118.995,6.538 118.995,6.538C118.995,6.538 5.816,6.538 5.816,6.538"/>
 <path fill="#000000" fill-rule="evenodd" stroke="none" id="id_17" atv:refpx="62.348" stroke-width="2" atv:refpy="14.975" d="M15.567,6.949L16.242,6.949L16.242,22.422L26.057,22.422L26.057,6.949L33.2,6.949L33.2,22.422L43.009,22.422L43.009,6.949L43.688,6.949L43.688,22.422L53.506,22.422L53.506,6.949L60.649,6.949L60.649,22.422L70.439,22.422L70.439,6.949L71.111,6.949L71.111,22.422L80.955,22.422L80.955,6.949L88.744,6.949L88.744,22.422L98.653,22.422L98.653,6.949L99.328,6.949L99.328,22.422L108.457,22.422L108.457,6.949L109.126,6.949L109.126,22.948L15.567,22.948Z"/>
 <text x="16.08" y="20" fill="#000000" font-family="Courier" text-anchor="middle" id="h" font-weight="bold" atv:refpx="16.08" atv:refpy="16" font-size="16">00</text>
 <text x="43.552" y="20" fill="#000000" font-family="Courier" text-anchor="middle" id="m" font-weight="bold" atv:refpx="43.552" atv:refpy="16" font-size="16">00</text>
 <text x="70.97" y="20" fill="#000000" font-family="Courier" text-anchor="middle" id="s" font-weight="bold" atv:refpx="70.97" atv:refpy="16" font-size="16">00</text>
 <text x="103.7" y="20" fill="#000000" font-family="Courier" text-anchor="middle" id="ms" font-weight="bold" atv:refpx="103.7" atv:refpy="16" font-size="16">000</text>
 <text x="29.524" y="20.126" fill="#ffffff" font-family="Arial" text-anchor="middle" id="id_3" atv:refpx="29.524" atv:refpy="14.126" font-size="16">:</text>
 <text x="56.971" y="20.126" fill="#ffffff" font-family="Arial" text-anchor="middle" id="id_4" atv:refpx="56.971" atv:refpy="14.126" font-size="16">:</text>
 <text x="84.697" y="20.286" fill="#ffffff" font-family="Arial" text-anchor="middle" id="id_5" atv:refpx="84.697" atv:refpy="14.286" font-size="16">.</text>
 <script type="text/ecmascript"><![CDATA[var base = (webMI.query["base"] == undefined) ? "" : webMI.query["base"];
var updateTime = (webMI.query["updateTime"] == undefined) ? 30000 : parseInt(webMI.query["updateTime"],10);

function setTime(time) {
	var displayedTime = (time == undefined) ? new Date() : new Date(time);

	var h = displayedTime.getHours();
	var m = displayedTime.getMinutes();
	var s = displayedTime.getSeconds();
	var ms = displayedTime.getMilliseconds();

	webMI.gfx.setText("h", webMI.sprintf("%02d", h));
	webMI.gfx.setText("m", webMI.sprintf("%02d", m));
	webMI.gfx.setText("s", webMI.sprintf("%02d", s));
	webMI.gfx.setText("ms", webMI.sprintf("%03d", ms));
}

if (base != "") {
	webMI.data.subscribe(base, function(e) {
		setTime(e.value);
	});
}
else {
	setTime();
	var updateInterval = setInterval(function() { setTime(); }, updateTime);
}]]></script>
</svg>
