<?xml version='1.0' encoding='UTF-8' standalone='no'?>
<svg version="1.2" xmlns:xlink="http://www.w3.org/1999/xlink" height="330" xmlns:atv="http://webmi.atvise.com/2007/svgext" xmlns="http://www.w3.org/2000/svg" width="560">
 <title>Configuration - Bar/Column</title>
 <defs/>
 <metadata>
  <atv:gridconfig gridstyle="lines" height="20" enabled="true" width="20"/>
  <atv:snapconfig height="5" enabled="true" width="5"/>
 </metadata>
 <text atv:refpy="233.5" font-family="Arial" id="id_18" y="238" font-size="12" atv:refpx="130" text-anchor="end" fill="#000000" x="157.5">T{Labels}:</text>
 <text atv:refpy="127.5" font-family="Arial" id="id_40" y="132" font-size="12" atv:refpx="113.5" text-anchor="end" fill="#000000" x="155.5">T{Border color}:</text>
 <text atv:refpy="198.5" font-family="Arial" id="id_41" y="203" font-size="12" atv:refpx="103" text-anchor="end" fill="#000000" x="157.5">T{Border line width}:</text>
 <svg atv:refpy="132" id="series_borderColor" y="113" xlink:href="SYSTEM.LIBRARY.ATVISE.OBJECTDISPLAYS.Steelblue.picker_color" transform="matrix(0.625,0,0,1,0,0)" atv:refpx="230.002" height="30" width="160" x="288">
  <atv:argument value="series_borderColor" name="name"/>
  <atv:argument value="30" name="tabIndex"/>
  <atv:overwrite id="id_1" transform="matrix(1.6,0,0,1,0,0)" x="74.75"/>
  <atv:overwrite id="button_bg" transform="matrix(1.6,0,0,1,0,0)" x="73.5"/>
  <atv:overwrite id="button_stroke" y="2.75" transform="matrix(1.6,0,0,1,0,0)" height="24.5" width="24.5" x="72.5"/>
  <atv:overwrite id="input_label" transform="matrix(1.6,0,0,1,0,0)" x="63.5"/>
  <atv:overwrite id="input_bg" transform="matrix(1.6,0,0,1,0,0)" width="66"/>
  <atv:overwrite id="id_2" transform="matrix(1.6,0,0,1,0,0)" width="68"/>
  <atv:overwrite id="id_0" transform="matrix(1.6,0,0,1,0,0)" width="99.5"/>
 </svg>
 <svg atv:refpy="204" id="series_borderWidth" y="184" xlink:href="SYSTEM.LIBRARY.ATVISE.OBJECTDISPLAYS.Steelblue.picker_value" transform="matrix(0.625,0,0,1,0,0)" atv:refpx="230" height="30" width="160" x="288">
  <atv:argument value="32" name="tabIndex"/>
  <atv:argument value="0" name="min"/>
  <atv:overwrite id="clickarea_dec" transform="matrix(1.6,0,0,1,-96,0)"/>
  <atv:overwrite id="clickarea_inc" transform="matrix(1.6,0,0,1,-96,0)"/>
  <atv:overwrite id="input_label" transform="matrix(1.6,0,0,1,0,0)" x="65.5"/>
  <atv:overwrite id="input_bg" transform="matrix(1.6,0,0,1,0,0)" width="66"/>
  <atv:overwrite id="id_2" transform="matrix(1.6,0,0,1,0,0)" width="68"/>
  <atv:overwrite id="id_0" transform="matrix(1.6,0,0,1,0,0)" width="99.5"/>
 </svg>
 <text atv:refpy="197.5" font-family="Arial" id="id_48" y="202" font-size="12" atv:refpx="314.5" text-anchor="start" fill="#000000" x="298.5">[T{px}]</text>
 <text atv:refpy="86.5" font-family="Arial" id="id_30" y="91" font-size="12" atv:refpx="50.84" font-weight="bold" text-anchor="start" fill="#000000" x="24.5">T{Styling}:</text>
 <text atv:refpy="163.5" font-family="Arial" id="id_0" y="168" font-size="12" atv:refpx="124" text-anchor="end" fill="#000000" x="155.5">T{Fill color}:</text>
 <svg atv:refpy="167" id="series_color" y="148" xlink:href="SYSTEM.LIBRARY.ATVISE.OBJECTDISPLAYS.Steelblue.picker_color" transform="matrix(0.625,0,0,1,0,0)" atv:refpx="230.002" height="30" width="160" x="288">
  <atv:argument value="series_color" name="name"/>
  <atv:argument value="31" name="tabIndex"/>
  <atv:overwrite id="id_1" transform="matrix(1.6,0,0,1,0,0)" x="74.75"/>
  <atv:overwrite id="button_bg" transform="matrix(1.6,0,0,1,0,0)" x="73.5"/>
  <atv:overwrite id="button_stroke" y="2.75" transform="matrix(1.6,0,0,1,0,0)" height="24.5" width="24.5" x="72.5"/>
  <atv:overwrite id="input_label" transform="matrix(1.6,0,0,1,0,0)" x="63.5"/>
  <atv:overwrite id="input_bg" transform="matrix(1.6,0,0,1,0,0)" width="66"/>
  <atv:overwrite id="id_2" transform="matrix(1.6,0,0,1,0,0)" width="68"/>
  <atv:overwrite id="id_0" transform="matrix(1.6,0,0,1,0,0)" width="99.5"/>
 </svg>
 <svg atv:refpy="268" id="series_dataLabels_format" y="253" xlink:href="SYSTEM.LIBRARY.ATVISE.OBJECTDISPLAYS.Steelblue.in_out_value" transform="matrix(1.9,0,0,1,0,0)" atv:refpx="332.998" height="30" width="160" x="95.263">
  <atv:argument value="String" name="validation"/>
  <atv:argument value="34" name="tabIndex"/>
  <atv:overwrite id="input_label" transform="matrix(0.5263,0,0,1,0,0)" x="295.5"/>
  <atv:overwrite id="blinking_frame" transform="matrix(0.5263,0,0,1,0,0)" width="296"/>
  <atv:overwrite id="input_bg" transform="matrix(0.5263,0,0,1,0,0)" width="296"/>
  <atv:overwrite id="id_2" transform="matrix(0.5263,0,0,1,0,0)" width="298.5"/>
  <atv:overwrite id="id_0" transform="matrix(0.5263,0,0,1,0,0)" width="303.5"/>
 </svg>
 <text atv:refpy="268.5" font-family="Arial" id="id_6" y="273" font-size="12" atv:refpx="113.5" text-anchor="end" fill="#000000" x="156.5">T{Label format}:</text>
 <svg atv:refpy="235" id="series_dataLabels_enabled" y="219" xlink:href="SYSTEM.LIBRARY.ATVISE.OBJECTDISPLAYS.Steelblue.checkbox" transform="matrix(0.625,0,0,1,0,0)" atv:refpx="230" height="30" width="160" x="289.6">
  <atv:argument value="true" name="valueOn"/>
  <atv:argument value="true" name="outputValueOn"/>
  <atv:argument value="false" name="outputValueOff"/>
  <atv:argument value="T{visible}" name="label"/>
  <atv:argument value="33" name="tabIndex"/>
  <atv:overwrite id="checkbox_symbol" transform="matrix(1.6,0,0,1,0,0)"/>
  <atv:overwrite id="checkbox_bg2" transform="matrix(1.6,0,0,1,0,0)"/>
  <atv:overwrite id="id_5" transform="matrix(1.6,0,0,1,0,0)"/>
  <atv:overwrite id="checkbox_item" transform="matrix(1.6,0,0,1,0,0)" x="92.5"/>
  <atv:overwrite id="checkbox_bg" transform="matrix(1.6,0,0,1,0,0)" width="66"/>
  <atv:overwrite id="id_2" transform="matrix(1.6,0,0,1,0,0)" width="68"/>
  <atv:overwrite id="id_0" transform="matrix(1.6,0,0,1,0,0)" width="99.5"/>
 </svg>
 <text atv:refpy="36.5" font-family="Arial" id="id_4" y="41" font-size="12" atv:refpx="102.5" text-anchor="end" fill="#000000" x="153.5">T{Related x/y-axis}:</text>
 <svg atv:refpy="35" id="series_xAxis" y="20" xlink:href="SYSTEM.LIBRARY.ATVISE.OBJECTDISPLAYS.Steelblue.combobox" transform="matrix(0.95,0,0,1,0,0)" atv:refpx="259" height="30" width="160" x="189.474">
  <atv:overwrite id="id_3" transform="matrix(1.0526,0,0,1,0,0)" x="126.75"/>
  <atv:overwrite id="button_bg" transform="matrix(1.0526,0,0,1,0,0)" x="125.5"/>
  <atv:overwrite id="button_stroke" transform="matrix(1.0526,0,0,1,0,0)" x="125.5"/>
  <atv:overwrite id="id_5" transform="matrix(1.0526,0,0,1,0,0)" x="124.5"/>
  <atv:overwrite id="combobox_label" transform="matrix(1.0526,0,0,1,0,0)" x="117.5"/>
  <atv:overwrite id="combobox_bg" transform="matrix(1.0526,0,0,1,0,0)" width="118"/>
  <atv:overwrite id="id_2" transform="matrix(1.0526,0,0,1,0,0)" width="120"/>
  <atv:overwrite id="combobox_stroke" transform="matrix(1.0526,0,0,1,0,0)" width="151.5"/>
 </svg>
 <svg atv:refpy="35" id="series_yAxis" y="20" xlink:href="SYSTEM.LIBRARY.ATVISE.OBJECTDISPLAYS.Steelblue.combobox" transform="matrix(0.95,0,0,1,0,0)" atv:refpx="414" height="30" width="160" x="354.737">
  <atv:overwrite id="id_3" transform="matrix(1.0526,0,0,1,0,0)" x="126.75"/>
  <atv:overwrite id="button_bg" transform="matrix(1.0526,0,0,1,0,0)" x="125.5"/>
  <atv:overwrite id="button_stroke" transform="matrix(1.0526,0,0,1,0,0)" x="125.5"/>
  <atv:overwrite id="id_5" transform="matrix(1.0526,0,0,1,0,0)" x="124.5"/>
  <atv:overwrite id="combobox_label" transform="matrix(1.0526,0,0,1,0,0)" x="117.5"/>
  <atv:overwrite id="combobox_bg" transform="matrix(1.0526,0,0,1,0,0)" width="118"/>
  <atv:overwrite id="id_2" transform="matrix(1.0526,0,0,1,0,0)" width="120"/>
  <atv:overwrite id="combobox_stroke" transform="matrix(1.0526,0,0,1,0,0)" width="151.5"/>
 </svg>
 <script type="text/ecmascript"><![CDATA[var inputDefaults = {
	"series_xAxis": 0,
	"series_yAxis": 0,
	"series_color": "#CCCCCC",
	"series_borderColor": "#000000",
	"series_borderWidth": 1,
	"series_dataLabels_enabled": true,
	"series_dataLabels_format": "{point.y:.2f}"
};

var activeSeries = webMI.query.activeSeries;
var triggerEnabled = true;

var chartname = webMI.query.chartname;
var chart = webMI.trendFactory.getTrendByName(chartname);
var options = chart.chart.options;
var configHandler = new webMI.rootWindow.ConfigHandler;

var xAxes = [];
var yAxes = [];

//Read options
function readOptions() {
	triggerEnabled = false;

	//Search configured axis
	xAxes = [];
	yAxes = [];

	var i = 0;
	while (typeof chart.chart.xAxis[i] != "undefined") {
		var name = chart.chart.xAxis[i].options.title.text;
		if (name == "")
			name = "X-Axis " + i;
		xAxes.push(name);
		webMI.trigger.fire("addItem", {text: name, value: i}, "series_xAxis");
		i++;
	}

	var i = 0;
	while (typeof chart.chart.yAxis[i] != "undefined") {
		var name = chart.chart.yAxis[i].options.title.text;
		if (name == "")
			name = "Y-Axis " + i;
		yAxes.push(name);
		webMI.trigger.fire("addItem", {text: name, value: i}, "series_yAxis");
		i++;
	}

	//Set values for current series
	var curSeries = chart.chart.series[activeSeries];

	if (typeof curSeries == "undefined")
		return;

	webMI.trigger.fire("setSelectedItem", curSeries.options.xAxis ? xAxes[curSeries.options.xAxis] : xAxes[0], "series_xAxis");
	webMI.trigger.fire("setSelectedItem", curSeries.options.yAxis ? yAxes[curSeries.options.yAxis] : yAxes[0], "series_yAxis");

	if (!curSeries.color)
		setOptions("series_color", inputDefaults["series_color"], activeSeries);

	if (!curSeries.options.borderColor)
		setOptions("series_borderColor", inputDefaults["series_borderColor"], activeSeries);

	if (!curSeries.options.dataLabels.format)
		setOptions("series_dataLabels_format", inputDefaults["series_dataLabels_format"], activeSeries);

	webMI.trigger.fire("valuechanged_series_color", {hex: curSeries.color});
	webMI.trigger.fire("valuechanged_series_borderColor", {hex: curSeries.options.borderColor});

	curSeries.options.borderWidth = typeof curSeries.options.borderWidth != "undefined" ? curSeries.options.borderWidth : 0;
	webMI.trigger.fire("setValue", curSeries.options.borderWidth, "series_borderWidth");

	webMI.trigger.fire("setChecked", curSeries.options.dataLabels.enabled, "series_dataLabels_enabled");
	webMI.trigger.fire("setValue", curSeries.options.dataLabels.format, "series_dataLabels_format");
	triggerEnabled = true;
}

//Write options
function setOptions(key, value, identifier) {
	if (value == "true") value = true;
	else if (value == "false") value = false;

	if (chart.chart.series[identifier]) {
		var optionsObj = configHandler.createConfigObject(key.slice(7, key.length), value);
		chart.chart.series[identifier].update(optionsObj);
		chart.control.updated();
	}
}

//Triggers for every input element
webMI.addOnload(function() {
	for (var key in inputDefaults)
		webMI.trigger.connect("valuechanged", function(e){ processInput(e.context, e.value, activeSeries) }, key);

	readOptions();
});

function processInput(key, value, identifier) {
	if (typeof key == "undefined" || typeof value == "undefined")
		return;

	if (!triggerEnabled)
		return;

	setOptions(key, value, identifier);
}
]]></script>
</svg>
