<?xml version='1.0' encoding='UTF-8' standalone='no'?>
<svg height="425" version="1.2" width="800" xmlns="http://www.w3.org/2000/svg" xmlns:atv="http://webmi.atvise.com/2007/svgext" xmlns:xlink="http://www.w3.org/1999/xlink">
 <defs/>
 <title>Log View (Small)</title>
 <desc>Displays the current log.</desc>
 <metadata>
  <atv:parameter behavior="hidden" defaultvalue="loggerDialog" desc="table id" name="tableID" substitute="$TABLEID$" valuetype="string"/>
  <atv:parameter behavior="optional" config="Arial;Courier;Tahoma;Verdana" defaultvalue="Arial" desc="font family" group="Font" name="font_family" valuetype="enum"/>
  <atv:parameter behavior="optional" defaultvalue="SYSTEM.GLOBALS.atvFontColor" desc="font color" group="Font" name="globalFontColor" substitute="$FONTCOLOR$" valuetype="global"/>
  <atv:parameter behavior="optional" defaultvalue="12" desc="table header font size" group="Font" name="header_text_size" valuetype="number"/>
  <atv:parameter behavior="optional" defaultvalue="12" desc="table row font size" group="Font" name="row_text_size" valuetype="number"/>
  <atv:parameter behavior="optional" defaultvalue="12" desc="table detail font size" group="Font" name="detail_text_size" valuetype="number"/>
  <atv:parameter behavior="optional" defaultvalue="12" desc="table footer font size" group="Font" name="footer_text_size" valuetype="number"/>
  <atv:parameter behavior="optional" defaultvalue="SYSTEM.GLOBALS.atvFillColor" desc="fill color" group="Appearance" name="globalFillColor" substitute="$FILLCOLOR$" valuetype="global"/>
  <atv:parameter behavior="optional" defaultvalue="SYSTEM.GLOBALS.atvBorderColor" desc="border color" group="Appearance" name="globalBorderColor" valuetype="global"/>
  <atv:parameter behavior="optional" defaultvalue="SYSTEM.GLOBALS.atvSymbolColor" desc="symbol color" group="Appearance" name="globalSymbolColor" substitute="$SYMBOLCOLOR$" valuetype="global"/>
  <atv:parameter behavior="optional" defaultvalue="SYSTEM.GLOBALS.atvObjectDisplays.Tables.ColorConfig" desc="table colors" group="Appearance" name="globalColorConfig" valuetype="global"/>
  <atv:parameter behavior="optional" defaultvalue="atviseTheme" desc="custom theme" group="Appearance" name="theme_class" valuetype="string"/>
  <atv:parameter behavior="hidden" defaultvalue="SYSTEM.LIBRARY.ATVISE.OBJECTDISPLAYS.Advanced.dialogs.message_dialog" desc="message dialog display" group="Appearance" name="displayMessageDialog" valuetype="address"/>
  <atv:parameter behavior="optional" config="continue;triggered" defaultvalue="continue" desc="data mode" group="Options" name="data_mode" valuetype="enum"/>
  <atv:parameter behavior="optional" defaultvalue="" desc="group" group="Indicator" name="errorGroup" valuetype="string"/>
  <atv:parameter behavior="optional" defaultvalue="" desc="subgroup" group="Indicator" name="errorSubgroup" valuetype="string"/>
  <atv:parameter behavior="optional" defaultvalue="" desc="label" group="Indicator" name="errorLabel" valuetype="string"/>
  <atv:parameter behavior="optional" defaultvalue="604800" desc="offset" group="Indicator" name="errorOffset" valuetype="number"/>
  <atv:parameter behavior="optional" defaultvalue="true" desc="small display" group="Indicator" name="errorSmall" valuetype="boolean"/>
  <atv:gridconfig enabled="true" gridstyle="lines" height="10" width="10"/>
  <atv:snapconfig enabled="true" height="1" width="5"/>
 </metadata>
 <rect atv:refpx="626.263" atv:refpy="67.295" fill="$FILLCOLOR$" height="90" id="filters_bg" rx="0" ry="0" stroke="#000000" stroke-width="1" width="800" x="0" y="0"/>
 <text atv:refpx="124.917" atv:refpy="17" fill="$FONTCOLOR$" font-family="Arial" font-size="22" id="title" text-anchor="start" x="54" y="24.5">T{Log display}</text>
 <svg atv:refpx="40.49" atv:refpy="29.6" height="20" id="logo" transform="matrix(2,0,0,2,0,0)" width="20" x="2.5" xlink:href="SYSTEM.LIBRARY.ATVISE.OBJECTDISPLAYS.Symbols.20x20.list" y="2.5">
  <atv:argument name="symbolColor" prefix="globalSymbolColor" value=""/>
 </svg>
 <text atv:refpx="232.5" atv:refpy="25" fill="$FONTCOLOR$" font-family="Arial" font-size="14" id="lbl_from" text-anchor="end" x="269" y="30">T{From}:</text>
 <svg atv:refpx="370" atv:refpy="25" height="30" id="date_from" width="160" x="280" xlink:href="SYSTEM.LIBRARY.ATVISE.OBJECTDISPLAYS.Advanced.picker_date" y="10">
  <atv:argument name="name" value="date_from"/>
 </svg>
 <text atv:refpx="475.172" atv:refpy="25" fill="$FONTCOLOR$" font-family="Arial" font-size="14" id="id_2" text-anchor="end" x="500" y="30">T{To}:</text>
 <svg atv:refpx="590" atv:refpy="25" height="30" id="date_to" width="160" x="510" xlink:href="SYSTEM.LIBRARY.ATVISE.OBJECTDISPLAYS.Advanced.picker_date" y="10">
  <atv:argument name="name" value="date_to"/>
 </svg>
 <text atv:refpx="34.961" atv:refpy="65" fill="$FONTCOLOR$" font-family="Arial" font-size="14" id="lbl_group" text-anchor="end" x="76" y="70">T{Group}:</text>
 <svg atv:refpx="195" atv:refpy="65" height="30" id="cbb_group" transform="matrix(0.75,0,0,1,0,0)" width="160" x="120" xlink:href="SYSTEM.LIBRARY.ATVISE.OBJECTDISPLAYS.Advanced.combobox" y="50">
  <atv:overwrite id="focus_frame" transform="matrix(1.3333,0,0,1,0,0)" width="116"/>
  <atv:overwrite id="button_stroke" transform="matrix(1.3333,0,0,1,0,0)" x="95"/>
  <atv:overwrite id="id_7" transform="matrix(1.3333,0,0,1,0,0)" x="95"/>
  <atv:overwrite id="button_bg" transform="matrix(1.3333,0,0,1,0,0)" x="95"/>
  <atv:overwrite id="combobox_label" transform="matrix(1.3333,0,0,1,0,0)" x="85.5"/>
  <atv:overwrite id="blinking_frame" transform="matrix(1.3333,0,0,1,0,0)" width="88"/>
  <atv:overwrite id="combobox_bg" transform="matrix(1.3333,0,0,1,0,0)" width="88"/>
  <atv:overwrite id="id_1" transform="matrix(1.3333,0,0,1,0,0)" width="118"/>
  <atv:overwrite id="id_0" transform="matrix(1.3333,0,0,1,0,0)" width="120"/>
 </svg>
 <text atv:refpx="252.696" atv:refpy="65" fill="$FONTCOLOR$" font-family="Arial" font-size="14" id="lbl_type" text-anchor="end" x="308" y="70">T{Subgroup}:</text>
 <svg atv:refpx="419" atv:refpy="65" height="30" id="cbb_subgroup" transform="matrix(0.75,0,0,1,0,0)" width="160" x="426.667" xlink:href="SYSTEM.LIBRARY.ATVISE.OBJECTDISPLAYS.Advanced.combobox" y="50">
  <atv:overwrite id="focus_frame" transform="matrix(1.3333,0,0,1,0,0)" width="116"/>
  <atv:overwrite id="button_stroke" transform="matrix(1.3333,0,0,1,0,0)" x="95"/>
  <atv:overwrite id="id_7" transform="matrix(1.3333,0,0,1,0,0)" x="95"/>
  <atv:overwrite id="button_bg" transform="matrix(1.3333,0,0,1,0,0)" x="95"/>
  <atv:overwrite id="combobox_label" transform="matrix(1.3333,0,0,1,0,0)" x="85.5"/>
  <atv:overwrite id="blinking_frame" transform="matrix(1.3333,0,0,1,0,0)" width="88"/>
  <atv:overwrite id="combobox_bg" transform="matrix(1.3333,0,0,1,0,0)" width="88"/>
  <atv:overwrite id="id_1" transform="matrix(1.3333,0,0,1,0,0)" width="118"/>
  <atv:overwrite id="id_0" transform="matrix(1.3333,0,0,1,0,0)" width="120"/>
 </svg>
 <text atv:refpx="493.204" atv:refpy="65" fill="$FONTCOLOR$" font-family="Arial" font-size="14" id="lbl_label" text-anchor="end" x="531" y="70">T{Label}:</text>
 <svg atv:refpx="605" atv:refpy="65" height="30" id="txt_label" transform="matrix(0.8125,0,0,1,0,0)" width="160" x="664.615" xlink:href="SYSTEM.LIBRARY.ATVISE.OBJECTDISPLAYS.Advanced.in_out_value" y="50">
  <atv:argument name="validation" value="String"/>
  <atv:overwrite id="input_label" transform="matrix(1.2308,0,0,1,0,0)" x="122.055"/>
  <atv:overwrite id="blinking_frame" transform="matrix(1.2308,0,0,1,0,0)" width="122"/>
  <atv:overwrite id="focus_frame" transform="matrix(1.2308,0,0,1,0,0)" width="126"/>
  <atv:overwrite id="input_bg" transform="matrix(1.2308,0,0,1,0,0)" width="122"/>
  <atv:overwrite id="id_1" transform="matrix(1.2308,0,0,1,0,0)" width="128"/>
  <atv:overwrite id="id_0" transform="matrix(1.2308,0,0,1,0,0)" width="130"/>
 </svg>
 <svg atv:dynamic="true" atv:refpx="691.742" atv:refpy="27" height="30" id="btn_filter" transform="matrix(1.125,0,0,1,0,0)" width="80" x="622.222" xlink:href="SYSTEM.LIBRARY.ATVISE.OBJECTDISPLAYS.Advanced.button" y="10">
  <atv:argument name="label" value="T{Apply filter}"/>
  <atv:argument name="tabIndex" value="14"/>
  <atv:overwrite id="id_2" transform="matrix(0.8889,0,0,1,0,0)" width="84.5"/>
  <atv:overwrite id="id_0" transform="matrix(0.8889,0,0,1,0,0)" width="89.5"/>
  <atv:argument name="borderVisible" value="true"/>
  <atv:argument name="extraBorderColor" value="#ffffff"/>
  <atv:overwrite id="id_6" transform="matrix(0.8889,0,0,1,0,0)" width="88"/>
  <atv:overwrite id="button_label_2" transform="matrix(0.8889,0,0,1,0,0)" x="45"/>
  <atv:overwrite id="button_label_1" transform="matrix(0.8889,0,0,1,0,0)" x="45"/>
  <atv:overwrite id="button_label" transform="matrix(0.8889,0,0,1,0,0)" x="45"/>
  <atv:overwrite id="button_symbol_bottom" transform="matrix(0.5333,0,0,0.6,0,0)" x="64.833"/>
  <atv:overwrite id="button_symbol_top" transform="matrix(0.5333,0,0,0.6,0,0)" x="64.833"/>
  <atv:overwrite id="button_symbol" transform="matrix(0.8889,0,0,1,0,0)" x="35"/>
  <atv:overwrite id="button_stroke" transform="matrix(0.8889,0,0,1,0,0)" width="86"/>
  <atv:overwrite id="button_bg" transform="matrix(0.8889,0,0,1,0,0)" width="88"/>
  <atv:overwrite id="outer_frame" transform="matrix(0.8889,0,0,1,0,0)" width="90"/>
 </svg>
 <svg atv:dynamic="true" atv:refpx="691.742" atv:refpy="67" height="30" id="btn_reset" transform="matrix(1.125,0,0,1,0,0)" width="80" x="622.222" xlink:href="SYSTEM.LIBRARY.ATVISE.OBJECTDISPLAYS.Advanced.button" y="50">
  <atv:argument name="label" value="T{Reset filter}"/>
  <atv:argument name="tabIndex" value="14"/>
  <atv:overwrite id="id_2" transform="matrix(0.8889,0,0,1,0,0)" width="84.5"/>
  <atv:overwrite id="id_0" transform="matrix(0.8889,0,0,1,0,0)" width="89.5"/>
  <atv:argument name="borderVisible" value="true"/>
  <atv:argument name="extraBorderColor" value="#ffffff"/>
  <atv:overwrite id="id_6" transform="matrix(0.8889,0,0,1,0,0)" width="88"/>
  <atv:overwrite id="button_label_2" transform="matrix(0.8889,0,0,1,0,0)" x="45"/>
  <atv:overwrite id="button_label_1" transform="matrix(0.8889,0,0,1,0,0)" x="45"/>
  <atv:overwrite id="button_label" transform="matrix(0.8889,0,0,1,0,0)" x="45"/>
  <atv:overwrite id="button_symbol_bottom" transform="matrix(0.5333,0,0,0.6,0,0)" x="64.833"/>
  <atv:overwrite id="button_symbol_top" transform="matrix(0.5333,0,0,0.6,0,0)" x="64.833"/>
  <atv:overwrite id="button_symbol" transform="matrix(0.8889,0,0,1,0,0)" x="35"/>
  <atv:overwrite id="button_stroke" transform="matrix(0.8889,0,0,1,0,0)" width="86"/>
  <atv:overwrite id="button_bg" transform="matrix(0.8889,0,0,1,0,0)" width="88"/>
  <atv:overwrite id="outer_frame" transform="matrix(0.8889,0,0,1,0,0)" width="90"/>
 </svg>
 <svg atv:refpx="400" atv:refpy="257.521" height="580" id="$TABLEID$" transform="matrix(1.25,0,0,0.5776,0,0)" width="640" x="0" xlink:href="SYSTEM.LIBRARY.ATVISE.OBJECTDISPLAYS.Advanced.slickgrid.table_panel" y="155.821">
  <atv:argument name="tableID" prefix="tableID"/>
  <atv:argument name="row_height" value="30"/>
  <atv:argument name="row_text_size" value="14"/>
  <atv:argument name="detail_text_size" value="14"/>
  <atv:argument name="footer_text_size" value="14"/>
  <atv:overwrite height="335" id="id_1" transform="matrix(0.8,0,0,1.7313,0,0)" width="800"/>
 </svg>
 <script atv:desc="" atv:href="SYSTEM.LIBRARY.ATVISE.DISPLAYSCRIPTS.logger.logger_dialog" atv:name="logviewer_dialog" atv:type="text/ecmascript"/>
 <script atv:desc="" atv:name="" type="text/ecmascript"/>
</svg>
