<?xml version='1.0' encoding='UTF-8' standalone='no'?>
<svg width="60" xmlns:xlink="http://www.w3.org/1999/xlink" xmlns:atv="http://webmi.atvise.com/2007/svgext" version="1.1" xmlns="http://www.w3.org/2000/svg" y="0px" height="60" enable-background="new 0 0 40 40" id="Ebene_1" x="0px" xml:space="preserve">
 <defs/>
 <metadata>
  <atv:parameter desc="symbol color" defaultvalue="#000000" name="symbolColor" substitute="$SYMBOLCOLOR$" valuetype="color" behavior="optional"/>
  <atv:gridconfig width="20" height="20" gridstyle="lines" enabled="false"/>
  <atv:snapconfig width="10" height="10" enabled="false"/>
 </metadata>
 <g atv:refpy="30" id="id_8" atv:refpx="30">
  <path stroke-width="1.332" atv:refpy="57.648" fill="$SYMBOLCOLOR$" id="id_0" atv:refpx="29.999" d="M42.934,46.581L42.934,33.61C42.934,25.846 37.145,19.553 30,19.553C22.856,19.553 17.064,25.846 17.064,33.61L17.064,46.581L12.825,46.581L12.825,56.636L47.172,56.636L47.172,46.581ZM22.627,38.33C22.627,44.495 18.773,47.737 18.773,47.737C18.773,47.737 18.773,42.315 18.773,36.151C18.773,29.986 21.6,24.989 23.16,24.989C24.723,24.991 22.627,32.168 22.627,38.33"/>
  <rect width="2.131" stroke-width="1.332" atv:refpy="8.506" y="3.364" height="10.284" fill="$SYMBOLCOLOR$" id="id_1" x="28.935" atv:refpx="58.935"/>
  <rect width="9.462" stroke-width="1.332" atv:refpy="34.06" y="32.902" height="2.316" fill="$SYMBOLCOLOR$" id="id_2" x="47.174" atv:refpx="99.079"/>
  <rect width="9.461" stroke-width="1.332" atv:refpy="64.644" y="31.744" height="2.316" fill="$SYMBOLCOLOR$" id="id_3" x="3.364" atv:refpx="8.095"/>
  <polygon stroke-width="1.332" atv:refpy="11.276" fill="$SYMBOLCOLOR$" id="id_4" atv:refpx="33.163" points="14.937,7.403 16.784,6.244 21.515,15.15 19.669,16.307"/>
  <polygon stroke-width="1.332" atv:refpy="11.276" fill="$SYMBOLCOLOR$" id="id_5" atv:refpx="79.735" points="44.797,7.403 42.953,6.244 38.224,15.15 40.068,16.307"/>
  <polygon stroke-width="1.332" atv:refpy="38.34" fill="$SYMBOLCOLOR$" id="id_6" atv:refpx="11.158" points="15.788,22.526 14.723,24.531 6.527,19.389 7.593,17.382"/>
  <polygon stroke-width="1.332" atv:refpy="20.957" fill="$SYMBOLCOLOR$" id="id_7" atv:refpx="93.684" points="44.527,22.526 45.591,24.531 53.786,19.389 52.719,17.382"/>
 </g>
</svg>
