<?xml version='1.0' encoding='UTF-8' standalone='no'?>
<svg width="60" x="0px" version="1.1" y="0px" xmlns="http://www.w3.org/2000/svg" height="60" xmlns:xlink="http://www.w3.org/1999/xlink" id="Ebene_1" enable-background="new 0 0 50 50" xml:space="preserve" xmlns:atv="http://webmi.atvise.com/2007/svgext">
 <defs/>
 <metadata>
  <atv:parameter desc="symbol color" valuetype="color" substitute="$SYMBOLFILL$" behavior="optional" name="symbolColor" defaultvalue="#000000"/>
 </metadata>
 <path fill="$SYMBOLFILL$" id="id_0" atv:refpx="30.002" atv:refpy="30.002" d="M51.698,35.915C50.338,38.85 49.643,41.35 47.782,44.258C45.658,47.572 42.017,54.79 36.341,56.599C32.014,57.979 25.535,57.164 22.498,56.951C16.954,56.572 13.582,53.133 13.637,41.752C13.645,40.671 13.261,38.509 12.895,37.49C12.781,37.166 12.449,36.403 12.449,36.403L5.642,21.894C4.969,20.705 5.387,19.198 6.577,18.525C7.763,17.852 9.268,18.268 9.941,19.457L16.548,31.106C16.548,31.106 16.779,31.472 17.096,31.483C17.592,31.499 17.763,31.259 17.892,30.782C17.971,30.479 17.86,29.746 17.86,29.746L14.697,9.323C14.422,7.556 15.635,5.896 17.41,5.621C19.181,5.344 20.841,6.559 21.113,8.333L23.782,25.516C23.782,25.516 23.931,26.238 24.276,26.364C24.73,26.528 24.932,26.479 25.232,26.102C25.434,25.848 25.455,25.112 25.455,25.112L26.372,5.861C26.372,4.068 27.829,2.615 29.622,2.615C31.414,2.615 32.869,4.068 32.869,5.861L31.85,25.167C31.85,25.167 31.842,26.44 32.059,26.737C32.466,27.299 33.063,27.312 33.556,27.058C33.851,26.904 34.068,26.137 34.068,26.137L38.225,9.969C38.645,8.225 40.4,7.154 42.144,7.576C43.887,7.995 44.961,9.751 44.538,11.495C44.538,11.495 41.226,24.722 40.773,30.035C40.746,30.357 40.619,31.145 40.61,31.469C40.518,34.154 40.692,35.835 41.791,36.64C43.447,37.847 44.661,35.133 45.784,33.666C46.697,32.518 47.882,29.269 48.803,27.508C50.104,25.015 52.154,25.544 52.998,26.004C54.331,26.729 55.383,27.784 54.089,30.482C53.235,32.274 52.213,34.799 51.698,35.915"/>
</svg>
