<svg xmlns:atv="http://webmi.atvise.com/2007/svgext" x="0px" xmlns:xlink="http://www.w3.org/1999/xlink" y="23px" id="Layer_1" height="50.16" version="1.1" xml:space="preserve" xmlns="http://www.w3.org/2000/svg" width="99.33" enable-background="0 23 99 54">
 <g id="id_52" atv:refpx="49.667" atv:refpy="25.083" transform="matrix(1,0,0,1,-0.149,-23.335)">
  <defs>
   <linearGradient y1="40" x2="57.435" x1="57.435" y2="70" id="Sk2n355pb5e" gradientUnits="userSpaceOnUse">
    <stop stop-color="#f2a4a4" offset="0"/>
    <stop stop-color="#d87d7d" offset="1"/>
   </linearGradient>
   <linearGradient y1="40" x2="57.435" x1="57.435" y2="70" id="Sk2n355pb5h" gradientUnits="userSpaceOnUse">
    <stop stop-color="#bc4512" offset="0"/>
    <stop stop-color="#472000" offset="1"/>
   </linearGradient>
   <linearGradient y1="40" x2="57.435" x1="57.435" y2="70" id="Sk2n355pb5k" gradientUnits="userSpaceOnUse">
    <stop stop-color="#de9c5f" offset="0"/>
    <stop stop-color="#000000" offset="1"/>
   </linearGradient>
   <linearGradient y1="40" class="linear" x2="57.435" x1="57.435" y2="70" id="SVGID_1_" gradientUnits="userSpaceOnUse">
    <stop stop-color="#CCCCCC" offset="0"/>
    <stop stop-color="#333333" offset="1"/>
   </linearGradient>
  </defs>
  <metadata/>
  <desc>Copyright Opto 22</desc>
  <desc>Created with Snap</desc>
  <g id="id_51" atv:refpx="49.816" atv:refpy="48.418">
   <g id="linear" atv:refpx="57.435" atv:refpy="44.634">
    <path class="linear" atv:refpx="57.435" id="id_0" fill="url('#Sk2n355pb5k')" xmlns="http://www.w3.org/2000/svg" atv:refpy="44.634" d="M25.908,59.758C20.556,51.405 20.556,37.862 25.908,29.509L88.962,29.509C94.314,37.862 94.314,51.405 88.962,59.758Z"/>
   </g>
   <g id="shape" atv:refpx="43.656" atv:refpy="52.246">
    <rect x="14.469" y="43.093" atv:refpx="17.369" id="id_1" height="2.628" fill="#c78163" width="5.801" xmlns="http://www.w3.org/2000/svg" atv:refpy="44.407"/>
    <path atv:refpx="3.865" id="id_2" fill="#c78163" xmlns="http://www.w3.org/2000/svg" atv:refpy="54.966" d="M3.321,52.7C3.321,51.907 3.455,51.145 3.699,50.434L0.149,50.434L0.149,59.497L7.581,59.497L7.581,59.129C5.077,58.069 3.321,55.589 3.321,52.7"/>
    <rect x="29.514" y="67.11" atv:refpx="34.59" id="id_3" height="4.35" fill="#c78163" width="10.151" xmlns="http://www.w3.org/2000/svg" atv:refpy="69.285"/>
    <path atv:refpx="47.064" id="id_4" fill="#c78163" xmlns="http://www.w3.org/2000/svg" atv:refpy="62.941" d="M84.263,48.621L84.263,61.355L30.608,61.355L30.608,48.621L27.708,48.621L27.708,59.694L6.964,59.694L6.964,62.141L27.708,62.141L27.708,65.569L27.708,77.261L30.607,77.261L30.607,76.036L84.263,76.036L84.263,77.261L87.163,77.261L87.163,65.57L87.163,61.944L87.163,48.621ZM84.263,73.5L30.608,73.5L30.608,63.848L84.263,63.848Z"/>
    <path atv:refpx="54.483" id="id_5" fill="#c78163" xmlns="http://www.w3.org/2000/svg" atv:refpy="47.534" d="M71.205,63.666L71.205,65.116L52.897,65.116L52.897,63.666L51.083,63.666L51.083,65.116L42.926,65.116C41.727,65.116 40.751,64.14 40.751,62.941L40.751,33.939L56.023,33.939C57.422,33.939 58.561,32.801 58.561,31.401L58.561,27.232L57.111,27.232L57.111,31.401C57.111,32 56.623,32.488 56.023,32.488L38.486,32.488C37.885,32.488 37.397,32 37.397,31.4L37.397,27.231L35.947,27.231L35.947,31.4C35.947,32.8 37.085,33.938 38.485,33.938L39.301,33.938L39.301,62.941C39.301,64.94 40.927,66.567 42.926,66.567L51.083,66.567L51.083,67.836L52.896,67.836L52.896,66.567L71.204,66.567L71.204,67.836L73.017,67.836L73.017,63.667Z"/>
   </g>
   <g id="dark" atv:refpx="48.638" atv:refpy="49.193">
    <rect x="34.429" y="28.32" atv:refpx="36.718" id="id_6" height="1.189" fill="#947365" width="4.579" xmlns="http://www.w3.org/2000/svg" atv:refpy="28.915"/>
    <path atv:refpx="44.83" id="id_7" fill="#947365" xmlns="http://www.w3.org/2000/svg" atv:refpy="70.374" d="M50.178,69.104C50.178,68.705 49.852,68.379 49.452,68.379L45.464,68.379C45.065,68.379 44.739,68.053 44.739,67.654L44.739,67.473C44.739,67.074 44.413,66.748 44.014,66.748L40.207,66.748C39.808,66.748 39.482,67.074 39.482,67.473L39.482,73.274C39.482,73.673 39.808,73.999 40.207,73.999L44.014,73.999C44.413,73.999 44.739,73.673 44.739,73.274L44.739,73.093C44.739,72.694 45.065,72.368 45.464,72.368L49.452,72.368C49.852,72.368 50.178,72.042 50.178,71.643Z"/>
    <rect x="55.366" y="28.32" atv:refpx="57.656" id="id_8" height="1.189" fill="#947365" width="4.58" xmlns="http://www.w3.org/2000/svg" atv:refpy="28.915"/>
    <polygon points="80.881,28.32 80.094,28.32 80.094,27.413 77.089,27.413 77.089,28.32 76.302,28.32 76.302,29.509 &#xd;&#xa;&#x9;&#x9;&#x9;80.881,29.509 &#x9;&#x9;" atv:refpx="78.591" id="id_9" fill="#947365" xmlns="http://www.w3.org/2000/svg" atv:refpy="28.461"/>
    <path atv:refpx="84.253" id="id_10" fill="#947365" xmlns="http://www.w3.org/2000/svg" atv:refpy="69.377" d="M89.331,64.301L89.331,65.861L78.44,65.861C77.485,67.802 77.485,70.95 78.44,72.892L89.332,72.892L89.332,74.452L90.782,74.452L90.782,64.301Z"/>
    <circle r="3.807" cy="52.7" atv:refpx="10.3" id="id_11" cx="10.3" fill="#947365" xmlns="http://www.w3.org/2000/svg" atv:refpy="52.7"/>
    <circle r="8.36" cy="45.132" atv:refpx="63.143" id="id_12" cx="63.143" fill="#947365" xmlns="http://www.w3.org/2000/svg" atv:refpy="45.132"/>
    <path atv:refpx="56.558" id="id_13" fill="#947365" xmlns="http://www.w3.org/2000/svg" atv:refpy="27.051" d="M56.558,23.934C54.836,23.934 53.441,25.33 53.441,27.051C53.441,28.772 54.836,30.168 56.558,30.168C58.279,30.168 59.675,28.772 59.675,27.051C59.675,25.33 58.28,23.934 56.558,23.934M58.861,26.661L57.635,26.661C57.519,26.341 57.266,26.088 56.947,25.973L56.947,24.748C57.926,24.912 58.696,25.683 58.861,26.661M56.168,24.748L56.168,25.973C55.848,26.089 55.595,26.342 55.48,26.661L54.254,26.661C54.42,25.683 55.19,24.912 56.168,24.748M54.255,27.44L55.48,27.44C55.596,27.76 55.849,28.013 56.168,28.128L56.168,29.353C55.19,29.189 54.42,28.418 54.255,27.44M56.948,29.353L56.948,28.128C57.268,28.012 57.521,27.759 57.636,27.44L58.861,27.44C58.696,28.418 57.926,29.189 56.948,29.353"/>
    <path atv:refpx="33.713" id="id_14" fill="#947365" xmlns="http://www.w3.org/2000/svg" atv:refpy="69.194" d="M33.713,64.843C31.31,64.843 29.363,66.791 29.363,69.193C29.363,71.595 31.311,73.543 33.713,73.543C36.115,73.543 38.063,71.595 38.063,69.193C38.063,66.791 36.116,64.843 33.713,64.843M36.927,68.651L35.217,68.651C35.055,68.205 34.702,67.851 34.256,67.69L34.256,65.98C35.622,66.21 36.697,67.286 36.927,68.651M33.169,65.981L33.169,67.69C32.723,67.851 32.369,68.204 32.208,68.651L30.497,68.651C30.729,67.286 31.804,66.21 33.169,65.981M30.499,69.739L32.208,69.739C32.369,70.185 32.723,70.538 33.169,70.7L33.169,72.41C31.804,72.179 30.729,71.104 30.499,69.739M34.257,72.409L34.257,70.699C34.702,70.538 35.056,70.185 35.218,69.738L36.928,69.738C36.697,71.104 35.622,72.179 34.257,72.409"/>
   </g>
   <g id="light" atv:refpx="49.092" atv:refpy="49.766">
    <path atv:refpx="12.935" id="id_15" fill="#de9c5f" xmlns="http://www.w3.org/2000/svg" atv:refpy="52.7" d="M21.913,45.721L10.3,45.721C6.446,45.721 3.321,48.845 3.321,52.699C3.321,56.554 6.445,59.678 10.3,59.678C14.155,59.678 17.279,56.554 17.279,52.699C17.279,52.169 17.218,51.654 17.106,51.159L22.549,51.159C22.186,49.389 21.972,47.56 21.913,45.721M10.3,56.506C8.198,56.506 6.493,54.802 6.493,52.699C6.493,50.597 8.197,48.891 10.3,48.891C12.403,48.891 14.107,50.596 14.107,52.699C14.106,54.802 12.402,56.506 10.3,56.506"/>
    <path atv:refpx="10.299" id="id_16" fill="#de9c5f" xmlns="http://www.w3.org/2000/svg" atv:refpy="52.7" d="M6.855,52.7C6.855,54.602 8.397,56.144 10.299,56.144L10.299,49.256C12.2,49.256 13.742,50.798 13.742,52.7Z"/>
    <circle r="7.997" cy="45.132" atv:refpx="63.143" id="id_17" cx="63.143" fill="#de9c5f" xmlns="http://www.w3.org/2000/svg" atv:refpy="45.132"/>
    <rect x="23.577" y="48.621" atv:refpx="29.015" id="id_18" height="13.776" fill="#de9c5f" width="10.876" xmlns="http://www.w3.org/2000/svg" atv:refpy="55.509"/>
    <rect x="93.594" y="51.332" atv:refpx="94.228" id="id_19" height="1.269" fill="#de9c5f" width="1.269" xmlns="http://www.w3.org/2000/svg" atv:refpy="51.967"/>
   </g>
   <g id="shadow" atv:refpx="51.411" atv:refpy="46.968">
    <polygon points="62.812,38.756 62.481,38.183 62.812,37.61 63.474,37.61 63.805,38.183 63.474,38.756 &#x9;&#x9;" atv:refpx="63.143" id="id_20" fill="#000000" xmlns="http://www.w3.org/2000/svg" atv:refpy="38.183"/>
    <polygon points="62.812,52.668 62.481,52.095 62.812,51.522 63.474,51.522 63.805,52.095 63.474,52.668 &#x9;&#x9;" atv:refpx="63.143" id="id_21" fill="#000000" xmlns="http://www.w3.org/2000/svg" atv:refpy="52.095"/>
    <polygon points="55.856,45.712 55.525,45.139 55.856,44.566 56.518,44.566 56.849,45.139 56.518,45.712 &#x9;&#x9;" atv:refpx="56.187" id="id_22" fill="#000000" xmlns="http://www.w3.org/2000/svg" atv:refpy="45.139"/>
    <polygon points="69.768,45.712 69.437,45.139 69.768,44.566 70.43,44.566 70.76,45.139 70.43,45.712 &#x9;&#x9;" atv:refpx="70.099" id="id_23" fill="#000000" xmlns="http://www.w3.org/2000/svg" atv:refpy="45.139"/>
    <polygon points="67.73,40.794 67.399,40.221 67.73,39.647 68.392,39.647 68.723,40.221 68.392,40.794 &#x9;&#x9;" atv:refpx="68.061" id="id_24" fill="#000000" xmlns="http://www.w3.org/2000/svg" atv:refpy="40.221"/>
    <polygon points="57.893,50.631 57.563,50.057 57.893,49.484 58.555,49.484 58.886,50.057 58.555,50.631 &#x9;&#x9;" atv:refpx="58.225" id="id_25" fill="#000000" xmlns="http://www.w3.org/2000/svg" atv:refpy="50.058"/>
    <polygon points="58.555,40.794 58.886,40.221 58.555,39.647 57.893,39.647 57.563,40.221 57.894,40.794 &#x9;&#x9;" atv:refpx="58.225" id="id_26" fill="#000000" xmlns="http://www.w3.org/2000/svg" atv:refpy="40.221"/>
    <polygon points="68.392,50.631 68.723,50.057 68.392,49.484 67.73,49.484 67.399,50.057 67.73,50.631 &#x9;&#x9;" atv:refpx="68.061" id="id_27" fill="#000000" xmlns="http://www.w3.org/2000/svg" atv:refpy="50.058"/>
    <path atv:refpx="63.143" id="id_28" fill="#000000" opacity="0.5" xmlns="http://www.w3.org/2000/svg" atv:refpy="51.125" d="M63.143,53.492C58.526,53.492 54.783,49.748 54.783,45.132L54.783,46.945C54.783,51.562 58.526,57.118 63.143,57.118C67.759,57.118 71.503,51.562 71.503,46.945L71.503,45.133C71.503,49.749 67.76,53.492 63.143,53.492" enable-background="new    "/>
    <path atv:refpx="66.256" id="id_29" fill="#000000" xmlns="http://www.w3.org/2000/svg" atv:refpy="65.139" d="M77.769,68.425L58.698,68.425C57.699,68.425 56.885,67.612 56.885,66.612L56.885,59.678L54.71,59.678L54.71,66.612C54.71,68.811 56.499,70.6 58.698,70.6L77.801,70.6C77.713,69.887 77.7,69.144 77.769,68.425"/>
    <path atv:refpx="84.573" id="id_30" fill="#000000" xmlns="http://www.w3.org/2000/svg" atv:refpy="25.623" d="M79.271,27.64L77.821,27.64L77.821,26.348C77.821,24.836 79.447,23.605 81.446,23.605L91.325,23.605L91.325,25.055L81.446,25.055C80.164,25.055 79.271,25.737 79.271,26.348Z"/>
    <path atv:refpx="90.193" id="id_31" fill="#000000" xmlns="http://www.w3.org/2000/svg" atv:refpy="54.807" d="M83.078,66.023L80.903,66.023L80.903,63.78C80.903,61.943 82.692,60.449 84.891,60.449L95.495,60.449C96.494,60.449 97.308,59.635 97.308,58.635L97.308,47.579C97.308,46.579 96.495,45.766 95.495,45.766L92.413,45.766L92.413,43.591L95.495,43.591C97.694,43.591 99.483,45.38 99.483,47.579L99.483,58.636C99.483,60.835 97.694,62.624 95.495,62.624L84.891,62.624C83.823,62.624 83.078,63.233 83.078,63.78C83.078,63.78 83.078,66.023 83.078,66.023"/>
    <path atv:refpx="89.83" id="id_32" fill="#000000" xmlns="http://www.w3.org/2000/svg" atv:refpy="45.404" d="M88.878,65.751L87.156,65.751L87.156,64.301L88.878,64.301C90.077,64.301 91.053,63.325 91.053,62.126L91.053,25.057L92.503,25.057L92.503,62.126C92.504,64.125 90.877,65.751 88.878,65.751"/>
    <path atv:refpx="91.779" id="id_33" fill="#000000" xmlns="http://www.w3.org/2000/svg" atv:refpy="51.34" d="M91.779,54.875C90.777,54.875 89.966,54.063 89.966,53.062L89.966,49.617C89.966,48.617 90.777,47.804 91.779,47.804C92.78,47.804 93.592,48.616 93.592,49.617L93.592,53.062C93.591,54.063 92.78,54.875 91.779,54.875"/>
    <circle r="0.855" cy="27.051" atv:refpx="59.229" id="id_34" cx="59.229" fill="#000000" xmlns="http://www.w3.org/2000/svg" atv:refpy="27.051"/>
    <circle r="0.634" cy="55.237" atv:refpx="33.139" id="id_35" cx="33.139" fill="#000000" xmlns="http://www.w3.org/2000/svg" atv:refpy="55.237"/>
    <rect x="27.52" y="49.528" atv:refpx="30.239" id="id_36" height="3.082" fill="#000000" width="5.438" xmlns="http://www.w3.org/2000/svg" atv:refpy="51.069"/>
    <path atv:refpx="23.305" id="id_37" fill="#000000" xmlns="http://www.w3.org/2000/svg" atv:refpy="51.068" d="M23.305,52.972C23.105,52.972 22.942,52.81 22.942,52.609L22.942,49.527C22.942,49.327 23.104,49.164 23.305,49.164C23.506,49.164 23.668,49.326 23.668,49.527L23.668,52.609C23.668,52.809 23.506,52.972 23.305,52.972"/>
    <path atv:refpx="23.305" id="id_38" fill="#000000" xmlns="http://www.w3.org/2000/svg" atv:refpy="59.497" d="M23.305,61.401C23.105,61.401 22.942,61.239 22.942,61.038L22.942,57.956C22.942,57.756 23.104,57.593 23.305,57.593C23.506,57.593 23.668,57.755 23.668,57.956L23.668,61.038C23.668,61.238 23.506,61.401 23.305,61.401"/>
    <path atv:refpx="13.466" id="id_39" fill="#000000" xmlns="http://www.w3.org/2000/svg" atv:refpy="60.762" d="M6.159,63.279C5.577,63.279 5.061,63.159 4.627,62.88C3.76,62.322 3.338,61.221 3.338,59.514L4.062,59.514C4.062,60.935 4.385,61.862 5.019,62.27C6.386,63.15 9.31,61.82 12.139,60.534C14.614,59.408 17.174,58.244 19.198,58.244L23.594,58.244L23.594,58.969L19.198,58.969C17.332,58.969 14.844,60.1 12.439,61.193C10.099,62.258 7.854,63.279 6.159,63.279"/>
    <path atv:refpx="43.814" id="id_40" fill="#000000" xmlns="http://www.w3.org/2000/svg" atv:refpy="66.703" d="M43.474,66.84L44.193,66.746C44.184,66.685 44.175,66.626 44.168,66.566L43.436,66.566C43.449,66.657 43.462,66.746 43.474,66.84"/>
    <path atv:refpx="43.382" id="id_41" fill="#000000" xmlns="http://www.w3.org/2000/svg" atv:refpy="64.483" d="M43.601,63.848L42.84,63.848C42.967,64.224 43.081,64.644 43.183,65.117L43.923,65.117C43.827,64.65 43.719,64.23 43.601,63.848"/>
    <path atv:refpx="36.929" id="id_42" fill="#000000" xmlns="http://www.w3.org/2000/svg" atv:refpy="58.781" d="M34.555,58.049L34.624,58.771C34.656,58.768 37.371,58.529 39.303,59.547L39.303,58.739C37.231,57.81 34.686,58.036 34.555,58.049"/>
    <path atv:refpx="41.547" id="id_43" fill="#000000" xmlns="http://www.w3.org/2000/svg" atv:refpy="60.528" d="M40.752,59.701L40.752,60.693C40.982,60.913 41.199,61.132 41.398,61.355L42.342,61.355C41.893,60.771 41.363,60.26 40.752,59.701"/>
    <circle r="1.134" cy="51.884" atv:refpx="95.782" id="id_44" cx="95.782" fill="#000000" xmlns="http://www.w3.org/2000/svg" atv:refpy="51.884"/>
    <rect x="89.15" y="23.335" atv:refpx="90.782" id="id_45" height="1.994" fill="#000000" width="3.263" xmlns="http://www.w3.org/2000/svg" atv:refpy="24.332"/>
    <circle r="1.193" cy="69.195" atv:refpx="37.44" id="id_46" cx="37.44" fill="#000000" xmlns="http://www.w3.org/2000/svg" atv:refpy="69.195"/>
   </g>
   <g id="hlight" atv:refpx="64.71" atv:refpy="48.239">
    <circle r="0.74" cy="51.884" atv:refpx="95.782" id="id_47" cx="95.782" fill="#fbbc5a" xmlns="http://www.w3.org/2000/svg" atv:refpy="51.884"/>
    <rect x="59.246" y="42.775" atv:refpx="63.143" id="id_48" height="4.713" fill="#fbbc5a" width="7.794" xmlns="http://www.w3.org/2000/svg" atv:refpy="45.131"/>
    <circle r="0.816" cy="69.195" atv:refpx="33.713" id="id_49" cx="33.713" fill="#fbbc5a" xmlns="http://www.w3.org/2000/svg" atv:refpy="69.195"/>
    <circle r="0.584" cy="27.051" atv:refpx="56.558" id="id_50" cx="56.558" fill="#fbbc5a" xmlns="http://www.w3.org/2000/svg" atv:refpy="27.051"/>
   </g>
  </g>
 </g>
</svg>
