<?xml version='1.0' encoding='UTF-8' standalone='no'?>
<svg width="20" version="1.2" xmlns="http://www.w3.org/2000/svg" height="20" xmlns:xlink="http://www.w3.org/1999/xlink" xmlns:atv="http://webmi.atvise.com/2007/svgext">
 <defs/>
 <metadata>
  <atv:parameter desc="symbol color" valuetype="color" substitute="$SYMBOLCOLOR$" behavior="optional" name="symbolColor" defaultvalue="#000000"/>
 </metadata>
 <rect width="1.638" x="3.036" y="8.361" fill="$SYMBOLCOLOR$" height="1.638" id="id_20" atv:refpx="5.493" atv:refpy="14.094" stroke-width="0.819"/>
 <rect width="1.638" x="5.494" y="8.361" fill="$SYMBOLCOLOR$" height="1.638" id="id_21" atv:refpx="10.408" atv:refpy="14.094" stroke-width="0.819"/>
 <rect width="1.638" x="7.952" y="8.361" fill="$SYMBOLCOLOR$" height="1.638" id="id_22" atv:refpx="15.323" atv:refpy="14.094" stroke-width="0.819"/>
 <rect width="1.638" x="10.409" y="8.361" fill="$SYMBOLCOLOR$" height="1.638" id="id_23" atv:refpx="20.237" atv:refpy="14.094" stroke-width="0.819"/>
 <rect width="1.638" x="3.036" y="10.819" fill="$SYMBOLCOLOR$" height="1.638" id="id_24" atv:refpx="5.493" atv:refpy="19.009" stroke-width="0.819"/>
 <rect width="1.638" x="5.494" y="10.819" fill="$SYMBOLCOLOR$" height="1.638" id="id_25" atv:refpx="10.408" atv:refpy="19.009" stroke-width="0.819"/>
 <rect width="1.638" x="7.952" y="10.819" fill="$SYMBOLCOLOR$" height="1.638" id="id_26" atv:refpx="15.323" atv:refpy="19.009" stroke-width="0.819"/>
 <rect width="1.638" x="15.324" y="8.361" fill="$SYMBOLCOLOR$" height="1.638" id="id_27" atv:refpx="30.066" atv:refpy="14.094" stroke-width="0.819"/>
 <rect width="1.638" x="12.867" y="8.361" fill="$SYMBOLCOLOR$" height="1.638" id="id_28" atv:refpx="25.152" atv:refpy="14.094" stroke-width="0.819"/>
 <rect width="1.638" x="3.036" y="13.277" fill="$SYMBOLCOLOR$" height="1.638" id="id_29" atv:refpx="5.493" atv:refpy="23.923" stroke-width="0.819"/>
 <rect width="9.011" x="5.494" y="13.277" fill="$SYMBOLCOLOR$" height="1.638" id="id_30" atv:refpx="14.095" atv:refpy="23.923" stroke-width="0.819"/>
 <rect width="1.638" x="15.324" y="13.277" fill="$SYMBOLCOLOR$" height="1.638" id="id_31" atv:refpx="30.066" atv:refpy="23.923" stroke-width="0.819"/>
 <rect width="1.638" x="10.409" y="10.819" fill="$SYMBOLCOLOR$" height="1.638" id="id_32" atv:refpx="20.237" atv:refpy="19.009" stroke-width="0.819"/>
 <rect width="1.638" x="15.324" y="10.819" fill="$SYMBOLCOLOR$" height="1.638" id="id_33" atv:refpx="30.066" atv:refpy="19.009" stroke-width="0.819"/>
 <rect width="1.638" x="12.867" y="10.819" fill="$SYMBOLCOLOR$" height="1.638" id="id_34" atv:refpx="25.152" atv:refpy="19.009" stroke-width="0.819"/>
 <polyline points="17.375,3.485 17.375,4.703 13.248,4.703 13.248,6.326 12.4,6.326 12.4,7.208 1.86,7.208 1.86,16.052 18.231,16.052 18.231,7.208 12.4,7.208" fill="none" stroke="$SYMBOLCOLOR$" stroke-linejoin="miter" id="id_3" atv:refpx="10.046" stroke-width="1" atv:refpy="9.769"/>
</svg>
