<?xml version='1.0' encoding='UTF-8' standalone='no'?>
<svg xmlns:xlink="http://www.w3.org/1999/xlink" version="1.2" width="800" xmlns="http://www.w3.org/2000/svg" xmlns:atv="http://webmi.atvise.com/2007/svgext" height="50">
 <defs>
  <linearGradient id="linear_21" x1="-0.0150911" gradientUnits="objectBoundingBox" y2="1.10539" y1="-7.18755e-05" x2="-0.0150911">
   <stop offset="0" stop-color="#75899f"/>
   <stop offset="0.7117903930131004" stop-color="#293646"/>
  </linearGradient>
 </defs>
 <desc>A minimal version of the default "top" display (e.g. for panel screens).</desc>
 <title>Topframe one row</title>
 <metadata>
  <atv:gridconfig gridstyle="lines" width="10" enabled="true" height="10"/>
  <atv:snapconfig width="5" enabled="true" height="5"/>
 </metadata>
 <path id="id_33" atv:refpy="59.436" fill="#000088" d="M0,0" stroke="#0000ff" stroke-width="2" atv:refpx="355.987"/>
 <path id="id_10" atv:refpy="59.501" fill="url(#linear_21)" d="M800,30.165C800,30.165 800,50 780.024,50C760.049,50 19.975,50 19.975,50C19.975,50 0,50 0,30.165C0,10.332 0,0 0,0C0,0 800,0 800,0C800,0 800,30.165 800,30.165" stroke="#c8c8c8" stroke-width="1" atv:refpx="639.201"/>
 <svg id="id_22" xlink:href="SYSTEM.LIBRARY.ATVISE.OBJECTDISPLAYS.Steelblue.hmi.button_group_display" width="160" atv:refpy="25" y="2.5" height="45" x="35" atv:refpx="115">
  <atv:argument value="#000000" name="symbolColor"/>
  <atv:argument value="#ffffff" name="symbolColor2"/>
 </svg>
 <svg id="id_11" xlink:href="SYSTEM.LIBRARY.ATVISE.OBJECTDISPLAYS.Steelblue.hmi.button_login" width="30" atv:refpy="24.999" transform="matrix(1.5,0,0,1.5,0,0)" y="1.667" height="30" x="320" atv:refpx="502.498">
  <atv:overwrite id="button_stroke" width="37.5" transform="matrix(0.6667,0,0,0.6667,0,0)" height="37.5"/>
  <atv:overwrite id="button_symbol" transform="matrix(0.6667,0,0,0.6667,0,0)" y="12.5" x="12.5"/>
  <atv:overwrite id="button_symbol_pressed" transform="matrix(0.6667,0,0,0.6667,0,0)" y="12.5" x="12.5"/>
  <atv:overwrite id="button_bg" width="37.5" transform="matrix(0.6667,0,0,0.6667,0,0)" height="37.5"/>
  <atv:overwrite id="id_3" width="39.5" transform="matrix(0.6667,0,0,0.6667,0,0)" height="39.5"/>
  <atv:overwrite id="id_0" width="44.5" transform="matrix(0.6667,0,0,0.6667,0,0)" height="44.5"/>
 </svg>
 <svg id="id_12" xlink:href="SYSTEM.LIBRARY.ATVISE.OBJECTDISPLAYS.Steelblue.hmi.button_switch_language" width="45" atv:refpy="25" y="2.5" height="45" x="420" atv:refpx="442.5">
  <atv:argument value="#ffffff" name="symbolColor"/>
 </svg>
 <rect id="id_5" width="194.5" atv:refpy="32.413" fill="#12181f" y="5" rx="5" ry="5" stroke="#b1b1b1" height="40" x="210.5" stroke-width="1" atv:refpx="865.301"/>
 <text id="username_label" font-family="Courier New" font-size="14" atv:refpy="-62.261" fill="#ffffff" y="20" x="396.231" atv:refpx="75.207" font-weight="bold" text-anchor="end"/>
 <text id="id_20" font-family="Courier New" font-size="14" atv:refpy="-269.5" fill="#ffffff" y="20" x="262.231" atv:refpx="-1499.827" font-weight="bold">T{User}:</text>
 <text id="language_label" font-family="Courier New" font-size="14" atv:refpy="-44.261" fill="#ffffff" y="38" x="396.231" atv:refpx="-777.066" font-weight="bold" text-anchor="end">T{}</text>
 <text id="id_25" font-family="Courier New" font-size="14" atv:refpy="-71.5" fill="#ffffff" y="38" x="262.231" atv:refpx="-1708.444" font-weight="bold">T{Language}:</text>
 <g atv:refpx="233.02" atv:refpy="25.039" id="logo_clickarea">
  <svg width="80" x="704.473" atv:refpx="232.976" y="40.06" atv:refpy="24.997" transform="matrix(0.313,0,0,0.313,0,0)" height="80" xlink:href="SYSTEM.LIBRARY.ATVISE.OBJECTDISPLAYS.Symbols.atvise_logo" id="atvise_logo"/>
  <rect stroke-width="0" fill="#000000" width="25" x="220.5" atv:refpx="247.6" fill-opacity="0.0001" y="12.5" atv:refpy="39.6" stroke="none" height="25" id="logo_click"/>
 </g>
 <g atv:refpx="690.898" atv:refpy="25.587" transform="matrix(1,0,0,1,-479.16,-69.8275)" visibility="hidden" id="redu_info">
  <g atv:refpx="1141.471" atv:refpy="97.989" transform="matrix(1,0,0,1,-0.9122,0.5935)" id="id_36">
   <text fill="#d4d4d4" x="1133.387" font-size="8" atv:refpx="1154.387" text-anchor="start" atv:refpy="85.735" y="89.235" font-family="Arial" id="id_31">T{STATUS}:</text>
   <text fill="#d4d4d4" x="1133.387" font-size="14" atv:refpx="1151.887" text-anchor="start" atv:refpy="101.735" y="105.235" font-family="Arial" font-weight="bold" id="redu_status"/>
  </g>
  <text id="redu_role" font-family="Arial" font-size="30" atv:refpy="100.328" fill="#d4d4d4" y="104.828" x="1103.16" atv:refpx="1101.888" font-weight="bold"/>
  <svg id="id_43" xlink:href="SYSTEM.LIBRARY.ATVISE.OBJECTDISPLAYS.Steelblue.button_open_display" width="80" atv:refpy="95.501" transform="matrix(0.5625,0,0,1.5,0,0)" y="48.667" height="30" x="2124.95" atv:refpx="1217.783">
   <atv:argument value="SYSTEM.LIBRARY.ATVISE.OBJECTDISPLAYS.Steelblue.redundancy.status" name="display"/>
   <atv:argument value="SYSTEM.LIBRARY.ATVISE.OBJECTDISPLAYS.Symbols.20x20.info" name="symbol"/>
   <atv:argument value="SYSTEM.LIBRARY.ATVISE.OBJECTDISPLAYS.Symbols.20x20.info" name="symbolPressed"/>
   <atv:argument value="#ffffff" name="symbolColor"/>
   <atv:argument value="hidden" name="visibilityLabel"/>
   <atv:argument value="inherit" name="visibilitySymbol"/>
   <atv:argument value="-999999" name="tabIndex"/>
   <atv:overwrite id="button_symbol_pressed" transform="matrix(1.7778,0,0,0.6667,0,0)" y="12.5" x="12.5"/>
   <atv:overwrite id="button_stroke" width="37" transform="matrix(1.7778,0,0,0.6667,0,0)" height="37"/>
   <atv:overwrite id="button_label" transform="matrix(1.7778,0,0,0.6667,0,0)" y="27" x="22.5"/>
   <atv:overwrite id="button_symbol" transform="matrix(1.7778,0,0,0.6667,0,0)" y="12.5" x="12.5"/>
   <atv:overwrite id="button_bg" width="37" transform="matrix(1.7778,0,0,0.6667,0,0)" height="37"/>
   <atv:overwrite id="id_2" width="39.5" transform="matrix(1.7778,0,0,0.6667,0,0)" height="39.5"/>
   <atv:overwrite id="id_0" width="44.5" transform="matrix(1.7778,0,0,0.6667,0,0)" height="44.5"/>
  </svg>
 </g>
 <script type="text/ecmascript"><![CDATA[var tabHandler = webMI.callExtension("SYSTEM.LIBRARY.ATVISE.QUICKDYNAMICS.Tab Handler");

webMI.addEvent("logo_clickarea", "click", function(e) {
var id = "logo_clickarea";
var value = true;
return function(value) {
	var names = tabHandler.getParentIFrameNames();
	for (var i=0;i<names.length;i++){
		var NN;
		webMI.trigger.fire("com.atvise.getDefaultDisplay_"+(NN=names[i]),function(display,url){
			if (url != undefined)
				webMI.display.openUrl(url, webMI.query,NN);
			else if (display != undefined)
				webMI.display.openDisplay(display, webMI.query,NN);
		});
	}
} (value);
});

webMI.addEvent(webMI.data, "clientvariableschange", function(e) {
	webMI.gfx.setText("username_label", (e.username) ? e.username : "");
});

webMI.addOnload(function() {
	var reduinfoInitialized = false;
	webMI.addEvent(webMI.data, "serverstatechange", function() {
		if (reduinfoInitialized)
			return;

		reduinfoInitialized = true;
		webMI.callExtension("SYSTEM.LIBRARY.ATVISE.QUICKDYNAMICS.Redundancy PopUp", {"display":"SYSTEM.LIBRARY.ATVISE.OBJECTDISPLAYS.Steelblue.redundancy.warning_dialog"});
		webMI.gfx.setVisible("redu_info", null);
		webMI.data.subscribe("AGENT.REDUNDANCY.role", function(e) {
			webMI.gfx.setText("redu_role", e.value.charAt(0));
		});

		webMI.data.subscribe("AGENT.REDUNDANCY.status", function(e) {
			e.value = getStatusTranslation(e.value);
			webMI.gfx.setText("redu_status", e.value);
		});
	});
});

function getStatusTranslation(text) {
	var statustext;
	switch(text) {
		case "Active":
			statustext = "T{Active}";
			break;
		case "Passive":
			statustext = "T{Passive}";
			break;
		case "SOP":
			statustext = "T{SOP}";
			break;
		case "SNOP":
			statustext = "T{SNOP}";
			break;
		default:
			statustext = text;
	}

	return statustext;
}

]]></script>
</svg>
