<svg width="30" height="128" viewBox="0 0 30 128" fill="none" xmlns="http://www.w3.org/2000/svg">
<path fill-rule="evenodd" clip-rule="evenodd" d="M10.3448 0.120697H7.75862V99.9483C3.10345 102.534 0 107.707 0 112.879C0 121.155 6.72414 127.879 15 127.879C23.2759 127.879 30 121.155 30 112.879C30 107.19 26.8966 102.534 22.2414 99.9483V0.120697H19.6552V98.9138C18.1034 98.3966 16.5517 98.3966 15 98.3966C13.4483 98.3966 11.8966 98.3966 10.3448 98.9138V0.120697V0.120697ZM15 104.086C20.1724 104.086 24.3103 108.224 24.3103 112.879C24.3103 118.052 20.1724 122.19 15 122.19C9.82759 122.19 5.68965 118.052 5.68965 112.879C5.68965 108.224 9.82759 104.086 15 104.086Z" fill="url(#paint0_linear)"/>
<defs>
<linearGradient id="paint0_linear" x1="6.2069" y1="45.1207" x2="52.2414" y2="44.6035" gradientUnits="userSpaceOnUse">
<stop stop-color="#FFC978"/>
<stop offset="0.129412" stop-color="#FFB156"/>
<stop offset="0.321569" stop-color="#FF9933"/>
<stop offset="1"/>
</linearGradient>
</defs>
</svg>
