<svg width="165" height="74" viewBox="0 0 165 74" fill="none" xmlns="http://www.w3.org/2000/svg">
<path fill-rule="evenodd" clip-rule="evenodd" d="M98.3424 8.07065L83.0978 1.79348V11.0509C84.2247 11.2448 85.1673 11.9775 85.6508 12.9742L98.3424 8.07065ZM85.995 14.6889C85.9983 14.6264 86 14.5634 86 14.5C86 14.284 85.9804 14.0726 85.943 13.8674L98.9402 8.66848L97.8731 14.004C96.988 14.0594 96.2589 14.6905 96.0562 15.5273L85.995 14.6889ZM96.0448 16.4231L85.8327 15.5721C85.5899 16.3275 85.0974 16.971 84.4523 17.4053L88.6954 27.2176C89.1043 27.0766 89.5432 27 90 27C90.4737 27 90.9281 27.0823 91.3498 27.2335L96.7315 17.5463C96.389 17.265 96.1415 16.8721 96.0448 16.4231ZM97.311 17.8782L91.959 27.5118C92.6536 27.9026 93.2196 28.495 93.5778 29.2095L105.516 24.212L98.8327 17.8189C98.5792 17.9352 98.2972 18 98 18C97.7579 18 97.5258 17.957 97.311 17.8782ZM99.5112 17.3101L105.217 23.0163L99.538 9.2663L98.7264 14.136C99.4718 14.4267 100 15.1517 100 16C100 16.5011 99.8157 16.9592 99.5112 17.3101ZM94 31C94 32.1336 93.5284 33.1571 92.7708 33.8849L99.2391 40.3533L105.516 25.1087L93.829 29.8393C93.9402 30.2066 94 30.5963 94 31ZM90 35C89.516 35 89.0521 34.914 88.6227 34.7566L83.6956 46.9294L98.6413 40.6522L92.4405 34.1695C91.7652 34.6903 90.9187 35 90 35ZM88.0164 34.4743C86.9233 33.8489 86.1537 32.7225 86.0206 31.408L77.9939 31.6756C77.944 32.3947 77.59 33.0301 77.0596 33.454L82.7989 47.2283L88.0164 34.4743ZM73.8939 33.4159C74.3283 33.7805 74.8885 34 75.5 34C75.8458 34 76.1753 33.9298 76.4749 33.8028L81.9022 47.2283L66.6576 40.6522L73.8939 33.4159ZM73.4631 32.9499L66.0598 40.3533L59.7826 25.1087L73.1548 30.632C73.0547 30.9024 73 31.1948 73 31.5C73 32.0405 73.1715 32.541 73.4631 32.9499ZM73.4723 30.0374L59.7826 24.212L65.4348 18.5598C65.8904 18.839 66.4264 19 67 19C67.5426 19 68.0516 18.8559 68.4907 18.604L74.406 29.2514C74.0335 29.433 73.7129 29.7044 73.4723 30.0374ZM64 16C64 14.5081 65.089 13.2706 66.5154 13.0389L65.7609 9.2663L60.0815 23.0163L64.9282 18.1697C64.3563 17.6234 64 16.8533 64 16ZM66.3587 8.66848L67.1235 13.0025C68.5688 13.061 69.7507 14.1421 69.9652 15.5417L79.0068 14.7197C79.0023 14.6471 79 14.5738 79 14.5C79 14.2449 79.0273 13.9962 79.0791 13.7566L66.3587 8.66848ZM79.0941 15.3096L69.9969 16.1366C69.9857 16.3881 69.9434 16.6315 69.874 16.8632C69.7675 17.3677 69.5577 17.7249 69.3478 17.9348L69.2927 17.9349C69.2165 18.0251 69.1351 18.1107 69.049 18.1913L69.0489 18.2337L75.0272 28.9946H75.625H76.2228L81.0322 17.6783C80.0697 17.2331 79.3437 16.3635 79.0941 15.3096ZM77.1386 29.6118L77.1196 29.5924L76.8206 29.2935L81.6632 17.8993C81.9313 17.9651 82.2116 18 82.5 18C82.9802 18 83.4377 17.9033 83.8543 17.7283L87.8635 27.6177C86.7995 28.2913 86.0752 29.453 86.0055 30.788H77.8972C77.7601 30.326 77.4932 29.9198 77.1386 29.6118ZM82.2011 11.0126C80.8898 11.1235 79.7844 11.9574 79.2851 13.1142L66.9565 8.07065L82.2011 1.79348V11.0126ZM82.7989 0L91.4674 3.58696L100.136 7.17391L103.723 15.8424L107.31 24.5109L103.723 33.1794L100.136 41.8478L91.4674 45.4348L82.7989 49.0217L73.8315 45.4348L65.163 41.8478L61.5761 33.1794L57.9891 24.5109L61.5761 15.8424L65.163 7.17391L73.8315 3.58696L82.7989 0ZM16.1413 64.5652C16.1413 65.7609 14.9457 66.9565 13.4511 66.9565H2.69022V60.0815H13.4511C14.9457 60.0815 16.1413 60.9783 16.1413 62.1739V64.5652ZM18.8315 62.1739C18.8315 59.7826 16.4402 57.6902 13.4511 57.6902H0V73.8315H2.69022V69.0489H13.4511C16.4402 69.0489 18.8315 66.9565 18.8315 64.5652V62.1739ZM20.9239 73.8315H23.6141L37.0652 64.2663V73.8315H39.7554V61.2772H37.0652L23.6141 70.5435V61.2772H20.9239V73.8315ZM58.587 63.6685V61.2772H42.4457V73.8315H45.1359V63.6685H58.587ZM63.6685 73.8315H66.3587L79.8098 61.2772V73.5326H82.5V58.288H79.8098L66.3587 70.5435V58.288H63.6685V73.8315ZM87.8804 61.2772H85.1902V73.5326H87.8804V68.75H101.332L101.033 73.8315H103.723V61.2772H101.033L101.332 66.3587H87.8804V61.2772ZM124.049 63.6685V61.2772H105.217V63.6685H113.288V73.8315H115.978V63.6685H124.049ZM127.935 63.6685H144.076V61.2772H125.245V73.8315H144.076V71.4402H127.935V68.75H141.386V66.3587H127.935V63.6685ZM151.549 61.2772C148.56 61.2772 146.168 63.0707 146.168 65.462V73.8315H148.859V65.462C148.859 64.2663 150.054 63.6685 151.549 63.6685H162.31V73.8315H165V61.2772H151.549Z" fill="#C4C4C4"/>
</svg>
