<?xml version='1.0' encoding='UTF-8' standalone='no'?>
<svg width="60" xmlns:xlink="http://www.w3.org/1999/xlink" xmlns:atv="http://webmi.atvise.com/2007/svgext" version="1.1" xmlns="http://www.w3.org/2000/svg" y="0px" height="60" enable-background="new 0 0 72 72" id="Ebene_1" x="0px" xml:space="preserve">
 <defs/>
 <metadata>
  <atv:parameter desc="symbol color" defaultvalue="#000000" name="symbolColor" substitute="$SYMBOLCOLOR$" valuetype="color" behavior="optional"/>
  <atv:gridconfig width="20" height="20" gridstyle="lines" enabled="false"/>
  <atv:snapconfig width="10" height="10" enabled="false"/>
 </metadata>
 <g atv:refpy="30" id="id_2" transform="matrix(1,0,0,1,1.0375,0.0096)" atv:refpx="30">
  <path atv:refpy="43.435" fill="$SYMBOLCOLOR$" id="id_0" atv:refpx="28.966" d="M41.089,10.075L41.089,17.611C45.081,21.036 47.623,26.108 47.623,31.768C47.623,42.061 39.253,50.432 28.96,50.432C18.668,50.432 10.298,42.06 10.298,31.768C10.298,26.682 12.344,22.072 15.655,18.703L15.655,10.782C8.716,15.196 4.1,22.953 4.1,31.768C4.1,45.478 15.252,56.633 28.962,56.633C42.669,56.633 53.824,45.478 53.824,31.768C53.824,22.46 48.68,14.336 41.089,10.075"/>
  <polygon atv:refpy="14.579" fill="$SYMBOLCOLOR$" id="id_1" atv:refpx="54.537" points="32.348,25.805 25.573,25.805 25.573,3.347 32.348,3.347 32.348,25.805"/>
 </g>
</svg>
