<?xml version='1.0' encoding='UTF-8' standalone='no'?>
<svg id="Ebene_1" xml:space="preserve" enable-background="new 0 0 50 50" x="0px" xmlns:atv="http://webmi.atvise.com/2007/svgext" y="0px" xmlns="http://www.w3.org/2000/svg" version="1.1" xmlns:xlink="http://www.w3.org/1999/xlink" width="40" height="40">
 <defs/>
 <metadata>
  <atv:parameter valuetype="color" behavior="optional" substitute="$SYMBOLCOLOR$" defaultvalue="#000000" name="symbolColor" desc="symbol color"/>
  <atv:gridconfig gridstyle="lines" enabled="false" width="20" height="20"/>
  <atv:snapconfig enabled="false" width="10" height="10"/>
 </metadata>
 <g id="id_1" atv:refpx="20.001" atv:refpy="20.001">
  <path stroke-width="1" d="M24.194,14.344L24.194,12.989L18.205,12.989C18.205,15.82 15.929,18.116 13.122,18.116C10.315,18.116 8.039,15.821 8.039,12.989L2.051,12.989L2.051,14.344L5.416,14.994C5.609,15.751 5.907,16.463 6.297,17.116L4.506,19.778L6.376,21.664L9.01,19.861C9.668,20.262 10.387,20.569 11.152,20.766L11.792,24.137L14.435,24.137L15.076,20.77C15.848,20.574 16.575,20.264 17.239,19.858L19.877,21.664L21.747,19.778L19.951,17.109C20.338,16.458 20.635,15.748 20.827,14.995Z" id="id_25" atv:refpx="13.123" atv:refpy="43.786" fill="$SYMBOLCOLOR$"/>
  <path stroke-width="1" d="M24.194,11.844L24.194,13.2L18.205,13.2C18.205,10.369 15.929,8.071 13.122,8.071C10.315,8.071 8.039,10.367 8.039,13.2L2.051,13.2L2.051,11.844L5.416,11.194C5.609,10.438 5.907,9.725 6.296,9.073L4.506,6.41L6.376,4.524L9.009,6.327C9.668,5.925 10.387,5.619 11.151,5.422L11.792,2.05L14.435,2.05L15.076,5.417C15.848,5.614 16.575,5.923 17.24,6.329L19.877,4.523L21.748,6.409L19.952,9.079C20.339,9.73 20.636,10.44 20.828,11.193Z" id="id_26" atv:refpx="16.99" atv:refpy="7.625" fill="$SYMBOLCOLOR$"/>
  <path stroke-width="0.718" d="M37.951,24.218L37.442,22.962L31.891,25.21C32.954,27.835 31.705,30.817 29.103,31.869C26.502,32.923 23.53,31.649 22.468,29.025L16.916,31.272L17.424,32.529L20.789,31.868C21.253,32.497 21.795,33.045 22.402,33.505L21.74,36.644L24.18,37.691L25.946,35.03C26.707,35.157 27.489,35.171 28.271,35.066L30.13,37.951L32.579,36.959L31.909,33.597C32.552,33.126 33.108,32.564 33.572,31.939L36.695,32.622L37.722,30.173L35.055,28.372C35.169,27.623 35.178,26.855 35.073,26.083Z" id="id_28" atv:refpx="27.434" atv:refpy="53.419" fill="$SYMBOLCOLOR$"/>
  <path stroke-width="0.718" d="M37.012,21.9L37.52,23.157L31.969,25.404C30.907,22.78 27.934,21.506 25.331,22.561C22.73,23.614 21.483,26.594 22.546,29.22L16.994,31.468L16.485,30.211L19.362,28.344C19.257,27.573 19.266,26.8 19.38,26.049L16.722,24.253L17.748,21.803L20.866,22.486C21.327,21.866 21.877,21.311 22.512,20.841L21.84,17.476L24.29,16.485L26.148,19.365C26.938,19.258 27.728,19.273 28.497,19.4L30.264,16.736L32.706,17.782L32.042,20.93C32.646,21.389 33.187,21.936 33.647,22.561Z" id="id_29" atv:refpx="43.49" atv:refpy="23.977" fill="$SYMBOLCOLOR$"/>
 </g>
</svg>
