<?xml version='1.0' encoding='UTF-8' standalone='no'?>
<svg version="1.2" xmlns="http://www.w3.org/2000/svg" height="131.79" xmlns:xlink="http://www.w3.org/1999/xlink" width="134.22" xmlns:atv="http://webmi.atvise.com/2007/svgext">
 <defs/>
 <metadata>
  <atv:parameter desc="Минимальное значение " behavior="optional" substitute="" valuetype="address" name="min"/>
  <atv:parameter defaultvalue="" desc="Максимальное число" behavior="optional" valuetype="address" name="max"/>
  <atv:parameter defaultvalue="" desc="Первая строка" behavior="optional" substitute="$FIRSTSTRING$" valuetype="string" name="First"/>
  <atv:parameter defaultvalue="" desc="Вторая строка" behavior="optional" substitute="$SECONDSTRING$" valuetype="string" name="Second"/>
  <atv:parameter defaultvalue="" desc="Третья строка" behavior="optional" substitute="$THIRDSTRING$" valuetype="string" name="Third"/>
  <atv:gridconfig enabled="false" gridstyle="lines" height="20" width="20"/>
  <atv:snapconfig enabled="false" height="10" width="10"/>
 </metadata>
 <rect atv:refpx="62.371" id="id_19" stroke-width="0" y="9.579" stroke="#4089f6" atv:refpy="70.687" fill="#242424" x="0" height="122.215" width="124.741"/>
 <rect atv:refpx="70.214" id="id_1" stroke-width="0" y="1.413" stroke="#0000ff" atv:refpy="62.583" fill="#000000" x="7.684" height="122.339" width="125.063"/>
 <text atv:refpx="43.828" font-family="Arial" id="id_3" y="74.265" atv:refpy="72.257" fill="#f6f6f6" x="29.059" transform="matrix(1.2109,0,0,1.2167,-5.2853,-12.626)" font-size="12">MAX</text>
 <text atv:refpx="43.07" font-family="Arial" id="id_5" y="105.101" atv:refpy="103.093" fill="#f6f6f6" x="30.012" transform="matrix(1.2109,0,0,1.2167,-5.3808,-19.3081)" font-size="12">MIN</text>
 <svg xlink:href="SYSTEM.LIBRARY.PROJECT.OBJECTDISPLAYS.FlatComponents.EditableLabel" atv:refpx="99.563" id="id_9" y="88.118" atv:refpy="73.203" x="141.286" transform="matrix(0.5492,0,0,0.7064,0,0)" height="31" width="80">
  <atv:argument name="fontColor" value="#ffffff"/>
  <atv:argument name="controlTextColor" value="#000000"/>
  <atv:argument name="controlTintColor" value="#ffffff"/>
  <atv:argument name="editingBorderColor" value="#ffffff"/>
  <atv:argument name="editingBackgroundColor" value="#ffffff"/>
  <atv:argument name="focusStrokeColor" value="#ffffff"/>
  <atv:argument name="fillColorInactive" value="#ffffff"/>
  <atv:argument name="fill" value="#ffffff"/>
  <atv:argument name="controlEditingBackgroundColor" value="#ffffff"/>
  <atv:argument name="controlActiveBackgroundColor" value="#ffffff"/>
  <atv:argument name="controlBackgroundColor" value="#ffffff"/>
  <atv:argument prefix="max" name="base"/>
  <atv:overwrite id="input_label" y="16.949" x="21.966" transform="matrix(1.821,0,0,1.4156,0,0)"/>
  <atv:overwrite id="input_bg" transform="matrix(1.821,0,0,1.4156,0,0)" height="20.899" width="42.932"/>
  <atv:overwrite id="blinking_frame" transform="matrix(1.821,0,0,1.4156,0,0)" height="37.399" width="116.258"/>
 </svg>
 <svg xlink:href="SYSTEM.LIBRARY.PROJECT.OBJECTDISPLAYS.FlatComponents.EditableLabel" atv:refpx="100.088" id="id_10" y="132.447" atv:refpy="104.512" x="140.434" transform="matrix(0.5492,0,0,0.7064,0,0)" height="31" width="80">
  <atv:argument name="fontColor" value="#ffffff"/>
  <atv:argument name="controlTextColor" value="#000000"/>
  <atv:argument name="controlTintColor" value="#ffffff"/>
  <atv:argument name="editingBorderColor" value="#ffffff"/>
  <atv:argument name="editingBackgroundColor" value="#ffffff"/>
  <atv:argument name="focusStrokeColor" value="#ffffff"/>
  <atv:argument name="fillColorInactive" value="#ffffff"/>
  <atv:argument name="fill" value="#ffffff"/>
  <atv:argument name="controlEditingBackgroundColor" value="#ffffff"/>
  <atv:argument name="controlActiveBackgroundColor" value="#ffffff"/>
  <atv:argument name="controlBackgroundColor" value="#ffffff"/>
  <atv:argument prefix="min" name="base"/>
  <atv:overwrite id="input_label" y="16.949" x="21.966" transform="matrix(1.821,0,0,1.4156,0,0)"/>
  <atv:overwrite id="input_bg" transform="matrix(1.821,0,0,1.4156,0,0)" height="20.899" width="42.932"/>
  <atv:overwrite id="blinking_frame" transform="matrix(1.821,0,0,1.4156,0,0)" height="37.399" width="116.258"/>
 </svg>
 <text text-anchor="middle" atv:refpx="72.468" font-family="Arial" id="id_12" y="14" atv:refpy="11.559" fill="#f6f6f6" x="63.082" transform="matrix(1.2109,0,0,1.2167,-3.9193,0)" font-size="10">$FIRSTSTRING$</text>
 <text text-anchor="middle" atv:refpx="72.468" font-family="Arial" id="id_13" y="49.815" atv:refpy="47.373" fill="#f6f6f6" x="62.977" transform="matrix(1.2109,0,0,1.2167,-3.7916,-7.761)" font-size="10">$THIRDSTRING$</text>
 <text text-anchor="middle" atv:refpx="72.468" font-family="Arial" id="id_14" y="31.415" atv:refpy="28.973" fill="#f6f6f6" x="61.711" transform="matrix(1.2109,0,0,1.2167,-2.2592,-3.7737)" font-size="10">$SECONDSTRING$</text>
 <rect atv:refpx="71.718" ry="3.491" rx="3.491" id="id_17" stroke-width="1" y="58.887" stroke="#4089f6" atv:refpy="72.655" fill="none" x="16.779" height="27.538" width="107.878"/>
 <rect atv:refpx="71.856" ry="4.214" rx="4.214" id="id_18" stroke-width="1" y="90.698" stroke="#4089f6" atv:refpy="104.466" fill="none" x="16.916" height="27.538" width="107.878"/>
</svg>
