<?xml version='1.0' encoding='UTF-8' standalone='no'?>
<svg xmlns="http://www.w3.org/2000/svg" xmlns:inkscape="http://www.inkscape.org/namespaces/inkscape" xmlns:atv="http://webmi.atvise.com/2007/svgext" xmlns:svg="http://www.w3.org/2000/svg" height="71.81547500000001" xmlns:cc="http://creativecommons.org/ns#" xmlns:rdf="http://www.w3.org/1999/02/22-rdf-syntax-ns#" xmlns:dc="http://purl.org/dc/elements/1.1/" inkscape:version="1.0beta1 (d07a077, 2019-11-03)" xmlns:sodipodi="http://sodipodi.sourceforge.net/DTD/sodipodi-0.dtd" xmlns:xlink="http://www.w3.org/1999/xlink" version="1.1" width="62.744045" sodipodi:docname="Tank_3d_brown.svg" id="svg380">
 <defs id="defs374"/>
 <sodipodi:namedview inkscape:zoom="0.35" id="base" inkscape:window-y="23" inkscape:cy="355.71429" inkscape:cx="981.42857" inkscape:pageshadow="2" inkscape:window-maximized="0" inkscape:pageopacity="0.0" showgrid="false" bordercolor="#666666" pagecolor="#ffffff" inkscape:window-height="951" inkscape:document-units="mm" inkscape:document-rotation="0" borderopacity="1.0" inkscape:current-layer="layer1" inkscape:window-width="1644" inkscape:window-x="182"/>
 <metadata id="metadata377">
  <rdf:RDF>
   <cc:Work rdf:about="">
    <dc:format>image/svg+xml</dc:format>
    <dc:type rdf:resource="http://purl.org/dc/dcmitype/StillImage"/>
    <dc:title/>
   </cc:Work>
  </rdf:RDF>
  <atv:gridconfig height="20" enabled="false" gridstyle="lines" width="20"/>
  <atv:snapconfig height="10" enabled="false" width="10"/>
 </metadata>
 <g inkscape:groupmode="layer" atv:refpy="35.908" atv:refpx="31.372" transform="translate(153.83631,-54.050595)" id="layer1" inkscape:label="Слой 1">
  <g atv:refpy="89.959" atv:refpx="-122.464" transform="matrix(0.62744047,0,0,0.71815476,-153.83631,54.050595)" id="g447">
   <g atv:refpy="50" atv:refpx="50" id="frame">
    <rect height="100" y="0" x="0" atv:refpy="50" atv:refpx="50" fill="none" width="100" id="rect424"/>
   </g>
   <g atv:refpy="50.001" atv:refpx="50" id="shape">
    <path inkscape:connector-curvature="0" d="M50,100L12.806,62.806L12.806,5.135L16.397,4.094C35.239,-1.363 64.757,-1.363 83.603,4.094L87.194,5.135L87.194,62.806Z" atv:refpy="50" atv:refpx="50" fill="#c78163" id="path427"/>
    <rect height="11.333" y="88.667" x="44.342999" atv:refpy="94.334" atv:refpx="50" fill="#c78163" width="11.314" id="rect429"/>
   </g>
   <g atv:refpy="50.344" atv:refpx="50" id="dark">
    <path inkscape:connector-curvature="0" d="M50,99.12L13.428,62.548L13.428,5.603L16.57,4.693C35.003,-0.648 64.995,-0.648 83.43,4.693L86.572,5.603L86.572,62.548Z" atv:refpy="49.904" atv:refpx="50" fill="#947365" id="path432"/>
    <rect height="11.333" y="88.667" x="45.049999" atv:refpy="94.334" atv:refpx="50" fill="#947365" width="9.8999996" id="rect434"/>
   </g>
   <g atv:refpy="50.962" atv:refpx="49.999" id="light">
    <path inkscape:connector-curvature="0" d="M50,97.361L14.672,62.034L14.672,6.537L16.916,5.887C35.158,0.601 64.84,0.601 83.083,5.887L85.327,6.537L85.327,62.033Z" atv:refpy="49.642" atv:refpx="49.999" fill="#de9c5f" id="path437"/>
    <rect height="11.333" y="88.667" x="46.464001" atv:refpy="94.334" atv:refpx="50" fill="#de9c5f" width="7.0710001" id="rect439"/>
   </g>
   <g atv:refpy="51.425" atv:refpx="50" id="hlight">
    <path inkscape:connector-curvature="0" d="M50,96.042L15.605,61.647L15.605,7.238L17.176,6.783C35.276,1.539 64.724,1.538 82.824,6.783L84.395,7.238L84.395,61.647Z" atv:refpy="49.446" atv:refpx="50" fill="#fbbc5a" id="path442"/>
    <rect height="11.333" y="88.667" x="47.525002" atv:refpy="94.334" atv:refpx="50" fill="#fbbc5a" width="4.9499998" id="rect444"/>
   </g>
  </g>
 </g>
</svg>
