<?xml version='1.0' encoding='UTF-8' standalone='no'?>
<svg y="0px" id="Layer_1" xmlns:cc="http://creativecommons.org/ns#" x="0px" height="98.26000000000001" width="54.52" xmlns:dc="http://purl.org/dc/elements/1.1/" xmlns:rdf="http://www.w3.org/1999/02/22-rdf-syntax-ns#" xmlns:svg="http://www.w3.org/2000/svg" xml:space="preserve" xmlns:atv="http://webmi.atvise.com/2007/svgext" xmlns="http://www.w3.org/2000/svg" xmlns:xlink="http://www.w3.org/1999/xlink" version="1.1">
 <defs id="defs80"/>
 <desc>Copyright Opto 22</desc>
 <metadata id="metadata82">
  <rdf:RDF>
   <cc:Work rdf:about="">
    <dc:format>image/svg+xml</dc:format>
    <dc:type rdf:resource="http://purl.org/dc/dcmitype/StillImage"/>
    <dc:title/>
   </cc:Work>
  </rdf:RDF>
  <atv:gridconfig height="20" width="20" gridstyle="lines" enabled="false"/>
  <atv:snapconfig height="10" width="10" enabled="false"/>
 </metadata>
 <g id="g147" transform="matrix(1,0,0,1,-22.738,-0.868)" atv:refpy="49.132" atv:refpx="27.262">
  <g id="shape-8" atv:refpy="50" atv:refpx="50">
   <path id="path123" d="M74.865,97.035L74.865,60.186L73.068,58.902L73.068,18.843L67.977,18.843L67.977,15.571C69.717,14.951 70.971,13.306 70.971,11.353C70.971,8.87 68.958,6.859 66.477,6.859C64.522,6.859 62.878,8.113 62.259,9.853L53.618,9.853C52.998,8.113 51.354,6.859 49.401,6.859C46.918,6.859 44.907,8.872 44.907,11.353C44.907,13.306 46.16,14.952 47.901,15.571L47.901,18.843L40.862,18.843L40.862,16.447L43.109,16.447L43.109,0.868L28.729,0.868L28.729,16.447L31.276,16.447L31.276,18.843L26.932,18.843L26.932,58.902L25.134,60.186L25.134,97.035L22.738,97.035L22.738,99.131L25.134,99.131L29.329,99.131L70.67,99.131L74.865,99.131L77.262,99.131L77.262,97.035ZM70.671,85.996L56.946,85.996L56.946,84.975L55.67,84.975L55.67,85.996L54.048,85.996L54.048,85.146C54.048,83.096 53.728,81.278 53.242,80.195L53.449,80.195L53.449,77.562L70.672,77.562L70.672,85.996ZM50.901,15.571C52.17,15.119 53.167,14.122 53.618,12.853L62.258,12.853C62.71,14.122 63.707,15.119 64.977,15.571L64.977,18.843L50.901,18.843ZM44.907,97.035L44.907,93.524L45.209,93.524L45.209,91.738L45.655,91.738L45.655,83.062L45.209,83.062L45.209,81.34L42.656,81.34L42.656,83.062L35.768,83.062L35.768,81.34L33.215,81.34L33.215,83.062L32.576,83.062L32.576,82.679C32.576,82.679 32.088,82.679 31.492,82.679C30.896,82.679 30.408,84.479 30.408,86.679L30.408,88.12C30.408,90.32 30.896,92.12 31.492,92.12C31.833,92.12 32.125,92.12 32.325,92.12L32.325,97.035L29.33,97.035L29.33,77.562L50.9,77.562L50.9,80.195L51.168,80.195C50.682,81.277 50.362,83.095 50.362,85.145L50.362,85.294C50.259,85.294 50.151,85.294 50.036,85.294C49.52,85.294 49.097,86.132 49.047,87.192C48.997,86.132 48.574,85.294 48.058,85.294C47.923,85.294 47.794,85.294 47.676,85.294C47.512,83.972 47.174,83.047 46.782,83.047C46.232,83.047 45.782,83.047 45.782,83.047L45.782,91.752C45.782,91.752 46.232,91.752 46.782,91.752C47.174,91.752 47.512,90.828 47.676,89.505C47.794,89.505 47.923,89.505 48.058,89.505C48.574,89.505 48.997,88.667 49.047,87.607C49.097,88.667 49.52,89.505 50.036,89.505C50.151,89.505 50.259,89.505 50.362,89.505L50.362,89.653C50.362,92.953 51.191,95.653 52.205,95.653C53.219,95.653 54.048,92.953 54.048,89.653L54.048,88.804L55.67,88.804L55.67,89.825L56.946,89.825L56.946,88.348L70.671,88.348L70.671,97.036L44.907,97.036Z" fill="#52a6f9" atv:refpy="50" atv:refpx="50"/>
  </g>
  <g id="dark-0" atv:refpy="86.608" atv:refpx="51.138">
   <path id="path126" d="M45.208,81.34L42.655,81.34L42.655,83.062L35.767,83.062L35.767,81.34L33.214,81.34L33.214,83.062L32.575,83.062L32.575,82.679C32.575,82.679 32.087,82.679 31.491,82.679C30.895,82.679 30.407,84.479 30.407,86.679L30.407,88.12C30.407,90.32 30.895,92.12 31.491,92.12C32.087,92.12 32.575,92.12 32.575,92.12L32.575,91.738L33.214,91.738L33.214,93.524L35.767,93.524L35.767,91.738L42.655,91.738L42.655,93.524L45.208,93.524L45.208,91.738L45.654,91.738L45.654,83.062L45.208,83.062Z" fill="#3185d8" atv:refpy="87.432" atv:refpx="38.031"/>
   <path id="path128" d="M71.869,85.996L56.946,85.996L56.946,84.975L55.67,84.975L55.67,85.996L54.048,85.996L54.048,85.146C54.048,83.096 53.728,81.278 53.242,80.195L53.449,80.195L53.449,77.562L50.9,77.562L50.9,80.195L51.168,80.195C50.682,81.277 50.362,83.095 50.362,85.145L50.362,85.294C50.259,85.294 50.151,85.294 50.036,85.294C49.52,85.294 49.097,86.132 49.047,87.192C48.997,86.132 48.574,85.294 48.058,85.294C47.923,85.294 47.794,85.294 47.676,85.294C47.512,83.972 47.174,83.047 46.782,83.047C46.232,83.047 45.782,83.047 45.782,83.047L45.782,91.752C45.782,91.752 46.232,91.752 46.782,91.752C47.174,91.752 47.512,90.828 47.676,89.505C47.794,89.505 47.923,89.505 48.058,89.505C48.574,89.505 48.997,88.667 49.047,87.607C49.097,88.667 49.52,89.505 50.036,89.505C50.151,89.505 50.259,89.505 50.362,89.505L50.362,89.653C50.362,92.953 51.191,95.653 52.205,95.653C53.219,95.653 54.048,92.953 54.048,89.653L54.048,88.804L55.67,88.804L55.67,89.825L56.946,89.825L56.946,88.348L71.869,88.348Z" fill="#3185d8" atv:refpy="86.608" atv:refpx="58.826"/>
  </g>
  <g id="shadow-0" atv:refpy="56.741" atv:refpx="38.091">
   <rect id="rect131" y="16.447001" fill="#254a70" height="2.3959999" x="31.275999" atv:refpy="17.645" width="9.5860004" atv:refpx="36.069"/>
   <path id="path133" d="M44.907,93.524L42.656,93.524L42.656,91.738L35.768,91.738L35.768,93.524L33.215,93.524L33.215,91.738L32.576,91.738L32.576,92.12C32.576,92.12 32.473,92.12 32.323,92.12L32.323,97.035L44.907,97.035Z" fill="#254a70" atv:refpy="94.387" atv:refpx="38.615"/>
  </g>
  <g id="hlight-5" atv:refpy="49.21" atv:refpx="51.292">
   <rect id="rect136" y="83.838997" fill="#a5d2ff" height="1" x="32.449001" atv:refpy="84.339" width="13.27" atv:refpx="39.084"/>
   <rect id="rect138" y="89.261002" fill="#a5d2ff" height="1" x="32.449001" atv:refpy="89.761" width="13.27" atv:refpx="39.084"/>
   <rect id="rect140" y="90.472" fill="#a5d2ff" height="1" x="32.449001" atv:refpy="90.972" width="13.27" atv:refpx="39.084"/>
   <rect id="rect142" y="7.408" transform="matrix(0.8423,0.539,-0.539,0.8423,15.8619,-34.9569)" fill="#a5d2ff" height="4.4450002" x="66.175003" atv:refpy="9.632" width="3" atv:refpx="67.674"/>
   <rect id="rect144" y="7.408" transform="matrix(0.8422,0.5391,-0.5391,0.8422,13.1046,-25.5174)" fill="#a5d2ff" height="4.4460001" x="48.650002" atv:refpy="9.63" width="3" atv:refpx="50.149"/>
  </g>
 </g>
</svg>
