<?xml version='1.0' encoding='UTF-8' standalone='no'?>
<svg xmlns:svg="http://www.w3.org/2000/svg" version="1.2" xmlns="http://www.w3.org/2000/svg" xmlns:rdf="http://www.w3.org/1999/02/22-rdf-syntax-ns#" height="50" xmlns:xlink="http://www.w3.org/1999/xlink" width="48" xmlns:dc="http://purl.org/dc/elements/1.1/" xmlns:atv="http://webmi.atvise.com/2007/svgext" xmlns:cc="http://creativecommons.org/ns#">
 <defs/>
 <metadata>
  <atv:gridconfig height="20" width="20" enabled="false" gridstyle="lines"/>
  <atv:snapconfig height="10" width="10" enabled="false"/>
 </metadata>
 <g atv:refpy="25" transform="matrix(1,0,0,1,0,0)" id="id_1" atv:refpx="24">
  <g atv:refpy="25" transform="translate(-15.180243,-29.467968)" id="layer1" atv:refpx="24">
   <g atv:refpy="54.892" transform="matrix(0.52766968,0,0,0.51413882,12.863245,28.781593)" id="shadow" atv:refpx="39.049">
    <polygon fill="#666" atv:refpy="50.785" id="polygon37" atv:refpx="49.625" points="91.417,93.802 90.951,98.585 5.208,97.769 4.391,93.744 25.331,2.985 94.859,3.335 "/>
   </g>
   <g atv:refpy="54.172" transform="matrix(0.52766968,0,0,0.51413882,12.863245,28.781593)" id="light" atv:refpx="39.049">
    <polygon fill="#b2b2b2" atv:refpy="49.385" id="polygon40" atv:refpx="49.625" points="91.417,92.403 90.951,97.185 5.208,96.369 4.391,92.344 25.331,1.585 94.859,1.935 "/>
   </g>
   <polygon fill="#999" atv:refpy="52.943" id="polygon43" atv:refpx="39.28" points="26.229,29.596 62.917,29.776 60.731,76.289 15.641,75.989"/>
   <g atv:refpy="53.007" transform="matrix(0.52766968,0,0,0.51413882,12.863245,28.781593)" id="hlight" atv:refpx="39.282">
    <path fill="#ccc" d="M95.357,1.958L94.858,1.935L94.859,1.685L25.332,1.335L25.331,1.585L24.843,1.477L4.778,91.711L5.266,91.819L5.263,92.319L90.715,92.902L90.718,92.402L91.217,92.424ZM74.916,24.76L73.96,35.404L56.106,35.301L57.531,24.663ZM57.614,24.039L59.047,13.338L75.934,13.427L74.972,24.135ZM53.089,57.827L54.497,47.314L72.88,47.425L71.935,57.944ZM71.862,58.756L70.922,69.214L51.58,69.09L52.98,58.639ZM54.597,46.564L56.014,35.988L73.898,36.092L72.947,46.675ZM55.098,35.295L37.25,35.192L39.144,24.561L56.524,24.658ZM55.006,35.982L53.59,46.558L35.245,46.447L37.128,35.878ZM53.489,47.307L52.081,57.82L33.24,57.703L35.112,47.197ZM51.971,58.632L50.571,69.083L31.234,68.958L33.095,58.513ZM50.455,69.957L49.063,80.345L29.23,80.214L31.079,69.833ZM51.463,69.964L70.844,70.089L69.91,80.484L50.071,80.352ZM71.847,70.095L91.232,70.22L90.756,80.622L70.914,80.49ZM71.925,69.221L72.865,58.763L91.751,58.881L91.272,69.346ZM72.939,57.951L73.883,47.43L92.27,47.541L91.788,58.068ZM73.951,46.68L74.901,36.097L92.789,36.201L92.304,46.791ZM74.964,35.41L75.92,24.765L93.309,24.862L92.821,35.514ZM75.976,24.141L76.938,13.433L93.828,13.522L93.338,24.237ZM76.988,12.87L77.956,2.1L94.347,2.183L93.854,12.96ZM75.985,12.865L59.124,12.776L60.566,2.013L76.953,2.096ZM58.116,12.77L41.26,12.681L43.176,1.925L59.558,2.008ZM58.04,13.333L56.607,24.034L39.255,23.938L41.16,13.244ZM38.239,23.931L20.895,23.835L23.271,13.149L40.144,13.238ZM38.129,24.555L36.235,35.185L18.395,35.082L20.756,24.458ZM36.113,35.873L34.23,46.441L15.893,46.331L18.242,35.769ZM34.097,47.19L32.226,57.696L13.393,57.578L15.728,47.079ZM32.081,58.508L30.221,68.952L10.892,68.827L13.213,58.39ZM30.065,69.826L28.216,80.207L8.39,80.075L10.697,69.701ZM28.049,81.143L26.211,91.462L5.889,91.324L8.182,81.012ZM29.063,81.15L48.938,81.282L47.555,91.608L27.225,91.469ZM49.946,81.289L69.826,81.421L68.898,91.754L48.562,91.615ZM70.829,81.427L90.714,81.559L90.241,91.899L69.901,91.76ZM25.787,1.838L42.161,1.92L40.245,12.676L23.397,12.587Z" atv:refpy="47.119" id="path46" atv:refpx="50.067"/>
   </g>
  </g>
 </g>
</svg>
