<?xml version='1.0' encoding='UTF-8' standalone='no'?>
<svg xmlns:xlink="http://www.w3.org/1999/xlink" xmlns="http://www.w3.org/2000/svg" version="1.2" height="50" width="50" xmlns:atv="http://webmi.atvise.com/2007/svgext">
 <defs/>
 <metadata>
  <atv:gridconfig height="20" width="20" gridstyle="lines" enabled="false"/>
  <atv:snapconfig height="10" width="10" enabled="false"/>
 </metadata>
 <g atv:refpy="25" transform="matrix(200,0,0,200,0,0)" id="id_2" atv:refpx="25">
  <svg atv:refpy="0.125" id="id_1" atv:refpx="0.125">
   <g>
    <g id="frame">
     <rect height="100" width="100" fill="none"/>
    </g>
    <g id="shape">
     <path d="M75.154,79.255H50c-16.131,0-29.255-13.124-29.255-29.255S33.869,20.745,50,20.745h25.154v8.511H50&#xd;&#xa;&#x9;&#x9;&#x9;c-11.438,0-20.745,9.306-20.745,20.745S38.562,70.745,50,70.745h25.154V79.255z" fill="#999"/>
    </g>
    <g id="dark">
     <path d="M75.154,78.5H50c-15.715,0-28.5-12.785-28.5-28.5S34.285,21.5,50,21.5h25.154v7H50&#xd;&#xa;&#x9;&#x9;&#x9;c-11.855,0-21.5,9.645-21.5,21.5S38.145,71.5,50,71.5h25.154V78.5z" fill="#808080"/>
    </g>
    <g id="light">
     <path d="M75.154,77.5H50c-15.164,0-27.5-12.336-27.5-27.5S34.836,22.5,50,22.5h25.154v5H50&#xd;&#xa;&#x9;&#x9;&#x9;c-12.407,0-22.5,10.093-22.5,22.5S37.593,72.5,50,72.5h25.154V77.5z" fill="#b2b2b2"/>
    </g>
    <g id="hlight">
     <path d="M75.154,76.75H50c-14.75,0-26.75-12-26.75-26.75s12-26.75,26.75-26.75h25.154v3.5H50&#xd;&#xa;&#x9;&#x9;&#x9;c-12.82,0-23.25,10.43-23.25,23.25S37.18,73.25,50,73.25h25.154V76.75z" fill="#ccc"/>
    </g>
   </g>
  </svg>
 </g>
</svg>
