<?xml version='1.0' encoding='UTF-8' standalone='no'?>
<svg height="275" version="1.2" width="655" xmlns="http://www.w3.org/2000/svg" xmlns:atv="http://webmi.atvise.com/2007/svgext" xmlns:xlink="http://www.w3.org/1999/xlink">
 <defs/>
 <metadata>
  <atv:gridconfig enabled="false" gridstyle="lines" height="20" width="20"/>
  <atv:snapconfig enabled="false" height="10" width="10"/>
 </metadata>
 <script atv:desc="" atv:name="" type="text/ecmascript"><![CDATA[
var x;
var startstop = 0;

function startStop() {

	startstop = startstop + 1;
	
	if (startstop === 1) {
		start();
	} else if (startstop === 2) {
		startstop = 0;
		stop();
	}

}


function start() {
	x = setInterval(timer, 10);
}

function stop() {
	clearInterval(x);
}

var milisec = 0;
var sec = 0;
var min = 0;
var hour = 0;

/* Contains and outputs returned value of  function checkTime */
var miliSecOut = 0;
var secOut = 0;
var minOut = 0;
var hourOut = 0;

/* Output variables End */

function timer() {
	/* Timer Function */
	
	miliSecOut = checkTime(milisec);
	secOut = checkTime(sec);
	minOut = checkTime(min);
	hourOut = checkTime(hour);
	
	milisec = ++milisec;
	
	if (milisec === 100) {
		milisec = 0;
		sec = ++sec;
	}
	
	if (sec == 60) {
		min = ++min;
		sec = 0;
	}
	
	if (min == 60) {
		min = 0;
		hour = ++hour;
	}

	webMI.gfx.setText("milisec",miliSecOut);
	webMI.gfx.setText("sec",secOut);
	webMI.gfx.setText("min",minOut);
	webMI.gfx.setText("hour",hourOut);

}


/* Adds 0 when value is <10 */
function checkTime(i) {
	if (i < 10) {
	i = "0" + i;
	}
	return i;
}

function reset() {

	/*Reset*/
	milisec = 0;
	sec = 0;
	min = 0
	hour = 0;
  
	webMI.gfx.setText("milisec","00");
	webMI.gfx.setText("sec","00");
	webMI.gfx.setText("min","00");
	webMI.gfx.setText("hour","00");

}



webMI.addEvent("startstop", "click", function(e) {
var id = "startstop";
var value = true;
	startStop();
});



webMI.addEvent("reset", "click", function(e) {
var id = "reset";
var value = true;
	reset();
});
]]></script>
 <rect atv:refpx="321.789" atv:refpy="206.665" fill="#e5e5e5" height="80.089" id="id_9" stroke="none" stroke-width="2" width="234.363" x="204.608" y="166.62"/>
 <svg atv:refpx="241.444" atv:refpy="206.421" height="30" id="startstop" transform="matrix(1,0,0,2.6667,0,0)" width="80" x="201.441" xlink:href="SYSTEM.LIBRARY.ATVISE.OBJECTDISPLAYS.Advanced.button_switch" y="62.408">
  <atv:argument name="labelOn" value="T{Stop}"/>
  <atv:argument name="labelOff" value="T{Start}"/>
  <atv:argument name="visibilityLabel" value="hidden"/>
  <atv:argument name="visibilitySymbol" value="inherit"/>
  <atv:argument name="symbolOn" value="SYSTEM.LIBRARY.ATVISE.OBJECTDISPLAYS.Symbols.20x20.stop"/>
  <atv:argument name="symbolOff" value="SYSTEM.LIBRARY.ATVISE.OBJECTDISPLAYS.Symbols.20x20.play"/>
  <atv:argument name="fontSize" value="48"/>
  <atv:argument name="fillOff" value="#e5e5e5"/>
  <atv:overwrite height="78.001" id="id_6" transform="matrix(1,0,0,0.375,0,0)"/>
  <atv:overwrite id="button_label" transform="matrix(1,0,0,0.375,0,0)" y="44.501"/>
  <atv:overwrite id="button_symbol_off" transform="matrix(1,0,0,0.375,0,0)" y="30.001"/>
  <atv:overwrite id="button_symbol_on" transform="matrix(1,0,0,0.375,0,0)" y="30.001"/>
  <atv:overwrite height="76.001" id="blinking_frame" transform="matrix(1,0,0,0.375,0,0)"/>
  <atv:overwrite height="76.001" id="button_stroke" transform="matrix(1,0,0,0.375,0,0)"/>
  <atv:overwrite height="78.001" id="button_bg" transform="matrix(1,0,0,0.375,0,0)"/>
  <atv:overwrite height="80.001" id="outer_frame" transform="matrix(1,0,0,0.375,0,0)"/>
 </svg>
 <svg atv:refpx="402.348" atv:refpy="206.425" height="30" id="reset" transform="matrix(1,0,0,2.6667,0,0)" width="80" x="362.35" xlink:href="SYSTEM.LIBRARY.ATVISE.OBJECTDISPLAYS.Advanced.button" y="62.408">
  <atv:argument name="label" value="T{Reset}"/>
  <atv:argument name="visibilitySymbol" value="inherit"/>
  <atv:argument name="symbol" value="SYSTEM.LIBRARY.ATVISE.OBJECTDISPLAYS.Symbols.20x20.rewind"/>
  <atv:argument name="visibilityLabel" value="hidden"/>
  <atv:overwrite height="78.001" id="id_6" transform="matrix(1,0,0,0.375,0,0)"/>
  <atv:overwrite id="button_label_2" transform="matrix(1,0,0,0.375,0,0)" y="51.501"/>
  <atv:overwrite id="button_label_1" transform="matrix(1,0,0,0.375,0,0)" y="36.501"/>
  <atv:overwrite id="button_label" transform="matrix(1,0,0,0.375,0,0)" y="44.501"/>
  <atv:overwrite id="button_symbol_bottom" transform="matrix(0.6,0,0,0.225,0,0)" y="67.96"/>
  <atv:overwrite id="button_symbol_top" transform="matrix(0.6,0,0,0.225,0,0)" y="46.627"/>
  <atv:overwrite id="button_symbol" transform="matrix(1,0,0,0.375,0,0)" y="30.001"/>
  <atv:overwrite height="76.001" id="button_stroke" transform="matrix(1,0,0,0.375,0,0)"/>
  <atv:overwrite height="78.001" id="button_bg" transform="matrix(1,0,0,0.375,0,0)"/>
  <atv:overwrite height="80.001" id="outer_frame" transform="matrix(1,0,0,0.375,0,0)"/>
 </svg>
 <text atv:refpx="175.126" atv:refpy="108.735" fill="#000000" font-family="Arial" font-size="48" id="hour" x="155.083" y="121.235">00</text>
 <text atv:refpx="271.469" atv:refpy="108.735" fill="#000000" font-family="Arial" font-size="48" id="min" x="252.469" y="121.235">00</text>
 <text atv:refpx="373.189" atv:refpy="108.011" fill="#000000" font-family="Arial" font-size="48" id="sec" x="354.189" y="120.511">00</text>
 <text atv:refpx="469.964" atv:refpy="108.735" fill="#000000" font-family="Arial" font-size="48" id="milisec" x="450.964" y="121.235">00</text>
 <text atv:refpx="227.738" atv:refpy="105.86" fill="#000000" font-family="Arial" font-size="48" id="id_2" x="224.738" y="118.36">:</text>
 <text atv:refpx="327.019" atv:refpy="105.86" fill="#000000" font-family="Arial" font-size="48" id="id_3" x="324.019" y="118.36">:</text>
 <text atv:refpx="425.112" atv:refpy="105.86" fill="#000000" font-family="Arial" font-size="48" id="id_4" x="422.112" y="118.36">:</text>
 <text atv:refpx="191.785" atv:refpy="32.86" fill="#000000" font-family="Arial" font-size="28" id="id_5" x="166.285" y="50.36">Hr</text>
 <text atv:refpx="293.484" atv:refpy="32.86" fill="#000000" font-family="Arial" font-size="28" id="id_7" x="256.227" y="50.36">Min</text>
 <text atv:refpx="395.693" atv:refpy="32.86" fill="#000000" font-family="Arial" font-size="28" id="id_8" x="355.544" y="50.36">Sec</text>
 <text atv:refpx="488.27" atv:refpy="32.86" fill="#000000" font-family="Arial" font-size="28" id="id_10" x="456.891" y="50.36">Ms</text>
</svg>
