<?xml version='1.0' encoding='UTF-8' standalone='no'?>
<svg width="60" x="0px" version="1.1" y="0px" xmlns="http://www.w3.org/2000/svg" height="60" xmlns:xlink="http://www.w3.org/1999/xlink" id="Ebene_1" enable-background="new 0 0 50 50" xml:space="preserve" xmlns:atv="http://webmi.atvise.com/2007/svgext">
 <defs/>
 <metadata>
  <atv:parameter desc="symbol color" valuetype="color" substitute="$SYMBOLCOLOR$" behavior="optional" name="symbolColor" defaultvalue="#000000"/>
 </metadata>
 <polygon points="11.875,2.986 11.875,57.341 48.113,57.341 48.113,15.066 36.034,2.986" fill="none" stroke="$SYMBOLCOLOR$" id="id_2" atv:refpx="77.955" stroke-width="2.415" atv:refpy="33.19"/>
 <polyline points="35.43,4.053 35.43,16.133 47.509,16.133" fill="$SYMBOLCOLOR$" stroke="none" id="id_3" atv:refpx="121.526" stroke-width="2.415" atv:refpy="10.099"/>
 <rect width="16.429" x="16.063" y="13.806" fill="$SYMBOLCOLOR$" height="1.755" stroke="none" id="id_4" atv:refpx="65.596" stroke-width="2.422" atv:refpy="14.683"/>
 <rect width="16.429" x="16.063" y="8.249" fill="$SYMBOLCOLOR$" height="1.755" stroke="none" id="id_6" atv:refpx="65.6" stroke-width="2.422" atv:refpy="9.126"/>
 <rect width="27.869" x="16.063" y="19.359" fill="$SYMBOLCOLOR$" height="1.755" stroke="none" id="id_7" atv:refpx="29.996" stroke-width="2.422" atv:refpy="68.956"/>
 <rect width="27.869" x="16.063" y="51.118" fill="$SYMBOLCOLOR$" height="1.755" stroke="none" id="id_8" atv:refpx="30" stroke-width="2.422" atv:refpy="164.228"/>
 <rect width="27.869" x="16.063" y="46.168" fill="$SYMBOLCOLOR$" height="1.755" stroke="none" id="id_9" atv:refpx="30" stroke-width="2.422" atv:refpy="149.373"/>
 <path fill="$SYMBOLCOLOR$" fill-rule="evenodd" stroke="none" id="id_0" atv:refpx="30.002" stroke-width="2" atv:refpy="33.573" d="M22.435,24.072L26.235,24.072L26.235,31.672L33.764,31.672L33.764,24.072L37.564,24.072L37.564,43.069L33.764,43.069L33.764,35.472L26.235,35.472L26.235,43.069L22.435,43.069Z"/>
</svg>
