<?xml version='1.0' encoding='UTF-8' standalone='no'?>
<svg width="20" x="0px" version="1.1" y="0px" xmlns="http://www.w3.org/2000/svg" height="20" xmlns:xlink="http://www.w3.org/1999/xlink" id="Ebene_1" enable-background="new 0 0 50 50" xml:space="preserve" xmlns:atv="http://webmi.atvise.com/2007/svgext">
 <defs/>
 <metadata>
  <atv:parameter desc="symbol color" valuetype="color" substitute="$SYMBOLCOLOR$" behavior="optional" name="symbolColor" defaultvalue="#000000"/>
 </metadata>
 <polygon points="4.837,2.258 4.837,17.741 15.16,17.741 15.16,5.699 11.719,2.258" fill="none" stroke="$SYMBOLCOLOR$" id="id_22" atv:refpx="23.661" stroke-width="0.688" atv:refpy="10.861"/>
 <polyline points="11.547,2.562 11.547,6.003 14.988,6.003" fill="$SYMBOLCOLOR$" stroke="none" id="id_25" atv:refpx="36.073" stroke-width="0.688" atv:refpy="4.283"/>
 <rect width="4.68" x="6.03" y="5.339" fill="$SYMBOLCOLOR$" height="0.5" stroke="none" id="id_1" atv:refpx="20.14" stroke-width="0.69" atv:refpy="5.589"/>
 <rect width="4.68" x="6.03" y="3.756" fill="$SYMBOLCOLOR$" height="0.5" stroke="none" id="id_0" atv:refpx="20.141" stroke-width="0.69" atv:refpy="4.006"/>
 <rect width="7.939" x="6.03" y="6.921" fill="$SYMBOLCOLOR$" height="0.5" stroke="none" id="id_2" atv:refpx="10" stroke-width="0.69" atv:refpy="21.258"/>
 <rect width="7.939" x="6.03" y="15.968" fill="$SYMBOLCOLOR$" height="0.5" stroke="none" id="id_3" atv:refpx="10" stroke-width="0.69" atv:refpy="48.4"/>
 <rect width="7.939" x="6.03" y="14.558" fill="$SYMBOLCOLOR$" height="0.5" stroke="none" id="id_4" atv:refpx="10" stroke-width="0.69" atv:refpy="44.168"/>
 <path fill="$SYMBOLCOLOR$" fill-rule="evenodd" stroke="none" id="id_9" atv:refpx="10.004" stroke-width="2" atv:refpy="10.977" d="M8.013,8.477L9.013,8.477L9.013,10.477L10.995,10.477L10.995,8.477L11.995,8.477L11.995,13.476L10.995,13.476L10.995,11.477L9.013,11.477L9.013,13.476L8.013,13.476Z"/>
</svg>
