<?xml version='1.0' encoding='UTF-8' standalone='no'?>
<svg xmlns:xlink="http://www.w3.org/1999/xlink" version="1.2" height="50" width="50" xmlns="http://www.w3.org/2000/svg" xmlns:atv="http://webmi.atvise.com/2007/svgext">
 <defs/>
 <metadata>
  <atv:gridconfig enabled="false" height="20" gridstyle="lines" width="20"/>
  <atv:snapconfig enabled="false" height="10" width="10"/>
 </metadata>
 <!--
 <g id="id_2" atv:refpx="25.006" transform="matrix(200,0,0,200,0.0061,-0.0061)" atv:refpy="24.994">
  <svg id="id_1" atv:refpx="0.125" atv:refpy="0.125">
   <g>
    <g id="frame">
     <rect fill="none" width="100" height="100"/>
    </g>
    <g id="shape">
     <rect x="38.8" y="25" fill="#999" width="22" height="6"/>
     <rect x="42" y="25" fill="#999" width="16" height="50"/>
    </g>
    <g id="dark">
     <rect x="43" y="25" fill="#808080" width="14" height="50"/>
    </g>
    <g id="light">
     <rect x="45" y="25" fill="#b2b2b2" width="10" height="50"/>
    </g>
    <g id="hlight">
     <rect x="46.5" y="25" fill="#ccc" width="7" height="50"/>
    </g>
   </g>
  </svg>
 </g>
-->
 <rect fill="#999999" x="19.4" stroke="#0000ff" stroke-width="0" y="12.5" height="3" id="id_9" atv:refpy="14" width="2.1" atv:refpx="20.45"/>
 <rect fill="#999999" x="21" stroke="#0000ff" stroke-width="0" y="12.503" height="2.997" id="id_11" atv:refpy="14.002" width="0.6" atv:refpx="21.3"/>
 <rect fill="#999999" x="28.5" stroke="#0000ff" stroke-width="0" y="12.5" height="2.997" id="id_13" atv:refpy="13.998" width="0.5" atv:refpx="28.75"/>
 <rect fill="#808080" x="21.5" stroke="#0000ff" stroke-width="0" y="12.5" height="2.997" id="id_0" atv:refpy="13.998" width="1.1" atv:refpx="22.05"/>
 <rect fill="#b2b2b2" x="22.5" stroke="#0000ff" stroke-width="0" y="12.5" height="2.997" id="id_4" atv:refpy="13.997" width="0.85" atv:refpx="22.925"/>
 <rect fill="#cccccc" x="23.25" stroke="#0000ff" stroke-width="0" y="12.5" height="2.997" id="id_5" atv:refpy="13.998" width="3.6" atv:refpx="25.05"/>
 <rect fill="#b2b2b2" x="26.75" stroke="#0000ff" stroke-width="0" y="12.5" height="2.997" id="id_6" atv:refpy="13.996" width="0.85" atv:refpx="27.175"/>
 <rect fill="#808080" x="27.5" stroke="#0000ff" stroke-width="0" y="12.5" height="2.997" id="id_7" atv:refpy="13.998" width="1.1" atv:refpx="28.05"/>
 <rect fill="#999999" x="28.5" stroke="#0000ff" stroke-width="0" y="12.5" height="3" id="id_10" atv:refpy="14" width="2.1" atv:refpx="29.55"/>
</svg>
