<svg width="316" height="72" viewBox="0 0 316 72" fill="none" xmlns="http://www.w3.org/2000/svg">
<g clip-path="url(#clip0)">
<path d="M58.6388 11.7734L36.4412 2.60217L36.5224 17.3329C37.4558 17.4546 38.308 17.901 38.9572 18.5503C39.2819 18.8749 39.5254 19.1996 39.7283 19.6054L58.6388 11.7734ZM35.9137 0.0861816L48.6154 5.36164L61.2765 10.5965L66.5519 23.2982L71.8274 35.9999L66.5519 48.7016L61.2765 61.3627L48.6154 66.6381L35.9137 71.9136L23.212 66.6381L10.5103 61.3627L5.27546 48.7016L0 35.9999L5.27546 23.2982L10.5103 10.5965L23.212 5.36164L35.9137 0.0861816V0.0861816ZM25.7686 42.7768C26.0527 42.7768 26.3367 42.8174 26.5802 42.858L33.9253 25.1243C33.6006 24.962 33.3166 24.7185 33.0325 24.475C32.5455 23.9475 32.1803 23.3388 31.9774 22.6489L17.5308 23.9881C17.4496 24.9214 17.0438 25.7736 16.4351 26.3823C16.3133 26.5041 16.1916 26.6258 16.0699 26.707L25.0381 42.858C25.2816 42.8174 25.5251 42.7768 25.7686 42.7768V42.7768ZM27.5541 43.3044C27.7164 43.4261 27.8382 43.5478 28.0005 43.6696C28.4469 44.116 28.7715 44.7247 28.8527 45.374L41.595 45.2116C41.7573 44.1971 42.2443 43.2638 42.9747 42.5333C43.2993 42.2087 43.6646 41.9246 44.0704 41.7217L37.334 25.449C36.9282 25.6113 36.4818 25.6924 35.9949 25.6924C35.6296 25.6924 35.2644 25.6519 34.8992 25.5301L27.5541 43.3044V43.3044ZM28.8527 46.4291C28.731 47.0783 28.4469 47.6465 28.0005 48.0929C27.8382 48.2552 27.6759 48.3769 27.473 48.4987L36.076 69.2353L43.9892 50.203C43.5834 50.0001 43.2588 49.7567 42.9747 49.432C42.1631 48.6204 41.6355 47.5247 41.5544 46.2667L28.8527 46.4291V46.4291ZM26.5396 48.9045C26.2961 48.9856 26.0527 49.0262 25.7686 49.0262C25.1193 49.0262 24.5106 48.7827 24.0236 48.4581L12.6611 59.9829L34.9398 69.2353L26.5396 48.9045V48.9045ZM23.2526 47.7276C22.8874 47.2001 22.6845 46.5508 22.6845 45.9015C22.6845 45.658 22.6845 45.4145 22.7251 45.2116L2.63773 36.8927L11.8901 59.2525L23.2526 47.7276ZM23.1309 44.2377C23.2526 44.0348 23.4149 43.8319 23.5772 43.6696C23.7396 43.5478 23.9019 43.4261 24.0642 43.3044L15.1365 27.2345C14.7307 27.3968 14.3249 27.478 13.8379 27.478C13.0263 27.478 12.2553 27.1939 11.6466 26.7475L2.67831 35.7564L23.1309 44.2377V44.2377ZM58.8822 21.675C59.1663 21.7967 59.4098 21.9996 59.6127 22.2025C60.0591 22.6083 60.3026 23.217 60.3026 23.8663C60.3026 24.3127 60.1808 24.7591 59.9373 25.1243L68.6215 33.8491L60.3026 13.6806L58.8822 21.675V21.675ZM59.2069 25.8548C58.8417 26.0983 58.4359 26.22 57.9489 26.22C57.746 26.22 57.5025 26.1794 57.2996 26.1388L48.6965 41.6811C49.1023 41.9246 49.5082 42.2087 49.8734 42.5333C50.1574 42.8174 50.4009 43.1826 50.6038 43.5073L69.1491 35.8376L59.2069 25.8548V25.8548ZM56.4068 25.6113C56.3662 25.5707 56.3257 25.5707 56.2851 25.5301C55.9604 25.1649 55.717 24.7185 55.6358 24.191L40.0123 22.7301C39.8094 23.3794 39.4442 23.9881 38.9572 24.475C38.7543 24.6779 38.5514 24.8403 38.3079 25.0026L45.0443 41.3159C45.4907 41.1942 45.9371 41.113 46.424 41.113C46.8704 41.113 47.2762 41.1942 47.682 41.2753L56.4068 25.6113V25.6113ZM55.717 23.1359C55.8387 22.7707 56.0416 22.446 56.2851 22.2025C56.6909 21.7967 57.259 21.5532 57.8271 21.5127L59.4098 12.585L40.0935 20.6199C40.1341 20.904 40.1746 21.188 40.1746 21.5127C40.1746 21.5532 40.1746 21.6344 40.1746 21.675L55.717 23.1359V23.1359ZM31.8151 21.5938C31.8151 21.5938 31.8151 21.5532 31.8151 21.5127C31.8151 21.2286 31.8557 20.9445 31.8962 20.6605L12.4176 12.585L13.7568 20.1329C13.7568 20.1329 13.7974 20.1329 13.8379 20.1329C14.8524 20.1329 15.7858 20.5387 16.4351 21.188C16.9221 21.675 17.2467 22.2837 17.409 22.933L31.8151 21.5938ZM32.2209 19.6865C32.4644 19.2402 32.7078 18.8749 33.0325 18.5503C33.6818 17.901 34.534 17.4952 35.4673 17.3735L35.3862 2.56159L13.1886 11.7734L32.2209 19.6865V19.6865ZM10.9161 26.0171C10.4698 25.3678 10.1857 24.6374 10.1857 23.7852C10.1857 22.7707 10.5915 21.8779 11.2408 21.188C11.6466 20.8228 12.1336 20.4982 12.7017 20.2952L11.5248 13.6806L3.20586 33.7274L10.9161 26.0171ZM51.0502 44.4812C51.2125 44.9682 51.2937 45.4551 51.2937 45.9827C51.2937 47.1595 50.8473 48.2552 50.1574 49.1074L59.8968 59.2119L69.1085 37.0144L51.0502 44.4812V44.4812ZM49.3864 49.8378C48.5748 50.4871 47.5197 50.8523 46.424 50.8523C45.8965 50.8523 45.4095 50.7712 44.9226 50.6494L37.2934 69.0324L59.1663 59.9829L49.3864 49.8378ZM114.031 35.1477C114.031 36.8927 112.367 38.3536 110.298 38.3536H95.3641V28.6954H110.298C112.367 28.6954 114.031 30.1563 114.031 31.9013V35.1477ZM117.764 31.9013C117.683 28.3302 114.315 25.449 110.298 25.449H91.6307V48.0117H95.3641V41.6H110.298C114.477 41.6 117.764 38.5565 117.764 35.1477V31.9013V31.9013ZM120.767 48.0117H124.501L143.168 34.8231V48.0117H146.901V30.4809H143.168L124.501 43.3449V30.4809H120.767V48.0117V48.0117ZM173.035 33.7274V30.4809H150.635V48.0117H154.368V33.7274H173.035V33.7274ZM174.902 48.0117H178.635L197.302 30.3998V47.89H201.036V26.0577H197.302L178.635 43.3449V26.0577H174.902V48.0117ZM208.502 30.3998H204.769V47.89H208.502V40.7884H227.169V48.0117H230.903V30.4809H227.169V37.5419H208.502V30.3998ZM258.903 33.6868V30.4809H232.769V33.6868H243.97V48.0117H247.703V33.6868H258.903ZM264.503 33.6868H286.904V30.4809H260.77V48.0117H286.904V44.8058H264.503V40.7884H283.17V37.5419H264.503V33.6868V33.6868ZM297.333 30.4809C293.153 30.4809 289.866 32.8346 289.866 36.3245V48.0117H293.6V36.3245C293.6 34.5796 295.304 33.6868 297.333 33.6868H312.267V48.0117H316V30.4809H297.333V30.4809Z" fill="white"/>
</g>
<defs>
<clipPath id="clip0">
<rect width="316" height="72" fill="white"/>
</clipPath>
</defs>
</svg>
